M48
;GenerationSoftware,Autodesk,EAGLE,8.6.3*%
;CreationDate,2019-03-24T10:02:58Z*%
FMAT,2
ICI,OFF
METRIC,TZ,000.000
T5C0.813
T4C0.889
T3C1.000
T2C1.575
T1C3.251
%
G90
M71
T1
X90170Y76200
X77470Y76200
T2
X75717Y72771
X91923Y72771
T3
X71700Y72900
X75800Y66750
X90900Y61150
X61800Y65400
T4
X87376Y73660
X86360Y71882
X85344Y73660
X84328Y71882
X83312Y73660
X82296Y71882
X81280Y73660
X80264Y71882
T5
X66800Y66970
X64260Y66970
X66750Y64060
X64210Y64060
M30