**ABCDEFGHIJKLMNOPQRSTUVWXYZabcdefghijklmnopqrstuvwxyz**************************
**PARASOLID !"#$%&'()*+,-./:;<=>?@[\]^_`{|}~0123456789**************************
**PART1;
MC=AMD64;
MC_MODEL=Intel64 Family 6 Model 142 Stepping 9, GenuineIntel;
MC_ID=unknown;
OS=Windows_NT;
OS_RELEASE=unknown;
FRU=Parasolid Version 30.0, build 298, 12-15-2017;
APPL=SOLIDWORKS 2018-2018134;
SITE=;
USER=unknown;
FORMAT=text;
GUISE=transmit;
KEY=TOP CASE new;
FILE=TOP CASE new.x_t;
DATE=Mon Feb 11 22:11:06 2019;
**PART2;
SCH=SCH_3000298_30000;
USFLD_SIZE=0;
**PART3;
**END_OF_HEADER*****************************************************************
T51 : TRANSMIT FILE created by modeller version 300029823 SCH_3000298_30000_1300
6205 0 12 33 CCCCCCI4 mesh1006 0 I8 polyline1008 0 CCCCCCCDI5 owner1040 0 CCCCCC
I13 boundary_mesh1006 0 I17 boundary_polyline1008 0 CCCA16 index_map_offset0 0 1
 dA9 index_map82 0 A17 node_id_index_map82 0 A20 schema_embedding_map82 0 A5 chi
ld12 0 A14 lowest_node_id0 0 1 dZ1 2904 2 3 0 0 0 0 0 0 1e3 1e-8 0 4 0 1 0 1 1 5
 6 7 8 0 0 9 10 11 0 0 0 0 0 0 81 255 2 2 2625 12 1 0 0 0 0 13 0 70 11 CI9 list_
type0 0 1 uI10 notransmit0 0 1 lCCCDCCDI12 finger_index0 0 1 dI12 finger_block10
12 0 CZ3 0 4 T1 0 0 3 20 1 14 14 13 255 5 94 0 1 0 15 0 0 16 0 51 255 6 2381 0 1
7 18 0 0 +-.033 .0732865880037917 .03696607671926505 0 -1 0 .003 0 0 -1 30 255 7
 2430 0 10 19 0 0 +.0284 -.035 -.0333779357466701 0 1 0 29 255 8 2435 0 11 20 0
 .03 557683386513207e-32 -.0333779357466701 19 8 CCCCCCCA5 owner12 0 Z9 28 0 1 1
6 0 21 V0 16 255 10 2428 0 ?22 0 23 7 0 0 1 18 255 11 2433 0 24 0 25 8 ?1 17 255
 24 0 26 27 28 11 29 30 0 31 +18 25 2416 0 32 11 33 20 ?1 17 32 0 34 35 36 25 37
 38 0 39 -18 33 2167 0 40 25 41 42 ?1 29 20 2418 0 25 42 8 .0284 -11587235301783
74e-33 .0216220642533299 29 42 2169 0 33 43 20 -.03260526315789475 -.035 .039939
9938037657 29 43 2166 0 41 44 42 -.03260526315789475 .009 .0399399938037657 18 4
1 2164 0 45 33 46 43 ?1 29 44 2158 0 46 47 43 -.03260526315789475 -.035 -.039939
9938037657 18 46 2156 0 48 41 49 44 ?1 29 47 2155 0 49 50 44 -.03260526315789475
 .009 -.0399399938037657 18 49 2153 0 51 46 52 47 ?1 29 50 2142 0 52 53 47 -.03
 -.035 -.03696607671926505 18 52 2140 0 54 49 55 50 ?1 29 53 2139 0 55 56 50 -.0
3 .009 .03696607671926505 18 55 2137 0 57 52 58 53 ?1 29 56 2136 0 58 59 53 -.03
 .009 -.03696607671926505 18 58 2134 0 60 55 61 56 ?1 29 59 2133 0 61 62 56 -.03
 -.035 .03696607671926505 18 61 2131 0 63 58 64 59 ?1 29 62 2125 0 64 65 59 .032
60526315789475 -.035 -.0399399938037657 18 64 2123 0 66 61 67 62 ?1 29 65 2122 0
 67 68 62 .03260526315789475 .009 -.0399399938037657 18 67 2120 0 69 64 70 65 ?1
 29 68 2114 0 70 71 65 .03260526315789475 -.035 .0399399938037657 18 70 2112 0 7
2 67 73 68 ?1 29 71 2111 0 73 74 68 .03260526315789475 .009 .0399399938037657 18
 73 2109 0 75 70 76 71 ?1 29 74 2098 0 76 77 71 .03 -.035 -.03696607671926505 18
 76 2096 0 78 73 79 74 ?1 29 77 2095 0 79 80 74 .03 -.035 .03696607671926505 18
 79 2093 0 81 76 82 77 ?1 29 80 2092 0 82 83 77 .03 .009 -.03696607671926505 18
 82 2090 0 84 79 85 80 ?1 29 83 2089 0 85 86 80 .03 .009 .03696607671926505 18 8
5 2087 0 87 82 88 83 ?1 29 86 1813 0 88 89 83 -.0284 -.0315 -.0361 18 88 1811 0
 90 85 91 86 ?1 29 89 1484 0 91 92 86 -693889390390723e-32 -.035 -.0466115121665
055 18 91 1481 0 93 88 94 89 ?1 29 92 948 0 94 95 89 638378239159465e-30 -.035 .
0466115121665055 18 94 946 0 96 91 97 92 ?1 29 95 479 0 97 98 92 -.027 -.035 .04
29 18 97 477 0 99 94 100 95 ?1 29 98 621 0 101 102 95 .0284 -.035 -.0415 18 101
 535 0 103 100 104 98 ?1 29 102 622 0 105 106 98 .027 -.035 -.0429 18 105 533 0
 107 108 109 102 ?1 29 106 623 0 108 110 102 -.027 -.035 -.0429 18 108 534 0 111
 112 105 106 ?1 29 110 624 0 113 114 106 -.0284 -.035 -.0415 18 113 532 0 115 11
6 117 110 ?1 29 114 625 0 116 118 110 -.0284 -.035 .0415 18 116 537 0 119 104 11
3 114 ?1 29 118 627 0 100 120 114 .027 -.035 .0429 18 100 536 0 121 97 101 118 ?
1 29 120 628 0 104 122 118 .0284 -.035 .0415 18 104 530 0 123 101 116 120 ?1 29
 122 629 0 124 125 120 .0284 .0074 -.0415 18 124 543 0 126 127 112 122 ?1 29 125
 630 0 128 129 122 .027 .0074 -.0429 18 128 541 0 130 109 131 125 ?1 29 129 631
 0 117 132 125 .027 .0074 .0429 18 117 544 0 133 113 134 129 ?1 29 132 632 0 112
 135 129 .0284 .0074 .0415 18 112 540 0 136 124 108 132 ?1 29 135 633 0 137 138
 132 -.0284 .0074 .0415 18 137 545 0 139 134 127 135 ?1 29 138 634 0 134 140 135
 -.027 .0074 .0429 18 134 539 0 141 117 137 138 ?1 29 140 635 0 109 142 138 -.02
7 .0074 -.0429 18 109 542 0 143 105 128 140 ?1 29 142 636 0 127 144 140 -.0284 .
0074 -.0415 18 127 538 0 145 137 124 142 ?1 29 144 822 0 131 146 142 -.031641355
9322034 -.035 .049085997648564 18 131 750 0 147 128 148 144 ?1 29 146 827 0 148
 149 144 -.0316413559322034 .009 .049085997648564 18 148 748 0 150 131 151 146 ?
1 29 149 1112 0 151 152 146 961036805691151e-30 .009 .0466115121665055 18 151 10
23 0 153 148 154 149 ?1 29 152 1118 0 154 155 149 .0316413559322034 -.035 .04908
5997648564 18 154 1028 0 156 151 157 152 ?1 29 155 1122 0 157 158 152 .031641355
9322034 .009 .049085997648564 18 157 1036 0 159 154 160 155 ?1 29 158 1363 0 160
 161 155 -.0316413559322034 -.035 -.049085997648564 18 160 1290 0 162 157 163 15
8 ?1 29 161 1367 0 163 164 158 -.0316413559322034 .009 -.049085997648564 18 163
 1289 0 165 160 166 161 ?1 29 164 1655 0 166 167 161 -208166817117217e-31 .009 -
.0466115121665055 18 166 1573 0 168 163 169 164 ?1 29 167 1662 0 169 170 164 .03
16413559322034 -.035 -.049085997648564 18 169 1571 0 171 166 172 167 ?1 29 170 1
667 0 172 173 167 .0316413559322034 .009 -.049085997648564 18 172 1572 0 174 169
 175 170 ?1 29 173 1926 0 176 177 170 -.0284 -.035 -.0277 18 176 1878 0 178 175
 179 173 ?1 29 177 1927 0 175 180 173 -.0284 -.035 -.0361 18 175 1879 0 181 172
 176 177 ?1 29 180 1928 0 179 182 177 -.0284 -.0315 -.0277 18 179 1881 0 183 176
 184 180 ?1 29 182 1930 0 184 185 180 -.03 -.035 -.0277 18 184 1875 0 186 179 18
7 182 ?1 29 185 1931 0 187 188 182 -.03 -.035 -.0361 18 187 1876 0 189 184 190 1
85 ?1 29 188 1932 0 190 191 185 -.03 -.0315 -.0361 18 190 1877 0 192 187 193 188
 ?1 29 191 1933 0 193 194 188 -.03 -.0315 -.0277 18 193 1874 0 195 190 196 191 ?
1 29 194 2560 0 196 197 191 .0284 -.01 -.0333779357466701 18 196 2495 0 198 193
 199 194 ?1 29 197 2561 0 199 200 194 .0284 -.01 .0216220642533299 18 199 2497 0
 201 196 202 197 ?1 29 200 2563 0 202 203 197 .0284 673555739531044e-32 -.033377
9357466701 18 202 2490 0 35 199 204 200 ?1 29 203 2564 0 204 205 200 .03 -.01 -.
0333779357466701 18 204 2492 0 28 202 206 203 ?1 29 205 2565 0 206 207 203 .03 -
.01 .0216220642533299 18 206 2493 0 208 204 209 205 ?1 29 207 2566 0 209 0 205 .
03 0 .0216220642533299 18 209 2494 0 37 206 0 207 ?1 17 37 0 210 211 39 209 32 3
8 0 36 +15 255 210 2513 0 37 212 0 17 211 0 210 213 37 206 214 215 0 216 +17 39
 0 210 37 213 25 217 218 0 219 -16 38 2461 0 ?37 220 221 222 0 0 1 17 36 0 34 32
 31 209 223 224 0 214 +15 34 2517 0 31 225 0 17 31 0 34 36 35 11 27 221 0 223 +1
7 223 0 226 29 214 11 36 224 0 0 -16 224 2481 0 ?36 215 30 227 0 0 1 17 214 0 22
6 223 216 209 211 215 0 0 -15 226 2449 0 29 228 229 17 216 0 226 214 29 206 230
 231 0 0 -16 215 2484 0 ?211 231 224 232 0 0 1 16 231 2487 0 ?230 221 215 233 0
 0 1 30 232 2553 0 215 227 233 0 +.03 0 .0216220642533299 0 -1 0 30 227 2554 0 2
24 234 232 0 +.03 673555739531044e-32 -.0333779357466701 1261617073437678e-31 -1
224646799147352e-31 1 30 233 2552 0 231 232 235 0 +.03 -.01 -.0333779357466701 -
1261617073437678e-31 1261617073437678e-31 -1 30 235 2551 0 236 233 237 0 +.02 -.
01 -.0333779357466701 1 0 -1169476500658522e-31 16 236 2457 0 ?28 238 220 235 0
 0 1 30 237 2550 0 220 235 222 0 +.02 -.01 .0216220642533299 1 0 -11694765006585
22e-31 16 220 2459 0 ?208 236 38 237 0 0 1 30 222 2549 0 38 237 239 0 +.02 0 .02
16220642533299 1 0 -1169476500658522e-31 30 239 2548 0 221 222 240 0 +.02 673555
739531044e-32 -.0333779357466701 1 0 -1169476500658522e-31 16 221 2455 0 ?31 38
 231 239 0 0 1 30 240 1925 0 241 239 242 0 +-.0284 -.0315 -.0361 231853524605205
e-45 1 1982541115402065e-30 16 241 1872 0 ?243 244 245 240 0 0 1 30 242 1923 0 2
44 240 246 0 +-.0284 -.0315 -.0277 0 -1 0 16 244 1870 0 ?178 247 241 242 0 0 1 3
0 246 1922 0 238 242 248 0 +-.03 -.0315 -.0277 0 1 0 16 238 1858 0 ?249 250 236
 246 0 0 1 30 248 1921 0 250 246 251 0 +-.03 -.0315 -.0361 0 0 -1 16 250 1861 0
 ?252 253 238 248 0 0 1 30 251 1920 0 253 248 254 0 +-.03 -.0315 -.0361 0 -1 -19
82541115402065e-30 16 253 1864 0 ?255 256 250 251 0 0 1 30 254 1918 0 245 251 25
7 0 +-.0193 -.035 -.0277 -1 0 1169476500658522e-31 16 245 1855 0 ?186 241 258 25
4 0 0 1 30 257 1917 0 258 254 259 0 +-.0193 -.035 -.0361 -1 0 1169476500658522e-
31 16 258 1856 0 ?260 245 261 257 0 0 1 30 259 1916 0 261 257 262 0 +-.0193 -.03
15 -.0361 -1 0 1169476500658522e-31 16 261 1857 0 ?192 258 256 259 0 0 1 30 262
 1915 0 256 259 263 0 +-.0193 -.0315 -.0277 -1 0 1169476500658522e-31 16 256 185
4 0 ?195 261 253 262 0 0 1 30 263 1914 0 247 262 264 0 +-.0284 -.0315 -.0361 116
9476500658522e-31 0 1 16 247 1873 0 ?183 265 244 263 0 0 1 31 255 264 1768 0 265
 263 266 0 +.032 .009 -.0445 0 1 0 0 0 1 .00375 16 265 1731 0 ?267 268 247 264 0
 0 1 31 266 1765 0 268 264 269 0 +.032 -.035 -.0445 0 1 0 0 0 1 .0024 16 268 173
2 0 ?270 271 265 266 0 0 1 31 269 1650 0 272 266 273 0 +.032 -.035 -.0445 0 -1 0
 0 0 -1 .0046 16 272 1536 0 ?274 275 271 269 0 0 1 30 273 1649 0 271 269 276 0 +
.0316413559322034 -.035 -.049085997648564 .996956010557386 0 -.0779661016949153
 16 271 1533 0 ?171 272 268 273 0 0 1 30 276 1647 0 275 273 277 0 +.031641355932
2034 .009 -.049085997648564 .996956010557386 0 -.0779661016949153 16 275 1545 0
 ?174 278 272 276 0 0 1 31 277 1642 0 279 276 280 0 -.032 .009 -.0445 0 1 0 0 0
 1 .0046 16 279 1556 0 ?281 282 278 277 0 0 1 30 280 1637 0 278 277 283 0 +.0316
413559322034 .0732865880037917 -.049085997648564 0 -1 0 16 278 1546 0 ?284 279 2
75 280 0 0 1 31 283 1470 0 282 280 285 0 +-.032 .009 -.0445 0 1 0 0 0 1 .00375 1
6 282 1433 0 ?286 287 279 283 0 0 1 31 285 1467 0 287 283 288 0 +-.032 -.035 -.0
445 0 1 0 0 0 1 .0024 16 287 1434 0 ?289 290 282 285 0 0 1 30 288 1357 0 290 285
 291 0 +-.0316413559322034 -.035 -.049085997648564 -.996956010557386 0 -.0779661
016949153 16 290 1482 0 ?162 292 287 288 0 0 1 31 291 1356 0 293 288 294 0 +-.03
2 -.035 -.0445 0 1 0 0 0 -1 .0046 16 293 1265 0 ?295 296 292 291 0 0 1 31 294 13
49 0 297 291 298 0 +-.032 .009 -.0445 0 1 0 0 0 1 .0046 16 297 1283 0 ?299 300 2
96 294 0 0 1 30 298 1348 0 296 294 301 0 +-.0316413559322034 .009 -.049085997648
564 -.996956010557386 0 -.0779661016949153 16 296 1479 0 ?165 297 293 298 0 0 1
 30 301 1344 0 292 298 302 0 +-.0316413559322034 .0732865880037917 -.04908599764
8564 0 -1 0 16 292 1264 0 ?303 293 290 301 0 0 1 31 302 1223 0 300 301 304 0 +.0
32 .009 .0445 0 1 0 0 0 1 .00375 16 300 1186 0 ?305 306 297 302 0 0 1 31 304 122
0 0 306 302 307 0 +.032 -.035 .0445 0 1 0 0 0 1 .0024 16 306 1187 0 ?308 309 300
 304 0 0 1 30 307 1110 0 309 304 310 0 +.0316413559322034 -.035 .049085997648564
 .996956010557386 0 .0779661016949153 16 309 998 0 ?156 311 306 307 0 0 1 31 310
 1109 0 312 307 313 0 +.032 -.035 .0445 0 1 0 0 0 1 .0046 16 312 1002 0 ?314 315
 311 310 0 0 1 31 313 1102 0 316 310 317 0 +.032 .009 .0445 0 1 0 0 0 1 .0046 16
 316 1020 0 ?318 319 315 313 0 0 1 30 317 1101 0 315 313 320 0 +.031641355932203
4 .009 .049085997648564 .996956010557386 0 .0779661016949153 16 315 1019 0 ?159
 316 312 317 0 0 1 30 320 1097 0 311 317 321 0 +.0316413559322034 .0732865880037
917 .049085997648564 0 -1 0 16 311 1001 0 ?322 312 309 320 0 0 1 31 321 932 0 31
9 320 323 0 +-.032 .009 .0445 0 1 0 0 0 1 .00375 16 319 895 0 ?324 325 316 321 0
 0 1 31 323 929 0 325 321 326 0 +-.032 -.035 .0445 0 1 0 0 0 1 .0024 16 325 896
 0 ?327 328 319 323 0 0 1 31 326 812 0 329 323 330 0 +-.032 -.035 .0445 0 -1 0 0
 0 1 .0046 16 329 720 0 ?331 332 328 326 0 0 1 30 330 811 0 328 326 333 0 +-.031
6413559322034 -.035 .049085997648564 -.996956010557386 0 .0779661016949153 16 32
8 947 0 ?147 329 325 330 0 0 1 30 333 809 0 332 330 334 0 +-.0316413559322034 .0
09 .049085997648564 -.996956010557386 0 .0779661016949153 16 332 944 0 ?150 335
 329 333 0 0 1 31 334 804 0 336 333 337 0 --.032 .009 .0445 0 1 0 0 0 1 .0046 16
 336 734 0 ?338 339 335 334 0 0 1 30 337 799 0 335 334 340 0 +-.0316413559322034
 .0732865880037917 .049085997648564 0 -1 0 16 335 733 0 ?341 336 332 337 0 0 1 3
0 340 620 0 342 337 343 0 +.0284 -.035 -.0415 0 1 0 16 342 507 0 ?344 345 346 34
0 0 0 1 30 343 619 0 339 340 347 0 +.0284 .0074 -33213132618702e-31 -11694765006
58522e-31 0 -1 16 339 528 0 ?348 349 336 343 0 0 1 30 347 618 0 346 343 350 0 -.
0284 -.035 .0415 0 1 0 16 346 508 0 ?123 342 351 347 0 0 1 30 350 617 0 349 347
 352 0 +0 .0074 -.0429 -1 0 0 16 349 522 0 ?353 354 339 350 0 0 1 31 352 616 0 3
55 350 356 0 +-.027 .0074 -.0415 0 1 0 0 0 1 .0014 16 355 523 0 ?145 357 358 352
 0 0 1 30 356 615 0 354 352 359 0 +-.0284 .0074 3321313261870205e-33 11694765006
58522e-31 0 1 16 354 524 0 ?360 361 349 356 0 0 1 31 359 614 0 362 356 363 0 +-.
027 .0074 .0415 0 1 0 0 0 1 .0014 16 362 525 0 ?141 364 365 359 0 0 1 30 363 613
 0 361 359 366 0 +0 .0074 .0429 1 0 0 16 361 526 0 ?367 368 354 363 0 0 1 31 366
 612 0 364 363 369 0 +.027 .0074 .0415 0 1 0 0 0 1 .0014 16 364 527 0 ?136 358 3
62 366 0 0 1 31 369 611 0 358 366 370 0 +.027 .0074 -.0415 0 1 0 0 0 1 .0014 16
 358 529 0 ?130 355 364 369 0 0 1 30 370 610 0 371 369 372 0 +.027 -.035 .0429 0
 1 0 16 371 510 0 ?373 374 345 370 0 0 1 30 372 609 0 345 370 375 0 --.027 -.035
 .0429 0 1 0 16 345 511 0 ?376 371 342 372 0 0 1 30 375 608 0 357 372 377 0 +-.0
284 -.035 .0415 0 1 0 16 357 514 0 ?378 379 355 375 0 0 1 30 377 607 0 379 375 3
80 0 --.0284 -.035 -.0415 0 1 0 16 379 512 0 ?115 381 357 377 0 0 1 30 380 606 0
 365 377 382 0 +-.027 -.035 -.0429 0 1 0 16 365 516 0 ?383 362 384 380 0 0 1 30
 382 605 0 384 380 385 0 -.027 -.035 -.0429 0 1 0 16 384 517 0 ?107 365 386 382
 0 0 1 30 385 604 0 368 382 387 0 +.0284 -.035 -33213132618702e-31 -116947650065
8522e-31 0 -1 16 368 506 0 ?388 389 361 385 0 0 1 31 387 603 0 390 385 391 0 -.0
27 -.035 .0415 0 1 0 0 0 1 .0014 16 390 520 0 ?121 392 381 387 0 0 1 30 391 602
 0 386 387 393 0 +0 -.035 .0429 1 0 0 16 386 509 0 ?394 384 395 391 0 0 1 31 393
 601 0 381 391 396 0 --.027 -.035 .0415 0 1 0 0 0 1 .0014 16 381 521 0 ?397 390
 379 393 0 0 1 30 396 600 0 395 393 398 0 +-.0284 -.035 3321313261870205e-33 116
9476500658522e-31 0 1 16 395 513 0 ?399 386 400 396 400 400 1 31 398 599 0 351 3
96 401 0 --.027 -.035 -.0415 0 1 0 0 0 1 .0014 16 351 518 0 ?111 346 392 398 0 0
 1 30 401 598 0 389 398 402 0 +0 -.035 -.0429 -1 0 0 16 389 515 0 ?403 400 368 4
01 0 0 1 31 402 597 0 392 401 404 0 -.027 -.035 -.0415 0 1 0 0 0 1 .0014 16 392
 519 0 ?103 351 390 402 0 0 1 30 404 185 0 374 402 405 0 +.03 .009 -.0445 -11694
76500658522e-31 0 -1 16 374 2088 0 ?406 407 371 404 0 0 1 30 405 183 0 407 404 4
08 0 +-.03 .009 -.0445 1169476500658522e-31 0 1 16 407 2135 0 ?409 410 374 405 0
 0 1 30 408 5 0 410 405 411 0 +.03 -.035 -.0445 -1169476500658522e-31 0 -1 16 41
0 2094 0 ?412 413 407 408 0 0 1 30 411 11 0 414 408 415 0 +-.03 -.035 -.0445 116
9476500658522e-31 0 1 16 414 2141 0 ?189 416 413 411 413 413 1 30 415 951 0 416
 411 417 0 +-693889390390723e-32 .0732865880037917 .0466115121665055 0 1 0 16 41
6 949 0 ?418 419 414 415 0 0 1 30 417 1487 0 419 415 420 0 +-693889390390723e-32
 .0732865880037917 -.0466115121665055 0 -1 0 16 419 1485 0 ?421 422 416 417 0 0
 1 31 420 1957 0 422 417 423 0 -.032 .0035 .0445 0 -1 0 0 0 -1 .0024 16 422 1954
 0 ?424 425 419 420 0 0 1 31 423 1963 0 425 420 426 0 -.032 .0035 -.0445 0 -1 0
 0 0 -1 .0024 16 425 1960 0 ?427 428 422 423 0 0 1 31 426 1969 0 428 423 429 0 -
-.032 .0035 -.0445 0 -1 0 0 0 -1 .0024 16 428 1966 0 ?430 431 425 426 0 0 1 31 4
29 1975 0 431 426 432 0 --.032 .0035 .0445 0 -1 0 0 0 -1 .0024 16 431 1972 0 ?43
3 434 428 429 0 0 1 31 432 1998 0 434 429 435 0 -.032 .00485 .0445 0 1 0 0 0 1 .
00375 16 434 1978 0 ?436 437 431 432 0 0 1 31 435 1999 0 437 432 438 0 -.032 .00
485 -.0445 0 1 0 0 0 1 .00375 16 437 1983 0 ?439 440 434 435 0 0 1 31 438 2000 0
 440 435 441 0 --.032 .00485 -.0445 0 1 0 0 0 1 .00375 16 440 1988 0 ?442 443 43
7 438 0 0 1 31 441 2001 0 443 438 444 0 --.032 .00485 .0445 0 1 0 0 0 1 .00375 1
6 443 1993 0 ?445 446 440 441 0 0 1 30 444 2101 0 446 441 447 0 +.03 .009 -.0369
6607671926505 0 1 0 16 446 2099 0 ?84 448 443 444 0 0 1 30 447 2106 0 448 444 44
9 0 +.03 -.035 .03696607671926505 0 -1 0 16 448 2104 0 ?450 451 446 447 0 0 1 30
 449 2117 0 451 447 452 0 -.03260526315789475 .0732865880037917 .039939993803765
7 0 -1 0 16 451 2115 0 ?75 453 448 449 0 0 1 30 452 2128 0 453 449 454 0 +.03260
526315789475 .0732865880037917 -.0399399938037657 0 -1 0 16 453 2126 0 ?455 456
 451 452 0 0 1 30 454 2145 0 456 452 457 0 +-.03 .009 .03696607671926505 0 1 0 1
6 456 2143 0 ?57 458 453 454 0 0 1 30 457 2150 0 458 454 459 0 +-.03 -.035 -.036
96607671926505 0 -1 0 16 458 2148 0 ?460 461 456 457 0 0 1 30 459 2161 0 461 457
 462 0 --.03260526315789475 .0732865880037917 -.0399399938037657 0 -1 0 16 461 2
159 0 ?51 463 458 459 0 0 1 30 462 2172 0 463 459 464 0 +-.03260526315789475 .07
32865880037917 .0399399938037657 0 -1 0 16 463 2170 0 ?465 466 461 462 0 0 1 31
 464 2239 0 466 462 467 0 +.033 -.035 .03696607671926505 0 1 0 0 0 1 .003 16 466
 2175 0 ?72 468 463 464 0 0 1 31 467 2240 0 468 464 469 0 -.033 .009 .0369660767
1926505 0 1 0 0 0 1 .003 16 468 2183 0 ?87 470 466 467 0 0 1 31 469 2241 0 470 4
67 471 0 +.033 -.035 -.03696607671926505 0 1 0 0 0 1 .003 16 470 2191 0 ?78 472
 468 469 0 0 1 31 471 2242 0 472 469 473 0 -.033 .009 -.03696607671926505 0 1 0
 0 0 1 .003 16 472 2199 0 ?69 474 470 471 0 0 1 31 473 2243 0 474 471 475 0 +-.0
33 -.035 -.03696607671926505 0 1 0 0 0 1 .003 16 474 2207 0 ?48 476 472 473 0 0
 1 31 475 2244 0 476 473 477 0 --.033 .009 -.03696607671926505 0 1 0 0 0 1 .003
 16 476 2215 0 ?60 478 474 475 0 0 1 31 477 2245 0 478 475 479 0 +-.033 -.035 .0
3696607671926505 0 1 0 0 0 1 .003 16 478 2223 0 ?63 480 476 477 0 0 1 31 479 224
6 0 480 477 481 0 --.033 .009 .03696607671926505 0 1 0 0 0 1 .003 16 480 2231 0
 ?45 482 478 479 0 0 1 30 481 2419 0 482 479 483 0 +.0284 693889390390723e-32 -.
0445 1169476500658522e-31 -1224646799147352e-31 1 16 482 2417 0 ?219 218 480 481
 0 0 1 30 483 2423 0 218 481 19 0 +.0284 -.035 .0216220642533299 0 -1 0 16 218 2
421 0 ?217 23 482 483 0 0 1 30 19 2427 0 23 483 7 0 +.0284 -.01 -.0445 -11694765
00658522e-31 1261617073437678e-31 -1 16 23 2425 0 ?484 10 218 19 0 0 1 17 484 0
 485 22 217 196 201 23 0 0 +15 485 2414 0 484 486 487 17 22 0 485 219 484 202 19
8 10 0 0 +17 217 0 485 484 219 199 39 218 0 0 +17 201 0 488 208 489 199 484 23 0
 213 -15 488 2509 0 208 490 0 17 208 0 488 230 201 206 213 220 0 211 +17 489 0 4
88 201 230 196 28 236 0 484 -17 213 0 210 39 211 199 208 220 0 217 -17 230 0 488
 489 208 204 216 231 0 29 +17 28 0 26 24 198 204 489 236 0 230 +15 26 2505 0 28
 491 0 17 198 0 26 28 27 196 22 10 0 489 -17 27 0 26 198 24 202 31 221 0 22 -14
 255 491 2502 492 ?490 17 26 5 493 -0 0 490 17 21 81 1 492 2861 494 491 495 0 0
 496 497 14 490 2506 496 ?212 491 488 5 498 -0 0 212 491 21 14 17 2369 499 ?491
 500 501 5 6 -0 0 491 500 21 50 255 493 2542 0 491 502 503 0 +.02 67355573953104
4e-32 -.0333779357466701 -1169476500658522e-31 0 -1 -1 0 1169476500658522e-31 13
 21 29 0 0 0 0 0 0 9 15 14 15 1253 504 ?228 0 505 5 506 +0 0 228 0 21 81 1 504 2
864 494 15 507 0 499 508 509 14 228 973 508 ?510 15 226 5 511 +0 0 510 15 21 15
 505 1849 0 512 15 0 50 506 87 0 15 513 511 0 +-.03 -.035 -.0445 -1 0 1169476500
658522e-31 1169476500658522e-31 0 1 50 513 2 0 514 515 506 0 +0 -.035 0 0 1 0 0
 0 1 50 511 89 0 228 506 516 0 +.03 -.035 -.0445 1 0 -1169476500658522e-31 -1169
476500658522e-31 0 -1 52 255 516 2022 0 517 511 518 0 -.032 .0035 .0445 0 1 0 .0
024 .707106781186544 .707106781186551 0 0 1 14 517 2015 519 ?520 521 522 5 516 +
0 0 520 521 21 52 518 2035 0 520 516 523 0 -.032 .0035 -.0445 0 1 0 .0024 .70710
6781186544 .707106781186551 0 0 1 14 520 2028 524 ?525 517 526 5 518 +0 0 525 51
7 21 52 523 2048 0 525 518 527 0 --.032 .0035 -.0445 0 1 0 .0024 .70710678118654
5 .707106781186551 0 0 1 14 525 2041 528 ?529 520 530 5 523 +0 0 529 520 21 52 5
27 2061 0 529 523 531 0 --.032 .0035 .0445 0 1 0 .0024 .707106781186545 .7071067
81186551 0 0 1 14 529 2054 532 ?533 525 534 5 527 +0 0 533 525 21 51 531 2318 0
 533 527 535 0 +.033 .0732865880037917 .03696607671926505 0 -1 0 .003 0 0 -1 14
 533 2306 536 ?537 529 538 5 531 -0 0 537 529 21 51 535 2339 0 537 531 18 0 +.03
3 .0732865880037917 -.03696607671926505 0 -1 0 .003 0 0 -1 14 537 2327 539 ?500
 533 540 5 535 -0 0 500 533 21 51 18 2360 0 500 535 6 0 +-.033 .0732865880037917
 -.03696607671926505 0 -1 0 .003 0 0 -1 14 500 2348 541 ?17 537 542 5 18 -0 0 17
 537 21 81 1 541 2872 494 500 543 0 539 544 545 15 542 2349 0 546 500 0 17 546 0
 542 547 548 49 60 476 0 0 -17 547 0 542 54 546 46 51 461 0 0 -17 548 0 542 546
 54 58 460 458 0 0 -17 60 0 549 409 299 58 546 476 0 512 +15 549 1499 0 550 551
 552 17 409 0 549 45 60 55 512 407 0 553 +17 299 0 549 60 165 49 554 297 0 546 +
17 512 0 505 460 57 58 409 407 0 548 -17 460 0 505 189 512 52 548 458 0 555 +17
 57 0 505 512 556 55 557 456 0 409 +17 556 0 505 57 558 61 559 413 0 557 +17 557
 0 501 40 553 61 57 456 0 0 -15 501 2370 0 553 17 0 17 40 0 501 560 557 33 63 47
8 0 465 -17 553 0 501 557 560 55 45 480 0 0 -17 560 0 501 553 40 41 465 463 0 0
 -17 45 0 549 561 409 41 553 480 0 338 +17 561 0 549 153 45 148 338 336 0 562 -1
7 338 0 563 465 562 41 561 336 0 560 +15 563 771 0 338 564 0 17 465 0 563 565 33
8 33 560 463 0 331 +17 562 0 563 338 565 148 341 335 0 0 -17 565 0 563 562 465 1
31 331 329 0 0 -17 341 0 566 96 150 131 562 335 0 565 +15 566 767 0 96 510 0 17
 96 0 566 418 341 94 147 328 0 567 -17 150 0 566 341 418 148 153 332 0 561 +17 4
18 0 566 150 96 151 567 416 0 568 +17 153 0 549 159 561 151 150 332 0 418 -17 15
9 0 549 318 153 157 568 315 0 569 +17 318 0 549 87 159 73 569 316 0 570 +17 568
 0 571 567 572 151 159 315 0 0 -17 569 0 573 322 75 157 318 316 0 572 -15 573 10
60 0 314 574 0 17 322 0 573 314 569 154 572 311 0 575 +17 75 0 573 569 314 73 57
6 451 0 318 +17 572 0 571 568 156 157 322 311 0 0 -15 571 1056 0 567 577 0 17 15
6 0 571 572 567 154 578 309 0 322 +17 567 0 571 156 568 94 418 416 0 578 -17 578
 0 579 147 575 94 156 309 0 0 -15 579 478 0 559 514 580 17 147 0 579 331 578 131
 96 328 0 341 +17 575 0 579 578 72 154 314 312 0 0 -17 72 0 579 575 581 70 81 46
6 0 314 +17 314 0 573 75 322 70 575 312 0 576 +17 576 0 538 81 570 70 75 451 0 0
 -15 538 2307 0 570 533 0 17 81 0 538 582 576 79 72 466 0 450 -17 570 0 538 576
 582 73 87 468 0 0 -17 582 0 538 570 81 85 450 448 0 0 -17 87 0 549 406 318 85 5
70 468 0 583 +17 406 0 549 69 87 82 583 374 0 584 +17 583 0 229 450 84 85 406 37
4 0 582 -15 229 1524 0 583 228 0 17 450 0 229 412 583 79 582 448 0 581 +17 84 0
 229 583 412 82 585 446 0 406 +17 412 0 229 84 450 76 581 410 0 585 +17 585 0 54
0 66 584 76 84 446 0 0 -15 540 2328 0 584 537 0 17 66 0 540 586 585 64 78 470 0
 455 -17 584 0 540 585 586 82 69 472 0 0 -17 586 0 540 584 66 67 455 453 0 0 -17
 69 0 549 587 406 67 584 472 0 281 +17 587 0 549 550 69 172 281 279 0 588 -17 28
1 0 589 455 588 67 587 279 0 586 +15 589 1607 0 281 590 0 17 455 0 589 591 281 6
4 586 453 0 274 +17 588 0 589 281 591 172 284 278 0 0 -17 591 0 589 588 455 169
 274 272 0 0 -17 284 0 592 93 174 169 588 278 0 591 +15 592 1591 0 168 593 0 17
 93 0 592 168 284 91 171 271 0 421 -17 174 0 592 284 168 172 550 275 0 587 +17 1
68 0 592 174 93 166 421 419 0 550 -17 550 0 549 165 587 166 174 275 0 594 -17 16
5 0 549 299 550 163 594 296 0 554 +17 594 0 595 421 596 166 165 296 0 0 -15 595
 1305 0 594 597 0 17 421 0 595 162 594 91 168 419 0 598 +17 596 0 595 594 162 16
3 303 292 0 0 -17 162 0 595 596 421 160 598 290 0 303 +17 303 0 599 295 554 160
 596 292 0 600 +15 599 1309 0 295 601 0 17 295 0 599 51 303 46 600 293 0 547 +17
 554 0 599 303 51 163 299 297 0 596 -17 600 0 579 598 48 160 295 293 0 0 -17 598
 0 579 171 600 91 162 290 0 0 -17 48 0 579 600 555 46 54 474 0 295 +17 555 0 579
 48 260 52 189 414 0 0 -17 54 0 542 548 547 52 48 474 0 460 -17 260 0 579 555 39
9 187 181 258 0 0 +17 189 0 505 602 460 187 555 414 0 255 +17 602 0 505 603 189
 190 255 253 0 0 -17 255 0 604 181 192 187 602 253 0 260 +15 604 1893 0 243 605
 0 17 181 0 604 243 255 175 260 258 0 606 -17 192 0 604 255 243 190 90 261 0 252
 +17 243 0 604 192 181 88 606 241 0 607 +17 90 0 608 183 252 88 192 261 0 243 -1
7 252 0 608 90 195 190 603 250 0 602 +15 608 1897 0 183 521 0 17 195 0 608 252 1
83 193 609 256 0 249 +17 603 0 505 558 602 193 252 250 0 0 -17 558 0 505 556 603
 184 249 238 0 559 -17 249 0 610 609 186 193 558 238 0 603 +17 559 0 579 611 63
 184 556 413 0 0 -17 611 0 579 119 559 176 186 245 0 612 -17 63 0 579 559 331 61
 40 478 0 556 +16 413 1826 0 ?556 414 410 411 414 414 1 17 331 0 579 63 147 33 5
65 329 0 0 +17 119 0 579 613 611 116 612 400 0 397 +17 186 0 610 249 178 184 611
 245 0 558 +17 612 0 614 615 616 176 119 400 0 0 -15 614 1809 0 612 617 0 17 615
 0 614 607 612 179 178 244 0 0 -17 616 0 614 612 360 116 378 357 0 0 -16 400 180
6 0 ?119 395 389 396 395 395 1 17 360 0 614 616 618 137 619 354 0 0 +17 378 0 62
0 141 397 137 616 357 0 360 +15 620 584 0 397 621 0 17 141 0 620 376 378 134 139
 362 0 622 +17 397 0 620 378 376 116 613 381 0 616 +17 376 0 620 397 141 97 623
 345 0 613 +17 613 0 579 394 119 97 397 381 0 0 -17 394 0 579 624 613 100 99 386
 0 0 +17 624 0 579 388 394 104 121 390 0 0 -17 99 0 625 623 626 97 394 386 0 376
 -15 625 553 0 99 627 0 17 623 0 625 367 99 134 376 345 0 0 -17 626 0 625 99 367
 100 373 371 0 394 -17 367 0 625 626 623 117 622 361 0 0 +17 373 0 628 136 121 1
17 626 371 0 367 +15 628 580 0 121 629 0 17 136 0 628 123 373 112 133 364 0 630
 +17 121 0 628 373 123 100 624 390 0 626 +17 123 0 628 121 136 104 631 346 0 632
 +17 631 0 487 348 632 112 123 346 0 0 -17 632 0 487 631 633 104 388 368 0 624 -
15 487 549 0 632 486 0 17 633 0 487 632 348 101 344 342 0 388 -17 388 0 579 634
 624 101 632 368 0 0 +17 634 0 579 403 388 105 103 392 0 0 -17 403 0 579 635 634
 108 636 389 0 0 +17 103 0 637 344 107 101 634 392 0 633 +15 637 576 0 103 638 0
 17 344 0 637 130 103 124 633 342 0 348 +17 107 0 637 103 130 105 639 384 0 636
 +17 130 0 637 107 344 128 126 358 0 640 +17 639 0 641 353 636 128 107 384 0 0 -
17 636 0 641 639 642 105 403 389 0 634 -15 641 561 0 636 643 0 17 642 0 641 636
 353 108 383 365 0 403 -17 353 0 641 642 639 109 640 349 0 0 +17 383 0 644 145 1
11 109 642 365 0 353 +15 644 572 0 111 645 0 17 145 0 644 115 383 127 143 355 0
 619 +17 111 0 644 383 115 108 635 351 0 642 +17 115 0 644 111 145 113 618 379 0
 646 +17 635 0 579 399 403 113 111 351 0 0 -17 399 0 579 260 635 175 646 395 0 0
 +17 646 0 614 618 606 113 399 395 0 635 -17 618 0 614 360 646 127 115 379 0 0 -
17 606 0 614 646 607 175 243 241 0 399 -17 607 0 614 606 615 88 183 247 0 0 -17
 183 0 608 195 90 179 607 247 0 609 +17 609 0 610 178 249 179 195 256 0 615 -15
 610 1885 0 178 647 0 17 178 0 610 186 609 176 615 244 0 611 +14 647 1882 544 ?6
05 648 610 5 649 -0 0 605 648 21 81 1 544 2873 494 647 650 0 541 651 652 14 605
 1890 651 ?521 647 604 5 503 -0 0 521 647 21 14 648 1753 653 ?647 654 655 5 656
 -0 0 647 654 21 50 649 1908 0 647 657 656 0 +-.0193 -.0315 -.0277 1169476500658
522e-31 0 1 1 0 -1169476500658522e-31 50 657 1909 0 521 503 649 0 +-.0193 -.0315
 -.0361 0 1 0 0 0 1 51 656 1764 0 648 649 658 0 +.032 .009 -.0445 0 1 0 .00375 0
 0 1 51 658 1762 0 654 656 659 0 +.032 .009 -.0445 0 1 0 .0024 0 0 1 14 654 1743
 660 ?648 590 661 5 658 -0 0 648 590 21 51 659 1628 0 590 658 662 0 +.032 .07328
65880037917 -.0445 0 -1 0 .0046 0 0 -1 14 590 1604 663 ?654 593 589 5 659 +0 0 6
54 593 21 50 662 1627 0 593 659 664 0 +.0316413559322034 .0732865880037917 -.049
085997648564 -.0779661016949153 0 -.996956010557386 -.996956010557386 0 .0779661
016949153 14 593 1588 665 ?590 666 592 5 662 +0 0 590 666 21 51 664 1466 0 666 6
62 667 0 +-.032 .009 -.0445 0 1 0 .00375 0 0 1 14 666 1455 668 ?593 669 670 5 66
4 -0 0 593 669 21 51 667 1464 0 669 664 671 0 +-.032 .009 -.0445 0 1 0 .0024 0 0
 1 14 669 1445 672 ?666 601 673 5 667 -0 0 666 601 21 51 671 1335 0 601 667 674
 0 --.032 .0732865880037917 -.0445 0 -1 0 .0046 0 0 -1 14 601 1306 675 ?669 597
 599 5 671 -0 0 669 597 21 50 674 1334 0 597 671 676 0 +-.0316413559322034 .0732
865880037917 -.049085997648564 -.0779661016949153 0 .996956010557386 .9969560105
57386 0 .0779661016949153 14 597 1302 677 ?601 678 595 5 674 -0 0 601 678 21 51
 676 1219 0 678 674 679 0 +.032 .009 .0445 0 1 0 .00375 0 0 1 14 678 1208 680 ?5
97 681 682 5 676 -0 0 597 681 21 51 679 1217 0 681 676 683 0 +.032 .009 .0445 0
 1 0 .0024 0 0 1 14 681 1198 684 ?678 574 685 5 679 -0 0 678 574 21 51 683 1086
 0 574 679 686 0 -.032 .0732865880037917 .0445 0 -1 0 .0046 0 0 -1 14 574 1057 6
87 ?681 577 573 5 683 -0 0 681 577 21 50 686 1085 0 577 683 688 0 +.031641355932
2034 .0732865880037917 .049085997648564 .0779661016949153 0 -.996956010557386 -.
996956010557386 0 -.0779661016949153 14 577 1053 689 ?574 690 571 5 686 -0 0 574
 690 21 51 688 928 0 690 686 691 0 +-.032 .009 .0445 0 1 0 .00375 0 0 1 14 690 9
17 692 ?577 693 694 5 688 -0 0 577 693 21 51 691 926 0 693 688 695 0 +-.032 .009
 .0445 0 1 0 .0024 0 0 1 14 693 907 696 ?690 564 697 5 691 -0 0 690 564 21 51 69
5 792 0 564 691 698 0 +-.032 .0732865880037917 .0445 0 -1 0 .0046 0 0 -1 14 564
 768 699 ?693 621 563 5 695 +0 0 693 621 21 50 698 791 0 510 695 700 0 +-.031641
3559322034 .0732865880037917 .049085997648564 .0779661016949153 0 .9969560105573
86 .996956010557386 0 -.0779661016949153 14 510 952 701 ?514 228 566 5 698 +0 0
 514 228 21 50 700 595 0 486 698 702 0 +.0284 -.035 -.0445 1 0 -1169476500658522
e-31 -1169476500658522e-31 0 -1 14 486 546 703 ?627 551 485 5 700 -0 0 627 551 2
1 50 702 594 0 627 700 704 0 +-.03 -.035 .0429 0 0 1 1 0 0 14 627 550 705 ?617 4
86 625 5 702 -0 0 617 486 21 50 704 593 0 617 702 706 0 +-.0284 -.035 -.0445 -1
 0 1169476500658522e-31 1169476500658522e-31 0 1 14 617 554 707 ?643 627 614 5 7
04 -0 0 643 627 21 50 706 592 0 643 704 708 0 +-.03 -.035 -.0429 0 0 -1 -1 0 0 1
4 643 558 709 ?710 617 641 5 706 -0 0 710 617 21 50 708 591 0 710 706 711 0 +0 .
0074 0 0 1 0 0 0 1 14 710 565 712 ?645 643 713 5 708 -0 0 645 643 21 51 711 590
 0 645 708 714 0 +-.027 -.035 -.0415 0 1 0 .0014 0 0 1 14 645 569 715 ?638 710 6
44 5 711 -0 0 638 710 21 51 714 589 0 638 711 716 0 +.027 -.035 -.0415 0 1 0 .00
14 0 0 1 14 638 573 717 ?629 645 637 5 714 -0 0 629 645 21 51 716 588 0 629 714
 718 0 +.027 -.035 .0415 0 1 0 .0014 0 0 1 14 629 577 719 ?621 638 628 5 716 -0
 0 621 638 21 51 718 587 0 621 716 515 0 +-.027 -.035 .0415 0 1 0 .0014 0 0 1 14
 621 581 720 ?564 629 620 5 718 -0 0 564 629 21 50 515 173 0 551 718 513 0 +0 .0
09 0 0 1 0 0 0 1 14 551 160 721 ?486 514 722 5 515 +0 0 486 514 21 81 1 721 2900
 494 551 723 0 720 724 725 14 514 1 724 ?551 510 726 5 513 -0 0 551 510 21 15 72
2 1708 0 727 551 549 17 727 0 722 727 727 0 267 265 0 0 -17 267 0 728 267 267 0
 727 265 0 0 +15 728 1757 0 267 648 0 81 1 724 2901 494 514 729 0 721 730 731 15
 726 1720 0 270 514 732 17 270 0 726 270 270 0 733 268 0 0 +15 732 1423 0 289 51
4 734 17 289 0 732 289 289 0 735 287 0 0 +15 734 1166 0 308 514 579 17 308 0 734
 308 308 0 736 306 0 0 +17 736 0 737 736 736 0 308 306 0 0 -15 737 1201 0 736 68
1 0 17 735 0 738 735 735 0 289 287 0 0 -15 738 1448 0 735 669 0 17 733 0 739 733
 733 0 270 268 0 0 -15 739 1746 0 733 654 0 80 255 1 494 740 741 9000 1 1 1 1 1
 1 1 1 0 FFFFTFTFFFFFFF1 81 1 729 2722 742 514 0 724 743 723 744 81 1 730 2902 4
94 212 745 0 724 746 747 82 255 1 731 1457066758 14 212 2510 730 ?225 490 210 5
 748 -0 0 225 490 21 81 1 745 2761 742 212 0 730 749 750 751 81 1 746 2903 494 2
25 750 0 730 752 753 82 1 747 -1186721007 14 225 2514 746 ?0 212 34 5 502 -0 0 0
 212 21 81 1 750 2762 742 225 0 746 745 0 754 81 1 752 2904 494 521 755 0 746 0
 756 82 1 753 -1187507439 14 521 1894 752 ?517 605 608 5 657 -0 0 517 605 21 81
 1 755 2750 742 521 0 752 757 758 759 82 1 756 1935807236 80 1 742 0 760 8001 0
 0 0 0 3 5 0 0 0 FFFFTFTFFFFFFF2 81 1 757 2749 742 605 0 651 650 755 761 81 1 75
8 2751 742 517 0 519 755 762 763 83 255 3 759 .498039215686275 .498039215686275
 .498039215686275 81 1 519 2866 494 517 758 0 508 524 764 81 1 762 2752 742 520
 0 524 758 765 766 83 3 763 .498039215686275 .498039215686275 .498039215686275 8
1 1 524 2867 494 520 762 0 519 528 767 81 1 765 2753 742 525 0 528 762 768 769 8
3 3 766 .498039215686275 .498039215686275 .498039215686275 81 1 528 2868 494 525
 765 0 524 532 770 81 1 768 2754 742 529 0 532 765 771 772 83 3 769 .49803921568
6275 .498039215686275 .498039215686275 81 1 532 2869 494 529 768 0 528 536 773 8
1 1 771 2755 742 533 0 536 768 774 775 83 3 772 .498039215686275 .49803921568627
5 .498039215686275 81 1 536 2870 494 533 771 0 532 539 776 81 1 774 2756 742 537
 0 539 771 543 777 83 3 775 .498039215686275 .498039215686275 .498039215686275 8
1 1 539 2871 494 537 774 0 536 541 778 81 1 543 2757 742 500 0 541 774 779 780 8
3 3 777 .498039215686275 .498039215686275 .498039215686275 81 1 779 2758 742 17
 0 499 543 495 781 83 3 780 .498039215686275 .498039215686275 .498039215686275 8
1 1 499 2863 494 17 779 0 496 504 782 81 1 495 2759 742 491 0 492 779 749 783 83
 3 781 .498039215686275 .498039215686275 .498039215686275 81 1 749 2760 742 490
 0 496 495 745 784 83 3 783 .498039215686275 .498039215686275 .498039215686275 8
1 1 496 2862 494 490 749 0 492 499 785 83 3 784 .498039215686275 .49803921568627
5 .498039215686275 82 1 785 -1185934575 82 1 782 1986532102 82 1 778 1982599942
 82 1 776 1980633862 82 1 773 1970803461 82 1 770 1969558277 82 1 767 1968313093
 81 1 508 2865 494 228 786 0 504 519 787 82 1 764 1967067909 81 1 786 2720 742 2
28 0 508 507 743 788 82 1 787 1705841425 81 1 507 2719 742 15 0 504 0 786 789 81
 1 743 2721 742 510 0 701 786 729 790 83 3 788 .498039215686275 .498039215686275
 .498039215686275 81 1 701 2890 494 510 743 0 699 703 791 83 3 790 .498039215686
275 .498039215686275 .498039215686275 81 1 699 2889 494 564 792 0 696 701 793 81
 1 703 2891 494 486 794 0 701 705 795 82 1 791 1701516033 81 1 794 2724 742 486
 0 703 723 796 797 81 1 705 2892 494 627 796 0 703 707 798 82 1 795 1512641297 8
1 1 796 2725 742 627 0 705 794 799 800 81 1 707 2893 494 617 799 0 705 709 801 8
2 1 798 1512772345 81 1 799 2726 742 617 0 707 796 802 803 81 1 709 2894 494 643
 802 0 707 712 804 82 1 801 1514345220 81 1 802 2727 742 643 0 709 799 805 806 8
1 1 712 2895 494 710 805 0 709 715 807 82 1 804 1514017529 81 1 805 2728 742 710
 0 712 802 808 809 81 1 715 2896 494 645 808 0 712 717 810 82 1 807 1513231097 8
1 1 808 2729 742 645 0 715 805 811 812 81 1 717 2897 494 638 811 0 715 719 813 8
2 1 810 1513034489 81 1 811 2730 742 638 0 717 808 814 815 81 1 719 2898 494 629
 814 0 717 720 816 82 1 813 1512444665 81 1 814 2731 742 629 0 719 811 817 818 8
1 1 720 2899 494 621 817 0 719 721 819 82 1 816 1512248057 81 1 817 2732 742 621
 0 720 814 792 820 82 1 819 1512379129 81 1 792 2733 742 564 0 699 817 821 822 8
3 3 820 .498039215686275 .498039215686275 .498039215686275 81 1 821 2734 742 693
 0 696 792 823 824 83 3 822 .498039215686275 .498039215686275 .498039215686275 8
1 1 696 2888 494 693 821 0 692 699 825 81 1 823 2735 742 690 0 692 821 826 827 8
3 3 824 .498039215686275 .498039215686275 .498039215686275 81 1 692 2887 494 690
 823 0 689 696 828 81 1 826 2736 742 577 0 689 823 829 830 83 3 827 .49803921568
6275 .498039215686275 .498039215686275 81 1 689 2886 494 577 826 0 687 692 831 8
1 1 829 2737 742 574 0 687 826 832 833 83 3 830 .498039215686275 .49803921568627
5 .498039215686275 81 1 687 2885 494 574 829 0 684 689 834 81 1 832 2738 742 681
 0 684 829 835 836 83 3 833 .498039215686275 .498039215686275 .498039215686275 8
1 1 684 2884 494 681 832 0 680 687 837 81 1 835 2739 742 678 0 680 832 838 839 8
3 3 836 .498039215686275 .498039215686275 .498039215686275 81 1 680 2883 494 678
 835 0 677 684 840 81 1 838 2740 742 597 0 677 835 841 842 83 3 839 .49803921568
6275 .498039215686275 .498039215686275 81 1 677 2882 494 597 838 0 675 680 843 8
1 1 841 2741 742 601 0 675 838 844 845 83 3 842 .498039215686275 .49803921568627
5 .498039215686275 81 1 675 2881 494 601 841 0 672 677 846 81 1 844 2742 742 669
 0 672 841 847 848 83 3 845 .498039215686275 .498039215686275 .498039215686275 8
1 1 672 2880 494 669 844 0 668 675 849 81 1 847 2743 742 666 0 668 844 850 851 8
3 3 848 .498039215686275 .498039215686275 .498039215686275 81 1 668 2879 494 666
 847 0 665 672 852 81 1 850 2744 742 593 0 665 847 853 854 83 3 851 .49803921568
6275 .498039215686275 .498039215686275 81 1 665 2878 494 593 850 0 663 668 855 8
1 1 853 2745 742 590 0 663 850 856 857 83 3 854 .498039215686275 .49803921568627
5 .498039215686275 81 1 663 2877 494 590 853 0 660 665 858 81 1 856 2746 742 654
 0 660 853 859 860 83 3 857 .498039215686275 .498039215686275 .498039215686275 8
1 1 660 2876 494 654 856 0 653 663 861 81 1 859 2747 742 648 0 653 856 650 862 8
3 3 860 .498039215686275 .498039215686275 .498039215686275 81 1 653 2875 494 648
 859 0 651 660 863 81 1 650 2748 742 647 0 544 859 757 864 83 3 862 .49803921568
6275 .498039215686275 .498039215686275 83 3 864 .498039215686275 .49803921568627
5 .498039215686275 81 1 651 2874 494 605 757 0 544 653 865 82 1 863 1901728517 8
2 1 865 1935676164 82 1 861 1902908165 82 1 858 1863455494 82 1 855 1878790914 8
2 1 852 1811419909 82 1 849 1812599557 82 1 846 1780749062 82 1 843 1781535490 8
2 1 840 1725108997 82 1 837 1726288645 82 1 834 1689064198 82 1 831 1689850625 8
2 1 828 1634472709 82 1 825 1635652357 83 3 818 .498039215686275 .49803921568627
5 .498039215686275 83 3 815 .498039215686275 .498039215686275 .498039215686275 8
3 3 812 .498039215686275 .498039215686275 .498039215686275 83 3 809 .49803921568
6275 .498039215686275 .498039215686275 83 3 806 .498039215686275 .49803921568627
5 .498039215686275 83 3 803 .498039215686275 .498039215686275 .498039215686275 8
3 3 800 .498039215686275 .498039215686275 .498039215686275 81 1 723 2723 742 551
 0 721 729 794 866 83 3 797 .498039215686275 .498039215686275 .498039215686275 8
3 3 866 .498039215686275 .498039215686275 .498039215686275 82 1 793 1601180422 8
3 3 789 .498039215686275 .498039215686275 .498039215686275 83 3 761 .49803921568
6275 .498039215686275 .498039215686275 79 255 15 760 SDL/TYSA_COLOUR83 3 754 .49
8039215686275 .498039215686275 .498039215686275 50 502 2543 0 225 748 493 0 +.02
 673555739531044e-32 -.0333779357466701 1432195653209506e-47 1 1224646799147352e
-31 0 -1224646799147352e-31 1 50 748 2544 0 212 498 502 0 +.02 0 .02162206425332
99 1169476500658522e-31 0 1 1 0 -1169476500658522e-31 50 498 2545 0 490 0 748 0
 +.02 -.01 -.0333779357466701 -147543152021494e-46 -1 -1261617073437678e-31 0 12
61617073437678e-31 -1 83 3 751 .498039215686275 .498039215686275 .49803921568627
5 83 3 744 .498039215686275 .498039215686275 .498039215686275 79 14 741 SWEntUnc
hanged82 1 725 1472598790 15 713 568 0 640 710 0 17 640 0 713 126 143 128 353 34
9 0 639 -17 126 0 713 630 640 124 130 358 0 344 -17 143 0 713 640 619 109 145 35
5 0 383 -17 619 0 713 143 139 127 360 354 0 618 -17 139 0 713 619 622 137 141 36
2 0 378 -17 622 0 713 139 133 134 367 361 0 623 -17 133 0 713 622 630 117 136 36
4 0 373 -17 630 0 713 133 126 112 348 339 0 631 -17 348 0 487 633 631 124 630 33
9 0 0 +15 697 1973 0 433 693 867 17 433 0 697 433 433 0 868 431 0 0 +15 867 910
 0 869 693 0 17 869 0 867 869 869 0 327 325 0 0 -17 327 0 580 327 327 0 869 325
 0 0 +15 580 886 0 327 514 0 17 868 0 870 868 868 0 433 431 0 0 -15 870 2056 0 8
68 529 0 15 694 1994 0 445 690 871 17 445 0 694 445 445 0 872 443 0 0 +15 871 92
1 0 324 690 0 17 324 0 871 324 324 0 873 319 0 0 +17 873 0 874 873 873 0 324 319
 0 0 -15 874 878 0 873 551 0 17 872 0 534 872 872 0 445 443 0 0 -15 534 2055 0 8
72 529 870 15 685 1955 0 424 681 737 17 424 0 685 424 424 0 875 422 0 0 +17 875
 0 876 875 875 0 424 422 0 0 -15 876 2017 0 875 517 0 15 682 1979 0 436 678 877
 17 436 0 682 436 436 0 878 434 0 0 +15 877 1212 0 305 678 0 17 305 0 877 305 30
5 0 879 300 0 0 +17 879 0 880 879 879 0 305 300 0 0 -15 880 1176 0 879 551 874 1
7 878 0 522 878 878 0 436 434 0 0 -15 522 2016 0 878 517 876 15 673 1967 0 430 6
69 738 17 430 0 673 430 430 0 881 428 0 0 +17 881 0 882 881 881 0 430 428 0 0 -1
5 882 2043 0 881 525 0 15 670 1989 0 442 666 883 17 442 0 670 442 442 0 884 440
 0 0 +15 883 1459 0 286 666 0 17 286 0 883 286 286 0 885 282 0 0 +17 885 0 552 8
85 885 0 286 282 0 0 -15 552 1412 0 885 551 880 17 884 0 530 884 884 0 442 440 0
 0 -15 530 2042 0 884 525 882 15 661 1961 0 427 654 739 17 427 0 661 427 427 0 8
86 425 0 0 +17 886 0 887 886 886 0 427 425 0 0 -15 887 2030 0 886 520 0 50 503 1
910 0 605 493 657 0 +-.0193 -.0315 -.0361 -1169476500658522e-31 1982541115402065
e-30 -1 0 1 1982541115402065e-30 15 655 1984 0 439 648 728 17 439 0 655 439 439
 0 888 437 0 0 +17 888 0 526 888 888 0 439 437 0 0 -15 526 2029 0 888 520 887 82
 1 652 1935938308 17 171 0 579 274 598 169 93 271 0 284 +17 274 0 579 78 171 64
 591 272 0 0 +17 78 0 579 581 274 76 66 470 0 412 +17 581 0 579 72 78 79 412 410
 0 0 -17 51 0 599 554 295 49 547 461 0 299 +82 1 545 1984566022 82 1 509 1793200
902 82 1 497 -1185475823 17 29 0 226 216 223 204 24 30 0 0 -16 30 2478 0 ?24 224
 0 234 0 0 1 30 234 2555 0 30 0 227 0 +.03 673555739531044e-32 -.033377935746670
1 0 1 0 17 219 0 485 217 22 25 35 482 0 0 +17 35 0 34 31 32 202 219 482 0 27 -19
 16 95 0 1 0 9 5 S0 74 4 CI16 index_map_offset0 0 1 dCCZ20 14 3 0 0 752 2 750 0
 0 0 0 0 0 0 0 0 0 0 0 0 0 0 0 0 80 2 12 889 890 8004 0 0 0 0 3 5 0 0 0 FFTFFFFF
FFFFFF2 3 83 1 13 890 79 16 890 SDL/TYSA_DENSITY1 0 
