G75*
%MOIN*%
%OFA0B0*%
%FSLAX25Y25*%
%IPPOS*%
%LPD*%
%AMOC8*
5,1,8,0,0,1.08239X$1,22.5*
%
%ADD10C,0.05600*%
%ADD11OC8,0.05600*%
%ADD12R,0.02165X0.01181*%
%ADD13R,0.04331X0.05709*%
%ADD14C,0.01600*%
%ADD15C,0.02000*%
%ADD16C,0.04750*%
%ADD17C,0.02978*%
D10*
X0031354Y0119504D03*
D11*
X0041354Y0119504D03*
X0051354Y0119504D03*
X0061354Y0119504D03*
X0071354Y0119504D03*
X0081354Y0119504D03*
X0091354Y0119504D03*
X0101354Y0119504D03*
X0111354Y0119504D03*
X0121354Y0119504D03*
X0131354Y0119504D03*
X0141354Y0119504D03*
X0151354Y0119504D03*
X0161354Y0119504D03*
X0171354Y0119504D03*
X0181354Y0119504D03*
X0191354Y0119504D03*
X0201354Y0119504D03*
X0211354Y0119504D03*
X0221354Y0119504D03*
X0221354Y0109504D03*
X0211354Y0109504D03*
X0201354Y0109504D03*
X0191354Y0109504D03*
X0181354Y0109504D03*
X0171354Y0109504D03*
X0161354Y0109504D03*
X0151354Y0109504D03*
X0141354Y0109504D03*
X0131354Y0109504D03*
X0121354Y0109504D03*
X0111354Y0109504D03*
X0101354Y0109504D03*
X0091354Y0109504D03*
X0081354Y0109504D03*
X0071354Y0109504D03*
X0061354Y0109504D03*
X0051354Y0109504D03*
X0041354Y0109504D03*
X0031354Y0109504D03*
D12*
X0085744Y0069307D03*
X0085744Y0066748D03*
X0085744Y0064189D03*
X0092634Y0064189D03*
X0092634Y0066748D03*
X0092634Y0069307D03*
D13*
X0092732Y0051787D03*
X0085646Y0051787D03*
D14*
X0078559Y0058874D01*
X0078559Y0064189D01*
X0059071Y0064189D01*
X0031354Y0091906D01*
X0031354Y0109504D01*
X0041354Y0119504D02*
X0055528Y0133677D01*
X0083121Y0133677D01*
X0096990Y0119808D01*
X0096990Y0067856D01*
X0095882Y0066748D01*
X0092634Y0066748D01*
X0092634Y0069307D02*
X0092634Y0078224D01*
X0086065Y0084794D01*
X0086065Y0110733D01*
X0083094Y0113704D01*
X0079254Y0113704D01*
X0075710Y0117248D01*
X0075710Y0121308D01*
X0073159Y0123860D01*
X0059550Y0123860D01*
X0055194Y0119504D01*
X0051354Y0119504D01*
X0061354Y0119504D02*
X0065554Y0115304D01*
X0065554Y0107764D01*
X0065173Y0107383D01*
X0065173Y0092339D01*
X0081709Y0084071D02*
X0081709Y0073343D01*
X0085744Y0069307D01*
X0085744Y0066748D02*
X0082324Y0066748D01*
X0075554Y0073518D01*
X0075554Y0111244D01*
X0071354Y0115444D01*
X0071354Y0119504D01*
X0078559Y0064189D02*
X0085744Y0064189D01*
D15*
X0006906Y0006118D02*
X0243520Y0006118D01*
X0243520Y0141669D01*
X0006906Y0141669D01*
X0006906Y0006118D01*
X0006906Y0006876D02*
X0243520Y0006876D01*
X0243520Y0008874D02*
X0006906Y0008874D01*
X0006906Y0010873D02*
X0243520Y0010873D01*
X0243520Y0012871D02*
X0006906Y0012871D01*
X0006906Y0014870D02*
X0243520Y0014870D01*
X0243520Y0016868D02*
X0006906Y0016868D01*
X0006906Y0018867D02*
X0243520Y0018867D01*
X0243520Y0020865D02*
X0006906Y0020865D01*
X0006906Y0022864D02*
X0243520Y0022864D01*
X0243520Y0024862D02*
X0006906Y0024862D01*
X0006906Y0026861D02*
X0243520Y0026861D01*
X0243520Y0028859D02*
X0006906Y0028859D01*
X0006906Y0030858D02*
X0243520Y0030858D01*
X0243520Y0032856D02*
X0006906Y0032856D01*
X0006906Y0034855D02*
X0243520Y0034855D01*
X0243520Y0036853D02*
X0006906Y0036853D01*
X0006906Y0038852D02*
X0243520Y0038852D01*
X0243520Y0040850D02*
X0006906Y0040850D01*
X0006906Y0042849D02*
X0243520Y0042849D01*
X0243520Y0044847D02*
X0006906Y0044847D01*
X0006906Y0046846D02*
X0080280Y0046846D01*
X0080296Y0046806D02*
X0081353Y0045749D01*
X0082733Y0045177D01*
X0088558Y0045177D01*
X0089939Y0045749D01*
X0090995Y0046806D01*
X0091048Y0046933D01*
X0092650Y0046933D01*
X0092650Y0051705D01*
X0092815Y0051705D01*
X0092815Y0051870D01*
X0096898Y0051870D01*
X0096898Y0054905D01*
X0096761Y0055414D01*
X0096498Y0055870D01*
X0096126Y0056242D01*
X0095670Y0056505D01*
X0095161Y0056642D01*
X0092815Y0056642D01*
X0092815Y0051870D01*
X0092650Y0051870D01*
X0092650Y0056642D01*
X0091048Y0056642D01*
X0090995Y0056769D01*
X0089939Y0057826D01*
X0088558Y0058398D01*
X0085478Y0058398D01*
X0084243Y0059633D01*
X0086650Y0059633D01*
X0087156Y0059843D01*
X0087574Y0059843D01*
X0088954Y0060414D01*
X0090011Y0061471D01*
X0090257Y0062064D01*
X0090323Y0061998D01*
X0090779Y0061735D01*
X0091288Y0061598D01*
X0092634Y0061598D01*
X0093980Y0061598D01*
X0094488Y0061735D01*
X0094945Y0061998D01*
X0095139Y0062192D01*
X0096788Y0062192D01*
X0098463Y0062886D01*
X0099570Y0063994D01*
X0099570Y0063994D01*
X0100852Y0065275D01*
X0101546Y0066950D01*
X0101546Y0102948D01*
X0104070Y0102948D01*
X0106354Y0105232D01*
X0108639Y0102948D01*
X0114070Y0102948D01*
X0116354Y0105232D01*
X0118639Y0102948D01*
X0124070Y0102948D01*
X0126354Y0105232D01*
X0128639Y0102948D01*
X0134070Y0102948D01*
X0136354Y0105232D01*
X0138639Y0102948D01*
X0144070Y0102948D01*
X0146354Y0105232D01*
X0148639Y0102948D01*
X0154070Y0102948D01*
X0156354Y0105232D01*
X0158639Y0102948D01*
X0164070Y0102948D01*
X0166354Y0105232D01*
X0168639Y0102948D01*
X0174070Y0102948D01*
X0176354Y0105232D01*
X0178639Y0102948D01*
X0184070Y0102948D01*
X0186354Y0105232D01*
X0188639Y0102948D01*
X0194070Y0102948D01*
X0196354Y0105232D01*
X0198639Y0102948D01*
X0204070Y0102948D01*
X0206354Y0105232D01*
X0208639Y0102948D01*
X0214070Y0102948D01*
X0216354Y0105232D01*
X0218639Y0102948D01*
X0224070Y0102948D01*
X0227910Y0106788D01*
X0227910Y0112219D01*
X0224384Y0115746D01*
X0226154Y0117516D01*
X0226154Y0119504D01*
X0226154Y0121492D01*
X0223343Y0124304D01*
X0221354Y0124304D01*
X0219366Y0124304D01*
X0217596Y0122534D01*
X0214070Y0126060D01*
X0208639Y0126060D01*
X0206354Y0123775D01*
X0204070Y0126060D01*
X0198639Y0126060D01*
X0196354Y0123775D01*
X0194070Y0126060D01*
X0188639Y0126060D01*
X0186354Y0123775D01*
X0184070Y0126060D01*
X0178639Y0126060D01*
X0176354Y0123775D01*
X0174070Y0126060D01*
X0168639Y0126060D01*
X0166354Y0123775D01*
X0164070Y0126060D01*
X0158639Y0126060D01*
X0156354Y0123775D01*
X0154070Y0126060D01*
X0148639Y0126060D01*
X0146354Y0123775D01*
X0144070Y0126060D01*
X0138639Y0126060D01*
X0136354Y0123775D01*
X0134070Y0126060D01*
X0128639Y0126060D01*
X0126354Y0123775D01*
X0124070Y0126060D01*
X0118639Y0126060D01*
X0116354Y0123775D01*
X0114070Y0126060D01*
X0108639Y0126060D01*
X0106354Y0123775D01*
X0104070Y0126060D01*
X0098639Y0126060D01*
X0097910Y0125331D01*
X0085702Y0137539D01*
X0084027Y0138233D01*
X0054621Y0138233D01*
X0052947Y0137539D01*
X0051665Y0136258D01*
X0041467Y0126060D01*
X0038639Y0126060D01*
X0036354Y0123775D01*
X0035068Y0125062D01*
X0032658Y0126060D01*
X0030050Y0126060D01*
X0027641Y0125062D01*
X0025797Y0123218D01*
X0024798Y0120808D01*
X0024798Y0118200D01*
X0025797Y0115790D01*
X0027083Y0114504D01*
X0024798Y0112219D01*
X0024798Y0106788D01*
X0026798Y0104788D01*
X0026798Y0090999D01*
X0027492Y0089325D01*
X0028774Y0088043D01*
X0056490Y0060327D01*
X0058165Y0059633D01*
X0074003Y0059633D01*
X0074003Y0057968D01*
X0074697Y0056293D01*
X0079724Y0051266D01*
X0079724Y0048186D01*
X0080296Y0046806D01*
X0079724Y0048844D02*
X0006906Y0048844D01*
X0006906Y0050843D02*
X0079724Y0050843D01*
X0078149Y0052841D02*
X0006906Y0052841D01*
X0006906Y0054840D02*
X0076150Y0054840D01*
X0074471Y0056838D02*
X0006906Y0056838D01*
X0006906Y0058837D02*
X0074003Y0058837D01*
X0085039Y0058837D02*
X0243520Y0058837D01*
X0243520Y0056838D02*
X0090926Y0056838D01*
X0092650Y0054840D02*
X0092815Y0054840D01*
X0096898Y0054840D02*
X0243520Y0054840D01*
X0243520Y0052841D02*
X0096898Y0052841D01*
X0096898Y0051705D02*
X0092815Y0051705D01*
X0092815Y0046933D01*
X0095161Y0046933D01*
X0095670Y0047069D01*
X0096126Y0047333D01*
X0096498Y0047705D01*
X0096761Y0048161D01*
X0096898Y0048670D01*
X0096898Y0051705D01*
X0096898Y0050843D02*
X0243520Y0050843D01*
X0243520Y0048844D02*
X0096898Y0048844D01*
X0092815Y0048844D02*
X0092650Y0048844D01*
X0092650Y0050843D02*
X0092815Y0050843D01*
X0092815Y0052841D02*
X0092650Y0052841D01*
X0091012Y0046846D02*
X0243520Y0046846D01*
X0243520Y0060835D02*
X0089375Y0060835D01*
X0092634Y0061598D02*
X0092634Y0062192D01*
X0092634Y0061598D01*
X0092634Y0062192D02*
X0092634Y0062192D01*
X0098337Y0062834D02*
X0243520Y0062834D01*
X0243520Y0064832D02*
X0100409Y0064832D01*
X0101496Y0066831D02*
X0243520Y0066831D01*
X0243520Y0068829D02*
X0101546Y0068829D01*
X0101546Y0070828D02*
X0243520Y0070828D01*
X0243520Y0072826D02*
X0101546Y0072826D01*
X0101546Y0074825D02*
X0243520Y0074825D01*
X0243520Y0076823D02*
X0101546Y0076823D01*
X0101546Y0078822D02*
X0243520Y0078822D01*
X0243520Y0080820D02*
X0101546Y0080820D01*
X0101546Y0082819D02*
X0243520Y0082819D01*
X0243520Y0084817D02*
X0101546Y0084817D01*
X0101546Y0086816D02*
X0243520Y0086816D01*
X0243520Y0088814D02*
X0101546Y0088814D01*
X0101546Y0090813D02*
X0243520Y0090813D01*
X0243520Y0092811D02*
X0101546Y0092811D01*
X0101546Y0094810D02*
X0243520Y0094810D01*
X0243520Y0096809D02*
X0101546Y0096809D01*
X0101546Y0098807D02*
X0243520Y0098807D01*
X0243520Y0100806D02*
X0101546Y0100806D01*
X0101546Y0102804D02*
X0243520Y0102804D01*
X0243520Y0104803D02*
X0225924Y0104803D01*
X0227910Y0106801D02*
X0243520Y0106801D01*
X0243520Y0108800D02*
X0227910Y0108800D01*
X0227910Y0110798D02*
X0243520Y0110798D01*
X0243520Y0112797D02*
X0227333Y0112797D01*
X0225335Y0114795D02*
X0243520Y0114795D01*
X0243520Y0116794D02*
X0225432Y0116794D01*
X0226154Y0118792D02*
X0243520Y0118792D01*
X0243520Y0120791D02*
X0226154Y0120791D01*
X0226154Y0119504D02*
X0221354Y0119504D01*
X0221354Y0124304D01*
X0221354Y0119504D01*
X0221354Y0119504D01*
X0221354Y0119504D01*
X0226154Y0119504D01*
X0221354Y0120791D02*
X0221354Y0120791D01*
X0221354Y0122789D02*
X0221354Y0122789D01*
X0217851Y0122789D02*
X0217341Y0122789D01*
X0215342Y0124788D02*
X0243520Y0124788D01*
X0243520Y0126786D02*
X0096455Y0126786D01*
X0094456Y0128785D02*
X0243520Y0128785D01*
X0243520Y0130783D02*
X0092458Y0130783D01*
X0090459Y0132782D02*
X0243520Y0132782D01*
X0243520Y0134780D02*
X0088461Y0134780D01*
X0086462Y0136779D02*
X0243520Y0136779D01*
X0243520Y0138777D02*
X0006906Y0138777D01*
X0006906Y0136779D02*
X0052186Y0136779D01*
X0050188Y0134780D02*
X0006906Y0134780D01*
X0006906Y0132782D02*
X0048189Y0132782D01*
X0046191Y0130783D02*
X0006906Y0130783D01*
X0006906Y0128785D02*
X0044192Y0128785D01*
X0042194Y0126786D02*
X0006906Y0126786D01*
X0006906Y0124788D02*
X0027367Y0124788D01*
X0025619Y0122789D02*
X0006906Y0122789D01*
X0006906Y0120791D02*
X0024798Y0120791D01*
X0024798Y0118792D02*
X0006906Y0118792D01*
X0006906Y0116794D02*
X0025381Y0116794D01*
X0026792Y0114795D02*
X0006906Y0114795D01*
X0006906Y0112797D02*
X0025376Y0112797D01*
X0024798Y0110798D02*
X0006906Y0110798D01*
X0006906Y0108800D02*
X0024798Y0108800D01*
X0024798Y0106801D02*
X0006906Y0106801D01*
X0006906Y0104803D02*
X0026784Y0104803D01*
X0026798Y0102804D02*
X0006906Y0102804D01*
X0006906Y0100806D02*
X0026798Y0100806D01*
X0026798Y0098807D02*
X0006906Y0098807D01*
X0006906Y0096809D02*
X0026798Y0096809D01*
X0026798Y0094810D02*
X0006906Y0094810D01*
X0006906Y0092811D02*
X0026798Y0092811D01*
X0026876Y0090813D02*
X0006906Y0090813D01*
X0006906Y0088814D02*
X0028002Y0088814D01*
X0030001Y0086816D02*
X0006906Y0086816D01*
X0006906Y0084817D02*
X0031999Y0084817D01*
X0033998Y0082819D02*
X0006906Y0082819D01*
X0006906Y0080820D02*
X0035996Y0080820D01*
X0037995Y0078822D02*
X0006906Y0078822D01*
X0006906Y0076823D02*
X0039993Y0076823D01*
X0041992Y0074825D02*
X0006906Y0074825D01*
X0006906Y0072826D02*
X0043990Y0072826D01*
X0045989Y0070828D02*
X0006906Y0070828D01*
X0006906Y0068829D02*
X0047987Y0068829D01*
X0049986Y0066831D02*
X0006906Y0066831D01*
X0006906Y0064832D02*
X0051984Y0064832D01*
X0053983Y0062834D02*
X0006906Y0062834D01*
X0006906Y0060835D02*
X0055981Y0060835D01*
X0105924Y0104803D02*
X0106784Y0104803D01*
X0115924Y0104803D02*
X0116784Y0104803D01*
X0125924Y0104803D02*
X0126784Y0104803D01*
X0135924Y0104803D02*
X0136784Y0104803D01*
X0145924Y0104803D02*
X0146784Y0104803D01*
X0155924Y0104803D02*
X0156784Y0104803D01*
X0165924Y0104803D02*
X0166784Y0104803D01*
X0175924Y0104803D02*
X0176784Y0104803D01*
X0185924Y0104803D02*
X0186784Y0104803D01*
X0195924Y0104803D02*
X0196784Y0104803D01*
X0205924Y0104803D02*
X0206784Y0104803D01*
X0215924Y0104803D02*
X0216784Y0104803D01*
X0224857Y0122789D02*
X0243520Y0122789D01*
X0243520Y0140776D02*
X0006906Y0140776D01*
X0035342Y0124788D02*
X0037367Y0124788D01*
X0105342Y0124788D02*
X0107367Y0124788D01*
X0115342Y0124788D02*
X0117367Y0124788D01*
X0125342Y0124788D02*
X0127367Y0124788D01*
X0135342Y0124788D02*
X0137367Y0124788D01*
X0145342Y0124788D02*
X0147367Y0124788D01*
X0155342Y0124788D02*
X0157367Y0124788D01*
X0165342Y0124788D02*
X0167367Y0124788D01*
X0175342Y0124788D02*
X0177367Y0124788D01*
X0185342Y0124788D02*
X0187367Y0124788D01*
X0195342Y0124788D02*
X0197367Y0124788D01*
X0205342Y0124788D02*
X0207367Y0124788D01*
D16*
X0095488Y0030921D03*
D17*
X0081709Y0084071D03*
X0065173Y0092339D03*
M02*
