G04 EAGLE Gerber X2 export*
%TF.Part,Single*%
%TF.FileFunction,Other,Solder side*%
%TF.FilePolarity,Positive*%
%TF.GenerationSoftware,Autodesk,EAGLE,8.6.3*%
%TF.CreationDate,2019-02-27T20:09:03Z*%
G75*
%MOMM*%
%FSLAX34Y34*%
%LPD*%
%AMOC8*
5,1,8,0,0,1.08239X$1,22.5*%
G01*
%ADD10C,1.422400*%
%ADD11P,1.539592X8X22.500000*%
%ADD12C,2.362200*%
%ADD13C,1.500000*%
%ADD14C,0.508000*%
%ADD15C,1.206400*%
%ADD16C,0.152400*%

G36*
X566035Y-9536D02*
X566035Y-9536D01*
X566069Y-9538D01*
X566258Y-9516D01*
X566449Y-9499D01*
X566482Y-9490D01*
X566516Y-9486D01*
X566699Y-9431D01*
X566883Y-9381D01*
X566914Y-9366D01*
X566947Y-9356D01*
X567118Y-9269D01*
X567290Y-9187D01*
X567318Y-9167D01*
X567349Y-9152D01*
X567501Y-9036D01*
X567656Y-8925D01*
X567680Y-8901D01*
X567707Y-8880D01*
X567837Y-8739D01*
X567970Y-8603D01*
X567989Y-8574D01*
X568013Y-8548D01*
X568115Y-8387D01*
X568222Y-8230D01*
X568236Y-8198D01*
X568254Y-8169D01*
X568327Y-7992D01*
X568404Y-7818D01*
X568412Y-7784D01*
X568425Y-7752D01*
X568465Y-7565D01*
X568511Y-7380D01*
X568513Y-7346D01*
X568520Y-7312D01*
X568539Y-7000D01*
X568539Y337300D01*
X568536Y337335D01*
X568538Y337369D01*
X568516Y337558D01*
X568499Y337749D01*
X568490Y337782D01*
X568486Y337816D01*
X568431Y337999D01*
X568381Y338183D01*
X568366Y338214D01*
X568356Y338247D01*
X568269Y338418D01*
X568187Y338590D01*
X568167Y338618D01*
X568152Y338649D01*
X568036Y338801D01*
X567925Y338956D01*
X567900Y338980D01*
X567880Y339007D01*
X567739Y339136D01*
X567603Y339270D01*
X567574Y339289D01*
X567548Y339313D01*
X567387Y339415D01*
X567230Y339522D01*
X567198Y339536D01*
X567169Y339554D01*
X566992Y339627D01*
X566818Y339704D01*
X566784Y339712D01*
X566752Y339725D01*
X566565Y339765D01*
X566380Y339811D01*
X566346Y339813D01*
X566312Y339820D01*
X566000Y339839D01*
X-35000Y339839D01*
X-35035Y339836D01*
X-35069Y339838D01*
X-35258Y339816D01*
X-35449Y339799D01*
X-35482Y339790D01*
X-35516Y339786D01*
X-35699Y339731D01*
X-35883Y339681D01*
X-35914Y339666D01*
X-35947Y339656D01*
X-36118Y339569D01*
X-36290Y339487D01*
X-36318Y339467D01*
X-36349Y339452D01*
X-36501Y339336D01*
X-36656Y339225D01*
X-36680Y339200D01*
X-36707Y339180D01*
X-36836Y339040D01*
X-36970Y338903D01*
X-36989Y338874D01*
X-37013Y338848D01*
X-37115Y338687D01*
X-37222Y338530D01*
X-37236Y338498D01*
X-37254Y338469D01*
X-37327Y338292D01*
X-37404Y338118D01*
X-37412Y338084D01*
X-37425Y338052D01*
X-37465Y337865D01*
X-37511Y337680D01*
X-37513Y337646D01*
X-37520Y337612D01*
X-37539Y337300D01*
X-37539Y-7000D01*
X-37536Y-7035D01*
X-37538Y-7069D01*
X-37516Y-7258D01*
X-37499Y-7449D01*
X-37490Y-7482D01*
X-37486Y-7516D01*
X-37431Y-7699D01*
X-37381Y-7883D01*
X-37366Y-7914D01*
X-37356Y-7947D01*
X-37269Y-8118D01*
X-37187Y-8290D01*
X-37167Y-8318D01*
X-37152Y-8349D01*
X-37036Y-8501D01*
X-36925Y-8656D01*
X-36900Y-8680D01*
X-36880Y-8707D01*
X-36740Y-8836D01*
X-36603Y-8970D01*
X-36574Y-8989D01*
X-36548Y-9013D01*
X-36387Y-9115D01*
X-36230Y-9222D01*
X-36198Y-9236D01*
X-36169Y-9254D01*
X-35992Y-9327D01*
X-35818Y-9404D01*
X-35784Y-9412D01*
X-35752Y-9425D01*
X-35565Y-9465D01*
X-35380Y-9511D01*
X-35346Y-9513D01*
X-35312Y-9520D01*
X-35000Y-9539D01*
X566000Y-9539D01*
X566035Y-9536D01*
G37*
%LPC*%
G36*
X58737Y34238D02*
X58737Y34238D01*
X53836Y36268D01*
X50084Y40020D01*
X48403Y44079D01*
X48365Y44152D01*
X48335Y44229D01*
X48261Y44351D01*
X48195Y44478D01*
X48144Y44543D01*
X48101Y44614D01*
X48007Y44721D01*
X47919Y44834D01*
X47858Y44889D01*
X47803Y44951D01*
X47691Y45040D01*
X47585Y45136D01*
X47515Y45179D01*
X47450Y45230D01*
X47324Y45298D01*
X47202Y45374D01*
X47126Y45404D01*
X47053Y45443D01*
X46917Y45487D01*
X46784Y45540D01*
X46703Y45557D01*
X46625Y45582D01*
X46483Y45602D01*
X46343Y45630D01*
X46261Y45632D01*
X46179Y45644D01*
X46036Y45638D01*
X45893Y45641D01*
X45812Y45629D01*
X45729Y45625D01*
X45589Y45594D01*
X45448Y45572D01*
X45370Y45546D01*
X45289Y45528D01*
X45157Y45472D01*
X45022Y45426D01*
X44950Y45386D01*
X44874Y45354D01*
X44754Y45276D01*
X44629Y45207D01*
X44565Y45154D01*
X44496Y45110D01*
X44311Y44947D01*
X44280Y44921D01*
X44273Y44913D01*
X44262Y44903D01*
X43320Y43961D01*
X37296Y40484D01*
X30578Y38683D01*
X23622Y38683D01*
X16904Y40484D01*
X10880Y43961D01*
X5961Y48880D01*
X2484Y54904D01*
X683Y61622D01*
X683Y68578D01*
X2484Y75296D01*
X5961Y81320D01*
X10880Y86239D01*
X16904Y89716D01*
X23622Y91517D01*
X30578Y91517D01*
X37296Y89716D01*
X40323Y87969D01*
X40387Y87939D01*
X40448Y87902D01*
X40591Y87844D01*
X40732Y87779D01*
X40800Y87761D01*
X40866Y87735D01*
X41018Y87704D01*
X41167Y87665D01*
X41238Y87659D01*
X41307Y87645D01*
X41462Y87641D01*
X41616Y87629D01*
X41687Y87636D01*
X41757Y87634D01*
X41910Y87658D01*
X42064Y87673D01*
X42132Y87692D01*
X42202Y87703D01*
X42348Y87753D01*
X42497Y87795D01*
X42561Y87826D01*
X42628Y87849D01*
X42763Y87925D01*
X42902Y87992D01*
X42959Y88034D01*
X43021Y88069D01*
X43141Y88167D01*
X43266Y88258D01*
X43315Y88309D01*
X43370Y88354D01*
X43470Y88472D01*
X43577Y88583D01*
X43616Y88642D01*
X43662Y88696D01*
X43740Y88830D01*
X43826Y88959D01*
X43854Y89024D01*
X43890Y89085D01*
X43943Y89230D01*
X44004Y89372D01*
X44020Y89441D01*
X44045Y89508D01*
X44072Y89660D01*
X44107Y89810D01*
X44110Y89881D01*
X44123Y89951D01*
X44122Y90105D01*
X44130Y90260D01*
X44122Y90331D01*
X44121Y90401D01*
X44094Y90553D01*
X44074Y90707D01*
X44053Y90775D01*
X44040Y90844D01*
X43942Y91129D01*
X43940Y91137D01*
X43939Y91138D01*
X43939Y91140D01*
X43863Y91322D01*
X43863Y94758D01*
X45178Y97932D01*
X47608Y100362D01*
X48796Y100854D01*
X48911Y100914D01*
X49031Y100966D01*
X49110Y101018D01*
X49195Y101063D01*
X49298Y101142D01*
X49406Y101214D01*
X49475Y101280D01*
X49551Y101338D01*
X49638Y101435D01*
X49732Y101524D01*
X49789Y101602D01*
X49853Y101672D01*
X49921Y101783D01*
X49998Y101888D01*
X50040Y101974D01*
X50091Y102055D01*
X50139Y102176D01*
X50196Y102292D01*
X50222Y102384D01*
X50257Y102473D01*
X50283Y102600D01*
X50319Y102726D01*
X50328Y102821D01*
X50347Y102914D01*
X50350Y103044D01*
X50363Y103174D01*
X50356Y103269D01*
X50358Y103364D01*
X50338Y103493D01*
X50328Y103623D01*
X50304Y103715D01*
X50289Y103809D01*
X50247Y103933D01*
X50214Y104058D01*
X50174Y104145D01*
X50143Y104235D01*
X50079Y104349D01*
X50025Y104467D01*
X49970Y104545D01*
X49924Y104628D01*
X49841Y104729D01*
X49767Y104836D01*
X49699Y104903D01*
X49638Y104977D01*
X49539Y105061D01*
X49447Y105153D01*
X49368Y105207D01*
X49296Y105269D01*
X49184Y105335D01*
X49077Y105409D01*
X48960Y105466D01*
X48907Y105497D01*
X48865Y105512D01*
X48796Y105546D01*
X47608Y106038D01*
X45178Y108468D01*
X43863Y111642D01*
X43863Y115078D01*
X45178Y118252D01*
X47608Y120682D01*
X48796Y121174D01*
X48911Y121234D01*
X49031Y121286D01*
X49110Y121338D01*
X49195Y121383D01*
X49298Y121462D01*
X49406Y121534D01*
X49475Y121600D01*
X49551Y121658D01*
X49638Y121755D01*
X49732Y121844D01*
X49789Y121922D01*
X49853Y121992D01*
X49921Y122103D01*
X49998Y122208D01*
X50040Y122294D01*
X50091Y122375D01*
X50139Y122496D01*
X50196Y122612D01*
X50222Y122704D01*
X50257Y122793D01*
X50283Y122920D01*
X50319Y123046D01*
X50328Y123141D01*
X50347Y123234D01*
X50350Y123364D01*
X50363Y123494D01*
X50356Y123589D01*
X50358Y123684D01*
X50338Y123813D01*
X50328Y123943D01*
X50304Y124035D01*
X50289Y124129D01*
X50247Y124253D01*
X50214Y124378D01*
X50174Y124465D01*
X50143Y124555D01*
X50079Y124669D01*
X50025Y124787D01*
X49970Y124865D01*
X49924Y124948D01*
X49841Y125049D01*
X49767Y125156D01*
X49699Y125223D01*
X49638Y125297D01*
X49539Y125381D01*
X49447Y125473D01*
X49368Y125527D01*
X49296Y125589D01*
X49184Y125655D01*
X49077Y125729D01*
X48960Y125786D01*
X48907Y125817D01*
X48865Y125832D01*
X48796Y125866D01*
X47608Y126358D01*
X45178Y128788D01*
X43863Y131962D01*
X43863Y135398D01*
X45178Y138572D01*
X47608Y141002D01*
X48796Y141494D01*
X48911Y141554D01*
X49031Y141606D01*
X49110Y141658D01*
X49195Y141703D01*
X49298Y141782D01*
X49406Y141854D01*
X49475Y141920D01*
X49551Y141978D01*
X49638Y142075D01*
X49732Y142164D01*
X49789Y142242D01*
X49853Y142312D01*
X49921Y142423D01*
X49998Y142528D01*
X50040Y142614D01*
X50091Y142695D01*
X50139Y142816D01*
X50196Y142932D01*
X50222Y143024D01*
X50257Y143113D01*
X50283Y143240D01*
X50319Y143366D01*
X50328Y143461D01*
X50347Y143554D01*
X50350Y143684D01*
X50363Y143814D01*
X50356Y143909D01*
X50358Y144004D01*
X50338Y144133D01*
X50328Y144263D01*
X50304Y144355D01*
X50289Y144449D01*
X50247Y144573D01*
X50214Y144698D01*
X50174Y144785D01*
X50143Y144875D01*
X50079Y144989D01*
X50025Y145107D01*
X49970Y145185D01*
X49924Y145268D01*
X49841Y145369D01*
X49767Y145476D01*
X49699Y145543D01*
X49638Y145617D01*
X49539Y145701D01*
X49447Y145793D01*
X49368Y145847D01*
X49296Y145909D01*
X49184Y145975D01*
X49077Y146049D01*
X48960Y146106D01*
X48907Y146137D01*
X48865Y146152D01*
X48796Y146186D01*
X47608Y146678D01*
X45178Y149108D01*
X43863Y152282D01*
X43863Y155718D01*
X45178Y158892D01*
X47608Y161322D01*
X50782Y162637D01*
X54218Y162637D01*
X57116Y161436D01*
X57195Y161412D01*
X57270Y161378D01*
X57409Y161344D01*
X57546Y161301D01*
X57628Y161291D01*
X57708Y161272D01*
X57850Y161263D01*
X57993Y161245D01*
X58075Y161249D01*
X58157Y161244D01*
X58299Y161260D01*
X58442Y161268D01*
X58522Y161286D01*
X58604Y161296D01*
X58742Y161337D01*
X58881Y161370D01*
X58956Y161402D01*
X59035Y161426D01*
X59163Y161491D01*
X59294Y161548D01*
X59363Y161593D01*
X59417Y161621D01*
X70280Y161621D01*
X79604Y161621D01*
X79226Y160455D01*
X78536Y159101D01*
X77643Y157872D01*
X76568Y156797D01*
X75339Y155904D01*
X75038Y155751D01*
X75012Y155735D01*
X74984Y155723D01*
X74822Y155615D01*
X74657Y155512D01*
X74634Y155491D01*
X74609Y155474D01*
X74468Y155340D01*
X74323Y155209D01*
X74305Y155185D01*
X74283Y155164D01*
X74167Y155006D01*
X74049Y154852D01*
X74035Y154825D01*
X74017Y154800D01*
X73931Y154625D01*
X73842Y154452D01*
X73833Y154423D01*
X73819Y154396D01*
X73766Y154209D01*
X73708Y154022D01*
X73705Y153992D01*
X73696Y153963D01*
X73677Y153769D01*
X73653Y153575D01*
X73655Y153545D01*
X73652Y153515D01*
X73667Y153320D01*
X73678Y153126D01*
X73685Y153096D01*
X73687Y153066D01*
X73736Y152878D01*
X73781Y152687D01*
X73793Y152660D01*
X73801Y152630D01*
X73883Y152453D01*
X73961Y152274D01*
X73977Y152249D01*
X73990Y152221D01*
X74103Y152061D01*
X74210Y151900D01*
X74231Y151878D01*
X74249Y151853D01*
X74387Y151715D01*
X74522Y151575D01*
X74546Y151557D01*
X74568Y151535D01*
X74729Y151424D01*
X74886Y151310D01*
X74913Y151297D01*
X74939Y151279D01*
X75166Y151169D01*
X77602Y148732D01*
X78917Y145558D01*
X78917Y142122D01*
X77602Y138948D01*
X75172Y136518D01*
X75060Y136472D01*
X74945Y136411D01*
X74825Y136360D01*
X74746Y136307D01*
X74661Y136263D01*
X74558Y136183D01*
X74450Y136112D01*
X74381Y136046D01*
X74305Y135987D01*
X74218Y135891D01*
X74124Y135801D01*
X74067Y135724D01*
X74003Y135653D01*
X73935Y135543D01*
X73858Y135438D01*
X73816Y135352D01*
X73765Y135271D01*
X73717Y135150D01*
X73660Y135033D01*
X73634Y134941D01*
X73599Y134853D01*
X73573Y134725D01*
X73537Y134600D01*
X73528Y134505D01*
X73509Y134411D01*
X73506Y134281D01*
X73493Y134152D01*
X73500Y134057D01*
X73498Y133961D01*
X73518Y133833D01*
X73528Y133703D01*
X73552Y133611D01*
X73567Y133516D01*
X73609Y133393D01*
X73642Y133268D01*
X73682Y133181D01*
X73713Y133091D01*
X73776Y132977D01*
X73831Y132859D01*
X73886Y132781D01*
X73932Y132697D01*
X74015Y132597D01*
X74089Y132490D01*
X74157Y132423D01*
X74218Y132349D01*
X74317Y132264D01*
X74409Y132173D01*
X74487Y132119D01*
X74560Y132056D01*
X74672Y131991D01*
X74779Y131917D01*
X74896Y131860D01*
X74949Y131829D01*
X74991Y131814D01*
X75060Y131780D01*
X76700Y131100D01*
X94316Y113484D01*
X94442Y113379D01*
X94563Y113267D01*
X94615Y113235D01*
X94662Y113196D01*
X94804Y113114D01*
X94943Y113026D01*
X95000Y113002D01*
X95053Y112972D01*
X95207Y112917D01*
X95360Y112855D01*
X95419Y112842D01*
X95477Y112821D01*
X95639Y112795D01*
X95800Y112760D01*
X95877Y112755D01*
X95921Y112748D01*
X95982Y112749D01*
X96112Y112741D01*
X303018Y112741D01*
X306524Y111288D01*
X309208Y108604D01*
X310661Y105098D01*
X310661Y101302D01*
X309208Y97796D01*
X306524Y95112D01*
X303018Y93659D01*
X89210Y93659D01*
X85704Y95112D01*
X82663Y98153D01*
X81726Y99089D01*
X81663Y99142D01*
X81606Y99202D01*
X81491Y99286D01*
X81381Y99378D01*
X81309Y99419D01*
X81243Y99468D01*
X81114Y99531D01*
X80990Y99602D01*
X80912Y99629D01*
X80838Y99665D01*
X80700Y99705D01*
X80565Y99752D01*
X80484Y99766D01*
X80405Y99788D01*
X80262Y99803D01*
X80121Y99826D01*
X80039Y99825D01*
X79957Y99833D01*
X79814Y99822D01*
X79671Y99820D01*
X79590Y99804D01*
X79508Y99798D01*
X79369Y99762D01*
X79229Y99734D01*
X79152Y99705D01*
X79072Y99684D01*
X78942Y99624D01*
X78809Y99572D01*
X78738Y99529D01*
X78664Y99495D01*
X78546Y99412D01*
X78424Y99338D01*
X78362Y99284D01*
X78295Y99236D01*
X78194Y99135D01*
X78087Y99040D01*
X78036Y98975D01*
X77978Y98917D01*
X77896Y98799D01*
X77807Y98687D01*
X77768Y98614D01*
X77722Y98546D01*
X77613Y98325D01*
X77607Y98313D01*
X75172Y95878D01*
X71998Y94563D01*
X68562Y94563D01*
X65359Y95890D01*
X65279Y95968D01*
X65199Y96022D01*
X65126Y96083D01*
X65013Y96148D01*
X64906Y96221D01*
X64818Y96259D01*
X64735Y96307D01*
X64613Y96350D01*
X64494Y96403D01*
X64401Y96425D01*
X64311Y96457D01*
X64183Y96479D01*
X64056Y96509D01*
X63961Y96515D01*
X63867Y96531D01*
X63737Y96529D01*
X63607Y96537D01*
X63512Y96526D01*
X63417Y96525D01*
X63289Y96500D01*
X63160Y96485D01*
X63068Y96457D01*
X62975Y96439D01*
X62853Y96392D01*
X62729Y96355D01*
X62644Y96311D01*
X62555Y96277D01*
X62443Y96209D01*
X62327Y96150D01*
X62251Y96093D01*
X62170Y96043D01*
X62072Y95957D01*
X61969Y95878D01*
X61904Y95808D01*
X61832Y95745D01*
X61752Y95643D01*
X61663Y95547D01*
X61612Y95467D01*
X61553Y95392D01*
X61492Y95277D01*
X61422Y95167D01*
X61385Y95079D01*
X61340Y94995D01*
X61300Y94871D01*
X61251Y94751D01*
X61231Y94657D01*
X61201Y94567D01*
X61183Y94438D01*
X61156Y94311D01*
X61148Y94181D01*
X61140Y94121D01*
X61141Y94076D01*
X61137Y93999D01*
X61137Y91322D01*
X59822Y88148D01*
X57392Y85718D01*
X54218Y84403D01*
X50857Y84403D01*
X50834Y84401D01*
X50811Y84403D01*
X50610Y84381D01*
X50408Y84363D01*
X50386Y84357D01*
X50363Y84355D01*
X50169Y84298D01*
X49974Y84245D01*
X49953Y84235D01*
X49931Y84228D01*
X49749Y84138D01*
X49567Y84051D01*
X49549Y84038D01*
X49528Y84028D01*
X49366Y83907D01*
X49201Y83789D01*
X49185Y83773D01*
X49166Y83759D01*
X49029Y83612D01*
X48887Y83467D01*
X48874Y83447D01*
X48858Y83431D01*
X48748Y83261D01*
X48635Y83094D01*
X48626Y83072D01*
X48613Y83053D01*
X48535Y82867D01*
X48453Y82682D01*
X48447Y82659D01*
X48438Y82638D01*
X48394Y82441D01*
X48346Y82244D01*
X48345Y82221D01*
X48340Y82199D01*
X48331Y81997D01*
X48318Y81795D01*
X48321Y81772D01*
X48320Y81749D01*
X48347Y81549D01*
X48371Y81348D01*
X48377Y81326D01*
X48380Y81303D01*
X48442Y81111D01*
X48501Y80917D01*
X48511Y80896D01*
X48518Y80874D01*
X48658Y80594D01*
X51716Y75296D01*
X53517Y68578D01*
X53517Y62548D01*
X53524Y62465D01*
X53522Y62383D01*
X53544Y62242D01*
X53557Y62099D01*
X53578Y62019D01*
X53591Y61938D01*
X53637Y61803D01*
X53675Y61665D01*
X53710Y61590D01*
X53737Y61512D01*
X53807Y61387D01*
X53869Y61258D01*
X53916Y61191D01*
X53957Y61119D01*
X54047Y61008D01*
X54131Y60892D01*
X54190Y60835D01*
X54242Y60771D01*
X54351Y60678D01*
X54453Y60578D01*
X54522Y60532D01*
X54584Y60478D01*
X54708Y60406D01*
X54826Y60326D01*
X54902Y60292D01*
X54973Y60251D01*
X55107Y60201D01*
X55238Y60144D01*
X55318Y60124D01*
X55396Y60096D01*
X55537Y60071D01*
X55676Y60037D01*
X55758Y60032D01*
X55839Y60018D01*
X55982Y60018D01*
X56125Y60009D01*
X56207Y60019D01*
X56289Y60019D01*
X56430Y60045D01*
X56572Y60061D01*
X56651Y60085D01*
X56732Y60100D01*
X56965Y60180D01*
X57003Y60192D01*
X57013Y60196D01*
X57028Y60202D01*
X58737Y60910D01*
X64043Y60910D01*
X68944Y58880D01*
X72696Y55128D01*
X74726Y50227D01*
X74726Y44921D01*
X72696Y40020D01*
X68944Y36268D01*
X64043Y34238D01*
X58737Y34238D01*
G37*
%LPD*%
%LPC*%
G36*
X138102Y184459D02*
X138102Y184459D01*
X134596Y185912D01*
X131912Y188596D01*
X130459Y192102D01*
X130459Y195898D01*
X131912Y199404D01*
X163596Y231088D01*
X167102Y232541D01*
X268898Y232541D01*
X272404Y231088D01*
X292088Y211404D01*
X293541Y207898D01*
X293541Y204102D01*
X292088Y200596D01*
X289404Y197912D01*
X285898Y196459D01*
X282102Y196459D01*
X278596Y197912D01*
X263792Y212716D01*
X263666Y212821D01*
X263545Y212933D01*
X263493Y212965D01*
X263446Y213004D01*
X263304Y213086D01*
X263165Y213174D01*
X263108Y213198D01*
X263055Y213228D01*
X262901Y213283D01*
X262748Y213345D01*
X262689Y213358D01*
X262631Y213379D01*
X262469Y213405D01*
X262308Y213440D01*
X262231Y213445D01*
X262187Y213452D01*
X262126Y213451D01*
X261996Y213459D01*
X174004Y213459D01*
X173840Y213445D01*
X173676Y213438D01*
X173616Y213425D01*
X173555Y213419D01*
X173396Y213376D01*
X173236Y213340D01*
X173180Y213317D01*
X173121Y213301D01*
X172973Y213230D01*
X172821Y213167D01*
X172769Y213134D01*
X172714Y213107D01*
X172581Y213012D01*
X172442Y212922D01*
X172385Y212871D01*
X172348Y212845D01*
X172306Y212802D01*
X172208Y212716D01*
X145404Y185912D01*
X141898Y184459D01*
X138102Y184459D01*
G37*
%LPD*%
%LPC*%
G36*
X23622Y165683D02*
X23622Y165683D01*
X16904Y167484D01*
X10880Y170961D01*
X5961Y175880D01*
X2484Y181904D01*
X683Y188622D01*
X683Y195578D01*
X2484Y202296D01*
X5961Y208320D01*
X10880Y213239D01*
X16904Y216716D01*
X23622Y218517D01*
X30578Y218517D01*
X37296Y216716D01*
X43320Y213239D01*
X44262Y212297D01*
X44325Y212244D01*
X44382Y212185D01*
X44497Y212100D01*
X44607Y212008D01*
X44679Y211967D01*
X44745Y211919D01*
X44874Y211856D01*
X44998Y211785D01*
X45076Y211757D01*
X45150Y211721D01*
X45288Y211682D01*
X45422Y211634D01*
X45503Y211621D01*
X45583Y211598D01*
X45725Y211584D01*
X45866Y211561D01*
X45949Y211562D01*
X46031Y211554D01*
X46174Y211565D01*
X46317Y211567D01*
X46398Y211582D01*
X46480Y211589D01*
X46618Y211625D01*
X46759Y211652D01*
X46836Y211682D01*
X46915Y211703D01*
X47045Y211763D01*
X47179Y211815D01*
X47249Y211857D01*
X47324Y211892D01*
X47441Y211974D01*
X47564Y212048D01*
X47625Y212103D01*
X47693Y212150D01*
X47794Y212252D01*
X47901Y212347D01*
X47952Y212411D01*
X48010Y212470D01*
X48091Y212587D01*
X48180Y212700D01*
X48219Y212772D01*
X48266Y212840D01*
X48374Y213062D01*
X48393Y213097D01*
X48396Y213107D01*
X48403Y213121D01*
X50084Y217180D01*
X53836Y220932D01*
X58737Y222962D01*
X64043Y222962D01*
X68944Y220932D01*
X72696Y217180D01*
X74726Y212279D01*
X74726Y206973D01*
X72696Y202072D01*
X68944Y198320D01*
X64043Y196290D01*
X58737Y196290D01*
X57028Y196998D01*
X56949Y197023D01*
X56874Y197056D01*
X56735Y197090D01*
X56598Y197133D01*
X56516Y197144D01*
X56436Y197163D01*
X56294Y197172D01*
X56151Y197190D01*
X56069Y197186D01*
X55987Y197191D01*
X55845Y197174D01*
X55702Y197167D01*
X55622Y197148D01*
X55540Y197139D01*
X55402Y197097D01*
X55263Y197065D01*
X55188Y197032D01*
X55109Y197008D01*
X54981Y196943D01*
X54850Y196887D01*
X54781Y196841D01*
X54707Y196804D01*
X54593Y196718D01*
X54474Y196639D01*
X54414Y196582D01*
X54349Y196532D01*
X54252Y196427D01*
X54148Y196328D01*
X54099Y196262D01*
X54043Y196201D01*
X53967Y196080D01*
X53882Y195965D01*
X53846Y195891D01*
X53802Y195821D01*
X53747Y195689D01*
X53684Y195560D01*
X53662Y195481D01*
X53631Y195405D01*
X53601Y195265D01*
X53561Y195127D01*
X53553Y195045D01*
X53536Y194964D01*
X53521Y194718D01*
X53517Y194679D01*
X53518Y194668D01*
X53517Y194652D01*
X53517Y188622D01*
X51716Y181904D01*
X48239Y175880D01*
X43320Y170961D01*
X37296Y167484D01*
X30578Y165683D01*
X23622Y165683D01*
G37*
%LPD*%
%LPC*%
G36*
X74323Y246963D02*
X74323Y246963D01*
X69263Y252023D01*
X69263Y259177D01*
X74323Y264237D01*
X81477Y264237D01*
X86537Y259177D01*
X86537Y252023D01*
X81477Y246963D01*
X74323Y246963D01*
G37*
%LPD*%
%LPC*%
G36*
X99723Y246963D02*
X99723Y246963D01*
X94663Y252023D01*
X94663Y259177D01*
X99723Y264237D01*
X106877Y264237D01*
X111937Y259177D01*
X111937Y252023D01*
X106877Y246963D01*
X99723Y246963D01*
G37*
%LPD*%
%LPC*%
G36*
X429923Y272363D02*
X429923Y272363D01*
X424863Y277423D01*
X424863Y284577D01*
X429923Y289637D01*
X437077Y289637D01*
X442137Y284577D01*
X442137Y277423D01*
X437077Y272363D01*
X429923Y272363D01*
G37*
%LPD*%
%LPC*%
G36*
X404523Y272363D02*
X404523Y272363D01*
X399463Y277423D01*
X399463Y284577D01*
X404523Y289637D01*
X411677Y289637D01*
X416737Y284577D01*
X416737Y277423D01*
X411677Y272363D01*
X404523Y272363D01*
G37*
%LPD*%
%LPC*%
G36*
X480723Y272363D02*
X480723Y272363D01*
X475663Y277423D01*
X475663Y284577D01*
X480723Y289637D01*
X487877Y289637D01*
X492937Y284577D01*
X492937Y277423D01*
X487877Y272363D01*
X480723Y272363D01*
G37*
%LPD*%
%LPC*%
G36*
X455323Y272363D02*
X455323Y272363D01*
X450263Y277423D01*
X450263Y284577D01*
X455323Y289637D01*
X462477Y289637D01*
X467537Y284577D01*
X467537Y277423D01*
X462477Y272363D01*
X455323Y272363D01*
G37*
%LPD*%
%LPC*%
G36*
X226723Y272363D02*
X226723Y272363D01*
X221663Y277423D01*
X221663Y284577D01*
X226723Y289637D01*
X233877Y289637D01*
X238937Y284577D01*
X238937Y277423D01*
X233877Y272363D01*
X226723Y272363D01*
G37*
%LPD*%
%LPC*%
G36*
X201323Y272363D02*
X201323Y272363D01*
X196263Y277423D01*
X196263Y284577D01*
X201323Y289637D01*
X208477Y289637D01*
X213537Y284577D01*
X213537Y277423D01*
X208477Y272363D01*
X201323Y272363D01*
G37*
%LPD*%
%LPC*%
G36*
X379123Y272363D02*
X379123Y272363D01*
X374063Y277423D01*
X374063Y284577D01*
X379123Y289637D01*
X386277Y289637D01*
X391337Y284577D01*
X391337Y277423D01*
X386277Y272363D01*
X379123Y272363D01*
G37*
%LPD*%
%LPC*%
G36*
X353723Y272363D02*
X353723Y272363D01*
X348663Y277423D01*
X348663Y284577D01*
X353723Y289637D01*
X360877Y289637D01*
X365937Y284577D01*
X365937Y277423D01*
X360877Y272363D01*
X353723Y272363D01*
G37*
%LPD*%
%LPC*%
G36*
X328323Y272363D02*
X328323Y272363D01*
X323263Y277423D01*
X323263Y284577D01*
X328323Y289637D01*
X335477Y289637D01*
X340537Y284577D01*
X340537Y277423D01*
X335477Y272363D01*
X328323Y272363D01*
G37*
%LPD*%
%LPC*%
G36*
X302923Y272363D02*
X302923Y272363D01*
X297863Y277423D01*
X297863Y284577D01*
X302923Y289637D01*
X310077Y289637D01*
X315137Y284577D01*
X315137Y277423D01*
X310077Y272363D01*
X302923Y272363D01*
G37*
%LPD*%
%LPC*%
G36*
X277523Y272363D02*
X277523Y272363D01*
X272463Y277423D01*
X272463Y284577D01*
X277523Y289637D01*
X284677Y289637D01*
X289737Y284577D01*
X289737Y277423D01*
X284677Y272363D01*
X277523Y272363D01*
G37*
%LPD*%
%LPC*%
G36*
X252123Y272363D02*
X252123Y272363D01*
X247063Y277423D01*
X247063Y284577D01*
X252123Y289637D01*
X259277Y289637D01*
X264337Y284577D01*
X264337Y277423D01*
X259277Y272363D01*
X252123Y272363D01*
G37*
%LPD*%
%LPC*%
G36*
X175923Y272363D02*
X175923Y272363D01*
X170863Y277423D01*
X170863Y284577D01*
X175923Y289637D01*
X183077Y289637D01*
X188137Y284577D01*
X188137Y277423D01*
X183077Y272363D01*
X175923Y272363D01*
G37*
%LPD*%
%LPC*%
G36*
X150523Y272363D02*
X150523Y272363D01*
X145463Y277423D01*
X145463Y284577D01*
X150523Y289637D01*
X157677Y289637D01*
X162737Y284577D01*
X162737Y277423D01*
X157677Y272363D01*
X150523Y272363D01*
G37*
%LPD*%
%LPC*%
G36*
X125123Y272363D02*
X125123Y272363D01*
X120063Y277423D01*
X120063Y284577D01*
X125123Y289637D01*
X132277Y289637D01*
X137337Y284577D01*
X137337Y277423D01*
X132277Y272363D01*
X125123Y272363D01*
G37*
%LPD*%
%LPC*%
G36*
X99723Y272363D02*
X99723Y272363D01*
X94663Y277423D01*
X94663Y284577D01*
X99723Y289637D01*
X106877Y289637D01*
X111937Y284577D01*
X111937Y277423D01*
X106877Y272363D01*
X99723Y272363D01*
G37*
%LPD*%
%LPC*%
G36*
X74323Y272363D02*
X74323Y272363D01*
X69263Y277423D01*
X69263Y284577D01*
X74323Y289637D01*
X81477Y289637D01*
X86537Y284577D01*
X86537Y277423D01*
X81477Y272363D01*
X74323Y272363D01*
G37*
%LPD*%
%LPC*%
G36*
X48923Y272363D02*
X48923Y272363D01*
X43863Y277423D01*
X43863Y284577D01*
X48923Y289637D01*
X56077Y289637D01*
X61137Y284577D01*
X61137Y277423D01*
X56077Y272363D01*
X48923Y272363D01*
G37*
%LPD*%
%LPC*%
G36*
X48923Y246963D02*
X48923Y246963D01*
X43863Y252023D01*
X43863Y259177D01*
X48923Y264237D01*
X56077Y264237D01*
X61137Y259177D01*
X61137Y252023D01*
X56077Y246963D01*
X48923Y246963D01*
G37*
%LPD*%
%LPC*%
G36*
X23523Y246963D02*
X23523Y246963D01*
X18463Y252023D01*
X18463Y259177D01*
X23523Y264237D01*
X30677Y264237D01*
X35737Y259177D01*
X35737Y252023D01*
X30677Y246963D01*
X23523Y246963D01*
G37*
%LPD*%
%LPC*%
G36*
X506123Y246963D02*
X506123Y246963D01*
X501063Y252023D01*
X501063Y259177D01*
X506123Y264237D01*
X513277Y264237D01*
X518337Y259177D01*
X518337Y252023D01*
X513277Y246963D01*
X506123Y246963D01*
G37*
%LPD*%
%LPC*%
G36*
X480723Y246963D02*
X480723Y246963D01*
X475663Y252023D01*
X475663Y259177D01*
X480723Y264237D01*
X487877Y264237D01*
X492937Y259177D01*
X492937Y252023D01*
X487877Y246963D01*
X480723Y246963D01*
G37*
%LPD*%
%LPC*%
G36*
X455323Y246963D02*
X455323Y246963D01*
X450263Y252023D01*
X450263Y259177D01*
X455323Y264237D01*
X462477Y264237D01*
X467537Y259177D01*
X467537Y252023D01*
X462477Y246963D01*
X455323Y246963D01*
G37*
%LPD*%
%LPC*%
G36*
X429923Y246963D02*
X429923Y246963D01*
X424863Y252023D01*
X424863Y259177D01*
X429923Y264237D01*
X437077Y264237D01*
X442137Y259177D01*
X442137Y252023D01*
X437077Y246963D01*
X429923Y246963D01*
G37*
%LPD*%
%LPC*%
G36*
X404523Y246963D02*
X404523Y246963D01*
X399463Y252023D01*
X399463Y259177D01*
X404523Y264237D01*
X411677Y264237D01*
X416737Y259177D01*
X416737Y252023D01*
X411677Y246963D01*
X404523Y246963D01*
G37*
%LPD*%
%LPC*%
G36*
X379123Y246963D02*
X379123Y246963D01*
X374063Y252023D01*
X374063Y259177D01*
X379123Y264237D01*
X386277Y264237D01*
X391337Y259177D01*
X391337Y252023D01*
X386277Y246963D01*
X379123Y246963D01*
G37*
%LPD*%
%LPC*%
G36*
X353723Y246963D02*
X353723Y246963D01*
X348663Y252023D01*
X348663Y259177D01*
X353723Y264237D01*
X360877Y264237D01*
X365937Y259177D01*
X365937Y252023D01*
X360877Y246963D01*
X353723Y246963D01*
G37*
%LPD*%
%LPC*%
G36*
X328323Y246963D02*
X328323Y246963D01*
X323263Y252023D01*
X323263Y259177D01*
X328323Y264237D01*
X335477Y264237D01*
X340537Y259177D01*
X340537Y252023D01*
X335477Y246963D01*
X328323Y246963D01*
G37*
%LPD*%
%LPC*%
G36*
X302923Y246963D02*
X302923Y246963D01*
X297863Y252023D01*
X297863Y259177D01*
X302923Y264237D01*
X310077Y264237D01*
X315137Y259177D01*
X315137Y252023D01*
X310077Y246963D01*
X302923Y246963D01*
G37*
%LPD*%
%LPC*%
G36*
X277523Y246963D02*
X277523Y246963D01*
X272463Y252023D01*
X272463Y259177D01*
X277523Y264237D01*
X284677Y264237D01*
X289737Y259177D01*
X289737Y252023D01*
X284677Y246963D01*
X277523Y246963D01*
G37*
%LPD*%
%LPC*%
G36*
X226723Y246963D02*
X226723Y246963D01*
X221663Y252023D01*
X221663Y259177D01*
X226723Y264237D01*
X233877Y264237D01*
X238937Y259177D01*
X238937Y252023D01*
X233877Y246963D01*
X226723Y246963D01*
G37*
%LPD*%
%LPC*%
G36*
X201323Y246963D02*
X201323Y246963D01*
X196263Y252023D01*
X196263Y259177D01*
X201323Y264237D01*
X208477Y264237D01*
X213537Y259177D01*
X213537Y252023D01*
X208477Y246963D01*
X201323Y246963D01*
G37*
%LPD*%
%LPC*%
G36*
X175923Y246963D02*
X175923Y246963D01*
X170863Y252023D01*
X170863Y259177D01*
X175923Y264237D01*
X183077Y264237D01*
X188137Y259177D01*
X188137Y252023D01*
X183077Y246963D01*
X175923Y246963D01*
G37*
%LPD*%
%LPC*%
G36*
X150523Y246963D02*
X150523Y246963D01*
X145463Y252023D01*
X145463Y259177D01*
X150523Y264237D01*
X157677Y264237D01*
X162737Y259177D01*
X162737Y252023D01*
X157677Y246963D01*
X150523Y246963D01*
G37*
%LPD*%
%LPC*%
G36*
X125123Y246963D02*
X125123Y246963D01*
X120063Y252023D01*
X120063Y259177D01*
X125123Y264237D01*
X132277Y264237D01*
X137337Y259177D01*
X137337Y252023D01*
X132277Y246963D01*
X125123Y246963D01*
G37*
%LPD*%
%LPC*%
G36*
X252123Y246963D02*
X252123Y246963D01*
X247063Y252023D01*
X247063Y259177D01*
X252123Y264237D01*
X259277Y264237D01*
X264337Y259177D01*
X264337Y252023D01*
X259277Y246963D01*
X252123Y246963D01*
G37*
%LPD*%
%LPC*%
G36*
X25382Y272363D02*
X25382Y272363D01*
X22208Y273678D01*
X19778Y276108D01*
X18463Y279282D01*
X18463Y282718D01*
X19778Y285892D01*
X22208Y288322D01*
X25382Y289637D01*
X28818Y289637D01*
X31992Y288322D01*
X34422Y285892D01*
X35737Y282718D01*
X35737Y279282D01*
X34422Y276108D01*
X31992Y273678D01*
X28818Y272363D01*
X25382Y272363D01*
G37*
%LPD*%
%LPC*%
G36*
X512239Y283539D02*
X512239Y283539D01*
X512239Y290653D01*
X513698Y290653D01*
X519353Y284998D01*
X519353Y283539D01*
X512239Y283539D01*
G37*
%LPD*%
%LPC*%
G36*
X500047Y283539D02*
X500047Y283539D01*
X500047Y284998D01*
X505702Y290653D01*
X507161Y290653D01*
X507161Y283539D01*
X500047Y283539D01*
G37*
%LPD*%
%LPC*%
G36*
X512239Y271347D02*
X512239Y271347D01*
X512239Y278461D01*
X519353Y278461D01*
X519353Y277002D01*
X513698Y271347D01*
X512239Y271347D01*
G37*
%LPD*%
%LPC*%
G36*
X505702Y271347D02*
X505702Y271347D01*
X500047Y277002D01*
X500047Y278461D01*
X507161Y278461D01*
X507161Y271347D01*
X505702Y271347D01*
G37*
%LPD*%
%LPC*%
G36*
X72819Y166699D02*
X72819Y166699D01*
X72819Y173484D01*
X73985Y173106D01*
X75339Y172416D01*
X76568Y171523D01*
X77643Y170448D01*
X78536Y169219D01*
X79226Y167865D01*
X79604Y166699D01*
X72819Y166699D01*
G37*
%LPD*%
%LPC*%
G36*
X60956Y166699D02*
X60956Y166699D01*
X61334Y167865D01*
X62024Y169219D01*
X62917Y170448D01*
X63992Y171523D01*
X65221Y172416D01*
X66575Y173106D01*
X67741Y173484D01*
X67741Y166699D01*
X60956Y166699D01*
G37*
%LPD*%
D10*
X27100Y281000D03*
D11*
X27100Y255600D03*
X52500Y281000D03*
X52500Y255600D03*
X77900Y281000D03*
X77900Y255600D03*
X103300Y281000D03*
X103300Y255600D03*
X128700Y281000D03*
X128700Y255600D03*
X154100Y281000D03*
X154100Y255600D03*
X179500Y281000D03*
X179500Y255600D03*
X204900Y281000D03*
X204900Y255600D03*
X230300Y281000D03*
X230300Y255600D03*
X255700Y281000D03*
X255700Y255600D03*
X281100Y281000D03*
X281100Y255600D03*
X306500Y281000D03*
X306500Y255600D03*
X331900Y281000D03*
X331900Y255600D03*
X357300Y281000D03*
X357300Y255600D03*
X382700Y281000D03*
X382700Y255600D03*
X408100Y281000D03*
X408100Y255600D03*
X433500Y281000D03*
X433500Y255600D03*
X458900Y281000D03*
X458900Y255600D03*
X484300Y281000D03*
X484300Y255600D03*
X509700Y281000D03*
X509700Y255600D03*
D10*
X52500Y93040D03*
X70280Y103200D03*
X52500Y113360D03*
X70280Y123520D03*
X52500Y133680D03*
X70280Y143840D03*
X52500Y154000D03*
X70280Y164160D03*
D12*
X61390Y209626D03*
X61390Y47574D03*
D13*
X284000Y206000D03*
X140000Y194000D03*
D14*
X169000Y223000D01*
X267000Y223000D02*
X284000Y206000D01*
X267000Y223000D02*
X169000Y223000D01*
D13*
X235000Y207000D03*
X107000Y222000D03*
D15*
X241000Y75000D03*
D14*
X91108Y103200D02*
X71296Y123012D01*
D16*
X70280Y123520D01*
D13*
X301120Y103200D03*
D14*
X91108Y103200D01*
M02*
