G04 EAGLE Gerber X2 export*
%TF.Part,Single*%
%TF.FileFunction,Other,Silk screen CMP*%
%TF.FilePolarity,Positive*%
%TF.GenerationSoftware,Autodesk,EAGLE,8.6.3*%
%TF.CreationDate,2019-02-27T20:09:03Z*%
G75*
%MOMM*%
%FSLAX34Y34*%
%LPD*%
%AMOC8*
5,1,8,0,0,1.08239X$1,22.5*%
G01*
%ADD10C,0.000000*%
%ADD11C,0.076200*%
%ADD12C,0.101600*%
%ADD13C,0.152400*%
%ADD14C,0.127000*%
%ADD15C,0.203200*%


D10*
X-50000Y-20000D02*
X580000Y-20000D01*
X580000Y350000D01*
X-50000Y350000D01*
X-50000Y-20000D01*
D11*
X252836Y45573D02*
X252914Y45575D01*
X252992Y45580D01*
X253069Y45590D01*
X253146Y45603D01*
X253222Y45619D01*
X253297Y45639D01*
X253371Y45663D01*
X253444Y45690D01*
X253516Y45721D01*
X253586Y45755D01*
X253655Y45792D01*
X253721Y45833D01*
X253786Y45877D01*
X253848Y45923D01*
X253908Y45973D01*
X253966Y46025D01*
X254021Y46080D01*
X254073Y46138D01*
X254123Y46198D01*
X254169Y46260D01*
X254213Y46325D01*
X254254Y46392D01*
X254291Y46460D01*
X254325Y46530D01*
X254356Y46602D01*
X254383Y46675D01*
X254407Y46749D01*
X254427Y46824D01*
X254443Y46900D01*
X254456Y46977D01*
X254466Y47054D01*
X254471Y47132D01*
X254473Y47210D01*
X252836Y45573D02*
X252722Y45575D01*
X252609Y45580D01*
X252495Y45590D01*
X252382Y45603D01*
X252270Y45620D01*
X252158Y45640D01*
X252047Y45664D01*
X251936Y45692D01*
X251827Y45723D01*
X251719Y45758D01*
X251612Y45797D01*
X251506Y45839D01*
X251402Y45884D01*
X251299Y45933D01*
X251198Y45986D01*
X251099Y46041D01*
X251001Y46100D01*
X250906Y46162D01*
X250813Y46227D01*
X250721Y46295D01*
X250633Y46366D01*
X250546Y46440D01*
X250462Y46517D01*
X250381Y46596D01*
X250585Y51302D02*
X250587Y51380D01*
X250592Y51458D01*
X250602Y51535D01*
X250615Y51612D01*
X250631Y51688D01*
X250651Y51763D01*
X250675Y51837D01*
X250702Y51910D01*
X250733Y51982D01*
X250767Y52052D01*
X250804Y52121D01*
X250845Y52187D01*
X250889Y52252D01*
X250935Y52314D01*
X250985Y52374D01*
X251037Y52432D01*
X251092Y52487D01*
X251150Y52539D01*
X251210Y52589D01*
X251272Y52635D01*
X251337Y52679D01*
X251404Y52720D01*
X251472Y52757D01*
X251542Y52791D01*
X251614Y52822D01*
X251687Y52849D01*
X251761Y52873D01*
X251836Y52893D01*
X251912Y52909D01*
X251989Y52922D01*
X252066Y52932D01*
X252144Y52937D01*
X252222Y52939D01*
X252332Y52937D01*
X252441Y52931D01*
X252551Y52921D01*
X252659Y52908D01*
X252768Y52890D01*
X252875Y52869D01*
X252982Y52843D01*
X253088Y52814D01*
X253193Y52782D01*
X253296Y52745D01*
X253398Y52705D01*
X253499Y52661D01*
X253598Y52613D01*
X253695Y52563D01*
X253790Y52508D01*
X253883Y52450D01*
X253974Y52389D01*
X254063Y52325D01*
X251404Y49869D02*
X251337Y49911D01*
X251272Y49955D01*
X251210Y50003D01*
X251150Y50053D01*
X251092Y50106D01*
X251037Y50162D01*
X250985Y50221D01*
X250935Y50281D01*
X250888Y50345D01*
X250845Y50410D01*
X250804Y50477D01*
X250767Y50546D01*
X250733Y50617D01*
X250702Y50689D01*
X250675Y50763D01*
X250651Y50837D01*
X250631Y50913D01*
X250615Y50990D01*
X250602Y51067D01*
X250592Y51145D01*
X250587Y51224D01*
X250585Y51302D01*
X253655Y48642D02*
X253721Y48600D01*
X253786Y48556D01*
X253848Y48509D01*
X253908Y48458D01*
X253966Y48405D01*
X254021Y48349D01*
X254074Y48291D01*
X254123Y48230D01*
X254170Y48167D01*
X254213Y48102D01*
X254254Y48035D01*
X254291Y47966D01*
X254325Y47895D01*
X254356Y47823D01*
X254383Y47749D01*
X254407Y47674D01*
X254427Y47599D01*
X254443Y47522D01*
X254456Y47445D01*
X254466Y47367D01*
X254471Y47288D01*
X254473Y47210D01*
X253655Y48642D02*
X251404Y49870D01*
X256744Y50484D02*
X259199Y50484D01*
X257562Y52939D02*
X257562Y46801D01*
X257564Y46732D01*
X257570Y46664D01*
X257579Y46595D01*
X257593Y46528D01*
X257610Y46461D01*
X257631Y46395D01*
X257655Y46331D01*
X257684Y46268D01*
X257715Y46207D01*
X257750Y46148D01*
X257788Y46090D01*
X257830Y46035D01*
X257874Y45983D01*
X257922Y45933D01*
X257972Y45885D01*
X258024Y45841D01*
X258079Y45799D01*
X258137Y45761D01*
X258196Y45726D01*
X258257Y45695D01*
X258320Y45666D01*
X258384Y45642D01*
X258450Y45621D01*
X258517Y45604D01*
X258584Y45590D01*
X258653Y45581D01*
X258721Y45575D01*
X258790Y45573D01*
X259199Y45573D01*
X262297Y45573D02*
X262297Y50484D01*
X264752Y50484D01*
X264752Y49665D01*
X268355Y45573D02*
X270401Y45573D01*
X268355Y45573D02*
X268286Y45575D01*
X268218Y45581D01*
X268149Y45590D01*
X268082Y45604D01*
X268015Y45621D01*
X267949Y45642D01*
X267885Y45666D01*
X267822Y45695D01*
X267761Y45726D01*
X267702Y45761D01*
X267644Y45799D01*
X267589Y45841D01*
X267537Y45885D01*
X267487Y45933D01*
X267439Y45983D01*
X267395Y46035D01*
X267353Y46090D01*
X267315Y46148D01*
X267280Y46207D01*
X267249Y46268D01*
X267220Y46331D01*
X267196Y46395D01*
X267175Y46461D01*
X267158Y46528D01*
X267144Y46595D01*
X267135Y46664D01*
X267129Y46732D01*
X267127Y46801D01*
X267127Y48847D01*
X267129Y48926D01*
X267135Y49005D01*
X267144Y49084D01*
X267157Y49162D01*
X267175Y49239D01*
X267195Y49315D01*
X267220Y49390D01*
X267248Y49464D01*
X267279Y49537D01*
X267315Y49608D01*
X267353Y49677D01*
X267395Y49744D01*
X267440Y49809D01*
X267488Y49872D01*
X267539Y49933D01*
X267593Y49990D01*
X267649Y50046D01*
X267708Y50098D01*
X267770Y50148D01*
X267834Y50194D01*
X267900Y50238D01*
X267968Y50278D01*
X268038Y50314D01*
X268110Y50348D01*
X268184Y50378D01*
X268258Y50404D01*
X268334Y50427D01*
X268411Y50445D01*
X268488Y50461D01*
X268567Y50472D01*
X268645Y50480D01*
X268724Y50484D01*
X268804Y50484D01*
X268883Y50480D01*
X268961Y50472D01*
X269040Y50461D01*
X269117Y50445D01*
X269194Y50427D01*
X269270Y50404D01*
X269344Y50378D01*
X269418Y50348D01*
X269490Y50314D01*
X269560Y50278D01*
X269628Y50238D01*
X269694Y50194D01*
X269758Y50148D01*
X269820Y50098D01*
X269879Y50046D01*
X269935Y49990D01*
X269989Y49933D01*
X270040Y49872D01*
X270088Y49809D01*
X270133Y49744D01*
X270175Y49677D01*
X270213Y49608D01*
X270249Y49537D01*
X270280Y49464D01*
X270308Y49390D01*
X270333Y49315D01*
X270353Y49239D01*
X270371Y49162D01*
X270384Y49084D01*
X270393Y49005D01*
X270399Y48926D01*
X270401Y48847D01*
X270401Y48028D01*
X267127Y48028D01*
X274081Y48438D02*
X276127Y47619D01*
X274081Y48438D02*
X274022Y48463D01*
X273965Y48492D01*
X273910Y48525D01*
X273857Y48561D01*
X273806Y48599D01*
X273758Y48641D01*
X273712Y48686D01*
X273669Y48733D01*
X273629Y48783D01*
X273592Y48835D01*
X273558Y48890D01*
X273527Y48946D01*
X273500Y49004D01*
X273477Y49064D01*
X273457Y49124D01*
X273441Y49186D01*
X273428Y49249D01*
X273420Y49313D01*
X273415Y49376D01*
X273414Y49440D01*
X273417Y49504D01*
X273424Y49568D01*
X273435Y49631D01*
X273449Y49693D01*
X273467Y49755D01*
X273489Y49815D01*
X273514Y49874D01*
X273543Y49931D01*
X273576Y49986D01*
X273611Y50039D01*
X273650Y50090D01*
X273692Y50139D01*
X273736Y50185D01*
X273784Y50228D01*
X273833Y50268D01*
X273886Y50305D01*
X273940Y50339D01*
X273996Y50370D01*
X274054Y50397D01*
X274113Y50421D01*
X274174Y50440D01*
X274236Y50457D01*
X274299Y50469D01*
X274362Y50478D01*
X274426Y50483D01*
X274490Y50484D01*
X274626Y50480D01*
X274761Y50472D01*
X274897Y50460D01*
X275031Y50444D01*
X275166Y50424D01*
X275299Y50401D01*
X275432Y50373D01*
X275564Y50342D01*
X275695Y50307D01*
X275825Y50268D01*
X275954Y50225D01*
X276081Y50178D01*
X276207Y50128D01*
X276332Y50074D01*
X276127Y47619D02*
X276186Y47594D01*
X276243Y47565D01*
X276298Y47532D01*
X276351Y47496D01*
X276402Y47458D01*
X276450Y47416D01*
X276496Y47371D01*
X276539Y47324D01*
X276579Y47274D01*
X276616Y47222D01*
X276650Y47167D01*
X276681Y47111D01*
X276708Y47053D01*
X276731Y46993D01*
X276751Y46933D01*
X276767Y46871D01*
X276780Y46808D01*
X276788Y46744D01*
X276793Y46681D01*
X276794Y46617D01*
X276791Y46553D01*
X276784Y46489D01*
X276773Y46426D01*
X276759Y46364D01*
X276741Y46302D01*
X276719Y46242D01*
X276694Y46183D01*
X276665Y46126D01*
X276632Y46071D01*
X276597Y46018D01*
X276558Y45967D01*
X276516Y45918D01*
X276472Y45872D01*
X276424Y45829D01*
X276375Y45789D01*
X276322Y45752D01*
X276268Y45718D01*
X276212Y45687D01*
X276154Y45660D01*
X276095Y45636D01*
X276034Y45617D01*
X275972Y45600D01*
X275909Y45588D01*
X275846Y45579D01*
X275782Y45574D01*
X275718Y45573D01*
X275554Y45577D01*
X275390Y45585D01*
X275226Y45597D01*
X275063Y45613D01*
X274900Y45633D01*
X274737Y45656D01*
X274576Y45684D01*
X274414Y45715D01*
X274254Y45750D01*
X274095Y45789D01*
X273936Y45832D01*
X273779Y45878D01*
X273622Y45928D01*
X273467Y45982D01*
X280421Y48438D02*
X282467Y47619D01*
X280421Y48438D02*
X280362Y48463D01*
X280305Y48492D01*
X280250Y48525D01*
X280197Y48561D01*
X280146Y48599D01*
X280098Y48641D01*
X280052Y48686D01*
X280009Y48733D01*
X279969Y48783D01*
X279932Y48835D01*
X279898Y48890D01*
X279867Y48946D01*
X279840Y49004D01*
X279817Y49064D01*
X279797Y49124D01*
X279781Y49186D01*
X279768Y49249D01*
X279760Y49313D01*
X279755Y49376D01*
X279754Y49440D01*
X279757Y49504D01*
X279764Y49568D01*
X279775Y49631D01*
X279789Y49693D01*
X279807Y49755D01*
X279829Y49815D01*
X279854Y49874D01*
X279883Y49931D01*
X279916Y49986D01*
X279951Y50039D01*
X279990Y50090D01*
X280032Y50139D01*
X280076Y50185D01*
X280124Y50228D01*
X280173Y50268D01*
X280226Y50305D01*
X280280Y50339D01*
X280336Y50370D01*
X280394Y50397D01*
X280453Y50421D01*
X280514Y50440D01*
X280576Y50457D01*
X280639Y50469D01*
X280702Y50478D01*
X280766Y50483D01*
X280830Y50484D01*
X280966Y50480D01*
X281101Y50472D01*
X281237Y50460D01*
X281371Y50444D01*
X281506Y50424D01*
X281639Y50401D01*
X281772Y50373D01*
X281904Y50342D01*
X282035Y50307D01*
X282165Y50268D01*
X282294Y50225D01*
X282421Y50178D01*
X282547Y50128D01*
X282672Y50074D01*
X282467Y47619D02*
X282526Y47594D01*
X282583Y47565D01*
X282638Y47532D01*
X282691Y47496D01*
X282742Y47458D01*
X282790Y47416D01*
X282836Y47371D01*
X282879Y47324D01*
X282919Y47274D01*
X282956Y47222D01*
X282990Y47167D01*
X283021Y47111D01*
X283048Y47053D01*
X283071Y46993D01*
X283091Y46933D01*
X283107Y46871D01*
X283120Y46808D01*
X283128Y46744D01*
X283133Y46681D01*
X283134Y46617D01*
X283131Y46553D01*
X283124Y46489D01*
X283113Y46426D01*
X283099Y46364D01*
X283081Y46302D01*
X283059Y46242D01*
X283034Y46183D01*
X283005Y46126D01*
X282972Y46071D01*
X282937Y46018D01*
X282898Y45967D01*
X282856Y45918D01*
X282812Y45872D01*
X282764Y45829D01*
X282715Y45789D01*
X282662Y45752D01*
X282608Y45718D01*
X282552Y45687D01*
X282494Y45660D01*
X282435Y45636D01*
X282374Y45617D01*
X282312Y45600D01*
X282249Y45588D01*
X282186Y45579D01*
X282122Y45574D01*
X282058Y45573D01*
X281894Y45577D01*
X281730Y45585D01*
X281566Y45597D01*
X281403Y45613D01*
X281240Y45633D01*
X281077Y45656D01*
X280916Y45684D01*
X280754Y45715D01*
X280594Y45750D01*
X280435Y45789D01*
X280276Y45832D01*
X280119Y45878D01*
X279962Y45928D01*
X279807Y45982D01*
X291741Y45573D02*
X293377Y45573D01*
X291741Y45573D02*
X291663Y45575D01*
X291585Y45580D01*
X291508Y45590D01*
X291431Y45603D01*
X291355Y45619D01*
X291280Y45639D01*
X291206Y45663D01*
X291133Y45690D01*
X291061Y45721D01*
X290991Y45755D01*
X290923Y45792D01*
X290856Y45833D01*
X290791Y45877D01*
X290729Y45923D01*
X290669Y45973D01*
X290611Y46025D01*
X290556Y46080D01*
X290504Y46138D01*
X290454Y46198D01*
X290408Y46260D01*
X290364Y46325D01*
X290323Y46392D01*
X290286Y46460D01*
X290252Y46530D01*
X290221Y46602D01*
X290194Y46675D01*
X290170Y46749D01*
X290150Y46824D01*
X290134Y46900D01*
X290121Y46977D01*
X290111Y47054D01*
X290106Y47132D01*
X290104Y47210D01*
X290104Y51302D01*
X290106Y51382D01*
X290112Y51462D01*
X290122Y51542D01*
X290135Y51621D01*
X290153Y51700D01*
X290174Y51777D01*
X290200Y51853D01*
X290229Y51928D01*
X290261Y52002D01*
X290297Y52074D01*
X290337Y52144D01*
X290380Y52211D01*
X290426Y52277D01*
X290476Y52340D01*
X290528Y52401D01*
X290583Y52460D01*
X290642Y52515D01*
X290702Y52567D01*
X290766Y52617D01*
X290832Y52663D01*
X290899Y52706D01*
X290969Y52746D01*
X291041Y52782D01*
X291115Y52814D01*
X291189Y52843D01*
X291266Y52869D01*
X291343Y52890D01*
X291422Y52908D01*
X291501Y52921D01*
X291581Y52931D01*
X291661Y52937D01*
X291741Y52939D01*
X293377Y52939D01*
X296144Y48847D02*
X296144Y47210D01*
X296144Y48847D02*
X296146Y48926D01*
X296152Y49005D01*
X296161Y49084D01*
X296174Y49162D01*
X296192Y49239D01*
X296212Y49315D01*
X296237Y49390D01*
X296265Y49464D01*
X296296Y49537D01*
X296332Y49608D01*
X296370Y49677D01*
X296412Y49744D01*
X296457Y49809D01*
X296505Y49872D01*
X296556Y49933D01*
X296610Y49990D01*
X296666Y50046D01*
X296725Y50098D01*
X296787Y50148D01*
X296851Y50194D01*
X296917Y50238D01*
X296985Y50278D01*
X297055Y50314D01*
X297127Y50348D01*
X297201Y50378D01*
X297275Y50404D01*
X297351Y50427D01*
X297428Y50445D01*
X297505Y50461D01*
X297584Y50472D01*
X297662Y50480D01*
X297741Y50484D01*
X297821Y50484D01*
X297900Y50480D01*
X297978Y50472D01*
X298057Y50461D01*
X298134Y50445D01*
X298211Y50427D01*
X298287Y50404D01*
X298361Y50378D01*
X298435Y50348D01*
X298507Y50314D01*
X298577Y50278D01*
X298645Y50238D01*
X298711Y50194D01*
X298775Y50148D01*
X298837Y50098D01*
X298896Y50046D01*
X298952Y49990D01*
X299006Y49933D01*
X299057Y49872D01*
X299105Y49809D01*
X299150Y49744D01*
X299192Y49677D01*
X299230Y49608D01*
X299266Y49537D01*
X299297Y49464D01*
X299325Y49390D01*
X299350Y49315D01*
X299370Y49239D01*
X299388Y49162D01*
X299401Y49084D01*
X299410Y49005D01*
X299416Y48926D01*
X299418Y48847D01*
X299418Y47210D01*
X299416Y47131D01*
X299410Y47052D01*
X299401Y46973D01*
X299388Y46895D01*
X299370Y46818D01*
X299350Y46742D01*
X299325Y46667D01*
X299297Y46593D01*
X299266Y46520D01*
X299230Y46449D01*
X299192Y46380D01*
X299150Y46313D01*
X299105Y46248D01*
X299057Y46185D01*
X299006Y46124D01*
X298952Y46067D01*
X298896Y46011D01*
X298837Y45959D01*
X298775Y45909D01*
X298711Y45863D01*
X298645Y45819D01*
X298577Y45779D01*
X298507Y45743D01*
X298435Y45709D01*
X298361Y45679D01*
X298287Y45653D01*
X298211Y45630D01*
X298134Y45612D01*
X298057Y45596D01*
X297978Y45585D01*
X297900Y45577D01*
X297821Y45573D01*
X297741Y45573D01*
X297662Y45577D01*
X297584Y45585D01*
X297505Y45596D01*
X297428Y45612D01*
X297351Y45630D01*
X297275Y45653D01*
X297201Y45679D01*
X297127Y45709D01*
X297055Y45743D01*
X296985Y45779D01*
X296917Y45819D01*
X296851Y45863D01*
X296787Y45909D01*
X296725Y45959D01*
X296666Y46011D01*
X296610Y46067D01*
X296556Y46124D01*
X296505Y46185D01*
X296457Y46248D01*
X296412Y46313D01*
X296370Y46380D01*
X296332Y46449D01*
X296296Y46520D01*
X296265Y46593D01*
X296237Y46667D01*
X296212Y46742D01*
X296192Y46818D01*
X296174Y46895D01*
X296161Y46973D01*
X296152Y47052D01*
X296146Y47131D01*
X296144Y47210D01*
X302728Y45573D02*
X302728Y50484D01*
X304774Y50484D01*
X304843Y50482D01*
X304911Y50476D01*
X304980Y50467D01*
X305047Y50453D01*
X305114Y50436D01*
X305180Y50415D01*
X305244Y50391D01*
X305307Y50362D01*
X305368Y50331D01*
X305427Y50296D01*
X305485Y50258D01*
X305540Y50216D01*
X305592Y50172D01*
X305642Y50124D01*
X305690Y50074D01*
X305734Y50022D01*
X305776Y49967D01*
X305814Y49909D01*
X305849Y49850D01*
X305880Y49789D01*
X305909Y49726D01*
X305933Y49662D01*
X305954Y49596D01*
X305971Y49529D01*
X305985Y49462D01*
X305994Y49393D01*
X306000Y49325D01*
X306002Y49256D01*
X306002Y45573D01*
X308681Y50484D02*
X311137Y50484D01*
X309500Y52939D02*
X309500Y46801D01*
X309499Y46801D02*
X309501Y46732D01*
X309507Y46664D01*
X309516Y46595D01*
X309530Y46528D01*
X309547Y46461D01*
X309568Y46395D01*
X309592Y46331D01*
X309621Y46268D01*
X309652Y46207D01*
X309687Y46148D01*
X309725Y46090D01*
X309767Y46035D01*
X309811Y45983D01*
X309859Y45933D01*
X309909Y45885D01*
X309961Y45841D01*
X310016Y45799D01*
X310074Y45761D01*
X310133Y45726D01*
X310194Y45695D01*
X310257Y45666D01*
X310321Y45642D01*
X310387Y45621D01*
X310454Y45604D01*
X310521Y45590D01*
X310590Y45581D01*
X310658Y45575D01*
X310727Y45573D01*
X311137Y45573D01*
X314234Y45573D02*
X314234Y50484D01*
X316690Y50484D01*
X316690Y49665D01*
X319065Y48847D02*
X319065Y47210D01*
X319065Y48847D02*
X319067Y48926D01*
X319073Y49005D01*
X319082Y49084D01*
X319095Y49162D01*
X319113Y49239D01*
X319133Y49315D01*
X319158Y49390D01*
X319186Y49464D01*
X319217Y49537D01*
X319253Y49608D01*
X319291Y49677D01*
X319333Y49744D01*
X319378Y49809D01*
X319426Y49872D01*
X319477Y49933D01*
X319531Y49990D01*
X319587Y50046D01*
X319646Y50098D01*
X319708Y50148D01*
X319772Y50194D01*
X319838Y50238D01*
X319906Y50278D01*
X319976Y50314D01*
X320048Y50348D01*
X320122Y50378D01*
X320196Y50404D01*
X320272Y50427D01*
X320349Y50445D01*
X320426Y50461D01*
X320505Y50472D01*
X320583Y50480D01*
X320662Y50484D01*
X320742Y50484D01*
X320821Y50480D01*
X320899Y50472D01*
X320978Y50461D01*
X321055Y50445D01*
X321132Y50427D01*
X321208Y50404D01*
X321282Y50378D01*
X321356Y50348D01*
X321428Y50314D01*
X321498Y50278D01*
X321566Y50238D01*
X321632Y50194D01*
X321696Y50148D01*
X321758Y50098D01*
X321817Y50046D01*
X321873Y49990D01*
X321927Y49933D01*
X321978Y49872D01*
X322026Y49809D01*
X322071Y49744D01*
X322113Y49677D01*
X322151Y49608D01*
X322187Y49537D01*
X322218Y49464D01*
X322246Y49390D01*
X322271Y49315D01*
X322291Y49239D01*
X322309Y49162D01*
X322322Y49084D01*
X322331Y49005D01*
X322337Y48926D01*
X322339Y48847D01*
X322339Y47210D01*
X322337Y47131D01*
X322331Y47052D01*
X322322Y46973D01*
X322309Y46895D01*
X322291Y46818D01*
X322271Y46742D01*
X322246Y46667D01*
X322218Y46593D01*
X322187Y46520D01*
X322151Y46449D01*
X322113Y46380D01*
X322071Y46313D01*
X322026Y46248D01*
X321978Y46185D01*
X321927Y46124D01*
X321873Y46067D01*
X321817Y46011D01*
X321758Y45959D01*
X321696Y45909D01*
X321632Y45863D01*
X321566Y45819D01*
X321498Y45779D01*
X321428Y45743D01*
X321356Y45709D01*
X321282Y45679D01*
X321208Y45653D01*
X321132Y45630D01*
X321055Y45612D01*
X320978Y45596D01*
X320899Y45585D01*
X320821Y45577D01*
X320742Y45573D01*
X320662Y45573D01*
X320583Y45577D01*
X320505Y45585D01*
X320426Y45596D01*
X320349Y45612D01*
X320272Y45630D01*
X320196Y45653D01*
X320122Y45679D01*
X320048Y45709D01*
X319976Y45743D01*
X319906Y45779D01*
X319838Y45819D01*
X319772Y45863D01*
X319708Y45909D01*
X319646Y45959D01*
X319587Y46011D01*
X319531Y46067D01*
X319477Y46124D01*
X319426Y46185D01*
X319378Y46248D01*
X319333Y46313D01*
X319291Y46380D01*
X319253Y46449D01*
X319217Y46520D01*
X319186Y46593D01*
X319158Y46667D01*
X319133Y46742D01*
X319113Y46818D01*
X319095Y46895D01*
X319082Y46973D01*
X319073Y47052D01*
X319067Y47131D01*
X319065Y47210D01*
X325488Y46801D02*
X325488Y52939D01*
X325488Y46801D02*
X325490Y46732D01*
X325496Y46664D01*
X325505Y46595D01*
X325519Y46528D01*
X325536Y46461D01*
X325557Y46395D01*
X325581Y46331D01*
X325610Y46268D01*
X325641Y46207D01*
X325676Y46148D01*
X325714Y46090D01*
X325756Y46035D01*
X325800Y45983D01*
X325848Y45933D01*
X325898Y45885D01*
X325950Y45841D01*
X326005Y45799D01*
X326063Y45761D01*
X326122Y45726D01*
X326183Y45695D01*
X326246Y45666D01*
X326310Y45642D01*
X326376Y45621D01*
X326443Y45604D01*
X326510Y45590D01*
X326579Y45581D01*
X326647Y45575D01*
X326716Y45573D01*
X329389Y46801D02*
X329389Y52939D01*
X329389Y46801D02*
X329391Y46732D01*
X329397Y46664D01*
X329406Y46595D01*
X329420Y46528D01*
X329437Y46461D01*
X329458Y46395D01*
X329482Y46331D01*
X329511Y46268D01*
X329542Y46207D01*
X329577Y46148D01*
X329615Y46090D01*
X329657Y46035D01*
X329701Y45983D01*
X329749Y45933D01*
X329799Y45885D01*
X329851Y45841D01*
X329906Y45799D01*
X329964Y45761D01*
X330023Y45726D01*
X330084Y45695D01*
X330147Y45666D01*
X330211Y45642D01*
X330277Y45621D01*
X330344Y45604D01*
X330411Y45590D01*
X330480Y45581D01*
X330548Y45575D01*
X330617Y45573D01*
X334435Y45573D02*
X336481Y45573D01*
X334435Y45573D02*
X334366Y45575D01*
X334298Y45581D01*
X334229Y45590D01*
X334162Y45604D01*
X334095Y45621D01*
X334029Y45642D01*
X333965Y45666D01*
X333902Y45695D01*
X333841Y45726D01*
X333782Y45761D01*
X333724Y45799D01*
X333669Y45841D01*
X333617Y45885D01*
X333567Y45933D01*
X333519Y45983D01*
X333475Y46035D01*
X333433Y46090D01*
X333395Y46148D01*
X333360Y46207D01*
X333329Y46268D01*
X333300Y46331D01*
X333276Y46395D01*
X333255Y46461D01*
X333238Y46528D01*
X333224Y46595D01*
X333215Y46664D01*
X333209Y46732D01*
X333207Y46801D01*
X333208Y46801D02*
X333208Y48847D01*
X333210Y48926D01*
X333216Y49005D01*
X333225Y49084D01*
X333238Y49162D01*
X333256Y49239D01*
X333276Y49315D01*
X333301Y49390D01*
X333329Y49464D01*
X333360Y49537D01*
X333396Y49608D01*
X333434Y49677D01*
X333476Y49744D01*
X333521Y49809D01*
X333569Y49872D01*
X333620Y49933D01*
X333674Y49990D01*
X333730Y50046D01*
X333789Y50098D01*
X333851Y50148D01*
X333915Y50194D01*
X333981Y50238D01*
X334049Y50278D01*
X334119Y50314D01*
X334191Y50348D01*
X334265Y50378D01*
X334339Y50404D01*
X334415Y50427D01*
X334492Y50445D01*
X334569Y50461D01*
X334648Y50472D01*
X334726Y50480D01*
X334805Y50484D01*
X334885Y50484D01*
X334964Y50480D01*
X335042Y50472D01*
X335121Y50461D01*
X335198Y50445D01*
X335275Y50427D01*
X335351Y50404D01*
X335425Y50378D01*
X335499Y50348D01*
X335571Y50314D01*
X335641Y50278D01*
X335709Y50238D01*
X335775Y50194D01*
X335839Y50148D01*
X335901Y50098D01*
X335960Y50046D01*
X336016Y49990D01*
X336070Y49933D01*
X336121Y49872D01*
X336169Y49809D01*
X336214Y49744D01*
X336256Y49677D01*
X336294Y49608D01*
X336330Y49537D01*
X336361Y49464D01*
X336389Y49390D01*
X336414Y49315D01*
X336434Y49239D01*
X336452Y49162D01*
X336465Y49084D01*
X336474Y49005D01*
X336480Y48926D01*
X336482Y48847D01*
X336481Y48847D02*
X336481Y48028D01*
X333208Y48028D01*
X339837Y45573D02*
X339837Y50484D01*
X342293Y50484D01*
X342293Y49665D01*
X350859Y45573D02*
X350937Y45575D01*
X351015Y45580D01*
X351092Y45590D01*
X351169Y45603D01*
X351245Y45619D01*
X351320Y45639D01*
X351394Y45663D01*
X351467Y45690D01*
X351539Y45721D01*
X351609Y45755D01*
X351678Y45792D01*
X351744Y45833D01*
X351809Y45877D01*
X351871Y45923D01*
X351931Y45973D01*
X351989Y46025D01*
X352044Y46080D01*
X352096Y46138D01*
X352146Y46198D01*
X352192Y46260D01*
X352236Y46325D01*
X352277Y46392D01*
X352314Y46460D01*
X352348Y46530D01*
X352379Y46602D01*
X352406Y46675D01*
X352430Y46749D01*
X352450Y46824D01*
X352466Y46900D01*
X352479Y46977D01*
X352489Y47054D01*
X352494Y47132D01*
X352496Y47210D01*
X350859Y45573D02*
X350745Y45575D01*
X350632Y45580D01*
X350518Y45590D01*
X350405Y45603D01*
X350293Y45620D01*
X350181Y45640D01*
X350070Y45664D01*
X349959Y45692D01*
X349850Y45723D01*
X349742Y45758D01*
X349635Y45797D01*
X349529Y45839D01*
X349425Y45884D01*
X349322Y45933D01*
X349221Y45986D01*
X349122Y46041D01*
X349024Y46100D01*
X348929Y46162D01*
X348836Y46227D01*
X348744Y46295D01*
X348656Y46366D01*
X348569Y46440D01*
X348485Y46517D01*
X348404Y46596D01*
X348609Y51302D02*
X348611Y51380D01*
X348616Y51458D01*
X348626Y51535D01*
X348639Y51612D01*
X348655Y51688D01*
X348675Y51763D01*
X348699Y51837D01*
X348726Y51910D01*
X348757Y51982D01*
X348791Y52052D01*
X348828Y52121D01*
X348869Y52187D01*
X348913Y52252D01*
X348959Y52314D01*
X349009Y52374D01*
X349061Y52432D01*
X349116Y52487D01*
X349174Y52539D01*
X349234Y52589D01*
X349296Y52635D01*
X349361Y52679D01*
X349428Y52720D01*
X349496Y52757D01*
X349566Y52791D01*
X349638Y52822D01*
X349711Y52849D01*
X349785Y52873D01*
X349860Y52893D01*
X349936Y52909D01*
X350013Y52922D01*
X350090Y52932D01*
X350168Y52937D01*
X350246Y52939D01*
X350356Y52937D01*
X350465Y52931D01*
X350575Y52921D01*
X350683Y52908D01*
X350792Y52890D01*
X350899Y52869D01*
X351006Y52843D01*
X351112Y52814D01*
X351217Y52782D01*
X351320Y52745D01*
X351422Y52705D01*
X351523Y52661D01*
X351622Y52613D01*
X351719Y52563D01*
X351814Y52508D01*
X351907Y52450D01*
X351998Y52389D01*
X352087Y52325D01*
X349427Y49869D02*
X349360Y49911D01*
X349295Y49955D01*
X349233Y50003D01*
X349173Y50053D01*
X349115Y50106D01*
X349060Y50162D01*
X349008Y50221D01*
X348958Y50281D01*
X348911Y50345D01*
X348868Y50410D01*
X348827Y50477D01*
X348790Y50546D01*
X348756Y50617D01*
X348725Y50689D01*
X348698Y50763D01*
X348674Y50837D01*
X348654Y50913D01*
X348638Y50990D01*
X348625Y51067D01*
X348615Y51145D01*
X348610Y51224D01*
X348608Y51302D01*
X351678Y48642D02*
X351744Y48600D01*
X351809Y48556D01*
X351871Y48509D01*
X351931Y48458D01*
X351989Y48405D01*
X352044Y48349D01*
X352097Y48291D01*
X352146Y48230D01*
X352193Y48167D01*
X352236Y48102D01*
X352277Y48035D01*
X352314Y47966D01*
X352348Y47895D01*
X352379Y47823D01*
X352406Y47749D01*
X352430Y47674D01*
X352450Y47599D01*
X352466Y47522D01*
X352479Y47445D01*
X352489Y47367D01*
X352494Y47288D01*
X352496Y47210D01*
X351678Y48642D02*
X349427Y49870D01*
X355641Y52939D02*
X355641Y45573D01*
X355641Y50484D02*
X357687Y50484D01*
X357756Y50482D01*
X357824Y50476D01*
X357893Y50467D01*
X357960Y50453D01*
X358027Y50436D01*
X358093Y50415D01*
X358157Y50391D01*
X358220Y50362D01*
X358281Y50331D01*
X358340Y50296D01*
X358398Y50258D01*
X358453Y50216D01*
X358505Y50172D01*
X358555Y50124D01*
X358603Y50074D01*
X358647Y50022D01*
X358689Y49967D01*
X358727Y49909D01*
X358762Y49850D01*
X358793Y49789D01*
X358822Y49726D01*
X358846Y49662D01*
X358867Y49596D01*
X358884Y49529D01*
X358898Y49462D01*
X358907Y49393D01*
X358913Y49325D01*
X358915Y49256D01*
X358915Y45573D01*
X362155Y45573D02*
X362155Y50484D01*
X361950Y52530D02*
X361950Y52939D01*
X362359Y52939D01*
X362359Y52530D01*
X361950Y52530D01*
X366378Y45573D02*
X368424Y45573D01*
X366378Y45573D02*
X366309Y45575D01*
X366241Y45581D01*
X366172Y45590D01*
X366105Y45604D01*
X366038Y45621D01*
X365972Y45642D01*
X365908Y45666D01*
X365845Y45695D01*
X365784Y45726D01*
X365725Y45761D01*
X365667Y45799D01*
X365612Y45841D01*
X365560Y45885D01*
X365510Y45933D01*
X365462Y45983D01*
X365418Y46035D01*
X365376Y46090D01*
X365338Y46148D01*
X365303Y46207D01*
X365272Y46268D01*
X365243Y46331D01*
X365219Y46395D01*
X365198Y46461D01*
X365181Y46528D01*
X365167Y46595D01*
X365158Y46664D01*
X365152Y46732D01*
X365150Y46801D01*
X365151Y46801D02*
X365151Y48847D01*
X365150Y48847D02*
X365152Y48926D01*
X365158Y49005D01*
X365167Y49084D01*
X365180Y49162D01*
X365198Y49239D01*
X365218Y49315D01*
X365243Y49390D01*
X365271Y49464D01*
X365302Y49537D01*
X365338Y49608D01*
X365376Y49677D01*
X365418Y49744D01*
X365463Y49809D01*
X365511Y49872D01*
X365562Y49933D01*
X365616Y49990D01*
X365672Y50046D01*
X365731Y50098D01*
X365793Y50148D01*
X365857Y50194D01*
X365923Y50238D01*
X365991Y50278D01*
X366061Y50314D01*
X366133Y50348D01*
X366207Y50378D01*
X366281Y50404D01*
X366357Y50427D01*
X366434Y50445D01*
X366511Y50461D01*
X366590Y50472D01*
X366668Y50480D01*
X366747Y50484D01*
X366827Y50484D01*
X366906Y50480D01*
X366984Y50472D01*
X367063Y50461D01*
X367140Y50445D01*
X367217Y50427D01*
X367293Y50404D01*
X367367Y50378D01*
X367441Y50348D01*
X367513Y50314D01*
X367583Y50278D01*
X367651Y50238D01*
X367717Y50194D01*
X367781Y50148D01*
X367843Y50098D01*
X367902Y50046D01*
X367958Y49990D01*
X368012Y49933D01*
X368063Y49872D01*
X368111Y49809D01*
X368156Y49744D01*
X368198Y49677D01*
X368236Y49608D01*
X368272Y49537D01*
X368303Y49464D01*
X368331Y49390D01*
X368356Y49315D01*
X368376Y49239D01*
X368394Y49162D01*
X368407Y49084D01*
X368416Y49005D01*
X368422Y48926D01*
X368424Y48847D01*
X368424Y48028D01*
X365151Y48028D01*
X371573Y46801D02*
X371573Y52939D01*
X371573Y46801D02*
X371575Y46732D01*
X371581Y46664D01*
X371590Y46595D01*
X371604Y46528D01*
X371621Y46461D01*
X371642Y46395D01*
X371666Y46331D01*
X371695Y46268D01*
X371726Y46207D01*
X371761Y46148D01*
X371799Y46090D01*
X371841Y46035D01*
X371885Y45983D01*
X371933Y45933D01*
X371983Y45885D01*
X372035Y45841D01*
X372090Y45799D01*
X372148Y45761D01*
X372207Y45726D01*
X372268Y45695D01*
X372331Y45666D01*
X372395Y45642D01*
X372461Y45621D01*
X372528Y45604D01*
X372595Y45590D01*
X372664Y45581D01*
X372732Y45575D01*
X372801Y45573D01*
X378625Y45573D02*
X378625Y52939D01*
X378625Y45573D02*
X376579Y45573D01*
X376510Y45575D01*
X376442Y45581D01*
X376373Y45590D01*
X376306Y45604D01*
X376239Y45621D01*
X376173Y45642D01*
X376109Y45666D01*
X376046Y45695D01*
X375985Y45726D01*
X375926Y45761D01*
X375868Y45799D01*
X375813Y45841D01*
X375761Y45885D01*
X375711Y45933D01*
X375663Y45983D01*
X375619Y46035D01*
X375577Y46090D01*
X375539Y46148D01*
X375504Y46207D01*
X375473Y46268D01*
X375444Y46331D01*
X375420Y46395D01*
X375399Y46461D01*
X375382Y46528D01*
X375368Y46595D01*
X375359Y46664D01*
X375353Y46732D01*
X375351Y46801D01*
X375351Y49256D01*
X375353Y49325D01*
X375359Y49393D01*
X375368Y49462D01*
X375382Y49529D01*
X375399Y49596D01*
X375420Y49662D01*
X375444Y49726D01*
X375473Y49789D01*
X375504Y49850D01*
X375539Y49909D01*
X375577Y49967D01*
X375619Y50022D01*
X375663Y50074D01*
X375711Y50124D01*
X375761Y50172D01*
X375813Y50216D01*
X375868Y50258D01*
X375926Y50296D01*
X375985Y50331D01*
X376046Y50362D01*
X376109Y50391D01*
X376173Y50415D01*
X376239Y50436D01*
X376306Y50453D01*
X376373Y50467D01*
X376442Y50476D01*
X376510Y50482D01*
X376579Y50484D01*
X378625Y50484D01*
X386317Y49665D02*
X388363Y49665D01*
X388452Y49663D01*
X388541Y49657D01*
X388630Y49647D01*
X388718Y49634D01*
X388806Y49617D01*
X388893Y49595D01*
X388978Y49570D01*
X389063Y49542D01*
X389146Y49509D01*
X389228Y49473D01*
X389308Y49434D01*
X389386Y49391D01*
X389462Y49345D01*
X389537Y49295D01*
X389609Y49242D01*
X389678Y49186D01*
X389745Y49127D01*
X389810Y49066D01*
X389871Y49001D01*
X389930Y48934D01*
X389986Y48865D01*
X390039Y48793D01*
X390089Y48718D01*
X390135Y48642D01*
X390178Y48564D01*
X390217Y48484D01*
X390253Y48402D01*
X390286Y48319D01*
X390314Y48234D01*
X390339Y48149D01*
X390361Y48062D01*
X390378Y47974D01*
X390391Y47886D01*
X390401Y47797D01*
X390407Y47708D01*
X390409Y47619D01*
X390407Y47530D01*
X390401Y47441D01*
X390391Y47352D01*
X390378Y47264D01*
X390361Y47176D01*
X390339Y47089D01*
X390314Y47004D01*
X390286Y46919D01*
X390253Y46836D01*
X390217Y46754D01*
X390178Y46674D01*
X390135Y46596D01*
X390089Y46520D01*
X390039Y46445D01*
X389986Y46373D01*
X389930Y46304D01*
X389871Y46237D01*
X389810Y46172D01*
X389745Y46111D01*
X389678Y46052D01*
X389609Y45996D01*
X389537Y45943D01*
X389462Y45893D01*
X389386Y45847D01*
X389308Y45804D01*
X389228Y45765D01*
X389146Y45729D01*
X389063Y45696D01*
X388978Y45668D01*
X388893Y45643D01*
X388806Y45621D01*
X388718Y45604D01*
X388630Y45591D01*
X388541Y45581D01*
X388452Y45575D01*
X388363Y45573D01*
X386317Y45573D01*
X386317Y52939D01*
X388363Y52939D01*
X388442Y52937D01*
X388521Y52931D01*
X388600Y52922D01*
X388678Y52909D01*
X388755Y52891D01*
X388831Y52871D01*
X388906Y52846D01*
X388980Y52818D01*
X389053Y52787D01*
X389124Y52751D01*
X389193Y52713D01*
X389260Y52671D01*
X389325Y52626D01*
X389388Y52578D01*
X389449Y52527D01*
X389506Y52473D01*
X389562Y52417D01*
X389614Y52358D01*
X389664Y52296D01*
X389710Y52232D01*
X389754Y52166D01*
X389794Y52098D01*
X389830Y52028D01*
X389864Y51956D01*
X389894Y51882D01*
X389920Y51808D01*
X389943Y51732D01*
X389961Y51655D01*
X389977Y51578D01*
X389988Y51499D01*
X389996Y51421D01*
X390000Y51342D01*
X390000Y51262D01*
X389996Y51183D01*
X389988Y51105D01*
X389977Y51026D01*
X389961Y50949D01*
X389943Y50872D01*
X389920Y50796D01*
X389894Y50722D01*
X389864Y50648D01*
X389830Y50576D01*
X389794Y50506D01*
X389754Y50438D01*
X389710Y50372D01*
X389664Y50308D01*
X389614Y50246D01*
X389562Y50187D01*
X389506Y50131D01*
X389449Y50077D01*
X389388Y50026D01*
X389325Y49978D01*
X389260Y49933D01*
X389193Y49891D01*
X389124Y49853D01*
X389053Y49817D01*
X388980Y49786D01*
X388906Y49758D01*
X388831Y49733D01*
X388755Y49713D01*
X388678Y49695D01*
X388600Y49682D01*
X388521Y49673D01*
X388442Y49667D01*
X388363Y49665D01*
X393192Y48847D02*
X393192Y47210D01*
X393192Y48847D02*
X393194Y48926D01*
X393200Y49005D01*
X393209Y49084D01*
X393222Y49162D01*
X393240Y49239D01*
X393260Y49315D01*
X393285Y49390D01*
X393313Y49464D01*
X393344Y49537D01*
X393380Y49608D01*
X393418Y49677D01*
X393460Y49744D01*
X393505Y49809D01*
X393553Y49872D01*
X393604Y49933D01*
X393658Y49990D01*
X393714Y50046D01*
X393773Y50098D01*
X393835Y50148D01*
X393899Y50194D01*
X393965Y50238D01*
X394033Y50278D01*
X394103Y50314D01*
X394175Y50348D01*
X394249Y50378D01*
X394323Y50404D01*
X394399Y50427D01*
X394476Y50445D01*
X394553Y50461D01*
X394632Y50472D01*
X394710Y50480D01*
X394789Y50484D01*
X394869Y50484D01*
X394948Y50480D01*
X395026Y50472D01*
X395105Y50461D01*
X395182Y50445D01*
X395259Y50427D01*
X395335Y50404D01*
X395409Y50378D01*
X395483Y50348D01*
X395555Y50314D01*
X395625Y50278D01*
X395693Y50238D01*
X395759Y50194D01*
X395823Y50148D01*
X395885Y50098D01*
X395944Y50046D01*
X396000Y49990D01*
X396054Y49933D01*
X396105Y49872D01*
X396153Y49809D01*
X396198Y49744D01*
X396240Y49677D01*
X396278Y49608D01*
X396314Y49537D01*
X396345Y49464D01*
X396373Y49390D01*
X396398Y49315D01*
X396418Y49239D01*
X396436Y49162D01*
X396449Y49084D01*
X396458Y49005D01*
X396464Y48926D01*
X396466Y48847D01*
X396466Y47210D01*
X396464Y47131D01*
X396458Y47052D01*
X396449Y46973D01*
X396436Y46895D01*
X396418Y46818D01*
X396398Y46742D01*
X396373Y46667D01*
X396345Y46593D01*
X396314Y46520D01*
X396278Y46449D01*
X396240Y46380D01*
X396198Y46313D01*
X396153Y46248D01*
X396105Y46185D01*
X396054Y46124D01*
X396000Y46067D01*
X395944Y46011D01*
X395885Y45959D01*
X395823Y45909D01*
X395759Y45863D01*
X395693Y45819D01*
X395625Y45779D01*
X395555Y45743D01*
X395483Y45709D01*
X395409Y45679D01*
X395335Y45653D01*
X395259Y45630D01*
X395182Y45612D01*
X395105Y45596D01*
X395026Y45585D01*
X394948Y45577D01*
X394869Y45573D01*
X394789Y45573D01*
X394710Y45577D01*
X394632Y45585D01*
X394553Y45596D01*
X394476Y45612D01*
X394399Y45630D01*
X394323Y45653D01*
X394249Y45679D01*
X394175Y45709D01*
X394103Y45743D01*
X394033Y45779D01*
X393965Y45819D01*
X393899Y45863D01*
X393835Y45909D01*
X393773Y45959D01*
X393714Y46011D01*
X393658Y46067D01*
X393604Y46124D01*
X393553Y46185D01*
X393505Y46248D01*
X393460Y46313D01*
X393418Y46380D01*
X393380Y46449D01*
X393344Y46520D01*
X393313Y46593D01*
X393285Y46667D01*
X393260Y46742D01*
X393240Y46818D01*
X393222Y46895D01*
X393209Y46973D01*
X393200Y47052D01*
X393194Y47131D01*
X393192Y47210D01*
X400923Y48438D02*
X402765Y48438D01*
X400923Y48437D02*
X400848Y48435D01*
X400773Y48429D01*
X400699Y48419D01*
X400625Y48406D01*
X400552Y48388D01*
X400480Y48367D01*
X400410Y48342D01*
X400341Y48313D01*
X400273Y48281D01*
X400207Y48245D01*
X400143Y48206D01*
X400081Y48164D01*
X400022Y48118D01*
X399965Y48069D01*
X399910Y48018D01*
X399859Y47963D01*
X399810Y47906D01*
X399764Y47847D01*
X399722Y47785D01*
X399683Y47721D01*
X399647Y47655D01*
X399615Y47587D01*
X399586Y47518D01*
X399561Y47448D01*
X399540Y47376D01*
X399522Y47303D01*
X399509Y47229D01*
X399499Y47155D01*
X399493Y47080D01*
X399491Y47005D01*
X399493Y46930D01*
X399499Y46855D01*
X399509Y46781D01*
X399522Y46707D01*
X399540Y46634D01*
X399561Y46562D01*
X399586Y46492D01*
X399615Y46423D01*
X399647Y46355D01*
X399683Y46289D01*
X399722Y46225D01*
X399764Y46163D01*
X399810Y46104D01*
X399859Y46047D01*
X399910Y45992D01*
X399965Y45941D01*
X400022Y45892D01*
X400081Y45846D01*
X400143Y45804D01*
X400207Y45765D01*
X400273Y45729D01*
X400341Y45697D01*
X400410Y45668D01*
X400480Y45643D01*
X400552Y45622D01*
X400625Y45604D01*
X400699Y45591D01*
X400773Y45581D01*
X400848Y45575D01*
X400923Y45573D01*
X402765Y45573D01*
X402765Y49256D01*
X402763Y49325D01*
X402757Y49393D01*
X402748Y49462D01*
X402734Y49529D01*
X402717Y49596D01*
X402696Y49662D01*
X402672Y49726D01*
X402643Y49789D01*
X402612Y49850D01*
X402577Y49909D01*
X402539Y49967D01*
X402497Y50022D01*
X402453Y50074D01*
X402405Y50124D01*
X402355Y50172D01*
X402303Y50216D01*
X402248Y50258D01*
X402190Y50296D01*
X402131Y50331D01*
X402070Y50362D01*
X402007Y50391D01*
X401943Y50415D01*
X401877Y50436D01*
X401810Y50453D01*
X401743Y50467D01*
X401674Y50476D01*
X401606Y50482D01*
X401537Y50484D01*
X399900Y50484D01*
X406406Y50484D02*
X406406Y45573D01*
X406406Y50484D02*
X408861Y50484D01*
X408861Y49665D01*
X414469Y52939D02*
X414469Y45573D01*
X412423Y45573D01*
X412354Y45575D01*
X412286Y45581D01*
X412217Y45590D01*
X412150Y45604D01*
X412083Y45621D01*
X412017Y45642D01*
X411953Y45666D01*
X411890Y45695D01*
X411829Y45726D01*
X411770Y45761D01*
X411712Y45799D01*
X411657Y45841D01*
X411605Y45885D01*
X411555Y45933D01*
X411507Y45983D01*
X411463Y46035D01*
X411421Y46090D01*
X411383Y46148D01*
X411348Y46207D01*
X411317Y46268D01*
X411288Y46331D01*
X411264Y46395D01*
X411243Y46461D01*
X411226Y46528D01*
X411212Y46595D01*
X411203Y46664D01*
X411197Y46732D01*
X411195Y46801D01*
X411195Y49256D01*
X411197Y49325D01*
X411203Y49393D01*
X411212Y49462D01*
X411226Y49529D01*
X411243Y49596D01*
X411264Y49662D01*
X411288Y49726D01*
X411317Y49789D01*
X411348Y49850D01*
X411383Y49909D01*
X411421Y49967D01*
X411463Y50022D01*
X411507Y50074D01*
X411555Y50124D01*
X411605Y50172D01*
X411657Y50216D01*
X411712Y50258D01*
X411770Y50296D01*
X411829Y50331D01*
X411890Y50362D01*
X411953Y50391D01*
X412017Y50415D01*
X412083Y50436D01*
X412150Y50453D01*
X412217Y50467D01*
X412286Y50476D01*
X412354Y50482D01*
X412423Y50484D01*
X414469Y50484D01*
X421477Y50484D02*
X423114Y45573D01*
X424751Y50484D01*
X427652Y51302D02*
X429698Y52939D01*
X429698Y45573D01*
X427652Y45573D02*
X431744Y45573D01*
D12*
X319895Y179908D02*
X319895Y191592D01*
X323140Y191592D01*
X323253Y191590D01*
X323366Y191584D01*
X323479Y191574D01*
X323592Y191560D01*
X323704Y191543D01*
X323815Y191521D01*
X323925Y191496D01*
X324035Y191466D01*
X324143Y191433D01*
X324250Y191396D01*
X324356Y191356D01*
X324460Y191311D01*
X324563Y191263D01*
X324664Y191212D01*
X324763Y191157D01*
X324860Y191099D01*
X324955Y191037D01*
X325048Y190972D01*
X325138Y190904D01*
X325226Y190833D01*
X325312Y190758D01*
X325395Y190681D01*
X325475Y190601D01*
X325552Y190518D01*
X325627Y190432D01*
X325698Y190344D01*
X325766Y190254D01*
X325831Y190161D01*
X325893Y190066D01*
X325951Y189969D01*
X326006Y189870D01*
X326057Y189769D01*
X326105Y189666D01*
X326150Y189562D01*
X326190Y189456D01*
X326227Y189349D01*
X326260Y189241D01*
X326290Y189131D01*
X326315Y189021D01*
X326337Y188910D01*
X326354Y188798D01*
X326368Y188685D01*
X326378Y188572D01*
X326384Y188459D01*
X326386Y188346D01*
X326384Y188233D01*
X326378Y188120D01*
X326368Y188007D01*
X326354Y187894D01*
X326337Y187782D01*
X326315Y187671D01*
X326290Y187561D01*
X326260Y187451D01*
X326227Y187343D01*
X326190Y187236D01*
X326150Y187130D01*
X326105Y187026D01*
X326057Y186923D01*
X326006Y186822D01*
X325951Y186723D01*
X325893Y186626D01*
X325831Y186531D01*
X325766Y186438D01*
X325698Y186348D01*
X325627Y186260D01*
X325552Y186174D01*
X325475Y186091D01*
X325395Y186011D01*
X325312Y185934D01*
X325226Y185859D01*
X325138Y185788D01*
X325048Y185720D01*
X324955Y185655D01*
X324860Y185593D01*
X324763Y185535D01*
X324664Y185480D01*
X324563Y185429D01*
X324460Y185381D01*
X324356Y185336D01*
X324250Y185296D01*
X324143Y185259D01*
X324035Y185226D01*
X323925Y185196D01*
X323815Y185171D01*
X323704Y185149D01*
X323592Y185132D01*
X323479Y185118D01*
X323366Y185108D01*
X323253Y185102D01*
X323140Y185100D01*
X323140Y185101D02*
X319895Y185101D01*
X323789Y185101D02*
X326386Y179908D01*
X331251Y188996D02*
X334496Y191592D01*
X334496Y179908D01*
X331251Y179908D02*
X337742Y179908D01*
X326058Y178892D02*
X326058Y167208D01*
X326058Y178892D02*
X329304Y178892D01*
X329417Y178890D01*
X329530Y178884D01*
X329643Y178874D01*
X329756Y178860D01*
X329868Y178843D01*
X329979Y178821D01*
X330089Y178796D01*
X330199Y178766D01*
X330307Y178733D01*
X330414Y178696D01*
X330520Y178656D01*
X330624Y178611D01*
X330727Y178563D01*
X330828Y178512D01*
X330927Y178457D01*
X331024Y178399D01*
X331119Y178337D01*
X331212Y178272D01*
X331302Y178204D01*
X331390Y178133D01*
X331476Y178058D01*
X331559Y177981D01*
X331639Y177901D01*
X331716Y177818D01*
X331791Y177732D01*
X331862Y177644D01*
X331930Y177554D01*
X331995Y177461D01*
X332057Y177366D01*
X332115Y177269D01*
X332170Y177170D01*
X332221Y177069D01*
X332269Y176966D01*
X332314Y176862D01*
X332354Y176756D01*
X332391Y176649D01*
X332424Y176541D01*
X332454Y176431D01*
X332479Y176321D01*
X332501Y176210D01*
X332518Y176098D01*
X332532Y175985D01*
X332542Y175872D01*
X332548Y175759D01*
X332550Y175646D01*
X332548Y175533D01*
X332542Y175420D01*
X332532Y175307D01*
X332518Y175194D01*
X332501Y175082D01*
X332479Y174971D01*
X332454Y174861D01*
X332424Y174751D01*
X332391Y174643D01*
X332354Y174536D01*
X332314Y174430D01*
X332269Y174326D01*
X332221Y174223D01*
X332170Y174122D01*
X332115Y174023D01*
X332057Y173926D01*
X331995Y173831D01*
X331930Y173738D01*
X331862Y173648D01*
X331791Y173560D01*
X331716Y173474D01*
X331639Y173391D01*
X331559Y173311D01*
X331476Y173234D01*
X331390Y173159D01*
X331302Y173088D01*
X331212Y173020D01*
X331119Y172955D01*
X331024Y172893D01*
X330927Y172835D01*
X330828Y172780D01*
X330727Y172729D01*
X330624Y172681D01*
X330520Y172636D01*
X330414Y172596D01*
X330307Y172559D01*
X330199Y172526D01*
X330089Y172496D01*
X329979Y172471D01*
X329868Y172449D01*
X329756Y172432D01*
X329643Y172418D01*
X329530Y172408D01*
X329417Y172402D01*
X329304Y172400D01*
X329304Y172401D02*
X326058Y172401D01*
X329953Y172401D02*
X332549Y167208D01*
X343905Y175971D02*
X343903Y176078D01*
X343897Y176184D01*
X343887Y176290D01*
X343874Y176396D01*
X343856Y176502D01*
X343835Y176606D01*
X343810Y176710D01*
X343781Y176813D01*
X343749Y176914D01*
X343712Y177014D01*
X343672Y177113D01*
X343629Y177211D01*
X343582Y177307D01*
X343531Y177401D01*
X343477Y177493D01*
X343420Y177583D01*
X343360Y177671D01*
X343296Y177756D01*
X343229Y177839D01*
X343159Y177920D01*
X343087Y177998D01*
X343011Y178074D01*
X342933Y178146D01*
X342852Y178216D01*
X342769Y178283D01*
X342684Y178347D01*
X342596Y178407D01*
X342506Y178464D01*
X342414Y178518D01*
X342320Y178569D01*
X342224Y178616D01*
X342126Y178659D01*
X342027Y178699D01*
X341927Y178736D01*
X341826Y178768D01*
X341723Y178797D01*
X341619Y178822D01*
X341515Y178843D01*
X341409Y178861D01*
X341303Y178874D01*
X341197Y178884D01*
X341091Y178890D01*
X340984Y178892D01*
X340863Y178890D01*
X340742Y178884D01*
X340622Y178874D01*
X340501Y178861D01*
X340382Y178843D01*
X340262Y178822D01*
X340144Y178797D01*
X340027Y178768D01*
X339910Y178735D01*
X339795Y178699D01*
X339681Y178658D01*
X339568Y178615D01*
X339456Y178567D01*
X339347Y178516D01*
X339239Y178461D01*
X339132Y178403D01*
X339028Y178342D01*
X338926Y178277D01*
X338826Y178209D01*
X338728Y178138D01*
X338632Y178064D01*
X338539Y177987D01*
X338449Y177906D01*
X338361Y177823D01*
X338276Y177737D01*
X338193Y177648D01*
X338114Y177557D01*
X338037Y177463D01*
X337964Y177367D01*
X337894Y177269D01*
X337827Y177168D01*
X337763Y177065D01*
X337703Y176960D01*
X337646Y176853D01*
X337592Y176745D01*
X337542Y176635D01*
X337496Y176523D01*
X337453Y176410D01*
X337414Y176295D01*
X342932Y173699D02*
X343011Y173776D01*
X343087Y173857D01*
X343160Y173940D01*
X343230Y174025D01*
X343297Y174113D01*
X343361Y174203D01*
X343421Y174295D01*
X343478Y174390D01*
X343532Y174486D01*
X343583Y174584D01*
X343630Y174684D01*
X343674Y174786D01*
X343714Y174889D01*
X343750Y174993D01*
X343782Y175099D01*
X343811Y175205D01*
X343836Y175313D01*
X343858Y175421D01*
X343875Y175531D01*
X343889Y175640D01*
X343898Y175750D01*
X343904Y175861D01*
X343906Y175971D01*
X342932Y173699D02*
X337414Y167208D01*
X343905Y167208D01*
X326058Y128092D02*
X326058Y116408D01*
X326058Y128092D02*
X329304Y128092D01*
X329417Y128090D01*
X329530Y128084D01*
X329643Y128074D01*
X329756Y128060D01*
X329868Y128043D01*
X329979Y128021D01*
X330089Y127996D01*
X330199Y127966D01*
X330307Y127933D01*
X330414Y127896D01*
X330520Y127856D01*
X330624Y127811D01*
X330727Y127763D01*
X330828Y127712D01*
X330927Y127657D01*
X331024Y127599D01*
X331119Y127537D01*
X331212Y127472D01*
X331302Y127404D01*
X331390Y127333D01*
X331476Y127258D01*
X331559Y127181D01*
X331639Y127101D01*
X331716Y127018D01*
X331791Y126932D01*
X331862Y126844D01*
X331930Y126754D01*
X331995Y126661D01*
X332057Y126566D01*
X332115Y126469D01*
X332170Y126370D01*
X332221Y126269D01*
X332269Y126166D01*
X332314Y126062D01*
X332354Y125956D01*
X332391Y125849D01*
X332424Y125741D01*
X332454Y125631D01*
X332479Y125521D01*
X332501Y125410D01*
X332518Y125298D01*
X332532Y125185D01*
X332542Y125072D01*
X332548Y124959D01*
X332550Y124846D01*
X332548Y124733D01*
X332542Y124620D01*
X332532Y124507D01*
X332518Y124394D01*
X332501Y124282D01*
X332479Y124171D01*
X332454Y124061D01*
X332424Y123951D01*
X332391Y123843D01*
X332354Y123736D01*
X332314Y123630D01*
X332269Y123526D01*
X332221Y123423D01*
X332170Y123322D01*
X332115Y123223D01*
X332057Y123126D01*
X331995Y123031D01*
X331930Y122938D01*
X331862Y122848D01*
X331791Y122760D01*
X331716Y122674D01*
X331639Y122591D01*
X331559Y122511D01*
X331476Y122434D01*
X331390Y122359D01*
X331302Y122288D01*
X331212Y122220D01*
X331119Y122155D01*
X331024Y122093D01*
X330927Y122035D01*
X330828Y121980D01*
X330727Y121929D01*
X330624Y121881D01*
X330520Y121836D01*
X330414Y121796D01*
X330307Y121759D01*
X330199Y121726D01*
X330089Y121696D01*
X329979Y121671D01*
X329868Y121649D01*
X329756Y121632D01*
X329643Y121618D01*
X329530Y121608D01*
X329417Y121602D01*
X329304Y121600D01*
X329304Y121601D02*
X326058Y121601D01*
X329953Y121601D02*
X332549Y116408D01*
X337414Y116408D02*
X340660Y116408D01*
X340773Y116410D01*
X340886Y116416D01*
X340999Y116426D01*
X341112Y116440D01*
X341224Y116457D01*
X341335Y116479D01*
X341445Y116504D01*
X341555Y116534D01*
X341663Y116567D01*
X341770Y116604D01*
X341876Y116644D01*
X341980Y116689D01*
X342083Y116737D01*
X342184Y116788D01*
X342283Y116843D01*
X342380Y116901D01*
X342475Y116963D01*
X342568Y117028D01*
X342658Y117096D01*
X342746Y117167D01*
X342832Y117242D01*
X342915Y117319D01*
X342995Y117399D01*
X343072Y117482D01*
X343147Y117568D01*
X343218Y117656D01*
X343286Y117746D01*
X343351Y117839D01*
X343413Y117934D01*
X343471Y118031D01*
X343526Y118130D01*
X343577Y118231D01*
X343625Y118334D01*
X343670Y118438D01*
X343710Y118544D01*
X343747Y118651D01*
X343780Y118759D01*
X343810Y118869D01*
X343835Y118979D01*
X343857Y119090D01*
X343874Y119202D01*
X343888Y119315D01*
X343898Y119428D01*
X343904Y119541D01*
X343906Y119654D01*
X343904Y119767D01*
X343898Y119880D01*
X343888Y119993D01*
X343874Y120106D01*
X343857Y120218D01*
X343835Y120329D01*
X343810Y120439D01*
X343780Y120549D01*
X343747Y120657D01*
X343710Y120764D01*
X343670Y120870D01*
X343625Y120974D01*
X343577Y121077D01*
X343526Y121178D01*
X343471Y121277D01*
X343413Y121374D01*
X343351Y121469D01*
X343286Y121562D01*
X343218Y121652D01*
X343147Y121740D01*
X343072Y121826D01*
X342995Y121909D01*
X342915Y121989D01*
X342832Y122066D01*
X342746Y122141D01*
X342658Y122212D01*
X342568Y122280D01*
X342475Y122345D01*
X342380Y122407D01*
X342283Y122465D01*
X342184Y122520D01*
X342083Y122571D01*
X341980Y122619D01*
X341876Y122664D01*
X341770Y122704D01*
X341663Y122741D01*
X341555Y122774D01*
X341445Y122804D01*
X341335Y122829D01*
X341224Y122851D01*
X341112Y122868D01*
X340999Y122882D01*
X340886Y122892D01*
X340773Y122898D01*
X340660Y122900D01*
X341309Y128092D02*
X337414Y128092D01*
X341309Y128092D02*
X341410Y128090D01*
X341510Y128084D01*
X341610Y128074D01*
X341710Y128061D01*
X341809Y128043D01*
X341908Y128022D01*
X342005Y127997D01*
X342102Y127968D01*
X342197Y127935D01*
X342291Y127899D01*
X342383Y127859D01*
X342474Y127816D01*
X342563Y127769D01*
X342650Y127719D01*
X342736Y127665D01*
X342819Y127608D01*
X342899Y127548D01*
X342978Y127485D01*
X343054Y127418D01*
X343127Y127349D01*
X343197Y127277D01*
X343265Y127203D01*
X343330Y127126D01*
X343391Y127046D01*
X343450Y126964D01*
X343505Y126880D01*
X343557Y126794D01*
X343606Y126706D01*
X343651Y126616D01*
X343693Y126524D01*
X343731Y126431D01*
X343765Y126336D01*
X343796Y126241D01*
X343823Y126144D01*
X343846Y126046D01*
X343866Y125947D01*
X343881Y125847D01*
X343893Y125747D01*
X343901Y125647D01*
X343905Y125546D01*
X343905Y125446D01*
X343901Y125345D01*
X343893Y125245D01*
X343881Y125145D01*
X343866Y125045D01*
X343846Y124946D01*
X343823Y124848D01*
X343796Y124751D01*
X343765Y124656D01*
X343731Y124561D01*
X343693Y124468D01*
X343651Y124376D01*
X343606Y124286D01*
X343557Y124198D01*
X343505Y124112D01*
X343450Y124028D01*
X343391Y123946D01*
X343330Y123866D01*
X343265Y123789D01*
X343197Y123715D01*
X343127Y123643D01*
X343054Y123574D01*
X342978Y123507D01*
X342899Y123444D01*
X342819Y123384D01*
X342736Y123327D01*
X342650Y123273D01*
X342563Y123223D01*
X342474Y123176D01*
X342383Y123133D01*
X342291Y123093D01*
X342197Y123057D01*
X342102Y123024D01*
X342005Y122995D01*
X341908Y122970D01*
X341809Y122949D01*
X341710Y122931D01*
X341610Y122918D01*
X341510Y122908D01*
X341410Y122902D01*
X341309Y122900D01*
X341309Y122899D02*
X338713Y122899D01*
D13*
X14400Y244170D02*
X14400Y292430D01*
X14402Y292588D01*
X14408Y292747D01*
X14418Y292905D01*
X14432Y293062D01*
X14449Y293220D01*
X14471Y293376D01*
X14496Y293533D01*
X14526Y293688D01*
X14559Y293843D01*
X14596Y293997D01*
X14637Y294150D01*
X14682Y294302D01*
X14731Y294452D01*
X14783Y294602D01*
X14839Y294750D01*
X14899Y294897D01*
X14962Y295042D01*
X15029Y295185D01*
X15099Y295327D01*
X15173Y295467D01*
X15251Y295605D01*
X15332Y295741D01*
X15416Y295875D01*
X15503Y296007D01*
X15594Y296137D01*
X15688Y296264D01*
X15785Y296389D01*
X15886Y296512D01*
X15989Y296632D01*
X16095Y296749D01*
X16204Y296864D01*
X16316Y296976D01*
X16431Y297085D01*
X16548Y297191D01*
X16668Y297294D01*
X16791Y297395D01*
X16916Y297492D01*
X17043Y297586D01*
X17173Y297677D01*
X17305Y297764D01*
X17439Y297848D01*
X17575Y297929D01*
X17713Y298007D01*
X17853Y298081D01*
X17995Y298151D01*
X18138Y298218D01*
X18283Y298281D01*
X18430Y298341D01*
X18578Y298397D01*
X18728Y298449D01*
X18878Y298498D01*
X19030Y298543D01*
X19183Y298584D01*
X19337Y298621D01*
X19492Y298654D01*
X19647Y298684D01*
X19804Y298709D01*
X19960Y298731D01*
X20118Y298748D01*
X20275Y298762D01*
X20433Y298772D01*
X20592Y298778D01*
X20750Y298780D01*
X14400Y244170D02*
X14402Y244012D01*
X14408Y243853D01*
X14418Y243695D01*
X14432Y243538D01*
X14449Y243380D01*
X14471Y243224D01*
X14496Y243067D01*
X14526Y242912D01*
X14559Y242757D01*
X14596Y242603D01*
X14637Y242450D01*
X14682Y242298D01*
X14731Y242148D01*
X14783Y241998D01*
X14839Y241850D01*
X14899Y241703D01*
X14962Y241558D01*
X15029Y241415D01*
X15099Y241273D01*
X15173Y241133D01*
X15251Y240995D01*
X15332Y240859D01*
X15416Y240725D01*
X15503Y240593D01*
X15594Y240463D01*
X15688Y240336D01*
X15785Y240211D01*
X15886Y240088D01*
X15989Y239968D01*
X16095Y239851D01*
X16204Y239736D01*
X16316Y239624D01*
X16431Y239515D01*
X16548Y239409D01*
X16668Y239306D01*
X16791Y239205D01*
X16916Y239108D01*
X17043Y239014D01*
X17173Y238923D01*
X17305Y238836D01*
X17439Y238752D01*
X17575Y238671D01*
X17713Y238593D01*
X17853Y238519D01*
X17995Y238449D01*
X18138Y238382D01*
X18283Y238319D01*
X18430Y238259D01*
X18578Y238203D01*
X18728Y238151D01*
X18878Y238102D01*
X19030Y238057D01*
X19183Y238016D01*
X19337Y237979D01*
X19492Y237946D01*
X19647Y237916D01*
X19804Y237891D01*
X19960Y237869D01*
X20118Y237852D01*
X20275Y237838D01*
X20433Y237828D01*
X20592Y237822D01*
X20750Y237820D01*
X20750Y298780D02*
X516050Y298780D01*
X522400Y292430D02*
X522400Y244170D01*
X516050Y237820D02*
X20750Y237820D01*
X516050Y298780D02*
X516208Y298778D01*
X516367Y298772D01*
X516525Y298762D01*
X516682Y298748D01*
X516840Y298731D01*
X516996Y298709D01*
X517153Y298684D01*
X517308Y298654D01*
X517463Y298621D01*
X517617Y298584D01*
X517770Y298543D01*
X517922Y298498D01*
X518072Y298449D01*
X518222Y298397D01*
X518370Y298341D01*
X518517Y298281D01*
X518662Y298218D01*
X518805Y298151D01*
X518947Y298081D01*
X519087Y298007D01*
X519225Y297929D01*
X519361Y297848D01*
X519495Y297764D01*
X519627Y297677D01*
X519757Y297586D01*
X519884Y297492D01*
X520009Y297395D01*
X520132Y297294D01*
X520252Y297191D01*
X520369Y297085D01*
X520484Y296976D01*
X520596Y296864D01*
X520705Y296749D01*
X520811Y296632D01*
X520914Y296512D01*
X521015Y296389D01*
X521112Y296264D01*
X521206Y296137D01*
X521297Y296007D01*
X521384Y295875D01*
X521468Y295741D01*
X521549Y295605D01*
X521627Y295467D01*
X521701Y295327D01*
X521771Y295185D01*
X521838Y295042D01*
X521901Y294897D01*
X521961Y294750D01*
X522017Y294602D01*
X522069Y294452D01*
X522118Y294302D01*
X522163Y294150D01*
X522204Y293997D01*
X522241Y293843D01*
X522274Y293688D01*
X522304Y293533D01*
X522329Y293376D01*
X522351Y293220D01*
X522368Y293062D01*
X522382Y292905D01*
X522392Y292747D01*
X522398Y292588D01*
X522400Y292430D01*
X522400Y244170D02*
X522398Y244012D01*
X522392Y243853D01*
X522382Y243695D01*
X522368Y243538D01*
X522351Y243380D01*
X522329Y243224D01*
X522304Y243067D01*
X522274Y242912D01*
X522241Y242757D01*
X522204Y242603D01*
X522163Y242450D01*
X522118Y242298D01*
X522069Y242148D01*
X522017Y241998D01*
X521961Y241850D01*
X521901Y241703D01*
X521838Y241558D01*
X521771Y241415D01*
X521701Y241273D01*
X521627Y241133D01*
X521549Y240995D01*
X521468Y240859D01*
X521384Y240725D01*
X521297Y240593D01*
X521206Y240463D01*
X521112Y240336D01*
X521015Y240211D01*
X520914Y240088D01*
X520811Y239968D01*
X520705Y239851D01*
X520596Y239736D01*
X520484Y239624D01*
X520369Y239515D01*
X520252Y239409D01*
X520132Y239306D01*
X520009Y239205D01*
X519884Y239108D01*
X519757Y239014D01*
X519627Y238923D01*
X519495Y238836D01*
X519361Y238752D01*
X519225Y238671D01*
X519087Y238593D01*
X518947Y238519D01*
X518805Y238449D01*
X518662Y238382D01*
X518517Y238319D01*
X518370Y238259D01*
X518222Y238203D01*
X518072Y238151D01*
X517922Y238102D01*
X517770Y238057D01*
X517617Y238016D01*
X517463Y237979D01*
X517308Y237946D01*
X517153Y237916D01*
X516996Y237891D01*
X516840Y237869D01*
X516682Y237852D01*
X516525Y237838D01*
X516367Y237828D01*
X516208Y237822D01*
X516050Y237820D01*
D14*
X72185Y305765D02*
X72183Y305665D01*
X72177Y305566D01*
X72167Y305466D01*
X72154Y305368D01*
X72136Y305269D01*
X72115Y305172D01*
X72090Y305076D01*
X72061Y304980D01*
X72028Y304886D01*
X71992Y304793D01*
X71952Y304702D01*
X71908Y304612D01*
X71861Y304524D01*
X71811Y304438D01*
X71757Y304354D01*
X71700Y304272D01*
X71640Y304193D01*
X71576Y304115D01*
X71510Y304041D01*
X71441Y303969D01*
X71369Y303900D01*
X71295Y303834D01*
X71217Y303770D01*
X71138Y303710D01*
X71056Y303653D01*
X70972Y303599D01*
X70886Y303549D01*
X70798Y303502D01*
X70708Y303458D01*
X70617Y303418D01*
X70524Y303382D01*
X70430Y303349D01*
X70334Y303320D01*
X70238Y303295D01*
X70141Y303274D01*
X70042Y303256D01*
X69944Y303243D01*
X69844Y303233D01*
X69745Y303227D01*
X69645Y303225D01*
X69504Y303227D01*
X69363Y303232D01*
X69222Y303242D01*
X69081Y303255D01*
X68941Y303271D01*
X68801Y303292D01*
X68662Y303316D01*
X68523Y303344D01*
X68386Y303375D01*
X68249Y303410D01*
X68113Y303448D01*
X67978Y303490D01*
X67845Y303536D01*
X67712Y303585D01*
X67581Y303638D01*
X67452Y303694D01*
X67323Y303753D01*
X67197Y303816D01*
X67072Y303882D01*
X66949Y303951D01*
X66828Y304024D01*
X66709Y304100D01*
X66591Y304179D01*
X66476Y304260D01*
X66364Y304345D01*
X66253Y304433D01*
X66145Y304524D01*
X66039Y304617D01*
X65936Y304714D01*
X65835Y304813D01*
X66153Y312115D02*
X66155Y312215D01*
X66161Y312314D01*
X66171Y312414D01*
X66184Y312512D01*
X66202Y312611D01*
X66223Y312708D01*
X66248Y312804D01*
X66277Y312900D01*
X66310Y312994D01*
X66346Y313087D01*
X66386Y313178D01*
X66430Y313268D01*
X66477Y313356D01*
X66527Y313442D01*
X66581Y313526D01*
X66638Y313608D01*
X66698Y313687D01*
X66762Y313765D01*
X66828Y313839D01*
X66897Y313911D01*
X66969Y313980D01*
X67043Y314046D01*
X67121Y314110D01*
X67200Y314170D01*
X67282Y314227D01*
X67366Y314281D01*
X67452Y314331D01*
X67540Y314378D01*
X67630Y314422D01*
X67721Y314462D01*
X67814Y314498D01*
X67908Y314531D01*
X68004Y314560D01*
X68100Y314585D01*
X68197Y314606D01*
X68296Y314624D01*
X68394Y314637D01*
X68494Y314647D01*
X68593Y314653D01*
X68693Y314655D01*
X68693Y314656D02*
X68826Y314654D01*
X68959Y314649D01*
X69092Y314639D01*
X69225Y314626D01*
X69357Y314609D01*
X69489Y314589D01*
X69620Y314565D01*
X69750Y314537D01*
X69880Y314506D01*
X70008Y314471D01*
X70136Y314432D01*
X70262Y314390D01*
X70387Y314344D01*
X70511Y314295D01*
X70634Y314243D01*
X70755Y314187D01*
X70874Y314127D01*
X70992Y314065D01*
X71107Y313999D01*
X71221Y313930D01*
X71333Y313857D01*
X71443Y313782D01*
X71551Y313703D01*
X67422Y309892D02*
X67338Y309944D01*
X67255Y309999D01*
X67175Y310058D01*
X67097Y310119D01*
X67022Y310183D01*
X66949Y310251D01*
X66878Y310321D01*
X66811Y310393D01*
X66746Y310468D01*
X66684Y310546D01*
X66625Y310626D01*
X66569Y310708D01*
X66517Y310792D01*
X66468Y310878D01*
X66422Y310966D01*
X66379Y311056D01*
X66340Y311147D01*
X66305Y311240D01*
X66273Y311334D01*
X66245Y311429D01*
X66220Y311525D01*
X66200Y311622D01*
X66182Y311720D01*
X66169Y311818D01*
X66160Y311917D01*
X66154Y312016D01*
X66152Y312115D01*
X70915Y307988D02*
X70999Y307936D01*
X71082Y307881D01*
X71162Y307822D01*
X71240Y307761D01*
X71315Y307697D01*
X71388Y307629D01*
X71459Y307559D01*
X71526Y307487D01*
X71591Y307412D01*
X71653Y307334D01*
X71712Y307254D01*
X71768Y307172D01*
X71820Y307088D01*
X71869Y307002D01*
X71915Y306914D01*
X71958Y306824D01*
X71997Y306733D01*
X72032Y306640D01*
X72064Y306546D01*
X72092Y306451D01*
X72117Y306355D01*
X72137Y306258D01*
X72155Y306160D01*
X72168Y306062D01*
X72177Y305963D01*
X72183Y305864D01*
X72185Y305765D01*
X70915Y307988D02*
X67423Y309893D01*
X76249Y314655D02*
X80059Y303225D01*
X83869Y314655D01*
X88314Y312115D02*
X91489Y314655D01*
X91489Y303225D01*
X88314Y303225D02*
X94664Y303225D01*
X27100Y314655D02*
X23925Y312115D01*
X27100Y314655D02*
X27100Y303225D01*
X23925Y303225D02*
X30275Y303225D01*
X501445Y224485D02*
X503985Y233375D01*
X501445Y224485D02*
X507795Y224485D01*
X505890Y227025D02*
X505890Y221945D01*
X512875Y227660D02*
X512878Y227885D01*
X512886Y228110D01*
X512899Y228334D01*
X512918Y228558D01*
X512942Y228782D01*
X512971Y229005D01*
X513006Y229227D01*
X513046Y229448D01*
X513092Y229668D01*
X513142Y229887D01*
X513198Y230105D01*
X513259Y230322D01*
X513325Y230537D01*
X513396Y230750D01*
X513473Y230961D01*
X513554Y231171D01*
X513640Y231379D01*
X513731Y231584D01*
X513827Y231787D01*
X513827Y231788D02*
X513859Y231876D01*
X513895Y231963D01*
X513934Y232049D01*
X513977Y232133D01*
X514023Y232215D01*
X514072Y232295D01*
X514124Y232373D01*
X514180Y232449D01*
X514238Y232523D01*
X514300Y232594D01*
X514364Y232663D01*
X514431Y232729D01*
X514500Y232792D01*
X514572Y232853D01*
X514646Y232911D01*
X514723Y232965D01*
X514801Y233017D01*
X514882Y233065D01*
X514964Y233110D01*
X515049Y233152D01*
X515135Y233190D01*
X515222Y233225D01*
X515310Y233257D01*
X515400Y233284D01*
X515491Y233309D01*
X515583Y233329D01*
X515675Y233346D01*
X515769Y233359D01*
X515862Y233368D01*
X515956Y233374D01*
X516050Y233376D01*
X516144Y233374D01*
X516238Y233368D01*
X516331Y233359D01*
X516425Y233346D01*
X516517Y233329D01*
X516609Y233309D01*
X516700Y233284D01*
X516790Y233257D01*
X516878Y233225D01*
X516965Y233190D01*
X517051Y233152D01*
X517136Y233110D01*
X517218Y233065D01*
X517299Y233017D01*
X517377Y232965D01*
X517454Y232911D01*
X517528Y232853D01*
X517600Y232792D01*
X517669Y232729D01*
X517736Y232663D01*
X517800Y232594D01*
X517862Y232523D01*
X517920Y232449D01*
X517976Y232373D01*
X518028Y232295D01*
X518077Y232215D01*
X518123Y232133D01*
X518166Y232049D01*
X518205Y231963D01*
X518241Y231876D01*
X518273Y231788D01*
X518273Y231787D02*
X518369Y231584D01*
X518460Y231379D01*
X518546Y231171D01*
X518627Y230961D01*
X518704Y230750D01*
X518775Y230537D01*
X518841Y230322D01*
X518902Y230105D01*
X518958Y229887D01*
X519008Y229668D01*
X519054Y229448D01*
X519094Y229227D01*
X519129Y229005D01*
X519158Y228782D01*
X519182Y228558D01*
X519201Y228334D01*
X519214Y228110D01*
X519222Y227885D01*
X519225Y227660D01*
X512875Y227660D02*
X512878Y227435D01*
X512886Y227210D01*
X512899Y226986D01*
X512918Y226762D01*
X512942Y226538D01*
X512971Y226315D01*
X513006Y226093D01*
X513046Y225872D01*
X513092Y225652D01*
X513142Y225433D01*
X513198Y225215D01*
X513259Y224998D01*
X513325Y224783D01*
X513396Y224570D01*
X513473Y224359D01*
X513554Y224149D01*
X513640Y223941D01*
X513731Y223736D01*
X513827Y223533D01*
X513859Y223445D01*
X513895Y223358D01*
X513934Y223272D01*
X513977Y223188D01*
X514023Y223106D01*
X514072Y223026D01*
X514124Y222948D01*
X514180Y222872D01*
X514238Y222798D01*
X514300Y222727D01*
X514364Y222658D01*
X514431Y222592D01*
X514500Y222529D01*
X514572Y222468D01*
X514646Y222410D01*
X514723Y222356D01*
X514801Y222304D01*
X514882Y222256D01*
X514964Y222211D01*
X515049Y222169D01*
X515135Y222131D01*
X515222Y222096D01*
X515310Y222064D01*
X515400Y222037D01*
X515491Y222012D01*
X515583Y221992D01*
X515675Y221975D01*
X515769Y221962D01*
X515862Y221953D01*
X515956Y221947D01*
X516050Y221945D01*
X518273Y223533D02*
X518369Y223736D01*
X518460Y223941D01*
X518546Y224149D01*
X518627Y224359D01*
X518704Y224570D01*
X518775Y224783D01*
X518841Y224998D01*
X518902Y225215D01*
X518958Y225433D01*
X519008Y225652D01*
X519054Y225872D01*
X519094Y226093D01*
X519129Y226315D01*
X519158Y226538D01*
X519182Y226762D01*
X519201Y226986D01*
X519214Y227210D01*
X519222Y227435D01*
X519225Y227660D01*
X518273Y223533D02*
X518241Y223445D01*
X518205Y223358D01*
X518166Y223272D01*
X518123Y223188D01*
X518077Y223106D01*
X518028Y223026D01*
X517976Y222948D01*
X517920Y222872D01*
X517862Y222798D01*
X517800Y222727D01*
X517736Y222658D01*
X517669Y222592D01*
X517600Y222529D01*
X517528Y222468D01*
X517454Y222410D01*
X517377Y222356D01*
X517299Y222304D01*
X517218Y222256D01*
X517136Y222211D01*
X517051Y222169D01*
X516965Y222131D01*
X516878Y222096D01*
X516790Y222064D01*
X516700Y222037D01*
X516609Y222012D01*
X516517Y221992D01*
X516425Y221975D01*
X516331Y221962D01*
X516238Y221953D01*
X516144Y221947D01*
X516050Y221945D01*
X513510Y224485D02*
X518590Y230835D01*
D13*
X261288Y166954D02*
X261288Y143840D01*
X173912Y158572D02*
X173912Y166954D01*
X173912Y158572D02*
X173912Y152476D01*
X173912Y143840D01*
D10*
X173912Y152476D02*
X174021Y152478D01*
X174129Y152484D01*
X174238Y152493D01*
X174346Y152507D01*
X174453Y152524D01*
X174560Y152546D01*
X174666Y152571D01*
X174771Y152599D01*
X174875Y152632D01*
X174977Y152668D01*
X175078Y152708D01*
X175178Y152751D01*
X175276Y152798D01*
X175373Y152849D01*
X175467Y152903D01*
X175560Y152960D01*
X175650Y153020D01*
X175739Y153084D01*
X175825Y153151D01*
X175908Y153220D01*
X175989Y153293D01*
X176067Y153369D01*
X176143Y153447D01*
X176216Y153528D01*
X176285Y153611D01*
X176352Y153697D01*
X176416Y153786D01*
X176476Y153876D01*
X176533Y153969D01*
X176587Y154063D01*
X176638Y154160D01*
X176685Y154258D01*
X176728Y154358D01*
X176768Y154459D01*
X176804Y154561D01*
X176837Y154665D01*
X176865Y154770D01*
X176890Y154876D01*
X176912Y154983D01*
X176929Y155090D01*
X176943Y155198D01*
X176952Y155307D01*
X176958Y155415D01*
X176960Y155524D01*
X176958Y155633D01*
X176952Y155741D01*
X176943Y155850D01*
X176929Y155958D01*
X176912Y156065D01*
X176890Y156172D01*
X176865Y156278D01*
X176837Y156383D01*
X176804Y156487D01*
X176768Y156589D01*
X176728Y156690D01*
X176685Y156790D01*
X176638Y156888D01*
X176587Y156985D01*
X176533Y157079D01*
X176476Y157172D01*
X176416Y157262D01*
X176352Y157351D01*
X176285Y157437D01*
X176216Y157520D01*
X176143Y157601D01*
X176067Y157679D01*
X175989Y157755D01*
X175908Y157828D01*
X175825Y157897D01*
X175739Y157964D01*
X175650Y158028D01*
X175560Y158088D01*
X175467Y158145D01*
X175373Y158199D01*
X175276Y158250D01*
X175178Y158297D01*
X175078Y158340D01*
X174977Y158380D01*
X174875Y158416D01*
X174771Y158449D01*
X174666Y158477D01*
X174560Y158502D01*
X174453Y158524D01*
X174346Y158541D01*
X174238Y158555D01*
X174129Y158564D01*
X174021Y158570D01*
X173912Y158572D01*
D15*
X159933Y110477D02*
X146339Y110477D01*
X159933Y110476D02*
X160076Y110478D01*
X160219Y110484D01*
X160361Y110494D01*
X160503Y110507D01*
X160645Y110525D01*
X160786Y110546D01*
X160927Y110571D01*
X161067Y110600D01*
X161206Y110633D01*
X161344Y110670D01*
X161481Y110710D01*
X161617Y110754D01*
X161751Y110802D01*
X161884Y110854D01*
X162016Y110909D01*
X162146Y110968D01*
X162275Y111030D01*
X162402Y111096D01*
X162527Y111165D01*
X162650Y111237D01*
X162771Y111313D01*
X162890Y111392D01*
X163007Y111475D01*
X163121Y111560D01*
X163233Y111649D01*
X163343Y111740D01*
X163450Y111835D01*
X163554Y111933D01*
X163656Y112033D01*
X163755Y112136D01*
X163851Y112242D01*
X163944Y112350D01*
X164034Y112461D01*
X164121Y112574D01*
X164205Y112690D01*
X164286Y112807D01*
X164363Y112927D01*
X164437Y113049D01*
X164508Y113173D01*
X164576Y113299D01*
X164640Y113427D01*
X164700Y113556D01*
X164757Y113687D01*
X164810Y113820D01*
X164860Y113954D01*
X164906Y114089D01*
X164948Y114226D01*
X164987Y114363D01*
X165022Y114502D01*
X165053Y114641D01*
X165080Y114781D01*
X165103Y114922D01*
X165123Y115064D01*
X165138Y115206D01*
X165150Y115348D01*
X165158Y115491D01*
X165162Y115634D01*
X165162Y115776D01*
X165158Y115919D01*
X165150Y116062D01*
X165138Y116204D01*
X165123Y116346D01*
X165103Y116488D01*
X165080Y116629D01*
X165053Y116769D01*
X165022Y116908D01*
X164987Y117047D01*
X164948Y117184D01*
X164906Y117321D01*
X164860Y117456D01*
X164810Y117590D01*
X164757Y117723D01*
X164700Y117854D01*
X164640Y117983D01*
X164576Y118111D01*
X164508Y118237D01*
X164437Y118361D01*
X164363Y118483D01*
X164286Y118603D01*
X164205Y118720D01*
X164121Y118836D01*
X164034Y118949D01*
X163944Y119060D01*
X163851Y119168D01*
X163755Y119274D01*
X163656Y119377D01*
X163554Y119477D01*
X163450Y119575D01*
X163343Y119670D01*
X163233Y119761D01*
X163121Y119850D01*
X163007Y119935D01*
X162890Y120018D01*
X162771Y120097D01*
X162650Y120173D01*
X162527Y120245D01*
X162402Y120314D01*
X162275Y120380D01*
X162146Y120442D01*
X162016Y120501D01*
X161884Y120556D01*
X161751Y120608D01*
X161617Y120656D01*
X161481Y120700D01*
X161344Y120740D01*
X161206Y120777D01*
X161067Y120810D01*
X160927Y120839D01*
X160786Y120864D01*
X160645Y120885D01*
X160503Y120903D01*
X160361Y120916D01*
X160219Y120926D01*
X160076Y120932D01*
X159933Y120934D01*
X146339Y120934D01*
X165161Y128925D02*
X165161Y134154D01*
X165162Y134154D02*
X165160Y134297D01*
X165154Y134440D01*
X165144Y134582D01*
X165131Y134724D01*
X165113Y134866D01*
X165092Y135007D01*
X165067Y135148D01*
X165038Y135288D01*
X165005Y135427D01*
X164968Y135565D01*
X164928Y135702D01*
X164884Y135838D01*
X164836Y135972D01*
X164784Y136105D01*
X164729Y136237D01*
X164670Y136367D01*
X164608Y136496D01*
X164542Y136623D01*
X164473Y136748D01*
X164401Y136871D01*
X164325Y136992D01*
X164246Y137111D01*
X164163Y137228D01*
X164078Y137342D01*
X163989Y137454D01*
X163898Y137564D01*
X163803Y137671D01*
X163705Y137775D01*
X163605Y137877D01*
X163502Y137976D01*
X163396Y138072D01*
X163288Y138165D01*
X163177Y138255D01*
X163064Y138342D01*
X162948Y138426D01*
X162831Y138507D01*
X162711Y138584D01*
X162589Y138658D01*
X162465Y138729D01*
X162339Y138797D01*
X162211Y138861D01*
X162082Y138921D01*
X161951Y138978D01*
X161818Y139031D01*
X161684Y139081D01*
X161549Y139127D01*
X161412Y139169D01*
X161275Y139208D01*
X161136Y139243D01*
X160997Y139274D01*
X160857Y139301D01*
X160716Y139324D01*
X160574Y139344D01*
X160432Y139359D01*
X160290Y139371D01*
X160147Y139379D01*
X160004Y139383D01*
X159862Y139383D01*
X159719Y139379D01*
X159576Y139371D01*
X159434Y139359D01*
X159292Y139344D01*
X159150Y139324D01*
X159009Y139301D01*
X158869Y139274D01*
X158730Y139243D01*
X158591Y139208D01*
X158454Y139169D01*
X158317Y139127D01*
X158182Y139081D01*
X158048Y139031D01*
X157915Y138978D01*
X157784Y138921D01*
X157655Y138861D01*
X157527Y138797D01*
X157401Y138729D01*
X157277Y138658D01*
X157155Y138584D01*
X157035Y138507D01*
X156918Y138426D01*
X156802Y138342D01*
X156689Y138255D01*
X156578Y138165D01*
X156470Y138072D01*
X156364Y137976D01*
X156261Y137877D01*
X156161Y137775D01*
X156063Y137671D01*
X155968Y137564D01*
X155877Y137454D01*
X155788Y137342D01*
X155703Y137228D01*
X155620Y137111D01*
X155541Y136992D01*
X155465Y136871D01*
X155393Y136748D01*
X155324Y136623D01*
X155258Y136496D01*
X155196Y136367D01*
X155137Y136237D01*
X155082Y136105D01*
X155030Y135972D01*
X154982Y135838D01*
X154938Y135702D01*
X154898Y135565D01*
X154861Y135427D01*
X154828Y135288D01*
X154799Y135148D01*
X154774Y135007D01*
X154753Y134866D01*
X154735Y134724D01*
X154722Y134582D01*
X154712Y134440D01*
X154706Y134297D01*
X154704Y134154D01*
X146339Y135199D02*
X146339Y128925D01*
X146339Y135199D02*
X146341Y135327D01*
X146347Y135454D01*
X146356Y135581D01*
X146370Y135708D01*
X146388Y135834D01*
X146409Y135960D01*
X146434Y136085D01*
X146463Y136210D01*
X146496Y136333D01*
X146532Y136455D01*
X146572Y136576D01*
X146616Y136696D01*
X146664Y136814D01*
X146715Y136931D01*
X146769Y137047D01*
X146827Y137160D01*
X146889Y137272D01*
X146954Y137382D01*
X147022Y137490D01*
X147093Y137595D01*
X147168Y137699D01*
X147246Y137800D01*
X147327Y137899D01*
X147411Y137995D01*
X147497Y138088D01*
X147587Y138179D01*
X147679Y138267D01*
X147774Y138353D01*
X147871Y138435D01*
X147971Y138514D01*
X148074Y138591D01*
X148178Y138664D01*
X148285Y138734D01*
X148394Y138800D01*
X148505Y138863D01*
X148617Y138923D01*
X148732Y138980D01*
X148848Y139032D01*
X148966Y139082D01*
X149085Y139127D01*
X149205Y139169D01*
X149327Y139208D01*
X149450Y139242D01*
X149573Y139273D01*
X149698Y139300D01*
X149824Y139323D01*
X149950Y139343D01*
X150076Y139358D01*
X150203Y139370D01*
X150331Y139378D01*
X150458Y139382D01*
X150586Y139382D01*
X150713Y139378D01*
X150841Y139370D01*
X150968Y139358D01*
X151094Y139343D01*
X151220Y139323D01*
X151346Y139300D01*
X151471Y139273D01*
X151594Y139242D01*
X151717Y139208D01*
X151839Y139169D01*
X151959Y139127D01*
X152078Y139082D01*
X152196Y139032D01*
X152312Y138980D01*
X152427Y138923D01*
X152539Y138863D01*
X152650Y138800D01*
X152759Y138734D01*
X152866Y138664D01*
X152970Y138591D01*
X153073Y138514D01*
X153173Y138435D01*
X153270Y138353D01*
X153365Y138267D01*
X153457Y138179D01*
X153547Y138088D01*
X153633Y137995D01*
X153717Y137899D01*
X153798Y137800D01*
X153876Y137699D01*
X153951Y137595D01*
X154022Y137490D01*
X154090Y137382D01*
X154155Y137272D01*
X154217Y137160D01*
X154275Y137047D01*
X154329Y136931D01*
X154380Y136814D01*
X154428Y136696D01*
X154472Y136576D01*
X154512Y136455D01*
X154548Y136333D01*
X154581Y136210D01*
X154610Y136085D01*
X154635Y135960D01*
X154656Y135834D01*
X154674Y135708D01*
X154688Y135581D01*
X154697Y135454D01*
X154703Y135327D01*
X154705Y135199D01*
X154704Y135199D02*
X154704Y131016D01*
X-22650Y206350D02*
X-22650Y50850D01*
X-22650Y206350D02*
X127210Y206350D01*
X127210Y50850D02*
X-22650Y50850D01*
X127210Y50850D02*
X127210Y206350D01*
D12*
X135736Y193619D02*
X147441Y185816D01*
X147441Y193619D02*
X135736Y185816D01*
X138337Y197915D02*
X135736Y201166D01*
X147441Y201166D01*
X147441Y197915D02*
X147441Y204417D01*
D15*
X-8460Y209880D02*
X-13540Y207340D01*
X-8460Y209880D02*
X-7336Y210579D01*
X-6195Y211250D01*
X-5038Y211894D01*
X-3865Y212509D01*
X-2678Y213095D01*
X-1477Y213652D01*
X-263Y214180D01*
X964Y214677D01*
X2202Y215145D01*
X3452Y215583D01*
X4712Y215989D01*
X5981Y216365D01*
X7259Y216710D01*
X8546Y217024D01*
X9839Y217306D01*
X11139Y217556D01*
X12445Y217775D01*
X13756Y217961D01*
X15070Y218116D01*
X16389Y218238D01*
X17709Y218329D01*
X19032Y218387D01*
X20356Y218413D01*
X21680Y218406D01*
X23003Y218367D01*
X24325Y218296D01*
X25645Y218193D01*
X26962Y218057D01*
X28275Y217890D01*
X29584Y217690D01*
X30887Y217459D01*
X32185Y217195D01*
X33475Y216901D01*
X34758Y216574D01*
X36033Y216217D01*
X37299Y215828D01*
X38555Y215409D01*
X39800Y214960D01*
X39799Y214960D02*
X39905Y214909D01*
X40013Y214862D01*
X40122Y214818D01*
X40233Y214778D01*
X40344Y214742D01*
X40457Y214709D01*
X40571Y214680D01*
X40686Y214655D01*
X40802Y214634D01*
X40918Y214616D01*
X41035Y214603D01*
X41152Y214593D01*
X41269Y214587D01*
X41387Y214585D01*
X41505Y214587D01*
X41622Y214593D01*
X41739Y214603D01*
X41856Y214616D01*
X41972Y214634D01*
X42088Y214655D01*
X42203Y214680D01*
X42317Y214709D01*
X42430Y214742D01*
X42541Y214778D01*
X42652Y214818D01*
X42761Y214862D01*
X42869Y214909D01*
X42975Y214960D01*
X43079Y215014D01*
X43181Y215072D01*
X43282Y215133D01*
X43380Y215197D01*
X43476Y215265D01*
X43570Y215336D01*
X43662Y215409D01*
X43751Y215486D01*
X43837Y215566D01*
X43921Y215649D01*
X44002Y215734D01*
X44080Y215822D01*
X44155Y215912D01*
X44227Y216005D01*
X44296Y216100D01*
X44362Y216198D01*
X44424Y216297D01*
X44483Y216399D01*
X44539Y216502D01*
X44592Y216608D01*
X44640Y216714D01*
X44686Y216823D01*
X44727Y216933D01*
X44765Y217044D01*
X44800Y217157D01*
X44830Y217270D01*
X44857Y217385D01*
X44880Y217500D01*
X-13540Y49860D02*
X-8460Y47320D01*
X-7336Y46621D01*
X-6195Y45950D01*
X-5038Y45306D01*
X-3865Y44691D01*
X-2678Y44105D01*
X-1477Y43548D01*
X-263Y43020D01*
X964Y42523D01*
X2202Y42055D01*
X3452Y41617D01*
X4712Y41211D01*
X5981Y40835D01*
X7259Y40490D01*
X8546Y40176D01*
X9839Y39894D01*
X11139Y39644D01*
X12445Y39425D01*
X13756Y39239D01*
X15070Y39084D01*
X16389Y38962D01*
X17709Y38871D01*
X19032Y38813D01*
X20356Y38787D01*
X21680Y38794D01*
X23003Y38833D01*
X24325Y38904D01*
X25645Y39007D01*
X26962Y39143D01*
X28275Y39310D01*
X29584Y39510D01*
X30887Y39741D01*
X32185Y40005D01*
X33475Y40299D01*
X34758Y40626D01*
X36033Y40983D01*
X37299Y41372D01*
X38555Y41791D01*
X39800Y42240D01*
X39799Y42240D02*
X39905Y42291D01*
X40013Y42338D01*
X40122Y42382D01*
X40233Y42422D01*
X40344Y42458D01*
X40457Y42491D01*
X40571Y42520D01*
X40686Y42545D01*
X40802Y42566D01*
X40918Y42584D01*
X41035Y42597D01*
X41152Y42607D01*
X41269Y42613D01*
X41387Y42615D01*
X41505Y42613D01*
X41622Y42607D01*
X41739Y42597D01*
X41856Y42584D01*
X41972Y42566D01*
X42088Y42545D01*
X42203Y42520D01*
X42317Y42491D01*
X42430Y42458D01*
X42541Y42422D01*
X42652Y42382D01*
X42761Y42338D01*
X42869Y42291D01*
X42975Y42240D01*
X43079Y42186D01*
X43181Y42128D01*
X43282Y42067D01*
X43380Y42003D01*
X43476Y41935D01*
X43570Y41864D01*
X43662Y41791D01*
X43751Y41714D01*
X43837Y41634D01*
X43921Y41551D01*
X44002Y41466D01*
X44080Y41378D01*
X44155Y41288D01*
X44227Y41195D01*
X44296Y41100D01*
X44362Y41002D01*
X44424Y40903D01*
X44483Y40801D01*
X44539Y40698D01*
X44592Y40592D01*
X44640Y40486D01*
X44686Y40377D01*
X44727Y40267D01*
X44765Y40156D01*
X44800Y40043D01*
X44830Y39930D01*
X44857Y39815D01*
X44880Y39700D01*
D10*
X10844Y65100D02*
X10849Y65499D01*
X10864Y65898D01*
X10888Y66296D01*
X10922Y66693D01*
X10966Y67090D01*
X11020Y67485D01*
X11083Y67879D01*
X11156Y68271D01*
X11239Y68662D01*
X11331Y69050D01*
X11433Y69436D01*
X11544Y69819D01*
X11664Y70199D01*
X11794Y70576D01*
X11933Y70950D01*
X12081Y71321D01*
X12239Y71688D01*
X12405Y72050D01*
X12580Y72409D01*
X12763Y72763D01*
X12956Y73113D01*
X13157Y73457D01*
X13366Y73797D01*
X13584Y74131D01*
X13809Y74460D01*
X14043Y74784D01*
X14285Y75101D01*
X14534Y75413D01*
X14791Y75718D01*
X15055Y76017D01*
X15327Y76309D01*
X15605Y76595D01*
X15891Y76873D01*
X16183Y77145D01*
X16482Y77409D01*
X16787Y77666D01*
X17099Y77915D01*
X17416Y78157D01*
X17740Y78391D01*
X18069Y78616D01*
X18403Y78834D01*
X18743Y79043D01*
X19087Y79244D01*
X19437Y79437D01*
X19791Y79620D01*
X20150Y79795D01*
X20512Y79961D01*
X20879Y80119D01*
X21250Y80267D01*
X21624Y80406D01*
X22001Y80536D01*
X22381Y80656D01*
X22764Y80767D01*
X23150Y80869D01*
X23538Y80961D01*
X23929Y81044D01*
X24321Y81117D01*
X24715Y81180D01*
X25110Y81234D01*
X25507Y81278D01*
X25904Y81312D01*
X26302Y81336D01*
X26701Y81351D01*
X27100Y81356D01*
X27499Y81351D01*
X27898Y81336D01*
X28296Y81312D01*
X28693Y81278D01*
X29090Y81234D01*
X29485Y81180D01*
X29879Y81117D01*
X30271Y81044D01*
X30662Y80961D01*
X31050Y80869D01*
X31436Y80767D01*
X31819Y80656D01*
X32199Y80536D01*
X32576Y80406D01*
X32950Y80267D01*
X33321Y80119D01*
X33688Y79961D01*
X34050Y79795D01*
X34409Y79620D01*
X34763Y79437D01*
X35113Y79244D01*
X35457Y79043D01*
X35797Y78834D01*
X36131Y78616D01*
X36460Y78391D01*
X36784Y78157D01*
X37101Y77915D01*
X37413Y77666D01*
X37718Y77409D01*
X38017Y77145D01*
X38309Y76873D01*
X38595Y76595D01*
X38873Y76309D01*
X39145Y76017D01*
X39409Y75718D01*
X39666Y75413D01*
X39915Y75101D01*
X40157Y74784D01*
X40391Y74460D01*
X40616Y74131D01*
X40834Y73797D01*
X41043Y73457D01*
X41244Y73113D01*
X41437Y72763D01*
X41620Y72409D01*
X41795Y72050D01*
X41961Y71688D01*
X42119Y71321D01*
X42267Y70950D01*
X42406Y70576D01*
X42536Y70199D01*
X42656Y69819D01*
X42767Y69436D01*
X42869Y69050D01*
X42961Y68662D01*
X43044Y68271D01*
X43117Y67879D01*
X43180Y67485D01*
X43234Y67090D01*
X43278Y66693D01*
X43312Y66296D01*
X43336Y65898D01*
X43351Y65499D01*
X43356Y65100D01*
X43351Y64701D01*
X43336Y64302D01*
X43312Y63904D01*
X43278Y63507D01*
X43234Y63110D01*
X43180Y62715D01*
X43117Y62321D01*
X43044Y61929D01*
X42961Y61538D01*
X42869Y61150D01*
X42767Y60764D01*
X42656Y60381D01*
X42536Y60001D01*
X42406Y59624D01*
X42267Y59250D01*
X42119Y58879D01*
X41961Y58512D01*
X41795Y58150D01*
X41620Y57791D01*
X41437Y57437D01*
X41244Y57087D01*
X41043Y56743D01*
X40834Y56403D01*
X40616Y56069D01*
X40391Y55740D01*
X40157Y55416D01*
X39915Y55099D01*
X39666Y54787D01*
X39409Y54482D01*
X39145Y54183D01*
X38873Y53891D01*
X38595Y53605D01*
X38309Y53327D01*
X38017Y53055D01*
X37718Y52791D01*
X37413Y52534D01*
X37101Y52285D01*
X36784Y52043D01*
X36460Y51809D01*
X36131Y51584D01*
X35797Y51366D01*
X35457Y51157D01*
X35113Y50956D01*
X34763Y50763D01*
X34409Y50580D01*
X34050Y50405D01*
X33688Y50239D01*
X33321Y50081D01*
X32950Y49933D01*
X32576Y49794D01*
X32199Y49664D01*
X31819Y49544D01*
X31436Y49433D01*
X31050Y49331D01*
X30662Y49239D01*
X30271Y49156D01*
X29879Y49083D01*
X29485Y49020D01*
X29090Y48966D01*
X28693Y48922D01*
X28296Y48888D01*
X27898Y48864D01*
X27499Y48849D01*
X27100Y48844D01*
X26701Y48849D01*
X26302Y48864D01*
X25904Y48888D01*
X25507Y48922D01*
X25110Y48966D01*
X24715Y49020D01*
X24321Y49083D01*
X23929Y49156D01*
X23538Y49239D01*
X23150Y49331D01*
X22764Y49433D01*
X22381Y49544D01*
X22001Y49664D01*
X21624Y49794D01*
X21250Y49933D01*
X20879Y50081D01*
X20512Y50239D01*
X20150Y50405D01*
X19791Y50580D01*
X19437Y50763D01*
X19087Y50956D01*
X18743Y51157D01*
X18403Y51366D01*
X18069Y51584D01*
X17740Y51809D01*
X17416Y52043D01*
X17099Y52285D01*
X16787Y52534D01*
X16482Y52791D01*
X16183Y53055D01*
X15891Y53327D01*
X15605Y53605D01*
X15327Y53891D01*
X15055Y54183D01*
X14791Y54482D01*
X14534Y54787D01*
X14285Y55099D01*
X14043Y55416D01*
X13809Y55740D01*
X13584Y56069D01*
X13366Y56403D01*
X13157Y56743D01*
X12956Y57087D01*
X12763Y57437D01*
X12580Y57791D01*
X12405Y58150D01*
X12239Y58512D01*
X12081Y58879D01*
X11933Y59250D01*
X11794Y59624D01*
X11664Y60001D01*
X11544Y60381D01*
X11433Y60764D01*
X11331Y61150D01*
X11239Y61538D01*
X11156Y61929D01*
X11083Y62321D01*
X11020Y62715D01*
X10966Y63110D01*
X10922Y63507D01*
X10888Y63904D01*
X10864Y64302D01*
X10849Y64701D01*
X10844Y65100D01*
X10844Y192100D02*
X10849Y192499D01*
X10864Y192898D01*
X10888Y193296D01*
X10922Y193693D01*
X10966Y194090D01*
X11020Y194485D01*
X11083Y194879D01*
X11156Y195271D01*
X11239Y195662D01*
X11331Y196050D01*
X11433Y196436D01*
X11544Y196819D01*
X11664Y197199D01*
X11794Y197576D01*
X11933Y197950D01*
X12081Y198321D01*
X12239Y198688D01*
X12405Y199050D01*
X12580Y199409D01*
X12763Y199763D01*
X12956Y200113D01*
X13157Y200457D01*
X13366Y200797D01*
X13584Y201131D01*
X13809Y201460D01*
X14043Y201784D01*
X14285Y202101D01*
X14534Y202413D01*
X14791Y202718D01*
X15055Y203017D01*
X15327Y203309D01*
X15605Y203595D01*
X15891Y203873D01*
X16183Y204145D01*
X16482Y204409D01*
X16787Y204666D01*
X17099Y204915D01*
X17416Y205157D01*
X17740Y205391D01*
X18069Y205616D01*
X18403Y205834D01*
X18743Y206043D01*
X19087Y206244D01*
X19437Y206437D01*
X19791Y206620D01*
X20150Y206795D01*
X20512Y206961D01*
X20879Y207119D01*
X21250Y207267D01*
X21624Y207406D01*
X22001Y207536D01*
X22381Y207656D01*
X22764Y207767D01*
X23150Y207869D01*
X23538Y207961D01*
X23929Y208044D01*
X24321Y208117D01*
X24715Y208180D01*
X25110Y208234D01*
X25507Y208278D01*
X25904Y208312D01*
X26302Y208336D01*
X26701Y208351D01*
X27100Y208356D01*
X27499Y208351D01*
X27898Y208336D01*
X28296Y208312D01*
X28693Y208278D01*
X29090Y208234D01*
X29485Y208180D01*
X29879Y208117D01*
X30271Y208044D01*
X30662Y207961D01*
X31050Y207869D01*
X31436Y207767D01*
X31819Y207656D01*
X32199Y207536D01*
X32576Y207406D01*
X32950Y207267D01*
X33321Y207119D01*
X33688Y206961D01*
X34050Y206795D01*
X34409Y206620D01*
X34763Y206437D01*
X35113Y206244D01*
X35457Y206043D01*
X35797Y205834D01*
X36131Y205616D01*
X36460Y205391D01*
X36784Y205157D01*
X37101Y204915D01*
X37413Y204666D01*
X37718Y204409D01*
X38017Y204145D01*
X38309Y203873D01*
X38595Y203595D01*
X38873Y203309D01*
X39145Y203017D01*
X39409Y202718D01*
X39666Y202413D01*
X39915Y202101D01*
X40157Y201784D01*
X40391Y201460D01*
X40616Y201131D01*
X40834Y200797D01*
X41043Y200457D01*
X41244Y200113D01*
X41437Y199763D01*
X41620Y199409D01*
X41795Y199050D01*
X41961Y198688D01*
X42119Y198321D01*
X42267Y197950D01*
X42406Y197576D01*
X42536Y197199D01*
X42656Y196819D01*
X42767Y196436D01*
X42869Y196050D01*
X42961Y195662D01*
X43044Y195271D01*
X43117Y194879D01*
X43180Y194485D01*
X43234Y194090D01*
X43278Y193693D01*
X43312Y193296D01*
X43336Y192898D01*
X43351Y192499D01*
X43356Y192100D01*
X43351Y191701D01*
X43336Y191302D01*
X43312Y190904D01*
X43278Y190507D01*
X43234Y190110D01*
X43180Y189715D01*
X43117Y189321D01*
X43044Y188929D01*
X42961Y188538D01*
X42869Y188150D01*
X42767Y187764D01*
X42656Y187381D01*
X42536Y187001D01*
X42406Y186624D01*
X42267Y186250D01*
X42119Y185879D01*
X41961Y185512D01*
X41795Y185150D01*
X41620Y184791D01*
X41437Y184437D01*
X41244Y184087D01*
X41043Y183743D01*
X40834Y183403D01*
X40616Y183069D01*
X40391Y182740D01*
X40157Y182416D01*
X39915Y182099D01*
X39666Y181787D01*
X39409Y181482D01*
X39145Y181183D01*
X38873Y180891D01*
X38595Y180605D01*
X38309Y180327D01*
X38017Y180055D01*
X37718Y179791D01*
X37413Y179534D01*
X37101Y179285D01*
X36784Y179043D01*
X36460Y178809D01*
X36131Y178584D01*
X35797Y178366D01*
X35457Y178157D01*
X35113Y177956D01*
X34763Y177763D01*
X34409Y177580D01*
X34050Y177405D01*
X33688Y177239D01*
X33321Y177081D01*
X32950Y176933D01*
X32576Y176794D01*
X32199Y176664D01*
X31819Y176544D01*
X31436Y176433D01*
X31050Y176331D01*
X30662Y176239D01*
X30271Y176156D01*
X29879Y176083D01*
X29485Y176020D01*
X29090Y175966D01*
X28693Y175922D01*
X28296Y175888D01*
X27898Y175864D01*
X27499Y175849D01*
X27100Y175844D01*
X26701Y175849D01*
X26302Y175864D01*
X25904Y175888D01*
X25507Y175922D01*
X25110Y175966D01*
X24715Y176020D01*
X24321Y176083D01*
X23929Y176156D01*
X23538Y176239D01*
X23150Y176331D01*
X22764Y176433D01*
X22381Y176544D01*
X22001Y176664D01*
X21624Y176794D01*
X21250Y176933D01*
X20879Y177081D01*
X20512Y177239D01*
X20150Y177405D01*
X19791Y177580D01*
X19437Y177763D01*
X19087Y177956D01*
X18743Y178157D01*
X18403Y178366D01*
X18069Y178584D01*
X17740Y178809D01*
X17416Y179043D01*
X17099Y179285D01*
X16787Y179534D01*
X16482Y179791D01*
X16183Y180055D01*
X15891Y180327D01*
X15605Y180605D01*
X15327Y180891D01*
X15055Y181183D01*
X14791Y181482D01*
X14534Y181787D01*
X14285Y182099D01*
X14043Y182416D01*
X13809Y182740D01*
X13584Y183069D01*
X13366Y183403D01*
X13157Y183743D01*
X12956Y184087D01*
X12763Y184437D01*
X12580Y184791D01*
X12405Y185150D01*
X12239Y185512D01*
X12081Y185879D01*
X11933Y186250D01*
X11794Y186624D01*
X11664Y187001D01*
X11544Y187381D01*
X11433Y187764D01*
X11331Y188150D01*
X11239Y188538D01*
X11156Y188929D01*
X11083Y189321D01*
X11020Y189715D01*
X10966Y190110D01*
X10922Y190507D01*
X10888Y190904D01*
X10864Y191302D01*
X10849Y191701D01*
X10844Y192100D01*
M02*
