G04 EAGLE Gerber X2 export*
%TF.Part,Single*%
%TF.FileFunction,Other,Solder stop mask SOL*%
%TF.FilePolarity,Positive*%
%TF.GenerationSoftware,Autodesk,EAGLE,8.6.3*%
%TF.CreationDate,2019-02-27T20:09:03Z*%
G75*
%MOMM*%
%FSLAX34Y34*%
%LPD*%
%AMOC8*
5,1,8,0,0,1.08239X$1,22.5*%
G01*
%ADD10C,1.625600*%
%ADD11P,1.759533X8X22.500000*%
%ADD12C,3.454400*%
%ADD13C,2.565400*%
%ADD14C,1.703200*%
%ADD15C,1.409600*%


D10*
X27100Y281000D03*
D11*
X27100Y255600D03*
X52500Y281000D03*
X52500Y255600D03*
X77900Y281000D03*
X77900Y255600D03*
X103300Y281000D03*
X103300Y255600D03*
X128700Y281000D03*
X128700Y255600D03*
X154100Y281000D03*
X154100Y255600D03*
X179500Y281000D03*
X179500Y255600D03*
X204900Y281000D03*
X204900Y255600D03*
X230300Y281000D03*
X230300Y255600D03*
X255700Y281000D03*
X255700Y255600D03*
X281100Y281000D03*
X281100Y255600D03*
X306500Y281000D03*
X306500Y255600D03*
X331900Y281000D03*
X331900Y255600D03*
X357300Y281000D03*
X357300Y255600D03*
X382700Y281000D03*
X382700Y255600D03*
X408100Y281000D03*
X408100Y255600D03*
X433500Y281000D03*
X433500Y255600D03*
X458900Y281000D03*
X458900Y255600D03*
X484300Y281000D03*
X484300Y255600D03*
X509700Y281000D03*
X509700Y255600D03*
D12*
X27100Y65100D03*
X27100Y192100D03*
D10*
X52500Y93040D03*
X70280Y103200D03*
X52500Y113360D03*
X70280Y123520D03*
X52500Y133680D03*
X70280Y143840D03*
X52500Y154000D03*
X70280Y164160D03*
D13*
X61390Y209626D03*
X61390Y47574D03*
D14*
X284000Y206000D03*
X140000Y194000D03*
X235000Y207000D03*
X107000Y222000D03*
D15*
X241000Y75000D03*
D14*
X301120Y103200D03*
M02*
