<?xml version="1.0" encoding="utf-8" standalone="no"?>
<!DOCTYPE svg PUBLIC "-//W3C//DTD SVG 1.1//EN"
  "http://www.w3.org/Graphics/SVG/1.1/DTD/svg11.dtd">
<!-- Created with matplotlib (http://matplotlib.org/) -->
<svg height="342.72pt" version="1.1" viewBox="0 0 460.8 342.72" width="460.8pt" xmlns="http://www.w3.org/2000/svg" xmlns:xlink="http://www.w3.org/1999/xlink">
 <defs>
  <style type="text/css">
*{stroke-linecap:butt;stroke-linejoin:round;}
  </style>
 </defs>
 <g id="figure_1">
  <g id="patch_1">
   <path d="M 0 342.72 
L 460.8 342.72 
L 460.8 0 
L 0 0 
z
" style="fill:#ffffff;"/>
  </g>
  <g id="axes_1">
   <g id="patch_2">
    <path d="M 57.6 305.0208 
L 414.72 305.0208 
L 414.72 41.1264 
L 57.6 41.1264 
z
" style="fill:#ffffff;"/>
   </g>
   <g id="matplotlib.axis_1">
    <g id="xtick_1">
     <g id="line2d_1">
      <defs>
       <path d="M 0 0 
L 0 3.5 
" id="m2e1bf2b88c" style="stroke:#000000;stroke-width:0.8;"/>
      </defs>
      <g>
       <use style="stroke:#000000;stroke-width:0.8;" x="116.924241" xlink:href="#m2e1bf2b88c" y="305.0208"/>
      </g>
     </g>
     <g id="text_1">
      <!-- 10 -->
      <defs>
       <path d="M 12.40625 8.296875 
L 28.515625 8.296875 
L 28.515625 63.921875 
L 10.984375 60.40625 
L 10.984375 69.390625 
L 28.421875 72.90625 
L 38.28125 72.90625 
L 38.28125 8.296875 
L 54.390625 8.296875 
L 54.390625 0 
L 12.40625 0 
z
" id="DejaVuSans-31"/>
       <path d="M 31.78125 66.40625 
Q 24.171875 66.40625 20.328125 58.90625 
Q 16.5 51.421875 16.5 36.375 
Q 16.5 21.390625 20.328125 13.890625 
Q 24.171875 6.390625 31.78125 6.390625 
Q 39.453125 6.390625 43.28125 13.890625 
Q 47.125 21.390625 47.125 36.375 
Q 47.125 51.421875 43.28125 58.90625 
Q 39.453125 66.40625 31.78125 66.40625 
z
M 31.78125 74.21875 
Q 44.046875 74.21875 50.515625 64.515625 
Q 56.984375 54.828125 56.984375 36.375 
Q 56.984375 17.96875 50.515625 8.265625 
Q 44.046875 -1.421875 31.78125 -1.421875 
Q 19.53125 -1.421875 13.0625 8.265625 
Q 6.59375 17.96875 6.59375 36.375 
Q 6.59375 54.828125 13.0625 64.515625 
Q 19.53125 74.21875 31.78125 74.21875 
z
" id="DejaVuSans-30"/>
      </defs>
      <g transform="translate(110.561741 319.619237)scale(0.1 -0.1)">
       <use xlink:href="#DejaVuSans-31"/>
       <use x="63.623047" xlink:href="#DejaVuSans-30"/>
      </g>
     </g>
    </g>
    <g id="xtick_2">
     <g id="line2d_2">
      <g>
       <use style="stroke:#000000;stroke-width:0.8;" x="183.370753" xlink:href="#m2e1bf2b88c" y="305.0208"/>
      </g>
     </g>
     <g id="text_2">
      <!-- 15 -->
      <defs>
       <path d="M 10.796875 72.90625 
L 49.515625 72.90625 
L 49.515625 64.59375 
L 19.828125 64.59375 
L 19.828125 46.734375 
Q 21.96875 47.46875 24.109375 47.828125 
Q 26.265625 48.1875 28.421875 48.1875 
Q 40.625 48.1875 47.75 41.5 
Q 54.890625 34.8125 54.890625 23.390625 
Q 54.890625 11.625 47.5625 5.09375 
Q 40.234375 -1.421875 26.90625 -1.421875 
Q 22.3125 -1.421875 17.546875 -0.640625 
Q 12.796875 0.140625 7.71875 1.703125 
L 7.71875 11.625 
Q 12.109375 9.234375 16.796875 8.0625 
Q 21.484375 6.890625 26.703125 6.890625 
Q 35.15625 6.890625 40.078125 11.328125 
Q 45.015625 15.765625 45.015625 23.390625 
Q 45.015625 31 40.078125 35.4375 
Q 35.15625 39.890625 26.703125 39.890625 
Q 22.75 39.890625 18.8125 39.015625 
Q 14.890625 38.140625 10.796875 36.28125 
z
" id="DejaVuSans-35"/>
      </defs>
      <g transform="translate(177.008253 319.619237)scale(0.1 -0.1)">
       <use xlink:href="#DejaVuSans-31"/>
       <use x="63.623047" xlink:href="#DejaVuSans-35"/>
      </g>
     </g>
    </g>
    <g id="xtick_3">
     <g id="line2d_3">
      <g>
       <use style="stroke:#000000;stroke-width:0.8;" x="249.817265" xlink:href="#m2e1bf2b88c" y="305.0208"/>
      </g>
     </g>
     <g id="text_3">
      <!-- 20 -->
      <defs>
       <path d="M 19.1875 8.296875 
L 53.609375 8.296875 
L 53.609375 0 
L 7.328125 0 
L 7.328125 8.296875 
Q 12.9375 14.109375 22.625 23.890625 
Q 32.328125 33.6875 34.8125 36.53125 
Q 39.546875 41.84375 41.421875 45.53125 
Q 43.3125 49.21875 43.3125 52.78125 
Q 43.3125 58.59375 39.234375 62.25 
Q 35.15625 65.921875 28.609375 65.921875 
Q 23.96875 65.921875 18.8125 64.3125 
Q 13.671875 62.703125 7.8125 59.421875 
L 7.8125 69.390625 
Q 13.765625 71.78125 18.9375 73 
Q 24.125 74.21875 28.421875 74.21875 
Q 39.75 74.21875 46.484375 68.546875 
Q 53.21875 62.890625 53.21875 53.421875 
Q 53.21875 48.921875 51.53125 44.890625 
Q 49.859375 40.875 45.40625 35.40625 
Q 44.1875 33.984375 37.640625 27.21875 
Q 31.109375 20.453125 19.1875 8.296875 
z
" id="DejaVuSans-32"/>
      </defs>
      <g transform="translate(243.454765 319.619237)scale(0.1 -0.1)">
       <use xlink:href="#DejaVuSans-32"/>
       <use x="63.623047" xlink:href="#DejaVuSans-30"/>
      </g>
     </g>
    </g>
    <g id="xtick_4">
     <g id="line2d_4">
      <g>
       <use style="stroke:#000000;stroke-width:0.8;" x="316.263777" xlink:href="#m2e1bf2b88c" y="305.0208"/>
      </g>
     </g>
     <g id="text_4">
      <!-- 25 -->
      <g transform="translate(309.901277 319.619237)scale(0.1 -0.1)">
       <use xlink:href="#DejaVuSans-32"/>
       <use x="63.623047" xlink:href="#DejaVuSans-35"/>
      </g>
     </g>
    </g>
    <g id="xtick_5">
     <g id="line2d_5">
      <g>
       <use style="stroke:#000000;stroke-width:0.8;" x="382.710289" xlink:href="#m2e1bf2b88c" y="305.0208"/>
      </g>
     </g>
     <g id="text_5">
      <!-- 30 -->
      <defs>
       <path d="M 40.578125 39.3125 
Q 47.65625 37.796875 51.625 33 
Q 55.609375 28.21875 55.609375 21.1875 
Q 55.609375 10.40625 48.1875 4.484375 
Q 40.765625 -1.421875 27.09375 -1.421875 
Q 22.515625 -1.421875 17.65625 -0.515625 
Q 12.796875 0.390625 7.625 2.203125 
L 7.625 11.71875 
Q 11.71875 9.328125 16.59375 8.109375 
Q 21.484375 6.890625 26.8125 6.890625 
Q 36.078125 6.890625 40.9375 10.546875 
Q 45.796875 14.203125 45.796875 21.1875 
Q 45.796875 27.640625 41.28125 31.265625 
Q 36.765625 34.90625 28.71875 34.90625 
L 20.21875 34.90625 
L 20.21875 43.015625 
L 29.109375 43.015625 
Q 36.375 43.015625 40.234375 45.921875 
Q 44.09375 48.828125 44.09375 54.296875 
Q 44.09375 59.90625 40.109375 62.90625 
Q 36.140625 65.921875 28.71875 65.921875 
Q 24.65625 65.921875 20.015625 65.03125 
Q 15.375 64.15625 9.8125 62.3125 
L 9.8125 71.09375 
Q 15.4375 72.65625 20.34375 73.4375 
Q 25.25 74.21875 29.59375 74.21875 
Q 40.828125 74.21875 47.359375 69.109375 
Q 53.90625 64.015625 53.90625 55.328125 
Q 53.90625 49.265625 50.4375 45.09375 
Q 46.96875 40.921875 40.578125 39.3125 
z
" id="DejaVuSans-33"/>
      </defs>
      <g transform="translate(376.347789 319.619237)scale(0.1 -0.1)">
       <use xlink:href="#DejaVuSans-33"/>
       <use x="63.623047" xlink:href="#DejaVuSans-30"/>
      </g>
     </g>
    </g>
    <g id="text_6">
     <!-- Seconds -->
     <defs>
      <path d="M 53.515625 70.515625 
L 53.515625 60.890625 
Q 47.90625 63.578125 42.921875 64.890625 
Q 37.9375 66.21875 33.296875 66.21875 
Q 25.25 66.21875 20.875 63.09375 
Q 16.5 59.96875 16.5 54.203125 
Q 16.5 49.359375 19.40625 46.890625 
Q 22.3125 44.4375 30.421875 42.921875 
L 36.375 41.703125 
Q 47.40625 39.59375 52.65625 34.296875 
Q 57.90625 29 57.90625 20.125 
Q 57.90625 9.515625 50.796875 4.046875 
Q 43.703125 -1.421875 29.984375 -1.421875 
Q 24.8125 -1.421875 18.96875 -0.25 
Q 13.140625 0.921875 6.890625 3.21875 
L 6.890625 13.375 
Q 12.890625 10.015625 18.65625 8.296875 
Q 24.421875 6.59375 29.984375 6.59375 
Q 38.421875 6.59375 43.015625 9.90625 
Q 47.609375 13.234375 47.609375 19.390625 
Q 47.609375 24.75 44.3125 27.78125 
Q 41.015625 30.8125 33.5 32.328125 
L 27.484375 33.5 
Q 16.453125 35.6875 11.515625 40.375 
Q 6.59375 45.0625 6.59375 53.421875 
Q 6.59375 63.09375 13.40625 68.65625 
Q 20.21875 74.21875 32.171875 74.21875 
Q 37.3125 74.21875 42.625 73.28125 
Q 47.953125 72.359375 53.515625 70.515625 
z
" id="DejaVuSans-53"/>
      <path d="M 56.203125 29.59375 
L 56.203125 25.203125 
L 14.890625 25.203125 
Q 15.484375 15.921875 20.484375 11.0625 
Q 25.484375 6.203125 34.421875 6.203125 
Q 39.59375 6.203125 44.453125 7.46875 
Q 49.3125 8.734375 54.109375 11.28125 
L 54.109375 2.78125 
Q 49.265625 0.734375 44.1875 -0.34375 
Q 39.109375 -1.421875 33.890625 -1.421875 
Q 20.796875 -1.421875 13.15625 6.1875 
Q 5.515625 13.8125 5.515625 26.8125 
Q 5.515625 40.234375 12.765625 48.109375 
Q 20.015625 56 32.328125 56 
Q 43.359375 56 49.78125 48.890625 
Q 56.203125 41.796875 56.203125 29.59375 
z
M 47.21875 32.234375 
Q 47.125 39.59375 43.09375 43.984375 
Q 39.0625 48.390625 32.421875 48.390625 
Q 24.90625 48.390625 20.390625 44.140625 
Q 15.875 39.890625 15.1875 32.171875 
z
" id="DejaVuSans-65"/>
      <path d="M 48.78125 52.59375 
L 48.78125 44.1875 
Q 44.96875 46.296875 41.140625 47.34375 
Q 37.3125 48.390625 33.40625 48.390625 
Q 24.65625 48.390625 19.8125 42.84375 
Q 14.984375 37.3125 14.984375 27.296875 
Q 14.984375 17.28125 19.8125 11.734375 
Q 24.65625 6.203125 33.40625 6.203125 
Q 37.3125 6.203125 41.140625 7.25 
Q 44.96875 8.296875 48.78125 10.40625 
L 48.78125 2.09375 
Q 45.015625 0.34375 40.984375 -0.53125 
Q 36.96875 -1.421875 32.421875 -1.421875 
Q 20.0625 -1.421875 12.78125 6.34375 
Q 5.515625 14.109375 5.515625 27.296875 
Q 5.515625 40.671875 12.859375 48.328125 
Q 20.21875 56 33.015625 56 
Q 37.15625 56 41.109375 55.140625 
Q 45.0625 54.296875 48.78125 52.59375 
z
" id="DejaVuSans-63"/>
      <path d="M 30.609375 48.390625 
Q 23.390625 48.390625 19.1875 42.75 
Q 14.984375 37.109375 14.984375 27.296875 
Q 14.984375 17.484375 19.15625 11.84375 
Q 23.34375 6.203125 30.609375 6.203125 
Q 37.796875 6.203125 41.984375 11.859375 
Q 46.1875 17.53125 46.1875 27.296875 
Q 46.1875 37.015625 41.984375 42.703125 
Q 37.796875 48.390625 30.609375 48.390625 
z
M 30.609375 56 
Q 42.328125 56 49.015625 48.375 
Q 55.71875 40.765625 55.71875 27.296875 
Q 55.71875 13.875 49.015625 6.21875 
Q 42.328125 -1.421875 30.609375 -1.421875 
Q 18.84375 -1.421875 12.171875 6.21875 
Q 5.515625 13.875 5.515625 27.296875 
Q 5.515625 40.765625 12.171875 48.375 
Q 18.84375 56 30.609375 56 
z
" id="DejaVuSans-6f"/>
      <path d="M 54.890625 33.015625 
L 54.890625 0 
L 45.90625 0 
L 45.90625 32.71875 
Q 45.90625 40.484375 42.875 44.328125 
Q 39.84375 48.1875 33.796875 48.1875 
Q 26.515625 48.1875 22.3125 43.546875 
Q 18.109375 38.921875 18.109375 30.90625 
L 18.109375 0 
L 9.078125 0 
L 9.078125 54.6875 
L 18.109375 54.6875 
L 18.109375 46.1875 
Q 21.34375 51.125 25.703125 53.5625 
Q 30.078125 56 35.796875 56 
Q 45.21875 56 50.046875 50.171875 
Q 54.890625 44.34375 54.890625 33.015625 
z
" id="DejaVuSans-6e"/>
      <path d="M 45.40625 46.390625 
L 45.40625 75.984375 
L 54.390625 75.984375 
L 54.390625 0 
L 45.40625 0 
L 45.40625 8.203125 
Q 42.578125 3.328125 38.25 0.953125 
Q 33.9375 -1.421875 27.875 -1.421875 
Q 17.96875 -1.421875 11.734375 6.484375 
Q 5.515625 14.40625 5.515625 27.296875 
Q 5.515625 40.1875 11.734375 48.09375 
Q 17.96875 56 27.875 56 
Q 33.9375 56 38.25 53.625 
Q 42.578125 51.265625 45.40625 46.390625 
z
M 14.796875 27.296875 
Q 14.796875 17.390625 18.875 11.75 
Q 22.953125 6.109375 30.078125 6.109375 
Q 37.203125 6.109375 41.296875 11.75 
Q 45.40625 17.390625 45.40625 27.296875 
Q 45.40625 37.203125 41.296875 42.84375 
Q 37.203125 48.484375 30.078125 48.484375 
Q 22.953125 48.484375 18.875 42.84375 
Q 14.796875 37.203125 14.796875 27.296875 
z
" id="DejaVuSans-64"/>
      <path d="M 44.28125 53.078125 
L 44.28125 44.578125 
Q 40.484375 46.53125 36.375 47.5 
Q 32.28125 48.484375 27.875 48.484375 
Q 21.1875 48.484375 17.84375 46.4375 
Q 14.5 44.390625 14.5 40.28125 
Q 14.5 37.15625 16.890625 35.375 
Q 19.28125 33.59375 26.515625 31.984375 
L 29.59375 31.296875 
Q 39.15625 29.25 43.1875 25.515625 
Q 47.21875 21.78125 47.21875 15.09375 
Q 47.21875 7.46875 41.1875 3.015625 
Q 35.15625 -1.421875 24.609375 -1.421875 
Q 20.21875 -1.421875 15.453125 -0.5625 
Q 10.6875 0.296875 5.421875 2 
L 5.421875 11.28125 
Q 10.40625 8.6875 15.234375 7.390625 
Q 20.0625 6.109375 24.8125 6.109375 
Q 31.15625 6.109375 34.5625 8.28125 
Q 37.984375 10.453125 37.984375 14.40625 
Q 37.984375 18.0625 35.515625 20.015625 
Q 33.0625 21.96875 24.703125 23.78125 
L 21.578125 24.515625 
Q 13.234375 26.265625 9.515625 29.90625 
Q 5.8125 33.546875 5.8125 39.890625 
Q 5.8125 47.609375 11.28125 51.796875 
Q 16.75 56 26.8125 56 
Q 31.78125 56 36.171875 55.265625 
Q 40.578125 54.546875 44.28125 53.078125 
z
" id="DejaVuSans-73"/>
     </defs>
     <g transform="translate(215.152969 333.297362)scale(0.1 -0.1)">
      <use xlink:href="#DejaVuSans-53"/>
      <use x="63.476562" xlink:href="#DejaVuSans-65"/>
      <use x="125" xlink:href="#DejaVuSans-63"/>
      <use x="179.980469" xlink:href="#DejaVuSans-6f"/>
      <use x="241.162109" xlink:href="#DejaVuSans-6e"/>
      <use x="304.541016" xlink:href="#DejaVuSans-64"/>
      <use x="368.017578" xlink:href="#DejaVuSans-73"/>
     </g>
    </g>
   </g>
   <g id="matplotlib.axis_2">
    <g id="ytick_1">
     <g id="line2d_6">
      <defs>
       <path d="M 0 0 
L -3.5 0 
" id="me943d172c8" style="stroke:#000000;stroke-width:0.8;"/>
      </defs>
      <g>
       <use style="stroke:#000000;stroke-width:0.8;" x="57.6" xlink:href="#me943d172c8" y="280.231085"/>
      </g>
     </g>
     <g id="text_7">
      <!-- −1500000 -->
      <defs>
       <path d="M 10.59375 35.5 
L 73.1875 35.5 
L 73.1875 27.203125 
L 10.59375 27.203125 
z
" id="DejaVuSans-2212"/>
      </defs>
      <g transform="translate(-2.317188 284.030303)scale(0.1 -0.1)">
       <use xlink:href="#DejaVuSans-2212"/>
       <use x="83.789062" xlink:href="#DejaVuSans-31"/>
       <use x="147.412109" xlink:href="#DejaVuSans-35"/>
       <use x="211.035156" xlink:href="#DejaVuSans-30"/>
       <use x="274.658203" xlink:href="#DejaVuSans-30"/>
       <use x="338.28125" xlink:href="#DejaVuSans-30"/>
       <use x="401.904297" xlink:href="#DejaVuSans-30"/>
       <use x="465.527344" xlink:href="#DejaVuSans-30"/>
      </g>
     </g>
    </g>
    <g id="ytick_2">
     <g id="line2d_7">
      <g>
       <use style="stroke:#000000;stroke-width:0.8;" x="57.6" xlink:href="#me943d172c8" y="250.103716"/>
      </g>
     </g>
     <g id="text_8">
      <!-- −1000000 -->
      <g transform="translate(-2.317188 253.902935)scale(0.1 -0.1)">
       <use xlink:href="#DejaVuSans-2212"/>
       <use x="83.789062" xlink:href="#DejaVuSans-31"/>
       <use x="147.412109" xlink:href="#DejaVuSans-30"/>
       <use x="211.035156" xlink:href="#DejaVuSans-30"/>
       <use x="274.658203" xlink:href="#DejaVuSans-30"/>
       <use x="338.28125" xlink:href="#DejaVuSans-30"/>
       <use x="401.904297" xlink:href="#DejaVuSans-30"/>
       <use x="465.527344" xlink:href="#DejaVuSans-30"/>
      </g>
     </g>
    </g>
    <g id="ytick_3">
     <g id="line2d_8">
      <g>
       <use style="stroke:#000000;stroke-width:0.8;" x="57.6" xlink:href="#me943d172c8" y="219.976347"/>
      </g>
     </g>
     <g id="text_9">
      <!-- −500000 -->
      <g transform="translate(4.045313 223.775566)scale(0.1 -0.1)">
       <use xlink:href="#DejaVuSans-2212"/>
       <use x="83.789062" xlink:href="#DejaVuSans-35"/>
       <use x="147.412109" xlink:href="#DejaVuSans-30"/>
       <use x="211.035156" xlink:href="#DejaVuSans-30"/>
       <use x="274.658203" xlink:href="#DejaVuSans-30"/>
       <use x="338.28125" xlink:href="#DejaVuSans-30"/>
       <use x="401.904297" xlink:href="#DejaVuSans-30"/>
      </g>
     </g>
    </g>
    <g id="ytick_4">
     <g id="line2d_9">
      <g>
       <use style="stroke:#000000;stroke-width:0.8;" x="57.6" xlink:href="#me943d172c8" y="189.848978"/>
      </g>
     </g>
     <g id="text_10">
      <!-- 0 -->
      <g transform="translate(44.2375 193.648197)scale(0.1 -0.1)">
       <use xlink:href="#DejaVuSans-30"/>
      </g>
     </g>
    </g>
    <g id="ytick_5">
     <g id="line2d_10">
      <g>
       <use style="stroke:#000000;stroke-width:0.8;" x="57.6" xlink:href="#me943d172c8" y="159.721609"/>
      </g>
     </g>
     <g id="text_11">
      <!-- 500000 -->
      <g transform="translate(12.425 163.520828)scale(0.1 -0.1)">
       <use xlink:href="#DejaVuSans-35"/>
       <use x="63.623047" xlink:href="#DejaVuSans-30"/>
       <use x="127.246094" xlink:href="#DejaVuSans-30"/>
       <use x="190.869141" xlink:href="#DejaVuSans-30"/>
       <use x="254.492188" xlink:href="#DejaVuSans-30"/>
       <use x="318.115234" xlink:href="#DejaVuSans-30"/>
      </g>
     </g>
    </g>
    <g id="ytick_6">
     <g id="line2d_11">
      <g>
       <use style="stroke:#000000;stroke-width:0.8;" x="57.6" xlink:href="#me943d172c8" y="129.59424"/>
      </g>
     </g>
     <g id="text_12">
      <!-- 1000000 -->
      <g transform="translate(6.0625 133.393459)scale(0.1 -0.1)">
       <use xlink:href="#DejaVuSans-31"/>
       <use x="63.623047" xlink:href="#DejaVuSans-30"/>
       <use x="127.246094" xlink:href="#DejaVuSans-30"/>
       <use x="190.869141" xlink:href="#DejaVuSans-30"/>
       <use x="254.492188" xlink:href="#DejaVuSans-30"/>
       <use x="318.115234" xlink:href="#DejaVuSans-30"/>
       <use x="381.738281" xlink:href="#DejaVuSans-30"/>
      </g>
     </g>
    </g>
    <g id="ytick_7">
     <g id="line2d_12">
      <g>
       <use style="stroke:#000000;stroke-width:0.8;" x="57.6" xlink:href="#me943d172c8" y="99.466871"/>
      </g>
     </g>
     <g id="text_13">
      <!-- 1500000 -->
      <g transform="translate(6.0625 103.26609)scale(0.1 -0.1)">
       <use xlink:href="#DejaVuSans-31"/>
       <use x="63.623047" xlink:href="#DejaVuSans-35"/>
       <use x="127.246094" xlink:href="#DejaVuSans-30"/>
       <use x="190.869141" xlink:href="#DejaVuSans-30"/>
       <use x="254.492188" xlink:href="#DejaVuSans-30"/>
       <use x="318.115234" xlink:href="#DejaVuSans-30"/>
       <use x="381.738281" xlink:href="#DejaVuSans-30"/>
      </g>
     </g>
    </g>
    <g id="ytick_8">
     <g id="line2d_13">
      <g>
       <use style="stroke:#000000;stroke-width:0.8;" x="57.6" xlink:href="#me943d172c8" y="69.339502"/>
      </g>
     </g>
     <g id="text_14">
      <!-- 2000000 -->
      <g transform="translate(6.0625 73.138721)scale(0.1 -0.1)">
       <use xlink:href="#DejaVuSans-32"/>
       <use x="63.623047" xlink:href="#DejaVuSans-30"/>
       <use x="127.246094" xlink:href="#DejaVuSans-30"/>
       <use x="190.869141" xlink:href="#DejaVuSans-30"/>
       <use x="254.492188" xlink:href="#DejaVuSans-30"/>
       <use x="318.115234" xlink:href="#DejaVuSans-30"/>
       <use x="381.738281" xlink:href="#DejaVuSans-30"/>
      </g>
     </g>
    </g>
    <g id="text_15">
     <!-- Detected Light -->
     <defs>
      <path d="M 19.671875 64.796875 
L 19.671875 8.109375 
L 31.59375 8.109375 
Q 46.6875 8.109375 53.6875 14.9375 
Q 60.6875 21.78125 60.6875 36.53125 
Q 60.6875 51.171875 53.6875 57.984375 
Q 46.6875 64.796875 31.59375 64.796875 
z
M 9.8125 72.90625 
L 30.078125 72.90625 
Q 51.265625 72.90625 61.171875 64.09375 
Q 71.09375 55.28125 71.09375 36.53125 
Q 71.09375 17.671875 61.125 8.828125 
Q 51.171875 0 30.078125 0 
L 9.8125 0 
z
" id="DejaVuSans-44"/>
      <path d="M 18.3125 70.21875 
L 18.3125 54.6875 
L 36.8125 54.6875 
L 36.8125 47.703125 
L 18.3125 47.703125 
L 18.3125 18.015625 
Q 18.3125 11.328125 20.140625 9.421875 
Q 21.96875 7.515625 27.59375 7.515625 
L 36.8125 7.515625 
L 36.8125 0 
L 27.59375 0 
Q 17.1875 0 13.234375 3.875 
Q 9.28125 7.765625 9.28125 18.015625 
L 9.28125 47.703125 
L 2.6875 47.703125 
L 2.6875 54.6875 
L 9.28125 54.6875 
L 9.28125 70.21875 
z
" id="DejaVuSans-74"/>
      <path id="DejaVuSans-20"/>
      <path d="M 9.8125 72.90625 
L 19.671875 72.90625 
L 19.671875 8.296875 
L 55.171875 8.296875 
L 55.171875 0 
L 9.8125 0 
z
" id="DejaVuSans-4c"/>
      <path d="M 9.421875 54.6875 
L 18.40625 54.6875 
L 18.40625 0 
L 9.421875 0 
z
M 9.421875 75.984375 
L 18.40625 75.984375 
L 18.40625 64.59375 
L 9.421875 64.59375 
z
" id="DejaVuSans-69"/>
      <path d="M 45.40625 27.984375 
Q 45.40625 37.75 41.375 43.109375 
Q 37.359375 48.484375 30.078125 48.484375 
Q 22.859375 48.484375 18.828125 43.109375 
Q 14.796875 37.75 14.796875 27.984375 
Q 14.796875 18.265625 18.828125 12.890625 
Q 22.859375 7.515625 30.078125 7.515625 
Q 37.359375 7.515625 41.375 12.890625 
Q 45.40625 18.265625 45.40625 27.984375 
z
M 54.390625 6.78125 
Q 54.390625 -7.171875 48.1875 -13.984375 
Q 42 -20.796875 29.203125 -20.796875 
Q 24.46875 -20.796875 20.265625 -20.09375 
Q 16.0625 -19.390625 12.109375 -17.921875 
L 12.109375 -9.1875 
Q 16.0625 -11.328125 19.921875 -12.34375 
Q 23.78125 -13.375 27.78125 -13.375 
Q 36.625 -13.375 41.015625 -8.765625 
Q 45.40625 -4.15625 45.40625 5.171875 
L 45.40625 9.625 
Q 42.625 4.78125 38.28125 2.390625 
Q 33.9375 0 27.875 0 
Q 17.828125 0 11.671875 7.65625 
Q 5.515625 15.328125 5.515625 27.984375 
Q 5.515625 40.671875 11.671875 48.328125 
Q 17.828125 56 27.875 56 
Q 33.9375 56 38.28125 53.609375 
Q 42.625 51.21875 45.40625 46.390625 
L 45.40625 54.6875 
L 54.390625 54.6875 
z
" id="DejaVuSans-67"/>
      <path d="M 54.890625 33.015625 
L 54.890625 0 
L 45.90625 0 
L 45.90625 32.71875 
Q 45.90625 40.484375 42.875 44.328125 
Q 39.84375 48.1875 33.796875 48.1875 
Q 26.515625 48.1875 22.3125 43.546875 
Q 18.109375 38.921875 18.109375 30.90625 
L 18.109375 0 
L 9.078125 0 
L 9.078125 75.984375 
L 18.109375 75.984375 
L 18.109375 46.1875 
Q 21.34375 51.125 25.703125 53.5625 
Q 30.078125 56 35.796875 56 
Q 45.21875 56 50.046875 50.171875 
Q 54.890625 44.34375 54.890625 33.015625 
z
" id="DejaVuSans-68"/>
     </defs>
     <g transform="translate(-8.396875 210.064225)rotate(-90)scale(0.1 -0.1)">
      <use xlink:href="#DejaVuSans-44"/>
      <use x="77.001953" xlink:href="#DejaVuSans-65"/>
      <use x="138.525391" xlink:href="#DejaVuSans-74"/>
      <use x="177.734375" xlink:href="#DejaVuSans-65"/>
      <use x="239.257812" xlink:href="#DejaVuSans-63"/>
      <use x="294.238281" xlink:href="#DejaVuSans-74"/>
      <use x="333.447266" xlink:href="#DejaVuSans-65"/>
      <use x="394.970703" xlink:href="#DejaVuSans-64"/>
      <use x="458.447266" xlink:href="#DejaVuSans-20"/>
      <use x="490.234375" xlink:href="#DejaVuSans-4c"/>
      <use x="545.947266" xlink:href="#DejaVuSans-69"/>
      <use x="573.730469" xlink:href="#DejaVuSans-67"/>
      <use x="637.207031" xlink:href="#DejaVuSans-68"/>
      <use x="700.585938" xlink:href="#DejaVuSans-74"/>
     </g>
    </g>
   </g>
   <g id="line2d_14">
    <path clip-path="url(#p3acbcc339e)" d="M 57.598743 195.348898 
L 57.931026 204.815532 
L 58.130396 206.238809 
L 58.263309 205.558593 
L 58.794963 200.83902 
L 58.861419 200.837273 
L 58.994333 201.27183 
L 59.592443 204.128748 
L 59.924726 204.702434 
L 60.190553 205.94091 
L 60.655749 208.09351 
L 60.855119 208.15491 
L 61.120946 208.01789 
L 61.253859 208.151114 
L 61.719056 209.07277 
L 61.785513 208.988052 
L 61.984882 208.071095 
L 62.649449 203.807169 
L 62.848819 203.777102 
L 62.981732 203.691299 
L 63.114646 203.241738 
L 63.314016 201.615041 
L 63.912126 195.639211 
L 64.045039 195.495323 
L 64.244409 195.602221 
L 64.377322 195.275688 
L 64.576692 193.385636 
L 65.108346 185.727518 
L 65.174802 185.936041 
L 65.307716 187.91697 
L 65.573542 197.643471 
L 66.105196 218.565482 
L 66.238109 219.484307 
L 66.371022 218.473292 
L 67.035589 208.956418 
L 67.168502 209.073433 
L 67.301416 209.297701 
L 67.367872 209.247388 
L 67.500785 208.475164 
L 67.700155 205.07776 
L 68.630549 183.36834 
L 68.697005 183.358097 
L 68.896375 183.974189 
L 69.095745 184.503226 
L 69.162202 184.493929 
L 69.295115 184.130364 
L 69.893225 181.109932 
L 69.959682 181.216643 
L 70.159052 182.43885 
L 70.890075 189.763818 
L 70.956532 189.756243 
L 71.089445 189.195298 
L 71.355272 186.440928 
L 71.754012 182.482776 
L 71.953382 182.039 
L 72.219209 181.99869 
L 72.352122 181.347577 
L 72.551492 178.66835 
L 73.282515 163.534529 
L 73.348972 163.595989 
L 73.481885 164.782585 
L 74.146452 173.794706 
L 74.279365 173.510484 
L 74.412278 173.162754 
L 74.478735 173.217706 
L 74.611648 174.301689 
L 74.811018 179.361761 
L 75.209758 199.713703 
L 75.542042 212.302424 
L 75.608498 212.96613 
L 75.674955 212.929495 
L 75.807868 210.940546 
L 76.206608 197.304477 
L 76.538892 190.010898 
L 76.738262 189.11616 
L 76.937632 188.878756 
L 77.070545 188.165846 
L 77.269915 185.61363 
L 77.934482 174.834943 
L 78.067395 174.646165 
L 78.200308 175.15345 
L 78.931331 179.381826 
L 79.197158 179.543972 
L 79.462985 179.642609 
L 79.662355 179.993954 
L 79.928181 181.031059 
L 80.393378 183.125152 
L 80.526291 183.093819 
L 80.659205 182.554359 
L 80.925031 180.187794 
L 81.323771 177.087205 
L 81.390228 177.016044 
L 81.456685 177.090881 
L 81.722511 178.200171 
L 81.855425 178.550251 
L 81.921881 178.486983 
L 82.054795 177.716084 
L 82.320621 173.84056 
L 82.652905 169.951116 
L 82.719361 170.201414 
L 82.852275 172.239169 
L 83.118101 182.033818 
L 83.649755 204.167613 
L 83.849125 206.679512 
L 83.982038 206.911192 
L 84.114951 206.854492 
L 84.247865 207.267116 
L 84.447234 209.746719 
L 85.111801 220.858657 
L 85.244714 219.78317 
L 85.909281 210.753938 
L 85.975738 210.78521 
L 86.241564 211.381852 
L 86.308021 211.246158 
L 86.440934 210.146509 
L 86.640304 206.044066 
L 87.371328 187.084997 
L 87.437784 186.981208 
L 87.570698 187.735459 
L 87.902981 192.655499 
L 88.235264 196.716873 
L 88.434634 197.475782 
L 88.501091 197.456621 
L 88.634004 197.073401 
L 88.899831 195.252743 
L 89.564398 189.896492 
L 90.096051 187.786356 
L 90.361877 184.342322 
L 90.893531 176.608301 
L 90.959987 176.503638 
L 91.092901 177.136313 
L 91.358727 180.730388 
L 91.691011 184.445146 
L 91.823924 184.636877 
L 92.089751 184.102803 
L 92.156207 184.243823 
L 92.289121 185.435029 
L 92.488491 190.121869 
L 93.219514 214.180564 
L 93.285971 214.111211 
L 93.418884 212.445107 
L 94.149907 197.837009 
L 94.282821 197.849 
L 94.482191 198.022292 
L 94.615104 197.323638 
L 94.814474 194.211813 
L 95.611954 177.240192 
L 95.67841 177.317318 
L 95.811324 178.2356 
L 96.67526 187.339362 
L 96.87463 187.467873 
L 97.27337 187.298232 
L 97.47274 187.871303 
L 98.07085 190.770086 
L 98.203764 190.284808 
L 98.403134 188.165659 
L 99.001244 180.481897 
L 99.0677 180.433814 
L 99.200614 180.903861 
L 99.599354 182.837194 
L 99.732267 182.125887 
L 99.998094 178.38226 
L 100.26392 175.519196 
L 100.330377 175.657782 
L 100.46329 177.422402 
L 100.729117 186.607424 
L 101.26077 207.331649 
L 101.46014 209.368741 
L 101.593053 209.476658 
L 101.725967 209.559508 
L 101.85888 210.433443 
L 102.05825 214.209245 
L 102.65636 229.596799 
L 102.722817 229.5733 
L 102.85573 227.894121 
L 103.121557 219.73828 
L 103.586753 205.880293 
L 103.85258 203.388459 
L 104.184863 201.611787 
L 104.517147 197.476143 
L 104.915887 192.771315 
L 105.115257 192.063707 
L 105.24817 192.13012 
L 105.912737 193.184078 
L 106.112107 192.949952 
L 106.377933 192.12263 
L 106.710217 190.136114 
L 107.24187 187.136364 
L 107.906436 185.226879 
L 108.305176 183.620024 
L 108.43809 183.591041 
L 108.703916 183.912284 
L 108.770373 183.836091 
L 108.903286 183.140336 
L 109.102656 180.22009 
L 109.700766 167.158068 
L 109.767223 167.367875 
L 109.900136 169.835909 
L 110.165963 182.487175 
L 110.764073 215.504662 
L 110.963443 217.534403 
L 111.096356 216.452831 
L 111.62801 209.776124 
L 111.694466 209.741537 
L 111.82738 210.161935 
L 112.093206 211.314789 
L 112.159663 211.311535 
L 112.292576 210.69296 
L 112.491946 208.229626 
L 113.156513 198.366889 
L 113.289426 197.991924 
L 113.355883 198.018858 
L 113.555253 198.682082 
L 113.953993 200.159046 
L 114.086906 200.101864 
L 114.286276 199.357899 
L 114.751473 197.216807 
L 114.817929 197.253381 
L 114.950843 197.757051 
L 115.482496 201.778874 
L 115.548953 201.692589 
L 115.681866 200.5977 
L 115.881236 196.554969 
L 116.678716 177.041532 
L 117.143913 174.059646 
L 117.409739 168.977701 
L 117.874936 160.014869 
L 118.007849 159.438954 
L 118.074306 159.476975 
L 118.340132 160.226363 
L 118.406589 160.175327 
L 118.539502 159.377675 
L 118.805329 155.163398 
L 119.071156 151.469 
L 119.137612 151.459178 
L 119.270526 153.151372 
L 119.469896 160.159179 
L 120.200919 193.087538 
L 120.333832 193.778629 
L 120.466746 193.085652 
L 120.799029 190.734873 
L 120.865486 190.779914 
L 120.998399 191.56293 
L 121.530052 196.262794 
L 121.662966 195.670026 
L 121.928792 192.306214 
L 122.327532 187.632441 
L 122.526902 187.248751 
L 122.659816 187.585135 
L 123.058556 189.727847 
L 123.856035 194.736089 
L 123.922492 194.676033 
L 124.055405 194.076131 
L 124.321232 191.301581 
L 124.786429 186.571072 
L 124.985799 186.061672 
L 125.450995 185.869526 
L 125.982649 184.981407 
L 126.314932 185.149705 
L 126.447845 184.782489 
L 126.647215 183.263979 
L 127.245325 177.434634 
L 127.311782 177.456386 
L 127.444695 177.969094 
L 127.776979 179.440936 
L 127.909892 178.891413 
L 128.109262 176.362642 
L 128.441545 171.917048 
L 128.508002 171.94139 
L 128.640915 173.664917 
L 128.840285 180.833845 
L 129.637765 217.908645 
L 129.704222 217.976914 
L 129.837135 216.665289 
L 130.435245 207.584237 
L 130.501702 207.53754 
L 130.634615 207.886354 
L 130.900442 208.499085 
L 131.033355 207.89238 
L 131.232725 205.507919 
L 131.897292 195.966943 
L 132.229575 194.661385 
L 132.495402 193.501144 
L 133.625165 186.91929 
L 134.422645 184.504485 
L 134.754928 181.935362 
L 135.419495 176.39289 
L 136.682171 171.848297 
L 136.881541 171.852997 
L 137.014455 171.442843 
L 137.213825 169.553917 
L 137.811935 160.536374 
L 137.878391 160.687553 
L 138.011305 162.431988 
L 138.277131 171.259909 
L 138.808785 191.583634 
L 139.074611 194.478856 
L 139.340438 195.526541 
L 139.539808 198.265962 
L 140.204375 212.640875 
L 140.270831 212.358099 
L 140.403745 210.218996 
L 140.736028 198.710401 
L 141.134768 187.485004 
L 141.334138 186.423562 
L 141.467051 186.792894 
L 141.666421 187.4279 
L 141.732878 187.391989 
L 141.865791 186.722757 
L 142.131618 183.295552 
L 142.463901 179.274332 
L 142.530358 179.082481 
L 142.596814 179.17455 
L 142.729728 180.20828 
L 142.995554 184.866664 
L 143.460751 192.525716 
L 143.593664 193.073986 
L 143.660121 193.058639 
L 143.793034 192.58479 
L 144.324688 189.890098 
L 144.457601 189.8685 
L 144.856341 190.284749 
L 144.989254 190.019134 
L 145.255081 188.606158 
L 145.653821 186.469874 
L 145.853191 186.32504 
L 146.119017 186.38462 
L 146.251931 185.930004 
L 146.451301 184.057642 
L 147.115867 175.473041 
L 147.182324 175.598552 
L 147.315237 176.643248 
L 147.979804 184.11859 
L 148.112717 183.775662 
L 148.312087 183.108702 
L 148.378544 183.202157 
L 148.511457 184.374196 
L 148.710827 189.32571 
L 149.508307 218.568856 
L 149.574764 218.433283 
L 149.707677 216.587922 
L 150.505157 199.89983 
L 150.638071 199.864641 
L 150.770984 199.918931 
L 150.903897 199.511126 
L 151.103267 197.313154 
L 151.900747 183.964091 
L 152.03366 184.657382 
L 152.299487 188.665358 
L 152.83114 196.859255 
L 152.964054 197.335268 
L 153.03051 197.294957 
L 153.163424 196.742843 
L 153.960904 191.594787 
L 154.359644 191.180813 
L 154.559014 190.217981 
L 155.290037 185.772926 
L 155.489407 185.877414 
L 155.62232 185.904986 
L 155.755234 185.602965 
L 155.954604 184.283634 
L 156.486257 179.913755 
L 156.552714 179.895679 
L 156.685627 180.330778 
L 157.084367 182.46006 
L 157.150824 182.410711 
L 157.283737 181.717722 
L 157.682477 178.047485 
L 157.748933 178.074901 
L 157.881847 179.482391 
L 158.081217 185.565764 
L 158.878697 219.930312 
L 158.945153 219.876686 
L 159.078067 218.073683 
L 159.942003 199.88808 
L 160.20783 198.660691 
L 160.4072 196.459706 
L 161.271137 183.584052 
L 161.40405 183.497948 
L 161.669877 184.040445 
L 161.869247 184.278211 
L 162.00216 184.176928 
L 162.267987 183.462458 
L 164.726883 174.926651 
L 165.059166 174.486611 
L 165.39145 173.288506 
L 165.723733 172.34811 
L 165.856646 172.402821 
L 166.18893 172.850273 
L 166.321843 172.417162 
L 166.521213 170.345724 
L 167.119323 161.12458 
L 167.18578 161.388556 
L 167.318693 163.469574 
L 167.58452 173.484093 
L 168.18263 199.338918 
L 168.382 201.692529 
L 168.448456 201.83009 
L 168.514913 201.771161 
L 168.780739 201.227121 
L 168.913653 201.620524 
L 169.179479 204.111395 
L 169.445306 206.292255 
L 169.511763 206.334494 
L 169.644676 205.5601 
L 169.844046 202.353162 
L 170.442156 190.934582 
L 170.575069 190.387209 
L 170.641526 190.399893 
L 170.840896 191.088412 
L 171.106723 191.86518 
L 171.239636 191.659229 
L 171.505463 190.168276 
L 171.837746 188.600548 
L 171.904203 188.599482 
L 172.037116 188.996217 
L 172.302943 191.032688 
L 172.701683 193.907593 
L 172.834596 194.015647 
L 172.967509 193.609826 
L 173.299793 191.248129 
L 173.632076 189.385806 
L 173.831446 189.119775 
L 174.030816 189.060533 
L 174.163729 188.794098 
L 174.363099 187.662936 
L 174.828296 182.515434 
L 175.160579 180.358315 
L 175.625776 179.434188 
L 175.825146 177.669507 
L 176.423256 171.459714 
L 176.489712 171.564136 
L 176.689082 173.071046 
L 177.087822 176.89433 
L 177.154279 177.013936 
L 177.220736 176.928374 
L 177.420106 175.792271 
L 177.619476 174.848742 
L 177.685932 174.997872 
L 177.818846 176.478452 
L 178.018216 182.222717 
L 178.815696 213.240952 
L 178.882152 213.164489 
L 179.015066 211.51146 
L 179.812545 196.762968 
L 179.945459 197.007241 
L 180.344199 198.155696 
L 180.477112 197.900276 
L 181.208135 195.475427 
L 181.739789 195.53682 
L 182.005615 195.050408 
L 182.670182 193.136211 
L 183.401205 190.969361 
L 183.799945 189.848842 
L 184.597425 186.842954 
L 184.796795 186.845894 
L 185.129079 187.256934 
L 185.461362 188.008202 
L 185.860102 188.961034 
L 185.993015 188.578465 
L 186.192385 186.43912 
L 186.524668 178.434019 
L 186.856952 170.807637 
L 186.923408 170.35181 
L 186.989865 170.447555 
L 187.122778 172.449398 
L 187.388605 183.153231 
L 187.986715 210.195195 
L 188.119628 211.525861 
L 188.186085 211.507483 
L 188.318998 210.519004 
L 188.717738 206.828402 
L 188.784195 206.795503 
L 188.917108 207.272178 
L 189.249392 208.696178 
L 189.382305 207.866711 
L 189.581675 204.215636 
L 190.379155 185.090559 
L 190.512068 184.769721 
L 190.644982 185.011408 
L 190.910808 185.609376 
L 191.043721 185.421219 
L 191.243091 184.378137 
L 191.774745 181.10481 
L 191.907658 180.983939 
L 192.040571 181.168198 
L 192.572225 182.323945 
L 192.705138 182.061113 
L 192.904508 181.002498 
L 193.834901 174.496131 
L 194.233641 173.863095 
L 194.499468 172.629138 
L 194.898208 170.847767 
L 195.031121 170.853612 
L 195.429861 171.750323 
L 195.496318 171.68579 
L 195.629231 171.118733 
L 195.895058 168.409499 
L 196.160885 165.95695 
L 196.227341 165.88115 
L 196.360255 166.770871 
L 196.559625 170.945801 
L 197.357104 193.780033 
L 197.556474 194.560453 
L 197.689388 194.839522 
L 197.822301 195.637542 
L 198.021671 198.562958 
L 198.619781 210.419463 
L 198.686238 210.434166 
L 198.819151 209.167912 
L 199.084978 202.539409 
L 199.550174 190.519866 
L 199.749544 189.157055 
L 199.816001 189.219382 
L 200.015371 190.359317 
L 200.414111 192.872476 
L 200.547024 193.00382 
L 200.679938 192.78242 
L 201.543874 190.415281 
L 201.809701 190.24868 
L 202.009071 189.787266 
L 202.274897 188.414584 
L 203.005921 183.995767 
L 203.404661 182.79363 
L 203.670487 180.793113 
L 204.268597 175.231239 
L 204.401511 174.989015 
L 204.534424 175.135795 
L 204.866707 175.703998 
L 204.999621 175.435442 
L 205.531274 173.212524 
L 205.597731 173.319597 
L 205.797101 174.54307 
L 206.328754 178.894787 
L 206.461667 178.92865 
L 206.661037 178.767951 
L 206.793951 179.344047 
L 206.993321 182.656731 
L 207.259147 192.686934 
L 207.857257 217.406784 
L 207.99017 218.408097 
L 208.123084 217.477402 
L 208.455367 210.891921 
L 208.78765 206.357149 
L 208.920564 205.98351 
L 208.98702 206.000984 
L 209.252847 206.260079 
L 209.38576 205.933438 
L 209.58513 204.558907 
L 210.18324 199.634649 
L 210.449067 199.17846 
L 210.78135 198.891889 
L 211.113634 198.130088 
L 211.645287 196.401922 
L 212.110484 193.654577 
L 212.509224 191.77478 
L 212.907964 190.220886 
L 213.240247 187.225246 
L 213.705443 182.787545 
L 213.904813 182.311412 
L 214.037727 182.453673 
L 214.37001 183.021755 
L 214.502923 182.953366 
L 214.96812 182.226211 
L 215.034577 182.272246 
L 215.433317 182.96855 
L 215.499773 182.911489 
L 215.632687 182.436862 
L 215.96497 179.637306 
L 216.16434 178.678653 
L 216.230797 178.871167 
L 216.36371 180.348493 
L 216.56308 185.560365 
L 217.36056 212.456254 
L 217.427017 212.728606 
L 217.493473 212.64437 
L 217.692843 210.907888 
L 218.091583 207.088401 
L 218.224497 206.944934 
L 218.423867 207.539287 
L 218.623237 208.09592 
L 218.689693 208.088991 
L 218.822607 207.658652 
L 219.088433 205.311308 
L 219.55363 201.231279 
L 219.686543 200.995562 
L 219.819456 201.144391 
L 220.284653 202.045742 
L 220.417566 201.811532 
L 220.683393 200.667294 
L 221.082133 199.097176 
L 221.281503 199.007156 
L 221.680243 199.325482 
L 221.813156 199.086391 
L 222.012526 198.092007 
L 223.14229 190.411322 
L 223.408116 188.410017 
L 224.404966 178.273199 
L 224.670793 176.819915 
L 224.936619 173.740537 
L 225.401816 168.023808 
L 225.534729 167.827257 
L 225.667643 168.47355 
L 226.265753 173.188784 
L 226.398666 173.046824 
L 226.598036 172.757119 
L 226.730949 173.367018 
L 226.930319 176.778942 
L 227.262603 189.423424 
L 227.661343 204.414115 
L 227.860713 206.201752 
L 227.993626 204.927304 
L 228.392366 195.68718 
L 228.658193 191.684777 
L 228.791106 191.179011 
L 228.924019 191.387986 
L 229.256303 192.179782 
L 229.389216 191.802997 
L 229.655043 189.832446 
L 229.987326 187.613027 
L 230.120239 187.472338 
L 230.253152 187.77836 
L 231.050632 190.801539 
L 231.449372 191.078753 
L 231.715199 191.799683 
L 232.446222 194.297537 
L 232.579136 194.191784 
L 232.778506 193.526746 
L 233.509529 190.184859 
L 233.708899 190.141715 
L 233.908269 190.156033 
L 234.041182 189.993746 
L 234.307009 189.151276 
L 234.639292 188.179856 
L 234.838662 188.138575 
L 234.971576 188.153247 
L 235.104489 187.889759 
L 235.303859 186.336561 
L 235.569686 181.587451 
L 235.968425 174.775352 
L 236.034882 174.777521 
L 236.167795 176.419282 
L 236.367165 183.116234 
L 237.164645 216.161318 
L 237.231102 216.090519 
L 237.364015 214.55577 
L 238.095039 202.554413 
L 238.427322 201.835754 
L 238.626692 199.982981 
L 239.025432 192.35108 
L 239.357715 187.161261 
L 239.557085 186.121096 
L 239.689999 186.04456 
L 239.955825 186.149072 
L 240.088739 185.884367 
L 240.354565 184.443266 
L 240.753305 182.086119 
L 240.886219 181.931686 
L 241.019132 182.230309 
L 241.284959 183.925021 
L 241.750155 186.882698 
L 241.816612 186.924605 
L 241.949525 186.581671 
L 242.148895 185.064818 
L 242.813462 178.663108 
L 243.012832 178.297602 
L 243.278658 178.127142 
L 243.478028 177.323585 
L 244.142595 172.739946 
L 244.209052 172.760132 
L 244.408422 173.387685 
L 244.674248 174.053259 
L 244.807162 173.600685 
L 245.072988 170.977616 
L 245.338815 168.858095 
L 245.405272 168.984931 
L 245.538185 170.477261 
L 245.737555 176.045943 
L 246.535035 203.306392 
L 246.601492 203.423888 
L 246.734405 202.762291 
L 247.133145 199.775163 
L 247.199601 199.831862 
L 247.332515 200.567452 
L 247.797711 204.072229 
L 247.930625 203.360982 
L 248.129995 200.257442 
L 248.794561 187.909505 
L 248.993931 187.475068 
L 249.193301 188.048488 
L 249.525585 188.969078 
L 249.658498 188.987034 
L 250.256608 188.61986 
L 250.455978 189.060497 
L 251.253458 191.590159 
L 251.319915 191.561165 
L 251.519285 191.105386 
L 252.117395 189.123873 
L 252.250308 189.16293 
L 252.582591 189.411347 
L 252.715504 189.09762 
L 252.914874 187.847641 
L 253.512984 183.412687 
L 253.645898 183.438657 
L 253.911724 183.761141 
L 254.044638 183.291093 
L 254.244008 181.08571 
L 254.775661 172.908539 
L 254.842118 172.972952 
L 254.975031 174.464437 
L 255.240858 182.279356 
L 255.772511 198.415093 
L 255.971881 199.552039 
L 256.171251 199.493954 
L 256.304164 200.040766 
L 256.503534 203.020423 
L 257.168101 217.974444 
L 257.234558 217.688836 
L 257.367471 215.637765 
L 257.766211 202.959385 
L 258.098494 195.602643 
L 258.297864 194.4126 
L 258.563691 193.727804 
L 258.763061 191.750226 
L 259.095344 184.976075 
L 259.494084 178.468063 
L 259.560541 178.222164 
L 259.626997 178.251929 
L 259.759911 179.059704 
L 260.092194 183.591885 
L 260.424477 187.259814 
L 260.623847 187.688785 
L 260.756761 187.284428 
L 261.554241 183.467037 
L 261.952981 183.153291 
L 262.152351 182.423064 
L 262.816917 179.343564 
L 262.949831 179.434007 
L 263.282114 179.923215 
L 263.415027 179.710998 
L 263.614397 178.747103 
L 264.013137 176.690247 
L 264.079594 176.691512 
L 264.212507 177.119984 
L 264.677704 179.868624 
L 264.74416 179.807345 
L 264.877074 179.054703 
L 265.34227 174.692321 
L 265.475184 175.805587 
L 265.674554 181.650477 
L 266.073294 204.792394 
L 266.405577 220.685666 
L 266.604947 223.231609 
L 266.73786 222.100447 
L 267.53534 209.622534 
L 267.867624 209.696708 
L 268.000537 209.159959 
L 268.266364 206.633357 
L 268.73156 202.091837 
L 268.997387 201.362634 
L 269.263214 200.952842 
L 269.52904 199.836984 
L 270.32652 195.608041 
L 270.72526 194.896294 
L 271.057543 194.268283 
L 271.32337 193.04883 
L 271.655653 190.113703 
L 272.187307 185.303276 
L 272.51959 184.224976 
L 272.71896 183.498731 
L 272.984787 181.562566 
L 273.449983 177.979036 
L 273.582897 177.786582 
L 273.71581 177.95644 
L 273.91518 178.274706 
L 273.981637 178.224333 
L 274.11455 177.676135 
L 274.380377 174.707806 
L 274.71266 171.264187 
L 274.779117 171.35945 
L 274.91203 172.830148 
L 275.1114 178.360388 
L 275.842423 203.786321 
L 275.975336 204.48877 
L 276.041793 204.435746 
L 276.374076 203.479443 
L 276.50699 204.072832 
L 276.772816 207.570559 
L 277.1051 211.756998 
L 277.171556 211.925772 
L 277.238013 211.78815 
L 277.370926 210.6174 
L 277.769666 203.152923 
L 278.10195 198.997515 
L 278.30132 198.598147 
L 278.70006 198.957988 
L 278.89943 198.412562 
L 279.49754 196.162228 
L 279.630453 196.185487 
L 279.829823 196.560753 
L 280.427933 197.926969 
L 280.560846 197.893528 
L 280.760216 197.409923 
L 281.026043 195.929344 
L 281.690609 191.838939 
L 282.089349 190.283443 
L 282.421633 187.523567 
L 282.886829 183.784519 
L 283.086199 183.41799 
L 283.352026 183.361772 
L 283.484939 183.015789 
L 283.750766 181.220078 
L 284.149506 178.489574 
L 284.215963 178.458061 
L 284.348876 178.887014 
L 284.946986 182.733617 
L 285.013443 182.668602 
L 285.345726 181.861128 
L 285.478639 182.55002 
L 285.678009 186.126627 
L 286.076749 200.903734 
L 286.409032 210.064382 
L 286.475489 210.515148 
L 286.541946 210.443083 
L 286.674859 208.870194 
L 287.073599 198.530782 
L 287.405882 193.223117 
L 287.605252 192.61273 
L 287.738166 192.437576 
L 287.871079 191.852828 
L 288.070449 189.555407 
L 288.934386 175.788957 
L 289.067299 176.16103 
L 289.399582 178.938291 
L 289.731866 181.165547 
L 289.931236 181.420847 
L 290.130606 181.003221 
L 290.595802 179.712806 
L 290.728716 179.7445 
L 290.928086 180.169777 
L 291.193912 180.760937 
L 291.326826 180.663505 
L 291.526196 179.680388 
L 292.257219 173.967516 
L 292.323675 173.980772 
L 292.722415 174.669845 
L 292.788872 174.524812 
L 292.988242 173.220117 
L 293.519895 168.837669 
L 293.652809 169.589407 
L 293.918635 173.852972 
L 294.317375 180.420618 
L 294.516745 181.251109 
L 294.716115 181.388671 
L 294.849029 182.189516 
L 295.048399 185.980937 
L 295.380682 199.788961 
L 295.845879 217.445407 
L 295.978792 218.276681 
L 296.111705 217.06996 
L 296.909185 204.10784 
L 297.108555 204.677789 
L 297.307925 205.009733 
L 297.440839 204.518536 
L 297.706665 201.710665 
L 298.171862 196.76815 
L 298.304775 196.648243 
L 298.437688 197.200598 
L 298.769972 200.426938 
L 299.235168 204.411283 
L 299.368082 204.69454 
L 299.434538 204.662846 
L 299.567452 204.270889 
L 299.833278 202.507715 
L 300.298475 199.341811 
L 300.564302 198.702809 
L 300.830128 198.18492 
L 301.095955 196.904989 
L 301.627608 194.049601 
L 302.092805 193.175178 
L 302.292175 191.512292 
L 302.956742 183.772951 
L 303.023198 183.814225 
L 303.156112 184.525466 
L 303.687765 188.555706 
L 303.820678 188.152156 
L 304.152961 186.439614 
L 304.219418 186.60217 
L 304.352331 188.018017 
L 304.551701 193.241272 
L 305.282725 216.486332 
L 305.349181 216.312015 
L 305.482095 214.587464 
L 306.279575 199.328675 
L 306.611858 197.526878 
L 306.877685 193.689235 
L 307.608708 180.78311 
L 307.741621 180.415557 
L 307.874535 180.619941 
L 308.539101 182.797848 
L 308.672015 182.611299 
L 308.937841 181.547864 
L 309.602408 178.277658 
L 309.934691 177.862383 
L 310.134061 177.461628 
L 310.399888 176.024071 
L 310.997998 172.206632 
L 311.130911 172.196208 
L 311.529651 172.755432 
L 311.662564 172.450422 
L 311.994848 170.513956 
L 312.194218 169.807409 
L 312.260674 169.85272 
L 312.393588 170.444663 
L 312.991698 175.002873 
L 313.058154 174.883208 
L 313.456894 172.970843 
L 313.523351 173.217586 
L 313.656264 174.979615 
L 313.855634 181.412471 
L 314.719571 216.81936 
L 314.852484 215.374452 
L 315.583507 201.344618 
L 315.649964 201.322565 
L 315.982247 202.20849 
L 316.048704 202.120217 
L 316.181617 201.353656 
L 316.447444 197.702822 
L 316.912641 191.55967 
L 317.045554 191.384112 
L 317.178467 192.014449 
L 317.510751 195.791282 
L 317.975947 200.457427 
L 318.108861 200.777079 
L 318.241774 200.551846 
L 318.441144 199.339039 
L 319.105711 194.32614 
L 319.703821 192.530922 
L 320.036104 189.171564 
L 320.434844 185.868713 
L 320.567757 185.682056 
L 320.70067 185.884879 
L 321.032954 186.597162 
L 321.165867 186.480557 
L 321.69752 185.04735 
L 321.763977 185.09744 
L 322.162717 185.874268 
L 322.229174 185.770256 
L 322.362087 185.123693 
L 322.827284 180.951763 
L 322.89374 180.960079 
L 323.026654 182.17861 
L 323.226024 187.502881 
L 324.023504 217.522834 
L 324.08996 217.487525 
L 324.222874 215.951571 
L 325.020354 201.090524 
L 325.352637 199.990332 
L 325.552007 197.962821 
L 326.415943 185.283645 
L 326.4824 185.302583 
L 326.615313 185.79278 
L 327.346337 189.748068 
L 327.47925 189.618072 
L 328.07736 188.271238 
L 328.143817 188.334993 
L 328.343187 188.857155 
L 328.67547 189.672209 
L 328.808383 189.378738 
L 329.007753 187.8474 
L 329.805233 179.151954 
L 329.938147 179.234443 
L 330.336887 180.175863 
L 330.403343 180.14911 
L 330.602713 179.679304 
L 330.86854 179.045243 
L 331.001453 179.161234 
L 331.26728 180.267149 
L 331.46665 180.757382 
L 331.599563 180.289684 
L 331.798933 178.12672 
L 332.197673 173.388709 
L 332.26413 173.538262 
L 332.397043 175.322947 
L 332.596413 181.884567 
L 333.327436 212.199509 
L 333.46035 212.864842 
L 333.593263 212.1689 
L 333.992003 209.487744 
L 334.124916 210.093124 
L 334.590113 214.434658 
L 334.65657 214.4161 
L 334.789483 213.424066 
L 335.05531 208.090196 
L 335.586963 196.298223 
L 335.85279 194.359587 
L 336.384443 192.478941 
L 337.181923 187.528092 
L 337.314836 187.466337 
L 337.447749 187.668781 
L 337.979403 188.971259 
L 338.112316 188.633086 
L 338.311686 187.17001 
L 339.308536 177.346963 
L 339.507906 176.015515 
L 339.773733 172.270743 
L 340.371843 162.61944 
L 340.504756 162.43012 
L 340.704126 163.246391 
L 340.903496 163.777536 
L 341.036409 163.174507 
L 341.235779 160.488531 
L 341.634519 154.840493 
L 341.700976 155.029874 
L 341.833889 157.106132 
L 342.099716 167.963734 
L 342.697826 197.099913 
L 342.897196 199.376156 
L 342.963652 199.278242 
L 343.163022 197.579601 
L 343.495306 194.941022 
L 343.561762 194.874127 
L 343.694676 195.200364 
L 344.226329 197.469937 
L 344.359242 197.29562 
L 344.957352 195.805677 
L 345.156722 195.93784 
L 345.489006 196.554005 
L 345.821289 197.662571 
L 346.220029 199.097237 
L 346.352942 199.069881 
L 346.485856 198.605799 
L 346.751682 196.518635 
L 347.216879 192.678691 
L 347.615619 191.426489 
L 347.881446 190.067282 
L 348.546012 185.968748 
L 348.811839 185.348214 
L 349.011209 184.022664 
L 349.277035 180.192674 
L 349.742232 173.006574 
L 349.941602 172.37655 
L 350.273885 173.015009 
L 350.340342 172.878653 
L 350.473255 171.993089 
L 350.805539 167.029545 
L 351.004909 165.030594 
L 351.071365 165.099827 
L 351.204279 166.768943 
L 351.403649 173.327671 
L 352.201129 206.134629 
L 352.267585 206.349798 
L 352.400499 205.599868 
L 353.065065 198.914243 
L 353.197979 199.273542 
L 353.596719 200.835044 
L 353.729632 200.719475 
L 353.929002 199.856507 
L 354.394198 197.627925 
L 354.460655 197.620755 
L 354.593568 197.971136 
L 354.792938 199.438459 
L 355.258135 205.662111 
L 355.590418 208.95696 
L 355.789788 209.496662 
L 356.055615 209.620546 
L 356.188528 210.107163 
L 356.387898 211.935111 
L 356.919552 217.787594 
L 357.052465 216.972829 
L 357.251835 213.1152 
L 357.916402 197.56761 
L 358.115772 197.088645 
L 358.248685 196.975547 
L 358.381598 196.20049 
L 358.580968 192.810685 
L 359.311991 176.137711 
L 359.444905 176.978747 
L 359.843645 180.5016 
L 359.976558 179.500468 
L 360.508211 170.613256 
L 360.574668 171.101078 
L 360.707581 174.287288 
L 360.973408 188.521144 
L 361.438605 214.831014 
L 361.637975 217.556396 
L 361.770888 216.569363 
L 362.236085 211.090038 
L 362.368998 211.739042 
L 362.767738 215.46387 
L 362.834195 215.374934 
L 362.967108 214.082891 
L 363.232935 207.870146 
L 363.631675 198.605859 
L 363.831045 197.057493 
L 364.163328 196.042984 
L 364.362698 193.631529 
L 364.827895 182.758803 
L 365.093721 178.757286 
L 365.226634 178.308207 
L 365.359548 178.773796 
L 365.691831 182.013452 
L 366.090571 185.310555 
L 366.289941 185.798618 
L 366.422854 185.575109 
L 366.622224 184.342038 
L 367.020964 179.528064 
L 367.353248 176.627883 
L 367.486161 176.477006 
L 367.619074 176.82106 
L 368.017814 178.026878 
L 368.150728 177.697405 
L 368.615924 175.606445 
L 368.748838 175.999969 
L 369.014664 178.610626 
L 369.346948 181.869744 
L 369.479861 182.14788 
L 369.612774 181.870949 
L 369.812144 181.366557 
L 369.878601 181.471943 
L 370.011514 182.509469 
L 370.210884 186.635026 
L 371.008364 207.955527 
L 371.074821 207.930461 
L 371.274191 206.749709 
L 371.473561 205.737972 
L 371.540017 205.766412 
L 371.672931 206.522488 
L 372.138127 211.457894 
L 372.204584 211.433551 
L 372.337497 210.272382 
L 372.603324 203.988957 
L 373.134977 190.790103 
L 373.400804 189.241014 
L 373.666631 188.563684 
L 373.932457 186.536438 
L 374.464111 182.120886 
L 374.862851 180.415255 
L 375.128677 177.339853 
L 375.660331 170.004863 
L 375.793244 169.554218 
L 375.859701 169.590612 
L 376.059071 170.401219 
L 376.391354 171.765145 
L 376.524267 171.746466 
L 376.923007 171.153861 
L 377.05592 171.623486 
L 377.25529 173.455954 
L 378.185684 184.456016 
L 378.25214 184.459246 
L 378.385054 184.027641 
L 378.65088 181.82606 
L 379.04962 178.208787 
L 379.116077 178.040074 
L 379.182534 178.095508 
L 379.315447 178.956127 
L 379.581274 183.501684 
L 380.112927 193.994383 
L 380.378754 195.565875 
L 380.578124 196.809605 
L 380.777494 200.243583 
L 381.109777 212.166068 
L 381.508517 225.459588 
L 381.64143 226.260434 
L 381.774343 224.769069 
L 382.04017 216.808635 
L 382.505367 203.301571 
L 382.771193 201.103599 
L 383.03702 199.90471 
L 383.23639 197.697881 
L 383.967413 187.416488 
L 384.03387 187.346731 
L 384.166783 187.700945 
L 384.897807 191.557091 
L 384.964263 191.535556 
L 385.097177 191.246581 
L 385.363003 189.756265 
L 385.8282 185.137485 
L 386.22694 181.921563 
L 386.492767 181.309014 
L 386.692137 181.416629 
L 387.556073 182.396009 
L 387.688986 182.165836 
L 387.888356 180.960741 
L 388.22064 176.686511 
L 388.552923 173.084242 
L 388.61938 173.000488 
L 388.752293 173.754757 
L 388.951663 177.117875 
L 389.682686 192.098673 
L 390.081426 195.514327 
L 390.347253 201.456511 
L 390.945363 216.976746 
L 391.01182 217.207461 
L 391.078276 216.999522 
L 391.277646 214.106993 
L 391.942213 201.48001 
L 392.075126 201.157045 
L 392.40741 201.190426 
L 392.540323 200.495508 
L 392.80615 197.141549 
L 393.271346 190.526524 
L 393.404259 190.179055 
L 393.537173 190.837379 
L 393.802999 194.677262 
L 394.334653 202.947514 
L 394.467566 203.204862 
L 394.600479 202.509402 
L 394.866306 199.079883 
L 395.331503 193.307335 
L 395.597329 192.333233 
L 395.796699 191.731095 
L 395.996069 190.268196 
L 396.394809 184.680483 
L 396.727093 181.103304 
L 396.992919 180.317161 
L 397.192289 179.838979 
L 397.391659 178.478126 
L 397.989769 172.832438 
L 398.056226 172.884618 
L 398.189139 173.567244 
L 398.654336 177.032795 
L 398.720792 176.973685 
L 398.853706 176.275393 
L 399.185989 173.908768 
L 399.252446 174.037412 
L 399.385359 175.580656 
L 399.584729 181.64168 
L 400.382209 213.622123 
L 400.448666 213.610554 
L 400.581579 212.184747 
L 401.246146 200.8721 
L 401.379059 200.728694 
L 401.644886 201.076786 
L 401.777799 200.722488 
L 401.977169 198.981367 
L 402.708192 190.365489 
L 402.841106 190.197162 
L 402.974019 190.399782 
L 403.439216 191.396856 
L 403.572129 191.245912 
L 403.771499 190.543739 
L 404.635435 186.613883 
L 404.901262 186.477075 
L 405.034175 186.11037 
L 405.233545 184.589426 
L 405.499372 180.257448 
L 406.163939 167.644083 
L 406.363309 166.874329 
L 406.496222 167.153489 
L 407.227245 169.838259 
L 407.360159 169.80066 
L 407.559529 169.449074 
L 407.758899 168.564173 
L 408.024725 166.231591 
L 408.489922 161.684769 
L 408.556379 161.568236 
L 408.622835 161.695856 
L 408.755749 162.738323 
L 409.021575 167.629682 
L 409.553229 178.38696 
L 409.819055 180.100967 
L 410.084882 181.113969 
L 410.284252 182.907451 
L 411.081732 192.105693 
L 411.214645 191.653457 
L 411.613385 188.256741 
L 411.879212 186.886228 
L 412.012125 186.853727 
L 412.211495 187.44338 
L 412.809605 189.825944 
L 413.008975 189.950496 
L 413.341258 189.896874 
L 413.474172 190.147632 
L 413.673542 191.224829 
L 414.005825 194.937774 
L 414.338108 198.417382 
L 414.471022 198.70528 
L 414.603935 198.087608 
L 414.736848 196.613597 
L 414.736848 196.613597 
" style="fill:none;stroke:#1f77b4;stroke-linecap:square;stroke-width:1.5;"/>
   </g>
   <g id="patch_3">
    <path d="M 57.6 305.0208 
L 57.6 41.1264 
" style="fill:none;stroke:#000000;stroke-linecap:square;stroke-linejoin:miter;stroke-width:0.8;"/>
   </g>
   <g id="patch_4">
    <path d="M 414.72 305.0208 
L 414.72 41.1264 
" style="fill:none;stroke:#000000;stroke-linecap:square;stroke-linejoin:miter;stroke-width:0.8;"/>
   </g>
   <g id="patch_5">
    <path d="M 57.6 305.0208 
L 414.72 305.0208 
" style="fill:none;stroke:#000000;stroke-linecap:square;stroke-linejoin:miter;stroke-width:0.8;"/>
   </g>
   <g id="patch_6">
    <path d="M 57.6 41.1264 
L 414.72 41.1264 
" style="fill:none;stroke:#000000;stroke-linecap:square;stroke-linejoin:miter;stroke-width:0.8;"/>
   </g>
   <g id="text_16">
    <!-- Filtered Output Example -->
    <defs>
     <path d="M 9.8125 72.90625 
L 51.703125 72.90625 
L 51.703125 64.59375 
L 19.671875 64.59375 
L 19.671875 43.109375 
L 48.578125 43.109375 
L 48.578125 34.8125 
L 19.671875 34.8125 
L 19.671875 0 
L 9.8125 0 
z
" id="DejaVuSans-46"/>
     <path d="M 9.421875 75.984375 
L 18.40625 75.984375 
L 18.40625 0 
L 9.421875 0 
z
" id="DejaVuSans-6c"/>
     <path d="M 41.109375 46.296875 
Q 39.59375 47.171875 37.8125 47.578125 
Q 36.03125 48 33.890625 48 
Q 26.265625 48 22.1875 43.046875 
Q 18.109375 38.09375 18.109375 28.8125 
L 18.109375 0 
L 9.078125 0 
L 9.078125 54.6875 
L 18.109375 54.6875 
L 18.109375 46.1875 
Q 20.953125 51.171875 25.484375 53.578125 
Q 30.03125 56 36.53125 56 
Q 37.453125 56 38.578125 55.875 
Q 39.703125 55.765625 41.0625 55.515625 
z
" id="DejaVuSans-72"/>
     <path d="M 39.40625 66.21875 
Q 28.65625 66.21875 22.328125 58.203125 
Q 16.015625 50.203125 16.015625 36.375 
Q 16.015625 22.609375 22.328125 14.59375 
Q 28.65625 6.59375 39.40625 6.59375 
Q 50.140625 6.59375 56.421875 14.59375 
Q 62.703125 22.609375 62.703125 36.375 
Q 62.703125 50.203125 56.421875 58.203125 
Q 50.140625 66.21875 39.40625 66.21875 
z
M 39.40625 74.21875 
Q 54.734375 74.21875 63.90625 63.9375 
Q 73.09375 53.65625 73.09375 36.375 
Q 73.09375 19.140625 63.90625 8.859375 
Q 54.734375 -1.421875 39.40625 -1.421875 
Q 24.03125 -1.421875 14.8125 8.828125 
Q 5.609375 19.09375 5.609375 36.375 
Q 5.609375 53.65625 14.8125 63.9375 
Q 24.03125 74.21875 39.40625 74.21875 
z
" id="DejaVuSans-4f"/>
     <path d="M 8.5 21.578125 
L 8.5 54.6875 
L 17.484375 54.6875 
L 17.484375 21.921875 
Q 17.484375 14.15625 20.5 10.265625 
Q 23.53125 6.390625 29.59375 6.390625 
Q 36.859375 6.390625 41.078125 11.03125 
Q 45.3125 15.671875 45.3125 23.6875 
L 45.3125 54.6875 
L 54.296875 54.6875 
L 54.296875 0 
L 45.3125 0 
L 45.3125 8.40625 
Q 42.046875 3.421875 37.71875 1 
Q 33.40625 -1.421875 27.6875 -1.421875 
Q 18.265625 -1.421875 13.375 4.4375 
Q 8.5 10.296875 8.5 21.578125 
z
M 31.109375 56 
z
" id="DejaVuSans-75"/>
     <path d="M 18.109375 8.203125 
L 18.109375 -20.796875 
L 9.078125 -20.796875 
L 9.078125 54.6875 
L 18.109375 54.6875 
L 18.109375 46.390625 
Q 20.953125 51.265625 25.265625 53.625 
Q 29.59375 56 35.59375 56 
Q 45.5625 56 51.78125 48.09375 
Q 58.015625 40.1875 58.015625 27.296875 
Q 58.015625 14.40625 51.78125 6.484375 
Q 45.5625 -1.421875 35.59375 -1.421875 
Q 29.59375 -1.421875 25.265625 0.953125 
Q 20.953125 3.328125 18.109375 8.203125 
z
M 48.6875 27.296875 
Q 48.6875 37.203125 44.609375 42.84375 
Q 40.53125 48.484375 33.40625 48.484375 
Q 26.265625 48.484375 22.1875 42.84375 
Q 18.109375 37.203125 18.109375 27.296875 
Q 18.109375 17.390625 22.1875 11.75 
Q 26.265625 6.109375 33.40625 6.109375 
Q 40.53125 6.109375 44.609375 11.75 
Q 48.6875 17.390625 48.6875 27.296875 
z
" id="DejaVuSans-70"/>
     <path d="M 9.8125 72.90625 
L 55.90625 72.90625 
L 55.90625 64.59375 
L 19.671875 64.59375 
L 19.671875 43.015625 
L 54.390625 43.015625 
L 54.390625 34.71875 
L 19.671875 34.71875 
L 19.671875 8.296875 
L 56.78125 8.296875 
L 56.78125 0 
L 9.8125 0 
z
" id="DejaVuSans-45"/>
     <path d="M 54.890625 54.6875 
L 35.109375 28.078125 
L 55.90625 0 
L 45.3125 0 
L 29.390625 21.484375 
L 13.484375 0 
L 2.875 0 
L 24.125 28.609375 
L 4.6875 54.6875 
L 15.28125 54.6875 
L 29.78125 35.203125 
L 44.28125 54.6875 
z
" id="DejaVuSans-78"/>
     <path d="M 34.28125 27.484375 
Q 23.390625 27.484375 19.1875 25 
Q 14.984375 22.515625 14.984375 16.5 
Q 14.984375 11.71875 18.140625 8.90625 
Q 21.296875 6.109375 26.703125 6.109375 
Q 34.1875 6.109375 38.703125 11.40625 
Q 43.21875 16.703125 43.21875 25.484375 
L 43.21875 27.484375 
z
M 52.203125 31.203125 
L 52.203125 0 
L 43.21875 0 
L 43.21875 8.296875 
Q 40.140625 3.328125 35.546875 0.953125 
Q 30.953125 -1.421875 24.3125 -1.421875 
Q 15.921875 -1.421875 10.953125 3.296875 
Q 6 8.015625 6 15.921875 
Q 6 25.140625 12.171875 29.828125 
Q 18.359375 34.515625 30.609375 34.515625 
L 43.21875 34.515625 
L 43.21875 35.40625 
Q 43.21875 41.609375 39.140625 45 
Q 35.0625 48.390625 27.6875 48.390625 
Q 23 48.390625 18.546875 47.265625 
Q 14.109375 46.140625 10.015625 43.890625 
L 10.015625 52.203125 
Q 14.9375 54.109375 19.578125 55.046875 
Q 24.21875 56 28.609375 56 
Q 40.484375 56 46.34375 49.84375 
Q 52.203125 43.703125 52.203125 31.203125 
z
" id="DejaVuSans-61"/>
     <path d="M 52 44.1875 
Q 55.375 50.25 60.0625 53.125 
Q 64.75 56 71.09375 56 
Q 79.640625 56 84.28125 50.015625 
Q 88.921875 44.046875 88.921875 33.015625 
L 88.921875 0 
L 79.890625 0 
L 79.890625 32.71875 
Q 79.890625 40.578125 77.09375 44.375 
Q 74.3125 48.1875 68.609375 48.1875 
Q 61.625 48.1875 57.5625 43.546875 
Q 53.515625 38.921875 53.515625 30.90625 
L 53.515625 0 
L 44.484375 0 
L 44.484375 32.71875 
Q 44.484375 40.625 41.703125 44.40625 
Q 38.921875 48.1875 33.109375 48.1875 
Q 26.21875 48.1875 22.15625 43.53125 
Q 18.109375 38.875 18.109375 30.90625 
L 18.109375 0 
L 9.078125 0 
L 9.078125 54.6875 
L 18.109375 54.6875 
L 18.109375 46.1875 
Q 21.1875 51.21875 25.484375 53.609375 
Q 29.78125 56 35.6875 56 
Q 41.65625 56 45.828125 52.96875 
Q 50 49.953125 52 44.1875 
z
" id="DejaVuSans-6d"/>
    </defs>
    <g transform="translate(162.685313 35.1264)scale(0.12 -0.12)">
     <use xlink:href="#DejaVuSans-46"/>
     <use x="57.410156" xlink:href="#DejaVuSans-69"/>
     <use x="85.193359" xlink:href="#DejaVuSans-6c"/>
     <use x="112.976562" xlink:href="#DejaVuSans-74"/>
     <use x="152.185547" xlink:href="#DejaVuSans-65"/>
     <use x="213.708984" xlink:href="#DejaVuSans-72"/>
     <use x="254.791016" xlink:href="#DejaVuSans-65"/>
     <use x="316.314453" xlink:href="#DejaVuSans-64"/>
     <use x="379.791016" xlink:href="#DejaVuSans-20"/>
     <use x="411.578125" xlink:href="#DejaVuSans-4f"/>
     <use x="490.289062" xlink:href="#DejaVuSans-75"/>
     <use x="553.667969" xlink:href="#DejaVuSans-74"/>
     <use x="592.876953" xlink:href="#DejaVuSans-70"/>
     <use x="656.353516" xlink:href="#DejaVuSans-75"/>
     <use x="719.732422" xlink:href="#DejaVuSans-74"/>
     <use x="758.941406" xlink:href="#DejaVuSans-20"/>
     <use x="790.728516" xlink:href="#DejaVuSans-45"/>
     <use x="853.912109" xlink:href="#DejaVuSans-78"/>
     <use x="913.091797" xlink:href="#DejaVuSans-61"/>
     <use x="974.371094" xlink:href="#DejaVuSans-6d"/>
     <use x="1071.783203" xlink:href="#DejaVuSans-70"/>
     <use x="1135.259766" xlink:href="#DejaVuSans-6c"/>
     <use x="1163.042969" xlink:href="#DejaVuSans-65"/>
    </g>
   </g>
  </g>
 </g>
 <defs>
  <clipPath id="p3acbcc339e">
   <rect height="263.8944" width="357.12" x="57.6" y="41.1264"/>
  </clipPath>
 </defs>
</svg>
