<?xml version="1.0" encoding="utf-8" standalone="no"?>
<!DOCTYPE svg PUBLIC "-//W3C//DTD SVG 1.1//EN"
  "http://www.w3.org/Graphics/SVG/1.1/DTD/svg11.dtd">
<!-- Created with matplotlib (http://matplotlib.org/) -->
<svg height="342.72pt" version="1.1" viewBox="0 0 460.8 342.72" width="460.8pt" xmlns="http://www.w3.org/2000/svg" xmlns:xlink="http://www.w3.org/1999/xlink">
 <defs>
  <style type="text/css">
*{stroke-linecap:butt;stroke-linejoin:round;}
  </style>
 </defs>
 <g id="figure_1">
  <g id="patch_1">
   <path d="M 0 342.72 
L 460.8 342.72 
L 460.8 0 
L 0 0 
z
" style="fill:#ffffff;"/>
  </g>
  <g id="axes_1">
   <g id="patch_2">
    <path d="M 57.6 305.0208 
L 414.72 305.0208 
L 414.72 41.1264 
L 57.6 41.1264 
z
" style="fill:#ffffff;"/>
   </g>
   <g id="matplotlib.axis_1">
    <g id="xtick_1">
     <g id="line2d_1">
      <defs>
       <path d="M 0 0 
L 0 3.5 
" id="m9ce141957c" style="stroke:#000000;stroke-width:0.8;"/>
      </defs>
      <g>
       <use style="stroke:#000000;stroke-width:0.8;" x="73.832727" xlink:href="#m9ce141957c" y="305.0208"/>
      </g>
     </g>
     <g id="text_1">
      <!-- 0 -->
      <defs>
       <path d="M 31.78125 66.40625 
Q 24.171875 66.40625 20.328125 58.90625 
Q 16.5 51.421875 16.5 36.375 
Q 16.5 21.390625 20.328125 13.890625 
Q 24.171875 6.390625 31.78125 6.390625 
Q 39.453125 6.390625 43.28125 13.890625 
Q 47.125 21.390625 47.125 36.375 
Q 47.125 51.421875 43.28125 58.90625 
Q 39.453125 66.40625 31.78125 66.40625 
z
M 31.78125 74.21875 
Q 44.046875 74.21875 50.515625 64.515625 
Q 56.984375 54.828125 56.984375 36.375 
Q 56.984375 17.96875 50.515625 8.265625 
Q 44.046875 -1.421875 31.78125 -1.421875 
Q 19.53125 -1.421875 13.0625 8.265625 
Q 6.59375 17.96875 6.59375 36.375 
Q 6.59375 54.828125 13.0625 64.515625 
Q 19.53125 74.21875 31.78125 74.21875 
z
" id="DejaVuSans-30"/>
      </defs>
      <g transform="translate(70.651477 319.619237)scale(0.1 -0.1)">
       <use xlink:href="#DejaVuSans-30"/>
      </g>
     </g>
    </g>
    <g id="xtick_2">
     <g id="line2d_2">
      <g>
       <use style="stroke:#000000;stroke-width:0.8;" x="123.421019" xlink:href="#m9ce141957c" y="305.0208"/>
      </g>
     </g>
     <g id="text_2">
      <!-- 5 -->
      <defs>
       <path d="M 10.796875 72.90625 
L 49.515625 72.90625 
L 49.515625 64.59375 
L 19.828125 64.59375 
L 19.828125 46.734375 
Q 21.96875 47.46875 24.109375 47.828125 
Q 26.265625 48.1875 28.421875 48.1875 
Q 40.625 48.1875 47.75 41.5 
Q 54.890625 34.8125 54.890625 23.390625 
Q 54.890625 11.625 47.5625 5.09375 
Q 40.234375 -1.421875 26.90625 -1.421875 
Q 22.3125 -1.421875 17.546875 -0.640625 
Q 12.796875 0.140625 7.71875 1.703125 
L 7.71875 11.625 
Q 12.109375 9.234375 16.796875 8.0625 
Q 21.484375 6.890625 26.703125 6.890625 
Q 35.15625 6.890625 40.078125 11.328125 
Q 45.015625 15.765625 45.015625 23.390625 
Q 45.015625 31 40.078125 35.4375 
Q 35.15625 39.890625 26.703125 39.890625 
Q 22.75 39.890625 18.8125 39.015625 
Q 14.890625 38.140625 10.796875 36.28125 
z
" id="DejaVuSans-35"/>
      </defs>
      <g transform="translate(120.239769 319.619237)scale(0.1 -0.1)">
       <use xlink:href="#DejaVuSans-35"/>
      </g>
     </g>
    </g>
    <g id="xtick_3">
     <g id="line2d_3">
      <g>
       <use style="stroke:#000000;stroke-width:0.8;" x="173.009311" xlink:href="#m9ce141957c" y="305.0208"/>
      </g>
     </g>
     <g id="text_3">
      <!-- 10 -->
      <defs>
       <path d="M 12.40625 8.296875 
L 28.515625 8.296875 
L 28.515625 63.921875 
L 10.984375 60.40625 
L 10.984375 69.390625 
L 28.421875 72.90625 
L 38.28125 72.90625 
L 38.28125 8.296875 
L 54.390625 8.296875 
L 54.390625 0 
L 12.40625 0 
z
" id="DejaVuSans-31"/>
      </defs>
      <g transform="translate(166.646811 319.619237)scale(0.1 -0.1)">
       <use xlink:href="#DejaVuSans-31"/>
       <use x="63.623047" xlink:href="#DejaVuSans-30"/>
      </g>
     </g>
    </g>
    <g id="xtick_4">
     <g id="line2d_4">
      <g>
       <use style="stroke:#000000;stroke-width:0.8;" x="222.597602" xlink:href="#m9ce141957c" y="305.0208"/>
      </g>
     </g>
     <g id="text_4">
      <!-- 15 -->
      <g transform="translate(216.235102 319.619237)scale(0.1 -0.1)">
       <use xlink:href="#DejaVuSans-31"/>
       <use x="63.623047" xlink:href="#DejaVuSans-35"/>
      </g>
     </g>
    </g>
    <g id="xtick_5">
     <g id="line2d_5">
      <g>
       <use style="stroke:#000000;stroke-width:0.8;" x="272.185894" xlink:href="#m9ce141957c" y="305.0208"/>
      </g>
     </g>
     <g id="text_5">
      <!-- 20 -->
      <defs>
       <path d="M 19.1875 8.296875 
L 53.609375 8.296875 
L 53.609375 0 
L 7.328125 0 
L 7.328125 8.296875 
Q 12.9375 14.109375 22.625 23.890625 
Q 32.328125 33.6875 34.8125 36.53125 
Q 39.546875 41.84375 41.421875 45.53125 
Q 43.3125 49.21875 43.3125 52.78125 
Q 43.3125 58.59375 39.234375 62.25 
Q 35.15625 65.921875 28.609375 65.921875 
Q 23.96875 65.921875 18.8125 64.3125 
Q 13.671875 62.703125 7.8125 59.421875 
L 7.8125 69.390625 
Q 13.765625 71.78125 18.9375 73 
Q 24.125 74.21875 28.421875 74.21875 
Q 39.75 74.21875 46.484375 68.546875 
Q 53.21875 62.890625 53.21875 53.421875 
Q 53.21875 48.921875 51.53125 44.890625 
Q 49.859375 40.875 45.40625 35.40625 
Q 44.1875 33.984375 37.640625 27.21875 
Q 31.109375 20.453125 19.1875 8.296875 
z
" id="DejaVuSans-32"/>
      </defs>
      <g transform="translate(265.823394 319.619237)scale(0.1 -0.1)">
       <use xlink:href="#DejaVuSans-32"/>
       <use x="63.623047" xlink:href="#DejaVuSans-30"/>
      </g>
     </g>
    </g>
    <g id="xtick_6">
     <g id="line2d_6">
      <g>
       <use style="stroke:#000000;stroke-width:0.8;" x="321.774186" xlink:href="#m9ce141957c" y="305.0208"/>
      </g>
     </g>
     <g id="text_6">
      <!-- 25 -->
      <g transform="translate(315.411686 319.619237)scale(0.1 -0.1)">
       <use xlink:href="#DejaVuSans-32"/>
       <use x="63.623047" xlink:href="#DejaVuSans-35"/>
      </g>
     </g>
    </g>
    <g id="xtick_7">
     <g id="line2d_7">
      <g>
       <use style="stroke:#000000;stroke-width:0.8;" x="371.362477" xlink:href="#m9ce141957c" y="305.0208"/>
      </g>
     </g>
     <g id="text_7">
      <!-- 30 -->
      <defs>
       <path d="M 40.578125 39.3125 
Q 47.65625 37.796875 51.625 33 
Q 55.609375 28.21875 55.609375 21.1875 
Q 55.609375 10.40625 48.1875 4.484375 
Q 40.765625 -1.421875 27.09375 -1.421875 
Q 22.515625 -1.421875 17.65625 -0.515625 
Q 12.796875 0.390625 7.625 2.203125 
L 7.625 11.71875 
Q 11.71875 9.328125 16.59375 8.109375 
Q 21.484375 6.890625 26.8125 6.890625 
Q 36.078125 6.890625 40.9375 10.546875 
Q 45.796875 14.203125 45.796875 21.1875 
Q 45.796875 27.640625 41.28125 31.265625 
Q 36.765625 34.90625 28.71875 34.90625 
L 20.21875 34.90625 
L 20.21875 43.015625 
L 29.109375 43.015625 
Q 36.375 43.015625 40.234375 45.921875 
Q 44.09375 48.828125 44.09375 54.296875 
Q 44.09375 59.90625 40.109375 62.90625 
Q 36.140625 65.921875 28.71875 65.921875 
Q 24.65625 65.921875 20.015625 65.03125 
Q 15.375 64.15625 9.8125 62.3125 
L 9.8125 71.09375 
Q 15.4375 72.65625 20.34375 73.4375 
Q 25.25 74.21875 29.59375 74.21875 
Q 40.828125 74.21875 47.359375 69.109375 
Q 53.90625 64.015625 53.90625 55.328125 
Q 53.90625 49.265625 50.4375 45.09375 
Q 46.96875 40.921875 40.578125 39.3125 
z
" id="DejaVuSans-33"/>
      </defs>
      <g transform="translate(364.999977 319.619237)scale(0.1 -0.1)">
       <use xlink:href="#DejaVuSans-33"/>
       <use x="63.623047" xlink:href="#DejaVuSans-30"/>
      </g>
     </g>
    </g>
    <g id="text_8">
     <!-- Seconds -->
     <defs>
      <path d="M 53.515625 70.515625 
L 53.515625 60.890625 
Q 47.90625 63.578125 42.921875 64.890625 
Q 37.9375 66.21875 33.296875 66.21875 
Q 25.25 66.21875 20.875 63.09375 
Q 16.5 59.96875 16.5 54.203125 
Q 16.5 49.359375 19.40625 46.890625 
Q 22.3125 44.4375 30.421875 42.921875 
L 36.375 41.703125 
Q 47.40625 39.59375 52.65625 34.296875 
Q 57.90625 29 57.90625 20.125 
Q 57.90625 9.515625 50.796875 4.046875 
Q 43.703125 -1.421875 29.984375 -1.421875 
Q 24.8125 -1.421875 18.96875 -0.25 
Q 13.140625 0.921875 6.890625 3.21875 
L 6.890625 13.375 
Q 12.890625 10.015625 18.65625 8.296875 
Q 24.421875 6.59375 29.984375 6.59375 
Q 38.421875 6.59375 43.015625 9.90625 
Q 47.609375 13.234375 47.609375 19.390625 
Q 47.609375 24.75 44.3125 27.78125 
Q 41.015625 30.8125 33.5 32.328125 
L 27.484375 33.5 
Q 16.453125 35.6875 11.515625 40.375 
Q 6.59375 45.0625 6.59375 53.421875 
Q 6.59375 63.09375 13.40625 68.65625 
Q 20.21875 74.21875 32.171875 74.21875 
Q 37.3125 74.21875 42.625 73.28125 
Q 47.953125 72.359375 53.515625 70.515625 
z
" id="DejaVuSans-53"/>
      <path d="M 56.203125 29.59375 
L 56.203125 25.203125 
L 14.890625 25.203125 
Q 15.484375 15.921875 20.484375 11.0625 
Q 25.484375 6.203125 34.421875 6.203125 
Q 39.59375 6.203125 44.453125 7.46875 
Q 49.3125 8.734375 54.109375 11.28125 
L 54.109375 2.78125 
Q 49.265625 0.734375 44.1875 -0.34375 
Q 39.109375 -1.421875 33.890625 -1.421875 
Q 20.796875 -1.421875 13.15625 6.1875 
Q 5.515625 13.8125 5.515625 26.8125 
Q 5.515625 40.234375 12.765625 48.109375 
Q 20.015625 56 32.328125 56 
Q 43.359375 56 49.78125 48.890625 
Q 56.203125 41.796875 56.203125 29.59375 
z
M 47.21875 32.234375 
Q 47.125 39.59375 43.09375 43.984375 
Q 39.0625 48.390625 32.421875 48.390625 
Q 24.90625 48.390625 20.390625 44.140625 
Q 15.875 39.890625 15.1875 32.171875 
z
" id="DejaVuSans-65"/>
      <path d="M 48.78125 52.59375 
L 48.78125 44.1875 
Q 44.96875 46.296875 41.140625 47.34375 
Q 37.3125 48.390625 33.40625 48.390625 
Q 24.65625 48.390625 19.8125 42.84375 
Q 14.984375 37.3125 14.984375 27.296875 
Q 14.984375 17.28125 19.8125 11.734375 
Q 24.65625 6.203125 33.40625 6.203125 
Q 37.3125 6.203125 41.140625 7.25 
Q 44.96875 8.296875 48.78125 10.40625 
L 48.78125 2.09375 
Q 45.015625 0.34375 40.984375 -0.53125 
Q 36.96875 -1.421875 32.421875 -1.421875 
Q 20.0625 -1.421875 12.78125 6.34375 
Q 5.515625 14.109375 5.515625 27.296875 
Q 5.515625 40.671875 12.859375 48.328125 
Q 20.21875 56 33.015625 56 
Q 37.15625 56 41.109375 55.140625 
Q 45.0625 54.296875 48.78125 52.59375 
z
" id="DejaVuSans-63"/>
      <path d="M 30.609375 48.390625 
Q 23.390625 48.390625 19.1875 42.75 
Q 14.984375 37.109375 14.984375 27.296875 
Q 14.984375 17.484375 19.15625 11.84375 
Q 23.34375 6.203125 30.609375 6.203125 
Q 37.796875 6.203125 41.984375 11.859375 
Q 46.1875 17.53125 46.1875 27.296875 
Q 46.1875 37.015625 41.984375 42.703125 
Q 37.796875 48.390625 30.609375 48.390625 
z
M 30.609375 56 
Q 42.328125 56 49.015625 48.375 
Q 55.71875 40.765625 55.71875 27.296875 
Q 55.71875 13.875 49.015625 6.21875 
Q 42.328125 -1.421875 30.609375 -1.421875 
Q 18.84375 -1.421875 12.171875 6.21875 
Q 5.515625 13.875 5.515625 27.296875 
Q 5.515625 40.765625 12.171875 48.375 
Q 18.84375 56 30.609375 56 
z
" id="DejaVuSans-6f"/>
      <path d="M 54.890625 33.015625 
L 54.890625 0 
L 45.90625 0 
L 45.90625 32.71875 
Q 45.90625 40.484375 42.875 44.328125 
Q 39.84375 48.1875 33.796875 48.1875 
Q 26.515625 48.1875 22.3125 43.546875 
Q 18.109375 38.921875 18.109375 30.90625 
L 18.109375 0 
L 9.078125 0 
L 9.078125 54.6875 
L 18.109375 54.6875 
L 18.109375 46.1875 
Q 21.34375 51.125 25.703125 53.5625 
Q 30.078125 56 35.796875 56 
Q 45.21875 56 50.046875 50.171875 
Q 54.890625 44.34375 54.890625 33.015625 
z
" id="DejaVuSans-6e"/>
      <path d="M 45.40625 46.390625 
L 45.40625 75.984375 
L 54.390625 75.984375 
L 54.390625 0 
L 45.40625 0 
L 45.40625 8.203125 
Q 42.578125 3.328125 38.25 0.953125 
Q 33.9375 -1.421875 27.875 -1.421875 
Q 17.96875 -1.421875 11.734375 6.484375 
Q 5.515625 14.40625 5.515625 27.296875 
Q 5.515625 40.1875 11.734375 48.09375 
Q 17.96875 56 27.875 56 
Q 33.9375 56 38.25 53.625 
Q 42.578125 51.265625 45.40625 46.390625 
z
M 14.796875 27.296875 
Q 14.796875 17.390625 18.875 11.75 
Q 22.953125 6.109375 30.078125 6.109375 
Q 37.203125 6.109375 41.296875 11.75 
Q 45.40625 17.390625 45.40625 27.296875 
Q 45.40625 37.203125 41.296875 42.84375 
Q 37.203125 48.484375 30.078125 48.484375 
Q 22.953125 48.484375 18.875 42.84375 
Q 14.796875 37.203125 14.796875 27.296875 
z
" id="DejaVuSans-64"/>
      <path d="M 44.28125 53.078125 
L 44.28125 44.578125 
Q 40.484375 46.53125 36.375 47.5 
Q 32.28125 48.484375 27.875 48.484375 
Q 21.1875 48.484375 17.84375 46.4375 
Q 14.5 44.390625 14.5 40.28125 
Q 14.5 37.15625 16.890625 35.375 
Q 19.28125 33.59375 26.515625 31.984375 
L 29.59375 31.296875 
Q 39.15625 29.25 43.1875 25.515625 
Q 47.21875 21.78125 47.21875 15.09375 
Q 47.21875 7.46875 41.1875 3.015625 
Q 35.15625 -1.421875 24.609375 -1.421875 
Q 20.21875 -1.421875 15.453125 -0.5625 
Q 10.6875 0.296875 5.421875 2 
L 5.421875 11.28125 
Q 10.40625 8.6875 15.234375 7.390625 
Q 20.0625 6.109375 24.8125 6.109375 
Q 31.15625 6.109375 34.5625 8.28125 
Q 37.984375 10.453125 37.984375 14.40625 
Q 37.984375 18.0625 35.515625 20.015625 
Q 33.0625 21.96875 24.703125 23.78125 
L 21.578125 24.515625 
Q 13.234375 26.265625 9.515625 29.90625 
Q 5.8125 33.546875 5.8125 39.890625 
Q 5.8125 47.609375 11.28125 51.796875 
Q 16.75 56 26.8125 56 
Q 31.78125 56 36.171875 55.265625 
Q 40.578125 54.546875 44.28125 53.078125 
z
" id="DejaVuSans-73"/>
     </defs>
     <g transform="translate(215.152969 333.297362)scale(0.1 -0.1)">
      <use xlink:href="#DejaVuSans-53"/>
      <use x="63.476562" xlink:href="#DejaVuSans-65"/>
      <use x="125" xlink:href="#DejaVuSans-63"/>
      <use x="179.980469" xlink:href="#DejaVuSans-6f"/>
      <use x="241.162109" xlink:href="#DejaVuSans-6e"/>
      <use x="304.541016" xlink:href="#DejaVuSans-64"/>
      <use x="368.017578" xlink:href="#DejaVuSans-73"/>
     </g>
    </g>
   </g>
   <g id="matplotlib.axis_2">
    <g id="ytick_1">
     <g id="line2d_8">
      <defs>
       <path d="M 0 0 
L -3.5 0 
" id="m92583c5f59" style="stroke:#000000;stroke-width:0.8;"/>
      </defs>
      <g>
       <use style="stroke:#000000;stroke-width:0.8;" x="57.6" xlink:href="#m92583c5f59" y="281.227485"/>
      </g>
     </g>
     <g id="text_9">
      <!-- −1.0 -->
      <defs>
       <path d="M 10.59375 35.5 
L 73.1875 35.5 
L 73.1875 27.203125 
L 10.59375 27.203125 
z
" id="DejaVuSans-2212"/>
       <path d="M 10.6875 12.40625 
L 21 12.40625 
L 21 0 
L 10.6875 0 
z
" id="DejaVuSans-2e"/>
      </defs>
      <g transform="translate(26.317187 285.026704)scale(0.1 -0.1)">
       <use xlink:href="#DejaVuSans-2212"/>
       <use x="83.789062" xlink:href="#DejaVuSans-31"/>
       <use x="147.412109" xlink:href="#DejaVuSans-2e"/>
       <use x="179.199219" xlink:href="#DejaVuSans-30"/>
      </g>
     </g>
    </g>
    <g id="ytick_2">
     <g id="line2d_9">
      <g>
       <use style="stroke:#000000;stroke-width:0.8;" x="57.6" xlink:href="#m92583c5f59" y="227.246359"/>
      </g>
     </g>
     <g id="text_10">
      <!-- −0.5 -->
      <g transform="translate(26.317187 231.045578)scale(0.1 -0.1)">
       <use xlink:href="#DejaVuSans-2212"/>
       <use x="83.789062" xlink:href="#DejaVuSans-30"/>
       <use x="147.412109" xlink:href="#DejaVuSans-2e"/>
       <use x="179.199219" xlink:href="#DejaVuSans-35"/>
      </g>
     </g>
    </g>
    <g id="ytick_3">
     <g id="line2d_10">
      <g>
       <use style="stroke:#000000;stroke-width:0.8;" x="57.6" xlink:href="#m92583c5f59" y="173.265233"/>
      </g>
     </g>
     <g id="text_11">
      <!-- 0.0 -->
      <g transform="translate(34.696875 177.064452)scale(0.1 -0.1)">
       <use xlink:href="#DejaVuSans-30"/>
       <use x="63.623047" xlink:href="#DejaVuSans-2e"/>
       <use x="95.410156" xlink:href="#DejaVuSans-30"/>
      </g>
     </g>
    </g>
    <g id="ytick_4">
     <g id="line2d_11">
      <g>
       <use style="stroke:#000000;stroke-width:0.8;" x="57.6" xlink:href="#m92583c5f59" y="119.284107"/>
      </g>
     </g>
     <g id="text_12">
      <!-- 0.5 -->
      <g transform="translate(34.696875 123.083326)scale(0.1 -0.1)">
       <use xlink:href="#DejaVuSans-30"/>
       <use x="63.623047" xlink:href="#DejaVuSans-2e"/>
       <use x="95.410156" xlink:href="#DejaVuSans-35"/>
      </g>
     </g>
    </g>
    <g id="ytick_5">
     <g id="line2d_12">
      <g>
       <use style="stroke:#000000;stroke-width:0.8;" x="57.6" xlink:href="#m92583c5f59" y="65.302981"/>
      </g>
     </g>
     <g id="text_13">
      <!-- 1.0 -->
      <g transform="translate(34.696875 69.1022)scale(0.1 -0.1)">
       <use xlink:href="#DejaVuSans-31"/>
       <use x="63.623047" xlink:href="#DejaVuSans-2e"/>
       <use x="95.410156" xlink:href="#DejaVuSans-30"/>
      </g>
     </g>
    </g>
    <g id="text_14">
     <!-- Detected Light -->
     <defs>
      <path d="M 19.671875 64.796875 
L 19.671875 8.109375 
L 31.59375 8.109375 
Q 46.6875 8.109375 53.6875 14.9375 
Q 60.6875 21.78125 60.6875 36.53125 
Q 60.6875 51.171875 53.6875 57.984375 
Q 46.6875 64.796875 31.59375 64.796875 
z
M 9.8125 72.90625 
L 30.078125 72.90625 
Q 51.265625 72.90625 61.171875 64.09375 
Q 71.09375 55.28125 71.09375 36.53125 
Q 71.09375 17.671875 61.125 8.828125 
Q 51.171875 0 30.078125 0 
L 9.8125 0 
z
" id="DejaVuSans-44"/>
      <path d="M 18.3125 70.21875 
L 18.3125 54.6875 
L 36.8125 54.6875 
L 36.8125 47.703125 
L 18.3125 47.703125 
L 18.3125 18.015625 
Q 18.3125 11.328125 20.140625 9.421875 
Q 21.96875 7.515625 27.59375 7.515625 
L 36.8125 7.515625 
L 36.8125 0 
L 27.59375 0 
Q 17.1875 0 13.234375 3.875 
Q 9.28125 7.765625 9.28125 18.015625 
L 9.28125 47.703125 
L 2.6875 47.703125 
L 2.6875 54.6875 
L 9.28125 54.6875 
L 9.28125 70.21875 
z
" id="DejaVuSans-74"/>
      <path id="DejaVuSans-20"/>
      <path d="M 9.8125 72.90625 
L 19.671875 72.90625 
L 19.671875 8.296875 
L 55.171875 8.296875 
L 55.171875 0 
L 9.8125 0 
z
" id="DejaVuSans-4c"/>
      <path d="M 9.421875 54.6875 
L 18.40625 54.6875 
L 18.40625 0 
L 9.421875 0 
z
M 9.421875 75.984375 
L 18.40625 75.984375 
L 18.40625 64.59375 
L 9.421875 64.59375 
z
" id="DejaVuSans-69"/>
      <path d="M 45.40625 27.984375 
Q 45.40625 37.75 41.375 43.109375 
Q 37.359375 48.484375 30.078125 48.484375 
Q 22.859375 48.484375 18.828125 43.109375 
Q 14.796875 37.75 14.796875 27.984375 
Q 14.796875 18.265625 18.828125 12.890625 
Q 22.859375 7.515625 30.078125 7.515625 
Q 37.359375 7.515625 41.375 12.890625 
Q 45.40625 18.265625 45.40625 27.984375 
z
M 54.390625 6.78125 
Q 54.390625 -7.171875 48.1875 -13.984375 
Q 42 -20.796875 29.203125 -20.796875 
Q 24.46875 -20.796875 20.265625 -20.09375 
Q 16.0625 -19.390625 12.109375 -17.921875 
L 12.109375 -9.1875 
Q 16.0625 -11.328125 19.921875 -12.34375 
Q 23.78125 -13.375 27.78125 -13.375 
Q 36.625 -13.375 41.015625 -8.765625 
Q 45.40625 -4.15625 45.40625 5.171875 
L 45.40625 9.625 
Q 42.625 4.78125 38.28125 2.390625 
Q 33.9375 0 27.875 0 
Q 17.828125 0 11.671875 7.65625 
Q 5.515625 15.328125 5.515625 27.984375 
Q 5.515625 40.671875 11.671875 48.328125 
Q 17.828125 56 27.875 56 
Q 33.9375 56 38.28125 53.609375 
Q 42.625 51.21875 45.40625 46.390625 
L 45.40625 54.6875 
L 54.390625 54.6875 
z
" id="DejaVuSans-67"/>
      <path d="M 54.890625 33.015625 
L 54.890625 0 
L 45.90625 0 
L 45.90625 32.71875 
Q 45.90625 40.484375 42.875 44.328125 
Q 39.84375 48.1875 33.796875 48.1875 
Q 26.515625 48.1875 22.3125 43.546875 
Q 18.109375 38.921875 18.109375 30.90625 
L 18.109375 0 
L 9.078125 0 
L 9.078125 75.984375 
L 18.109375 75.984375 
L 18.109375 46.1875 
Q 21.34375 51.125 25.703125 53.5625 
Q 30.078125 56 35.796875 56 
Q 45.21875 56 50.046875 50.171875 
Q 54.890625 44.34375 54.890625 33.015625 
z
" id="DejaVuSans-68"/>
     </defs>
     <g transform="translate(20.2375 210.064225)rotate(-90)scale(0.1 -0.1)">
      <use xlink:href="#DejaVuSans-44"/>
      <use x="77.001953" xlink:href="#DejaVuSans-65"/>
      <use x="138.525391" xlink:href="#DejaVuSans-74"/>
      <use x="177.734375" xlink:href="#DejaVuSans-65"/>
      <use x="239.257812" xlink:href="#DejaVuSans-63"/>
      <use x="294.238281" xlink:href="#DejaVuSans-74"/>
      <use x="333.447266" xlink:href="#DejaVuSans-65"/>
      <use x="394.970703" xlink:href="#DejaVuSans-64"/>
      <use x="458.447266" xlink:href="#DejaVuSans-20"/>
      <use x="490.234375" xlink:href="#DejaVuSans-4c"/>
      <use x="545.947266" xlink:href="#DejaVuSans-69"/>
      <use x="573.730469" xlink:href="#DejaVuSans-67"/>
      <use x="637.207031" xlink:href="#DejaVuSans-68"/>
      <use x="700.585938" xlink:href="#DejaVuSans-74"/>
     </g>
    </g>
    <g id="text_15">
     <!-- 1e8 -->
     <defs>
      <path d="M 31.78125 34.625 
Q 24.75 34.625 20.71875 30.859375 
Q 16.703125 27.09375 16.703125 20.515625 
Q 16.703125 13.921875 20.71875 10.15625 
Q 24.75 6.390625 31.78125 6.390625 
Q 38.8125 6.390625 42.859375 10.171875 
Q 46.921875 13.96875 46.921875 20.515625 
Q 46.921875 27.09375 42.890625 30.859375 
Q 38.875 34.625 31.78125 34.625 
z
M 21.921875 38.8125 
Q 15.578125 40.375 12.03125 44.71875 
Q 8.5 49.078125 8.5 55.328125 
Q 8.5 64.0625 14.71875 69.140625 
Q 20.953125 74.21875 31.78125 74.21875 
Q 42.671875 74.21875 48.875 69.140625 
Q 55.078125 64.0625 55.078125 55.328125 
Q 55.078125 49.078125 51.53125 44.71875 
Q 48 40.375 41.703125 38.8125 
Q 48.828125 37.15625 52.796875 32.3125 
Q 56.78125 27.484375 56.78125 20.515625 
Q 56.78125 9.90625 50.3125 4.234375 
Q 43.84375 -1.421875 31.78125 -1.421875 
Q 19.734375 -1.421875 13.25 4.234375 
Q 6.78125 9.90625 6.78125 20.515625 
Q 6.78125 27.484375 10.78125 32.3125 
Q 14.796875 37.15625 21.921875 38.8125 
z
M 18.3125 54.390625 
Q 18.3125 48.734375 21.84375 45.5625 
Q 25.390625 42.390625 31.78125 42.390625 
Q 38.140625 42.390625 41.71875 45.5625 
Q 45.3125 48.734375 45.3125 54.390625 
Q 45.3125 60.0625 41.71875 63.234375 
Q 38.140625 66.40625 31.78125 66.40625 
Q 25.390625 66.40625 21.84375 63.234375 
Q 18.3125 60.0625 18.3125 54.390625 
z
" id="DejaVuSans-38"/>
     </defs>
     <g transform="translate(57.6 38.1264)scale(0.1 -0.1)">
      <use xlink:href="#DejaVuSans-31"/>
      <use x="63.623047" xlink:href="#DejaVuSans-65"/>
      <use x="125.146484" xlink:href="#DejaVuSans-38"/>
     </g>
    </g>
   </g>
   <g id="line2d_13">
    <path clip-path="url(#pb8a2476b5d)" d="M 73.832727 173.181909 
L 76.114137 169.754052 
L 76.510904 169.246932 
L 76.957267 168.733906 
L 77.40363 168.457199 
L 77.899588 168.004027 
L 78.395547 168.013301 
L 78.84191 167.767331 
L 79.486656 168.160065 
L 79.734635 168.106181 
L 79.933019 168.399428 
L 80.379382 169.180233 
L 80.726553 169.264066 
L 80.924936 169.771337 
L 81.371299 171.050279 
L 81.71847 171.336282 
L 81.916854 172.089211 
L 82.363216 173.933447 
L 82.710387 174.426777 
L 82.958367 175.800953 
L 83.355134 177.928468 
L 83.702305 178.618315 
L 83.950284 180.390213 
L 84.347051 183.100648 
L 84.694222 183.958343 
L 84.942201 186.161648 
L 85.338968 189.491204 
L 85.686139 190.463836 
L 85.884523 192.460813 
L 86.330886 197.109452 
L 86.678057 198.113825 
L 86.87644 200.476687 
L 87.322803 205.936446 
L 87.669974 206.844516 
L 87.868358 209.599389 
L 88.265125 215.728622 
L 88.413912 215.991186 
L 88.5627 216.001659 
L 88.661892 216.538447 
L 88.860275 219.72722 
L 89.257042 226.860718 
L 89.356234 226.996426 
L 89.554617 226.546116 
L 89.604213 226.672864 
L 89.753001 228.412567 
L 90.298555 239.131492 
L 90.348151 238.953786 
L 90.59613 237.652841 
L 90.695322 238.549899 
L 90.893706 244.065258 
L 91.191281 252.295761 
L 91.240877 252.502832 
L 91.290472 252.317245 
L 91.588048 248.488688 
L 91.687239 249.26634 
L 91.836027 254.234655 
L 92.183198 267.8908 
L 92.232794 267.814471 
L 92.381582 263.824402 
L 92.629561 256.488907 
L 92.728753 258.916654 
L 92.927136 275.618306 
L 93.175115 293.0256 
L 93.274307 286.966758 
L 93.423095 256.554008 
L 94.117437 53.1216 
L 94.167033 53.745622 
L 94.31582 65.033075 
L 94.613396 88.260614 
L 94.662991 88.858401 
L 94.712587 88.470601 
L 94.910971 81.459964 
L 95.109354 77.518694 
L 95.208546 79.520314 
L 95.704505 96.768579 
L 95.7541 96.484639 
L 96.051676 93.202154 
L 96.101272 93.522262 
L 96.250059 96.866717 
L 96.696422 108.915304 
L 96.746018 108.918219 
L 96.993997 107.539865 
L 97.043593 107.617922 
L 97.142785 108.603185 
L 97.390764 114.905158 
L 97.688339 120.388561 
L 97.737935 120.514229 
L 97.787531 120.478061 
L 97.985915 120.065646 
L 98.085106 120.580194 
L 98.28349 123.967078 
L 98.680257 131.091183 
L 98.829044 131.396176 
L 98.928236 131.412694 
L 99.027428 131.748025 
L 99.176215 133.341332 
L 99.72177 140.996827 
L 100.019345 141.387435 
L 100.168133 142.731457 
L 100.763283 149.471 
L 100.961667 149.742633 
L 101.110454 150.612377 
L 101.804796 156.706954 
L 101.953584 156.954512 
L 102.102371 157.786901 
L 102.846309 163.587184 
L 102.995097 163.84625 
L 103.193481 164.954331 
L 103.689439 168.222424 
L 104.086206 168.956902 
L 104.780548 172.102436 
L 104.978932 172.157789 
L 105.127719 172.528333 
L 105.72287 174.581606 
L 106.020445 174.697331 
L 106.218828 175.236343 
L 106.615595 176.314055 
L 106.813979 176.292592 
L 107.012362 176.306044 
L 107.210746 176.655582 
L 107.557917 177.29257 
L 107.706704 177.241364 
L 108.053876 177.051199 
L 108.252259 177.362228 
L 108.59943 177.945591 
L 108.797814 177.900916 
L 109.095389 177.773909 
L 109.343368 177.962379 
L 109.591347 178.10232 
L 109.789731 177.97338 
L 111.277607 176.359399 
L 111.624778 175.982535 
L 112.31912 175.076818 
L 112.616695 174.663333 
L 113.509421 173.087026 
L 113.906188 173.112112 
L 114.302955 173.125232 
L 115.542851 174.001259 
L 115.890022 174.292573 
L 116.138002 174.226837 
L 116.633961 174.041328 
L 117.179515 173.96327 
L 117.675474 173.844748 
L 118.221028 173.752164 
L 118.716987 173.689774 
L 119.857692 173.636202 
L 121.395164 173.574615 
L 122.188698 174.111247 
L 122.88304 173.795946 
L 123.279807 173.638613 
L 123.874957 173.371672 
L 126.751517 172.903662 
L 127.44586 172.644602 
L 129.380098 173.506673 
L 129.876057 173.484004 
L 131.264741 173.591422 
L 133.050192 173.462319 
L 133.744535 173.366717 
L 134.190897 173.224295 
L 134.488473 173.230616 
L 134.835644 173.579499 
L 135.182815 173.796228 
L 135.579582 173.644931 
L 136.025945 173.612807 
L 136.373116 173.471929 
L 136.968266 173.149115 
L 138.555334 173.254155 
L 139.001697 173.204169 
L 139.646443 173.124574 
L 140.04321 172.980891 
L 140.489573 172.794841 
L 141.531086 173.038092 
L 141.878257 173.441986 
L 142.175832 173.679438 
L 142.423811 173.572676 
L 142.91977 173.259192 
L 143.614112 173.094452 
L 144.060475 172.996105 
L 145.994714 173.126318 
L 146.837844 173.062787 
L 147.23461 172.957612 
L 147.532186 172.926723 
L 147.829761 173.183144 
L 148.276124 173.558349 
L 149.615212 173.695487 
L 150.011979 173.646883 
L 150.35915 173.585639 
L 151.103088 173.227364 
L 152.04541 173.37203 
L 153.930052 173.101849 
L 154.376415 173.166301 
L 154.723586 173.234832 
L 155.467524 173.670102 
L 156.161867 173.410768 
L 156.558633 173.315155 
L 157.153784 173.040695 
L 159.286406 173.197506 
L 159.782365 173.104958 
L 160.327919 173.079265 
L 160.724686 173.042578 
L 161.071857 173.374833 
L 161.419028 173.608948 
L 162.014179 173.773201 
L 162.410946 173.976999 
L 162.658925 173.84398 
L 163.20448 173.5143 
L 166.775382 173.156501 
L 167.221745 173.065927 
L 167.717704 172.878244 
L 167.965683 173.133327 
L 168.461642 173.747632 
L 168.759217 173.704489 
L 169.20558 173.629193 
L 169.701538 173.594571 
L 170.39588 173.414117 
L 172.08214 173.457825 
L 172.478907 173.198322 
L 172.875674 173.028755 
L 173.421228 172.862645 
L 173.867591 172.721038 
L 174.36355 172.666317 
L 174.760317 172.607699 
L 175.008296 172.859012 
L 175.454659 173.32326 
L 175.80183 173.291632 
L 176.198597 173.336874 
L 176.595364 173.358277 
L 177.388898 173.235487 
L 178.579198 173.275928 
L 179.174349 173.197471 
L 180.414245 173.103611 
L 180.910204 173.059568 
L 181.356567 173.02359 
L 181.753334 172.975253 
L 182.001313 173.235291 
L 182.447676 173.756173 
L 182.695655 173.724807 
L 183.191614 173.584351 
L 183.737169 173.526165 
L 184.431511 173.35146 
L 186.514537 173.075331 
L 187.55605 172.948291 
L 188.39918 172.794349 
L 188.696755 172.753945 
L 188.99433 172.984804 
L 189.440693 173.332591 
L 190.135035 173.575517 
L 190.432611 173.668543 
L 190.730186 173.470795 
L 191.126953 173.211075 
L 192.416445 173.151436 
L 192.962 173.322743 
L 195.24341 173.084575 
L 195.640177 173.017048 
L 196.880073 173.408311 
L 197.326436 173.779825 
L 197.574415 173.683824 
L 198.070374 173.445321 
L 198.665525 173.326876 
L 199.161483 173.163511 
L 199.707038 173.368494 
L 200.153401 173.370747 
L 201.442893 173.206944 
L 202.930769 173.130378 
L 203.773899 173.242972 
L 204.319453 173.804219 
L 204.567433 173.709411 
L 205.112987 173.44511 
L 205.658542 173.294975 
L 206.1545 173.151222 
L 207.989548 173.049875 
L 210.766916 172.916435 
L 211.411662 173.477441 
L 212.601963 173.43509 
L 213.097922 173.275104 
L 215.131352 173.281383 
L 217.660742 172.97831 
L 218.1567 173.01337 
L 218.503871 173.051325 
L 218.851042 173.421581 
L 219.198213 173.684362 
L 219.495789 173.565797 
L 219.942151 173.389115 
L 222.074774 173.324132 
L 224.356184 173.246779 
L 224.802546 173.156738 
L 225.348101 172.930026 
L 225.59608 173.145261 
L 226.092039 173.646176 
L 226.43921 173.5936 
L 226.885573 173.598777 
L 227.232744 173.52265 
L 227.927086 173.174225 
L 229.662941 173.114567 
L 231.448393 172.933945 
L 231.993947 172.866836 
L 232.341118 172.869975 
L 232.737885 173.181396 
L 233.085056 173.343114 
L 233.630611 173.47559 
L 234.076974 173.626521 
L 234.424145 173.417751 
L 234.820912 173.252835 
L 236.953534 173.195772 
L 238.986964 172.976177 
L 239.482923 173.027802 
L 240.47484 173.374697 
L 240.921203 173.772726 
L 241.218778 173.694014 
L 241.714737 173.554639 
L 242.409079 173.469874 
L 243.202613 173.419793 
L 244.938468 173.204618 
L 245.583215 173.138071 
L 246.872707 173.093104 
L 247.269474 173.119002 
L 247.666241 173.488746 
L 248.013412 173.675182 
L 249.302905 173.528825 
L 249.898055 173.474006 
L 250.840377 173.428943 
L 251.832294 173.328243 
L 254.460875 172.952557 
L 255.254409 173.152954 
L 255.799963 173.558236 
L 256.147134 173.397674 
L 256.543901 173.289842 
L 257.337435 173.22984 
L 257.982181 173.274005 
L 259.817229 173.28465 
L 262.148234 173.144598 
L 262.792981 173.735419 
L 263.239343 173.532308 
L 264.628028 173.197067 
L 266.661458 173.124289 
L 267.306204 173.055205 
L 269.141252 173.017915 
L 269.785998 173.508463 
L 271.224278 173.291219 
L 271.621045 173.224975 
L 273.654475 173.267798 
L 276.183865 173.086518 
L 276.729419 173.436808 
L 277.274974 173.562851 
L 277.721337 173.764057 
L 278.018912 173.581213 
L 278.465275 173.350825 
L 279.060425 173.205363 
L 279.506788 173.057441 
L 281.341835 173.137615 
L 283.028094 173.052808 
L 283.524053 173.045981 
L 283.92082 173.038065 
L 284.218395 173.38095 
L 284.615162 173.84433 
L 284.863141 173.822147 
L 285.458292 173.619717 
L 286.103038 173.523918 
L 286.846976 173.450603 
L 291.013029 173.018986 
L 291.806563 173.522772 
L 292.302521 173.582762 
L 292.699288 173.650405 
L 294.087973 173.395716 
L 294.980698 173.408894 
L 295.823828 173.316387 
L 298.254025 173.126143 
L 299.097155 173.318138 
L 299.543518 173.635522 
L 299.841093 173.519332 
L 300.287456 173.319488 
L 300.882606 173.18957 
L 301.428161 173.015063 
L 303.263208 173.090983 
L 304.949468 172.916098 
L 306.189364 173.443334 
L 306.586131 173.772116 
L 306.883706 173.676451 
L 307.330069 173.520718 
L 308.024411 173.445046 
L 308.52037 173.405693 
L 309.462691 173.501398 
L 310.900972 173.338429 
L 311.545718 173.227332 
L 311.992081 173.169848 
L 312.686423 173.206237 
L 312.983998 173.287654 
L 313.67834 173.727654 
L 315.562983 173.104259 
L 316.455709 173.09595 
L 318.191564 172.959157 
L 319.877824 173.027896 
L 320.175399 173.369958 
L 320.572166 173.746677 
L 320.820145 173.668758 
L 321.316104 173.470813 
L 321.911254 173.405955 
L 322.407213 173.296736 
L 323.647109 173.380874 
L 325.134985 173.197449 
L 326.374882 173.170873 
L 326.870841 173.151075 
L 327.218012 173.503438 
L 327.565183 173.761083 
L 327.862758 173.649228 
L 328.309121 173.466655 
L 328.904271 173.324309 
L 329.40023 173.183772 
L 331.334469 173.21533 
L 332.078407 173.081772 
L 333.318303 173.071194 
L 333.814262 173.004961 
L 334.111837 173.300641 
L 334.508604 173.665702 
L 334.855775 173.631468 
L 335.252542 173.666035 
L 335.649309 173.670299 
L 336.641227 173.330162 
L 339.269808 172.971103 
L 339.96415 172.782479 
L 340.410512 172.739163 
L 340.807279 172.65467 
L 341.055259 172.873101 
L 341.600813 173.43082 
L 341.99758 173.368292 
L 342.543135 173.398274 
L 344.477374 173.395961 
L 345.816462 173.198727 
L 346.510804 173.048169 
L 346.957167 172.954056 
L 347.453126 172.895758 
L 347.849893 172.851693 
L 348.147468 173.151592 
L 348.544235 173.544558 
L 348.84181 173.516242 
L 349.337769 173.434099 
L 350.081707 173.416337 
L 350.627261 173.464542 
L 351.470391 173.619493 
L 352.511904 173.576867 
L 352.908671 173.39784 
L 353.40463 173.287027 
L 353.950184 173.024423 
L 354.495739 173.037392 
L 354.84291 172.929315 
L 355.041293 173.094797 
L 355.636444 173.761684 
L 356.925936 173.521104 
L 357.322703 173.391306 
L 357.769066 173.284347 
L 358.364216 173.060854 
L 359.554517 173.111628 
L 360.149668 173.036806 
L 362.232694 173.373086 
L 362.629461 173.58966 
L 363.869358 173.481854 
L 364.31572 173.262389 
L 365.803596 173.00268 
L 366.299555 172.905417 
L 369.374499 173.325496 
L 370.168033 173.665103 
L 370.5648 173.91764 
L 370.812779 173.790745 
L 371.308738 173.479658 
L 374.383681 173.115587 
L 375.425195 173.047132 
L 375.871557 172.976863 
L 376.367516 173.242434 
L 377.706604 173.722866 
L 378.500138 173.470621 
L 378.946501 173.37586 
L 379.44246 173.282943 
L 380.434377 173.430629 
L 381.079123 173.303634 
L 381.674274 173.140471 
L 382.765383 172.960337 
L 383.906088 173.073144 
L 384.699622 173.665437 
L 385.393964 173.46419 
L 385.889923 173.377686 
L 386.435477 173.272662 
L 387.526586 173.217525 
L 388.468908 173.040866 
L 389.014462 172.853582 
L 390.452742 172.78723 
L 390.849509 172.795756 
L 392.188598 173.231836 
L 392.63496 173.297565 
L 393.626878 173.250473 
L 395.412329 173.327742 
L 395.957884 173.201413 
L 397.296972 173.096609 
L 397.892122 173.061011 
L 398.388081 173.056829 
L 398.487273 173.040673 
L 398.487273 173.040673 
" style="fill:none;stroke:#1f77b4;stroke-linecap:square;stroke-width:1.5;"/>
   </g>
   <g id="patch_3">
    <path d="M 57.6 305.0208 
L 57.6 41.1264 
" style="fill:none;stroke:#000000;stroke-linecap:square;stroke-linejoin:miter;stroke-width:0.8;"/>
   </g>
   <g id="patch_4">
    <path d="M 414.72 305.0208 
L 414.72 41.1264 
" style="fill:none;stroke:#000000;stroke-linecap:square;stroke-linejoin:miter;stroke-width:0.8;"/>
   </g>
   <g id="patch_5">
    <path d="M 57.6 305.0208 
L 414.72 305.0208 
" style="fill:none;stroke:#000000;stroke-linecap:square;stroke-linejoin:miter;stroke-width:0.8;"/>
   </g>
   <g id="patch_6">
    <path d="M 57.6 41.1264 
L 414.72 41.1264 
" style="fill:none;stroke:#000000;stroke-linecap:square;stroke-linejoin:miter;stroke-width:0.8;"/>
   </g>
   <g id="text_16">
    <!-- Filtered Output Example -->
    <defs>
     <path d="M 9.8125 72.90625 
L 51.703125 72.90625 
L 51.703125 64.59375 
L 19.671875 64.59375 
L 19.671875 43.109375 
L 48.578125 43.109375 
L 48.578125 34.8125 
L 19.671875 34.8125 
L 19.671875 0 
L 9.8125 0 
z
" id="DejaVuSans-46"/>
     <path d="M 9.421875 75.984375 
L 18.40625 75.984375 
L 18.40625 0 
L 9.421875 0 
z
" id="DejaVuSans-6c"/>
     <path d="M 41.109375 46.296875 
Q 39.59375 47.171875 37.8125 47.578125 
Q 36.03125 48 33.890625 48 
Q 26.265625 48 22.1875 43.046875 
Q 18.109375 38.09375 18.109375 28.8125 
L 18.109375 0 
L 9.078125 0 
L 9.078125 54.6875 
L 18.109375 54.6875 
L 18.109375 46.1875 
Q 20.953125 51.171875 25.484375 53.578125 
Q 30.03125 56 36.53125 56 
Q 37.453125 56 38.578125 55.875 
Q 39.703125 55.765625 41.0625 55.515625 
z
" id="DejaVuSans-72"/>
     <path d="M 39.40625 66.21875 
Q 28.65625 66.21875 22.328125 58.203125 
Q 16.015625 50.203125 16.015625 36.375 
Q 16.015625 22.609375 22.328125 14.59375 
Q 28.65625 6.59375 39.40625 6.59375 
Q 50.140625 6.59375 56.421875 14.59375 
Q 62.703125 22.609375 62.703125 36.375 
Q 62.703125 50.203125 56.421875 58.203125 
Q 50.140625 66.21875 39.40625 66.21875 
z
M 39.40625 74.21875 
Q 54.734375 74.21875 63.90625 63.9375 
Q 73.09375 53.65625 73.09375 36.375 
Q 73.09375 19.140625 63.90625 8.859375 
Q 54.734375 -1.421875 39.40625 -1.421875 
Q 24.03125 -1.421875 14.8125 8.828125 
Q 5.609375 19.09375 5.609375 36.375 
Q 5.609375 53.65625 14.8125 63.9375 
Q 24.03125 74.21875 39.40625 74.21875 
z
" id="DejaVuSans-4f"/>
     <path d="M 8.5 21.578125 
L 8.5 54.6875 
L 17.484375 54.6875 
L 17.484375 21.921875 
Q 17.484375 14.15625 20.5 10.265625 
Q 23.53125 6.390625 29.59375 6.390625 
Q 36.859375 6.390625 41.078125 11.03125 
Q 45.3125 15.671875 45.3125 23.6875 
L 45.3125 54.6875 
L 54.296875 54.6875 
L 54.296875 0 
L 45.3125 0 
L 45.3125 8.40625 
Q 42.046875 3.421875 37.71875 1 
Q 33.40625 -1.421875 27.6875 -1.421875 
Q 18.265625 -1.421875 13.375 4.4375 
Q 8.5 10.296875 8.5 21.578125 
z
M 31.109375 56 
z
" id="DejaVuSans-75"/>
     <path d="M 18.109375 8.203125 
L 18.109375 -20.796875 
L 9.078125 -20.796875 
L 9.078125 54.6875 
L 18.109375 54.6875 
L 18.109375 46.390625 
Q 20.953125 51.265625 25.265625 53.625 
Q 29.59375 56 35.59375 56 
Q 45.5625 56 51.78125 48.09375 
Q 58.015625 40.1875 58.015625 27.296875 
Q 58.015625 14.40625 51.78125 6.484375 
Q 45.5625 -1.421875 35.59375 -1.421875 
Q 29.59375 -1.421875 25.265625 0.953125 
Q 20.953125 3.328125 18.109375 8.203125 
z
M 48.6875 27.296875 
Q 48.6875 37.203125 44.609375 42.84375 
Q 40.53125 48.484375 33.40625 48.484375 
Q 26.265625 48.484375 22.1875 42.84375 
Q 18.109375 37.203125 18.109375 27.296875 
Q 18.109375 17.390625 22.1875 11.75 
Q 26.265625 6.109375 33.40625 6.109375 
Q 40.53125 6.109375 44.609375 11.75 
Q 48.6875 17.390625 48.6875 27.296875 
z
" id="DejaVuSans-70"/>
     <path d="M 9.8125 72.90625 
L 55.90625 72.90625 
L 55.90625 64.59375 
L 19.671875 64.59375 
L 19.671875 43.015625 
L 54.390625 43.015625 
L 54.390625 34.71875 
L 19.671875 34.71875 
L 19.671875 8.296875 
L 56.78125 8.296875 
L 56.78125 0 
L 9.8125 0 
z
" id="DejaVuSans-45"/>
     <path d="M 54.890625 54.6875 
L 35.109375 28.078125 
L 55.90625 0 
L 45.3125 0 
L 29.390625 21.484375 
L 13.484375 0 
L 2.875 0 
L 24.125 28.609375 
L 4.6875 54.6875 
L 15.28125 54.6875 
L 29.78125 35.203125 
L 44.28125 54.6875 
z
" id="DejaVuSans-78"/>
     <path d="M 34.28125 27.484375 
Q 23.390625 27.484375 19.1875 25 
Q 14.984375 22.515625 14.984375 16.5 
Q 14.984375 11.71875 18.140625 8.90625 
Q 21.296875 6.109375 26.703125 6.109375 
Q 34.1875 6.109375 38.703125 11.40625 
Q 43.21875 16.703125 43.21875 25.484375 
L 43.21875 27.484375 
z
M 52.203125 31.203125 
L 52.203125 0 
L 43.21875 0 
L 43.21875 8.296875 
Q 40.140625 3.328125 35.546875 0.953125 
Q 30.953125 -1.421875 24.3125 -1.421875 
Q 15.921875 -1.421875 10.953125 3.296875 
Q 6 8.015625 6 15.921875 
Q 6 25.140625 12.171875 29.828125 
Q 18.359375 34.515625 30.609375 34.515625 
L 43.21875 34.515625 
L 43.21875 35.40625 
Q 43.21875 41.609375 39.140625 45 
Q 35.0625 48.390625 27.6875 48.390625 
Q 23 48.390625 18.546875 47.265625 
Q 14.109375 46.140625 10.015625 43.890625 
L 10.015625 52.203125 
Q 14.9375 54.109375 19.578125 55.046875 
Q 24.21875 56 28.609375 56 
Q 40.484375 56 46.34375 49.84375 
Q 52.203125 43.703125 52.203125 31.203125 
z
" id="DejaVuSans-61"/>
     <path d="M 52 44.1875 
Q 55.375 50.25 60.0625 53.125 
Q 64.75 56 71.09375 56 
Q 79.640625 56 84.28125 50.015625 
Q 88.921875 44.046875 88.921875 33.015625 
L 88.921875 0 
L 79.890625 0 
L 79.890625 32.71875 
Q 79.890625 40.578125 77.09375 44.375 
Q 74.3125 48.1875 68.609375 48.1875 
Q 61.625 48.1875 57.5625 43.546875 
Q 53.515625 38.921875 53.515625 30.90625 
L 53.515625 0 
L 44.484375 0 
L 44.484375 32.71875 
Q 44.484375 40.625 41.703125 44.40625 
Q 38.921875 48.1875 33.109375 48.1875 
Q 26.21875 48.1875 22.15625 43.53125 
Q 18.109375 38.875 18.109375 30.90625 
L 18.109375 0 
L 9.078125 0 
L 9.078125 54.6875 
L 18.109375 54.6875 
L 18.109375 46.1875 
Q 21.1875 51.21875 25.484375 53.609375 
Q 29.78125 56 35.6875 56 
Q 41.65625 56 45.828125 52.96875 
Q 50 49.953125 52 44.1875 
z
" id="DejaVuSans-6d"/>
    </defs>
    <g transform="translate(162.685313 35.1264)scale(0.12 -0.12)">
     <use xlink:href="#DejaVuSans-46"/>
     <use x="57.410156" xlink:href="#DejaVuSans-69"/>
     <use x="85.193359" xlink:href="#DejaVuSans-6c"/>
     <use x="112.976562" xlink:href="#DejaVuSans-74"/>
     <use x="152.185547" xlink:href="#DejaVuSans-65"/>
     <use x="213.708984" xlink:href="#DejaVuSans-72"/>
     <use x="254.791016" xlink:href="#DejaVuSans-65"/>
     <use x="316.314453" xlink:href="#DejaVuSans-64"/>
     <use x="379.791016" xlink:href="#DejaVuSans-20"/>
     <use x="411.578125" xlink:href="#DejaVuSans-4f"/>
     <use x="490.289062" xlink:href="#DejaVuSans-75"/>
     <use x="553.667969" xlink:href="#DejaVuSans-74"/>
     <use x="592.876953" xlink:href="#DejaVuSans-70"/>
     <use x="656.353516" xlink:href="#DejaVuSans-75"/>
     <use x="719.732422" xlink:href="#DejaVuSans-74"/>
     <use x="758.941406" xlink:href="#DejaVuSans-20"/>
     <use x="790.728516" xlink:href="#DejaVuSans-45"/>
     <use x="853.912109" xlink:href="#DejaVuSans-78"/>
     <use x="913.091797" xlink:href="#DejaVuSans-61"/>
     <use x="974.371094" xlink:href="#DejaVuSans-6d"/>
     <use x="1071.783203" xlink:href="#DejaVuSans-70"/>
     <use x="1135.259766" xlink:href="#DejaVuSans-6c"/>
     <use x="1163.042969" xlink:href="#DejaVuSans-65"/>
    </g>
   </g>
  </g>
 </g>
 <defs>
  <clipPath id="pb8a2476b5d">
   <rect height="263.8944" width="357.12" x="57.6" y="41.1264"/>
  </clipPath>
 </defs>
</svg>
