G04 EAGLE Gerber X2 export*
%TF.Part,Single*%
%TF.FileFunction,Other,Component side*%
%TF.FilePolarity,Positive*%
%TF.GenerationSoftware,Autodesk,EAGLE,8.6.3*%
%TF.CreationDate,2019-03-19T20:13:45Z*%
G75*
%MOMM*%
%FSLAX34Y34*%
%LPD*%
%AMOC8*
5,1,8,0,0,1.08239X$1,22.5*%
G01*
%ADD10P,1.429621X8X292.500000*%
%ADD11R,1.100000X1.450000*%
%ADD12R,1.500000X1.300000*%
%ADD13R,0.550000X0.300000*%
%ADD14R,2.057400X0.609600*%
%ADD15C,1.422400*%
%ADD16C,2.362200*%
%ADD17P,1.429621X8X202.500000*%
%ADD18P,1.429621X8X112.500000*%
%ADD19C,0.254000*%
%ADD20C,0.406400*%
%ADD21C,1.006400*%
%ADD22C,0.906400*%

G36*
X778454Y587623D02*
X778454Y587623D01*
X778472Y587621D01*
X778654Y587642D01*
X778837Y587661D01*
X778854Y587666D01*
X778871Y587668D01*
X779046Y587725D01*
X779222Y587779D01*
X779237Y587787D01*
X779254Y587793D01*
X779414Y587883D01*
X779576Y587971D01*
X779589Y587982D01*
X779605Y587991D01*
X779744Y588111D01*
X779885Y588228D01*
X779896Y588242D01*
X779910Y588254D01*
X780022Y588399D01*
X780137Y588542D01*
X780145Y588558D01*
X780156Y588572D01*
X780238Y588737D01*
X780323Y588899D01*
X780328Y588916D01*
X780336Y588932D01*
X780383Y589111D01*
X780434Y589286D01*
X780436Y589304D01*
X780440Y589321D01*
X780467Y589652D01*
X780467Y613296D01*
X781995Y616983D01*
X782872Y617861D01*
X782889Y617881D01*
X782910Y617899D01*
X783017Y618037D01*
X783127Y618172D01*
X783140Y618196D01*
X783156Y618217D01*
X783234Y618374D01*
X783316Y618528D01*
X783324Y618554D01*
X783336Y618578D01*
X783381Y618747D01*
X783431Y618914D01*
X783433Y618940D01*
X783440Y618966D01*
X783467Y619297D01*
X783467Y619392D01*
X784658Y620583D01*
X786290Y620583D01*
X786321Y620586D01*
X786352Y620584D01*
X786521Y620606D01*
X786690Y620623D01*
X786720Y620632D01*
X786751Y620636D01*
X787067Y620737D01*
X788504Y621333D01*
X792996Y621333D01*
X794433Y620737D01*
X794463Y620728D01*
X794491Y620714D01*
X794655Y620670D01*
X794818Y620621D01*
X794849Y620618D01*
X794880Y620610D01*
X795210Y620583D01*
X797342Y620583D01*
X798258Y619666D01*
X798322Y619614D01*
X798379Y619555D01*
X798477Y619487D01*
X798570Y619411D01*
X798642Y619373D01*
X798710Y619326D01*
X798820Y619279D01*
X798925Y619223D01*
X799004Y619199D01*
X799080Y619167D01*
X799197Y619142D01*
X799311Y619108D01*
X799393Y619101D01*
X799474Y619084D01*
X799593Y619082D01*
X799712Y619072D01*
X799794Y619080D01*
X799876Y619080D01*
X799993Y619102D01*
X800113Y619115D01*
X800191Y619140D01*
X800272Y619155D01*
X800382Y619200D01*
X800496Y619236D01*
X800568Y619276D01*
X800645Y619307D01*
X800744Y619374D01*
X800849Y619431D01*
X800911Y619484D01*
X800980Y619530D01*
X801065Y619614D01*
X801156Y619692D01*
X801207Y619756D01*
X801265Y619814D01*
X801352Y619940D01*
X801405Y620008D01*
X801424Y620044D01*
X801454Y620087D01*
X801467Y620110D01*
X801940Y620583D01*
X802519Y620918D01*
X803165Y621091D01*
X806251Y621091D01*
X806251Y614049D01*
X803064Y614049D01*
X803046Y614047D01*
X803028Y614049D01*
X802846Y614028D01*
X802663Y614009D01*
X802646Y614004D01*
X802629Y614002D01*
X802454Y613945D01*
X802278Y613891D01*
X802263Y613883D01*
X802246Y613877D01*
X802086Y613787D01*
X801924Y613699D01*
X801911Y613688D01*
X801895Y613679D01*
X801756Y613559D01*
X801615Y613442D01*
X801604Y613428D01*
X801590Y613416D01*
X801478Y613271D01*
X801363Y613128D01*
X801355Y613112D01*
X801344Y613098D01*
X801262Y612933D01*
X801177Y612771D01*
X801172Y612754D01*
X801164Y612738D01*
X801117Y612559D01*
X801066Y612384D01*
X801064Y612366D01*
X801060Y612349D01*
X801033Y612018D01*
X801033Y610582D01*
X801035Y610564D01*
X801033Y610546D01*
X801054Y610364D01*
X801073Y610181D01*
X801078Y610164D01*
X801080Y610147D01*
X801137Y609972D01*
X801191Y609796D01*
X801199Y609781D01*
X801205Y609764D01*
X801295Y609604D01*
X801383Y609442D01*
X801394Y609429D01*
X801403Y609413D01*
X801523Y609274D01*
X801640Y609133D01*
X801654Y609122D01*
X801666Y609108D01*
X801811Y608996D01*
X801954Y608881D01*
X801970Y608873D01*
X801984Y608862D01*
X802149Y608780D01*
X802311Y608695D01*
X802328Y608690D01*
X802344Y608682D01*
X802523Y608634D01*
X802698Y608584D01*
X802716Y608582D01*
X802733Y608578D01*
X803064Y608551D01*
X806251Y608551D01*
X806251Y601716D01*
X806252Y601698D01*
X806251Y601680D01*
X806272Y601498D01*
X806291Y601315D01*
X806296Y601298D01*
X806298Y601281D01*
X806355Y601106D01*
X806409Y600930D01*
X806417Y600915D01*
X806423Y600898D01*
X806513Y600738D01*
X806600Y600576D01*
X806612Y600563D01*
X806621Y600547D01*
X806741Y600408D01*
X806858Y600267D01*
X806872Y600256D01*
X806884Y600242D01*
X807029Y600130D01*
X807172Y600015D01*
X807188Y600007D01*
X807202Y599996D01*
X807367Y599914D01*
X807529Y599829D01*
X807546Y599824D01*
X807562Y599816D01*
X807741Y599768D01*
X807916Y599718D01*
X807934Y599716D01*
X807951Y599712D01*
X808282Y599685D01*
X809718Y599685D01*
X809736Y599687D01*
X809754Y599685D01*
X809936Y599706D01*
X810119Y599725D01*
X810136Y599730D01*
X810153Y599732D01*
X810328Y599789D01*
X810504Y599843D01*
X810519Y599851D01*
X810536Y599857D01*
X810696Y599947D01*
X810858Y600035D01*
X810871Y600046D01*
X810887Y600055D01*
X811026Y600175D01*
X811167Y600292D01*
X811178Y600306D01*
X811192Y600318D01*
X811304Y600463D01*
X811419Y600606D01*
X811427Y600622D01*
X811438Y600636D01*
X811520Y600801D01*
X811605Y600963D01*
X811610Y600980D01*
X811618Y600996D01*
X811665Y601175D01*
X811716Y601350D01*
X811718Y601368D01*
X811722Y601385D01*
X811749Y601716D01*
X811749Y608551D01*
X817041Y608551D01*
X817041Y603715D01*
X816868Y603069D01*
X816673Y602732D01*
X816612Y602598D01*
X816545Y602469D01*
X816530Y602415D01*
X816507Y602365D01*
X816474Y602222D01*
X816434Y602082D01*
X816429Y602026D01*
X816417Y601972D01*
X816413Y601826D01*
X816401Y601680D01*
X816407Y601625D01*
X816406Y601570D01*
X816431Y601426D01*
X816448Y601281D01*
X816465Y601228D01*
X816474Y601173D01*
X816527Y601037D01*
X816573Y600898D01*
X816600Y600849D01*
X816620Y600798D01*
X816699Y600675D01*
X816770Y600547D01*
X816807Y600505D01*
X816837Y600458D01*
X816938Y600353D01*
X817034Y600242D01*
X817077Y600208D01*
X817116Y600169D01*
X817236Y600085D01*
X817352Y599996D01*
X817401Y599971D01*
X817447Y599939D01*
X817581Y599882D01*
X817712Y599816D01*
X817766Y599802D01*
X817817Y599780D01*
X817960Y599750D01*
X818101Y599712D01*
X818164Y599707D01*
X818211Y599697D01*
X818295Y599696D01*
X818432Y599685D01*
X857479Y599685D01*
X857488Y599686D01*
X857497Y599685D01*
X857688Y599706D01*
X857879Y599725D01*
X857888Y599727D01*
X857897Y599728D01*
X858079Y599786D01*
X858264Y599843D01*
X858272Y599847D01*
X858281Y599850D01*
X858449Y599943D01*
X858618Y600035D01*
X858625Y600040D01*
X858633Y600045D01*
X858780Y600169D01*
X858928Y600292D01*
X858933Y600299D01*
X858940Y600305D01*
X859059Y600456D01*
X859180Y600606D01*
X859184Y600614D01*
X859190Y600621D01*
X859277Y600794D01*
X859365Y600963D01*
X859368Y600972D01*
X859372Y600980D01*
X859424Y601166D01*
X859477Y601350D01*
X859478Y601359D01*
X859480Y601368D01*
X859494Y601561D01*
X859510Y601752D01*
X859509Y601760D01*
X859509Y601769D01*
X859485Y601962D01*
X859463Y602151D01*
X859460Y602160D01*
X859459Y602169D01*
X859398Y602352D01*
X859338Y602534D01*
X859334Y602542D01*
X859331Y602550D01*
X859235Y602717D01*
X859140Y602885D01*
X859134Y602892D01*
X859130Y602899D01*
X858915Y603152D01*
X855755Y606312D01*
X855755Y608069D01*
X864900Y608069D01*
X874045Y608069D01*
X874045Y606312D01*
X870885Y603152D01*
X870879Y603145D01*
X870872Y603140D01*
X870752Y602990D01*
X870630Y602841D01*
X870626Y602833D01*
X870620Y602826D01*
X870532Y602656D01*
X870441Y602485D01*
X870439Y602476D01*
X870435Y602469D01*
X870381Y602284D01*
X870326Y602099D01*
X870326Y602090D01*
X870323Y602082D01*
X870307Y601891D01*
X870290Y601698D01*
X870291Y601689D01*
X870290Y601680D01*
X870313Y601490D01*
X870333Y601298D01*
X870336Y601289D01*
X870337Y601281D01*
X870397Y601099D01*
X870455Y600914D01*
X870459Y600906D01*
X870462Y600898D01*
X870557Y600729D01*
X870650Y600562D01*
X870655Y600555D01*
X870660Y600547D01*
X870786Y600401D01*
X870910Y600255D01*
X870917Y600249D01*
X870923Y600242D01*
X871074Y600125D01*
X871226Y600005D01*
X871234Y600001D01*
X871241Y599996D01*
X871413Y599910D01*
X871585Y599823D01*
X871594Y599820D01*
X871602Y599816D01*
X871788Y599766D01*
X871973Y599715D01*
X871982Y599714D01*
X871990Y599712D01*
X872321Y599685D01*
X890379Y599685D01*
X890388Y599686D01*
X890397Y599685D01*
X890588Y599706D01*
X890779Y599725D01*
X890788Y599727D01*
X890797Y599728D01*
X890979Y599786D01*
X891164Y599843D01*
X891172Y599847D01*
X891181Y599850D01*
X891349Y599943D01*
X891518Y600035D01*
X891525Y600040D01*
X891533Y600045D01*
X891680Y600169D01*
X891828Y600292D01*
X891833Y600299D01*
X891840Y600305D01*
X891959Y600456D01*
X892080Y600606D01*
X892084Y600614D01*
X892090Y600621D01*
X892177Y600794D01*
X892265Y600963D01*
X892268Y600972D01*
X892272Y600980D01*
X892324Y601166D01*
X892377Y601350D01*
X892378Y601359D01*
X892380Y601368D01*
X892394Y601561D01*
X892410Y601752D01*
X892409Y601760D01*
X892409Y601769D01*
X892385Y601962D01*
X892363Y602151D01*
X892360Y602160D01*
X892359Y602169D01*
X892298Y602352D01*
X892238Y602534D01*
X892234Y602542D01*
X892231Y602550D01*
X892135Y602717D01*
X892040Y602885D01*
X892034Y602892D01*
X892030Y602899D01*
X891815Y603152D01*
X888155Y606812D01*
X888155Y608569D01*
X897300Y608569D01*
X906445Y608569D01*
X906445Y606812D01*
X902785Y603152D01*
X902779Y603145D01*
X902772Y603140D01*
X902652Y602990D01*
X902530Y602841D01*
X902526Y602833D01*
X902520Y602826D01*
X902432Y602656D01*
X902341Y602485D01*
X902339Y602476D01*
X902335Y602469D01*
X902281Y602284D01*
X902226Y602099D01*
X902226Y602090D01*
X902223Y602082D01*
X902207Y601890D01*
X902190Y601698D01*
X902191Y601689D01*
X902190Y601680D01*
X902213Y601490D01*
X902233Y601298D01*
X902236Y601289D01*
X902237Y601281D01*
X902297Y601099D01*
X902355Y600914D01*
X902359Y600906D01*
X902362Y600898D01*
X902457Y600729D01*
X902550Y600562D01*
X902555Y600555D01*
X902560Y600547D01*
X902686Y600401D01*
X902810Y600255D01*
X902817Y600249D01*
X902823Y600242D01*
X902974Y600125D01*
X903126Y600005D01*
X903134Y600001D01*
X903141Y599996D01*
X903313Y599910D01*
X903485Y599823D01*
X903494Y599820D01*
X903502Y599816D01*
X903688Y599766D01*
X903873Y599715D01*
X903882Y599714D01*
X903890Y599712D01*
X904221Y599685D01*
X909436Y599685D01*
X909454Y599687D01*
X909472Y599685D01*
X909654Y599706D01*
X909837Y599725D01*
X909854Y599730D01*
X909871Y599732D01*
X910046Y599789D01*
X910222Y599843D01*
X910237Y599851D01*
X910254Y599857D01*
X910414Y599947D01*
X910576Y600035D01*
X910589Y600046D01*
X910605Y600055D01*
X910744Y600175D01*
X910885Y600292D01*
X910896Y600306D01*
X910910Y600318D01*
X911022Y600463D01*
X911137Y600606D01*
X911145Y600622D01*
X911156Y600636D01*
X911238Y600801D01*
X911323Y600963D01*
X911328Y600980D01*
X911336Y600996D01*
X911383Y601175D01*
X911434Y601350D01*
X911436Y601368D01*
X911440Y601385D01*
X911467Y601716D01*
X911467Y671496D01*
X911813Y672329D01*
X911822Y672359D01*
X911836Y672387D01*
X911880Y672552D01*
X911929Y672715D01*
X911932Y672746D01*
X911940Y672776D01*
X911967Y673107D01*
X911967Y676842D01*
X912282Y677157D01*
X912294Y677171D01*
X912307Y677182D01*
X912420Y677326D01*
X912537Y677468D01*
X912546Y677484D01*
X912557Y677498D01*
X912639Y677661D01*
X912726Y677824D01*
X912731Y677841D01*
X912739Y677857D01*
X912788Y678034D01*
X912841Y678210D01*
X912842Y678228D01*
X912847Y678245D01*
X912860Y678428D01*
X912877Y678611D01*
X912875Y678629D01*
X912876Y678646D01*
X912853Y678829D01*
X912834Y679011D01*
X912828Y679028D01*
X912826Y679046D01*
X912767Y679220D01*
X912712Y679395D01*
X912703Y679411D01*
X912698Y679428D01*
X912606Y679587D01*
X912517Y679747D01*
X912506Y679761D01*
X912497Y679776D01*
X912282Y680029D01*
X909209Y683103D01*
X901939Y690372D01*
X901919Y690389D01*
X901901Y690410D01*
X901763Y690517D01*
X901628Y690627D01*
X901604Y690640D01*
X901583Y690656D01*
X901426Y690734D01*
X901272Y690816D01*
X901247Y690824D01*
X901222Y690836D01*
X901053Y690881D01*
X900886Y690931D01*
X900860Y690933D01*
X900834Y690940D01*
X900503Y690967D01*
X875564Y690967D01*
X875546Y690965D01*
X875528Y690967D01*
X875346Y690946D01*
X875163Y690927D01*
X875146Y690922D01*
X875129Y690920D01*
X874954Y690863D01*
X874778Y690809D01*
X874763Y690801D01*
X874746Y690795D01*
X874586Y690705D01*
X874424Y690617D01*
X874411Y690606D01*
X874395Y690597D01*
X874256Y690477D01*
X874115Y690360D01*
X874104Y690346D01*
X874090Y690334D01*
X873978Y690189D01*
X873863Y690046D01*
X873855Y690030D01*
X873844Y690016D01*
X873762Y689851D01*
X873677Y689689D01*
X873672Y689672D01*
X873664Y689656D01*
X873617Y689477D01*
X873566Y689302D01*
X873564Y689284D01*
X873560Y689267D01*
X873533Y688936D01*
X873533Y684607D01*
X873536Y684576D01*
X873534Y684545D01*
X873556Y684376D01*
X873573Y684206D01*
X873582Y684176D01*
X873586Y684145D01*
X873687Y683829D01*
X874033Y682996D01*
X874033Y679004D01*
X873687Y678171D01*
X873678Y678141D01*
X873664Y678113D01*
X873620Y677948D01*
X873571Y677785D01*
X873568Y677754D01*
X873560Y677724D01*
X873533Y677393D01*
X873533Y673658D01*
X872811Y672936D01*
X872800Y672923D01*
X872786Y672911D01*
X872671Y672766D01*
X872556Y672625D01*
X872548Y672609D01*
X872537Y672595D01*
X872453Y672431D01*
X872367Y672269D01*
X872362Y672252D01*
X872354Y672236D01*
X872305Y672059D01*
X872253Y671883D01*
X872251Y671865D01*
X872246Y671848D01*
X872233Y671665D01*
X872216Y671482D01*
X872218Y671464D01*
X872217Y671447D01*
X872240Y671263D01*
X872260Y671082D01*
X872265Y671065D01*
X872267Y671047D01*
X872325Y670874D01*
X872381Y670698D01*
X872390Y670682D01*
X872395Y670666D01*
X872487Y670507D01*
X872576Y670346D01*
X872587Y670332D01*
X872596Y670317D01*
X872811Y670064D01*
X873533Y669342D01*
X873533Y665607D01*
X873536Y665576D01*
X873534Y665545D01*
X873556Y665375D01*
X873573Y665206D01*
X873582Y665176D01*
X873586Y665145D01*
X873687Y664829D01*
X874033Y663996D01*
X874033Y648622D01*
X874035Y648604D01*
X874033Y648586D01*
X874054Y648404D01*
X874073Y648221D01*
X874078Y648204D01*
X874080Y648187D01*
X874137Y648012D01*
X874191Y647836D01*
X874199Y647821D01*
X874205Y647804D01*
X874295Y647644D01*
X874383Y647482D01*
X874394Y647469D01*
X874403Y647453D01*
X874523Y647314D01*
X874640Y647173D01*
X874654Y647162D01*
X874666Y647148D01*
X874811Y647036D01*
X874954Y646921D01*
X874970Y646913D01*
X874984Y646902D01*
X875149Y646820D01*
X875311Y646735D01*
X875328Y646730D01*
X875344Y646722D01*
X875523Y646675D01*
X875698Y646624D01*
X875716Y646622D01*
X875733Y646618D01*
X876064Y646591D01*
X893415Y646591D01*
X893524Y646602D01*
X893634Y646603D01*
X893741Y646623D01*
X893815Y646631D01*
X893875Y646649D01*
X893960Y646665D01*
X894248Y646745D01*
X895399Y646606D01*
X895486Y646604D01*
X895644Y646591D01*
X896804Y646591D01*
X897080Y646476D01*
X897185Y646445D01*
X897287Y646403D01*
X897394Y646381D01*
X897465Y646360D01*
X897527Y646354D01*
X897612Y646337D01*
X897909Y646301D01*
X898919Y645731D01*
X898999Y645696D01*
X899140Y645623D01*
X900223Y645175D01*
X900335Y645087D01*
X900471Y644977D01*
X900494Y644964D01*
X900515Y644948D01*
X900617Y644897D01*
X900706Y644809D01*
X900791Y644739D01*
X900869Y644662D01*
X900960Y644600D01*
X901017Y644553D01*
X901072Y644524D01*
X901144Y644476D01*
X903461Y643169D01*
X905735Y640265D01*
X905780Y640105D01*
X905836Y639962D01*
X905885Y639815D01*
X905909Y639774D01*
X905926Y639730D01*
X905948Y639696D01*
X905949Y639601D01*
X905969Y639494D01*
X905977Y639420D01*
X905995Y639360D01*
X906011Y639275D01*
X906725Y636712D01*
X906281Y633051D01*
X906199Y632906D01*
X906137Y632766D01*
X906068Y632628D01*
X906056Y632581D01*
X906037Y632538D01*
X906028Y632498D01*
X905962Y632431D01*
X905900Y632340D01*
X905853Y632283D01*
X905824Y632228D01*
X905776Y632156D01*
X904469Y629839D01*
X901565Y627565D01*
X901405Y627520D01*
X901262Y627464D01*
X901115Y627415D01*
X901074Y627391D01*
X901030Y627374D01*
X900996Y627352D01*
X900901Y627351D01*
X900794Y627331D01*
X900720Y627323D01*
X900660Y627305D01*
X900575Y627289D01*
X898012Y626575D01*
X894351Y627019D01*
X894206Y627101D01*
X894066Y627163D01*
X893928Y627232D01*
X893881Y627244D01*
X893838Y627263D01*
X893798Y627272D01*
X893731Y627338D01*
X893640Y627400D01*
X893583Y627447D01*
X893528Y627476D01*
X893456Y627524D01*
X892990Y627787D01*
X892849Y627849D01*
X892712Y627918D01*
X892665Y627930D01*
X892622Y627949D01*
X892471Y627982D01*
X892323Y628022D01*
X892269Y628027D01*
X892228Y628035D01*
X892142Y628037D01*
X891992Y628049D01*
X872848Y628049D01*
X872821Y628047D01*
X872794Y628049D01*
X872620Y628027D01*
X872447Y628009D01*
X872421Y628002D01*
X872395Y627998D01*
X872229Y627943D01*
X872062Y627891D01*
X872038Y627878D01*
X872013Y627870D01*
X871862Y627783D01*
X871708Y627699D01*
X871688Y627682D01*
X871664Y627669D01*
X871599Y627614D01*
X867863Y626066D01*
X864814Y626066D01*
X864798Y626064D01*
X864547Y626044D01*
X864434Y626054D01*
X864348Y626065D01*
X864318Y626063D01*
X864282Y626066D01*
X862004Y626066D01*
X858317Y627593D01*
X855495Y630416D01*
X853967Y634103D01*
X853967Y637436D01*
X853965Y637454D01*
X853967Y637472D01*
X853946Y637654D01*
X853927Y637837D01*
X853922Y637854D01*
X853920Y637871D01*
X853863Y638046D01*
X853809Y638222D01*
X853801Y638237D01*
X853795Y638254D01*
X853705Y638414D01*
X853617Y638576D01*
X853606Y638589D01*
X853597Y638605D01*
X853477Y638744D01*
X853360Y638885D01*
X853346Y638896D01*
X853334Y638910D01*
X853189Y639022D01*
X853046Y639137D01*
X853030Y639145D01*
X853016Y639156D01*
X852851Y639238D01*
X852689Y639323D01*
X852672Y639328D01*
X852656Y639336D01*
X852477Y639383D01*
X852302Y639434D01*
X852284Y639436D01*
X852267Y639440D01*
X851936Y639467D01*
X844635Y639467D01*
X844621Y639466D01*
X844608Y639467D01*
X844421Y639446D01*
X844234Y639427D01*
X844221Y639423D01*
X844208Y639422D01*
X844029Y639364D01*
X843849Y639309D01*
X843837Y639303D01*
X843825Y639299D01*
X843661Y639207D01*
X843495Y639117D01*
X843485Y639109D01*
X843473Y639102D01*
X843330Y638980D01*
X843186Y638860D01*
X843178Y638849D01*
X843167Y638841D01*
X843051Y638692D01*
X842934Y638546D01*
X842927Y638534D01*
X842919Y638524D01*
X842834Y638354D01*
X842748Y638189D01*
X842744Y638176D01*
X842738Y638164D01*
X842689Y637982D01*
X842637Y637802D01*
X842636Y637788D01*
X842632Y637775D01*
X842619Y637589D01*
X842604Y637400D01*
X842605Y637387D01*
X842604Y637374D01*
X842629Y637188D01*
X842651Y637001D01*
X842655Y636988D01*
X842657Y636975D01*
X842758Y636659D01*
X843033Y635996D01*
X843033Y632004D01*
X841505Y628317D01*
X838683Y625495D01*
X834996Y623967D01*
X831004Y623967D01*
X827317Y625495D01*
X820439Y632372D01*
X820419Y632389D01*
X820401Y632410D01*
X820263Y632517D01*
X820128Y632627D01*
X820104Y632640D01*
X820083Y632656D01*
X819926Y632734D01*
X819772Y632816D01*
X819747Y632824D01*
X819722Y632836D01*
X819553Y632881D01*
X819386Y632931D01*
X819360Y632933D01*
X819334Y632940D01*
X819003Y632967D01*
X813105Y632967D01*
X812942Y632951D01*
X812778Y632941D01*
X812742Y632931D01*
X812704Y632927D01*
X812548Y632879D01*
X812389Y632837D01*
X812351Y632819D01*
X812319Y632809D01*
X812243Y632768D01*
X812089Y632695D01*
X811981Y632632D01*
X811335Y632459D01*
X809584Y632459D01*
X809503Y632522D01*
X809360Y632637D01*
X809344Y632645D01*
X809330Y632656D01*
X809165Y632738D01*
X809003Y632823D01*
X808986Y632828D01*
X808970Y632836D01*
X808792Y632883D01*
X808616Y632934D01*
X808598Y632936D01*
X808581Y632940D01*
X808250Y632967D01*
X808232Y632966D01*
X808215Y632967D01*
X808214Y632967D01*
X808032Y632946D01*
X807849Y632927D01*
X807832Y632922D01*
X807814Y632920D01*
X807640Y632863D01*
X807464Y632809D01*
X807449Y632801D01*
X807432Y632795D01*
X807271Y632705D01*
X807110Y632617D01*
X807097Y632606D01*
X807081Y632597D01*
X806942Y632477D01*
X806920Y632459D01*
X805165Y632459D01*
X804519Y632632D01*
X803940Y632967D01*
X803407Y633500D01*
X803396Y633509D01*
X803388Y633519D01*
X803242Y633635D01*
X803095Y633755D01*
X803083Y633761D01*
X803073Y633770D01*
X802906Y633856D01*
X802740Y633944D01*
X802727Y633948D01*
X802715Y633954D01*
X802534Y634005D01*
X802354Y634059D01*
X802340Y634060D01*
X802327Y634063D01*
X802142Y634078D01*
X801953Y634095D01*
X801939Y634094D01*
X801926Y634095D01*
X801741Y634072D01*
X801552Y634052D01*
X801539Y634047D01*
X801526Y634046D01*
X801350Y633987D01*
X801169Y633930D01*
X801157Y633924D01*
X801144Y633919D01*
X800981Y633826D01*
X800816Y633735D01*
X800806Y633727D01*
X800794Y633720D01*
X800652Y633596D01*
X800509Y633475D01*
X800501Y633464D01*
X800491Y633455D01*
X800376Y633306D01*
X800260Y633159D01*
X800254Y633147D01*
X800245Y633136D01*
X800094Y632841D01*
X799255Y630817D01*
X796433Y627995D01*
X792746Y626467D01*
X756004Y626467D01*
X752317Y627995D01*
X742739Y637572D01*
X742719Y637589D01*
X742701Y637610D01*
X742563Y637717D01*
X742428Y637827D01*
X742404Y637840D01*
X742383Y637856D01*
X742226Y637934D01*
X742072Y638016D01*
X742047Y638024D01*
X742022Y638036D01*
X741853Y638081D01*
X741686Y638131D01*
X741660Y638133D01*
X741634Y638140D01*
X741303Y638167D01*
X735259Y638167D01*
X735241Y638165D01*
X735223Y638167D01*
X735041Y638146D01*
X734858Y638127D01*
X734841Y638122D01*
X734824Y638120D01*
X734649Y638063D01*
X734473Y638009D01*
X734458Y638001D01*
X734441Y637995D01*
X734281Y637905D01*
X734119Y637817D01*
X734106Y637806D01*
X734090Y637797D01*
X733951Y637677D01*
X733810Y637560D01*
X733799Y637546D01*
X733785Y637534D01*
X733783Y637531D01*
X720400Y637531D01*
X707572Y637531D01*
X707572Y638883D01*
X707745Y639529D01*
X708080Y640108D01*
X708742Y640770D01*
X708751Y640781D01*
X708770Y640798D01*
X708842Y640889D01*
X708922Y640973D01*
X708963Y641040D01*
X708997Y641082D01*
X709002Y641090D01*
X709020Y641113D01*
X709073Y641217D01*
X709134Y641316D01*
X709163Y641395D01*
X709186Y641437D01*
X709187Y641443D01*
X709202Y641472D01*
X709234Y641584D01*
X709274Y641693D01*
X709287Y641778D01*
X709294Y641800D01*
X709301Y641823D01*
X709301Y641826D01*
X709310Y641860D01*
X709319Y641976D01*
X709337Y642091D01*
X709333Y642176D01*
X709340Y642262D01*
X709325Y642377D01*
X709320Y642493D01*
X709300Y642576D01*
X709289Y642661D01*
X709252Y642771D01*
X709225Y642884D01*
X709188Y642962D01*
X709161Y643043D01*
X709103Y643144D01*
X709054Y643249D01*
X709003Y643317D01*
X708960Y643392D01*
X708865Y643504D01*
X708814Y643572D01*
X708782Y643601D01*
X708745Y643645D01*
X708080Y644310D01*
X708080Y652090D01*
X709104Y653114D01*
X709115Y653127D01*
X709129Y653139D01*
X709243Y653284D01*
X709359Y653425D01*
X709367Y653441D01*
X709378Y653455D01*
X709462Y653619D01*
X709548Y653781D01*
X709553Y653798D01*
X709561Y653814D01*
X709610Y653991D01*
X709662Y654167D01*
X709664Y654185D01*
X709669Y654202D01*
X709682Y654385D01*
X709699Y654568D01*
X709697Y654586D01*
X709698Y654603D01*
X709675Y654785D01*
X709655Y654968D01*
X709650Y654985D01*
X709648Y655003D01*
X709590Y655176D01*
X709534Y655352D01*
X709525Y655368D01*
X709520Y655384D01*
X709428Y655543D01*
X709339Y655704D01*
X709328Y655718D01*
X709319Y655733D01*
X709104Y655986D01*
X708080Y657010D01*
X708080Y664790D01*
X709104Y665814D01*
X709115Y665827D01*
X709129Y665839D01*
X709243Y665984D01*
X709359Y666125D01*
X709367Y666141D01*
X709378Y666155D01*
X709462Y666319D01*
X709548Y666481D01*
X709553Y666498D01*
X709561Y666514D01*
X709610Y666691D01*
X709662Y666867D01*
X709664Y666885D01*
X709669Y666902D01*
X709682Y667085D01*
X709699Y667268D01*
X709697Y667286D01*
X709698Y667303D01*
X709675Y667485D01*
X709655Y667668D01*
X709650Y667685D01*
X709648Y667703D01*
X709590Y667876D01*
X709534Y668052D01*
X709525Y668068D01*
X709520Y668084D01*
X709428Y668243D01*
X709339Y668404D01*
X709328Y668418D01*
X709319Y668433D01*
X709104Y668686D01*
X708080Y669710D01*
X708080Y677490D01*
X709104Y678514D01*
X709115Y678527D01*
X709129Y678539D01*
X709243Y678684D01*
X709359Y678825D01*
X709367Y678841D01*
X709378Y678855D01*
X709462Y679019D01*
X709548Y679181D01*
X709553Y679198D01*
X709561Y679214D01*
X709610Y679391D01*
X709662Y679567D01*
X709664Y679585D01*
X709669Y679602D01*
X709682Y679785D01*
X709699Y679968D01*
X709697Y679985D01*
X709698Y680003D01*
X709675Y680185D01*
X709655Y680368D01*
X709650Y680385D01*
X709648Y680403D01*
X709590Y680576D01*
X709534Y680752D01*
X709525Y680768D01*
X709520Y680784D01*
X709428Y680943D01*
X709339Y681104D01*
X709328Y681118D01*
X709319Y681133D01*
X709104Y681386D01*
X708080Y682410D01*
X708080Y690190D01*
X709847Y691957D01*
X709885Y691988D01*
X709896Y692002D01*
X709910Y692014D01*
X710022Y692159D01*
X710137Y692302D01*
X710145Y692318D01*
X710156Y692332D01*
X710238Y692497D01*
X710323Y692659D01*
X710328Y692676D01*
X710336Y692692D01*
X710383Y692871D01*
X710434Y693046D01*
X710436Y693064D01*
X710440Y693081D01*
X710467Y693412D01*
X710467Y725296D01*
X711995Y728983D01*
X714817Y731805D01*
X715281Y731997D01*
X715281Y731998D01*
X718504Y733333D01*
X722496Y733333D01*
X726183Y731805D01*
X729005Y728983D01*
X730533Y725296D01*
X730533Y711064D01*
X730535Y711046D01*
X730533Y711028D01*
X730554Y710846D01*
X730573Y710663D01*
X730578Y710646D01*
X730580Y710629D01*
X730637Y710454D01*
X730691Y710278D01*
X730699Y710263D01*
X730705Y710246D01*
X730796Y710085D01*
X730883Y709924D01*
X730894Y709911D01*
X730903Y709895D01*
X731023Y709756D01*
X731140Y709615D01*
X731154Y709604D01*
X731166Y709590D01*
X731311Y709478D01*
X731454Y709363D01*
X731470Y709355D01*
X731484Y709344D01*
X731649Y709262D01*
X731811Y709177D01*
X731828Y709172D01*
X731844Y709164D01*
X732023Y709117D01*
X732198Y709066D01*
X732216Y709064D01*
X732233Y709060D01*
X732564Y709033D01*
X793872Y709033D01*
X793881Y709034D01*
X793890Y709033D01*
X794081Y709054D01*
X794273Y709073D01*
X794282Y709075D01*
X794291Y709076D01*
X794474Y709134D01*
X794658Y709191D01*
X794666Y709195D01*
X794674Y709198D01*
X794843Y709291D01*
X795012Y709383D01*
X795019Y709388D01*
X795027Y709393D01*
X795174Y709518D01*
X795321Y709640D01*
X795327Y709647D01*
X795334Y709653D01*
X795453Y709805D01*
X795574Y709954D01*
X795578Y709962D01*
X795583Y709969D01*
X795671Y710141D01*
X795759Y710311D01*
X795762Y710320D01*
X795766Y710328D01*
X795817Y710513D01*
X795870Y710698D01*
X795871Y710707D01*
X795874Y710716D01*
X795888Y710907D01*
X795903Y711100D01*
X795902Y711109D01*
X795903Y711118D01*
X795879Y711308D01*
X795856Y711499D01*
X795854Y711508D01*
X795852Y711517D01*
X795792Y711698D01*
X795732Y711882D01*
X795727Y711890D01*
X795724Y711899D01*
X795629Y712064D01*
X795534Y712233D01*
X795528Y712240D01*
X795523Y712247D01*
X795309Y712500D01*
X795277Y712532D01*
X794384Y713761D01*
X793694Y715115D01*
X793225Y716560D01*
X793219Y716598D01*
X802449Y716598D01*
X802467Y716600D01*
X802485Y716599D01*
X802667Y716620D01*
X802850Y716638D01*
X802867Y716643D01*
X802885Y716645D01*
X803059Y716702D01*
X803235Y716756D01*
X803251Y716765D01*
X803267Y716770D01*
X803428Y716861D01*
X803589Y716948D01*
X803603Y716959D01*
X803618Y716968D01*
X803757Y717088D01*
X803898Y717206D01*
X803909Y717220D01*
X803923Y717231D01*
X804035Y717376D01*
X804046Y717390D01*
X804139Y717470D01*
X804279Y717587D01*
X804291Y717601D01*
X804304Y717613D01*
X804417Y717758D01*
X804532Y717901D01*
X804540Y717917D01*
X804551Y717931D01*
X804633Y718096D01*
X804717Y718258D01*
X804722Y718275D01*
X804730Y718291D01*
X804778Y718469D01*
X804829Y718645D01*
X804830Y718663D01*
X804835Y718680D01*
X804862Y719011D01*
X804862Y729310D01*
X804929Y729394D01*
X804936Y729406D01*
X804944Y729416D01*
X805028Y729584D01*
X805115Y729751D01*
X805119Y729764D01*
X805125Y729776D01*
X805174Y729957D01*
X805226Y730138D01*
X805227Y730152D01*
X805231Y730165D01*
X805244Y730353D01*
X805259Y730540D01*
X805258Y730553D01*
X805259Y730566D01*
X805234Y730754D01*
X805212Y730939D01*
X805208Y730952D01*
X805206Y730965D01*
X805105Y731281D01*
X803655Y734781D01*
X803655Y738419D01*
X805047Y741780D01*
X807620Y744353D01*
X809887Y745292D01*
X809899Y745298D01*
X809912Y745302D01*
X810076Y745393D01*
X810242Y745482D01*
X810253Y745491D01*
X810264Y745497D01*
X810407Y745618D01*
X810553Y745738D01*
X810561Y745749D01*
X810571Y745757D01*
X810688Y745905D01*
X810806Y746051D01*
X810813Y746063D01*
X810821Y746073D01*
X810906Y746241D01*
X810993Y746407D01*
X810997Y746420D01*
X811003Y746432D01*
X811054Y746614D01*
X811107Y746794D01*
X811108Y746807D01*
X811111Y746820D01*
X811125Y747009D01*
X811141Y747195D01*
X811140Y747208D01*
X811141Y747222D01*
X811117Y747409D01*
X811096Y747595D01*
X811092Y747608D01*
X811090Y747621D01*
X811031Y747799D01*
X810973Y747978D01*
X810966Y747990D01*
X810962Y748003D01*
X810868Y748166D01*
X810776Y748330D01*
X810768Y748340D01*
X810761Y748352D01*
X810546Y748605D01*
X801428Y757724D01*
X801314Y757816D01*
X801206Y757915D01*
X801159Y757944D01*
X801116Y757979D01*
X800987Y758047D01*
X800862Y758123D01*
X800809Y758141D01*
X800760Y758167D01*
X800620Y758209D01*
X800483Y758258D01*
X800428Y758266D01*
X800374Y758282D01*
X800229Y758295D01*
X800084Y758316D01*
X800029Y758313D01*
X799973Y758318D01*
X799828Y758303D01*
X799682Y758295D01*
X799628Y758281D01*
X799573Y758275D01*
X799434Y758231D01*
X799292Y758194D01*
X799242Y758170D01*
X799189Y758154D01*
X799061Y758083D01*
X798930Y758019D01*
X798886Y757986D01*
X798837Y757959D01*
X798726Y757864D01*
X798609Y757776D01*
X798572Y757734D01*
X798530Y757698D01*
X798439Y757583D01*
X798343Y757474D01*
X798315Y757426D01*
X798280Y757382D01*
X798214Y757252D01*
X798141Y757125D01*
X798120Y757066D01*
X798098Y757023D01*
X798075Y756942D01*
X798029Y756813D01*
X796950Y752784D01*
X793806Y747339D01*
X789361Y742894D01*
X783916Y739750D01*
X777843Y738123D01*
X771557Y738123D01*
X771360Y738176D01*
X771284Y738188D01*
X771209Y738210D01*
X771085Y738221D01*
X770963Y738241D01*
X770885Y738238D01*
X770808Y738245D01*
X770685Y738231D01*
X770561Y738227D01*
X770485Y738208D01*
X770408Y738200D01*
X770290Y738162D01*
X770169Y738133D01*
X770099Y738100D01*
X770024Y738077D01*
X769916Y738016D01*
X769804Y737964D01*
X769741Y737918D01*
X769673Y737880D01*
X769579Y737800D01*
X769479Y737726D01*
X769426Y737669D01*
X769367Y737618D01*
X769291Y737521D01*
X769207Y737429D01*
X769167Y737362D01*
X769119Y737301D01*
X769063Y737191D01*
X768999Y737084D01*
X768973Y737011D01*
X768938Y736942D01*
X768905Y736822D01*
X768864Y736705D01*
X768852Y736628D01*
X768832Y736553D01*
X768823Y736429D01*
X768805Y736307D01*
X768810Y736229D01*
X768804Y736152D01*
X768820Y736028D01*
X768827Y735905D01*
X768846Y735830D01*
X768856Y735752D01*
X768906Y735599D01*
X768927Y735515D01*
X768943Y735482D01*
X768958Y735436D01*
X771018Y730464D01*
X771018Y724956D01*
X768910Y719868D01*
X765016Y715974D01*
X759928Y713866D01*
X754420Y713866D01*
X749332Y715974D01*
X745438Y719868D01*
X743330Y724956D01*
X743330Y730464D01*
X745438Y735552D01*
X749332Y739446D01*
X754420Y741554D01*
X756476Y741554D01*
X756484Y741555D01*
X756493Y741554D01*
X756685Y741575D01*
X756876Y741594D01*
X756885Y741596D01*
X756894Y741597D01*
X757076Y741655D01*
X757261Y741712D01*
X757269Y741716D01*
X757278Y741719D01*
X757446Y741812D01*
X757615Y741904D01*
X757622Y741909D01*
X757630Y741914D01*
X757777Y742038D01*
X757924Y742161D01*
X757930Y742168D01*
X757937Y742174D01*
X758056Y742325D01*
X758177Y742475D01*
X758181Y742483D01*
X758186Y742490D01*
X758274Y742663D01*
X758362Y742832D01*
X758365Y742841D01*
X758369Y742849D01*
X758421Y743035D01*
X758474Y743219D01*
X758474Y743228D01*
X758477Y743237D01*
X758491Y743430D01*
X758507Y743621D01*
X758506Y743629D01*
X758506Y743638D01*
X758482Y743831D01*
X758460Y744020D01*
X758457Y744029D01*
X758456Y744038D01*
X758394Y744221D01*
X758335Y744403D01*
X758330Y744411D01*
X758328Y744419D01*
X758232Y744585D01*
X758137Y744754D01*
X758131Y744761D01*
X758127Y744768D01*
X757912Y745021D01*
X755594Y747339D01*
X752450Y752784D01*
X750823Y758857D01*
X750823Y765143D01*
X752450Y771216D01*
X754536Y774828D01*
X754596Y774962D01*
X754664Y775091D01*
X754679Y775145D01*
X754702Y775195D01*
X754734Y775338D01*
X754775Y775478D01*
X754779Y775534D01*
X754792Y775588D01*
X754796Y775734D01*
X754808Y775880D01*
X754801Y775935D01*
X754803Y775990D01*
X754778Y776135D01*
X754761Y776279D01*
X754744Y776332D01*
X754734Y776387D01*
X754681Y776523D01*
X754636Y776662D01*
X754609Y776711D01*
X754589Y776762D01*
X754510Y776886D01*
X754438Y777013D01*
X754402Y777055D01*
X754372Y777102D01*
X754271Y777207D01*
X754175Y777318D01*
X754131Y777352D01*
X754093Y777392D01*
X753972Y777475D01*
X753857Y777564D01*
X753807Y777589D01*
X753762Y777621D01*
X753627Y777679D01*
X753496Y777744D01*
X753443Y777758D01*
X753392Y777780D01*
X753249Y777810D01*
X753108Y777848D01*
X753045Y777853D01*
X752998Y777863D01*
X752914Y777864D01*
X752777Y777875D01*
X749618Y777875D01*
X749592Y777873D01*
X749565Y777875D01*
X749391Y777853D01*
X749218Y777835D01*
X749192Y777828D01*
X749165Y777824D01*
X749000Y777769D01*
X748833Y777717D01*
X748809Y777704D01*
X748784Y777696D01*
X748632Y777609D01*
X748479Y777525D01*
X748458Y777508D01*
X748435Y777495D01*
X748182Y777280D01*
X727953Y757052D01*
X727942Y757038D01*
X727928Y757026D01*
X727814Y756882D01*
X727698Y756740D01*
X727690Y756725D01*
X727679Y756711D01*
X727595Y756546D01*
X727510Y756385D01*
X727505Y756368D01*
X727496Y756352D01*
X727447Y756174D01*
X727395Y755999D01*
X727393Y755981D01*
X727388Y755964D01*
X727375Y755781D01*
X727358Y755598D01*
X727360Y755580D01*
X727359Y755562D01*
X727382Y755380D01*
X727402Y755197D01*
X727407Y755180D01*
X727410Y755163D01*
X727468Y754989D01*
X727523Y754814D01*
X727532Y754798D01*
X727538Y754781D01*
X727629Y754622D01*
X727718Y754461D01*
X727730Y754448D01*
X727739Y754432D01*
X727953Y754179D01*
X729645Y752488D01*
X729645Y750731D01*
X722474Y750731D01*
X722448Y750729D01*
X722421Y750731D01*
X722247Y750709D01*
X722074Y750691D01*
X722048Y750684D01*
X722022Y750680D01*
X721856Y750625D01*
X721689Y750573D01*
X721665Y750561D01*
X721640Y750552D01*
X721488Y750465D01*
X721335Y750382D01*
X721314Y750365D01*
X721291Y750351D01*
X721038Y750136D01*
X721032Y750129D01*
X721025Y750124D01*
X720905Y749974D01*
X720783Y749825D01*
X720778Y749817D01*
X720773Y749810D01*
X720684Y749639D01*
X720594Y749469D01*
X720591Y749460D01*
X720587Y749452D01*
X720534Y749267D01*
X720479Y749083D01*
X720478Y749074D01*
X720476Y749066D01*
X720460Y748874D01*
X720443Y748682D01*
X720444Y748673D01*
X720443Y748664D01*
X720465Y748475D01*
X720486Y748282D01*
X720489Y748273D01*
X720490Y748264D01*
X720549Y748082D01*
X720608Y747898D01*
X720612Y747890D01*
X720615Y747882D01*
X720615Y747881D01*
X720465Y747893D01*
X720434Y747890D01*
X720404Y747891D01*
X720235Y747866D01*
X720065Y747847D01*
X720036Y747837D01*
X720006Y747833D01*
X719845Y747775D01*
X719682Y747722D01*
X719655Y747707D01*
X719627Y747696D01*
X719481Y747608D01*
X719331Y747524D01*
X719308Y747504D01*
X719282Y747488D01*
X719156Y747372D01*
X719027Y747261D01*
X719008Y747237D01*
X718985Y747216D01*
X718885Y747078D01*
X718780Y746943D01*
X718766Y746915D01*
X718748Y746891D01*
X718604Y746592D01*
X718604Y746591D01*
X718603Y746586D01*
X718601Y746582D01*
X718600Y746582D01*
X718600Y746581D01*
X718549Y746389D01*
X718497Y746203D01*
X718497Y746197D01*
X718496Y746192D01*
X718469Y745862D01*
X718469Y739555D01*
X716712Y739555D01*
X715764Y740503D01*
X715751Y740514D01*
X715739Y740528D01*
X715594Y740642D01*
X715453Y740758D01*
X715437Y740767D01*
X715423Y740778D01*
X715259Y740861D01*
X715097Y740947D01*
X715080Y740952D01*
X715064Y740960D01*
X714887Y741009D01*
X714711Y741062D01*
X714693Y741063D01*
X714676Y741068D01*
X714493Y741081D01*
X714310Y741098D01*
X714292Y741096D01*
X714275Y741097D01*
X714093Y741074D01*
X713910Y741055D01*
X713893Y741049D01*
X713875Y741047D01*
X713702Y740989D01*
X713526Y740933D01*
X713510Y740924D01*
X713493Y740919D01*
X713335Y740827D01*
X713174Y740738D01*
X713160Y740727D01*
X713145Y740718D01*
X712892Y740503D01*
X684328Y711939D01*
X684311Y711919D01*
X684290Y711901D01*
X684183Y711763D01*
X684073Y711628D01*
X684060Y711604D01*
X684044Y711583D01*
X683966Y711426D01*
X683884Y711272D01*
X683876Y711247D01*
X683864Y711222D01*
X683819Y711053D01*
X683769Y710886D01*
X683767Y710860D01*
X683760Y710834D01*
X683733Y710503D01*
X683733Y695212D01*
X683735Y695190D01*
X683733Y695168D01*
X683755Y694991D01*
X683773Y694812D01*
X683779Y694790D01*
X683782Y694768D01*
X683838Y694599D01*
X683891Y694427D01*
X683901Y694407D01*
X683908Y694386D01*
X683997Y694231D01*
X684083Y694073D01*
X684097Y694056D01*
X684108Y694036D01*
X684226Y693901D01*
X684340Y693764D01*
X684358Y693750D01*
X684372Y693733D01*
X684514Y693623D01*
X684654Y693511D01*
X684674Y693501D01*
X684692Y693487D01*
X684987Y693336D01*
X686595Y692669D01*
X699982Y679283D01*
X701509Y675596D01*
X701509Y622164D01*
X701511Y622146D01*
X701509Y622128D01*
X701531Y621946D01*
X701549Y621763D01*
X701554Y621746D01*
X701556Y621729D01*
X701613Y621554D01*
X701667Y621378D01*
X701676Y621363D01*
X701681Y621346D01*
X701772Y621186D01*
X701859Y621024D01*
X701870Y621011D01*
X701879Y620995D01*
X701999Y620856D01*
X702117Y620715D01*
X702131Y620704D01*
X702142Y620690D01*
X702287Y620578D01*
X702430Y620463D01*
X702446Y620455D01*
X702460Y620444D01*
X702625Y620362D01*
X702788Y620277D01*
X702805Y620272D01*
X702821Y620264D01*
X702999Y620217D01*
X703175Y620166D01*
X703192Y620164D01*
X703210Y620160D01*
X703540Y620133D01*
X706049Y620133D01*
X706067Y620135D01*
X706085Y620133D01*
X706267Y620154D01*
X706450Y620173D01*
X706467Y620178D01*
X706484Y620180D01*
X706659Y620237D01*
X706835Y620291D01*
X706850Y620299D01*
X706867Y620305D01*
X707027Y620395D01*
X707189Y620483D01*
X707202Y620494D01*
X707218Y620503D01*
X707357Y620623D01*
X707498Y620740D01*
X707509Y620754D01*
X707523Y620766D01*
X707635Y620910D01*
X707750Y621054D01*
X707758Y621070D01*
X707769Y621084D01*
X707851Y621249D01*
X707936Y621411D01*
X707941Y621428D01*
X707949Y621444D01*
X707996Y621623D01*
X708047Y621798D01*
X708049Y621816D01*
X708053Y621833D01*
X708080Y622164D01*
X708080Y626690D01*
X708745Y627355D01*
X708800Y627421D01*
X708861Y627481D01*
X708927Y627577D01*
X709001Y627667D01*
X709041Y627742D01*
X709089Y627813D01*
X709135Y627920D01*
X709189Y628022D01*
X709214Y628104D01*
X709247Y628183D01*
X709271Y628297D01*
X709304Y628408D01*
X709312Y628494D01*
X709329Y628578D01*
X709330Y628693D01*
X709340Y628809D01*
X709331Y628895D01*
X709332Y628980D01*
X709310Y629094D01*
X709297Y629210D01*
X709286Y629243D01*
X709286Y629246D01*
X709276Y629275D01*
X709271Y629291D01*
X709255Y629375D01*
X709211Y629483D01*
X709175Y629593D01*
X709160Y629622D01*
X709158Y629628D01*
X709133Y629671D01*
X709101Y629748D01*
X709037Y629844D01*
X708981Y629946D01*
X708962Y629968D01*
X708957Y629977D01*
X708916Y630025D01*
X708878Y630082D01*
X708811Y630149D01*
X708742Y630230D01*
X708726Y630246D01*
X708720Y630253D01*
X708715Y630257D01*
X708080Y630892D01*
X707745Y631471D01*
X707572Y632117D01*
X707572Y633469D01*
X720400Y633469D01*
X733228Y633469D01*
X733228Y632117D01*
X733055Y631471D01*
X732720Y630892D01*
X732058Y630230D01*
X732049Y630219D01*
X732030Y630202D01*
X731958Y630111D01*
X731878Y630027D01*
X731837Y629960D01*
X731803Y629918D01*
X731798Y629910D01*
X731780Y629887D01*
X731727Y629783D01*
X731666Y629684D01*
X731637Y629605D01*
X731614Y629563D01*
X731613Y629557D01*
X731598Y629528D01*
X731566Y629416D01*
X731526Y629307D01*
X731513Y629222D01*
X731506Y629199D01*
X731499Y629177D01*
X731499Y629174D01*
X731490Y629140D01*
X731481Y629024D01*
X731463Y628909D01*
X731467Y628824D01*
X731460Y628738D01*
X731475Y628623D01*
X731480Y628507D01*
X731500Y628424D01*
X731511Y628339D01*
X731548Y628229D01*
X731575Y628116D01*
X731612Y628038D01*
X731639Y627957D01*
X731697Y627856D01*
X731746Y627751D01*
X731797Y627683D01*
X731840Y627608D01*
X731935Y627496D01*
X731986Y627428D01*
X732018Y627399D01*
X732055Y627355D01*
X732720Y626690D01*
X732720Y618910D01*
X731696Y617886D01*
X731685Y617872D01*
X731671Y617861D01*
X731557Y617717D01*
X731441Y617575D01*
X731433Y617559D01*
X731422Y617545D01*
X731338Y617381D01*
X731252Y617219D01*
X731247Y617202D01*
X731239Y617186D01*
X731190Y617009D01*
X731138Y616833D01*
X731136Y616815D01*
X731131Y616798D01*
X731118Y616615D01*
X731101Y616432D01*
X731103Y616414D01*
X731102Y616397D01*
X731125Y616215D01*
X731145Y616032D01*
X731150Y616015D01*
X731152Y615997D01*
X731211Y615823D01*
X731266Y615648D01*
X731275Y615632D01*
X731280Y615616D01*
X731372Y615457D01*
X731461Y615296D01*
X731472Y615282D01*
X731481Y615267D01*
X731696Y615014D01*
X732720Y613990D01*
X732720Y606210D01*
X731529Y605019D01*
X730349Y605019D01*
X730322Y605017D01*
X730296Y605019D01*
X730122Y604997D01*
X729948Y604979D01*
X729923Y604972D01*
X729896Y604968D01*
X729730Y604912D01*
X729564Y604861D01*
X729540Y604848D01*
X729515Y604840D01*
X729363Y604753D01*
X729209Y604669D01*
X729189Y604652D01*
X729166Y604639D01*
X728913Y604424D01*
X726083Y601595D01*
X722396Y600067D01*
X689481Y600067D01*
X685793Y601595D01*
X683472Y603916D01*
X683451Y603933D01*
X683433Y603954D01*
X683295Y604061D01*
X683160Y604171D01*
X683136Y604184D01*
X683115Y604200D01*
X682958Y604278D01*
X682804Y604360D01*
X682779Y604368D01*
X682755Y604380D01*
X682585Y604425D01*
X682418Y604475D01*
X682392Y604477D01*
X682366Y604484D01*
X682035Y604511D01*
X674425Y604511D01*
X674425Y610100D01*
X674424Y610117D01*
X674425Y610135D01*
X674404Y610317D01*
X674385Y610500D01*
X674380Y610517D01*
X674378Y610535D01*
X674321Y610710D01*
X674267Y610885D01*
X674259Y610901D01*
X674253Y610918D01*
X674163Y611078D01*
X674076Y611239D01*
X674064Y611253D01*
X674055Y611268D01*
X673935Y611408D01*
X673818Y611548D01*
X673818Y611549D01*
X673817Y611549D01*
X673804Y611560D01*
X673792Y611573D01*
X673792Y611574D01*
X673647Y611686D01*
X673504Y611801D01*
X673488Y611810D01*
X673474Y611820D01*
X673309Y611902D01*
X673146Y611987D01*
X673129Y611992D01*
X673113Y612000D01*
X672935Y612048D01*
X672759Y612098D01*
X672742Y612100D01*
X672724Y612104D01*
X672394Y612131D01*
X659566Y612131D01*
X659566Y613483D01*
X659739Y614129D01*
X660074Y614708D01*
X660736Y615370D01*
X660745Y615381D01*
X660764Y615398D01*
X660834Y615486D01*
X660911Y615567D01*
X660955Y615638D01*
X660991Y615682D01*
X660996Y615690D01*
X661014Y615713D01*
X661065Y615813D01*
X661124Y615909D01*
X661156Y615992D01*
X661180Y616037D01*
X661181Y616043D01*
X661196Y616072D01*
X661226Y616181D01*
X661266Y616285D01*
X661280Y616374D01*
X661288Y616402D01*
X661295Y616423D01*
X661295Y616426D01*
X661304Y616460D01*
X661313Y616572D01*
X661331Y616683D01*
X661327Y616772D01*
X661334Y616862D01*
X661320Y616973D01*
X661316Y617085D01*
X661295Y617172D01*
X661283Y617261D01*
X661248Y617368D01*
X661221Y617477D01*
X661184Y617558D01*
X661155Y617643D01*
X661099Y617740D01*
X661052Y617842D01*
X660999Y617914D01*
X660954Y617992D01*
X660864Y618098D01*
X660814Y618166D01*
X660779Y618198D01*
X660739Y618245D01*
X660074Y618910D01*
X660074Y626690D01*
X660739Y627355D01*
X660796Y627425D01*
X660860Y627487D01*
X660924Y627580D01*
X660995Y627667D01*
X661037Y627746D01*
X661087Y627820D01*
X661131Y627923D01*
X661183Y628022D01*
X661209Y628108D01*
X661244Y628191D01*
X661266Y628300D01*
X661298Y628408D01*
X661306Y628498D01*
X661324Y628585D01*
X661324Y628697D01*
X661334Y628809D01*
X661325Y628899D01*
X661325Y628988D01*
X661303Y629098D01*
X661291Y629210D01*
X661280Y629244D01*
X661280Y629246D01*
X661271Y629273D01*
X661264Y629295D01*
X661246Y629383D01*
X661203Y629486D01*
X661169Y629593D01*
X661154Y629622D01*
X661152Y629628D01*
X661125Y629674D01*
X661092Y629755D01*
X661029Y629847D01*
X660975Y629946D01*
X660956Y629968D01*
X660951Y629977D01*
X660907Y630028D01*
X660867Y630088D01*
X660802Y630153D01*
X660736Y630230D01*
X660720Y630246D01*
X660714Y630253D01*
X660709Y630257D01*
X660074Y630892D01*
X659739Y631471D01*
X659566Y632117D01*
X659566Y635436D01*
X659564Y635454D01*
X659566Y635472D01*
X659545Y635654D01*
X659526Y635837D01*
X659521Y635854D01*
X659519Y635871D01*
X659462Y636046D01*
X659408Y636222D01*
X659400Y636237D01*
X659394Y636254D01*
X659304Y636414D01*
X659216Y636576D01*
X659205Y636589D01*
X659196Y636605D01*
X659076Y636744D01*
X658959Y636885D01*
X658945Y636896D01*
X658933Y636910D01*
X658788Y637022D01*
X658645Y637137D01*
X658629Y637145D01*
X658615Y637156D01*
X658450Y637238D01*
X658288Y637323D01*
X658271Y637328D01*
X658255Y637336D01*
X658076Y637383D01*
X657901Y637434D01*
X657883Y637436D01*
X657866Y637440D01*
X657535Y637467D01*
X609504Y637467D01*
X605817Y638995D01*
X602995Y641817D01*
X601467Y645504D01*
X601467Y649496D01*
X602995Y653183D01*
X605817Y656005D01*
X607835Y656841D01*
X608417Y657082D01*
X608429Y657089D01*
X608443Y657093D01*
X608607Y657184D01*
X608772Y657273D01*
X608783Y657281D01*
X608795Y657288D01*
X608938Y657410D01*
X609083Y657529D01*
X609091Y657540D01*
X609102Y657549D01*
X609218Y657696D01*
X609336Y657842D01*
X609343Y657854D01*
X609351Y657865D01*
X609436Y658032D01*
X609523Y658198D01*
X609527Y658211D01*
X609534Y658224D01*
X609584Y658405D01*
X609636Y658585D01*
X609638Y658598D01*
X609641Y658612D01*
X609655Y658799D01*
X609671Y658986D01*
X609670Y658999D01*
X609671Y659013D01*
X609647Y659201D01*
X609626Y659386D01*
X609622Y659399D01*
X609620Y659413D01*
X609560Y659591D01*
X609503Y659769D01*
X609496Y659781D01*
X609492Y659794D01*
X609398Y659957D01*
X609306Y660121D01*
X609297Y660131D01*
X609291Y660143D01*
X609076Y660396D01*
X609039Y660433D01*
X605931Y663541D01*
X604403Y667228D01*
X604403Y725372D01*
X605931Y729059D01*
X685783Y808912D01*
X685789Y808919D01*
X685796Y808924D01*
X685916Y809074D01*
X686039Y809223D01*
X686043Y809231D01*
X686048Y809238D01*
X686137Y809409D01*
X686227Y809579D01*
X686230Y809587D01*
X686234Y809595D01*
X686287Y809780D01*
X686342Y809965D01*
X686343Y809974D01*
X686345Y809982D01*
X686361Y810174D01*
X686378Y810366D01*
X686377Y810375D01*
X686378Y810384D01*
X686356Y810573D01*
X686335Y810766D01*
X686332Y810775D01*
X686331Y810783D01*
X686272Y810965D01*
X686213Y811150D01*
X686209Y811158D01*
X686206Y811166D01*
X686111Y811335D01*
X686019Y811502D01*
X686013Y811509D01*
X686008Y811517D01*
X685882Y811663D01*
X685758Y811809D01*
X685751Y811815D01*
X685745Y811822D01*
X685594Y811939D01*
X685442Y812059D01*
X685434Y812063D01*
X685427Y812068D01*
X685255Y812154D01*
X685083Y812241D01*
X685075Y812244D01*
X685067Y812248D01*
X684880Y812298D01*
X684695Y812349D01*
X684687Y812350D01*
X684678Y812352D01*
X684347Y812379D01*
X589652Y812379D01*
X589634Y812377D01*
X589616Y812379D01*
X589434Y812358D01*
X589251Y812339D01*
X589234Y812334D01*
X589217Y812332D01*
X589042Y812275D01*
X588866Y812221D01*
X588851Y812213D01*
X588834Y812207D01*
X588674Y812117D01*
X588512Y812029D01*
X588499Y812018D01*
X588483Y812009D01*
X588344Y811889D01*
X588203Y811772D01*
X588192Y811758D01*
X588178Y811746D01*
X588066Y811601D01*
X587951Y811458D01*
X587943Y811442D01*
X587932Y811428D01*
X587850Y811263D01*
X587765Y811101D01*
X587760Y811084D01*
X587752Y811068D01*
X587705Y810889D01*
X587654Y810714D01*
X587652Y810696D01*
X587648Y810679D01*
X587621Y810348D01*
X587621Y589652D01*
X587623Y589634D01*
X587621Y589616D01*
X587642Y589434D01*
X587661Y589251D01*
X587666Y589234D01*
X587668Y589217D01*
X587725Y589042D01*
X587779Y588866D01*
X587787Y588851D01*
X587793Y588834D01*
X587883Y588674D01*
X587971Y588512D01*
X587982Y588499D01*
X587991Y588483D01*
X588111Y588344D01*
X588228Y588203D01*
X588242Y588192D01*
X588254Y588178D01*
X588399Y588066D01*
X588542Y587951D01*
X588558Y587943D01*
X588572Y587932D01*
X588737Y587850D01*
X588899Y587765D01*
X588916Y587760D01*
X588932Y587752D01*
X589111Y587705D01*
X589286Y587654D01*
X589304Y587652D01*
X589321Y587648D01*
X589652Y587621D01*
X778436Y587621D01*
X778454Y587623D01*
G37*
G36*
X797061Y651906D02*
X797061Y651906D01*
X797074Y651905D01*
X797259Y651928D01*
X797448Y651948D01*
X797461Y651953D01*
X797474Y651954D01*
X797650Y652013D01*
X797831Y652070D01*
X797843Y652076D01*
X797856Y652081D01*
X798019Y652174D01*
X798184Y652265D01*
X798194Y652273D01*
X798206Y652280D01*
X798348Y652404D01*
X798491Y652525D01*
X798499Y652536D01*
X798509Y652545D01*
X798624Y652693D01*
X798740Y652841D01*
X798746Y652853D01*
X798755Y652864D01*
X798906Y653159D01*
X799745Y655183D01*
X802567Y658005D01*
X804660Y658872D01*
X804660Y658873D01*
X806254Y659533D01*
X851936Y659533D01*
X851954Y659535D01*
X851972Y659533D01*
X852154Y659554D01*
X852337Y659573D01*
X852354Y659578D01*
X852371Y659580D01*
X852546Y659637D01*
X852722Y659691D01*
X852737Y659699D01*
X852754Y659705D01*
X852914Y659795D01*
X853076Y659883D01*
X853089Y659894D01*
X853105Y659903D01*
X853244Y660023D01*
X853385Y660140D01*
X853396Y660154D01*
X853410Y660166D01*
X853522Y660310D01*
X853637Y660454D01*
X853645Y660470D01*
X853656Y660484D01*
X853738Y660649D01*
X853823Y660811D01*
X853828Y660828D01*
X853836Y660844D01*
X853883Y661023D01*
X853934Y661198D01*
X853936Y661216D01*
X853940Y661233D01*
X853967Y661564D01*
X853967Y663996D01*
X854313Y664829D01*
X854322Y664859D01*
X854336Y664887D01*
X854380Y665052D01*
X854429Y665215D01*
X854432Y665246D01*
X854440Y665276D01*
X854467Y665607D01*
X854467Y668936D01*
X854465Y668954D01*
X854467Y668972D01*
X854446Y669154D01*
X854427Y669337D01*
X854422Y669354D01*
X854420Y669371D01*
X854363Y669546D01*
X854309Y669722D01*
X854301Y669737D01*
X854295Y669754D01*
X854205Y669914D01*
X854117Y670076D01*
X854106Y670089D01*
X854097Y670105D01*
X853977Y670244D01*
X853860Y670385D01*
X853846Y670396D01*
X853834Y670410D01*
X853689Y670522D01*
X853546Y670637D01*
X853530Y670645D01*
X853516Y670656D01*
X853351Y670738D01*
X853189Y670823D01*
X853172Y670828D01*
X853156Y670836D01*
X852977Y670883D01*
X852802Y670934D01*
X852784Y670936D01*
X852767Y670940D01*
X852436Y670967D01*
X837004Y670967D01*
X833317Y672495D01*
X817439Y688372D01*
X817419Y688389D01*
X817401Y688410D01*
X817263Y688517D01*
X817128Y688627D01*
X817104Y688640D01*
X817083Y688656D01*
X816926Y688734D01*
X816772Y688816D01*
X816746Y688824D01*
X816722Y688836D01*
X816553Y688881D01*
X816386Y688931D01*
X816360Y688933D01*
X816334Y688940D01*
X816003Y688967D01*
X734751Y688967D01*
X734733Y688965D01*
X734715Y688967D01*
X734533Y688946D01*
X734350Y688927D01*
X734333Y688922D01*
X734316Y688920D01*
X734141Y688863D01*
X733965Y688809D01*
X733950Y688801D01*
X733933Y688795D01*
X733773Y688705D01*
X733611Y688617D01*
X733598Y688606D01*
X733582Y688597D01*
X733443Y688477D01*
X733302Y688360D01*
X733291Y688346D01*
X733277Y688334D01*
X733165Y688189D01*
X733050Y688046D01*
X733042Y688030D01*
X733031Y688016D01*
X732949Y687851D01*
X732864Y687689D01*
X732859Y687672D01*
X732851Y687656D01*
X732804Y687477D01*
X732753Y687302D01*
X732751Y687284D01*
X732747Y687267D01*
X732720Y686936D01*
X732720Y685564D01*
X732722Y685546D01*
X732720Y685528D01*
X732741Y685346D01*
X732760Y685163D01*
X732765Y685146D01*
X732767Y685129D01*
X732824Y684954D01*
X732878Y684778D01*
X732886Y684763D01*
X732892Y684746D01*
X732982Y684586D01*
X733070Y684424D01*
X733081Y684411D01*
X733090Y684395D01*
X733210Y684256D01*
X733327Y684115D01*
X733341Y684104D01*
X733353Y684090D01*
X733498Y683978D01*
X733641Y683863D01*
X733657Y683855D01*
X733671Y683844D01*
X733836Y683762D01*
X733998Y683677D01*
X734015Y683672D01*
X734031Y683664D01*
X734210Y683617D01*
X734385Y683566D01*
X734403Y683564D01*
X734420Y683560D01*
X734751Y683533D01*
X743496Y683533D01*
X747183Y682005D01*
X750005Y679183D01*
X751533Y675496D01*
X751533Y672523D01*
X751535Y672501D01*
X751533Y672479D01*
X751555Y672301D01*
X751573Y672123D01*
X751579Y672101D01*
X751582Y672079D01*
X751638Y671909D01*
X751691Y671738D01*
X751701Y671718D01*
X751708Y671697D01*
X751797Y671541D01*
X751883Y671384D01*
X751897Y671366D01*
X751908Y671347D01*
X752026Y671212D01*
X752140Y671074D01*
X752158Y671060D01*
X752172Y671044D01*
X752315Y670934D01*
X752454Y670822D01*
X752474Y670812D01*
X752491Y670798D01*
X752787Y670647D01*
X755783Y669405D01*
X771561Y653628D01*
X771581Y653611D01*
X771599Y653590D01*
X771737Y653483D01*
X771872Y653373D01*
X771896Y653360D01*
X771917Y653344D01*
X772074Y653266D01*
X772228Y653184D01*
X772253Y653176D01*
X772278Y653164D01*
X772447Y653119D01*
X772614Y653069D01*
X772640Y653067D01*
X772666Y653060D01*
X772997Y653033D01*
X785895Y653033D01*
X786058Y653049D01*
X786222Y653059D01*
X786258Y653069D01*
X786296Y653073D01*
X786452Y653121D01*
X786611Y653163D01*
X786649Y653181D01*
X786681Y653191D01*
X786757Y653232D01*
X786911Y653305D01*
X787019Y653368D01*
X787665Y653541D01*
X789416Y653541D01*
X789497Y653478D01*
X789640Y653363D01*
X789656Y653355D01*
X789670Y653344D01*
X789835Y653262D01*
X789997Y653177D01*
X790014Y653172D01*
X790030Y653164D01*
X790208Y653117D01*
X790384Y653066D01*
X790402Y653064D01*
X790419Y653060D01*
X790750Y653033D01*
X790768Y653034D01*
X790785Y653033D01*
X790786Y653033D01*
X790968Y653054D01*
X791151Y653073D01*
X791168Y653078D01*
X791186Y653080D01*
X791360Y653137D01*
X791536Y653191D01*
X791551Y653199D01*
X791568Y653205D01*
X791729Y653295D01*
X791890Y653383D01*
X791903Y653394D01*
X791919Y653403D01*
X792058Y653523D01*
X792080Y653541D01*
X793835Y653541D01*
X794481Y653368D01*
X795060Y653033D01*
X795593Y652500D01*
X795604Y652491D01*
X795612Y652481D01*
X795758Y652365D01*
X795905Y652245D01*
X795917Y652239D01*
X795927Y652230D01*
X796094Y652144D01*
X796260Y652056D01*
X796273Y652052D01*
X796285Y652046D01*
X796466Y651995D01*
X796646Y651941D01*
X796660Y651940D01*
X796673Y651937D01*
X796858Y651922D01*
X797047Y651905D01*
X797061Y651906D01*
G37*
G36*
X658061Y683635D02*
X658061Y683635D01*
X658079Y683633D01*
X658261Y683654D01*
X658444Y683673D01*
X658461Y683678D01*
X658478Y683680D01*
X658653Y683737D01*
X658829Y683791D01*
X658844Y683799D01*
X658861Y683805D01*
X659021Y683895D01*
X659183Y683983D01*
X659196Y683994D01*
X659212Y684003D01*
X659351Y684123D01*
X659492Y684240D01*
X659503Y684254D01*
X659517Y684266D01*
X659629Y684411D01*
X659744Y684554D01*
X659752Y684570D01*
X659763Y684584D01*
X659845Y684749D01*
X659930Y684911D01*
X659935Y684928D01*
X659943Y684944D01*
X659990Y685123D01*
X660041Y685298D01*
X660043Y685316D01*
X660047Y685333D01*
X660074Y685664D01*
X660074Y690190D01*
X661265Y691381D01*
X661636Y691381D01*
X661654Y691383D01*
X661672Y691381D01*
X661854Y691402D01*
X662037Y691421D01*
X662054Y691426D01*
X662071Y691428D01*
X662246Y691485D01*
X662422Y691539D01*
X662437Y691547D01*
X662454Y691553D01*
X662614Y691643D01*
X662776Y691731D01*
X662789Y691742D01*
X662805Y691751D01*
X662944Y691871D01*
X663085Y691988D01*
X663096Y692002D01*
X663110Y692014D01*
X663222Y692159D01*
X663337Y692302D01*
X663345Y692318D01*
X663356Y692332D01*
X663438Y692497D01*
X663523Y692659D01*
X663528Y692676D01*
X663536Y692692D01*
X663583Y692871D01*
X663634Y693046D01*
X663636Y693064D01*
X663640Y693081D01*
X663667Y693412D01*
X663667Y717496D01*
X665195Y721183D01*
X699990Y755978D01*
X700009Y756002D01*
X700033Y756023D01*
X700137Y756158D01*
X700245Y756289D01*
X700259Y756317D01*
X700278Y756342D01*
X700430Y756637D01*
X701327Y758802D01*
X727496Y784972D01*
X727502Y784979D01*
X727509Y784984D01*
X727629Y785134D01*
X727751Y785283D01*
X727756Y785291D01*
X727761Y785298D01*
X727850Y785469D01*
X727940Y785639D01*
X727943Y785647D01*
X727947Y785655D01*
X728000Y785841D01*
X728055Y786025D01*
X728056Y786034D01*
X728058Y786042D01*
X728074Y786234D01*
X728091Y786426D01*
X728090Y786435D01*
X728091Y786444D01*
X728069Y786633D01*
X728048Y786826D01*
X728045Y786835D01*
X728044Y786843D01*
X727985Y787025D01*
X727926Y787210D01*
X727922Y787218D01*
X727919Y787226D01*
X727824Y787395D01*
X727732Y787562D01*
X727726Y787569D01*
X727721Y787577D01*
X727595Y787723D01*
X727471Y787869D01*
X727464Y787875D01*
X727458Y787882D01*
X727307Y787999D01*
X727155Y788119D01*
X727147Y788123D01*
X727140Y788128D01*
X726968Y788214D01*
X726796Y788301D01*
X726788Y788304D01*
X726780Y788308D01*
X726593Y788358D01*
X726408Y788409D01*
X726399Y788410D01*
X726391Y788412D01*
X726060Y788439D01*
X709469Y788439D01*
X709443Y788437D01*
X709416Y788439D01*
X709242Y788417D01*
X709068Y788399D01*
X709043Y788392D01*
X709016Y788388D01*
X708851Y788333D01*
X708684Y788281D01*
X708660Y788268D01*
X708635Y788260D01*
X708483Y788173D01*
X708330Y788089D01*
X708309Y788072D01*
X708286Y788059D01*
X708033Y787844D01*
X648301Y728112D01*
X648295Y728105D01*
X648288Y728100D01*
X648168Y727950D01*
X648046Y727801D01*
X648041Y727793D01*
X648036Y727786D01*
X647947Y727615D01*
X647857Y727445D01*
X647854Y727437D01*
X647850Y727429D01*
X647797Y727243D01*
X647742Y727059D01*
X647741Y727050D01*
X647739Y727042D01*
X647723Y726850D01*
X647706Y726658D01*
X647707Y726649D01*
X647706Y726640D01*
X647728Y726451D01*
X647749Y726258D01*
X647752Y726249D01*
X647753Y726241D01*
X647813Y726057D01*
X647871Y725874D01*
X647875Y725866D01*
X647878Y725858D01*
X647973Y725689D01*
X648066Y725522D01*
X648071Y725515D01*
X648076Y725507D01*
X648203Y725360D01*
X648326Y725215D01*
X648333Y725209D01*
X648339Y725202D01*
X648490Y725085D01*
X648642Y724965D01*
X648650Y724961D01*
X648657Y724956D01*
X648829Y724870D01*
X649001Y724783D01*
X649009Y724780D01*
X649018Y724776D01*
X649204Y724726D01*
X649389Y724675D01*
X649398Y724674D01*
X649406Y724672D01*
X649737Y724645D01*
X652088Y724645D01*
X657445Y719288D01*
X657445Y717531D01*
X648300Y717531D01*
X648283Y717530D01*
X648265Y717531D01*
X648082Y717510D01*
X647900Y717491D01*
X647883Y717486D01*
X647865Y717484D01*
X647690Y717427D01*
X647515Y717373D01*
X647499Y717365D01*
X647482Y717359D01*
X647322Y717269D01*
X647161Y717182D01*
X647147Y717170D01*
X647132Y717161D01*
X646992Y717041D01*
X646852Y716924D01*
X646851Y716924D01*
X646851Y716923D01*
X646840Y716910D01*
X646827Y716898D01*
X646826Y716898D01*
X646714Y716753D01*
X646599Y716610D01*
X646590Y716594D01*
X646580Y716580D01*
X646498Y716415D01*
X646413Y716252D01*
X646408Y716235D01*
X646400Y716219D01*
X646352Y716041D01*
X646302Y715865D01*
X646300Y715848D01*
X646296Y715830D01*
X646269Y715500D01*
X646269Y706355D01*
X644512Y706355D01*
X639155Y711712D01*
X639155Y714063D01*
X639154Y714072D01*
X639155Y714081D01*
X639134Y714272D01*
X639115Y714464D01*
X639113Y714472D01*
X639112Y714482D01*
X639054Y714665D01*
X638997Y714849D01*
X638993Y714857D01*
X638990Y714865D01*
X638897Y715034D01*
X638805Y715203D01*
X638800Y715210D01*
X638795Y715218D01*
X638670Y715365D01*
X638548Y715512D01*
X638541Y715518D01*
X638535Y715525D01*
X638384Y715644D01*
X638234Y715764D01*
X638226Y715768D01*
X638219Y715774D01*
X638046Y715862D01*
X637877Y715950D01*
X637868Y715952D01*
X637860Y715956D01*
X637673Y716008D01*
X637490Y716061D01*
X637481Y716062D01*
X637472Y716064D01*
X637280Y716078D01*
X637088Y716094D01*
X637079Y716093D01*
X637070Y716094D01*
X636879Y716069D01*
X636689Y716047D01*
X636680Y716044D01*
X636671Y716043D01*
X636489Y715982D01*
X636306Y715922D01*
X636298Y715918D01*
X636289Y715915D01*
X636124Y715819D01*
X635955Y715724D01*
X635948Y715718D01*
X635940Y715714D01*
X635687Y715499D01*
X635627Y715439D01*
X635610Y715418D01*
X635590Y715401D01*
X635484Y715263D01*
X635372Y715127D01*
X635360Y715104D01*
X635344Y715083D01*
X635266Y714927D01*
X635184Y714772D01*
X635176Y714746D01*
X635164Y714722D01*
X635119Y714553D01*
X635069Y714386D01*
X635067Y714359D01*
X635060Y714334D01*
X635033Y714003D01*
X635033Y685664D01*
X635035Y685646D01*
X635033Y685628D01*
X635054Y685446D01*
X635073Y685263D01*
X635078Y685246D01*
X635080Y685229D01*
X635137Y685054D01*
X635191Y684878D01*
X635199Y684863D01*
X635205Y684846D01*
X635295Y684685D01*
X635383Y684524D01*
X635394Y684511D01*
X635403Y684495D01*
X635523Y684356D01*
X635640Y684215D01*
X635654Y684204D01*
X635666Y684190D01*
X635811Y684078D01*
X635954Y683963D01*
X635970Y683955D01*
X635984Y683944D01*
X636149Y683862D01*
X636311Y683777D01*
X636328Y683772D01*
X636344Y683764D01*
X636523Y683717D01*
X636698Y683666D01*
X636716Y683664D01*
X636733Y683660D01*
X637064Y683633D01*
X658043Y683633D01*
X658061Y683635D01*
G37*
%LPC*%
G36*
X661772Y604511D02*
X661772Y604511D01*
X661126Y604684D01*
X660547Y605019D01*
X660074Y605492D01*
X659739Y606071D01*
X659566Y606717D01*
X659566Y608069D01*
X670363Y608069D01*
X670363Y604511D01*
X661772Y604511D01*
G37*
%LPD*%
%LPC*%
G36*
X722531Y739555D02*
X722531Y739555D01*
X722531Y745863D01*
X722528Y745893D01*
X722530Y745923D01*
X722508Y746093D01*
X722491Y746263D01*
X722483Y746292D01*
X722479Y746323D01*
X722424Y746484D01*
X722373Y746648D01*
X722359Y746675D01*
X722358Y746678D01*
X722474Y746669D01*
X729645Y746669D01*
X729645Y744912D01*
X724288Y739555D01*
X722531Y739555D01*
G37*
%LPD*%
%LPC*%
G36*
X899331Y612631D02*
X899331Y612631D01*
X899331Y619745D01*
X901088Y619745D01*
X906445Y614388D01*
X906445Y612631D01*
X899331Y612631D01*
G37*
%LPD*%
%LPC*%
G36*
X866931Y612131D02*
X866931Y612131D01*
X866931Y619245D01*
X868688Y619245D01*
X874045Y613888D01*
X874045Y612131D01*
X866931Y612131D01*
G37*
%LPD*%
%LPC*%
G36*
X650331Y706355D02*
X650331Y706355D01*
X650331Y713469D01*
X657445Y713469D01*
X657445Y711712D01*
X652088Y706355D01*
X650331Y706355D01*
G37*
%LPD*%
%LPC*%
G36*
X888155Y612631D02*
X888155Y612631D01*
X888155Y614388D01*
X893512Y619745D01*
X895269Y619745D01*
X895269Y612631D01*
X888155Y612631D01*
G37*
%LPD*%
%LPC*%
G36*
X855755Y612131D02*
X855755Y612131D01*
X855755Y613888D01*
X861112Y619245D01*
X862869Y619245D01*
X862869Y612131D01*
X855755Y612131D01*
G37*
%LPD*%
%LPC*%
G36*
X811749Y614049D02*
X811749Y614049D01*
X811749Y621091D01*
X814835Y621091D01*
X815481Y620918D01*
X816060Y620583D01*
X816533Y620110D01*
X816868Y619531D01*
X817041Y618885D01*
X817041Y614049D01*
X811749Y614049D01*
G37*
%LPD*%
%LPC*%
G36*
X793219Y721042D02*
X793219Y721042D01*
X793225Y721080D01*
X793694Y722525D01*
X794384Y723879D01*
X795277Y725108D01*
X796352Y726183D01*
X797581Y727076D01*
X798935Y727766D01*
X800380Y728235D01*
X800418Y728241D01*
X800418Y721042D01*
X793219Y721042D01*
G37*
%LPD*%
D10*
X897300Y636000D03*
X897300Y610600D03*
X864900Y635500D03*
X864900Y610100D03*
D11*
X809000Y611300D03*
X791000Y611300D03*
D12*
X864000Y681000D03*
X864000Y662000D03*
X921500Y669500D03*
X921500Y688500D03*
D13*
X808250Y636500D03*
X808250Y643000D03*
X808250Y649500D03*
X790750Y636500D03*
X790750Y643000D03*
X790750Y649500D03*
D14*
X672394Y686300D03*
X672394Y673600D03*
X672394Y660900D03*
X672394Y648200D03*
X672394Y635500D03*
X672394Y622800D03*
X672394Y610100D03*
X720400Y610100D03*
X720400Y622800D03*
X720400Y635500D03*
X720400Y648200D03*
X720400Y660900D03*
X720400Y673600D03*
X720400Y686300D03*
D15*
X873760Y736600D03*
X863600Y718820D03*
X853440Y736600D03*
X843280Y718820D03*
X833120Y736600D03*
X822960Y718820D03*
X812800Y736600D03*
X802640Y718820D03*
D16*
X757174Y727710D03*
X919226Y727710D03*
D17*
X673700Y715500D03*
X648300Y715500D03*
D18*
X720500Y723300D03*
X720500Y748700D03*
D19*
X867840Y637320D02*
X894960Y637320D01*
X897300Y636000D01*
X867840Y637320D02*
X865867Y636099D01*
X864900Y635500D01*
D20*
X864000Y636099D02*
X864000Y649500D01*
X864000Y636099D02*
X865867Y636099D01*
X864000Y649500D02*
X808250Y649500D01*
X864000Y649500D02*
X864000Y650000D01*
X864000Y662000D01*
X720500Y686300D02*
X720400Y686300D01*
X720500Y686300D02*
X720500Y699000D01*
X720500Y723300D01*
X822960Y718820D02*
X822960Y699000D01*
X821000Y699000D01*
X720500Y699000D01*
X839000Y681000D02*
X864000Y681000D01*
X839000Y681000D02*
X821000Y699000D01*
X824000Y643000D02*
X808250Y643000D01*
X824000Y643000D02*
X833000Y634000D01*
D21*
X833000Y634000D03*
X741500Y673500D03*
D20*
X720500Y673500D01*
X720400Y673600D01*
X921500Y669500D02*
X921500Y589652D01*
X790500Y589652D01*
X790500Y611300D01*
X791000Y611300D01*
X625000Y719000D02*
X704472Y798472D01*
X625000Y719000D02*
X625000Y673600D01*
X672394Y673600D01*
X873760Y736600D02*
X873760Y798472D01*
X704472Y798472D01*
X614436Y669224D02*
X620624Y663036D01*
X925802Y711835D02*
X935101Y721134D01*
X925802Y711835D02*
X912650Y711835D01*
X614436Y723376D02*
X614436Y669224D01*
X614436Y723376D02*
X700096Y809036D01*
X670258Y663036D02*
X672394Y660900D01*
X670258Y663036D02*
X620624Y663036D01*
X700096Y809036D02*
X891304Y809036D01*
X935101Y765239D01*
X935101Y721134D01*
X912650Y711835D02*
X905665Y718820D01*
X863600Y718820D01*
X853440Y736600D02*
X853440Y786500D01*
X822500Y786500D01*
D21*
X822500Y786500D03*
X611500Y647500D03*
D20*
X672394Y647500D01*
X672394Y648200D01*
X672394Y685700D02*
X672394Y686300D01*
X672394Y685700D02*
X673700Y687006D01*
X673700Y715500D01*
X709832Y751632D02*
X709832Y753119D01*
X709832Y751632D02*
X673700Y715500D01*
X709832Y753119D02*
X744621Y787908D01*
X785432Y787908D01*
X826340Y747000D02*
X829000Y747000D01*
X826340Y747000D02*
X785432Y787908D01*
X829000Y747000D02*
X833120Y742880D01*
X833120Y736600D01*
X720400Y610100D02*
X691476Y610100D01*
X674530Y684164D02*
X672394Y686300D01*
X691476Y673600D02*
X691476Y610100D01*
X691476Y673600D02*
X680912Y684164D01*
X674530Y684164D01*
X758000Y636500D02*
X790750Y636500D01*
X746300Y648200D02*
X720400Y648200D01*
X746300Y648200D02*
X758000Y636500D01*
X768000Y643000D02*
X790750Y643000D01*
X750100Y660900D02*
X720400Y660900D01*
X750100Y660900D02*
X768000Y643000D01*
D19*
X867840Y610200D02*
X894960Y610200D01*
X897300Y610600D01*
X867840Y610200D02*
X866393Y610151D01*
X864900Y610100D01*
D20*
X809000Y610151D02*
X809000Y611300D01*
X809000Y610151D02*
X866393Y610151D01*
X808250Y611300D02*
X808250Y636500D01*
X808250Y611300D02*
X809000Y611300D01*
X790750Y649500D02*
X780000Y649500D01*
X769000Y660500D01*
D21*
X769000Y660500D03*
D20*
X741500Y635500D02*
X720400Y635500D01*
X741500Y635500D02*
X753000Y624000D01*
D21*
X753000Y624000D03*
D20*
X770735Y718820D02*
X802640Y718820D01*
X770735Y718820D02*
X763750Y711835D01*
X750598Y711835D01*
X739000Y723433D01*
X739000Y748700D02*
X720500Y748700D01*
X739000Y748700D02*
X739000Y723433D01*
X672394Y635500D02*
X638000Y635500D01*
D21*
X638000Y635500D03*
D22*
X782000Y731000D03*
D20*
X843280Y718820D02*
X847244Y718820D01*
X865064Y701000D02*
X905500Y701000D01*
X918000Y688500D01*
X921500Y688500D01*
X865064Y701000D02*
X847244Y718820D01*
M02*
