G04 EAGLE Gerber X2 export*
%TF.Part,Single*%
%TF.FileFunction,Other,Silk screen CMP*%
%TF.FilePolarity,Positive*%
%TF.GenerationSoftware,Autodesk,EAGLE,8.6.3*%
%TF.CreationDate,2019-03-19T20:13:45Z*%
G75*
%MOMM*%
%FSLAX34Y34*%
%LPD*%
%AMOC8*
5,1,8,0,0,1.08239X$1,22.5*%
G01*
%ADD10C,0.000000*%
%ADD11C,0.152400*%
%ADD12C,0.304800*%
%ADD13C,0.127000*%
%ADD14C,0.076200*%
%ADD15C,0.200000*%
%ADD16C,0.101600*%
%ADD17C,0.050800*%
%ADD18C,0.203200*%


D10*
X580000Y580000D02*
X950000Y580000D01*
X950000Y820000D01*
X580000Y820000D01*
X580000Y580000D01*
D11*
X890950Y644890D02*
X903650Y644890D01*
X903790Y644888D01*
X903930Y644882D01*
X904070Y644873D01*
X904209Y644859D01*
X904348Y644842D01*
X904486Y644821D01*
X904624Y644796D01*
X904761Y644767D01*
X904897Y644735D01*
X905032Y644698D01*
X905166Y644658D01*
X905299Y644615D01*
X905431Y644567D01*
X905562Y644517D01*
X905691Y644462D01*
X905818Y644404D01*
X905944Y644343D01*
X906068Y644278D01*
X906190Y644209D01*
X906310Y644138D01*
X906428Y644063D01*
X906545Y643985D01*
X906659Y643903D01*
X906770Y643819D01*
X906879Y643731D01*
X906986Y643641D01*
X907091Y643547D01*
X907192Y643451D01*
X907291Y643352D01*
X907387Y643251D01*
X907481Y643146D01*
X907571Y643039D01*
X907659Y642930D01*
X907743Y642819D01*
X907825Y642705D01*
X907903Y642588D01*
X907978Y642470D01*
X908049Y642350D01*
X908118Y642228D01*
X908183Y642104D01*
X908244Y641978D01*
X908302Y641851D01*
X908357Y641722D01*
X908407Y641591D01*
X908455Y641459D01*
X908498Y641326D01*
X908538Y641192D01*
X908575Y641057D01*
X908607Y640921D01*
X908636Y640784D01*
X908661Y640646D01*
X908682Y640508D01*
X908699Y640369D01*
X908713Y640230D01*
X908722Y640090D01*
X908728Y639950D01*
X908730Y639810D01*
X890950Y644890D02*
X890810Y644888D01*
X890670Y644882D01*
X890530Y644873D01*
X890391Y644859D01*
X890252Y644842D01*
X890114Y644821D01*
X889976Y644796D01*
X889839Y644767D01*
X889703Y644735D01*
X889568Y644698D01*
X889434Y644658D01*
X889301Y644615D01*
X889169Y644567D01*
X889038Y644517D01*
X888909Y644462D01*
X888782Y644404D01*
X888656Y644343D01*
X888532Y644278D01*
X888410Y644209D01*
X888290Y644138D01*
X888172Y644063D01*
X888055Y643985D01*
X887941Y643903D01*
X887830Y643819D01*
X887721Y643731D01*
X887614Y643641D01*
X887509Y643547D01*
X887408Y643451D01*
X887309Y643352D01*
X887213Y643251D01*
X887119Y643146D01*
X887029Y643039D01*
X886941Y642930D01*
X886857Y642819D01*
X886775Y642705D01*
X886697Y642588D01*
X886622Y642470D01*
X886551Y642350D01*
X886482Y642228D01*
X886417Y642104D01*
X886356Y641978D01*
X886298Y641851D01*
X886243Y641722D01*
X886193Y641591D01*
X886145Y641459D01*
X886102Y641326D01*
X886062Y641192D01*
X886025Y641057D01*
X885993Y640921D01*
X885964Y640784D01*
X885939Y640646D01*
X885918Y640508D01*
X885901Y640369D01*
X885887Y640230D01*
X885878Y640090D01*
X885872Y639950D01*
X885870Y639810D01*
X908730Y639810D02*
X908730Y606790D01*
X903650Y601710D02*
X890950Y601710D01*
X885870Y606790D02*
X885870Y639810D01*
X908730Y606790D02*
X908728Y606650D01*
X908722Y606510D01*
X908713Y606370D01*
X908699Y606231D01*
X908682Y606092D01*
X908661Y605954D01*
X908636Y605816D01*
X908607Y605679D01*
X908575Y605543D01*
X908538Y605408D01*
X908498Y605274D01*
X908455Y605141D01*
X908407Y605009D01*
X908357Y604878D01*
X908302Y604749D01*
X908244Y604622D01*
X908183Y604496D01*
X908118Y604372D01*
X908049Y604250D01*
X907978Y604130D01*
X907903Y604012D01*
X907825Y603895D01*
X907743Y603781D01*
X907659Y603670D01*
X907571Y603561D01*
X907481Y603454D01*
X907387Y603349D01*
X907291Y603248D01*
X907192Y603149D01*
X907091Y603053D01*
X906986Y602959D01*
X906879Y602869D01*
X906770Y602781D01*
X906659Y602697D01*
X906545Y602615D01*
X906428Y602537D01*
X906310Y602462D01*
X906190Y602391D01*
X906068Y602322D01*
X905944Y602257D01*
X905818Y602196D01*
X905691Y602138D01*
X905562Y602083D01*
X905431Y602033D01*
X905299Y601985D01*
X905166Y601942D01*
X905032Y601902D01*
X904897Y601865D01*
X904761Y601833D01*
X904624Y601804D01*
X904486Y601779D01*
X904348Y601758D01*
X904209Y601741D01*
X904070Y601727D01*
X903930Y601718D01*
X903790Y601712D01*
X903650Y601710D01*
X890950Y601710D02*
X890810Y601712D01*
X890670Y601718D01*
X890530Y601727D01*
X890391Y601741D01*
X890252Y601758D01*
X890114Y601779D01*
X889976Y601804D01*
X889839Y601833D01*
X889703Y601865D01*
X889568Y601902D01*
X889434Y601942D01*
X889301Y601985D01*
X889169Y602033D01*
X889038Y602083D01*
X888909Y602138D01*
X888782Y602196D01*
X888656Y602257D01*
X888532Y602322D01*
X888410Y602391D01*
X888290Y602462D01*
X888172Y602537D01*
X888055Y602615D01*
X887941Y602697D01*
X887830Y602781D01*
X887721Y602869D01*
X887614Y602959D01*
X887509Y603053D01*
X887408Y603149D01*
X887309Y603248D01*
X887213Y603349D01*
X887119Y603454D01*
X887029Y603561D01*
X886941Y603670D01*
X886857Y603781D01*
X886775Y603895D01*
X886697Y604012D01*
X886622Y604130D01*
X886551Y604250D01*
X886482Y604372D01*
X886417Y604496D01*
X886356Y604622D01*
X886298Y604749D01*
X886243Y604878D01*
X886193Y605009D01*
X886145Y605141D01*
X886102Y605274D01*
X886062Y605408D01*
X886025Y605543D01*
X885993Y605679D01*
X885964Y605816D01*
X885939Y605954D01*
X885918Y606092D01*
X885901Y606231D01*
X885887Y606370D01*
X885878Y606510D01*
X885872Y606650D01*
X885870Y606790D01*
D12*
X889680Y626348D02*
X904920Y626348D01*
X904920Y619998D02*
X889680Y619998D01*
D13*
X911895Y624047D02*
X913802Y625954D01*
X911895Y624047D02*
X911895Y620234D01*
X913802Y618327D01*
X921428Y618327D01*
X923335Y620234D01*
X923335Y624047D01*
X921428Y625954D01*
X915709Y630021D02*
X911895Y633834D01*
X923335Y633834D01*
X923335Y630021D02*
X923335Y637648D01*
D11*
X871250Y644390D02*
X858550Y644390D01*
X871250Y644390D02*
X871390Y644388D01*
X871530Y644382D01*
X871670Y644373D01*
X871809Y644359D01*
X871948Y644342D01*
X872086Y644321D01*
X872224Y644296D01*
X872361Y644267D01*
X872497Y644235D01*
X872632Y644198D01*
X872766Y644158D01*
X872899Y644115D01*
X873031Y644067D01*
X873162Y644017D01*
X873291Y643962D01*
X873418Y643904D01*
X873544Y643843D01*
X873668Y643778D01*
X873790Y643709D01*
X873910Y643638D01*
X874028Y643563D01*
X874145Y643485D01*
X874259Y643403D01*
X874370Y643319D01*
X874479Y643231D01*
X874586Y643141D01*
X874691Y643047D01*
X874792Y642951D01*
X874891Y642852D01*
X874987Y642751D01*
X875081Y642646D01*
X875171Y642539D01*
X875259Y642430D01*
X875343Y642319D01*
X875425Y642205D01*
X875503Y642088D01*
X875578Y641970D01*
X875649Y641850D01*
X875718Y641728D01*
X875783Y641604D01*
X875844Y641478D01*
X875902Y641351D01*
X875957Y641222D01*
X876007Y641091D01*
X876055Y640959D01*
X876098Y640826D01*
X876138Y640692D01*
X876175Y640557D01*
X876207Y640421D01*
X876236Y640284D01*
X876261Y640146D01*
X876282Y640008D01*
X876299Y639869D01*
X876313Y639730D01*
X876322Y639590D01*
X876328Y639450D01*
X876330Y639310D01*
X858550Y644390D02*
X858410Y644388D01*
X858270Y644382D01*
X858130Y644373D01*
X857991Y644359D01*
X857852Y644342D01*
X857714Y644321D01*
X857576Y644296D01*
X857439Y644267D01*
X857303Y644235D01*
X857168Y644198D01*
X857034Y644158D01*
X856901Y644115D01*
X856769Y644067D01*
X856638Y644017D01*
X856509Y643962D01*
X856382Y643904D01*
X856256Y643843D01*
X856132Y643778D01*
X856010Y643709D01*
X855890Y643638D01*
X855772Y643563D01*
X855655Y643485D01*
X855541Y643403D01*
X855430Y643319D01*
X855321Y643231D01*
X855214Y643141D01*
X855109Y643047D01*
X855008Y642951D01*
X854909Y642852D01*
X854813Y642751D01*
X854719Y642646D01*
X854629Y642539D01*
X854541Y642430D01*
X854457Y642319D01*
X854375Y642205D01*
X854297Y642088D01*
X854222Y641970D01*
X854151Y641850D01*
X854082Y641728D01*
X854017Y641604D01*
X853956Y641478D01*
X853898Y641351D01*
X853843Y641222D01*
X853793Y641091D01*
X853745Y640959D01*
X853702Y640826D01*
X853662Y640692D01*
X853625Y640557D01*
X853593Y640421D01*
X853564Y640284D01*
X853539Y640146D01*
X853518Y640008D01*
X853501Y639869D01*
X853487Y639730D01*
X853478Y639590D01*
X853472Y639450D01*
X853470Y639310D01*
X876330Y639310D02*
X876330Y606290D01*
X871250Y601210D02*
X858550Y601210D01*
X853470Y606290D02*
X853470Y639310D01*
X876330Y606290D02*
X876328Y606150D01*
X876322Y606010D01*
X876313Y605870D01*
X876299Y605731D01*
X876282Y605592D01*
X876261Y605454D01*
X876236Y605316D01*
X876207Y605179D01*
X876175Y605043D01*
X876138Y604908D01*
X876098Y604774D01*
X876055Y604641D01*
X876007Y604509D01*
X875957Y604378D01*
X875902Y604249D01*
X875844Y604122D01*
X875783Y603996D01*
X875718Y603872D01*
X875649Y603750D01*
X875578Y603630D01*
X875503Y603512D01*
X875425Y603395D01*
X875343Y603281D01*
X875259Y603170D01*
X875171Y603061D01*
X875081Y602954D01*
X874987Y602849D01*
X874891Y602748D01*
X874792Y602649D01*
X874691Y602553D01*
X874586Y602459D01*
X874479Y602369D01*
X874370Y602281D01*
X874259Y602197D01*
X874145Y602115D01*
X874028Y602037D01*
X873910Y601962D01*
X873790Y601891D01*
X873668Y601822D01*
X873544Y601757D01*
X873418Y601696D01*
X873291Y601638D01*
X873162Y601583D01*
X873031Y601533D01*
X872899Y601485D01*
X872766Y601442D01*
X872632Y601402D01*
X872497Y601365D01*
X872361Y601333D01*
X872224Y601304D01*
X872086Y601279D01*
X871948Y601258D01*
X871809Y601241D01*
X871670Y601227D01*
X871530Y601218D01*
X871390Y601212D01*
X871250Y601210D01*
X858550Y601210D02*
X858410Y601212D01*
X858270Y601218D01*
X858130Y601227D01*
X857991Y601241D01*
X857852Y601258D01*
X857714Y601279D01*
X857576Y601304D01*
X857439Y601333D01*
X857303Y601365D01*
X857168Y601402D01*
X857034Y601442D01*
X856901Y601485D01*
X856769Y601533D01*
X856638Y601583D01*
X856509Y601638D01*
X856382Y601696D01*
X856256Y601757D01*
X856132Y601822D01*
X856010Y601891D01*
X855890Y601962D01*
X855772Y602037D01*
X855655Y602115D01*
X855541Y602197D01*
X855430Y602281D01*
X855321Y602369D01*
X855214Y602459D01*
X855109Y602553D01*
X855008Y602649D01*
X854909Y602748D01*
X854813Y602849D01*
X854719Y602954D01*
X854629Y603061D01*
X854541Y603170D01*
X854457Y603281D01*
X854375Y603395D01*
X854297Y603512D01*
X854222Y603630D01*
X854151Y603750D01*
X854082Y603872D01*
X854017Y603996D01*
X853956Y604122D01*
X853898Y604249D01*
X853843Y604378D01*
X853793Y604509D01*
X853745Y604641D01*
X853702Y604774D01*
X853662Y604908D01*
X853625Y605043D01*
X853593Y605179D01*
X853564Y605316D01*
X853539Y605454D01*
X853518Y605592D01*
X853501Y605731D01*
X853487Y605870D01*
X853478Y606010D01*
X853472Y606150D01*
X853470Y606290D01*
D12*
X857280Y625848D02*
X872520Y625848D01*
X872520Y619498D02*
X857280Y619498D01*
D13*
X879495Y623547D02*
X881402Y625454D01*
X879495Y623547D02*
X879495Y619734D01*
X881402Y617827D01*
X889028Y617827D01*
X890935Y619734D01*
X890935Y623547D01*
X889028Y625454D01*
X890935Y629521D02*
X890935Y637148D01*
X883309Y637148D02*
X890935Y629521D01*
X883309Y637148D02*
X881402Y637148D01*
X879495Y635241D01*
X879495Y631428D01*
X881402Y629521D01*
D14*
X802848Y600975D02*
X802848Y593731D01*
X806471Y593731D01*
X807678Y594938D01*
X807678Y599768D01*
X806471Y600975D01*
X802848Y600975D01*
X810215Y598560D02*
X812629Y600975D01*
X812629Y593731D01*
X810215Y593731D02*
X815044Y593731D01*
D15*
X819000Y611300D02*
X819002Y611363D01*
X819008Y611425D01*
X819018Y611487D01*
X819031Y611549D01*
X819049Y611609D01*
X819070Y611668D01*
X819095Y611726D01*
X819124Y611782D01*
X819156Y611836D01*
X819191Y611888D01*
X819229Y611937D01*
X819271Y611985D01*
X819315Y612029D01*
X819363Y612071D01*
X819412Y612109D01*
X819464Y612144D01*
X819518Y612176D01*
X819574Y612205D01*
X819632Y612230D01*
X819691Y612251D01*
X819751Y612269D01*
X819813Y612282D01*
X819875Y612292D01*
X819937Y612298D01*
X820000Y612300D01*
X820063Y612298D01*
X820125Y612292D01*
X820187Y612282D01*
X820249Y612269D01*
X820309Y612251D01*
X820368Y612230D01*
X820426Y612205D01*
X820482Y612176D01*
X820536Y612144D01*
X820588Y612109D01*
X820637Y612071D01*
X820685Y612029D01*
X820729Y611985D01*
X820771Y611937D01*
X820809Y611888D01*
X820844Y611836D01*
X820876Y611782D01*
X820905Y611726D01*
X820930Y611668D01*
X820951Y611609D01*
X820969Y611549D01*
X820982Y611487D01*
X820992Y611425D01*
X820998Y611363D01*
X821000Y611300D01*
X820998Y611237D01*
X820992Y611175D01*
X820982Y611113D01*
X820969Y611051D01*
X820951Y610991D01*
X820930Y610932D01*
X820905Y610874D01*
X820876Y610818D01*
X820844Y610764D01*
X820809Y610712D01*
X820771Y610663D01*
X820729Y610615D01*
X820685Y610571D01*
X820637Y610529D01*
X820588Y610491D01*
X820536Y610456D01*
X820482Y610424D01*
X820426Y610395D01*
X820368Y610370D01*
X820309Y610349D01*
X820249Y610331D01*
X820187Y610318D01*
X820125Y610308D01*
X820063Y610302D01*
X820000Y610300D01*
X819937Y610302D01*
X819875Y610308D01*
X819813Y610318D01*
X819751Y610331D01*
X819691Y610349D01*
X819632Y610370D01*
X819574Y610395D01*
X819518Y610424D01*
X819464Y610456D01*
X819412Y610491D01*
X819363Y610529D01*
X819315Y610571D01*
X819271Y610615D01*
X819229Y610663D01*
X819191Y610712D01*
X819156Y610764D01*
X819124Y610818D01*
X819095Y610874D01*
X819070Y610932D01*
X819049Y610991D01*
X819031Y611051D01*
X819018Y611113D01*
X819008Y611175D01*
X819002Y611237D01*
X819000Y611300D01*
X802000Y605300D02*
X798000Y605300D01*
X798000Y617300D02*
X802000Y617300D01*
D16*
X877198Y654970D02*
X888892Y654970D01*
X877198Y654970D02*
X877198Y660817D01*
X879147Y662766D01*
X883045Y662766D01*
X884994Y660817D01*
X884994Y654970D01*
X884994Y658868D02*
X888892Y662766D01*
X881096Y666664D02*
X877198Y670562D01*
X888892Y670562D01*
X888892Y666664D02*
X888892Y674460D01*
X896598Y673158D02*
X908292Y673158D01*
X896598Y673158D02*
X896598Y679005D01*
X898547Y680954D01*
X902445Y680954D01*
X904394Y679005D01*
X904394Y673158D01*
X904394Y677056D02*
X908292Y680954D01*
X898547Y684852D02*
X896598Y686801D01*
X896598Y690699D01*
X898547Y692648D01*
X900496Y692648D01*
X902445Y690699D01*
X902445Y688750D01*
X902445Y690699D02*
X904394Y692648D01*
X906343Y692648D01*
X908292Y690699D01*
X908292Y686801D01*
X906343Y684852D01*
D13*
X780300Y649990D02*
X780302Y650034D01*
X780308Y650078D01*
X780318Y650121D01*
X780331Y650163D01*
X780348Y650204D01*
X780369Y650243D01*
X780393Y650280D01*
X780420Y650315D01*
X780450Y650347D01*
X780483Y650377D01*
X780519Y650403D01*
X780556Y650427D01*
X780596Y650446D01*
X780637Y650463D01*
X780680Y650475D01*
X780723Y650484D01*
X780767Y650489D01*
X780811Y650490D01*
X780855Y650487D01*
X780899Y650480D01*
X780942Y650469D01*
X780984Y650455D01*
X781024Y650437D01*
X781063Y650415D01*
X781099Y650391D01*
X781133Y650363D01*
X781165Y650332D01*
X781194Y650298D01*
X781220Y650262D01*
X781242Y650224D01*
X781261Y650184D01*
X781276Y650142D01*
X781288Y650100D01*
X781296Y650056D01*
X781300Y650012D01*
X781300Y649968D01*
X781296Y649924D01*
X781288Y649880D01*
X781276Y649838D01*
X781261Y649796D01*
X781242Y649756D01*
X781220Y649718D01*
X781194Y649682D01*
X781165Y649648D01*
X781133Y649617D01*
X781099Y649589D01*
X781063Y649565D01*
X781024Y649543D01*
X780984Y649525D01*
X780942Y649511D01*
X780899Y649500D01*
X780855Y649493D01*
X780811Y649490D01*
X780767Y649491D01*
X780723Y649496D01*
X780680Y649505D01*
X780637Y649517D01*
X780596Y649534D01*
X780556Y649553D01*
X780519Y649577D01*
X780483Y649603D01*
X780450Y649633D01*
X780420Y649665D01*
X780393Y649700D01*
X780369Y649737D01*
X780348Y649776D01*
X780331Y649817D01*
X780318Y649859D01*
X780308Y649902D01*
X780302Y649946D01*
X780300Y649990D01*
D17*
X786198Y659332D02*
X786198Y665276D01*
X786198Y659332D02*
X787387Y658143D01*
X789764Y658143D01*
X790953Y659332D01*
X790953Y665276D01*
X793228Y662898D02*
X795605Y665276D01*
X795605Y658143D01*
X793228Y658143D02*
X797983Y658143D01*
D11*
X707954Y604512D02*
X684840Y604512D01*
X699572Y691888D02*
X707954Y691888D01*
X699572Y691888D02*
X693476Y691888D01*
X684840Y691888D01*
D10*
X693476Y691888D02*
X693478Y691779D01*
X693484Y691671D01*
X693493Y691562D01*
X693507Y691454D01*
X693524Y691347D01*
X693546Y691240D01*
X693571Y691134D01*
X693599Y691029D01*
X693632Y690925D01*
X693668Y690823D01*
X693708Y690722D01*
X693751Y690622D01*
X693798Y690524D01*
X693849Y690427D01*
X693903Y690333D01*
X693960Y690240D01*
X694020Y690150D01*
X694084Y690061D01*
X694151Y689975D01*
X694220Y689892D01*
X694293Y689811D01*
X694369Y689733D01*
X694447Y689657D01*
X694528Y689584D01*
X694611Y689515D01*
X694697Y689448D01*
X694786Y689384D01*
X694876Y689324D01*
X694969Y689267D01*
X695063Y689213D01*
X695160Y689162D01*
X695258Y689115D01*
X695358Y689072D01*
X695459Y689032D01*
X695561Y688996D01*
X695665Y688963D01*
X695770Y688935D01*
X695876Y688910D01*
X695983Y688888D01*
X696090Y688871D01*
X696198Y688857D01*
X696307Y688848D01*
X696415Y688842D01*
X696524Y688840D01*
X696633Y688842D01*
X696741Y688848D01*
X696850Y688857D01*
X696958Y688871D01*
X697065Y688888D01*
X697172Y688910D01*
X697278Y688935D01*
X697383Y688963D01*
X697487Y688996D01*
X697589Y689032D01*
X697690Y689072D01*
X697790Y689115D01*
X697888Y689162D01*
X697985Y689213D01*
X698079Y689267D01*
X698172Y689324D01*
X698262Y689384D01*
X698351Y689448D01*
X698437Y689515D01*
X698520Y689584D01*
X698601Y689657D01*
X698679Y689733D01*
X698755Y689811D01*
X698828Y689892D01*
X698897Y689975D01*
X698964Y690061D01*
X699028Y690150D01*
X699088Y690240D01*
X699145Y690333D01*
X699199Y690427D01*
X699250Y690524D01*
X699297Y690622D01*
X699340Y690722D01*
X699380Y690823D01*
X699416Y690925D01*
X699449Y691029D01*
X699477Y691134D01*
X699502Y691240D01*
X699524Y691347D01*
X699541Y691454D01*
X699555Y691562D01*
X699564Y691671D01*
X699570Y691779D01*
X699572Y691888D01*
D18*
X651477Y703778D02*
X651477Y719477D01*
X651477Y703778D02*
X654616Y700639D01*
X660896Y700639D01*
X664036Y703778D01*
X664036Y719477D01*
X670679Y700639D02*
X683238Y700639D01*
X670679Y700639D02*
X683238Y713198D01*
X683238Y716338D01*
X680099Y719477D01*
X673819Y719477D01*
X670679Y716338D01*
D10*
X885444Y762000D02*
X885449Y762399D01*
X885464Y762798D01*
X885488Y763196D01*
X885522Y763593D01*
X885566Y763990D01*
X885620Y764385D01*
X885683Y764779D01*
X885756Y765171D01*
X885839Y765562D01*
X885931Y765950D01*
X886033Y766336D01*
X886144Y766719D01*
X886264Y767099D01*
X886394Y767476D01*
X886533Y767850D01*
X886681Y768221D01*
X886839Y768588D01*
X887005Y768950D01*
X887180Y769309D01*
X887363Y769663D01*
X887556Y770013D01*
X887757Y770357D01*
X887966Y770697D01*
X888184Y771031D01*
X888409Y771360D01*
X888643Y771684D01*
X888885Y772001D01*
X889134Y772313D01*
X889391Y772618D01*
X889655Y772917D01*
X889927Y773209D01*
X890205Y773495D01*
X890491Y773773D01*
X890783Y774045D01*
X891082Y774309D01*
X891387Y774566D01*
X891699Y774815D01*
X892016Y775057D01*
X892340Y775291D01*
X892669Y775516D01*
X893003Y775734D01*
X893343Y775943D01*
X893687Y776144D01*
X894037Y776337D01*
X894391Y776520D01*
X894750Y776695D01*
X895112Y776861D01*
X895479Y777019D01*
X895850Y777167D01*
X896224Y777306D01*
X896601Y777436D01*
X896981Y777556D01*
X897364Y777667D01*
X897750Y777769D01*
X898138Y777861D01*
X898529Y777944D01*
X898921Y778017D01*
X899315Y778080D01*
X899710Y778134D01*
X900107Y778178D01*
X900504Y778212D01*
X900902Y778236D01*
X901301Y778251D01*
X901700Y778256D01*
X902099Y778251D01*
X902498Y778236D01*
X902896Y778212D01*
X903293Y778178D01*
X903690Y778134D01*
X904085Y778080D01*
X904479Y778017D01*
X904871Y777944D01*
X905262Y777861D01*
X905650Y777769D01*
X906036Y777667D01*
X906419Y777556D01*
X906799Y777436D01*
X907176Y777306D01*
X907550Y777167D01*
X907921Y777019D01*
X908288Y776861D01*
X908650Y776695D01*
X909009Y776520D01*
X909363Y776337D01*
X909713Y776144D01*
X910057Y775943D01*
X910397Y775734D01*
X910731Y775516D01*
X911060Y775291D01*
X911384Y775057D01*
X911701Y774815D01*
X912013Y774566D01*
X912318Y774309D01*
X912617Y774045D01*
X912909Y773773D01*
X913195Y773495D01*
X913473Y773209D01*
X913745Y772917D01*
X914009Y772618D01*
X914266Y772313D01*
X914515Y772001D01*
X914757Y771684D01*
X914991Y771360D01*
X915216Y771031D01*
X915434Y770697D01*
X915643Y770357D01*
X915844Y770013D01*
X916037Y769663D01*
X916220Y769309D01*
X916395Y768950D01*
X916561Y768588D01*
X916719Y768221D01*
X916867Y767850D01*
X917006Y767476D01*
X917136Y767099D01*
X917256Y766719D01*
X917367Y766336D01*
X917469Y765950D01*
X917561Y765562D01*
X917644Y765171D01*
X917717Y764779D01*
X917780Y764385D01*
X917834Y763990D01*
X917878Y763593D01*
X917912Y763196D01*
X917936Y762798D01*
X917951Y762399D01*
X917956Y762000D01*
X917951Y761601D01*
X917936Y761202D01*
X917912Y760804D01*
X917878Y760407D01*
X917834Y760010D01*
X917780Y759615D01*
X917717Y759221D01*
X917644Y758829D01*
X917561Y758438D01*
X917469Y758050D01*
X917367Y757664D01*
X917256Y757281D01*
X917136Y756901D01*
X917006Y756524D01*
X916867Y756150D01*
X916719Y755779D01*
X916561Y755412D01*
X916395Y755050D01*
X916220Y754691D01*
X916037Y754337D01*
X915844Y753987D01*
X915643Y753643D01*
X915434Y753303D01*
X915216Y752969D01*
X914991Y752640D01*
X914757Y752316D01*
X914515Y751999D01*
X914266Y751687D01*
X914009Y751382D01*
X913745Y751083D01*
X913473Y750791D01*
X913195Y750505D01*
X912909Y750227D01*
X912617Y749955D01*
X912318Y749691D01*
X912013Y749434D01*
X911701Y749185D01*
X911384Y748943D01*
X911060Y748709D01*
X910731Y748484D01*
X910397Y748266D01*
X910057Y748057D01*
X909713Y747856D01*
X909363Y747663D01*
X909009Y747480D01*
X908650Y747305D01*
X908288Y747139D01*
X907921Y746981D01*
X907550Y746833D01*
X907176Y746694D01*
X906799Y746564D01*
X906419Y746444D01*
X906036Y746333D01*
X905650Y746231D01*
X905262Y746139D01*
X904871Y746056D01*
X904479Y745983D01*
X904085Y745920D01*
X903690Y745866D01*
X903293Y745822D01*
X902896Y745788D01*
X902498Y745764D01*
X902099Y745749D01*
X901700Y745744D01*
X901301Y745749D01*
X900902Y745764D01*
X900504Y745788D01*
X900107Y745822D01*
X899710Y745866D01*
X899315Y745920D01*
X898921Y745983D01*
X898529Y746056D01*
X898138Y746139D01*
X897750Y746231D01*
X897364Y746333D01*
X896981Y746444D01*
X896601Y746564D01*
X896224Y746694D01*
X895850Y746833D01*
X895479Y746981D01*
X895112Y747139D01*
X894750Y747305D01*
X894391Y747480D01*
X894037Y747663D01*
X893687Y747856D01*
X893343Y748057D01*
X893003Y748266D01*
X892669Y748484D01*
X892340Y748709D01*
X892016Y748943D01*
X891699Y749185D01*
X891387Y749434D01*
X891082Y749691D01*
X890783Y749955D01*
X890491Y750227D01*
X890205Y750505D01*
X889927Y750791D01*
X889655Y751083D01*
X889391Y751382D01*
X889134Y751687D01*
X888885Y751999D01*
X888643Y752316D01*
X888409Y752640D01*
X888184Y752969D01*
X887966Y753303D01*
X887757Y753643D01*
X887556Y753987D01*
X887363Y754337D01*
X887180Y754691D01*
X887005Y755050D01*
X886839Y755412D01*
X886681Y755779D01*
X886533Y756150D01*
X886394Y756524D01*
X886264Y756901D01*
X886144Y757281D01*
X886033Y757664D01*
X885931Y758050D01*
X885839Y758438D01*
X885756Y758829D01*
X885683Y759221D01*
X885620Y759615D01*
X885566Y760010D01*
X885522Y760407D01*
X885488Y760804D01*
X885464Y761202D01*
X885449Y761601D01*
X885444Y762000D01*
X758444Y762000D02*
X758449Y762399D01*
X758464Y762798D01*
X758488Y763196D01*
X758522Y763593D01*
X758566Y763990D01*
X758620Y764385D01*
X758683Y764779D01*
X758756Y765171D01*
X758839Y765562D01*
X758931Y765950D01*
X759033Y766336D01*
X759144Y766719D01*
X759264Y767099D01*
X759394Y767476D01*
X759533Y767850D01*
X759681Y768221D01*
X759839Y768588D01*
X760005Y768950D01*
X760180Y769309D01*
X760363Y769663D01*
X760556Y770013D01*
X760757Y770357D01*
X760966Y770697D01*
X761184Y771031D01*
X761409Y771360D01*
X761643Y771684D01*
X761885Y772001D01*
X762134Y772313D01*
X762391Y772618D01*
X762655Y772917D01*
X762927Y773209D01*
X763205Y773495D01*
X763491Y773773D01*
X763783Y774045D01*
X764082Y774309D01*
X764387Y774566D01*
X764699Y774815D01*
X765016Y775057D01*
X765340Y775291D01*
X765669Y775516D01*
X766003Y775734D01*
X766343Y775943D01*
X766687Y776144D01*
X767037Y776337D01*
X767391Y776520D01*
X767750Y776695D01*
X768112Y776861D01*
X768479Y777019D01*
X768850Y777167D01*
X769224Y777306D01*
X769601Y777436D01*
X769981Y777556D01*
X770364Y777667D01*
X770750Y777769D01*
X771138Y777861D01*
X771529Y777944D01*
X771921Y778017D01*
X772315Y778080D01*
X772710Y778134D01*
X773107Y778178D01*
X773504Y778212D01*
X773902Y778236D01*
X774301Y778251D01*
X774700Y778256D01*
X775099Y778251D01*
X775498Y778236D01*
X775896Y778212D01*
X776293Y778178D01*
X776690Y778134D01*
X777085Y778080D01*
X777479Y778017D01*
X777871Y777944D01*
X778262Y777861D01*
X778650Y777769D01*
X779036Y777667D01*
X779419Y777556D01*
X779799Y777436D01*
X780176Y777306D01*
X780550Y777167D01*
X780921Y777019D01*
X781288Y776861D01*
X781650Y776695D01*
X782009Y776520D01*
X782363Y776337D01*
X782713Y776144D01*
X783057Y775943D01*
X783397Y775734D01*
X783731Y775516D01*
X784060Y775291D01*
X784384Y775057D01*
X784701Y774815D01*
X785013Y774566D01*
X785318Y774309D01*
X785617Y774045D01*
X785909Y773773D01*
X786195Y773495D01*
X786473Y773209D01*
X786745Y772917D01*
X787009Y772618D01*
X787266Y772313D01*
X787515Y772001D01*
X787757Y771684D01*
X787991Y771360D01*
X788216Y771031D01*
X788434Y770697D01*
X788643Y770357D01*
X788844Y770013D01*
X789037Y769663D01*
X789220Y769309D01*
X789395Y768950D01*
X789561Y768588D01*
X789719Y768221D01*
X789867Y767850D01*
X790006Y767476D01*
X790136Y767099D01*
X790256Y766719D01*
X790367Y766336D01*
X790469Y765950D01*
X790561Y765562D01*
X790644Y765171D01*
X790717Y764779D01*
X790780Y764385D01*
X790834Y763990D01*
X790878Y763593D01*
X790912Y763196D01*
X790936Y762798D01*
X790951Y762399D01*
X790956Y762000D01*
X790951Y761601D01*
X790936Y761202D01*
X790912Y760804D01*
X790878Y760407D01*
X790834Y760010D01*
X790780Y759615D01*
X790717Y759221D01*
X790644Y758829D01*
X790561Y758438D01*
X790469Y758050D01*
X790367Y757664D01*
X790256Y757281D01*
X790136Y756901D01*
X790006Y756524D01*
X789867Y756150D01*
X789719Y755779D01*
X789561Y755412D01*
X789395Y755050D01*
X789220Y754691D01*
X789037Y754337D01*
X788844Y753987D01*
X788643Y753643D01*
X788434Y753303D01*
X788216Y752969D01*
X787991Y752640D01*
X787757Y752316D01*
X787515Y751999D01*
X787266Y751687D01*
X787009Y751382D01*
X786745Y751083D01*
X786473Y750791D01*
X786195Y750505D01*
X785909Y750227D01*
X785617Y749955D01*
X785318Y749691D01*
X785013Y749434D01*
X784701Y749185D01*
X784384Y748943D01*
X784060Y748709D01*
X783731Y748484D01*
X783397Y748266D01*
X783057Y748057D01*
X782713Y747856D01*
X782363Y747663D01*
X782009Y747480D01*
X781650Y747305D01*
X781288Y747139D01*
X780921Y746981D01*
X780550Y746833D01*
X780176Y746694D01*
X779799Y746564D01*
X779419Y746444D01*
X779036Y746333D01*
X778650Y746231D01*
X778262Y746139D01*
X777871Y746056D01*
X777479Y745983D01*
X777085Y745920D01*
X776690Y745866D01*
X776293Y745822D01*
X775896Y745788D01*
X775498Y745764D01*
X775099Y745749D01*
X774700Y745744D01*
X774301Y745749D01*
X773902Y745764D01*
X773504Y745788D01*
X773107Y745822D01*
X772710Y745866D01*
X772315Y745920D01*
X771921Y745983D01*
X771529Y746056D01*
X771138Y746139D01*
X770750Y746231D01*
X770364Y746333D01*
X769981Y746444D01*
X769601Y746564D01*
X769224Y746694D01*
X768850Y746833D01*
X768479Y746981D01*
X768112Y747139D01*
X767750Y747305D01*
X767391Y747480D01*
X767037Y747663D01*
X766687Y747856D01*
X766343Y748057D01*
X766003Y748266D01*
X765669Y748484D01*
X765340Y748709D01*
X765016Y748943D01*
X764699Y749185D01*
X764387Y749434D01*
X764082Y749691D01*
X763783Y749955D01*
X763491Y750227D01*
X763205Y750505D01*
X762927Y750791D01*
X762655Y751083D01*
X762391Y751382D01*
X762134Y751687D01*
X761885Y751999D01*
X761643Y752316D01*
X761409Y752640D01*
X761184Y752969D01*
X760966Y753303D01*
X760757Y753643D01*
X760556Y753987D01*
X760363Y754337D01*
X760180Y754691D01*
X760005Y755050D01*
X759839Y755412D01*
X759681Y755779D01*
X759533Y756150D01*
X759394Y756524D01*
X759264Y756901D01*
X759144Y757281D01*
X759033Y757664D01*
X758931Y758050D01*
X758839Y758438D01*
X758756Y758829D01*
X758683Y759221D01*
X758620Y759615D01*
X758566Y760010D01*
X758522Y760407D01*
X758488Y760804D01*
X758464Y761202D01*
X758449Y761601D01*
X758444Y762000D01*
D11*
X682590Y721850D02*
X682590Y709150D01*
X682588Y709010D01*
X682582Y708870D01*
X682573Y708730D01*
X682559Y708591D01*
X682542Y708452D01*
X682521Y708314D01*
X682496Y708176D01*
X682467Y708039D01*
X682435Y707903D01*
X682398Y707768D01*
X682358Y707634D01*
X682315Y707501D01*
X682267Y707369D01*
X682217Y707238D01*
X682162Y707109D01*
X682104Y706982D01*
X682043Y706856D01*
X681978Y706732D01*
X681909Y706610D01*
X681838Y706490D01*
X681763Y706372D01*
X681685Y706255D01*
X681603Y706141D01*
X681519Y706030D01*
X681431Y705921D01*
X681341Y705814D01*
X681247Y705709D01*
X681151Y705608D01*
X681052Y705509D01*
X680951Y705413D01*
X680846Y705319D01*
X680739Y705229D01*
X680630Y705141D01*
X680519Y705057D01*
X680405Y704975D01*
X680288Y704897D01*
X680170Y704822D01*
X680050Y704751D01*
X679928Y704682D01*
X679804Y704617D01*
X679678Y704556D01*
X679551Y704498D01*
X679422Y704443D01*
X679291Y704393D01*
X679159Y704345D01*
X679026Y704302D01*
X678892Y704262D01*
X678757Y704225D01*
X678621Y704193D01*
X678484Y704164D01*
X678346Y704139D01*
X678208Y704118D01*
X678069Y704101D01*
X677930Y704087D01*
X677790Y704078D01*
X677650Y704072D01*
X677510Y704070D01*
X682590Y721850D02*
X682588Y721990D01*
X682582Y722130D01*
X682573Y722270D01*
X682559Y722409D01*
X682542Y722548D01*
X682521Y722686D01*
X682496Y722824D01*
X682467Y722961D01*
X682435Y723097D01*
X682398Y723232D01*
X682358Y723366D01*
X682315Y723499D01*
X682267Y723631D01*
X682217Y723762D01*
X682162Y723891D01*
X682104Y724018D01*
X682043Y724144D01*
X681978Y724268D01*
X681909Y724390D01*
X681838Y724510D01*
X681763Y724628D01*
X681685Y724745D01*
X681603Y724859D01*
X681519Y724970D01*
X681431Y725079D01*
X681341Y725186D01*
X681247Y725291D01*
X681151Y725392D01*
X681052Y725491D01*
X680951Y725587D01*
X680846Y725681D01*
X680739Y725771D01*
X680630Y725859D01*
X680519Y725943D01*
X680405Y726025D01*
X680288Y726103D01*
X680170Y726178D01*
X680050Y726249D01*
X679928Y726318D01*
X679804Y726383D01*
X679678Y726444D01*
X679551Y726502D01*
X679422Y726557D01*
X679291Y726607D01*
X679159Y726655D01*
X679026Y726698D01*
X678892Y726738D01*
X678757Y726775D01*
X678621Y726807D01*
X678484Y726836D01*
X678346Y726861D01*
X678208Y726882D01*
X678069Y726899D01*
X677930Y726913D01*
X677790Y726922D01*
X677650Y726928D01*
X677510Y726930D01*
X677510Y704070D02*
X644490Y704070D01*
X639410Y709150D02*
X639410Y721850D01*
X644490Y726930D02*
X677510Y726930D01*
X644490Y704070D02*
X644350Y704072D01*
X644210Y704078D01*
X644070Y704087D01*
X643931Y704101D01*
X643792Y704118D01*
X643654Y704139D01*
X643516Y704164D01*
X643379Y704193D01*
X643243Y704225D01*
X643108Y704262D01*
X642974Y704302D01*
X642841Y704345D01*
X642709Y704393D01*
X642578Y704443D01*
X642449Y704498D01*
X642322Y704556D01*
X642196Y704617D01*
X642072Y704682D01*
X641950Y704751D01*
X641830Y704822D01*
X641712Y704897D01*
X641595Y704975D01*
X641481Y705057D01*
X641370Y705141D01*
X641261Y705229D01*
X641154Y705319D01*
X641049Y705413D01*
X640948Y705509D01*
X640849Y705608D01*
X640753Y705709D01*
X640659Y705814D01*
X640569Y705921D01*
X640481Y706030D01*
X640397Y706141D01*
X640315Y706255D01*
X640237Y706372D01*
X640162Y706490D01*
X640091Y706610D01*
X640022Y706732D01*
X639957Y706856D01*
X639896Y706982D01*
X639838Y707109D01*
X639783Y707238D01*
X639733Y707369D01*
X639685Y707501D01*
X639642Y707634D01*
X639602Y707768D01*
X639565Y707903D01*
X639533Y708039D01*
X639504Y708176D01*
X639479Y708314D01*
X639458Y708452D01*
X639441Y708591D01*
X639427Y708730D01*
X639418Y708870D01*
X639412Y709010D01*
X639410Y709150D01*
X639410Y721850D02*
X639412Y721990D01*
X639418Y722130D01*
X639427Y722270D01*
X639441Y722409D01*
X639458Y722548D01*
X639479Y722686D01*
X639504Y722824D01*
X639533Y722961D01*
X639565Y723097D01*
X639602Y723232D01*
X639642Y723366D01*
X639685Y723499D01*
X639733Y723631D01*
X639783Y723762D01*
X639838Y723891D01*
X639896Y724018D01*
X639957Y724144D01*
X640022Y724268D01*
X640091Y724390D01*
X640162Y724510D01*
X640237Y724628D01*
X640315Y724745D01*
X640397Y724859D01*
X640481Y724970D01*
X640569Y725079D01*
X640659Y725186D01*
X640753Y725291D01*
X640849Y725392D01*
X640948Y725491D01*
X641049Y725587D01*
X641154Y725681D01*
X641261Y725771D01*
X641370Y725859D01*
X641481Y725943D01*
X641595Y726025D01*
X641712Y726103D01*
X641830Y726178D01*
X641950Y726249D01*
X642072Y726318D01*
X642196Y726383D01*
X642322Y726444D01*
X642449Y726502D01*
X642578Y726557D01*
X642709Y726607D01*
X642841Y726655D01*
X642974Y726698D01*
X643108Y726738D01*
X643243Y726775D01*
X643379Y726807D01*
X643516Y726836D01*
X643654Y726861D01*
X643792Y726882D01*
X643931Y726899D01*
X644070Y726913D01*
X644210Y726922D01*
X644350Y726928D01*
X644490Y726930D01*
D12*
X664048Y723120D02*
X664048Y707880D01*
X657698Y707880D02*
X657698Y723120D01*
D13*
X661747Y700905D02*
X663654Y698998D01*
X661747Y700905D02*
X657934Y700905D01*
X656027Y698998D01*
X656027Y691372D01*
X657934Y689465D01*
X661747Y689465D01*
X663654Y691372D01*
X667721Y698998D02*
X669628Y700905D01*
X673441Y700905D01*
X675348Y698998D01*
X675348Y697092D01*
X673441Y695185D01*
X671534Y695185D01*
X673441Y695185D02*
X675348Y693278D01*
X675348Y691372D01*
X673441Y689465D01*
X669628Y689465D01*
X667721Y691372D01*
D11*
X714150Y714410D02*
X726850Y714410D01*
X714150Y714410D02*
X714010Y714412D01*
X713870Y714418D01*
X713730Y714427D01*
X713591Y714441D01*
X713452Y714458D01*
X713314Y714479D01*
X713176Y714504D01*
X713039Y714533D01*
X712903Y714565D01*
X712768Y714602D01*
X712634Y714642D01*
X712501Y714685D01*
X712369Y714733D01*
X712238Y714783D01*
X712109Y714838D01*
X711982Y714896D01*
X711856Y714957D01*
X711732Y715022D01*
X711610Y715091D01*
X711490Y715162D01*
X711372Y715237D01*
X711255Y715315D01*
X711141Y715397D01*
X711030Y715481D01*
X710921Y715569D01*
X710814Y715659D01*
X710709Y715753D01*
X710608Y715849D01*
X710509Y715948D01*
X710413Y716049D01*
X710319Y716154D01*
X710229Y716261D01*
X710141Y716370D01*
X710057Y716481D01*
X709975Y716595D01*
X709897Y716712D01*
X709822Y716830D01*
X709751Y716950D01*
X709682Y717072D01*
X709617Y717196D01*
X709556Y717322D01*
X709498Y717449D01*
X709443Y717578D01*
X709393Y717709D01*
X709345Y717841D01*
X709302Y717974D01*
X709262Y718108D01*
X709225Y718243D01*
X709193Y718379D01*
X709164Y718516D01*
X709139Y718654D01*
X709118Y718792D01*
X709101Y718931D01*
X709087Y719070D01*
X709078Y719210D01*
X709072Y719350D01*
X709070Y719490D01*
X726850Y714410D02*
X726990Y714412D01*
X727130Y714418D01*
X727270Y714427D01*
X727409Y714441D01*
X727548Y714458D01*
X727686Y714479D01*
X727824Y714504D01*
X727961Y714533D01*
X728097Y714565D01*
X728232Y714602D01*
X728366Y714642D01*
X728499Y714685D01*
X728631Y714733D01*
X728762Y714783D01*
X728891Y714838D01*
X729018Y714896D01*
X729144Y714957D01*
X729268Y715022D01*
X729390Y715091D01*
X729510Y715162D01*
X729628Y715237D01*
X729745Y715315D01*
X729859Y715397D01*
X729970Y715481D01*
X730079Y715569D01*
X730186Y715659D01*
X730291Y715753D01*
X730392Y715849D01*
X730491Y715948D01*
X730587Y716049D01*
X730681Y716154D01*
X730771Y716261D01*
X730859Y716370D01*
X730943Y716481D01*
X731025Y716595D01*
X731103Y716712D01*
X731178Y716830D01*
X731249Y716950D01*
X731318Y717072D01*
X731383Y717196D01*
X731444Y717322D01*
X731502Y717449D01*
X731557Y717578D01*
X731607Y717709D01*
X731655Y717841D01*
X731698Y717974D01*
X731738Y718108D01*
X731775Y718243D01*
X731807Y718379D01*
X731836Y718516D01*
X731861Y718654D01*
X731882Y718792D01*
X731899Y718931D01*
X731913Y719070D01*
X731922Y719210D01*
X731928Y719350D01*
X731930Y719490D01*
X709070Y719490D02*
X709070Y752510D01*
X714150Y757590D02*
X726850Y757590D01*
X731930Y752510D02*
X731930Y719490D01*
X709070Y752510D02*
X709072Y752650D01*
X709078Y752790D01*
X709087Y752930D01*
X709101Y753069D01*
X709118Y753208D01*
X709139Y753346D01*
X709164Y753484D01*
X709193Y753621D01*
X709225Y753757D01*
X709262Y753892D01*
X709302Y754026D01*
X709345Y754159D01*
X709393Y754291D01*
X709443Y754422D01*
X709498Y754551D01*
X709556Y754678D01*
X709617Y754804D01*
X709682Y754928D01*
X709751Y755050D01*
X709822Y755170D01*
X709897Y755288D01*
X709975Y755405D01*
X710057Y755519D01*
X710141Y755630D01*
X710229Y755739D01*
X710319Y755846D01*
X710413Y755951D01*
X710509Y756052D01*
X710608Y756151D01*
X710709Y756247D01*
X710814Y756341D01*
X710921Y756431D01*
X711030Y756519D01*
X711141Y756603D01*
X711255Y756685D01*
X711372Y756763D01*
X711490Y756838D01*
X711610Y756909D01*
X711732Y756978D01*
X711856Y757043D01*
X711982Y757104D01*
X712109Y757162D01*
X712238Y757217D01*
X712369Y757267D01*
X712501Y757315D01*
X712634Y757358D01*
X712768Y757398D01*
X712903Y757435D01*
X713039Y757467D01*
X713176Y757496D01*
X713314Y757521D01*
X713452Y757542D01*
X713591Y757559D01*
X713730Y757573D01*
X713870Y757582D01*
X714010Y757588D01*
X714150Y757590D01*
X726850Y757590D02*
X726990Y757588D01*
X727130Y757582D01*
X727270Y757573D01*
X727409Y757559D01*
X727548Y757542D01*
X727686Y757521D01*
X727824Y757496D01*
X727961Y757467D01*
X728097Y757435D01*
X728232Y757398D01*
X728366Y757358D01*
X728499Y757315D01*
X728631Y757267D01*
X728762Y757217D01*
X728891Y757162D01*
X729018Y757104D01*
X729144Y757043D01*
X729268Y756978D01*
X729390Y756909D01*
X729510Y756838D01*
X729628Y756763D01*
X729745Y756685D01*
X729859Y756603D01*
X729970Y756519D01*
X730079Y756431D01*
X730186Y756341D01*
X730291Y756247D01*
X730392Y756151D01*
X730491Y756052D01*
X730587Y755951D01*
X730681Y755846D01*
X730771Y755739D01*
X730859Y755630D01*
X730943Y755519D01*
X731025Y755405D01*
X731103Y755288D01*
X731178Y755170D01*
X731249Y755050D01*
X731318Y754928D01*
X731383Y754804D01*
X731444Y754678D01*
X731502Y754551D01*
X731557Y754422D01*
X731607Y754291D01*
X731655Y754159D01*
X731698Y754026D01*
X731738Y753892D01*
X731775Y753757D01*
X731807Y753621D01*
X731836Y753484D01*
X731861Y753346D01*
X731882Y753208D01*
X731899Y753069D01*
X731913Y752930D01*
X731922Y752790D01*
X731928Y752650D01*
X731930Y752510D01*
D12*
X728120Y732952D02*
X712880Y732952D01*
X712880Y739302D02*
X728120Y739302D01*
D13*
X696362Y726482D02*
X694455Y724575D01*
X694455Y720762D01*
X696362Y718855D01*
X703988Y718855D01*
X705895Y720762D01*
X705895Y724575D01*
X703988Y726482D01*
X705895Y736269D02*
X694455Y736269D01*
X700175Y730549D01*
X700175Y738175D01*
M02*
