G04 EAGLE Gerber X2 export*
%TF.Part,Single*%
%TF.FileFunction,Other,Solder side*%
%TF.FilePolarity,Positive*%
%TF.GenerationSoftware,Autodesk,EAGLE,8.6.3*%
%TF.CreationDate,2019-03-19T20:13:45Z*%
G75*
%MOMM*%
%FSLAX34Y34*%
%LPD*%
%AMOC8*
5,1,8,0,0,1.08239X$1,22.5*%
G01*
%ADD10P,1.429621X8X292.500000*%
%ADD11C,1.422400*%
%ADD12C,2.362200*%
%ADD13P,1.429621X8X202.500000*%
%ADD14P,1.429621X8X112.500000*%
%ADD15C,1.006400*%
%ADD16C,0.406400*%
%ADD17C,0.906400*%

G36*
X940366Y587623D02*
X940366Y587623D01*
X940384Y587621D01*
X940566Y587642D01*
X940749Y587661D01*
X940766Y587666D01*
X940783Y587668D01*
X940958Y587725D01*
X941134Y587779D01*
X941149Y587787D01*
X941166Y587793D01*
X941326Y587883D01*
X941488Y587971D01*
X941501Y587982D01*
X941517Y587991D01*
X941656Y588111D01*
X941797Y588228D01*
X941808Y588242D01*
X941822Y588254D01*
X941934Y588399D01*
X942049Y588542D01*
X942057Y588558D01*
X942068Y588572D01*
X942150Y588737D01*
X942235Y588899D01*
X942240Y588916D01*
X942248Y588932D01*
X942295Y589111D01*
X942346Y589286D01*
X942348Y589304D01*
X942352Y589321D01*
X942379Y589652D01*
X942379Y810348D01*
X942377Y810366D01*
X942379Y810384D01*
X942358Y810566D01*
X942339Y810749D01*
X942334Y810766D01*
X942332Y810783D01*
X942275Y810958D01*
X942221Y811134D01*
X942213Y811149D01*
X942207Y811166D01*
X942117Y811326D01*
X942029Y811488D01*
X942018Y811501D01*
X942009Y811517D01*
X941889Y811656D01*
X941772Y811797D01*
X941758Y811808D01*
X941746Y811822D01*
X941601Y811934D01*
X941458Y812049D01*
X941442Y812057D01*
X941428Y812068D01*
X941263Y812150D01*
X941101Y812235D01*
X941084Y812240D01*
X941068Y812248D01*
X940889Y812295D01*
X940714Y812346D01*
X940696Y812348D01*
X940679Y812352D01*
X940348Y812379D01*
X589652Y812379D01*
X589634Y812377D01*
X589616Y812379D01*
X589434Y812358D01*
X589251Y812339D01*
X589234Y812334D01*
X589217Y812332D01*
X589042Y812275D01*
X588866Y812221D01*
X588851Y812213D01*
X588834Y812207D01*
X588674Y812117D01*
X588512Y812029D01*
X588499Y812018D01*
X588483Y812009D01*
X588344Y811889D01*
X588203Y811772D01*
X588192Y811758D01*
X588178Y811746D01*
X588066Y811601D01*
X587951Y811458D01*
X587943Y811442D01*
X587932Y811428D01*
X587850Y811263D01*
X587765Y811101D01*
X587760Y811084D01*
X587752Y811068D01*
X587705Y810889D01*
X587654Y810714D01*
X587652Y810696D01*
X587648Y810679D01*
X587621Y810348D01*
X587621Y589652D01*
X587623Y589634D01*
X587621Y589616D01*
X587642Y589434D01*
X587661Y589251D01*
X587666Y589234D01*
X587668Y589217D01*
X587725Y589042D01*
X587779Y588866D01*
X587787Y588851D01*
X587793Y588834D01*
X587883Y588674D01*
X587971Y588512D01*
X587982Y588499D01*
X587991Y588483D01*
X588111Y588344D01*
X588228Y588203D01*
X588242Y588192D01*
X588254Y588178D01*
X588399Y588066D01*
X588542Y587951D01*
X588558Y587943D01*
X588572Y587932D01*
X588737Y587850D01*
X588899Y587765D01*
X588916Y587760D01*
X588932Y587752D01*
X589111Y587705D01*
X589286Y587654D01*
X589304Y587652D01*
X589321Y587648D01*
X589652Y587621D01*
X940348Y587621D01*
X940366Y587623D01*
G37*
%LPC*%
G36*
X609504Y637467D02*
X609504Y637467D01*
X605817Y638995D01*
X602995Y641817D01*
X601467Y645504D01*
X601467Y788496D01*
X602995Y792183D01*
X605817Y795005D01*
X609504Y796533D01*
X758170Y796533D01*
X758201Y796536D01*
X758232Y796534D01*
X758401Y796556D01*
X758570Y796573D01*
X758600Y796582D01*
X758631Y796586D01*
X758947Y796687D01*
X761973Y797941D01*
X787427Y797941D01*
X790453Y796687D01*
X790483Y796678D01*
X790511Y796664D01*
X790675Y796620D01*
X790838Y796571D01*
X790870Y796568D01*
X790900Y796560D01*
X791230Y796533D01*
X824496Y796533D01*
X828183Y795005D01*
X831005Y792183D01*
X832533Y788496D01*
X832533Y784504D01*
X831005Y780817D01*
X828183Y777995D01*
X824496Y776467D01*
X797436Y776467D01*
X797290Y776453D01*
X797144Y776446D01*
X797091Y776433D01*
X797035Y776427D01*
X796896Y776384D01*
X796754Y776349D01*
X796704Y776326D01*
X796650Y776309D01*
X796522Y776240D01*
X796390Y776177D01*
X796345Y776144D01*
X796296Y776117D01*
X796184Y776024D01*
X796067Y775937D01*
X796030Y775895D01*
X795987Y775860D01*
X795896Y775746D01*
X795798Y775637D01*
X795770Y775589D01*
X795735Y775546D01*
X795668Y775416D01*
X795593Y775290D01*
X795575Y775238D01*
X795549Y775189D01*
X795509Y775048D01*
X795461Y774910D01*
X795453Y774855D01*
X795438Y774802D01*
X795426Y774656D01*
X795406Y774511D01*
X795410Y774456D01*
X795405Y774400D01*
X795422Y774255D01*
X795431Y774109D01*
X795446Y774056D01*
X795452Y774001D01*
X795497Y773862D01*
X795535Y773720D01*
X795562Y773663D01*
X795577Y773618D01*
X795618Y773545D01*
X795677Y773420D01*
X796950Y771216D01*
X798577Y765143D01*
X798577Y758857D01*
X796950Y752784D01*
X793806Y747339D01*
X789361Y742894D01*
X783916Y739750D01*
X777843Y738123D01*
X771557Y738123D01*
X771360Y738176D01*
X771284Y738188D01*
X771209Y738210D01*
X771085Y738221D01*
X770963Y738241D01*
X770885Y738238D01*
X770808Y738245D01*
X770685Y738231D01*
X770561Y738227D01*
X770485Y738208D01*
X770408Y738200D01*
X770290Y738162D01*
X770169Y738133D01*
X770099Y738100D01*
X770024Y738077D01*
X769916Y738016D01*
X769804Y737964D01*
X769741Y737918D01*
X769673Y737880D01*
X769579Y737800D01*
X769479Y737726D01*
X769426Y737669D01*
X769367Y737618D01*
X769291Y737521D01*
X769207Y737429D01*
X769167Y737362D01*
X769119Y737301D01*
X769063Y737191D01*
X768999Y737084D01*
X768973Y737011D01*
X768938Y736942D01*
X768905Y736822D01*
X768864Y736705D01*
X768852Y736628D01*
X768832Y736553D01*
X768823Y736429D01*
X768805Y736307D01*
X768810Y736229D01*
X768804Y736152D01*
X768820Y736028D01*
X768827Y735905D01*
X768846Y735830D01*
X768856Y735752D01*
X768906Y735599D01*
X768927Y735515D01*
X768943Y735482D01*
X768958Y735436D01*
X771018Y730464D01*
X771018Y724956D01*
X768910Y719868D01*
X765016Y715974D01*
X759928Y713866D01*
X754420Y713866D01*
X749332Y715974D01*
X745438Y719868D01*
X743330Y724956D01*
X743330Y730464D01*
X745438Y735552D01*
X749332Y739446D01*
X754420Y741554D01*
X756476Y741554D01*
X756484Y741555D01*
X756493Y741554D01*
X756685Y741575D01*
X756876Y741594D01*
X756885Y741596D01*
X756894Y741597D01*
X757076Y741655D01*
X757261Y741712D01*
X757269Y741716D01*
X757278Y741719D01*
X757446Y741812D01*
X757615Y741904D01*
X757622Y741909D01*
X757630Y741914D01*
X757777Y742038D01*
X757924Y742161D01*
X757930Y742168D01*
X757937Y742174D01*
X758056Y742325D01*
X758177Y742475D01*
X758181Y742483D01*
X758186Y742490D01*
X758274Y742663D01*
X758362Y742832D01*
X758365Y742841D01*
X758369Y742849D01*
X758420Y743034D01*
X758474Y743219D01*
X758474Y743228D01*
X758477Y743237D01*
X758491Y743430D01*
X758507Y743621D01*
X758506Y743629D01*
X758506Y743638D01*
X758482Y743831D01*
X758460Y744020D01*
X758457Y744029D01*
X758456Y744038D01*
X758394Y744221D01*
X758335Y744403D01*
X758330Y744411D01*
X758328Y744419D01*
X758232Y744585D01*
X758137Y744754D01*
X758131Y744761D01*
X758127Y744768D01*
X757912Y745021D01*
X755594Y747339D01*
X752450Y752784D01*
X750823Y758857D01*
X750823Y765143D01*
X752450Y771216D01*
X753723Y773420D01*
X753783Y773554D01*
X753851Y773683D01*
X753866Y773737D01*
X753889Y773787D01*
X753922Y773930D01*
X753962Y774070D01*
X753967Y774126D01*
X753979Y774180D01*
X753983Y774326D01*
X753995Y774472D01*
X753988Y774527D01*
X753990Y774582D01*
X753965Y774727D01*
X753948Y774871D01*
X753931Y774924D01*
X753921Y774979D01*
X753868Y775115D01*
X753823Y775254D01*
X753796Y775303D01*
X753776Y775354D01*
X753697Y775478D01*
X753625Y775605D01*
X753589Y775647D01*
X753559Y775694D01*
X753458Y775799D01*
X753362Y775910D01*
X753318Y775944D01*
X753280Y775984D01*
X753159Y776067D01*
X753044Y776156D01*
X752994Y776181D01*
X752949Y776213D01*
X752814Y776271D01*
X752683Y776336D01*
X752630Y776350D01*
X752579Y776372D01*
X752436Y776402D01*
X752295Y776440D01*
X752232Y776445D01*
X752185Y776455D01*
X752101Y776456D01*
X751964Y776467D01*
X623564Y776467D01*
X623546Y776465D01*
X623528Y776467D01*
X623346Y776446D01*
X623163Y776427D01*
X623146Y776422D01*
X623129Y776420D01*
X622954Y776363D01*
X622778Y776309D01*
X622763Y776301D01*
X622746Y776295D01*
X622586Y776205D01*
X622424Y776117D01*
X622411Y776106D01*
X622395Y776097D01*
X622256Y775977D01*
X622115Y775860D01*
X622104Y775846D01*
X622090Y775834D01*
X621978Y775689D01*
X621863Y775546D01*
X621855Y775530D01*
X621844Y775516D01*
X621762Y775351D01*
X621677Y775189D01*
X621672Y775172D01*
X621664Y775156D01*
X621617Y774977D01*
X621566Y774802D01*
X621564Y774784D01*
X621560Y774767D01*
X621533Y774436D01*
X621533Y645504D01*
X620005Y641817D01*
X617183Y638995D01*
X613496Y637467D01*
X609504Y637467D01*
G37*
%LPD*%
%LPC*%
G36*
X831004Y623967D02*
X831004Y623967D01*
X827317Y625495D01*
X789939Y662872D01*
X789919Y662889D01*
X789901Y662910D01*
X789763Y663017D01*
X789628Y663127D01*
X789604Y663140D01*
X789583Y663156D01*
X789426Y663234D01*
X789272Y663316D01*
X789247Y663324D01*
X789222Y663336D01*
X789053Y663381D01*
X788886Y663431D01*
X788860Y663433D01*
X788834Y663440D01*
X788503Y663467D01*
X739504Y663467D01*
X735817Y664995D01*
X732995Y667817D01*
X731467Y671504D01*
X731467Y675496D01*
X732995Y679183D01*
X735817Y682005D01*
X739504Y683533D01*
X795496Y683533D01*
X799183Y682005D01*
X841505Y639683D01*
X843033Y635996D01*
X843033Y632004D01*
X841505Y628317D01*
X838683Y625495D01*
X834996Y623967D01*
X831004Y623967D01*
G37*
%LPD*%
%LPC*%
G36*
X916472Y713866D02*
X916472Y713866D01*
X911384Y715974D01*
X907490Y719868D01*
X905382Y724956D01*
X905382Y730464D01*
X907442Y735436D01*
X907465Y735511D01*
X907496Y735582D01*
X907523Y735703D01*
X907559Y735822D01*
X907566Y735899D01*
X907583Y735975D01*
X907585Y736099D01*
X907597Y736223D01*
X907589Y736300D01*
X907590Y736378D01*
X907568Y736500D01*
X907555Y736623D01*
X907532Y736697D01*
X907518Y736774D01*
X907472Y736889D01*
X907435Y737008D01*
X907398Y737076D01*
X907369Y737148D01*
X907301Y737252D01*
X907242Y737361D01*
X907192Y737420D01*
X907150Y737485D01*
X907063Y737574D01*
X906983Y737669D01*
X906922Y737717D01*
X906868Y737773D01*
X906765Y737843D01*
X906668Y737920D01*
X906599Y737955D01*
X906535Y737999D01*
X906420Y738047D01*
X906310Y738104D01*
X906235Y738125D01*
X906163Y738155D01*
X906042Y738180D01*
X905922Y738213D01*
X905845Y738219D01*
X905769Y738235D01*
X905644Y738235D01*
X905521Y738245D01*
X905444Y738235D01*
X905366Y738235D01*
X905208Y738207D01*
X905121Y738196D01*
X905086Y738184D01*
X905040Y738176D01*
X904843Y738123D01*
X898557Y738123D01*
X892484Y739750D01*
X887039Y742894D01*
X882594Y747339D01*
X879450Y752784D01*
X877823Y758857D01*
X877823Y765143D01*
X879450Y771216D01*
X882594Y776661D01*
X887039Y781106D01*
X892484Y784250D01*
X898557Y785877D01*
X904843Y785877D01*
X910916Y784250D01*
X916361Y781106D01*
X920806Y776661D01*
X923950Y771216D01*
X925577Y765143D01*
X925577Y758857D01*
X923950Y752784D01*
X920806Y747339D01*
X918488Y745021D01*
X918482Y745014D01*
X918476Y745009D01*
X918355Y744859D01*
X918233Y744710D01*
X918229Y744702D01*
X918223Y744695D01*
X918135Y744525D01*
X918044Y744354D01*
X918042Y744345D01*
X918038Y744338D01*
X917985Y744153D01*
X917930Y743968D01*
X917929Y743959D01*
X917926Y743951D01*
X917911Y743760D01*
X917893Y743567D01*
X917894Y743558D01*
X917893Y743549D01*
X917916Y743360D01*
X917937Y743167D01*
X917939Y743158D01*
X917940Y743150D01*
X918000Y742968D01*
X918058Y742783D01*
X918062Y742775D01*
X918065Y742767D01*
X918160Y742598D01*
X918253Y742431D01*
X918259Y742424D01*
X918263Y742416D01*
X918389Y742270D01*
X918513Y742124D01*
X918520Y742118D01*
X918526Y742111D01*
X918678Y741994D01*
X918829Y741874D01*
X918837Y741870D01*
X918844Y741865D01*
X919016Y741779D01*
X919188Y741692D01*
X919197Y741689D01*
X919205Y741685D01*
X919391Y741635D01*
X919576Y741584D01*
X919585Y741583D01*
X919594Y741581D01*
X919924Y741554D01*
X921980Y741554D01*
X927068Y739446D01*
X930962Y735552D01*
X933070Y730464D01*
X933070Y724956D01*
X930962Y719868D01*
X927068Y715974D01*
X921980Y713866D01*
X916472Y713866D01*
G37*
%LPD*%
%LPC*%
G36*
X804862Y718629D02*
X804862Y718629D01*
X804860Y718647D01*
X804861Y718665D01*
X804845Y718805D01*
X804862Y719011D01*
X804862Y729310D01*
X804929Y729394D01*
X804936Y729406D01*
X804944Y729416D01*
X805028Y729584D01*
X805115Y729751D01*
X805119Y729764D01*
X805125Y729776D01*
X805174Y729957D01*
X805226Y730138D01*
X805227Y730152D01*
X805231Y730165D01*
X805244Y730353D01*
X805259Y730540D01*
X805258Y730553D01*
X805259Y730566D01*
X805234Y730754D01*
X805212Y730939D01*
X805208Y730952D01*
X805206Y730965D01*
X805105Y731281D01*
X803655Y734781D01*
X803655Y738419D01*
X805047Y741780D01*
X807620Y744353D01*
X810981Y745745D01*
X814619Y745745D01*
X817980Y744353D01*
X820553Y741780D01*
X821083Y740499D01*
X821088Y740491D01*
X821090Y740482D01*
X821184Y740311D01*
X821274Y740144D01*
X821279Y740137D01*
X821284Y740129D01*
X821408Y739981D01*
X821530Y739833D01*
X821537Y739828D01*
X821543Y739821D01*
X821693Y739701D01*
X821843Y739580D01*
X821851Y739575D01*
X821858Y739570D01*
X822030Y739481D01*
X822199Y739392D01*
X822208Y739390D01*
X822216Y739386D01*
X822403Y739333D01*
X822586Y739279D01*
X822594Y739279D01*
X822603Y739276D01*
X822796Y739261D01*
X822987Y739245D01*
X822996Y739246D01*
X823004Y739245D01*
X823196Y739268D01*
X823387Y739290D01*
X823395Y739293D01*
X823404Y739294D01*
X823587Y739354D01*
X823770Y739413D01*
X823778Y739417D01*
X823786Y739420D01*
X823953Y739515D01*
X824122Y739609D01*
X824128Y739615D01*
X824136Y739620D01*
X824281Y739746D01*
X824427Y739871D01*
X824433Y739878D01*
X824440Y739884D01*
X824558Y740038D01*
X824676Y740188D01*
X824680Y740196D01*
X824685Y740203D01*
X824837Y740499D01*
X825367Y741780D01*
X827940Y744353D01*
X831301Y745745D01*
X834939Y745745D01*
X838300Y744353D01*
X840873Y741780D01*
X841403Y740499D01*
X841408Y740491D01*
X841410Y740482D01*
X841504Y740311D01*
X841594Y740144D01*
X841599Y740137D01*
X841604Y740129D01*
X841728Y739981D01*
X841850Y739833D01*
X841857Y739828D01*
X841863Y739821D01*
X842013Y739701D01*
X842163Y739580D01*
X842171Y739575D01*
X842178Y739570D01*
X842350Y739481D01*
X842519Y739392D01*
X842528Y739390D01*
X842536Y739386D01*
X842723Y739333D01*
X842906Y739279D01*
X842914Y739279D01*
X842923Y739276D01*
X843116Y739261D01*
X843307Y739245D01*
X843316Y739246D01*
X843324Y739245D01*
X843516Y739268D01*
X843707Y739290D01*
X843715Y739293D01*
X843724Y739294D01*
X843907Y739354D01*
X844090Y739413D01*
X844098Y739417D01*
X844106Y739420D01*
X844273Y739515D01*
X844442Y739609D01*
X844448Y739615D01*
X844456Y739620D01*
X844601Y739746D01*
X844747Y739871D01*
X844753Y739878D01*
X844760Y739884D01*
X844878Y740038D01*
X844996Y740188D01*
X845000Y740196D01*
X845005Y740203D01*
X845157Y740499D01*
X845687Y741780D01*
X848260Y744353D01*
X851621Y745745D01*
X855259Y745745D01*
X858620Y744353D01*
X861193Y741780D01*
X861723Y740499D01*
X861728Y740491D01*
X861730Y740482D01*
X861824Y740311D01*
X861914Y740144D01*
X861919Y740137D01*
X861924Y740129D01*
X862048Y739981D01*
X862170Y739833D01*
X862177Y739828D01*
X862183Y739821D01*
X862333Y739701D01*
X862483Y739580D01*
X862491Y739575D01*
X862498Y739570D01*
X862670Y739481D01*
X862839Y739392D01*
X862848Y739390D01*
X862856Y739386D01*
X863043Y739333D01*
X863226Y739279D01*
X863234Y739279D01*
X863243Y739276D01*
X863436Y739261D01*
X863627Y739245D01*
X863636Y739246D01*
X863644Y739245D01*
X863836Y739268D01*
X864027Y739290D01*
X864035Y739293D01*
X864044Y739294D01*
X864227Y739354D01*
X864410Y739413D01*
X864418Y739417D01*
X864426Y739420D01*
X864593Y739515D01*
X864762Y739609D01*
X864768Y739615D01*
X864776Y739620D01*
X864921Y739746D01*
X865067Y739871D01*
X865073Y739878D01*
X865080Y739884D01*
X865198Y740038D01*
X865316Y740188D01*
X865320Y740196D01*
X865325Y740203D01*
X865477Y740499D01*
X866007Y741780D01*
X868580Y744353D01*
X871941Y745745D01*
X875579Y745745D01*
X878940Y744353D01*
X881513Y741780D01*
X882905Y738419D01*
X882905Y734781D01*
X881513Y731420D01*
X878940Y728847D01*
X875579Y727455D01*
X872801Y727455D01*
X872792Y727454D01*
X872783Y727455D01*
X872592Y727434D01*
X872401Y727415D01*
X872392Y727413D01*
X872383Y727412D01*
X872199Y727354D01*
X872016Y727297D01*
X872008Y727293D01*
X871999Y727290D01*
X871831Y727197D01*
X871662Y727105D01*
X871655Y727100D01*
X871647Y727095D01*
X871500Y726971D01*
X871352Y726848D01*
X871347Y726841D01*
X871340Y726835D01*
X871220Y726683D01*
X871100Y726534D01*
X871096Y726526D01*
X871090Y726519D01*
X871003Y726347D01*
X870915Y726177D01*
X870912Y726168D01*
X870908Y726160D01*
X870857Y725975D01*
X870803Y725790D01*
X870802Y725781D01*
X870800Y725772D01*
X870786Y725580D01*
X870770Y725388D01*
X870771Y725380D01*
X870771Y725371D01*
X870795Y725178D01*
X870817Y724989D01*
X870820Y724980D01*
X870821Y724971D01*
X870882Y724788D01*
X870942Y724606D01*
X870946Y724598D01*
X870949Y724589D01*
X871046Y724422D01*
X871140Y724255D01*
X871146Y724248D01*
X871150Y724241D01*
X871351Y724004D01*
X872745Y720639D01*
X872745Y717001D01*
X871353Y713640D01*
X868780Y711067D01*
X865419Y709675D01*
X861781Y709675D01*
X858420Y711067D01*
X855847Y713640D01*
X855317Y714921D01*
X855312Y714929D01*
X855310Y714938D01*
X855218Y715106D01*
X855126Y715276D01*
X855121Y715283D01*
X855116Y715291D01*
X854993Y715438D01*
X854870Y715587D01*
X854863Y715592D01*
X854857Y715599D01*
X854708Y715718D01*
X854557Y715840D01*
X854549Y715845D01*
X854543Y715850D01*
X854372Y715938D01*
X854201Y716028D01*
X854192Y716030D01*
X854184Y716034D01*
X854001Y716086D01*
X853815Y716141D01*
X853805Y716141D01*
X853797Y716144D01*
X853606Y716159D01*
X853413Y716175D01*
X853404Y716174D01*
X853396Y716175D01*
X853206Y716152D01*
X853013Y716130D01*
X853005Y716127D01*
X852996Y716126D01*
X852813Y716066D01*
X852630Y716007D01*
X852622Y716003D01*
X852614Y716000D01*
X852446Y715904D01*
X852279Y715811D01*
X852272Y715805D01*
X852264Y715800D01*
X852119Y715674D01*
X851973Y715549D01*
X851967Y715542D01*
X851960Y715536D01*
X851843Y715383D01*
X851724Y715232D01*
X851720Y715224D01*
X851715Y715217D01*
X851563Y714921D01*
X851033Y713640D01*
X848460Y711067D01*
X845099Y709675D01*
X841461Y709675D01*
X838100Y711067D01*
X835527Y713640D01*
X834997Y714921D01*
X834992Y714929D01*
X834990Y714938D01*
X834898Y715106D01*
X834806Y715276D01*
X834801Y715283D01*
X834796Y715291D01*
X834673Y715438D01*
X834550Y715587D01*
X834543Y715592D01*
X834537Y715599D01*
X834388Y715718D01*
X834237Y715840D01*
X834229Y715845D01*
X834223Y715850D01*
X834052Y715938D01*
X833881Y716028D01*
X833872Y716030D01*
X833864Y716034D01*
X833681Y716086D01*
X833495Y716141D01*
X833485Y716141D01*
X833477Y716144D01*
X833286Y716159D01*
X833093Y716175D01*
X833084Y716174D01*
X833076Y716175D01*
X832886Y716152D01*
X832693Y716130D01*
X832685Y716127D01*
X832676Y716126D01*
X832493Y716066D01*
X832310Y716007D01*
X832302Y716003D01*
X832294Y716000D01*
X832126Y715904D01*
X831959Y715811D01*
X831952Y715805D01*
X831944Y715800D01*
X831799Y715674D01*
X831653Y715549D01*
X831647Y715542D01*
X831640Y715536D01*
X831523Y715383D01*
X831404Y715232D01*
X831400Y715224D01*
X831395Y715217D01*
X831243Y714921D01*
X830713Y713640D01*
X828140Y711067D01*
X824779Y709675D01*
X821141Y709675D01*
X817780Y711067D01*
X815207Y713640D01*
X814933Y714304D01*
X814871Y714419D01*
X814817Y714538D01*
X814776Y714596D01*
X814742Y714658D01*
X814659Y714759D01*
X814583Y714866D01*
X814531Y714914D01*
X814486Y714969D01*
X814384Y715051D01*
X814289Y715141D01*
X814229Y715178D01*
X814173Y715223D01*
X814057Y715283D01*
X813946Y715352D01*
X813880Y715377D01*
X813817Y715410D01*
X813691Y715446D01*
X813569Y715492D01*
X813499Y715503D01*
X813430Y715523D01*
X813300Y715534D01*
X813171Y715554D01*
X813100Y715551D01*
X813029Y715557D01*
X812900Y715543D01*
X812769Y715537D01*
X812700Y715520D01*
X812629Y715512D01*
X812505Y715472D01*
X812378Y715441D01*
X812314Y715411D01*
X812246Y715389D01*
X812132Y715325D01*
X812013Y715270D01*
X811956Y715227D01*
X811894Y715193D01*
X811795Y715108D01*
X811690Y715030D01*
X811642Y714977D01*
X811589Y714931D01*
X811508Y714828D01*
X811420Y714731D01*
X811377Y714661D01*
X811340Y714614D01*
X811306Y714546D01*
X811246Y714448D01*
X810896Y713761D01*
X810003Y712532D01*
X808928Y711457D01*
X807699Y710564D01*
X806345Y709874D01*
X804900Y709405D01*
X804862Y709399D01*
X804862Y718629D01*
G37*
%LPD*%
%LPC*%
G36*
X716923Y714663D02*
X716923Y714663D01*
X711863Y719723D01*
X711863Y726877D01*
X716923Y731937D01*
X724077Y731937D01*
X729137Y726877D01*
X729137Y719723D01*
X724077Y714663D01*
X716923Y714663D01*
G37*
%LPD*%
%LPC*%
G36*
X670123Y706863D02*
X670123Y706863D01*
X665063Y711923D01*
X665063Y719077D01*
X670123Y724137D01*
X677277Y724137D01*
X682337Y719077D01*
X682337Y711923D01*
X677277Y706863D01*
X670123Y706863D01*
G37*
%LPD*%
%LPC*%
G36*
X893723Y627363D02*
X893723Y627363D01*
X888663Y632423D01*
X888663Y639577D01*
X893723Y644637D01*
X900877Y644637D01*
X905937Y639577D01*
X905937Y632423D01*
X900877Y627363D01*
X893723Y627363D01*
G37*
%LPD*%
%LPC*%
G36*
X861323Y626863D02*
X861323Y626863D01*
X856263Y631923D01*
X856263Y639077D01*
X861323Y644137D01*
X868477Y644137D01*
X873537Y639077D01*
X873537Y631923D01*
X868477Y626863D01*
X861323Y626863D01*
G37*
%LPD*%
%LPC*%
G36*
X722531Y750731D02*
X722531Y750731D01*
X722531Y757845D01*
X724288Y757845D01*
X729645Y752488D01*
X729645Y750731D01*
X722531Y750731D01*
G37*
%LPD*%
%LPC*%
G36*
X650331Y717531D02*
X650331Y717531D01*
X650331Y724645D01*
X652088Y724645D01*
X657445Y719288D01*
X657445Y717531D01*
X650331Y717531D01*
G37*
%LPD*%
%LPC*%
G36*
X899331Y612631D02*
X899331Y612631D01*
X899331Y619745D01*
X901088Y619745D01*
X906445Y614388D01*
X906445Y612631D01*
X899331Y612631D01*
G37*
%LPD*%
%LPC*%
G36*
X866931Y612131D02*
X866931Y612131D01*
X866931Y619245D01*
X868688Y619245D01*
X874045Y613888D01*
X874045Y612131D01*
X866931Y612131D01*
G37*
%LPD*%
%LPC*%
G36*
X639155Y717531D02*
X639155Y717531D01*
X639155Y719288D01*
X644512Y724645D01*
X646269Y724645D01*
X646269Y717531D01*
X639155Y717531D01*
G37*
%LPD*%
%LPC*%
G36*
X711355Y750731D02*
X711355Y750731D01*
X711355Y752488D01*
X716712Y757845D01*
X718469Y757845D01*
X718469Y750731D01*
X711355Y750731D01*
G37*
%LPD*%
%LPC*%
G36*
X722531Y739555D02*
X722531Y739555D01*
X722531Y746669D01*
X729645Y746669D01*
X729645Y744912D01*
X724288Y739555D01*
X722531Y739555D01*
G37*
%LPD*%
%LPC*%
G36*
X650331Y706355D02*
X650331Y706355D01*
X650331Y713469D01*
X657445Y713469D01*
X657445Y711712D01*
X652088Y706355D01*
X650331Y706355D01*
G37*
%LPD*%
%LPC*%
G36*
X888155Y612631D02*
X888155Y612631D01*
X888155Y614388D01*
X893512Y619745D01*
X895269Y619745D01*
X895269Y612631D01*
X888155Y612631D01*
G37*
%LPD*%
%LPC*%
G36*
X855755Y612131D02*
X855755Y612131D01*
X855755Y613888D01*
X861112Y619245D01*
X862869Y619245D01*
X862869Y612131D01*
X855755Y612131D01*
G37*
%LPD*%
%LPC*%
G36*
X899331Y601455D02*
X899331Y601455D01*
X899331Y608569D01*
X906445Y608569D01*
X906445Y606812D01*
X901088Y601455D01*
X899331Y601455D01*
G37*
%LPD*%
%LPC*%
G36*
X866931Y600955D02*
X866931Y600955D01*
X866931Y608069D01*
X874045Y608069D01*
X874045Y606312D01*
X868688Y600955D01*
X866931Y600955D01*
G37*
%LPD*%
%LPC*%
G36*
X716712Y739555D02*
X716712Y739555D01*
X711355Y744912D01*
X711355Y746669D01*
X718469Y746669D01*
X718469Y739555D01*
X716712Y739555D01*
G37*
%LPD*%
%LPC*%
G36*
X893512Y601455D02*
X893512Y601455D01*
X888155Y606812D01*
X888155Y608569D01*
X895269Y608569D01*
X895269Y601455D01*
X893512Y601455D01*
G37*
%LPD*%
%LPC*%
G36*
X861112Y600955D02*
X861112Y600955D01*
X855755Y606312D01*
X855755Y608069D01*
X862869Y608069D01*
X862869Y600955D01*
X861112Y600955D01*
G37*
%LPD*%
%LPC*%
G36*
X644512Y706355D02*
X644512Y706355D01*
X639155Y711712D01*
X639155Y713469D01*
X646269Y713469D01*
X646269Y706355D01*
X644512Y706355D01*
G37*
%LPD*%
%LPC*%
G36*
X793219Y721042D02*
X793219Y721042D01*
X793225Y721080D01*
X793694Y722525D01*
X794384Y723879D01*
X795277Y725108D01*
X796352Y726183D01*
X797581Y727076D01*
X798935Y727766D01*
X800380Y728235D01*
X800418Y728241D01*
X800418Y721042D01*
X793219Y721042D01*
G37*
%LPD*%
%LPC*%
G36*
X800380Y709405D02*
X800380Y709405D01*
X798935Y709874D01*
X797581Y710564D01*
X796352Y711457D01*
X795277Y712532D01*
X794384Y713761D01*
X793694Y715115D01*
X793225Y716560D01*
X793219Y716598D01*
X800418Y716598D01*
X800418Y709399D01*
X800380Y709405D01*
G37*
%LPD*%
D10*
X897300Y636000D03*
X897300Y610600D03*
X864900Y635500D03*
X864900Y610100D03*
D11*
X873760Y736600D03*
X863600Y718820D03*
X853440Y736600D03*
X843280Y718820D03*
X833120Y736600D03*
X822960Y718820D03*
X812800Y736600D03*
X802640Y718820D03*
D12*
X757174Y727710D03*
X919226Y727710D03*
D13*
X673700Y715500D03*
X648300Y715500D03*
D14*
X720500Y723300D03*
X720500Y748700D03*
D15*
X833000Y634000D03*
D16*
X793500Y673500D01*
X741500Y673500D01*
D15*
X741500Y673500D03*
X822500Y786500D03*
X611500Y647500D03*
D16*
X786840Y786500D02*
X822500Y786500D01*
X786840Y786500D02*
X785432Y787908D01*
X763969Y787908D01*
X762561Y786500D01*
X611500Y786500D01*
X611500Y647500D01*
D15*
X769000Y660500D03*
X753000Y624000D03*
X638000Y635500D03*
D17*
X782000Y731000D03*
M02*
