G04 EAGLE Gerber X2 export*
%TF.Part,Single*%
%TF.FileFunction,Other,Solder side*%
%TF.FilePolarity,Positive*%
%TF.GenerationSoftware,Autodesk,EAGLE,8.6.3*%
%TF.CreationDate,2019-03-20T09:29:06Z*%
G75*
%MOMM*%
%FSLAX34Y34*%
%LPD*%
%AMOC8*
5,1,8,0,0,1.08239X$1,22.5*%
G01*
%ADD10P,1.429621X8X292.500000*%
%ADD11C,1.422400*%
%ADD12C,2.362200*%
%ADD13P,1.429621X8X202.500000*%
%ADD14P,1.429621X8X112.500000*%
%ADD15C,1.006400*%
%ADD16C,0.406400*%
%ADD17C,0.906400*%

G36*
X940366Y587623D02*
X940366Y587623D01*
X940384Y587621D01*
X940566Y587642D01*
X940749Y587661D01*
X940766Y587666D01*
X940783Y587668D01*
X940958Y587725D01*
X941134Y587779D01*
X941149Y587787D01*
X941166Y587793D01*
X941326Y587883D01*
X941488Y587971D01*
X941501Y587982D01*
X941517Y587991D01*
X941656Y588111D01*
X941797Y588228D01*
X941808Y588242D01*
X941822Y588254D01*
X941934Y588399D01*
X942049Y588542D01*
X942057Y588558D01*
X942068Y588572D01*
X942150Y588737D01*
X942235Y588899D01*
X942240Y588916D01*
X942248Y588932D01*
X942295Y589111D01*
X942346Y589286D01*
X942348Y589304D01*
X942352Y589321D01*
X942379Y589652D01*
X942379Y719012D01*
X942379Y719016D01*
X942379Y719020D01*
X942359Y719214D01*
X942339Y719412D01*
X942338Y719416D01*
X942338Y719421D01*
X942280Y719607D01*
X942221Y719797D01*
X942219Y719801D01*
X942218Y719805D01*
X942124Y719977D01*
X942029Y720151D01*
X942027Y720155D01*
X942024Y720158D01*
X941897Y720310D01*
X941772Y720460D01*
X941768Y720463D01*
X941765Y720467D01*
X941611Y720590D01*
X941458Y720713D01*
X941454Y720715D01*
X941451Y720718D01*
X941276Y720807D01*
X941101Y720898D01*
X941096Y720899D01*
X941092Y720901D01*
X940905Y720955D01*
X940714Y721010D01*
X940709Y721010D01*
X940705Y721011D01*
X940512Y721026D01*
X940312Y721042D01*
X940308Y721042D01*
X940304Y721042D01*
X940110Y721019D01*
X939913Y720996D01*
X939908Y720994D01*
X939904Y720994D01*
X939719Y720932D01*
X939530Y720871D01*
X939526Y720868D01*
X939522Y720867D01*
X939350Y720769D01*
X939179Y720673D01*
X939176Y720670D01*
X939172Y720668D01*
X939021Y720536D01*
X938875Y720410D01*
X938872Y720406D01*
X938868Y720403D01*
X938748Y720247D01*
X938628Y720092D01*
X938626Y720088D01*
X938623Y720084D01*
X938471Y719789D01*
X936869Y715921D01*
X931015Y710067D01*
X923366Y706898D01*
X915086Y706898D01*
X907437Y710067D01*
X901583Y715921D01*
X898414Y723570D01*
X898414Y731850D01*
X899881Y735391D01*
X899925Y735535D01*
X899975Y735677D01*
X899983Y735727D01*
X899998Y735776D01*
X900012Y735926D01*
X900034Y736075D01*
X900031Y736126D01*
X900036Y736177D01*
X900020Y736327D01*
X900012Y736477D01*
X899999Y736527D01*
X899994Y736578D01*
X899949Y736721D01*
X899912Y736867D01*
X899889Y736913D01*
X899874Y736962D01*
X899802Y737094D01*
X899736Y737230D01*
X899705Y737270D01*
X899681Y737315D01*
X899584Y737431D01*
X899493Y737550D01*
X899455Y737584D01*
X899422Y737623D01*
X899304Y737717D01*
X899191Y737817D01*
X899147Y737842D01*
X899107Y737874D01*
X898973Y737943D01*
X898843Y738019D01*
X898788Y738038D01*
X898749Y738058D01*
X898667Y738081D01*
X898530Y738130D01*
X892430Y739765D01*
X892349Y739778D01*
X892270Y739801D01*
X892150Y739811D01*
X892032Y739830D01*
X891950Y739827D01*
X891868Y739834D01*
X891750Y739820D01*
X891630Y739816D01*
X891550Y739797D01*
X891469Y739787D01*
X891355Y739750D01*
X891238Y739722D01*
X891164Y739688D01*
X891086Y739662D01*
X890981Y739603D01*
X890873Y739553D01*
X890807Y739505D01*
X890735Y739464D01*
X890645Y739386D01*
X890548Y739315D01*
X890493Y739255D01*
X890430Y739201D01*
X890357Y739107D01*
X890276Y739018D01*
X890234Y738948D01*
X890184Y738883D01*
X890130Y738776D01*
X890069Y738673D01*
X890041Y738596D01*
X890004Y738522D01*
X889973Y738407D01*
X889933Y738294D01*
X889921Y738213D01*
X889900Y738134D01*
X889887Y737981D01*
X889875Y737896D01*
X889877Y737855D01*
X889873Y737803D01*
X889873Y733395D01*
X887420Y727473D01*
X882887Y722940D01*
X880967Y722145D01*
X880947Y722134D01*
X880926Y722127D01*
X880770Y722039D01*
X880612Y721955D01*
X880595Y721940D01*
X880575Y721929D01*
X880440Y721813D01*
X880301Y721698D01*
X880287Y721681D01*
X880270Y721666D01*
X880161Y721525D01*
X880048Y721386D01*
X880037Y721366D01*
X880024Y721348D01*
X879944Y721187D01*
X879861Y721029D01*
X879854Y721008D01*
X879844Y720988D01*
X879798Y720814D01*
X879748Y720643D01*
X879746Y720620D01*
X879740Y720599D01*
X879713Y720268D01*
X879713Y715615D01*
X877260Y709693D01*
X872727Y705160D01*
X866805Y702707D01*
X860395Y702707D01*
X854217Y705266D01*
X854192Y705274D01*
X854168Y705286D01*
X854000Y705332D01*
X853832Y705383D01*
X853805Y705385D01*
X853779Y705392D01*
X853605Y705404D01*
X853431Y705421D01*
X853405Y705418D01*
X853378Y705420D01*
X853204Y705397D01*
X853031Y705379D01*
X853005Y705371D01*
X852979Y705368D01*
X852663Y705266D01*
X846485Y702707D01*
X840075Y702707D01*
X833897Y705266D01*
X833872Y705274D01*
X833848Y705286D01*
X833680Y705332D01*
X833512Y705383D01*
X833485Y705385D01*
X833459Y705392D01*
X833285Y705404D01*
X833111Y705421D01*
X833085Y705418D01*
X833058Y705420D01*
X832884Y705397D01*
X832711Y705379D01*
X832685Y705371D01*
X832659Y705368D01*
X832343Y705266D01*
X826165Y702707D01*
X819755Y702707D01*
X813833Y705160D01*
X809226Y709767D01*
X809147Y709832D01*
X809075Y709904D01*
X808992Y709959D01*
X808915Y710022D01*
X808824Y710070D01*
X808739Y710126D01*
X808647Y710164D01*
X808559Y710211D01*
X808461Y710240D01*
X808367Y710278D01*
X808269Y710297D01*
X808173Y710326D01*
X808071Y710335D01*
X807971Y710354D01*
X807871Y710353D01*
X807772Y710362D01*
X807670Y710351D01*
X807568Y710350D01*
X807471Y710329D01*
X807372Y710319D01*
X807274Y710288D01*
X807175Y710267D01*
X807063Y710221D01*
X806988Y710197D01*
X806938Y710170D01*
X806868Y710141D01*
X806346Y709874D01*
X804900Y709405D01*
X804862Y709399D01*
X804862Y718629D01*
X804860Y718647D01*
X804861Y718665D01*
X804840Y718847D01*
X804822Y719030D01*
X804817Y719047D01*
X804815Y719065D01*
X804758Y719239D01*
X804704Y719415D01*
X804695Y719431D01*
X804690Y719447D01*
X804599Y719608D01*
X804512Y719769D01*
X804501Y719783D01*
X804492Y719798D01*
X804372Y719937D01*
X804254Y720078D01*
X804240Y720089D01*
X804229Y720103D01*
X804084Y720215D01*
X804070Y720226D01*
X803990Y720319D01*
X803873Y720459D01*
X803859Y720471D01*
X803847Y720484D01*
X803702Y720597D01*
X803559Y720712D01*
X803543Y720720D01*
X803529Y720731D01*
X803364Y720813D01*
X803202Y720897D01*
X803185Y720902D01*
X803169Y720910D01*
X802991Y720958D01*
X802815Y721009D01*
X802797Y721010D01*
X802780Y721015D01*
X802449Y721042D01*
X793219Y721042D01*
X793225Y721080D01*
X793694Y722525D01*
X794384Y723879D01*
X795277Y725108D01*
X796352Y726183D01*
X797611Y727097D01*
X797746Y727218D01*
X797884Y727336D01*
X797896Y727352D01*
X797911Y727365D01*
X798020Y727510D01*
X798132Y727653D01*
X798141Y727671D01*
X798153Y727687D01*
X798232Y727851D01*
X798313Y728013D01*
X798318Y728032D01*
X798327Y728050D01*
X798371Y728226D01*
X798419Y728401D01*
X798421Y728421D01*
X798426Y728440D01*
X798434Y728621D01*
X798447Y728803D01*
X798444Y728823D01*
X798445Y728843D01*
X798418Y729022D01*
X798395Y729202D01*
X798388Y729223D01*
X798385Y729241D01*
X798359Y729313D01*
X798293Y729518D01*
X796687Y733395D01*
X796687Y739805D01*
X799140Y745727D01*
X803673Y750260D01*
X809595Y752713D01*
X816005Y752713D01*
X822183Y750154D01*
X822208Y750146D01*
X822232Y750134D01*
X822400Y750088D01*
X822568Y750037D01*
X822595Y750035D01*
X822621Y750028D01*
X822795Y750016D01*
X822969Y749999D01*
X822995Y750002D01*
X823022Y750000D01*
X823197Y750023D01*
X823369Y750041D01*
X823395Y750049D01*
X823421Y750052D01*
X823737Y750154D01*
X829915Y752713D01*
X835168Y752713D01*
X835182Y752714D01*
X835195Y752713D01*
X835381Y752734D01*
X835569Y752753D01*
X835582Y752757D01*
X835595Y752758D01*
X835773Y752815D01*
X835954Y752871D01*
X835966Y752877D01*
X835978Y752881D01*
X836142Y752973D01*
X836308Y753063D01*
X836318Y753071D01*
X836330Y753078D01*
X836473Y753200D01*
X836617Y753320D01*
X836625Y753331D01*
X836636Y753339D01*
X836752Y753488D01*
X836869Y753634D01*
X836876Y753646D01*
X836884Y753656D01*
X836969Y753826D01*
X837055Y753991D01*
X837059Y754004D01*
X837065Y754016D01*
X837114Y754198D01*
X837166Y754378D01*
X837167Y754392D01*
X837171Y754405D01*
X837184Y754592D01*
X837199Y754780D01*
X837198Y754793D01*
X837199Y754806D01*
X837174Y754994D01*
X837152Y755179D01*
X837148Y755192D01*
X837146Y755205D01*
X837045Y755521D01*
X836954Y755740D01*
X836945Y755816D01*
X836927Y755989D01*
X836920Y756015D01*
X836916Y756041D01*
X836861Y756207D01*
X836809Y756374D01*
X836796Y756398D01*
X836788Y756423D01*
X836701Y756575D01*
X836617Y756728D01*
X836600Y756749D01*
X836587Y756772D01*
X836372Y757025D01*
X818525Y774872D01*
X818504Y774889D01*
X818487Y774910D01*
X818349Y775017D01*
X818214Y775127D01*
X818190Y775140D01*
X818169Y775156D01*
X818012Y775234D01*
X817858Y775316D01*
X817832Y775324D01*
X817808Y775336D01*
X817639Y775381D01*
X817472Y775431D01*
X817445Y775433D01*
X817419Y775440D01*
X817089Y775467D01*
X798013Y775467D01*
X797868Y775453D01*
X797722Y775446D01*
X797668Y775433D01*
X797613Y775427D01*
X797473Y775384D01*
X797331Y775349D01*
X797281Y775326D01*
X797228Y775309D01*
X797099Y775240D01*
X796967Y775177D01*
X796923Y775144D01*
X796874Y775117D01*
X796762Y775024D01*
X796644Y774937D01*
X796607Y774895D01*
X796565Y774860D01*
X796473Y774746D01*
X796375Y774637D01*
X796347Y774589D01*
X796312Y774546D01*
X796245Y774416D01*
X796170Y774290D01*
X796152Y774238D01*
X796127Y774189D01*
X796086Y774048D01*
X796038Y773910D01*
X796031Y773855D01*
X796015Y773802D01*
X796003Y773656D01*
X795984Y773511D01*
X795987Y773456D01*
X795982Y773400D01*
X795999Y773255D01*
X796009Y773109D01*
X796023Y773056D01*
X796029Y773001D01*
X796075Y772862D01*
X796112Y772720D01*
X796139Y772663D01*
X796154Y772618D01*
X796195Y772545D01*
X796254Y772420D01*
X796950Y771216D01*
X798577Y765143D01*
X798577Y758857D01*
X796950Y752784D01*
X793806Y747339D01*
X789361Y742894D01*
X783916Y739750D01*
X777870Y738130D01*
X777729Y738077D01*
X777585Y738031D01*
X777541Y738006D01*
X777493Y737988D01*
X777366Y737908D01*
X777234Y737835D01*
X777195Y737801D01*
X777152Y737774D01*
X777042Y737671D01*
X776928Y737573D01*
X776897Y737533D01*
X776860Y737498D01*
X776773Y737374D01*
X776680Y737256D01*
X776657Y737210D01*
X776628Y737168D01*
X776567Y737031D01*
X776499Y736896D01*
X776486Y736847D01*
X776465Y736800D01*
X776433Y736653D01*
X776393Y736508D01*
X776389Y736457D01*
X776378Y736407D01*
X776376Y736256D01*
X776365Y736106D01*
X776372Y736055D01*
X776371Y736004D01*
X776398Y735857D01*
X776417Y735707D01*
X776435Y735652D01*
X776443Y735608D01*
X776474Y735529D01*
X776519Y735391D01*
X777986Y731850D01*
X777986Y723570D01*
X774817Y715921D01*
X768963Y710067D01*
X761314Y706898D01*
X753034Y706898D01*
X745385Y710067D01*
X739531Y715921D01*
X739423Y716182D01*
X739416Y716194D01*
X739412Y716207D01*
X739321Y716371D01*
X739232Y716537D01*
X739224Y716547D01*
X739217Y716559D01*
X739096Y716702D01*
X738976Y716847D01*
X738966Y716856D01*
X738957Y716866D01*
X738809Y716983D01*
X738663Y717101D01*
X738651Y717107D01*
X738641Y717116D01*
X738474Y717201D01*
X738307Y717288D01*
X738294Y717292D01*
X738282Y717298D01*
X738100Y717349D01*
X737920Y717401D01*
X737907Y717402D01*
X737894Y717406D01*
X737705Y717420D01*
X737519Y717436D01*
X737506Y717434D01*
X737493Y717435D01*
X737305Y717412D01*
X737119Y717391D01*
X737106Y717387D01*
X737093Y717385D01*
X736915Y717325D01*
X736736Y717268D01*
X736724Y717261D01*
X736711Y717257D01*
X736549Y717163D01*
X736384Y717071D01*
X736374Y717063D01*
X736363Y717056D01*
X736110Y716841D01*
X726964Y707695D01*
X714036Y707695D01*
X704895Y716836D01*
X704895Y729764D01*
X714263Y739132D01*
X714275Y739145D01*
X714288Y739157D01*
X714402Y739301D01*
X714518Y739443D01*
X714527Y739459D01*
X714538Y739473D01*
X714621Y739637D01*
X714707Y739799D01*
X714712Y739816D01*
X714720Y739832D01*
X714769Y740009D01*
X714822Y740185D01*
X714823Y740202D01*
X714828Y740220D01*
X714841Y740403D01*
X714858Y740586D01*
X714856Y740603D01*
X714857Y740621D01*
X714834Y740803D01*
X714815Y740986D01*
X714809Y741003D01*
X714807Y741021D01*
X714749Y741194D01*
X714693Y741370D01*
X714684Y741385D01*
X714679Y741402D01*
X714587Y741562D01*
X714498Y741722D01*
X714487Y741736D01*
X714478Y741751D01*
X714263Y742004D01*
X711355Y744912D01*
X711355Y746669D01*
X720500Y746669D01*
X729645Y746669D01*
X729645Y744912D01*
X726737Y742004D01*
X726725Y741990D01*
X726712Y741979D01*
X726598Y741835D01*
X726482Y741693D01*
X726473Y741677D01*
X726462Y741663D01*
X726379Y741498D01*
X726293Y741337D01*
X726288Y741320D01*
X726280Y741304D01*
X726230Y741126D01*
X726178Y740951D01*
X726177Y740933D01*
X726172Y740916D01*
X726159Y740733D01*
X726142Y740550D01*
X726144Y740532D01*
X726143Y740515D01*
X726166Y740333D01*
X726185Y740150D01*
X726191Y740133D01*
X726193Y740115D01*
X726251Y739942D01*
X726307Y739766D01*
X726316Y739750D01*
X726321Y739733D01*
X726413Y739574D01*
X726502Y739414D01*
X726513Y739400D01*
X726522Y739385D01*
X726737Y739132D01*
X733526Y732342D01*
X733537Y732334D01*
X733545Y732323D01*
X733692Y732206D01*
X733838Y732087D01*
X733850Y732081D01*
X733860Y732072D01*
X734027Y731986D01*
X734193Y731898D01*
X734206Y731895D01*
X734218Y731888D01*
X734399Y731837D01*
X734579Y731784D01*
X734593Y731782D01*
X734606Y731779D01*
X734791Y731764D01*
X734980Y731747D01*
X734994Y731749D01*
X735007Y731748D01*
X735192Y731770D01*
X735381Y731791D01*
X735394Y731795D01*
X735407Y731796D01*
X735583Y731855D01*
X735764Y731912D01*
X735776Y731919D01*
X735789Y731923D01*
X735952Y732016D01*
X736117Y732107D01*
X736127Y732116D01*
X736139Y732122D01*
X736281Y732246D01*
X736424Y732367D01*
X736432Y732378D01*
X736442Y732387D01*
X736557Y732536D01*
X736673Y732683D01*
X736679Y732695D01*
X736688Y732706D01*
X736839Y733001D01*
X739531Y739499D01*
X745385Y745353D01*
X752409Y748263D01*
X752542Y748334D01*
X752678Y748398D01*
X752719Y748429D01*
X752764Y748453D01*
X752880Y748549D01*
X753001Y748639D01*
X753035Y748677D01*
X753074Y748709D01*
X753169Y748826D01*
X753270Y748938D01*
X753296Y748982D01*
X753328Y749022D01*
X753398Y749155D01*
X753475Y749285D01*
X753491Y749333D01*
X753515Y749379D01*
X753557Y749523D01*
X753607Y749665D01*
X753614Y749716D01*
X753628Y749765D01*
X753641Y749915D01*
X753662Y750064D01*
X753658Y750115D01*
X753663Y750166D01*
X753646Y750316D01*
X753637Y750466D01*
X753623Y750515D01*
X753618Y750566D01*
X753572Y750709D01*
X753533Y750855D01*
X753508Y750907D01*
X753495Y750949D01*
X753453Y751024D01*
X753391Y751155D01*
X752450Y752784D01*
X750823Y758857D01*
X750823Y765143D01*
X752450Y771216D01*
X753146Y772420D01*
X753206Y772554D01*
X753273Y772683D01*
X753289Y772737D01*
X753312Y772787D01*
X753344Y772930D01*
X753385Y773070D01*
X753389Y773126D01*
X753402Y773180D01*
X753406Y773326D01*
X753418Y773472D01*
X753411Y773527D01*
X753413Y773582D01*
X753388Y773726D01*
X753371Y773871D01*
X753353Y773924D01*
X753344Y773979D01*
X753291Y774115D01*
X753246Y774254D01*
X753219Y774303D01*
X753198Y774354D01*
X753120Y774477D01*
X753048Y774605D01*
X753012Y774647D01*
X752982Y774694D01*
X752880Y774799D01*
X752785Y774910D01*
X752741Y774944D01*
X752702Y774984D01*
X752582Y775067D01*
X752467Y775156D01*
X752417Y775181D01*
X752371Y775213D01*
X752237Y775271D01*
X752106Y775336D01*
X752053Y775350D01*
X752002Y775372D01*
X751859Y775402D01*
X751717Y775440D01*
X751654Y775445D01*
X751608Y775455D01*
X751524Y775456D01*
X751387Y775467D01*
X624564Y775467D01*
X624546Y775465D01*
X624528Y775467D01*
X624346Y775446D01*
X624163Y775427D01*
X624146Y775422D01*
X624129Y775420D01*
X623954Y775363D01*
X623778Y775309D01*
X623763Y775301D01*
X623746Y775295D01*
X623586Y775205D01*
X623424Y775117D01*
X623411Y775106D01*
X623395Y775097D01*
X623256Y774977D01*
X623115Y774860D01*
X623104Y774846D01*
X623090Y774834D01*
X622978Y774689D01*
X622863Y774546D01*
X622855Y774530D01*
X622844Y774516D01*
X622762Y774351D01*
X622677Y774189D01*
X622672Y774172D01*
X622664Y774156D01*
X622617Y773977D01*
X622566Y773802D01*
X622564Y773784D01*
X622560Y773767D01*
X622533Y773436D01*
X622533Y657154D01*
X622535Y657127D01*
X622533Y657101D01*
X622555Y656927D01*
X622573Y656753D01*
X622581Y656728D01*
X622584Y656701D01*
X622639Y656536D01*
X622691Y656368D01*
X622704Y656345D01*
X622712Y656319D01*
X622799Y656168D01*
X622883Y656014D01*
X622900Y655994D01*
X622913Y655971D01*
X623128Y655718D01*
X623396Y655449D01*
X625533Y650291D01*
X625533Y644709D01*
X623396Y639551D01*
X619449Y635604D01*
X614291Y633467D01*
X608709Y633467D01*
X603551Y635604D01*
X599604Y639551D01*
X597467Y644709D01*
X597467Y650291D01*
X599604Y655449D01*
X599872Y655718D01*
X599889Y655738D01*
X599910Y655756D01*
X600017Y655894D01*
X600127Y656029D01*
X600140Y656053D01*
X600156Y656074D01*
X600234Y656230D01*
X600316Y656385D01*
X600324Y656410D01*
X600336Y656434D01*
X600381Y656603D01*
X600431Y656771D01*
X600433Y656797D01*
X600440Y656823D01*
X600467Y657154D01*
X600467Y788695D01*
X602147Y792750D01*
X605250Y795853D01*
X608013Y796997D01*
X608013Y796998D01*
X609305Y797533D01*
X757971Y797533D01*
X758002Y797536D01*
X758033Y797534D01*
X758202Y797556D01*
X758371Y797573D01*
X758401Y797582D01*
X758432Y797586D01*
X758748Y797687D01*
X761774Y798941D01*
X787626Y798941D01*
X790652Y797687D01*
X790682Y797678D01*
X790710Y797664D01*
X790874Y797620D01*
X791037Y797571D01*
X791068Y797568D01*
X791099Y797560D01*
X791429Y797533D01*
X824695Y797533D01*
X828750Y795853D01*
X851475Y773128D01*
X851496Y773111D01*
X851513Y773090D01*
X851651Y772983D01*
X851786Y772873D01*
X851810Y772860D01*
X851831Y772844D01*
X851988Y772766D01*
X852142Y772684D01*
X852168Y772676D01*
X852192Y772664D01*
X852361Y772619D01*
X852528Y772569D01*
X852555Y772567D01*
X852581Y772560D01*
X852911Y772533D01*
X853791Y772533D01*
X858949Y770396D01*
X862896Y766449D01*
X865033Y761291D01*
X865033Y755709D01*
X864268Y753862D01*
X864265Y753853D01*
X864261Y753845D01*
X864207Y753660D01*
X864151Y753476D01*
X864150Y753467D01*
X864148Y753459D01*
X864131Y753268D01*
X864113Y753075D01*
X864114Y753067D01*
X864113Y753058D01*
X864135Y752866D01*
X864155Y752675D01*
X864157Y752667D01*
X864158Y752658D01*
X864218Y752473D01*
X864275Y752291D01*
X864279Y752283D01*
X864282Y752274D01*
X864376Y752105D01*
X864468Y751937D01*
X864474Y751931D01*
X864478Y751923D01*
X864603Y751777D01*
X864727Y751629D01*
X864734Y751624D01*
X864740Y751617D01*
X864892Y751498D01*
X865042Y751378D01*
X865050Y751374D01*
X865057Y751369D01*
X865230Y751282D01*
X865400Y751194D01*
X865408Y751192D01*
X865417Y751188D01*
X865604Y751137D01*
X865787Y751085D01*
X865796Y751084D01*
X865805Y751082D01*
X865999Y751068D01*
X866189Y751054D01*
X866197Y751055D01*
X866207Y751054D01*
X866401Y751079D01*
X866588Y751102D01*
X866597Y751105D01*
X866606Y751106D01*
X866922Y751208D01*
X870555Y752713D01*
X876822Y752713D01*
X876904Y752721D01*
X876986Y752719D01*
X877104Y752741D01*
X877223Y752753D01*
X877302Y752777D01*
X877382Y752791D01*
X877493Y752836D01*
X877608Y752871D01*
X877680Y752910D01*
X877756Y752940D01*
X877857Y753006D01*
X877962Y753063D01*
X878025Y753115D01*
X878094Y753160D01*
X878179Y753244D01*
X878271Y753320D01*
X878323Y753384D01*
X878381Y753442D01*
X878449Y753541D01*
X878524Y753634D01*
X878561Y753707D01*
X878608Y753775D01*
X878654Y753885D01*
X878709Y753991D01*
X878732Y754070D01*
X878764Y754146D01*
X878787Y754263D01*
X878820Y754378D01*
X878827Y754460D01*
X878843Y754541D01*
X878844Y754660D01*
X878853Y754780D01*
X878844Y754861D01*
X878844Y754943D01*
X878816Y755093D01*
X878806Y755179D01*
X878794Y755218D01*
X878784Y755270D01*
X877823Y758857D01*
X877823Y765143D01*
X879450Y771216D01*
X882594Y776661D01*
X887039Y781106D01*
X892484Y784250D01*
X898557Y785877D01*
X904843Y785877D01*
X910916Y784250D01*
X916361Y781106D01*
X920806Y776661D01*
X923950Y771216D01*
X925577Y765143D01*
X925577Y758857D01*
X923950Y752784D01*
X923009Y751155D01*
X922947Y751018D01*
X922878Y750884D01*
X922864Y750835D01*
X922843Y750788D01*
X922810Y750641D01*
X922769Y750496D01*
X922765Y750445D01*
X922753Y750396D01*
X922749Y750245D01*
X922737Y750095D01*
X922744Y750044D01*
X922742Y749993D01*
X922768Y749844D01*
X922786Y749695D01*
X922802Y749647D01*
X922811Y749597D01*
X922865Y749456D01*
X922913Y749313D01*
X922938Y749269D01*
X922956Y749221D01*
X923037Y749094D01*
X923112Y748963D01*
X923146Y748925D01*
X923173Y748882D01*
X923278Y748773D01*
X923377Y748660D01*
X923417Y748629D01*
X923452Y748592D01*
X923576Y748506D01*
X923696Y748414D01*
X923747Y748388D01*
X923784Y748363D01*
X923862Y748329D01*
X923991Y748263D01*
X931015Y745353D01*
X936869Y739499D01*
X938471Y735631D01*
X938473Y735627D01*
X938475Y735623D01*
X938568Y735450D01*
X938662Y735276D01*
X938664Y735273D01*
X938667Y735269D01*
X938791Y735120D01*
X938918Y734966D01*
X938921Y734963D01*
X938924Y734960D01*
X939077Y734837D01*
X939231Y734712D01*
X939235Y734710D01*
X939238Y734707D01*
X939413Y734617D01*
X939587Y734525D01*
X939591Y734524D01*
X939595Y734522D01*
X939785Y734467D01*
X939974Y734412D01*
X939978Y734412D01*
X939982Y734410D01*
X940180Y734394D01*
X940375Y734377D01*
X940379Y734378D01*
X940384Y734378D01*
X940581Y734401D01*
X940775Y734423D01*
X940779Y734424D01*
X940783Y734424D01*
X940972Y734486D01*
X941158Y734546D01*
X941162Y734548D01*
X941166Y734549D01*
X941339Y734647D01*
X941510Y734742D01*
X941513Y734745D01*
X941517Y734747D01*
X941666Y734876D01*
X941815Y735004D01*
X941818Y735007D01*
X941822Y735010D01*
X941940Y735163D01*
X942064Y735321D01*
X942066Y735325D01*
X942068Y735328D01*
X942155Y735504D01*
X942244Y735681D01*
X942246Y735685D01*
X942248Y735689D01*
X942298Y735875D01*
X942351Y736069D01*
X942351Y736073D01*
X942352Y736078D01*
X942379Y736408D01*
X942379Y810348D01*
X942377Y810366D01*
X942379Y810384D01*
X942358Y810566D01*
X942339Y810749D01*
X942334Y810766D01*
X942332Y810783D01*
X942275Y810958D01*
X942221Y811134D01*
X942213Y811149D01*
X942207Y811166D01*
X942117Y811326D01*
X942029Y811488D01*
X942018Y811501D01*
X942009Y811517D01*
X941889Y811656D01*
X941772Y811797D01*
X941758Y811808D01*
X941746Y811822D01*
X941601Y811934D01*
X941458Y812049D01*
X941442Y812057D01*
X941428Y812068D01*
X941263Y812150D01*
X941101Y812235D01*
X941084Y812240D01*
X941068Y812248D01*
X940889Y812295D01*
X940714Y812346D01*
X940696Y812348D01*
X940679Y812352D01*
X940348Y812379D01*
X589652Y812379D01*
X589634Y812377D01*
X589616Y812379D01*
X589434Y812358D01*
X589251Y812339D01*
X589234Y812334D01*
X589217Y812332D01*
X589042Y812275D01*
X588866Y812221D01*
X588851Y812213D01*
X588834Y812207D01*
X588674Y812117D01*
X588512Y812029D01*
X588499Y812018D01*
X588483Y812009D01*
X588344Y811889D01*
X588203Y811772D01*
X588192Y811758D01*
X588178Y811746D01*
X588066Y811601D01*
X587951Y811458D01*
X587943Y811442D01*
X587932Y811428D01*
X587850Y811263D01*
X587765Y811101D01*
X587760Y811084D01*
X587752Y811068D01*
X587705Y810889D01*
X587654Y810714D01*
X587652Y810696D01*
X587648Y810679D01*
X587621Y810348D01*
X587621Y589652D01*
X587623Y589634D01*
X587621Y589616D01*
X587642Y589434D01*
X587661Y589251D01*
X587666Y589234D01*
X587668Y589217D01*
X587725Y589042D01*
X587779Y588866D01*
X587787Y588851D01*
X587793Y588834D01*
X587883Y588674D01*
X587971Y588512D01*
X587982Y588499D01*
X587991Y588483D01*
X588111Y588344D01*
X588228Y588203D01*
X588242Y588192D01*
X588254Y588178D01*
X588399Y588066D01*
X588542Y587951D01*
X588558Y587943D01*
X588572Y587932D01*
X588737Y587850D01*
X588899Y587765D01*
X588916Y587760D01*
X588932Y587752D01*
X589111Y587705D01*
X589286Y587654D01*
X589304Y587652D01*
X589321Y587648D01*
X589652Y587621D01*
X940348Y587621D01*
X940366Y587623D01*
G37*
%LPC*%
G36*
X864900Y612131D02*
X864900Y612131D01*
X855755Y612131D01*
X855755Y613888D01*
X858663Y616796D01*
X858675Y616810D01*
X858688Y616821D01*
X858802Y616965D01*
X858918Y617107D01*
X858927Y617123D01*
X858938Y617137D01*
X859021Y617302D01*
X859107Y617463D01*
X859112Y617480D01*
X859120Y617496D01*
X859170Y617674D01*
X859222Y617849D01*
X859223Y617867D01*
X859228Y617884D01*
X859241Y618067D01*
X859258Y618250D01*
X859256Y618268D01*
X859257Y618285D01*
X859234Y618467D01*
X859215Y618650D01*
X859209Y618667D01*
X859207Y618685D01*
X859149Y618858D01*
X859093Y619034D01*
X859084Y619050D01*
X859079Y619067D01*
X858987Y619226D01*
X858898Y619386D01*
X858887Y619400D01*
X858878Y619415D01*
X858663Y619668D01*
X849209Y629123D01*
X849198Y629131D01*
X849190Y629142D01*
X849043Y629259D01*
X848897Y629378D01*
X848885Y629384D01*
X848875Y629393D01*
X848707Y629479D01*
X848542Y629567D01*
X848529Y629570D01*
X848517Y629577D01*
X848336Y629628D01*
X848156Y629681D01*
X848142Y629683D01*
X848129Y629686D01*
X847944Y629701D01*
X847755Y629718D01*
X847741Y629716D01*
X847728Y629717D01*
X847543Y629695D01*
X847354Y629674D01*
X847341Y629670D01*
X847328Y629669D01*
X847151Y629610D01*
X846971Y629553D01*
X846959Y629546D01*
X846946Y629542D01*
X846782Y629449D01*
X846618Y629358D01*
X846608Y629349D01*
X846596Y629343D01*
X846454Y629219D01*
X846311Y629098D01*
X846303Y629087D01*
X846293Y629078D01*
X846178Y628929D01*
X846062Y628782D01*
X846056Y628770D01*
X846047Y628759D01*
X845896Y628464D01*
X844896Y626051D01*
X840949Y622104D01*
X835791Y619967D01*
X830209Y619967D01*
X825051Y622104D01*
X821104Y626051D01*
X818967Y631209D01*
X818967Y631589D01*
X818965Y631615D01*
X818967Y631642D01*
X818945Y631816D01*
X818927Y631989D01*
X818920Y632015D01*
X818916Y632041D01*
X818861Y632207D01*
X818809Y632374D01*
X818796Y632398D01*
X818788Y632423D01*
X818701Y632575D01*
X818617Y632728D01*
X818600Y632749D01*
X818587Y632772D01*
X818372Y633025D01*
X789525Y661872D01*
X789504Y661889D01*
X789487Y661910D01*
X789349Y662017D01*
X789214Y662127D01*
X789190Y662140D01*
X789169Y662156D01*
X789012Y662234D01*
X788858Y662316D01*
X788832Y662324D01*
X788808Y662336D01*
X788639Y662381D01*
X788472Y662431D01*
X788445Y662433D01*
X788419Y662440D01*
X788089Y662467D01*
X751154Y662467D01*
X751127Y662465D01*
X751101Y662467D01*
X750927Y662445D01*
X750753Y662427D01*
X750728Y662420D01*
X750701Y662416D01*
X750536Y662361D01*
X750368Y662309D01*
X750345Y662296D01*
X750319Y662288D01*
X750168Y662201D01*
X750014Y662117D01*
X749994Y662100D01*
X749971Y662087D01*
X749718Y661872D01*
X749449Y661604D01*
X746996Y660588D01*
X744291Y659467D01*
X738709Y659467D01*
X733551Y661604D01*
X729604Y665551D01*
X727467Y670709D01*
X727467Y676291D01*
X729604Y681449D01*
X733551Y685396D01*
X738171Y687310D01*
X738709Y687533D01*
X744291Y687533D01*
X749449Y685396D01*
X749718Y685128D01*
X749738Y685111D01*
X749756Y685090D01*
X749894Y684983D01*
X750029Y684873D01*
X750053Y684860D01*
X750074Y684844D01*
X750231Y684766D01*
X750385Y684684D01*
X750410Y684676D01*
X750434Y684664D01*
X750604Y684619D01*
X750771Y684569D01*
X750797Y684567D01*
X750823Y684560D01*
X751154Y684533D01*
X795695Y684533D01*
X799750Y682853D01*
X833975Y648628D01*
X833996Y648611D01*
X834013Y648590D01*
X834151Y648483D01*
X834286Y648373D01*
X834310Y648360D01*
X834331Y648344D01*
X834488Y648266D01*
X834642Y648184D01*
X834668Y648176D01*
X834692Y648164D01*
X834861Y648119D01*
X835028Y648069D01*
X835055Y648067D01*
X835081Y648060D01*
X835411Y648033D01*
X835791Y648033D01*
X840949Y645896D01*
X844896Y641949D01*
X845387Y640763D01*
X845389Y640760D01*
X845391Y640755D01*
X845484Y640582D01*
X845578Y640409D01*
X845580Y640405D01*
X845583Y640401D01*
X845708Y640251D01*
X845834Y640098D01*
X845837Y640095D01*
X845840Y640092D01*
X845991Y639971D01*
X846147Y639844D01*
X846151Y639842D01*
X846154Y639840D01*
X846326Y639750D01*
X846503Y639657D01*
X846507Y639656D01*
X846511Y639654D01*
X846699Y639600D01*
X846890Y639544D01*
X846894Y639544D01*
X846898Y639543D01*
X847096Y639527D01*
X847291Y639510D01*
X847295Y639510D01*
X847300Y639510D01*
X847495Y639533D01*
X847691Y639555D01*
X847695Y639556D01*
X847699Y639557D01*
X847886Y639618D01*
X848074Y639678D01*
X848078Y639680D01*
X848082Y639682D01*
X848254Y639778D01*
X848426Y639874D01*
X848429Y639877D01*
X848433Y639879D01*
X848581Y640008D01*
X848731Y640136D01*
X848734Y640140D01*
X848738Y640143D01*
X848858Y640297D01*
X848980Y640453D01*
X848982Y640457D01*
X848984Y640461D01*
X849072Y640637D01*
X849160Y640813D01*
X849162Y640817D01*
X849164Y640821D01*
X849215Y641012D01*
X849267Y641201D01*
X849267Y641206D01*
X849268Y641210D01*
X849295Y641541D01*
X849295Y641964D01*
X858436Y651105D01*
X871364Y651105D01*
X879414Y643055D01*
X879428Y643043D01*
X879439Y643030D01*
X879444Y643026D01*
X879447Y643022D01*
X879528Y642959D01*
X879583Y642916D01*
X879725Y642800D01*
X879741Y642791D01*
X879755Y642780D01*
X879919Y642697D01*
X880081Y642611D01*
X880098Y642606D01*
X880114Y642598D01*
X880291Y642548D01*
X880467Y642496D01*
X880485Y642495D01*
X880502Y642490D01*
X880685Y642476D01*
X880868Y642460D01*
X880886Y642462D01*
X880903Y642460D01*
X881085Y642483D01*
X881268Y642503D01*
X881285Y642509D01*
X881303Y642511D01*
X881477Y642569D01*
X881652Y642625D01*
X881668Y642633D01*
X881684Y642639D01*
X881844Y642731D01*
X882004Y642820D01*
X882018Y642831D01*
X882033Y642840D01*
X882286Y643055D01*
X890836Y651605D01*
X903764Y651605D01*
X912905Y642464D01*
X912905Y629536D01*
X903537Y620168D01*
X903525Y620155D01*
X903512Y620143D01*
X903398Y619999D01*
X903282Y619857D01*
X903273Y619841D01*
X903262Y619827D01*
X903179Y619663D01*
X903093Y619501D01*
X903088Y619484D01*
X903080Y619468D01*
X903031Y619291D01*
X902978Y619115D01*
X902977Y619098D01*
X902972Y619080D01*
X902959Y618897D01*
X902942Y618714D01*
X902944Y618697D01*
X902943Y618679D01*
X902966Y618497D01*
X902985Y618314D01*
X902991Y618297D01*
X902993Y618279D01*
X903051Y618106D01*
X903107Y617930D01*
X903116Y617915D01*
X903121Y617898D01*
X903213Y617738D01*
X903302Y617578D01*
X903313Y617564D01*
X903322Y617549D01*
X903537Y617296D01*
X906445Y614388D01*
X906445Y612631D01*
X897300Y612631D01*
X888155Y612631D01*
X888155Y614388D01*
X891063Y617296D01*
X891075Y617310D01*
X891088Y617321D01*
X891202Y617465D01*
X891318Y617607D01*
X891327Y617623D01*
X891338Y617637D01*
X891421Y617802D01*
X891507Y617963D01*
X891512Y617980D01*
X891520Y617996D01*
X891570Y618174D01*
X891622Y618349D01*
X891623Y618367D01*
X891628Y618384D01*
X891641Y618567D01*
X891658Y618750D01*
X891656Y618768D01*
X891657Y618785D01*
X891634Y618967D01*
X891615Y619150D01*
X891609Y619167D01*
X891607Y619185D01*
X891549Y619358D01*
X891493Y619534D01*
X891484Y619550D01*
X891479Y619567D01*
X891387Y619726D01*
X891298Y619886D01*
X891287Y619900D01*
X891278Y619915D01*
X891063Y620168D01*
X882786Y628445D01*
X882773Y628457D01*
X882761Y628470D01*
X882617Y628584D01*
X882475Y628700D01*
X882459Y628709D01*
X882445Y628720D01*
X882281Y628803D01*
X882119Y628889D01*
X882102Y628894D01*
X882086Y628902D01*
X881909Y628952D01*
X881733Y629004D01*
X881715Y629005D01*
X881698Y629010D01*
X881515Y629024D01*
X881332Y629040D01*
X881314Y629038D01*
X881297Y629040D01*
X881115Y629017D01*
X880932Y628997D01*
X880915Y628991D01*
X880897Y628989D01*
X880724Y628931D01*
X880548Y628875D01*
X880532Y628867D01*
X880516Y628861D01*
X880356Y628769D01*
X880196Y628680D01*
X880182Y628669D01*
X880167Y628660D01*
X879914Y628445D01*
X871137Y619668D01*
X871125Y619655D01*
X871112Y619643D01*
X870998Y619499D01*
X870882Y619357D01*
X870873Y619341D01*
X870862Y619327D01*
X870779Y619163D01*
X870693Y619001D01*
X870688Y618984D01*
X870680Y618968D01*
X870631Y618791D01*
X870578Y618615D01*
X870577Y618598D01*
X870572Y618580D01*
X870559Y618397D01*
X870542Y618214D01*
X870544Y618197D01*
X870543Y618179D01*
X870566Y617996D01*
X870585Y617814D01*
X870591Y617797D01*
X870593Y617779D01*
X870651Y617606D01*
X870707Y617430D01*
X870716Y617415D01*
X870721Y617398D01*
X870813Y617238D01*
X870902Y617078D01*
X870913Y617064D01*
X870922Y617049D01*
X871137Y616796D01*
X874045Y613888D01*
X874045Y612131D01*
X864900Y612131D01*
X864900Y612131D01*
G37*
%LPD*%
%LPC*%
G36*
X667236Y699895D02*
X667236Y699895D01*
X657868Y709263D01*
X657855Y709275D01*
X657843Y709288D01*
X657699Y709402D01*
X657557Y709518D01*
X657541Y709527D01*
X657527Y709538D01*
X657363Y709621D01*
X657201Y709707D01*
X657184Y709712D01*
X657168Y709720D01*
X656991Y709769D01*
X656815Y709822D01*
X656798Y709823D01*
X656780Y709828D01*
X656597Y709841D01*
X656414Y709858D01*
X656397Y709856D01*
X656379Y709857D01*
X656197Y709834D01*
X656014Y709815D01*
X655997Y709809D01*
X655979Y709807D01*
X655806Y709749D01*
X655630Y709693D01*
X655615Y709684D01*
X655598Y709679D01*
X655438Y709587D01*
X655278Y709498D01*
X655264Y709487D01*
X655249Y709478D01*
X654996Y709263D01*
X652088Y706355D01*
X650331Y706355D01*
X650331Y715500D01*
X650331Y724645D01*
X652088Y724645D01*
X654996Y721737D01*
X655010Y721725D01*
X655021Y721712D01*
X655165Y721598D01*
X655307Y721482D01*
X655323Y721473D01*
X655337Y721462D01*
X655502Y721379D01*
X655663Y721293D01*
X655680Y721288D01*
X655696Y721280D01*
X655874Y721230D01*
X656049Y721178D01*
X656067Y721177D01*
X656084Y721172D01*
X656267Y721159D01*
X656450Y721142D01*
X656468Y721144D01*
X656485Y721143D01*
X656667Y721166D01*
X656850Y721185D01*
X656867Y721191D01*
X656885Y721193D01*
X657059Y721251D01*
X657234Y721307D01*
X657250Y721316D01*
X657267Y721321D01*
X657426Y721413D01*
X657586Y721502D01*
X657600Y721513D01*
X657615Y721522D01*
X657868Y721737D01*
X667236Y731105D01*
X680164Y731105D01*
X689305Y721964D01*
X689305Y709036D01*
X680164Y699895D01*
X667236Y699895D01*
G37*
%LPD*%
%LPC*%
G36*
X722531Y750731D02*
X722531Y750731D01*
X722531Y757845D01*
X724288Y757845D01*
X729645Y752488D01*
X729645Y750731D01*
X722531Y750731D01*
G37*
%LPD*%
%LPC*%
G36*
X639155Y717531D02*
X639155Y717531D01*
X639155Y719288D01*
X644512Y724645D01*
X646269Y724645D01*
X646269Y717531D01*
X639155Y717531D01*
G37*
%LPD*%
%LPC*%
G36*
X711355Y750731D02*
X711355Y750731D01*
X711355Y752488D01*
X716712Y757845D01*
X718469Y757845D01*
X718469Y750731D01*
X711355Y750731D01*
G37*
%LPD*%
%LPC*%
G36*
X899331Y601455D02*
X899331Y601455D01*
X899331Y608569D01*
X906445Y608569D01*
X906445Y606812D01*
X901088Y601455D01*
X899331Y601455D01*
G37*
%LPD*%
%LPC*%
G36*
X866931Y600955D02*
X866931Y600955D01*
X866931Y608069D01*
X874045Y608069D01*
X874045Y606312D01*
X868688Y600955D01*
X866931Y600955D01*
G37*
%LPD*%
%LPC*%
G36*
X893512Y601455D02*
X893512Y601455D01*
X888155Y606812D01*
X888155Y608569D01*
X895269Y608569D01*
X895269Y601455D01*
X893512Y601455D01*
G37*
%LPD*%
%LPC*%
G36*
X861112Y600955D02*
X861112Y600955D01*
X855755Y606312D01*
X855755Y608069D01*
X862869Y608069D01*
X862869Y600955D01*
X861112Y600955D01*
G37*
%LPD*%
%LPC*%
G36*
X644512Y706355D02*
X644512Y706355D01*
X639155Y711712D01*
X639155Y713469D01*
X646269Y713469D01*
X646269Y706355D01*
X644512Y706355D01*
G37*
%LPD*%
%LPC*%
G36*
X800380Y709405D02*
X800380Y709405D01*
X798935Y709874D01*
X797581Y710564D01*
X796352Y711457D01*
X795277Y712532D01*
X794384Y713761D01*
X793694Y715115D01*
X793225Y716560D01*
X793219Y716598D01*
X800418Y716598D01*
X800418Y709399D01*
X800380Y709405D01*
G37*
%LPD*%
D10*
X897300Y636000D03*
X897300Y610600D03*
X864900Y635500D03*
X864900Y610100D03*
D11*
X873760Y736600D03*
X863600Y718820D03*
X853440Y736600D03*
X843280Y718820D03*
X833120Y736600D03*
X822960Y718820D03*
X812800Y736600D03*
X802640Y718820D03*
D12*
X757174Y727710D03*
X919226Y727710D03*
D13*
X673700Y715500D03*
X648300Y715500D03*
D14*
X720500Y723300D03*
X720500Y748700D03*
D15*
X833000Y634000D03*
D16*
X793500Y673500D01*
X741500Y673500D01*
D15*
X741500Y673500D03*
X611500Y647500D03*
D16*
X786840Y786500D02*
X822500Y786500D01*
X786840Y786500D02*
X785432Y787908D01*
X763969Y787908D01*
X762561Y786500D01*
X611500Y786500D01*
X611500Y647500D01*
X822500Y786500D02*
X850500Y758500D01*
X851000Y758500D01*
D15*
X851000Y758500D03*
X769000Y660500D03*
X753000Y624000D03*
X638000Y635500D03*
D17*
X782000Y731000D03*
D15*
X645500Y697000D03*
M02*
