G04 EAGLE Gerber X2 export*
%TF.Part,Single*%
%TF.FileFunction,Other,Solder stop mask CMP*%
%TF.FilePolarity,Positive*%
%TF.GenerationSoftware,Autodesk,EAGLE,8.6.3*%
%TF.CreationDate,2019-03-19T20:13:45Z*%
G75*
%MOMM*%
%FSLAX34Y34*%
%LPD*%
%AMOC8*
5,1,8,0,0,1.08239X$1,22.5*%
G01*
%ADD10P,1.649562X8X292.500000*%
%ADD11R,1.303200X1.653200*%
%ADD12R,1.703200X1.503200*%
%ADD13R,0.753200X0.503200*%
%ADD14R,2.260600X0.812800*%
%ADD15C,3.454400*%
%ADD16C,1.625600*%
%ADD17C,2.565400*%
%ADD18P,1.649562X8X202.500000*%
%ADD19P,1.649562X8X112.500000*%
%ADD20C,1.209600*%
%ADD21C,1.109600*%


D10*
X897300Y636000D03*
X897300Y610600D03*
X864900Y635500D03*
X864900Y610100D03*
D11*
X809000Y611300D03*
X791000Y611300D03*
D12*
X864000Y681000D03*
X864000Y662000D03*
X921500Y669500D03*
X921500Y688500D03*
D13*
X808250Y636500D03*
X808250Y643000D03*
X808250Y649500D03*
X790750Y636500D03*
X790750Y643000D03*
X790750Y649500D03*
D14*
X672394Y686300D03*
X672394Y673600D03*
X672394Y660900D03*
X672394Y648200D03*
X672394Y635500D03*
X672394Y622800D03*
X672394Y610100D03*
X720400Y610100D03*
X720400Y622800D03*
X720400Y635500D03*
X720400Y648200D03*
X720400Y660900D03*
X720400Y673600D03*
X720400Y686300D03*
D15*
X901700Y762000D03*
X774700Y762000D03*
D16*
X873760Y736600D03*
X863600Y718820D03*
X853440Y736600D03*
X843280Y718820D03*
X833120Y736600D03*
X822960Y718820D03*
X812800Y736600D03*
X802640Y718820D03*
D17*
X757174Y727710D03*
X919226Y727710D03*
D18*
X673700Y715500D03*
X648300Y715500D03*
D19*
X720500Y723300D03*
X720500Y748700D03*
D20*
X833000Y634000D03*
X741500Y673500D03*
X822500Y786500D03*
X611500Y647500D03*
X769000Y660500D03*
X753000Y624000D03*
X638000Y635500D03*
D21*
X782000Y731000D03*
M02*
