G04 EAGLE Gerber X2 export*
%TF.Part,Single*%
%TF.FileFunction,Other,Solder stop mask CMP*%
%TF.FilePolarity,Positive*%
%TF.GenerationSoftware,Autodesk,EAGLE,8.6.3*%
%TF.CreationDate,2019-02-27T21:18:10Z*%
G75*
%MOMM*%
%FSLAX34Y34*%
%LPD*%
%AMOC8*
5,1,8,0,0,1.08239X$1,22.5*%
G01*
%ADD10P,1.649562X8X292.500000*%
%ADD11R,1.303200X1.653200*%
%ADD12R,1.503200X1.703200*%
%ADD13R,1.703200X1.503200*%
%ADD14R,0.753200X0.503200*%
%ADD15R,2.260600X0.812800*%
%ADD16C,3.454400*%
%ADD17C,1.625600*%
%ADD18C,2.565400*%
%ADD19P,1.649562X8X112.500000*%
%ADD20P,1.649562X8X202.500000*%
%ADD21C,1.703200*%
%ADD22C,1.209600*%


D10*
X895300Y650000D03*
X895300Y624600D03*
X865400Y650000D03*
X865400Y624600D03*
D11*
X803000Y616700D03*
X821000Y616700D03*
D12*
X844000Y685500D03*
X863000Y685500D03*
D13*
X920500Y671000D03*
X920500Y690000D03*
D14*
X815750Y643000D03*
X815750Y649500D03*
X815750Y656000D03*
X798250Y643000D03*
X798250Y649500D03*
X798250Y656000D03*
D15*
X673894Y720300D03*
X673894Y707600D03*
X673894Y694900D03*
X673894Y682200D03*
X673894Y669500D03*
X673894Y656800D03*
X673894Y644100D03*
X721900Y644100D03*
X721900Y656800D03*
X721900Y669500D03*
X721900Y682200D03*
X721900Y694900D03*
X721900Y707600D03*
X721900Y720300D03*
D16*
X901700Y762000D03*
X774700Y762000D03*
D17*
X873760Y736600D03*
X863600Y718820D03*
X853440Y736600D03*
X843280Y718820D03*
X833120Y736600D03*
X822960Y718820D03*
X812800Y736600D03*
X802640Y718820D03*
D18*
X757174Y727710D03*
X919226Y727710D03*
D19*
X628000Y639300D03*
X628000Y664700D03*
D20*
X722200Y755500D03*
X696800Y755500D03*
D21*
X751500Y624000D03*
X749500Y700000D03*
X649000Y792000D03*
X762000Y645000D03*
X653500Y667500D03*
X655000Y644500D03*
D22*
X836500Y638000D03*
D21*
X782500Y691000D03*
X871500Y792500D03*
M02*
