G04 EAGLE Gerber X2 export*
%TF.Part,Single*%
%TF.FileFunction,Other,Solder side*%
%TF.FilePolarity,Positive*%
%TF.GenerationSoftware,Autodesk,EAGLE,8.6.3*%
%TF.CreationDate,2019-02-27T21:18:10Z*%
G75*
%MOMM*%
%FSLAX34Y34*%
%LPD*%
%AMOC8*
5,1,8,0,0,1.08239X$1,22.5*%
G01*
%ADD10P,1.429621X8X292.500000*%
%ADD11C,1.422400*%
%ADD12C,2.362200*%
%ADD13P,1.429621X8X112.500000*%
%ADD14P,1.429621X8X202.500000*%
%ADD15C,1.500000*%
%ADD16C,0.508000*%
%ADD17C,0.406400*%
%ADD18C,1.006400*%

G36*
X941638Y607624D02*
X941638Y607624D01*
X941657Y607622D01*
X941759Y607644D01*
X941861Y607660D01*
X941878Y607670D01*
X941898Y607674D01*
X941987Y607727D01*
X942078Y607776D01*
X942092Y607790D01*
X942109Y607800D01*
X942176Y607879D01*
X942248Y607954D01*
X942256Y607972D01*
X942269Y607987D01*
X942308Y608083D01*
X942351Y608177D01*
X942353Y608197D01*
X942361Y608215D01*
X942379Y608382D01*
X942379Y811618D01*
X942376Y811638D01*
X942378Y811657D01*
X942356Y811759D01*
X942340Y811861D01*
X942330Y811878D01*
X942326Y811898D01*
X942273Y811987D01*
X942224Y812078D01*
X942210Y812092D01*
X942200Y812109D01*
X942121Y812176D01*
X942046Y812248D01*
X942028Y812256D01*
X942013Y812269D01*
X941917Y812308D01*
X941823Y812351D01*
X941803Y812353D01*
X941785Y812361D01*
X941618Y812379D01*
X608382Y812379D01*
X608362Y812376D01*
X608343Y812378D01*
X608241Y812356D01*
X608139Y812340D01*
X608122Y812330D01*
X608102Y812326D01*
X608013Y812273D01*
X607922Y812224D01*
X607908Y812210D01*
X607891Y812200D01*
X607824Y812121D01*
X607752Y812046D01*
X607744Y812028D01*
X607731Y812013D01*
X607692Y811917D01*
X607649Y811823D01*
X607647Y811803D01*
X607639Y811785D01*
X607621Y811618D01*
X607621Y608382D01*
X607624Y608362D01*
X607622Y608343D01*
X607644Y608241D01*
X607660Y608139D01*
X607670Y608122D01*
X607674Y608102D01*
X607727Y608013D01*
X607776Y607922D01*
X607790Y607908D01*
X607800Y607891D01*
X607879Y607824D01*
X607954Y607752D01*
X607972Y607744D01*
X607987Y607731D01*
X608083Y607692D01*
X608177Y607649D01*
X608197Y607647D01*
X608215Y607639D01*
X608382Y607621D01*
X941618Y607621D01*
X941638Y607624D01*
G37*
%LPC*%
G36*
X749604Y614467D02*
X749604Y614467D01*
X746100Y615919D01*
X743419Y618600D01*
X742985Y619648D01*
X742950Y619704D01*
X742924Y619764D01*
X742872Y619829D01*
X742855Y619857D01*
X742840Y619869D01*
X742819Y619895D01*
X741836Y620879D01*
X740459Y624202D01*
X740459Y696765D01*
X740449Y696829D01*
X740448Y696895D01*
X740425Y696975D01*
X740420Y697007D01*
X740410Y697025D01*
X740401Y697056D01*
X739967Y698104D01*
X739967Y701896D01*
X741419Y705400D01*
X744100Y708081D01*
X747604Y709533D01*
X751396Y709533D01*
X754900Y708081D01*
X757581Y705400D01*
X759033Y701896D01*
X759033Y698104D01*
X758599Y697056D01*
X758584Y696992D01*
X758559Y696931D01*
X758550Y696848D01*
X758543Y696816D01*
X758544Y696797D01*
X758541Y696765D01*
X758541Y655025D01*
X758548Y654979D01*
X758546Y654933D01*
X758568Y654858D01*
X758580Y654782D01*
X758602Y654741D01*
X758615Y654697D01*
X758659Y654633D01*
X758696Y654564D01*
X758729Y654533D01*
X758755Y654495D01*
X758818Y654449D01*
X758874Y654395D01*
X758916Y654376D01*
X758952Y654348D01*
X759026Y654324D01*
X759097Y654291D01*
X759143Y654286D01*
X759186Y654272D01*
X759264Y654273D01*
X759341Y654264D01*
X759386Y654274D01*
X759432Y654275D01*
X759563Y654313D01*
X759582Y654317D01*
X759586Y654319D01*
X759593Y654321D01*
X760104Y654533D01*
X763896Y654533D01*
X764944Y654099D01*
X765008Y654084D01*
X765069Y654059D01*
X765152Y654050D01*
X765184Y654043D01*
X765203Y654044D01*
X765235Y654041D01*
X769440Y654041D01*
X769530Y654055D01*
X769621Y654063D01*
X769651Y654075D01*
X769683Y654080D01*
X769763Y654123D01*
X769847Y654159D01*
X769879Y654185D01*
X769900Y654196D01*
X769915Y654211D01*
X769916Y654212D01*
X769926Y654222D01*
X769978Y654264D01*
X823856Y708142D01*
X823909Y708216D01*
X823969Y708285D01*
X823981Y708315D01*
X824000Y708342D01*
X824027Y708429D01*
X824061Y708513D01*
X824065Y708554D01*
X824072Y708577D01*
X824071Y708609D01*
X824079Y708680D01*
X824079Y708914D01*
X824076Y708934D01*
X824078Y708953D01*
X824056Y709055D01*
X824040Y709157D01*
X824030Y709174D01*
X824026Y709194D01*
X823973Y709283D01*
X823924Y709374D01*
X823910Y709388D01*
X823900Y709405D01*
X823821Y709472D01*
X823746Y709544D01*
X823728Y709552D01*
X823713Y709565D01*
X823617Y709604D01*
X823523Y709647D01*
X823503Y709649D01*
X823485Y709657D01*
X823318Y709675D01*
X821141Y709675D01*
X817780Y711067D01*
X815207Y713640D01*
X813815Y717001D01*
X813815Y720639D01*
X815207Y724000D01*
X817780Y726573D01*
X821141Y727965D01*
X823318Y727965D01*
X823338Y727968D01*
X823357Y727966D01*
X823459Y727988D01*
X823561Y728004D01*
X823578Y728014D01*
X823598Y728018D01*
X823687Y728071D01*
X823778Y728120D01*
X823792Y728134D01*
X823809Y728144D01*
X823876Y728223D01*
X823948Y728298D01*
X823956Y728316D01*
X823969Y728331D01*
X824008Y728427D01*
X824051Y728521D01*
X824053Y728541D01*
X824061Y728559D01*
X824079Y728726D01*
X824079Y734379D01*
X824069Y734443D01*
X824068Y734509D01*
X824045Y734589D01*
X824040Y734621D01*
X824030Y734638D01*
X824021Y734670D01*
X823975Y734781D01*
X823975Y738419D01*
X825367Y741780D01*
X827940Y744353D01*
X831301Y745745D01*
X834939Y745745D01*
X835724Y745420D01*
X835818Y745398D01*
X835911Y745369D01*
X835938Y745370D01*
X835963Y745364D01*
X836060Y745373D01*
X836157Y745375D01*
X836182Y745384D01*
X836208Y745387D01*
X836297Y745426D01*
X836388Y745460D01*
X836409Y745476D01*
X836433Y745487D01*
X836504Y745553D01*
X836580Y745613D01*
X836594Y745635D01*
X836614Y745653D01*
X836661Y745738D01*
X836713Y745820D01*
X836720Y745846D01*
X836732Y745869D01*
X836750Y745965D01*
X836773Y746059D01*
X836771Y746085D01*
X836776Y746111D01*
X836762Y746207D01*
X836754Y746304D01*
X836744Y746328D01*
X836740Y746354D01*
X836696Y746441D01*
X836658Y746530D01*
X836638Y746556D01*
X836629Y746573D01*
X836605Y746597D01*
X836553Y746661D01*
X800478Y782736D01*
X800404Y782789D01*
X800335Y782849D01*
X800305Y782861D01*
X800278Y782880D01*
X800191Y782907D01*
X800107Y782941D01*
X800066Y782945D01*
X800043Y782952D01*
X800011Y782951D01*
X799940Y782959D01*
X789345Y782959D01*
X789275Y782948D01*
X789203Y782946D01*
X789154Y782928D01*
X789103Y782920D01*
X789039Y782886D01*
X788972Y782861D01*
X788931Y782829D01*
X788885Y782804D01*
X788836Y782752D01*
X788780Y782708D01*
X788752Y782664D01*
X788716Y782626D01*
X788686Y782561D01*
X788647Y782501D01*
X788634Y782450D01*
X788612Y782403D01*
X788604Y782332D01*
X788587Y782262D01*
X788591Y782210D01*
X788585Y782159D01*
X788600Y782088D01*
X788606Y782017D01*
X788626Y781969D01*
X788637Y781918D01*
X788674Y781857D01*
X788702Y781791D01*
X788747Y781735D01*
X788764Y781707D01*
X788781Y781692D01*
X788807Y781660D01*
X794942Y775525D01*
X798577Y766749D01*
X798577Y757251D01*
X794942Y748475D01*
X788225Y741758D01*
X779449Y738123D01*
X769951Y738123D01*
X767320Y739213D01*
X767226Y739235D01*
X767133Y739264D01*
X767106Y739263D01*
X767081Y739269D01*
X766984Y739260D01*
X766887Y739257D01*
X766862Y739248D01*
X766836Y739246D01*
X766747Y739206D01*
X766656Y739173D01*
X766635Y739156D01*
X766611Y739146D01*
X766540Y739080D01*
X766464Y739019D01*
X766450Y738997D01*
X766430Y738979D01*
X766383Y738894D01*
X766331Y738812D01*
X766324Y738787D01*
X766312Y738764D01*
X766294Y738668D01*
X766271Y738574D01*
X766273Y738548D01*
X766268Y738522D01*
X766282Y738425D01*
X766290Y738328D01*
X766300Y738304D01*
X766304Y738278D01*
X766348Y738192D01*
X766386Y738102D01*
X766406Y738077D01*
X766415Y738059D01*
X766439Y738036D01*
X766491Y737971D01*
X768910Y735552D01*
X771018Y730464D01*
X771018Y724956D01*
X768910Y719868D01*
X765016Y715974D01*
X759928Y713866D01*
X754420Y713866D01*
X749332Y715974D01*
X745438Y719868D01*
X743330Y724956D01*
X743330Y730464D01*
X745438Y735552D01*
X749332Y739446D01*
X754420Y741554D01*
X759542Y741554D01*
X759612Y741565D01*
X759684Y741567D01*
X759733Y741585D01*
X759784Y741593D01*
X759848Y741627D01*
X759915Y741652D01*
X759956Y741684D01*
X760002Y741709D01*
X760051Y741761D01*
X760107Y741805D01*
X760135Y741849D01*
X760171Y741887D01*
X760201Y741952D01*
X760240Y742012D01*
X760253Y742063D01*
X760275Y742110D01*
X760283Y742181D01*
X760300Y742251D01*
X760296Y742303D01*
X760302Y742354D01*
X760287Y742425D01*
X760281Y742496D01*
X760261Y742544D01*
X760250Y742595D01*
X760213Y742656D01*
X760185Y742722D01*
X760140Y742778D01*
X760123Y742806D01*
X760106Y742821D01*
X760080Y742853D01*
X754458Y748475D01*
X750823Y757251D01*
X750823Y766749D01*
X754458Y775525D01*
X760593Y781660D01*
X760635Y781718D01*
X760684Y781770D01*
X760706Y781817D01*
X760736Y781859D01*
X760758Y781928D01*
X760788Y781993D01*
X760794Y782045D01*
X760809Y782095D01*
X760807Y782166D01*
X760815Y782237D01*
X760804Y782288D01*
X760802Y782340D01*
X760778Y782408D01*
X760763Y782478D01*
X760736Y782523D01*
X760718Y782571D01*
X760673Y782627D01*
X760636Y782689D01*
X760597Y782723D01*
X760564Y782763D01*
X760504Y782802D01*
X760450Y782849D01*
X760401Y782868D01*
X760357Y782896D01*
X760288Y782914D01*
X760221Y782941D01*
X760150Y782949D01*
X760119Y782957D01*
X760096Y782955D01*
X760055Y782959D01*
X652235Y782959D01*
X652171Y782949D01*
X652105Y782948D01*
X652025Y782925D01*
X651993Y782920D01*
X651975Y782910D01*
X651944Y782901D01*
X650896Y782467D01*
X647104Y782467D01*
X643600Y783919D01*
X640919Y786600D01*
X639467Y790104D01*
X639467Y793896D01*
X640919Y797400D01*
X643600Y800081D01*
X647104Y801533D01*
X650896Y801533D01*
X651944Y801099D01*
X652008Y801084D01*
X652069Y801059D01*
X652152Y801050D01*
X652184Y801043D01*
X652203Y801044D01*
X652235Y801041D01*
X805798Y801041D01*
X809121Y799664D01*
X861104Y747681D01*
X862481Y744358D01*
X862481Y740762D01*
X862168Y740007D01*
X862147Y739918D01*
X862119Y739832D01*
X862119Y739799D01*
X862112Y739768D01*
X862121Y739677D01*
X862121Y739586D01*
X862133Y739546D01*
X862135Y739523D01*
X862148Y739493D01*
X862168Y739425D01*
X862585Y738419D01*
X862585Y734781D01*
X861193Y731420D01*
X858620Y728847D01*
X855259Y727455D01*
X851621Y727455D01*
X848260Y728847D01*
X845687Y731420D01*
X844295Y734781D01*
X844295Y738502D01*
X844302Y738530D01*
X844302Y738536D01*
X844303Y738542D01*
X844292Y738659D01*
X844283Y738775D01*
X844281Y738781D01*
X844280Y738787D01*
X844232Y738895D01*
X844187Y739001D01*
X844182Y739007D01*
X844180Y739012D01*
X844168Y739025D01*
X844082Y739132D01*
X843181Y740033D01*
X843102Y740090D01*
X843027Y740152D01*
X843003Y740161D01*
X842982Y740177D01*
X842889Y740205D01*
X842798Y740240D01*
X842772Y740241D01*
X842747Y740249D01*
X842649Y740246D01*
X842552Y740251D01*
X842527Y740243D01*
X842501Y740243D01*
X842409Y740209D01*
X842316Y740182D01*
X842294Y740167D01*
X842270Y740158D01*
X842194Y740097D01*
X842114Y740042D01*
X842098Y740021D01*
X842078Y740004D01*
X842025Y739923D01*
X841967Y739844D01*
X841959Y739820D01*
X841945Y739798D01*
X841921Y739703D01*
X841891Y739611D01*
X841891Y739584D01*
X841885Y739559D01*
X841892Y739462D01*
X841893Y739365D01*
X841902Y739333D01*
X841904Y739314D01*
X841917Y739284D01*
X841940Y739204D01*
X842265Y738419D01*
X842265Y734781D01*
X842219Y734670D01*
X842204Y734606D01*
X842179Y734545D01*
X842170Y734462D01*
X842163Y734430D01*
X842164Y734411D01*
X842161Y734379D01*
X842161Y728726D01*
X842164Y728706D01*
X842162Y728687D01*
X842184Y728585D01*
X842200Y728483D01*
X842210Y728466D01*
X842214Y728446D01*
X842267Y728357D01*
X842316Y728266D01*
X842330Y728252D01*
X842340Y728235D01*
X842419Y728168D01*
X842494Y728096D01*
X842512Y728088D01*
X842527Y728075D01*
X842623Y728036D01*
X842717Y727993D01*
X842737Y727991D01*
X842755Y727983D01*
X842922Y727965D01*
X845099Y727965D01*
X848460Y726573D01*
X851033Y724000D01*
X852425Y720639D01*
X852425Y717001D01*
X851033Y713640D01*
X848460Y711067D01*
X845099Y709675D01*
X842922Y709675D01*
X842902Y709672D01*
X842883Y709674D01*
X842781Y709652D01*
X842679Y709636D01*
X842662Y709626D01*
X842642Y709622D01*
X842553Y709569D01*
X842462Y709520D01*
X842448Y709506D01*
X842431Y709496D01*
X842364Y709417D01*
X842292Y709342D01*
X842284Y709324D01*
X842271Y709309D01*
X842232Y709213D01*
X842189Y709119D01*
X842187Y709099D01*
X842179Y709081D01*
X842161Y708914D01*
X842161Y702822D01*
X840784Y699499D01*
X778621Y637336D01*
X775298Y635959D01*
X765235Y635959D01*
X765171Y635949D01*
X765105Y635948D01*
X765025Y635925D01*
X764993Y635920D01*
X764975Y635910D01*
X764944Y635901D01*
X763896Y635467D01*
X760104Y635467D01*
X759593Y635679D01*
X759549Y635689D01*
X759507Y635709D01*
X759430Y635717D01*
X759354Y635735D01*
X759308Y635731D01*
X759263Y635736D01*
X759186Y635719D01*
X759109Y635712D01*
X759067Y635693D01*
X759022Y635683D01*
X758955Y635643D01*
X758884Y635612D01*
X758850Y635581D01*
X758811Y635557D01*
X758760Y635498D01*
X758703Y635445D01*
X758681Y635405D01*
X758651Y635370D01*
X758622Y635298D01*
X758585Y635230D01*
X758576Y635185D01*
X758559Y635142D01*
X758544Y635006D01*
X758541Y634988D01*
X758542Y634983D01*
X758541Y634975D01*
X758541Y630756D01*
X758555Y630666D01*
X758563Y630575D01*
X758575Y630545D01*
X758580Y630513D01*
X758623Y630432D01*
X758659Y630349D01*
X758685Y630316D01*
X758696Y630296D01*
X758719Y630274D01*
X758764Y630218D01*
X759581Y629400D01*
X761033Y625896D01*
X761033Y622104D01*
X759581Y618600D01*
X756900Y615919D01*
X753396Y614467D01*
X749604Y614467D01*
G37*
%LPD*%
%LPC*%
G36*
X916472Y713866D02*
X916472Y713866D01*
X911384Y715974D01*
X907490Y719868D01*
X905382Y724956D01*
X905382Y730464D01*
X907490Y735552D01*
X909909Y737971D01*
X909966Y738050D01*
X910028Y738125D01*
X910037Y738150D01*
X910053Y738171D01*
X910081Y738264D01*
X910116Y738355D01*
X910117Y738381D01*
X910125Y738406D01*
X910123Y738503D01*
X910127Y738601D01*
X910119Y738626D01*
X910119Y738652D01*
X910085Y738743D01*
X910058Y738837D01*
X910043Y738858D01*
X910034Y738883D01*
X909973Y738959D01*
X909918Y739039D01*
X909897Y739054D01*
X909881Y739075D01*
X909799Y739128D01*
X909720Y739186D01*
X909696Y739194D01*
X909674Y739208D01*
X909579Y739232D01*
X909487Y739262D01*
X909460Y739262D01*
X909435Y739268D01*
X909338Y739260D01*
X909241Y739259D01*
X909209Y739250D01*
X909190Y739249D01*
X909160Y739236D01*
X909080Y739213D01*
X906449Y738123D01*
X896951Y738123D01*
X888175Y741758D01*
X881458Y748475D01*
X877823Y757251D01*
X877823Y766749D01*
X881458Y775525D01*
X888175Y782242D01*
X896951Y785877D01*
X906449Y785877D01*
X915225Y782242D01*
X921942Y775525D01*
X925577Y766749D01*
X925577Y757251D01*
X921942Y748475D01*
X916320Y742853D01*
X916278Y742795D01*
X916229Y742743D01*
X916207Y742696D01*
X916177Y742654D01*
X916155Y742585D01*
X916125Y742520D01*
X916119Y742468D01*
X916104Y742418D01*
X916106Y742347D01*
X916098Y742276D01*
X916109Y742225D01*
X916111Y742173D01*
X916135Y742105D01*
X916150Y742035D01*
X916177Y741990D01*
X916195Y741942D01*
X916240Y741886D01*
X916277Y741824D01*
X916316Y741790D01*
X916349Y741750D01*
X916409Y741711D01*
X916463Y741664D01*
X916512Y741645D01*
X916556Y741617D01*
X916625Y741599D01*
X916692Y741572D01*
X916763Y741564D01*
X916794Y741556D01*
X916817Y741558D01*
X916858Y741554D01*
X921980Y741554D01*
X927068Y739446D01*
X930962Y735552D01*
X933070Y730464D01*
X933070Y724956D01*
X930962Y719868D01*
X927068Y715974D01*
X921980Y713866D01*
X916472Y713866D01*
G37*
%LPD*%
%LPC*%
G36*
X871941Y727455D02*
X871941Y727455D01*
X868580Y728847D01*
X866007Y731420D01*
X864615Y734781D01*
X864615Y738419D01*
X866007Y741780D01*
X868580Y744353D01*
X871941Y745745D01*
X875579Y745745D01*
X878940Y744353D01*
X881513Y741780D01*
X882905Y738419D01*
X882905Y734781D01*
X881513Y731420D01*
X878940Y728847D01*
X875579Y727455D01*
X871941Y727455D01*
G37*
%LPD*%
%LPC*%
G36*
X810981Y727455D02*
X810981Y727455D01*
X807620Y728847D01*
X805047Y731420D01*
X803655Y734781D01*
X803655Y738419D01*
X805047Y741780D01*
X807620Y744353D01*
X810981Y745745D01*
X814619Y745745D01*
X817980Y744353D01*
X820553Y741780D01*
X821945Y738419D01*
X821945Y734781D01*
X820553Y731420D01*
X817980Y728847D01*
X814619Y727455D01*
X810981Y727455D01*
G37*
%LPD*%
%LPC*%
G36*
X861781Y709675D02*
X861781Y709675D01*
X858420Y711067D01*
X855847Y713640D01*
X854455Y717001D01*
X854455Y720639D01*
X855847Y724000D01*
X858420Y726573D01*
X861781Y727965D01*
X865419Y727965D01*
X868780Y726573D01*
X871353Y724000D01*
X872745Y720639D01*
X872745Y717001D01*
X871353Y713640D01*
X868780Y711067D01*
X865419Y709675D01*
X861781Y709675D01*
G37*
%LPD*%
%LPC*%
G36*
X891723Y641363D02*
X891723Y641363D01*
X886663Y646423D01*
X886663Y653577D01*
X891723Y658637D01*
X898877Y658637D01*
X903937Y653577D01*
X903937Y646423D01*
X898877Y641363D01*
X891723Y641363D01*
G37*
%LPD*%
%LPC*%
G36*
X718623Y746863D02*
X718623Y746863D01*
X713563Y751923D01*
X713563Y759077D01*
X718623Y764137D01*
X725777Y764137D01*
X730837Y759077D01*
X730837Y751923D01*
X725777Y746863D01*
X718623Y746863D01*
G37*
%LPD*%
%LPC*%
G36*
X624423Y630663D02*
X624423Y630663D01*
X619363Y635723D01*
X619363Y642877D01*
X624423Y647937D01*
X631577Y647937D01*
X636637Y642877D01*
X636637Y635723D01*
X631577Y630663D01*
X624423Y630663D01*
G37*
%LPD*%
%LPC*%
G36*
X861823Y641363D02*
X861823Y641363D01*
X856763Y646423D01*
X856763Y653577D01*
X861823Y658637D01*
X868977Y658637D01*
X874037Y653577D01*
X874037Y646423D01*
X868977Y641363D01*
X861823Y641363D01*
G37*
%LPD*%
%LPC*%
G36*
X804163Y720343D02*
X804163Y720343D01*
X804163Y728352D01*
X804900Y728235D01*
X806345Y727766D01*
X807699Y727076D01*
X808928Y726183D01*
X810003Y725108D01*
X810896Y723879D01*
X811586Y722525D01*
X812055Y721080D01*
X812172Y720343D01*
X804163Y720343D01*
G37*
%LPD*%
%LPC*%
G36*
X804163Y717297D02*
X804163Y717297D01*
X812172Y717297D01*
X812055Y716560D01*
X811586Y715115D01*
X810896Y713761D01*
X810003Y712532D01*
X808928Y711457D01*
X807699Y710564D01*
X806345Y709874D01*
X804900Y709405D01*
X804163Y709288D01*
X804163Y717297D01*
G37*
%LPD*%
%LPC*%
G36*
X793108Y720343D02*
X793108Y720343D01*
X793225Y721080D01*
X793694Y722525D01*
X794384Y723879D01*
X795277Y725108D01*
X796352Y726183D01*
X797581Y727076D01*
X798935Y727766D01*
X800380Y728235D01*
X801117Y728352D01*
X801117Y720343D01*
X793108Y720343D01*
G37*
%LPD*%
%LPC*%
G36*
X800380Y709405D02*
X800380Y709405D01*
X798935Y709874D01*
X797581Y710564D01*
X796352Y711457D01*
X795277Y712532D01*
X794384Y713761D01*
X793694Y715115D01*
X793225Y716560D01*
X793108Y717297D01*
X801117Y717297D01*
X801117Y709288D01*
X800380Y709405D01*
G37*
%LPD*%
%LPC*%
G36*
X698323Y757023D02*
X698323Y757023D01*
X698323Y764645D01*
X700588Y764645D01*
X705945Y759288D01*
X705945Y757023D01*
X698323Y757023D01*
G37*
%LPD*%
%LPC*%
G36*
X896823Y626123D02*
X896823Y626123D01*
X896823Y633745D01*
X899088Y633745D01*
X904445Y628388D01*
X904445Y626123D01*
X896823Y626123D01*
G37*
%LPD*%
%LPC*%
G36*
X866923Y626123D02*
X866923Y626123D01*
X866923Y633745D01*
X869188Y633745D01*
X874545Y628388D01*
X874545Y626123D01*
X866923Y626123D01*
G37*
%LPD*%
%LPC*%
G36*
X629523Y666223D02*
X629523Y666223D01*
X629523Y673845D01*
X631788Y673845D01*
X637145Y668488D01*
X637145Y666223D01*
X629523Y666223D01*
G37*
%LPD*%
%LPC*%
G36*
X687655Y757023D02*
X687655Y757023D01*
X687655Y759288D01*
X693012Y764645D01*
X695277Y764645D01*
X695277Y757023D01*
X687655Y757023D01*
G37*
%LPD*%
%LPC*%
G36*
X629523Y655555D02*
X629523Y655555D01*
X629523Y663177D01*
X637145Y663177D01*
X637145Y660912D01*
X631788Y655555D01*
X629523Y655555D01*
G37*
%LPD*%
%LPC*%
G36*
X698323Y746355D02*
X698323Y746355D01*
X698323Y753977D01*
X705945Y753977D01*
X705945Y751712D01*
X700588Y746355D01*
X698323Y746355D01*
G37*
%LPD*%
%LPC*%
G36*
X618855Y666223D02*
X618855Y666223D01*
X618855Y668488D01*
X624212Y673845D01*
X626477Y673845D01*
X626477Y666223D01*
X618855Y666223D01*
G37*
%LPD*%
%LPC*%
G36*
X886155Y626123D02*
X886155Y626123D01*
X886155Y628388D01*
X891512Y633745D01*
X893777Y633745D01*
X893777Y626123D01*
X886155Y626123D01*
G37*
%LPD*%
%LPC*%
G36*
X856255Y626123D02*
X856255Y626123D01*
X856255Y628388D01*
X861612Y633745D01*
X863877Y633745D01*
X863877Y626123D01*
X856255Y626123D01*
G37*
%LPD*%
%LPC*%
G36*
X896823Y615455D02*
X896823Y615455D01*
X896823Y623077D01*
X904445Y623077D01*
X904445Y620812D01*
X899088Y615455D01*
X896823Y615455D01*
G37*
%LPD*%
%LPC*%
G36*
X866923Y615455D02*
X866923Y615455D01*
X866923Y623077D01*
X874545Y623077D01*
X874545Y620812D01*
X869188Y615455D01*
X866923Y615455D01*
G37*
%LPD*%
%LPC*%
G36*
X624212Y655555D02*
X624212Y655555D01*
X618855Y660912D01*
X618855Y663177D01*
X626477Y663177D01*
X626477Y655555D01*
X624212Y655555D01*
G37*
%LPD*%
%LPC*%
G36*
X891512Y615455D02*
X891512Y615455D01*
X886155Y620812D01*
X886155Y623077D01*
X893777Y623077D01*
X893777Y615455D01*
X891512Y615455D01*
G37*
%LPD*%
%LPC*%
G36*
X861612Y615455D02*
X861612Y615455D01*
X856255Y620812D01*
X856255Y623077D01*
X863877Y623077D01*
X863877Y615455D01*
X861612Y615455D01*
G37*
%LPD*%
%LPC*%
G36*
X693012Y746355D02*
X693012Y746355D01*
X687655Y751712D01*
X687655Y753977D01*
X695277Y753977D01*
X695277Y746355D01*
X693012Y746355D01*
G37*
%LPD*%
%LPC*%
G36*
X696799Y755499D02*
X696799Y755499D01*
X696799Y755501D01*
X696801Y755501D01*
X696801Y755499D01*
X696799Y755499D01*
G37*
%LPD*%
%LPC*%
G36*
X802639Y718819D02*
X802639Y718819D01*
X802639Y718821D01*
X802641Y718821D01*
X802641Y718819D01*
X802639Y718819D01*
G37*
%LPD*%
%LPC*%
G36*
X627999Y664699D02*
X627999Y664699D01*
X627999Y664701D01*
X628001Y664701D01*
X628001Y664699D01*
X627999Y664699D01*
G37*
%LPD*%
%LPC*%
G36*
X895299Y624599D02*
X895299Y624599D01*
X895299Y624601D01*
X895301Y624601D01*
X895301Y624599D01*
X895299Y624599D01*
G37*
%LPD*%
%LPC*%
G36*
X865399Y624599D02*
X865399Y624599D01*
X865399Y624601D01*
X865401Y624601D01*
X865401Y624599D01*
X865399Y624599D01*
G37*
%LPD*%
D10*
X895300Y650000D03*
X895300Y624600D03*
X865400Y650000D03*
X865400Y624600D03*
D11*
X873760Y736600D03*
X863600Y718820D03*
X853440Y736600D03*
X843280Y718820D03*
X833120Y736600D03*
X822960Y718820D03*
X812800Y736600D03*
X802640Y718820D03*
D12*
X757174Y727710D03*
X919226Y727710D03*
D13*
X628000Y639300D03*
X628000Y664700D03*
D14*
X722200Y755500D03*
X696800Y755500D03*
D15*
X751500Y624000D03*
X749500Y700000D03*
D16*
X749500Y626000D01*
X751500Y624000D01*
D15*
X649000Y792000D03*
D16*
X804000Y792000D01*
X853440Y742560D01*
D17*
X853440Y736600D01*
D15*
X762000Y645000D03*
D16*
X773500Y645000D01*
X833120Y704620D02*
X833120Y736600D01*
X833120Y704620D02*
X773500Y645000D01*
D15*
X653500Y667500D03*
X655000Y644500D03*
D18*
X836500Y638000D03*
D15*
X782500Y691000D03*
X871500Y792500D03*
M02*
