G04 EAGLE Gerber X2 export*
%TF.Part,Single*%
%TF.FileFunction,Profile,NP*%
%TF.FilePolarity,Positive*%
%TF.GenerationSoftware,Autodesk,EAGLE,8.6.3*%
%TF.CreationDate,2019-03-24T10:02:58Z*%
G75*
%MOMM*%
%FSLAX34Y34*%
%LPD*%
%AMOC8*
5,1,8,0,0,1.08239X$1,22.5*%
G01*
%ADD10C,0.254000*%


D10*
X580000Y580000D02*
X950000Y580000D01*
X950000Y820000D01*
X580000Y820000D01*
X580000Y580000D01*
X917956Y762532D02*
X917886Y763594D01*
X917747Y764649D01*
X917540Y765693D01*
X917264Y766721D01*
X916922Y767729D01*
X916515Y768713D01*
X916044Y769667D01*
X915512Y770589D01*
X914921Y771474D01*
X914273Y772318D01*
X913571Y773118D01*
X912818Y773871D01*
X912018Y774573D01*
X911174Y775221D01*
X910289Y775812D01*
X909367Y776344D01*
X908413Y776815D01*
X907429Y777222D01*
X906421Y777564D01*
X905393Y777840D01*
X904349Y778047D01*
X903294Y778186D01*
X902232Y778256D01*
X901168Y778256D01*
X900106Y778186D01*
X899051Y778047D01*
X898007Y777840D01*
X896979Y777564D01*
X895971Y777222D01*
X894987Y776815D01*
X894033Y776344D01*
X893111Y775812D01*
X892226Y775221D01*
X891382Y774573D01*
X890582Y773871D01*
X889829Y773118D01*
X889127Y772318D01*
X888479Y771474D01*
X887888Y770589D01*
X887356Y769667D01*
X886885Y768713D01*
X886478Y767729D01*
X886136Y766721D01*
X885860Y765693D01*
X885653Y764649D01*
X885514Y763594D01*
X885444Y762532D01*
X885444Y761468D01*
X885514Y760406D01*
X885653Y759351D01*
X885860Y758307D01*
X886136Y757279D01*
X886478Y756271D01*
X886885Y755287D01*
X887356Y754333D01*
X887888Y753411D01*
X888479Y752526D01*
X889127Y751682D01*
X889829Y750882D01*
X890582Y750129D01*
X891382Y749427D01*
X892226Y748779D01*
X893111Y748188D01*
X894033Y747656D01*
X894987Y747185D01*
X895971Y746778D01*
X896979Y746436D01*
X898007Y746160D01*
X899051Y745953D01*
X900106Y745814D01*
X901168Y745744D01*
X902232Y745744D01*
X903294Y745814D01*
X904349Y745953D01*
X905393Y746160D01*
X906421Y746436D01*
X907429Y746778D01*
X908413Y747185D01*
X909367Y747656D01*
X910289Y748188D01*
X911174Y748779D01*
X912018Y749427D01*
X912818Y750129D01*
X913571Y750882D01*
X914273Y751682D01*
X914921Y752526D01*
X915512Y753411D01*
X916044Y754333D01*
X916515Y755287D01*
X916922Y756271D01*
X917264Y757279D01*
X917540Y758307D01*
X917747Y759351D01*
X917886Y760406D01*
X917956Y761468D01*
X917956Y762532D01*
X790956Y762532D02*
X790886Y763594D01*
X790747Y764649D01*
X790540Y765693D01*
X790264Y766721D01*
X789922Y767729D01*
X789515Y768713D01*
X789044Y769667D01*
X788512Y770589D01*
X787921Y771474D01*
X787273Y772318D01*
X786571Y773118D01*
X785818Y773871D01*
X785018Y774573D01*
X784174Y775221D01*
X783289Y775812D01*
X782367Y776344D01*
X781413Y776815D01*
X780429Y777222D01*
X779421Y777564D01*
X778393Y777840D01*
X777349Y778047D01*
X776294Y778186D01*
X775232Y778256D01*
X774168Y778256D01*
X773106Y778186D01*
X772051Y778047D01*
X771007Y777840D01*
X769979Y777564D01*
X768971Y777222D01*
X767987Y776815D01*
X767033Y776344D01*
X766111Y775812D01*
X765226Y775221D01*
X764382Y774573D01*
X763582Y773871D01*
X762829Y773118D01*
X762127Y772318D01*
X761479Y771474D01*
X760888Y770589D01*
X760356Y769667D01*
X759885Y768713D01*
X759478Y767729D01*
X759136Y766721D01*
X758860Y765693D01*
X758653Y764649D01*
X758514Y763594D01*
X758444Y762532D01*
X758444Y761468D01*
X758514Y760406D01*
X758653Y759351D01*
X758860Y758307D01*
X759136Y757279D01*
X759478Y756271D01*
X759885Y755287D01*
X760356Y754333D01*
X760888Y753411D01*
X761479Y752526D01*
X762127Y751682D01*
X762829Y750882D01*
X763582Y750129D01*
X764382Y749427D01*
X765226Y748779D01*
X766111Y748188D01*
X767033Y747656D01*
X767987Y747185D01*
X768971Y746778D01*
X769979Y746436D01*
X771007Y746160D01*
X772051Y745953D01*
X773106Y745814D01*
X774168Y745744D01*
X775232Y745744D01*
X776294Y745814D01*
X777349Y745953D01*
X778393Y746160D01*
X779421Y746436D01*
X780429Y746778D01*
X781413Y747185D01*
X782367Y747656D01*
X783289Y748188D01*
X784174Y748779D01*
X785018Y749427D01*
X785818Y750129D01*
X786571Y750882D01*
X787273Y751682D01*
X787921Y752526D01*
X788512Y753411D01*
X789044Y754333D01*
X789515Y755287D01*
X789922Y756271D01*
X790264Y757279D01*
X790540Y758307D01*
X790747Y759351D01*
X790886Y760406D01*
X790956Y761468D01*
X790956Y762532D01*
M02*
