G04 EAGLE Gerber X2 export*
%TF.Part,Single*%
%TF.FileFunction,Copper,L2,Bot,Mixed*%
%TF.FilePolarity,Positive*%
%TF.GenerationSoftware,Autodesk,EAGLE,8.6.3*%
%TF.CreationDate,2019-03-24T10:02:58Z*%
G75*
%MOMM*%
%FSLAX34Y34*%
%LPD*%
%AMOC8*
5,1,8,0,0,1.08239X$1,22.5*%
G01*
%ADD10P,1.429621X8X202.500000*%
%ADD11C,1.422400*%
%ADD12C,2.362200*%
%ADD13C,1.500000*%

G36*
X940366Y587623D02*
X940366Y587623D01*
X940384Y587621D01*
X940566Y587642D01*
X940749Y587661D01*
X940766Y587666D01*
X940783Y587668D01*
X940958Y587725D01*
X941134Y587779D01*
X941149Y587787D01*
X941166Y587793D01*
X941326Y587883D01*
X941488Y587971D01*
X941501Y587982D01*
X941517Y587991D01*
X941656Y588111D01*
X941797Y588228D01*
X941808Y588242D01*
X941822Y588254D01*
X941934Y588399D01*
X942049Y588542D01*
X942057Y588558D01*
X942068Y588572D01*
X942150Y588737D01*
X942235Y588899D01*
X942240Y588916D01*
X942248Y588932D01*
X942295Y589111D01*
X942346Y589286D01*
X942348Y589304D01*
X942352Y589321D01*
X942379Y589652D01*
X942379Y716398D01*
X942379Y716403D01*
X942379Y716407D01*
X942359Y716601D01*
X942339Y716799D01*
X942338Y716803D01*
X942338Y716808D01*
X942279Y716994D01*
X942221Y717184D01*
X942219Y717188D01*
X942218Y717192D01*
X942122Y717367D01*
X942029Y717538D01*
X942027Y717541D01*
X942024Y717545D01*
X941896Y717698D01*
X941772Y717847D01*
X941768Y717850D01*
X941765Y717853D01*
X941609Y717978D01*
X941458Y718100D01*
X941454Y718102D01*
X941451Y718104D01*
X941270Y718197D01*
X941101Y718285D01*
X941096Y718286D01*
X941092Y718288D01*
X940902Y718342D01*
X940714Y718396D01*
X940709Y718397D01*
X940705Y718398D01*
X940513Y718413D01*
X940312Y718429D01*
X940308Y718429D01*
X940304Y718429D01*
X940110Y718406D01*
X939913Y718382D01*
X939908Y718381D01*
X939904Y718380D01*
X939719Y718319D01*
X939530Y718258D01*
X939526Y718255D01*
X939522Y718254D01*
X939353Y718158D01*
X939179Y718060D01*
X939176Y718057D01*
X939172Y718055D01*
X939025Y717927D01*
X938875Y717797D01*
X938872Y717793D01*
X938868Y717790D01*
X938748Y717633D01*
X938628Y717478D01*
X938626Y717475D01*
X938623Y717471D01*
X938471Y717176D01*
X937717Y715355D01*
X931581Y709219D01*
X923565Y705898D01*
X914887Y705898D01*
X906871Y709219D01*
X900735Y715355D01*
X897414Y723371D01*
X897414Y732049D01*
X898907Y735652D01*
X898950Y735796D01*
X899001Y735938D01*
X899009Y735988D01*
X899023Y736037D01*
X899038Y736187D01*
X899059Y736336D01*
X899057Y736387D01*
X899061Y736438D01*
X899046Y736588D01*
X899038Y736738D01*
X899025Y736788D01*
X899020Y736839D01*
X898975Y736983D01*
X898937Y737128D01*
X898915Y737174D01*
X898900Y737223D01*
X898828Y737355D01*
X898762Y737491D01*
X898731Y737531D01*
X898707Y737576D01*
X898610Y737692D01*
X898519Y737812D01*
X898480Y737845D01*
X898448Y737884D01*
X898330Y737978D01*
X898217Y738078D01*
X898173Y738103D01*
X898133Y738135D01*
X897999Y738204D01*
X897868Y738280D01*
X897814Y738299D01*
X897775Y738319D01*
X897693Y738343D01*
X897556Y738391D01*
X893430Y739497D01*
X893349Y739510D01*
X893270Y739533D01*
X893150Y739543D01*
X893032Y739562D01*
X892950Y739559D01*
X892868Y739566D01*
X892750Y739552D01*
X892630Y739548D01*
X892550Y739529D01*
X892469Y739519D01*
X892355Y739482D01*
X892238Y739454D01*
X892164Y739420D01*
X892086Y739394D01*
X891981Y739335D01*
X891873Y739285D01*
X891807Y739237D01*
X891735Y739196D01*
X891645Y739118D01*
X891548Y739047D01*
X891493Y738987D01*
X891430Y738933D01*
X891357Y738839D01*
X891276Y738750D01*
X891234Y738680D01*
X891184Y738615D01*
X891130Y738508D01*
X891069Y738405D01*
X891041Y738328D01*
X891004Y738254D01*
X890973Y738139D01*
X890933Y738026D01*
X890921Y737945D01*
X890900Y737866D01*
X890887Y737713D01*
X890875Y737628D01*
X890877Y737587D01*
X890873Y737535D01*
X890873Y733196D01*
X888267Y726906D01*
X883454Y722093D01*
X881967Y721477D01*
X881947Y721466D01*
X881926Y721459D01*
X881769Y721371D01*
X881612Y721286D01*
X881595Y721272D01*
X881575Y721261D01*
X881439Y721144D01*
X881301Y721030D01*
X881287Y721013D01*
X881270Y720998D01*
X881161Y720857D01*
X881048Y720717D01*
X881037Y720698D01*
X881024Y720680D01*
X880944Y720520D01*
X880861Y720361D01*
X880854Y720339D01*
X880844Y720319D01*
X880798Y720146D01*
X880748Y719974D01*
X880746Y719952D01*
X880740Y719931D01*
X880713Y719600D01*
X880713Y715416D01*
X878107Y709126D01*
X873294Y704313D01*
X867004Y701707D01*
X860196Y701707D01*
X854217Y704184D01*
X854192Y704191D01*
X854168Y704203D01*
X853999Y704250D01*
X853832Y704300D01*
X853805Y704303D01*
X853779Y704310D01*
X853605Y704322D01*
X853431Y704338D01*
X853405Y704336D01*
X853378Y704337D01*
X853204Y704315D01*
X853031Y704297D01*
X853005Y704289D01*
X852979Y704285D01*
X852663Y704184D01*
X846684Y701707D01*
X839876Y701707D01*
X833897Y704184D01*
X833872Y704191D01*
X833848Y704203D01*
X833679Y704250D01*
X833512Y704300D01*
X833485Y704303D01*
X833459Y704310D01*
X833285Y704322D01*
X833111Y704338D01*
X833085Y704336D01*
X833058Y704337D01*
X832884Y704315D01*
X832711Y704297D01*
X832685Y704289D01*
X832659Y704285D01*
X832343Y704184D01*
X826364Y701707D01*
X819556Y701707D01*
X813266Y704313D01*
X808251Y709328D01*
X808140Y709419D01*
X808034Y709516D01*
X807984Y709546D01*
X807940Y709583D01*
X807813Y709650D01*
X807689Y709725D01*
X807635Y709744D01*
X807584Y709771D01*
X807446Y709812D01*
X807311Y709861D01*
X807254Y709870D01*
X807198Y709886D01*
X807054Y709899D01*
X806912Y709920D01*
X806855Y709917D01*
X806797Y709922D01*
X806654Y709907D01*
X806510Y709900D01*
X806446Y709884D01*
X806397Y709879D01*
X806318Y709854D01*
X806187Y709823D01*
X804900Y709405D01*
X804862Y709399D01*
X804862Y718629D01*
X804860Y718647D01*
X804861Y718665D01*
X804840Y718847D01*
X804822Y719030D01*
X804817Y719047D01*
X804815Y719065D01*
X804758Y719239D01*
X804704Y719415D01*
X804695Y719431D01*
X804690Y719447D01*
X804599Y719608D01*
X804512Y719769D01*
X804501Y719783D01*
X804492Y719798D01*
X804372Y719937D01*
X804254Y720078D01*
X804240Y720089D01*
X804229Y720103D01*
X804084Y720215D01*
X804070Y720226D01*
X803990Y720319D01*
X803873Y720459D01*
X803859Y720471D01*
X803847Y720484D01*
X803702Y720597D01*
X803559Y720712D01*
X803543Y720720D01*
X803529Y720731D01*
X803364Y720813D01*
X803202Y720897D01*
X803185Y720902D01*
X803169Y720910D01*
X802991Y720958D01*
X802815Y721009D01*
X802797Y721010D01*
X802780Y721015D01*
X802449Y721042D01*
X793219Y721042D01*
X793225Y721080D01*
X793694Y722525D01*
X794384Y723879D01*
X795277Y725108D01*
X796352Y726183D01*
X796778Y726493D01*
X796915Y726614D01*
X797052Y726732D01*
X797064Y726747D01*
X797079Y726761D01*
X797188Y726906D01*
X797300Y727049D01*
X797309Y727066D01*
X797321Y727082D01*
X797400Y727246D01*
X797481Y727408D01*
X797486Y727427D01*
X797495Y727446D01*
X797539Y727622D01*
X797587Y727797D01*
X797589Y727817D01*
X797594Y727836D01*
X797602Y728017D01*
X797615Y728198D01*
X797612Y728218D01*
X797613Y728238D01*
X797586Y728417D01*
X797563Y728598D01*
X797556Y728619D01*
X797553Y728636D01*
X797527Y728708D01*
X797461Y728913D01*
X795687Y733196D01*
X795687Y740004D01*
X798293Y746294D01*
X803106Y751107D01*
X809396Y753713D01*
X816204Y753713D01*
X822183Y751236D01*
X822208Y751229D01*
X822232Y751217D01*
X822401Y751170D01*
X822568Y751120D01*
X822595Y751117D01*
X822621Y751110D01*
X822795Y751098D01*
X822969Y751082D01*
X822995Y751084D01*
X823022Y751083D01*
X823197Y751105D01*
X823369Y751123D01*
X823395Y751131D01*
X823421Y751135D01*
X823737Y751236D01*
X829716Y753713D01*
X836524Y753713D01*
X842503Y751236D01*
X842528Y751229D01*
X842552Y751217D01*
X842721Y751170D01*
X842888Y751120D01*
X842915Y751117D01*
X842941Y751110D01*
X843115Y751098D01*
X843289Y751082D01*
X843315Y751084D01*
X843342Y751083D01*
X843517Y751105D01*
X843689Y751123D01*
X843715Y751131D01*
X843741Y751135D01*
X844057Y751236D01*
X850036Y753713D01*
X856844Y753713D01*
X862823Y751236D01*
X862848Y751229D01*
X862872Y751217D01*
X863041Y751170D01*
X863208Y751120D01*
X863235Y751117D01*
X863261Y751110D01*
X863435Y751098D01*
X863609Y751082D01*
X863635Y751084D01*
X863662Y751083D01*
X863837Y751105D01*
X864009Y751123D01*
X864035Y751131D01*
X864061Y751135D01*
X864377Y751236D01*
X870356Y753713D01*
X876554Y753713D01*
X876636Y753721D01*
X876718Y753719D01*
X876836Y753741D01*
X876955Y753753D01*
X877034Y753777D01*
X877114Y753791D01*
X877225Y753836D01*
X877340Y753871D01*
X877412Y753910D01*
X877488Y753940D01*
X877589Y754006D01*
X877694Y754063D01*
X877757Y754115D01*
X877826Y754160D01*
X877911Y754244D01*
X878003Y754320D01*
X878055Y754384D01*
X878113Y754442D01*
X878181Y754541D01*
X878256Y754634D01*
X878293Y754707D01*
X878340Y754775D01*
X878386Y754885D01*
X878441Y754991D01*
X878464Y755070D01*
X878496Y755146D01*
X878519Y755263D01*
X878552Y755378D01*
X878559Y755460D01*
X878575Y755541D01*
X878576Y755660D01*
X878585Y755780D01*
X878576Y755861D01*
X878576Y755943D01*
X878549Y756093D01*
X878538Y756179D01*
X878526Y756218D01*
X878516Y756270D01*
X877823Y758857D01*
X877823Y765143D01*
X879450Y771216D01*
X882594Y776661D01*
X887039Y781106D01*
X892484Y784250D01*
X898557Y785877D01*
X904843Y785877D01*
X910916Y784250D01*
X916361Y781106D01*
X920806Y776661D01*
X923950Y771216D01*
X925577Y765143D01*
X925577Y758857D01*
X923950Y752784D01*
X923513Y752029D01*
X923451Y751891D01*
X923383Y751757D01*
X923369Y751708D01*
X923348Y751662D01*
X923314Y751515D01*
X923273Y751370D01*
X923269Y751319D01*
X923258Y751269D01*
X923253Y751118D01*
X923242Y750968D01*
X923248Y750918D01*
X923247Y750867D01*
X923272Y750718D01*
X923290Y750569D01*
X923306Y750520D01*
X923315Y750470D01*
X923370Y750329D01*
X923417Y750187D01*
X923442Y750142D01*
X923461Y750095D01*
X923542Y749968D01*
X923616Y749837D01*
X923650Y749798D01*
X923677Y749755D01*
X923782Y749647D01*
X923881Y749533D01*
X923921Y749502D01*
X923957Y749465D01*
X924081Y749380D01*
X924200Y749288D01*
X924251Y749262D01*
X924288Y749236D01*
X924367Y749202D01*
X924495Y749136D01*
X931581Y746201D01*
X937717Y740065D01*
X938471Y738244D01*
X938473Y738240D01*
X938475Y738236D01*
X938569Y738062D01*
X938662Y737889D01*
X938664Y737886D01*
X938667Y737882D01*
X938792Y737732D01*
X938918Y737579D01*
X938921Y737576D01*
X938924Y737573D01*
X939077Y737450D01*
X939231Y737325D01*
X939235Y737323D01*
X939238Y737320D01*
X939411Y737230D01*
X939587Y737138D01*
X939591Y737137D01*
X939595Y737135D01*
X939783Y737081D01*
X939974Y737025D01*
X939978Y737025D01*
X939982Y737024D01*
X940180Y737007D01*
X940375Y736991D01*
X940379Y736991D01*
X940384Y736991D01*
X940578Y737014D01*
X940775Y737036D01*
X940779Y737037D01*
X940783Y737038D01*
X940969Y737098D01*
X941158Y737159D01*
X941162Y737161D01*
X941166Y737162D01*
X941338Y737259D01*
X941510Y737355D01*
X941513Y737358D01*
X941517Y737360D01*
X941665Y737489D01*
X941815Y737617D01*
X941818Y737621D01*
X941822Y737623D01*
X941942Y737778D01*
X942064Y737934D01*
X942066Y737938D01*
X942068Y737942D01*
X942157Y738119D01*
X942244Y738294D01*
X942246Y738298D01*
X942248Y738302D01*
X942298Y738491D01*
X942351Y738682D01*
X942351Y738687D01*
X942352Y738691D01*
X942379Y739022D01*
X942379Y810348D01*
X942377Y810366D01*
X942379Y810384D01*
X942358Y810566D01*
X942339Y810749D01*
X942334Y810766D01*
X942332Y810783D01*
X942275Y810958D01*
X942221Y811134D01*
X942213Y811149D01*
X942207Y811166D01*
X942117Y811326D01*
X942029Y811488D01*
X942018Y811501D01*
X942009Y811517D01*
X941889Y811656D01*
X941772Y811797D01*
X941758Y811808D01*
X941746Y811822D01*
X941601Y811934D01*
X941458Y812049D01*
X941442Y812057D01*
X941428Y812068D01*
X941263Y812150D01*
X941101Y812235D01*
X941084Y812240D01*
X941068Y812248D01*
X940889Y812295D01*
X940714Y812346D01*
X940696Y812348D01*
X940679Y812352D01*
X940348Y812379D01*
X589652Y812379D01*
X589634Y812377D01*
X589616Y812379D01*
X589434Y812358D01*
X589251Y812339D01*
X589234Y812334D01*
X589217Y812332D01*
X589042Y812275D01*
X588866Y812221D01*
X588851Y812213D01*
X588834Y812207D01*
X588674Y812117D01*
X588512Y812029D01*
X588499Y812018D01*
X588483Y812009D01*
X588344Y811889D01*
X588203Y811772D01*
X588192Y811758D01*
X588178Y811746D01*
X588066Y811601D01*
X587951Y811458D01*
X587943Y811442D01*
X587932Y811428D01*
X587850Y811263D01*
X587765Y811101D01*
X587760Y811084D01*
X587752Y811068D01*
X587705Y810889D01*
X587654Y810714D01*
X587652Y810696D01*
X587648Y810679D01*
X587621Y810348D01*
X587621Y589652D01*
X587623Y589634D01*
X587621Y589616D01*
X587642Y589434D01*
X587661Y589251D01*
X587666Y589234D01*
X587668Y589217D01*
X587725Y589042D01*
X587779Y588866D01*
X587787Y588851D01*
X587793Y588834D01*
X587883Y588674D01*
X587971Y588512D01*
X587982Y588499D01*
X587991Y588483D01*
X588111Y588344D01*
X588228Y588203D01*
X588242Y588192D01*
X588254Y588178D01*
X588399Y588066D01*
X588542Y587951D01*
X588558Y587943D01*
X588572Y587932D01*
X588737Y587850D01*
X588899Y587765D01*
X588916Y587760D01*
X588932Y587752D01*
X589111Y587705D01*
X589286Y587654D01*
X589304Y587652D01*
X589321Y587648D01*
X589652Y587621D01*
X940348Y587621D01*
X940366Y587623D01*
G37*
%LPC*%
G36*
X752835Y705898D02*
X752835Y705898D01*
X744819Y709219D01*
X738683Y715355D01*
X735362Y723371D01*
X735362Y732049D01*
X738683Y740065D01*
X744819Y746201D01*
X749759Y748247D01*
X749759Y748248D01*
X751905Y749136D01*
X752037Y749207D01*
X752174Y749272D01*
X752215Y749302D01*
X752260Y749326D01*
X752376Y749422D01*
X752497Y749512D01*
X752531Y749550D01*
X752570Y749583D01*
X752665Y749700D01*
X752766Y749812D01*
X752792Y749856D01*
X752824Y749895D01*
X752894Y750029D01*
X752970Y750159D01*
X752987Y750207D01*
X753011Y750252D01*
X753053Y750396D01*
X753103Y750539D01*
X753110Y750589D01*
X753124Y750638D01*
X753137Y750789D01*
X753157Y750938D01*
X753154Y750989D01*
X753159Y751040D01*
X753142Y751189D01*
X753132Y751340D01*
X753119Y751389D01*
X753113Y751440D01*
X753067Y751583D01*
X753028Y751729D01*
X753004Y751781D01*
X752990Y751823D01*
X752949Y751897D01*
X752887Y752029D01*
X752450Y752784D01*
X750823Y758857D01*
X750823Y765143D01*
X752450Y771216D01*
X755594Y776661D01*
X760039Y781106D01*
X765484Y784250D01*
X771557Y785877D01*
X777843Y785877D01*
X783916Y784250D01*
X789361Y781106D01*
X793806Y776661D01*
X796950Y771216D01*
X798577Y765143D01*
X798577Y758857D01*
X796950Y752784D01*
X793806Y747339D01*
X789361Y742894D01*
X783916Y739750D01*
X778844Y738391D01*
X778703Y738338D01*
X778560Y738292D01*
X778515Y738267D01*
X778467Y738249D01*
X778340Y738169D01*
X778208Y738096D01*
X778169Y738063D01*
X778126Y738035D01*
X778017Y737932D01*
X777902Y737834D01*
X777871Y737794D01*
X777834Y737759D01*
X777747Y737635D01*
X777654Y737517D01*
X777631Y737471D01*
X777602Y737430D01*
X777541Y737292D01*
X777473Y737157D01*
X777460Y737108D01*
X777439Y737061D01*
X777407Y736914D01*
X777367Y736769D01*
X777364Y736718D01*
X777353Y736668D01*
X777350Y736518D01*
X777339Y736367D01*
X777346Y736316D01*
X777345Y736265D01*
X777372Y736118D01*
X777392Y735968D01*
X777409Y735913D01*
X777417Y735869D01*
X777449Y735790D01*
X777493Y735652D01*
X778986Y732049D01*
X778986Y723371D01*
X775665Y715355D01*
X769529Y709219D01*
X761513Y705898D01*
X752835Y705898D01*
G37*
%LPD*%
%LPC*%
G36*
X660622Y623995D02*
X660622Y623995D01*
X650961Y633656D01*
X650947Y633667D01*
X650936Y633681D01*
X650792Y633795D01*
X650650Y633911D01*
X650634Y633920D01*
X650620Y633931D01*
X650456Y634014D01*
X650294Y634100D01*
X650277Y634105D01*
X650261Y634113D01*
X650084Y634162D01*
X649908Y634215D01*
X649890Y634216D01*
X649873Y634221D01*
X649690Y634234D01*
X649507Y634251D01*
X649489Y634249D01*
X649472Y634250D01*
X649290Y634227D01*
X649107Y634208D01*
X649090Y634202D01*
X649072Y634200D01*
X648898Y634142D01*
X648723Y634086D01*
X648707Y634077D01*
X648691Y634072D01*
X648532Y633980D01*
X648371Y633891D01*
X648357Y633880D01*
X648342Y633871D01*
X648089Y633656D01*
X645888Y631455D01*
X644131Y631455D01*
X644131Y640600D01*
X644131Y649745D01*
X645888Y649745D01*
X648089Y647544D01*
X648103Y647533D01*
X648114Y647519D01*
X648258Y647405D01*
X648400Y647289D01*
X648416Y647280D01*
X648430Y647269D01*
X648594Y647186D01*
X648756Y647100D01*
X648773Y647095D01*
X648789Y647087D01*
X648966Y647038D01*
X649142Y646985D01*
X649160Y646984D01*
X649177Y646979D01*
X649360Y646966D01*
X649543Y646949D01*
X649561Y646951D01*
X649578Y646950D01*
X649760Y646973D01*
X649943Y646992D01*
X649960Y646998D01*
X649978Y647000D01*
X650152Y647058D01*
X650327Y647114D01*
X650343Y647123D01*
X650359Y647128D01*
X650519Y647220D01*
X650679Y647309D01*
X650693Y647320D01*
X650708Y647329D01*
X650961Y647544D01*
X657381Y653964D01*
X657392Y653978D01*
X657406Y653989D01*
X657520Y654133D01*
X657636Y654275D01*
X657644Y654291D01*
X657656Y654305D01*
X657739Y654469D01*
X657825Y654631D01*
X657830Y654648D01*
X657838Y654664D01*
X657887Y654841D01*
X657940Y655017D01*
X657941Y655035D01*
X657946Y655052D01*
X657959Y655235D01*
X657976Y655418D01*
X657974Y655436D01*
X657975Y655453D01*
X657952Y655635D01*
X657933Y655818D01*
X657927Y655835D01*
X657925Y655853D01*
X657867Y656027D01*
X657811Y656202D01*
X657802Y656218D01*
X657797Y656234D01*
X657705Y656394D01*
X657616Y656554D01*
X657605Y656568D01*
X657596Y656583D01*
X657381Y656836D01*
X651461Y662756D01*
X651447Y662767D01*
X651436Y662781D01*
X651292Y662895D01*
X651150Y663011D01*
X651134Y663020D01*
X651120Y663031D01*
X650956Y663114D01*
X650794Y663200D01*
X650777Y663205D01*
X650761Y663213D01*
X650584Y663262D01*
X650408Y663315D01*
X650390Y663316D01*
X650373Y663321D01*
X650190Y663334D01*
X650007Y663351D01*
X649989Y663349D01*
X649972Y663350D01*
X649790Y663327D01*
X649607Y663308D01*
X649590Y663302D01*
X649572Y663300D01*
X649398Y663242D01*
X649223Y663186D01*
X649207Y663177D01*
X649191Y663172D01*
X649032Y663080D01*
X648871Y662991D01*
X648857Y662980D01*
X648842Y662971D01*
X648589Y662756D01*
X646388Y660555D01*
X644631Y660555D01*
X644631Y669700D01*
X644631Y678845D01*
X646388Y678845D01*
X648589Y676644D01*
X648602Y676633D01*
X648614Y676619D01*
X648758Y676505D01*
X648900Y676389D01*
X648916Y676380D01*
X648930Y676369D01*
X649094Y676286D01*
X649256Y676200D01*
X649273Y676195D01*
X649289Y676187D01*
X649466Y676138D01*
X649642Y676085D01*
X649660Y676084D01*
X649677Y676079D01*
X649860Y676066D01*
X650043Y676049D01*
X650061Y676051D01*
X650078Y676050D01*
X650260Y676073D01*
X650443Y676092D01*
X650460Y676098D01*
X650478Y676100D01*
X650652Y676158D01*
X650827Y676214D01*
X650843Y676223D01*
X650859Y676228D01*
X651019Y676320D01*
X651179Y676409D01*
X651193Y676420D01*
X651208Y676429D01*
X651461Y676644D01*
X661122Y686305D01*
X674878Y686305D01*
X684605Y676578D01*
X684605Y662822D01*
X678119Y656336D01*
X678108Y656323D01*
X678094Y656311D01*
X677980Y656167D01*
X677864Y656025D01*
X677856Y656009D01*
X677844Y655995D01*
X677761Y655831D01*
X677675Y655669D01*
X677670Y655652D01*
X677662Y655636D01*
X677613Y655459D01*
X677560Y655283D01*
X677559Y655265D01*
X677554Y655248D01*
X677541Y655065D01*
X677524Y654882D01*
X677526Y654864D01*
X677525Y654847D01*
X677548Y654664D01*
X677567Y654482D01*
X677573Y654465D01*
X677575Y654447D01*
X677633Y654274D01*
X677689Y654098D01*
X677698Y654082D01*
X677703Y654066D01*
X677795Y653906D01*
X677884Y653746D01*
X677895Y653732D01*
X677904Y653717D01*
X678119Y653464D01*
X684105Y647478D01*
X684105Y633722D01*
X674378Y623995D01*
X660622Y623995D01*
G37*
%LPD*%
%LPC*%
G36*
X633455Y671731D02*
X633455Y671731D01*
X633455Y673488D01*
X638812Y678845D01*
X640569Y678845D01*
X640569Y671731D01*
X633455Y671731D01*
G37*
%LPD*%
%LPC*%
G36*
X632955Y642631D02*
X632955Y642631D01*
X632955Y644388D01*
X638312Y649745D01*
X640069Y649745D01*
X640069Y642631D01*
X632955Y642631D01*
G37*
%LPD*%
%LPC*%
G36*
X638812Y660555D02*
X638812Y660555D01*
X633455Y665912D01*
X633455Y667669D01*
X640569Y667669D01*
X640569Y660555D01*
X638812Y660555D01*
G37*
%LPD*%
%LPC*%
G36*
X638312Y631455D02*
X638312Y631455D01*
X632955Y636812D01*
X632955Y638569D01*
X640069Y638569D01*
X640069Y631455D01*
X638312Y631455D01*
G37*
%LPD*%
%LPC*%
G36*
X800380Y709405D02*
X800380Y709405D01*
X798935Y709874D01*
X797581Y710564D01*
X796352Y711457D01*
X795277Y712532D01*
X794384Y713761D01*
X793694Y715115D01*
X793225Y716560D01*
X793219Y716598D01*
X800418Y716598D01*
X800418Y709399D01*
X800380Y709405D01*
G37*
%LPD*%
D10*
X668000Y669700D03*
X642600Y669700D03*
X667500Y640600D03*
X642100Y640600D03*
D11*
X873760Y736600D03*
X863600Y718820D03*
X853440Y736600D03*
X843280Y718820D03*
X833120Y736600D03*
X822960Y718820D03*
X812800Y736600D03*
X802640Y718820D03*
D12*
X757174Y727710D03*
X919226Y727710D03*
D13*
X717000Y729000D03*
X758000Y667500D03*
X909000Y611500D03*
X618000Y654000D03*
M02*
