M48
;GenerationSoftware,Autodesk,EAGLE,8.6.3*%
;CreationDate,2019-03-24T10:24:12Z*%
FMAT,2
ICI,OFF
METRIC,TZ,000.000
T5C0.889
T4C0.914
T3C1.000
T2C1.575
T1C3.251
%
G90
M71
T1
X9810Y17410
X9810Y4710
T2
X13239Y2957
X13239Y19163
T3
X2000Y12000
X34500Y6800
X5400Y22500
X25500Y8700
X23600Y3600
X25000Y16000
T4
X5350Y26960
X5350Y29500
X7890Y26960
X7890Y29500
X10430Y26960
X10430Y29500
X12970Y26960
X12970Y29500
X15510Y26960
X15510Y29500
X18050Y26960
X18050Y29500
X20590Y26960
X20590Y29500
X23130Y26960
X23130Y29500
X25670Y26960
X25670Y29500
X28210Y26960
X28210Y29500
X30750Y26960
X30750Y29500
X33290Y26960
X33290Y29500
X35830Y26960
X35830Y29500
X38370Y26960
X38370Y29500
X40910Y26960
X40910Y29500
X43450Y26960
X43450Y29500
X45990Y26960
X2810Y26960
X48530Y26960
X48530Y29500
X51070Y26960
X51070Y29500
X45990Y29500
X2810Y29500
T5
X12350Y7504
X14128Y10552
X12350Y11568
X14128Y12584
X12350Y13600
X14128Y14616
X14128Y8520
X12350Y9536
M30