G04 EAGLE Gerber X2 export*
%TF.Part,Single*%
%TF.FileFunction,Legend,Bot,1*%
%TF.FilePolarity,Positive*%
%TF.GenerationSoftware,Autodesk,EAGLE,8.6.3*%
%TF.CreationDate,2019-03-24T10:24:13Z*%
G75*
%MOMM*%
%FSLAX34Y34*%
%LPD*%
%AMOC8*
5,1,8,0,0,1.08239X$1,22.5*%
G01*
%ADD10C,0.152400*%
%ADD11C,0.127000*%


D10*
X15400Y306430D02*
X15400Y258170D01*
X15402Y258012D01*
X15408Y257853D01*
X15418Y257695D01*
X15432Y257538D01*
X15449Y257380D01*
X15471Y257224D01*
X15496Y257067D01*
X15526Y256912D01*
X15559Y256757D01*
X15596Y256603D01*
X15637Y256450D01*
X15682Y256298D01*
X15731Y256148D01*
X15783Y255998D01*
X15839Y255850D01*
X15899Y255703D01*
X15962Y255558D01*
X16029Y255415D01*
X16099Y255273D01*
X16173Y255133D01*
X16251Y254995D01*
X16332Y254859D01*
X16416Y254725D01*
X16503Y254593D01*
X16594Y254463D01*
X16688Y254336D01*
X16785Y254211D01*
X16886Y254088D01*
X16989Y253968D01*
X17095Y253851D01*
X17204Y253736D01*
X17316Y253624D01*
X17431Y253515D01*
X17548Y253409D01*
X17668Y253306D01*
X17791Y253205D01*
X17916Y253108D01*
X18043Y253014D01*
X18173Y252923D01*
X18305Y252836D01*
X18439Y252752D01*
X18575Y252671D01*
X18713Y252593D01*
X18853Y252519D01*
X18995Y252449D01*
X19138Y252382D01*
X19283Y252319D01*
X19430Y252259D01*
X19578Y252203D01*
X19728Y252151D01*
X19878Y252102D01*
X20030Y252057D01*
X20183Y252016D01*
X20337Y251979D01*
X20492Y251946D01*
X20647Y251916D01*
X20804Y251891D01*
X20960Y251869D01*
X21118Y251852D01*
X21275Y251838D01*
X21433Y251828D01*
X21592Y251822D01*
X21750Y251820D01*
X15400Y306430D02*
X15402Y306588D01*
X15408Y306747D01*
X15418Y306905D01*
X15432Y307062D01*
X15449Y307220D01*
X15471Y307376D01*
X15496Y307533D01*
X15526Y307688D01*
X15559Y307843D01*
X15596Y307997D01*
X15637Y308150D01*
X15682Y308302D01*
X15731Y308452D01*
X15783Y308602D01*
X15839Y308750D01*
X15899Y308897D01*
X15962Y309042D01*
X16029Y309185D01*
X16099Y309327D01*
X16173Y309467D01*
X16251Y309605D01*
X16332Y309741D01*
X16416Y309875D01*
X16503Y310007D01*
X16594Y310137D01*
X16688Y310264D01*
X16785Y310389D01*
X16886Y310512D01*
X16989Y310632D01*
X17095Y310749D01*
X17204Y310864D01*
X17316Y310976D01*
X17431Y311085D01*
X17548Y311191D01*
X17668Y311294D01*
X17791Y311395D01*
X17916Y311492D01*
X18043Y311586D01*
X18173Y311677D01*
X18305Y311764D01*
X18439Y311848D01*
X18575Y311929D01*
X18713Y312007D01*
X18853Y312081D01*
X18995Y312151D01*
X19138Y312218D01*
X19283Y312281D01*
X19430Y312341D01*
X19578Y312397D01*
X19728Y312449D01*
X19878Y312498D01*
X20030Y312543D01*
X20183Y312584D01*
X20337Y312621D01*
X20492Y312654D01*
X20647Y312684D01*
X20804Y312709D01*
X20960Y312731D01*
X21118Y312748D01*
X21275Y312762D01*
X21433Y312772D01*
X21592Y312778D01*
X21750Y312780D01*
X21750Y251820D02*
X517050Y251820D01*
X523400Y258170D02*
X523400Y306430D01*
X517050Y312780D02*
X21750Y312780D01*
X517050Y251820D02*
X517208Y251822D01*
X517367Y251828D01*
X517525Y251838D01*
X517682Y251852D01*
X517840Y251869D01*
X517996Y251891D01*
X518153Y251916D01*
X518308Y251946D01*
X518463Y251979D01*
X518617Y252016D01*
X518770Y252057D01*
X518922Y252102D01*
X519072Y252151D01*
X519222Y252203D01*
X519370Y252259D01*
X519517Y252319D01*
X519662Y252382D01*
X519805Y252449D01*
X519947Y252519D01*
X520087Y252593D01*
X520225Y252671D01*
X520361Y252752D01*
X520495Y252836D01*
X520627Y252923D01*
X520757Y253014D01*
X520884Y253108D01*
X521009Y253205D01*
X521132Y253306D01*
X521252Y253409D01*
X521369Y253515D01*
X521484Y253624D01*
X521596Y253736D01*
X521705Y253851D01*
X521811Y253968D01*
X521914Y254088D01*
X522015Y254211D01*
X522112Y254336D01*
X522206Y254463D01*
X522297Y254593D01*
X522384Y254725D01*
X522468Y254859D01*
X522549Y254995D01*
X522627Y255133D01*
X522701Y255273D01*
X522771Y255415D01*
X522838Y255558D01*
X522901Y255703D01*
X522961Y255850D01*
X523017Y255998D01*
X523069Y256148D01*
X523118Y256298D01*
X523163Y256450D01*
X523204Y256603D01*
X523241Y256757D01*
X523274Y256912D01*
X523304Y257067D01*
X523329Y257224D01*
X523351Y257380D01*
X523368Y257538D01*
X523382Y257695D01*
X523392Y257853D01*
X523398Y258012D01*
X523400Y258170D01*
X523400Y306430D02*
X523398Y306588D01*
X523392Y306747D01*
X523382Y306905D01*
X523368Y307062D01*
X523351Y307220D01*
X523329Y307376D01*
X523304Y307533D01*
X523274Y307688D01*
X523241Y307843D01*
X523204Y307997D01*
X523163Y308150D01*
X523118Y308302D01*
X523069Y308452D01*
X523017Y308602D01*
X522961Y308750D01*
X522901Y308897D01*
X522838Y309042D01*
X522771Y309185D01*
X522701Y309327D01*
X522627Y309467D01*
X522549Y309605D01*
X522468Y309741D01*
X522384Y309875D01*
X522297Y310007D01*
X522206Y310137D01*
X522112Y310264D01*
X522015Y310389D01*
X521914Y310512D01*
X521811Y310632D01*
X521705Y310749D01*
X521596Y310864D01*
X521484Y310976D01*
X521369Y311085D01*
X521252Y311191D01*
X521132Y311294D01*
X521009Y311395D01*
X520884Y311492D01*
X520757Y311586D01*
X520627Y311677D01*
X520495Y311764D01*
X520361Y311848D01*
X520225Y311929D01*
X520087Y312007D01*
X519947Y312081D01*
X519805Y312151D01*
X519662Y312218D01*
X519517Y312281D01*
X519370Y312341D01*
X519222Y312397D01*
X519072Y312449D01*
X518922Y312498D01*
X518770Y312543D01*
X518617Y312584D01*
X518463Y312621D01*
X518308Y312654D01*
X518153Y312684D01*
X517996Y312709D01*
X517840Y312731D01*
X517682Y312748D01*
X517525Y312762D01*
X517367Y312772D01*
X517208Y312778D01*
X517050Y312780D01*
D11*
X91854Y235945D02*
X91754Y235947D01*
X91655Y235953D01*
X91555Y235963D01*
X91457Y235976D01*
X91358Y235994D01*
X91261Y236015D01*
X91165Y236040D01*
X91069Y236069D01*
X90975Y236102D01*
X90882Y236138D01*
X90791Y236178D01*
X90701Y236222D01*
X90613Y236269D01*
X90527Y236319D01*
X90443Y236373D01*
X90361Y236430D01*
X90282Y236490D01*
X90204Y236554D01*
X90130Y236620D01*
X90058Y236689D01*
X89989Y236761D01*
X89923Y236835D01*
X89859Y236913D01*
X89799Y236992D01*
X89742Y237074D01*
X89688Y237158D01*
X89638Y237244D01*
X89591Y237332D01*
X89547Y237422D01*
X89507Y237513D01*
X89471Y237606D01*
X89438Y237700D01*
X89409Y237796D01*
X89384Y237892D01*
X89363Y237989D01*
X89345Y238088D01*
X89332Y238186D01*
X89322Y238286D01*
X89316Y238385D01*
X89314Y238485D01*
X91854Y235945D02*
X91995Y235947D01*
X92136Y235952D01*
X92277Y235962D01*
X92418Y235975D01*
X92558Y235991D01*
X92698Y236012D01*
X92837Y236036D01*
X92976Y236064D01*
X93113Y236095D01*
X93250Y236130D01*
X93386Y236168D01*
X93521Y236210D01*
X93654Y236256D01*
X93787Y236305D01*
X93918Y236358D01*
X94047Y236414D01*
X94176Y236473D01*
X94302Y236536D01*
X94427Y236602D01*
X94550Y236671D01*
X94671Y236744D01*
X94790Y236820D01*
X94908Y236899D01*
X95023Y236980D01*
X95135Y237065D01*
X95246Y237153D01*
X95354Y237244D01*
X95460Y237337D01*
X95563Y237434D01*
X95664Y237533D01*
X95347Y244835D02*
X95345Y244935D01*
X95339Y245034D01*
X95329Y245134D01*
X95316Y245232D01*
X95298Y245331D01*
X95277Y245428D01*
X95252Y245524D01*
X95223Y245620D01*
X95190Y245714D01*
X95154Y245807D01*
X95114Y245898D01*
X95070Y245988D01*
X95023Y246076D01*
X94973Y246162D01*
X94919Y246246D01*
X94862Y246328D01*
X94802Y246407D01*
X94738Y246485D01*
X94672Y246559D01*
X94603Y246631D01*
X94531Y246700D01*
X94457Y246766D01*
X94379Y246830D01*
X94300Y246890D01*
X94218Y246947D01*
X94134Y247001D01*
X94048Y247051D01*
X93960Y247098D01*
X93870Y247142D01*
X93779Y247182D01*
X93686Y247218D01*
X93592Y247251D01*
X93496Y247280D01*
X93400Y247305D01*
X93303Y247326D01*
X93204Y247344D01*
X93106Y247357D01*
X93006Y247367D01*
X92907Y247373D01*
X92807Y247375D01*
X92807Y247376D02*
X92674Y247374D01*
X92541Y247369D01*
X92408Y247359D01*
X92275Y247346D01*
X92143Y247329D01*
X92011Y247309D01*
X91880Y247285D01*
X91750Y247257D01*
X91620Y247226D01*
X91492Y247191D01*
X91364Y247152D01*
X91238Y247110D01*
X91113Y247064D01*
X90989Y247015D01*
X90866Y246963D01*
X90745Y246907D01*
X90626Y246847D01*
X90508Y246785D01*
X90393Y246719D01*
X90279Y246650D01*
X90167Y246577D01*
X90057Y246502D01*
X89949Y246423D01*
X94077Y242612D02*
X94161Y242664D01*
X94244Y242719D01*
X94324Y242778D01*
X94402Y242839D01*
X94477Y242903D01*
X94550Y242971D01*
X94621Y243041D01*
X94688Y243113D01*
X94753Y243188D01*
X94815Y243266D01*
X94874Y243346D01*
X94930Y243428D01*
X94982Y243512D01*
X95031Y243598D01*
X95077Y243686D01*
X95120Y243776D01*
X95159Y243867D01*
X95194Y243960D01*
X95226Y244054D01*
X95254Y244149D01*
X95279Y244245D01*
X95299Y244342D01*
X95317Y244440D01*
X95330Y244538D01*
X95339Y244637D01*
X95345Y244736D01*
X95347Y244835D01*
X90584Y240708D02*
X90500Y240656D01*
X90417Y240601D01*
X90337Y240542D01*
X90259Y240481D01*
X90184Y240417D01*
X90111Y240349D01*
X90040Y240279D01*
X89973Y240207D01*
X89908Y240132D01*
X89846Y240054D01*
X89787Y239974D01*
X89731Y239892D01*
X89679Y239808D01*
X89630Y239722D01*
X89584Y239634D01*
X89541Y239544D01*
X89502Y239453D01*
X89467Y239360D01*
X89435Y239266D01*
X89407Y239171D01*
X89382Y239075D01*
X89362Y238978D01*
X89344Y238880D01*
X89331Y238782D01*
X89322Y238683D01*
X89316Y238584D01*
X89314Y238485D01*
X90584Y240708D02*
X94077Y242613D01*
X85250Y247375D02*
X81440Y235945D01*
X77630Y247375D01*
X73185Y244835D02*
X70010Y247375D01*
X70010Y235945D01*
X73185Y235945D02*
X66835Y235945D01*
X31275Y244835D02*
X28100Y247375D01*
X28100Y235945D01*
X31275Y235945D02*
X24925Y235945D01*
X517685Y328655D02*
X520225Y319765D01*
X513875Y319765D01*
X515780Y322305D02*
X515780Y317225D01*
X508795Y322940D02*
X508792Y323165D01*
X508784Y323390D01*
X508771Y323614D01*
X508752Y323838D01*
X508728Y324062D01*
X508699Y324285D01*
X508664Y324507D01*
X508624Y324728D01*
X508578Y324948D01*
X508528Y325167D01*
X508472Y325385D01*
X508411Y325602D01*
X508345Y325817D01*
X508274Y326030D01*
X508197Y326241D01*
X508116Y326451D01*
X508030Y326659D01*
X507939Y326864D01*
X507843Y327067D01*
X507843Y327068D02*
X507811Y327156D01*
X507775Y327243D01*
X507736Y327329D01*
X507693Y327413D01*
X507647Y327495D01*
X507598Y327575D01*
X507546Y327653D01*
X507490Y327729D01*
X507432Y327803D01*
X507370Y327874D01*
X507306Y327943D01*
X507239Y328009D01*
X507170Y328072D01*
X507098Y328133D01*
X507024Y328191D01*
X506947Y328245D01*
X506869Y328297D01*
X506788Y328345D01*
X506706Y328390D01*
X506621Y328432D01*
X506535Y328470D01*
X506448Y328505D01*
X506360Y328537D01*
X506270Y328564D01*
X506179Y328589D01*
X506087Y328609D01*
X505995Y328626D01*
X505901Y328639D01*
X505808Y328648D01*
X505714Y328654D01*
X505620Y328656D01*
X505526Y328654D01*
X505432Y328648D01*
X505339Y328639D01*
X505245Y328626D01*
X505153Y328609D01*
X505061Y328589D01*
X504970Y328564D01*
X504880Y328537D01*
X504792Y328505D01*
X504705Y328470D01*
X504619Y328432D01*
X504534Y328390D01*
X504452Y328345D01*
X504371Y328297D01*
X504293Y328245D01*
X504216Y328191D01*
X504142Y328133D01*
X504070Y328072D01*
X504001Y328009D01*
X503934Y327943D01*
X503870Y327874D01*
X503808Y327803D01*
X503750Y327729D01*
X503694Y327653D01*
X503642Y327575D01*
X503593Y327495D01*
X503547Y327413D01*
X503504Y327329D01*
X503465Y327243D01*
X503429Y327156D01*
X503397Y327068D01*
X503397Y327067D02*
X503301Y326864D01*
X503210Y326659D01*
X503124Y326451D01*
X503043Y326241D01*
X502966Y326030D01*
X502895Y325817D01*
X502829Y325602D01*
X502768Y325385D01*
X502712Y325167D01*
X502662Y324948D01*
X502616Y324728D01*
X502576Y324507D01*
X502541Y324285D01*
X502512Y324062D01*
X502488Y323838D01*
X502469Y323614D01*
X502456Y323390D01*
X502448Y323165D01*
X502445Y322940D01*
X508795Y322940D02*
X508792Y322715D01*
X508784Y322490D01*
X508771Y322266D01*
X508752Y322042D01*
X508728Y321818D01*
X508699Y321595D01*
X508664Y321373D01*
X508624Y321152D01*
X508578Y320932D01*
X508528Y320713D01*
X508472Y320495D01*
X508411Y320278D01*
X508345Y320063D01*
X508274Y319850D01*
X508197Y319639D01*
X508116Y319429D01*
X508030Y319221D01*
X507939Y319016D01*
X507843Y318813D01*
X507811Y318725D01*
X507775Y318638D01*
X507736Y318552D01*
X507693Y318468D01*
X507647Y318386D01*
X507598Y318306D01*
X507546Y318228D01*
X507490Y318152D01*
X507432Y318078D01*
X507370Y318007D01*
X507306Y317938D01*
X507239Y317872D01*
X507170Y317809D01*
X507098Y317748D01*
X507024Y317690D01*
X506947Y317636D01*
X506869Y317584D01*
X506788Y317536D01*
X506706Y317491D01*
X506621Y317449D01*
X506535Y317411D01*
X506448Y317376D01*
X506360Y317344D01*
X506270Y317317D01*
X506179Y317292D01*
X506087Y317272D01*
X505995Y317255D01*
X505901Y317242D01*
X505808Y317233D01*
X505714Y317227D01*
X505620Y317225D01*
X503397Y318813D02*
X503301Y319016D01*
X503210Y319221D01*
X503124Y319429D01*
X503043Y319639D01*
X502966Y319850D01*
X502895Y320063D01*
X502829Y320278D01*
X502768Y320495D01*
X502712Y320713D01*
X502662Y320932D01*
X502616Y321152D01*
X502576Y321373D01*
X502541Y321595D01*
X502512Y321818D01*
X502488Y322042D01*
X502469Y322266D01*
X502456Y322490D01*
X502448Y322715D01*
X502445Y322940D01*
X503397Y318813D02*
X503429Y318725D01*
X503465Y318638D01*
X503504Y318552D01*
X503547Y318468D01*
X503593Y318386D01*
X503642Y318306D01*
X503694Y318228D01*
X503750Y318152D01*
X503808Y318078D01*
X503870Y318007D01*
X503934Y317938D01*
X504001Y317872D01*
X504070Y317809D01*
X504142Y317748D01*
X504216Y317690D01*
X504293Y317636D01*
X504371Y317584D01*
X504452Y317536D01*
X504534Y317491D01*
X504619Y317449D01*
X504705Y317411D01*
X504792Y317376D01*
X504880Y317344D01*
X504970Y317317D01*
X505061Y317292D01*
X505153Y317272D01*
X505245Y317255D01*
X505339Y317242D01*
X505432Y317233D01*
X505526Y317227D01*
X505620Y317225D01*
X508160Y319765D02*
X503080Y326115D01*
M02*
