G04 EAGLE Gerber X2 export*
%TF.Part,Single*%
%TF.FileFunction,Legend,Top,1*%
%TF.FilePolarity,Positive*%
%TF.GenerationSoftware,Autodesk,EAGLE,8.6.3*%
%TF.CreationDate,2019-03-24T10:24:13Z*%
G75*
%MOMM*%
%FSLAX34Y34*%
%LPD*%
%AMOC8*
5,1,8,0,0,1.08239X$1,22.5*%
G01*
%ADD10C,0.076200*%
%ADD11C,0.203200*%
%ADD12C,0.101600*%
%ADD13C,0.050800*%
%ADD14C,0.127000*%


D10*
X302836Y47573D02*
X302914Y47575D01*
X302992Y47580D01*
X303069Y47590D01*
X303146Y47603D01*
X303222Y47619D01*
X303297Y47639D01*
X303371Y47663D01*
X303444Y47690D01*
X303516Y47721D01*
X303586Y47755D01*
X303655Y47792D01*
X303721Y47833D01*
X303786Y47877D01*
X303848Y47923D01*
X303908Y47973D01*
X303966Y48025D01*
X304021Y48080D01*
X304073Y48138D01*
X304123Y48198D01*
X304169Y48260D01*
X304213Y48325D01*
X304254Y48392D01*
X304291Y48460D01*
X304325Y48530D01*
X304356Y48602D01*
X304383Y48675D01*
X304407Y48749D01*
X304427Y48824D01*
X304443Y48900D01*
X304456Y48977D01*
X304466Y49054D01*
X304471Y49132D01*
X304473Y49210D01*
X302836Y47573D02*
X302722Y47575D01*
X302609Y47580D01*
X302495Y47590D01*
X302382Y47603D01*
X302270Y47620D01*
X302158Y47640D01*
X302047Y47664D01*
X301936Y47692D01*
X301827Y47723D01*
X301719Y47758D01*
X301612Y47797D01*
X301506Y47839D01*
X301402Y47884D01*
X301299Y47933D01*
X301198Y47986D01*
X301099Y48041D01*
X301001Y48100D01*
X300906Y48162D01*
X300813Y48227D01*
X300721Y48295D01*
X300633Y48366D01*
X300546Y48440D01*
X300462Y48517D01*
X300381Y48596D01*
X300585Y53302D02*
X300587Y53380D01*
X300592Y53458D01*
X300602Y53535D01*
X300615Y53612D01*
X300631Y53688D01*
X300651Y53763D01*
X300675Y53837D01*
X300702Y53910D01*
X300733Y53982D01*
X300767Y54052D01*
X300804Y54121D01*
X300845Y54187D01*
X300889Y54252D01*
X300935Y54314D01*
X300985Y54374D01*
X301037Y54432D01*
X301092Y54487D01*
X301150Y54539D01*
X301210Y54589D01*
X301272Y54635D01*
X301337Y54679D01*
X301404Y54720D01*
X301472Y54757D01*
X301542Y54791D01*
X301614Y54822D01*
X301687Y54849D01*
X301761Y54873D01*
X301836Y54893D01*
X301912Y54909D01*
X301989Y54922D01*
X302066Y54932D01*
X302144Y54937D01*
X302222Y54939D01*
X302332Y54937D01*
X302441Y54931D01*
X302551Y54921D01*
X302659Y54908D01*
X302768Y54890D01*
X302875Y54869D01*
X302982Y54843D01*
X303088Y54814D01*
X303193Y54782D01*
X303296Y54745D01*
X303398Y54705D01*
X303499Y54661D01*
X303598Y54613D01*
X303695Y54563D01*
X303790Y54508D01*
X303883Y54450D01*
X303974Y54389D01*
X304063Y54325D01*
X301404Y51869D02*
X301337Y51911D01*
X301272Y51955D01*
X301210Y52003D01*
X301150Y52053D01*
X301092Y52106D01*
X301037Y52162D01*
X300985Y52221D01*
X300935Y52281D01*
X300888Y52345D01*
X300845Y52410D01*
X300804Y52477D01*
X300767Y52546D01*
X300733Y52617D01*
X300702Y52689D01*
X300675Y52763D01*
X300651Y52837D01*
X300631Y52913D01*
X300615Y52990D01*
X300602Y53067D01*
X300592Y53145D01*
X300587Y53224D01*
X300585Y53302D01*
X303655Y50642D02*
X303721Y50600D01*
X303786Y50556D01*
X303848Y50509D01*
X303908Y50458D01*
X303966Y50405D01*
X304021Y50349D01*
X304074Y50291D01*
X304123Y50230D01*
X304170Y50167D01*
X304213Y50102D01*
X304254Y50035D01*
X304291Y49966D01*
X304325Y49895D01*
X304356Y49823D01*
X304383Y49749D01*
X304407Y49674D01*
X304427Y49599D01*
X304443Y49522D01*
X304456Y49445D01*
X304466Y49367D01*
X304471Y49288D01*
X304473Y49210D01*
X303655Y50642D02*
X301404Y51870D01*
X306744Y52484D02*
X309199Y52484D01*
X307562Y54939D02*
X307562Y48801D01*
X307564Y48732D01*
X307570Y48664D01*
X307579Y48595D01*
X307593Y48528D01*
X307610Y48461D01*
X307631Y48395D01*
X307655Y48331D01*
X307684Y48268D01*
X307715Y48207D01*
X307750Y48148D01*
X307788Y48090D01*
X307830Y48035D01*
X307874Y47983D01*
X307922Y47933D01*
X307972Y47885D01*
X308024Y47841D01*
X308079Y47799D01*
X308137Y47761D01*
X308196Y47726D01*
X308257Y47695D01*
X308320Y47666D01*
X308384Y47642D01*
X308450Y47621D01*
X308517Y47604D01*
X308584Y47590D01*
X308653Y47581D01*
X308721Y47575D01*
X308790Y47573D01*
X309199Y47573D01*
X312297Y47573D02*
X312297Y52484D01*
X314752Y52484D01*
X314752Y51665D01*
X318355Y47573D02*
X320401Y47573D01*
X318355Y47573D02*
X318286Y47575D01*
X318218Y47581D01*
X318149Y47590D01*
X318082Y47604D01*
X318015Y47621D01*
X317949Y47642D01*
X317885Y47666D01*
X317822Y47695D01*
X317761Y47726D01*
X317702Y47761D01*
X317644Y47799D01*
X317589Y47841D01*
X317537Y47885D01*
X317487Y47933D01*
X317439Y47983D01*
X317395Y48035D01*
X317353Y48090D01*
X317315Y48148D01*
X317280Y48207D01*
X317249Y48268D01*
X317220Y48331D01*
X317196Y48395D01*
X317175Y48461D01*
X317158Y48528D01*
X317144Y48595D01*
X317135Y48664D01*
X317129Y48732D01*
X317127Y48801D01*
X317127Y50847D01*
X317129Y50926D01*
X317135Y51005D01*
X317144Y51084D01*
X317157Y51162D01*
X317175Y51239D01*
X317195Y51315D01*
X317220Y51390D01*
X317248Y51464D01*
X317279Y51537D01*
X317315Y51608D01*
X317353Y51677D01*
X317395Y51744D01*
X317440Y51809D01*
X317488Y51872D01*
X317539Y51933D01*
X317593Y51990D01*
X317649Y52046D01*
X317708Y52098D01*
X317770Y52148D01*
X317834Y52194D01*
X317900Y52238D01*
X317968Y52278D01*
X318038Y52314D01*
X318110Y52348D01*
X318184Y52378D01*
X318258Y52404D01*
X318334Y52427D01*
X318411Y52445D01*
X318488Y52461D01*
X318567Y52472D01*
X318645Y52480D01*
X318724Y52484D01*
X318804Y52484D01*
X318883Y52480D01*
X318961Y52472D01*
X319040Y52461D01*
X319117Y52445D01*
X319194Y52427D01*
X319270Y52404D01*
X319344Y52378D01*
X319418Y52348D01*
X319490Y52314D01*
X319560Y52278D01*
X319628Y52238D01*
X319694Y52194D01*
X319758Y52148D01*
X319820Y52098D01*
X319879Y52046D01*
X319935Y51990D01*
X319989Y51933D01*
X320040Y51872D01*
X320088Y51809D01*
X320133Y51744D01*
X320175Y51677D01*
X320213Y51608D01*
X320249Y51537D01*
X320280Y51464D01*
X320308Y51390D01*
X320333Y51315D01*
X320353Y51239D01*
X320371Y51162D01*
X320384Y51084D01*
X320393Y51005D01*
X320399Y50926D01*
X320401Y50847D01*
X320401Y50028D01*
X317127Y50028D01*
X324081Y50438D02*
X326127Y49619D01*
X324081Y50438D02*
X324022Y50463D01*
X323965Y50492D01*
X323910Y50525D01*
X323857Y50561D01*
X323806Y50599D01*
X323758Y50641D01*
X323712Y50686D01*
X323669Y50733D01*
X323629Y50783D01*
X323592Y50835D01*
X323558Y50890D01*
X323527Y50946D01*
X323500Y51004D01*
X323477Y51064D01*
X323457Y51124D01*
X323441Y51186D01*
X323428Y51249D01*
X323420Y51313D01*
X323415Y51376D01*
X323414Y51440D01*
X323417Y51504D01*
X323424Y51568D01*
X323435Y51631D01*
X323449Y51693D01*
X323467Y51755D01*
X323489Y51815D01*
X323514Y51874D01*
X323543Y51931D01*
X323576Y51986D01*
X323611Y52039D01*
X323650Y52090D01*
X323692Y52139D01*
X323736Y52185D01*
X323784Y52228D01*
X323833Y52268D01*
X323886Y52305D01*
X323940Y52339D01*
X323996Y52370D01*
X324054Y52397D01*
X324113Y52421D01*
X324174Y52440D01*
X324236Y52457D01*
X324299Y52469D01*
X324362Y52478D01*
X324426Y52483D01*
X324490Y52484D01*
X324626Y52480D01*
X324761Y52472D01*
X324897Y52460D01*
X325031Y52444D01*
X325166Y52424D01*
X325299Y52401D01*
X325432Y52373D01*
X325564Y52342D01*
X325695Y52307D01*
X325825Y52268D01*
X325954Y52225D01*
X326081Y52178D01*
X326207Y52128D01*
X326332Y52074D01*
X326127Y49619D02*
X326186Y49594D01*
X326243Y49565D01*
X326298Y49532D01*
X326351Y49496D01*
X326402Y49458D01*
X326450Y49416D01*
X326496Y49371D01*
X326539Y49324D01*
X326579Y49274D01*
X326616Y49222D01*
X326650Y49167D01*
X326681Y49111D01*
X326708Y49053D01*
X326731Y48993D01*
X326751Y48933D01*
X326767Y48871D01*
X326780Y48808D01*
X326788Y48744D01*
X326793Y48681D01*
X326794Y48617D01*
X326791Y48553D01*
X326784Y48489D01*
X326773Y48426D01*
X326759Y48364D01*
X326741Y48302D01*
X326719Y48242D01*
X326694Y48183D01*
X326665Y48126D01*
X326632Y48071D01*
X326597Y48018D01*
X326558Y47967D01*
X326516Y47918D01*
X326472Y47872D01*
X326424Y47829D01*
X326375Y47789D01*
X326322Y47752D01*
X326268Y47718D01*
X326212Y47687D01*
X326154Y47660D01*
X326095Y47636D01*
X326034Y47617D01*
X325972Y47600D01*
X325909Y47588D01*
X325846Y47579D01*
X325782Y47574D01*
X325718Y47573D01*
X325554Y47577D01*
X325390Y47585D01*
X325226Y47597D01*
X325063Y47613D01*
X324900Y47633D01*
X324737Y47656D01*
X324576Y47684D01*
X324414Y47715D01*
X324254Y47750D01*
X324095Y47789D01*
X323936Y47832D01*
X323779Y47878D01*
X323622Y47928D01*
X323467Y47982D01*
X330421Y50438D02*
X332467Y49619D01*
X330421Y50438D02*
X330362Y50463D01*
X330305Y50492D01*
X330250Y50525D01*
X330197Y50561D01*
X330146Y50599D01*
X330098Y50641D01*
X330052Y50686D01*
X330009Y50733D01*
X329969Y50783D01*
X329932Y50835D01*
X329898Y50890D01*
X329867Y50946D01*
X329840Y51004D01*
X329817Y51064D01*
X329797Y51124D01*
X329781Y51186D01*
X329768Y51249D01*
X329760Y51313D01*
X329755Y51376D01*
X329754Y51440D01*
X329757Y51504D01*
X329764Y51568D01*
X329775Y51631D01*
X329789Y51693D01*
X329807Y51755D01*
X329829Y51815D01*
X329854Y51874D01*
X329883Y51931D01*
X329916Y51986D01*
X329951Y52039D01*
X329990Y52090D01*
X330032Y52139D01*
X330076Y52185D01*
X330124Y52228D01*
X330173Y52268D01*
X330226Y52305D01*
X330280Y52339D01*
X330336Y52370D01*
X330394Y52397D01*
X330453Y52421D01*
X330514Y52440D01*
X330576Y52457D01*
X330639Y52469D01*
X330702Y52478D01*
X330766Y52483D01*
X330830Y52484D01*
X330966Y52480D01*
X331101Y52472D01*
X331237Y52460D01*
X331371Y52444D01*
X331506Y52424D01*
X331639Y52401D01*
X331772Y52373D01*
X331904Y52342D01*
X332035Y52307D01*
X332165Y52268D01*
X332294Y52225D01*
X332421Y52178D01*
X332547Y52128D01*
X332672Y52074D01*
X332467Y49619D02*
X332526Y49594D01*
X332583Y49565D01*
X332638Y49532D01*
X332691Y49496D01*
X332742Y49458D01*
X332790Y49416D01*
X332836Y49371D01*
X332879Y49324D01*
X332919Y49274D01*
X332956Y49222D01*
X332990Y49167D01*
X333021Y49111D01*
X333048Y49053D01*
X333071Y48993D01*
X333091Y48933D01*
X333107Y48871D01*
X333120Y48808D01*
X333128Y48744D01*
X333133Y48681D01*
X333134Y48617D01*
X333131Y48553D01*
X333124Y48489D01*
X333113Y48426D01*
X333099Y48364D01*
X333081Y48302D01*
X333059Y48242D01*
X333034Y48183D01*
X333005Y48126D01*
X332972Y48071D01*
X332937Y48018D01*
X332898Y47967D01*
X332856Y47918D01*
X332812Y47872D01*
X332764Y47829D01*
X332715Y47789D01*
X332662Y47752D01*
X332608Y47718D01*
X332552Y47687D01*
X332494Y47660D01*
X332435Y47636D01*
X332374Y47617D01*
X332312Y47600D01*
X332249Y47588D01*
X332186Y47579D01*
X332122Y47574D01*
X332058Y47573D01*
X331894Y47577D01*
X331730Y47585D01*
X331566Y47597D01*
X331403Y47613D01*
X331240Y47633D01*
X331077Y47656D01*
X330916Y47684D01*
X330754Y47715D01*
X330594Y47750D01*
X330435Y47789D01*
X330276Y47832D01*
X330119Y47878D01*
X329962Y47928D01*
X329807Y47982D01*
X341741Y47573D02*
X343377Y47573D01*
X341741Y47573D02*
X341663Y47575D01*
X341585Y47580D01*
X341508Y47590D01*
X341431Y47603D01*
X341355Y47619D01*
X341280Y47639D01*
X341206Y47663D01*
X341133Y47690D01*
X341061Y47721D01*
X340991Y47755D01*
X340923Y47792D01*
X340856Y47833D01*
X340791Y47877D01*
X340729Y47923D01*
X340669Y47973D01*
X340611Y48025D01*
X340556Y48080D01*
X340504Y48138D01*
X340454Y48198D01*
X340408Y48260D01*
X340364Y48325D01*
X340323Y48392D01*
X340286Y48460D01*
X340252Y48530D01*
X340221Y48602D01*
X340194Y48675D01*
X340170Y48749D01*
X340150Y48824D01*
X340134Y48900D01*
X340121Y48977D01*
X340111Y49054D01*
X340106Y49132D01*
X340104Y49210D01*
X340104Y53302D01*
X340106Y53382D01*
X340112Y53462D01*
X340122Y53542D01*
X340135Y53621D01*
X340153Y53700D01*
X340174Y53777D01*
X340200Y53853D01*
X340229Y53928D01*
X340261Y54002D01*
X340297Y54074D01*
X340337Y54144D01*
X340380Y54211D01*
X340426Y54277D01*
X340476Y54340D01*
X340528Y54401D01*
X340583Y54460D01*
X340642Y54515D01*
X340702Y54567D01*
X340766Y54617D01*
X340832Y54663D01*
X340899Y54706D01*
X340969Y54746D01*
X341041Y54782D01*
X341115Y54814D01*
X341189Y54843D01*
X341266Y54869D01*
X341343Y54890D01*
X341422Y54908D01*
X341501Y54921D01*
X341581Y54931D01*
X341661Y54937D01*
X341741Y54939D01*
X343377Y54939D01*
X346144Y50847D02*
X346144Y49210D01*
X346144Y50847D02*
X346146Y50926D01*
X346152Y51005D01*
X346161Y51084D01*
X346174Y51162D01*
X346192Y51239D01*
X346212Y51315D01*
X346237Y51390D01*
X346265Y51464D01*
X346296Y51537D01*
X346332Y51608D01*
X346370Y51677D01*
X346412Y51744D01*
X346457Y51809D01*
X346505Y51872D01*
X346556Y51933D01*
X346610Y51990D01*
X346666Y52046D01*
X346725Y52098D01*
X346787Y52148D01*
X346851Y52194D01*
X346917Y52238D01*
X346985Y52278D01*
X347055Y52314D01*
X347127Y52348D01*
X347201Y52378D01*
X347275Y52404D01*
X347351Y52427D01*
X347428Y52445D01*
X347505Y52461D01*
X347584Y52472D01*
X347662Y52480D01*
X347741Y52484D01*
X347821Y52484D01*
X347900Y52480D01*
X347978Y52472D01*
X348057Y52461D01*
X348134Y52445D01*
X348211Y52427D01*
X348287Y52404D01*
X348361Y52378D01*
X348435Y52348D01*
X348507Y52314D01*
X348577Y52278D01*
X348645Y52238D01*
X348711Y52194D01*
X348775Y52148D01*
X348837Y52098D01*
X348896Y52046D01*
X348952Y51990D01*
X349006Y51933D01*
X349057Y51872D01*
X349105Y51809D01*
X349150Y51744D01*
X349192Y51677D01*
X349230Y51608D01*
X349266Y51537D01*
X349297Y51464D01*
X349325Y51390D01*
X349350Y51315D01*
X349370Y51239D01*
X349388Y51162D01*
X349401Y51084D01*
X349410Y51005D01*
X349416Y50926D01*
X349418Y50847D01*
X349418Y49210D01*
X349416Y49131D01*
X349410Y49052D01*
X349401Y48973D01*
X349388Y48895D01*
X349370Y48818D01*
X349350Y48742D01*
X349325Y48667D01*
X349297Y48593D01*
X349266Y48520D01*
X349230Y48449D01*
X349192Y48380D01*
X349150Y48313D01*
X349105Y48248D01*
X349057Y48185D01*
X349006Y48124D01*
X348952Y48067D01*
X348896Y48011D01*
X348837Y47959D01*
X348775Y47909D01*
X348711Y47863D01*
X348645Y47819D01*
X348577Y47779D01*
X348507Y47743D01*
X348435Y47709D01*
X348361Y47679D01*
X348287Y47653D01*
X348211Y47630D01*
X348134Y47612D01*
X348057Y47596D01*
X347978Y47585D01*
X347900Y47577D01*
X347821Y47573D01*
X347741Y47573D01*
X347662Y47577D01*
X347584Y47585D01*
X347505Y47596D01*
X347428Y47612D01*
X347351Y47630D01*
X347275Y47653D01*
X347201Y47679D01*
X347127Y47709D01*
X347055Y47743D01*
X346985Y47779D01*
X346917Y47819D01*
X346851Y47863D01*
X346787Y47909D01*
X346725Y47959D01*
X346666Y48011D01*
X346610Y48067D01*
X346556Y48124D01*
X346505Y48185D01*
X346457Y48248D01*
X346412Y48313D01*
X346370Y48380D01*
X346332Y48449D01*
X346296Y48520D01*
X346265Y48593D01*
X346237Y48667D01*
X346212Y48742D01*
X346192Y48818D01*
X346174Y48895D01*
X346161Y48973D01*
X346152Y49052D01*
X346146Y49131D01*
X346144Y49210D01*
X352728Y47573D02*
X352728Y52484D01*
X354774Y52484D01*
X354843Y52482D01*
X354911Y52476D01*
X354980Y52467D01*
X355047Y52453D01*
X355114Y52436D01*
X355180Y52415D01*
X355244Y52391D01*
X355307Y52362D01*
X355368Y52331D01*
X355427Y52296D01*
X355485Y52258D01*
X355540Y52216D01*
X355592Y52172D01*
X355642Y52124D01*
X355690Y52074D01*
X355734Y52022D01*
X355776Y51967D01*
X355814Y51909D01*
X355849Y51850D01*
X355880Y51789D01*
X355909Y51726D01*
X355933Y51662D01*
X355954Y51596D01*
X355971Y51529D01*
X355985Y51462D01*
X355994Y51393D01*
X356000Y51325D01*
X356002Y51256D01*
X356002Y47573D01*
X358681Y52484D02*
X361137Y52484D01*
X359500Y54939D02*
X359500Y48801D01*
X359499Y48801D02*
X359501Y48732D01*
X359507Y48664D01*
X359516Y48595D01*
X359530Y48528D01*
X359547Y48461D01*
X359568Y48395D01*
X359592Y48331D01*
X359621Y48268D01*
X359652Y48207D01*
X359687Y48148D01*
X359725Y48090D01*
X359767Y48035D01*
X359811Y47983D01*
X359859Y47933D01*
X359909Y47885D01*
X359961Y47841D01*
X360016Y47799D01*
X360074Y47761D01*
X360133Y47726D01*
X360194Y47695D01*
X360257Y47666D01*
X360321Y47642D01*
X360387Y47621D01*
X360454Y47604D01*
X360521Y47590D01*
X360590Y47581D01*
X360658Y47575D01*
X360727Y47573D01*
X361137Y47573D01*
X364234Y47573D02*
X364234Y52484D01*
X366690Y52484D01*
X366690Y51665D01*
X369065Y50847D02*
X369065Y49210D01*
X369065Y50847D02*
X369067Y50926D01*
X369073Y51005D01*
X369082Y51084D01*
X369095Y51162D01*
X369113Y51239D01*
X369133Y51315D01*
X369158Y51390D01*
X369186Y51464D01*
X369217Y51537D01*
X369253Y51608D01*
X369291Y51677D01*
X369333Y51744D01*
X369378Y51809D01*
X369426Y51872D01*
X369477Y51933D01*
X369531Y51990D01*
X369587Y52046D01*
X369646Y52098D01*
X369708Y52148D01*
X369772Y52194D01*
X369838Y52238D01*
X369906Y52278D01*
X369976Y52314D01*
X370048Y52348D01*
X370122Y52378D01*
X370196Y52404D01*
X370272Y52427D01*
X370349Y52445D01*
X370426Y52461D01*
X370505Y52472D01*
X370583Y52480D01*
X370662Y52484D01*
X370742Y52484D01*
X370821Y52480D01*
X370899Y52472D01*
X370978Y52461D01*
X371055Y52445D01*
X371132Y52427D01*
X371208Y52404D01*
X371282Y52378D01*
X371356Y52348D01*
X371428Y52314D01*
X371498Y52278D01*
X371566Y52238D01*
X371632Y52194D01*
X371696Y52148D01*
X371758Y52098D01*
X371817Y52046D01*
X371873Y51990D01*
X371927Y51933D01*
X371978Y51872D01*
X372026Y51809D01*
X372071Y51744D01*
X372113Y51677D01*
X372151Y51608D01*
X372187Y51537D01*
X372218Y51464D01*
X372246Y51390D01*
X372271Y51315D01*
X372291Y51239D01*
X372309Y51162D01*
X372322Y51084D01*
X372331Y51005D01*
X372337Y50926D01*
X372339Y50847D01*
X372339Y49210D01*
X372337Y49131D01*
X372331Y49052D01*
X372322Y48973D01*
X372309Y48895D01*
X372291Y48818D01*
X372271Y48742D01*
X372246Y48667D01*
X372218Y48593D01*
X372187Y48520D01*
X372151Y48449D01*
X372113Y48380D01*
X372071Y48313D01*
X372026Y48248D01*
X371978Y48185D01*
X371927Y48124D01*
X371873Y48067D01*
X371817Y48011D01*
X371758Y47959D01*
X371696Y47909D01*
X371632Y47863D01*
X371566Y47819D01*
X371498Y47779D01*
X371428Y47743D01*
X371356Y47709D01*
X371282Y47679D01*
X371208Y47653D01*
X371132Y47630D01*
X371055Y47612D01*
X370978Y47596D01*
X370899Y47585D01*
X370821Y47577D01*
X370742Y47573D01*
X370662Y47573D01*
X370583Y47577D01*
X370505Y47585D01*
X370426Y47596D01*
X370349Y47612D01*
X370272Y47630D01*
X370196Y47653D01*
X370122Y47679D01*
X370048Y47709D01*
X369976Y47743D01*
X369906Y47779D01*
X369838Y47819D01*
X369772Y47863D01*
X369708Y47909D01*
X369646Y47959D01*
X369587Y48011D01*
X369531Y48067D01*
X369477Y48124D01*
X369426Y48185D01*
X369378Y48248D01*
X369333Y48313D01*
X369291Y48380D01*
X369253Y48449D01*
X369217Y48520D01*
X369186Y48593D01*
X369158Y48667D01*
X369133Y48742D01*
X369113Y48818D01*
X369095Y48895D01*
X369082Y48973D01*
X369073Y49052D01*
X369067Y49131D01*
X369065Y49210D01*
X375488Y48801D02*
X375488Y54939D01*
X375488Y48801D02*
X375490Y48732D01*
X375496Y48664D01*
X375505Y48595D01*
X375519Y48528D01*
X375536Y48461D01*
X375557Y48395D01*
X375581Y48331D01*
X375610Y48268D01*
X375641Y48207D01*
X375676Y48148D01*
X375714Y48090D01*
X375756Y48035D01*
X375800Y47983D01*
X375848Y47933D01*
X375898Y47885D01*
X375950Y47841D01*
X376005Y47799D01*
X376063Y47761D01*
X376122Y47726D01*
X376183Y47695D01*
X376246Y47666D01*
X376310Y47642D01*
X376376Y47621D01*
X376443Y47604D01*
X376510Y47590D01*
X376579Y47581D01*
X376647Y47575D01*
X376716Y47573D01*
X379389Y48801D02*
X379389Y54939D01*
X379389Y48801D02*
X379391Y48732D01*
X379397Y48664D01*
X379406Y48595D01*
X379420Y48528D01*
X379437Y48461D01*
X379458Y48395D01*
X379482Y48331D01*
X379511Y48268D01*
X379542Y48207D01*
X379577Y48148D01*
X379615Y48090D01*
X379657Y48035D01*
X379701Y47983D01*
X379749Y47933D01*
X379799Y47885D01*
X379851Y47841D01*
X379906Y47799D01*
X379964Y47761D01*
X380023Y47726D01*
X380084Y47695D01*
X380147Y47666D01*
X380211Y47642D01*
X380277Y47621D01*
X380344Y47604D01*
X380411Y47590D01*
X380480Y47581D01*
X380548Y47575D01*
X380617Y47573D01*
X384435Y47573D02*
X386481Y47573D01*
X384435Y47573D02*
X384366Y47575D01*
X384298Y47581D01*
X384229Y47590D01*
X384162Y47604D01*
X384095Y47621D01*
X384029Y47642D01*
X383965Y47666D01*
X383902Y47695D01*
X383841Y47726D01*
X383782Y47761D01*
X383724Y47799D01*
X383669Y47841D01*
X383617Y47885D01*
X383567Y47933D01*
X383519Y47983D01*
X383475Y48035D01*
X383433Y48090D01*
X383395Y48148D01*
X383360Y48207D01*
X383329Y48268D01*
X383300Y48331D01*
X383276Y48395D01*
X383255Y48461D01*
X383238Y48528D01*
X383224Y48595D01*
X383215Y48664D01*
X383209Y48732D01*
X383207Y48801D01*
X383208Y48801D02*
X383208Y50847D01*
X383210Y50926D01*
X383216Y51005D01*
X383225Y51084D01*
X383238Y51162D01*
X383256Y51239D01*
X383276Y51315D01*
X383301Y51390D01*
X383329Y51464D01*
X383360Y51537D01*
X383396Y51608D01*
X383434Y51677D01*
X383476Y51744D01*
X383521Y51809D01*
X383569Y51872D01*
X383620Y51933D01*
X383674Y51990D01*
X383730Y52046D01*
X383789Y52098D01*
X383851Y52148D01*
X383915Y52194D01*
X383981Y52238D01*
X384049Y52278D01*
X384119Y52314D01*
X384191Y52348D01*
X384265Y52378D01*
X384339Y52404D01*
X384415Y52427D01*
X384492Y52445D01*
X384569Y52461D01*
X384648Y52472D01*
X384726Y52480D01*
X384805Y52484D01*
X384885Y52484D01*
X384964Y52480D01*
X385042Y52472D01*
X385121Y52461D01*
X385198Y52445D01*
X385275Y52427D01*
X385351Y52404D01*
X385425Y52378D01*
X385499Y52348D01*
X385571Y52314D01*
X385641Y52278D01*
X385709Y52238D01*
X385775Y52194D01*
X385839Y52148D01*
X385901Y52098D01*
X385960Y52046D01*
X386016Y51990D01*
X386070Y51933D01*
X386121Y51872D01*
X386169Y51809D01*
X386214Y51744D01*
X386256Y51677D01*
X386294Y51608D01*
X386330Y51537D01*
X386361Y51464D01*
X386389Y51390D01*
X386414Y51315D01*
X386434Y51239D01*
X386452Y51162D01*
X386465Y51084D01*
X386474Y51005D01*
X386480Y50926D01*
X386482Y50847D01*
X386481Y50847D02*
X386481Y50028D01*
X383208Y50028D01*
X389837Y47573D02*
X389837Y52484D01*
X392293Y52484D01*
X392293Y51665D01*
X400859Y47573D02*
X400937Y47575D01*
X401015Y47580D01*
X401092Y47590D01*
X401169Y47603D01*
X401245Y47619D01*
X401320Y47639D01*
X401394Y47663D01*
X401467Y47690D01*
X401539Y47721D01*
X401609Y47755D01*
X401678Y47792D01*
X401744Y47833D01*
X401809Y47877D01*
X401871Y47923D01*
X401931Y47973D01*
X401989Y48025D01*
X402044Y48080D01*
X402096Y48138D01*
X402146Y48198D01*
X402192Y48260D01*
X402236Y48325D01*
X402277Y48392D01*
X402314Y48460D01*
X402348Y48530D01*
X402379Y48602D01*
X402406Y48675D01*
X402430Y48749D01*
X402450Y48824D01*
X402466Y48900D01*
X402479Y48977D01*
X402489Y49054D01*
X402494Y49132D01*
X402496Y49210D01*
X400859Y47573D02*
X400745Y47575D01*
X400632Y47580D01*
X400518Y47590D01*
X400405Y47603D01*
X400293Y47620D01*
X400181Y47640D01*
X400070Y47664D01*
X399959Y47692D01*
X399850Y47723D01*
X399742Y47758D01*
X399635Y47797D01*
X399529Y47839D01*
X399425Y47884D01*
X399322Y47933D01*
X399221Y47986D01*
X399122Y48041D01*
X399024Y48100D01*
X398929Y48162D01*
X398836Y48227D01*
X398744Y48295D01*
X398656Y48366D01*
X398569Y48440D01*
X398485Y48517D01*
X398404Y48596D01*
X398609Y53302D02*
X398611Y53380D01*
X398616Y53458D01*
X398626Y53535D01*
X398639Y53612D01*
X398655Y53688D01*
X398675Y53763D01*
X398699Y53837D01*
X398726Y53910D01*
X398757Y53982D01*
X398791Y54052D01*
X398828Y54121D01*
X398869Y54187D01*
X398913Y54252D01*
X398959Y54314D01*
X399009Y54374D01*
X399061Y54432D01*
X399116Y54487D01*
X399174Y54539D01*
X399234Y54589D01*
X399296Y54635D01*
X399361Y54679D01*
X399428Y54720D01*
X399496Y54757D01*
X399566Y54791D01*
X399638Y54822D01*
X399711Y54849D01*
X399785Y54873D01*
X399860Y54893D01*
X399936Y54909D01*
X400013Y54922D01*
X400090Y54932D01*
X400168Y54937D01*
X400246Y54939D01*
X400356Y54937D01*
X400465Y54931D01*
X400575Y54921D01*
X400683Y54908D01*
X400792Y54890D01*
X400899Y54869D01*
X401006Y54843D01*
X401112Y54814D01*
X401217Y54782D01*
X401320Y54745D01*
X401422Y54705D01*
X401523Y54661D01*
X401622Y54613D01*
X401719Y54563D01*
X401814Y54508D01*
X401907Y54450D01*
X401998Y54389D01*
X402087Y54325D01*
X399427Y51869D02*
X399360Y51911D01*
X399295Y51955D01*
X399233Y52003D01*
X399173Y52053D01*
X399115Y52106D01*
X399060Y52162D01*
X399008Y52221D01*
X398958Y52281D01*
X398911Y52345D01*
X398868Y52410D01*
X398827Y52477D01*
X398790Y52546D01*
X398756Y52617D01*
X398725Y52689D01*
X398698Y52763D01*
X398674Y52837D01*
X398654Y52913D01*
X398638Y52990D01*
X398625Y53067D01*
X398615Y53145D01*
X398610Y53224D01*
X398608Y53302D01*
X401678Y50642D02*
X401744Y50600D01*
X401809Y50556D01*
X401871Y50509D01*
X401931Y50458D01*
X401989Y50405D01*
X402044Y50349D01*
X402097Y50291D01*
X402146Y50230D01*
X402193Y50167D01*
X402236Y50102D01*
X402277Y50035D01*
X402314Y49966D01*
X402348Y49895D01*
X402379Y49823D01*
X402406Y49749D01*
X402430Y49674D01*
X402450Y49599D01*
X402466Y49522D01*
X402479Y49445D01*
X402489Y49367D01*
X402494Y49288D01*
X402496Y49210D01*
X401678Y50642D02*
X399427Y51870D01*
X405641Y54939D02*
X405641Y47573D01*
X405641Y52484D02*
X407687Y52484D01*
X407756Y52482D01*
X407824Y52476D01*
X407893Y52467D01*
X407960Y52453D01*
X408027Y52436D01*
X408093Y52415D01*
X408157Y52391D01*
X408220Y52362D01*
X408281Y52331D01*
X408340Y52296D01*
X408398Y52258D01*
X408453Y52216D01*
X408505Y52172D01*
X408555Y52124D01*
X408603Y52074D01*
X408647Y52022D01*
X408689Y51967D01*
X408727Y51909D01*
X408762Y51850D01*
X408793Y51789D01*
X408822Y51726D01*
X408846Y51662D01*
X408867Y51596D01*
X408884Y51529D01*
X408898Y51462D01*
X408907Y51393D01*
X408913Y51325D01*
X408915Y51256D01*
X408915Y47573D01*
X412155Y47573D02*
X412155Y52484D01*
X411950Y54530D02*
X411950Y54939D01*
X412359Y54939D01*
X412359Y54530D01*
X411950Y54530D01*
X416378Y47573D02*
X418424Y47573D01*
X416378Y47573D02*
X416309Y47575D01*
X416241Y47581D01*
X416172Y47590D01*
X416105Y47604D01*
X416038Y47621D01*
X415972Y47642D01*
X415908Y47666D01*
X415845Y47695D01*
X415784Y47726D01*
X415725Y47761D01*
X415667Y47799D01*
X415612Y47841D01*
X415560Y47885D01*
X415510Y47933D01*
X415462Y47983D01*
X415418Y48035D01*
X415376Y48090D01*
X415338Y48148D01*
X415303Y48207D01*
X415272Y48268D01*
X415243Y48331D01*
X415219Y48395D01*
X415198Y48461D01*
X415181Y48528D01*
X415167Y48595D01*
X415158Y48664D01*
X415152Y48732D01*
X415150Y48801D01*
X415151Y48801D02*
X415151Y50847D01*
X415150Y50847D02*
X415152Y50926D01*
X415158Y51005D01*
X415167Y51084D01*
X415180Y51162D01*
X415198Y51239D01*
X415218Y51315D01*
X415243Y51390D01*
X415271Y51464D01*
X415302Y51537D01*
X415338Y51608D01*
X415376Y51677D01*
X415418Y51744D01*
X415463Y51809D01*
X415511Y51872D01*
X415562Y51933D01*
X415616Y51990D01*
X415672Y52046D01*
X415731Y52098D01*
X415793Y52148D01*
X415857Y52194D01*
X415923Y52238D01*
X415991Y52278D01*
X416061Y52314D01*
X416133Y52348D01*
X416207Y52378D01*
X416281Y52404D01*
X416357Y52427D01*
X416434Y52445D01*
X416511Y52461D01*
X416590Y52472D01*
X416668Y52480D01*
X416747Y52484D01*
X416827Y52484D01*
X416906Y52480D01*
X416984Y52472D01*
X417063Y52461D01*
X417140Y52445D01*
X417217Y52427D01*
X417293Y52404D01*
X417367Y52378D01*
X417441Y52348D01*
X417513Y52314D01*
X417583Y52278D01*
X417651Y52238D01*
X417717Y52194D01*
X417781Y52148D01*
X417843Y52098D01*
X417902Y52046D01*
X417958Y51990D01*
X418012Y51933D01*
X418063Y51872D01*
X418111Y51809D01*
X418156Y51744D01*
X418198Y51677D01*
X418236Y51608D01*
X418272Y51537D01*
X418303Y51464D01*
X418331Y51390D01*
X418356Y51315D01*
X418376Y51239D01*
X418394Y51162D01*
X418407Y51084D01*
X418416Y51005D01*
X418422Y50926D01*
X418424Y50847D01*
X418424Y50028D01*
X415151Y50028D01*
X421573Y48801D02*
X421573Y54939D01*
X421573Y48801D02*
X421575Y48732D01*
X421581Y48664D01*
X421590Y48595D01*
X421604Y48528D01*
X421621Y48461D01*
X421642Y48395D01*
X421666Y48331D01*
X421695Y48268D01*
X421726Y48207D01*
X421761Y48148D01*
X421799Y48090D01*
X421841Y48035D01*
X421885Y47983D01*
X421933Y47933D01*
X421983Y47885D01*
X422035Y47841D01*
X422090Y47799D01*
X422148Y47761D01*
X422207Y47726D01*
X422268Y47695D01*
X422331Y47666D01*
X422395Y47642D01*
X422461Y47621D01*
X422528Y47604D01*
X422595Y47590D01*
X422664Y47581D01*
X422732Y47575D01*
X422801Y47573D01*
X428625Y47573D02*
X428625Y54939D01*
X428625Y47573D02*
X426579Y47573D01*
X426510Y47575D01*
X426442Y47581D01*
X426373Y47590D01*
X426306Y47604D01*
X426239Y47621D01*
X426173Y47642D01*
X426109Y47666D01*
X426046Y47695D01*
X425985Y47726D01*
X425926Y47761D01*
X425868Y47799D01*
X425813Y47841D01*
X425761Y47885D01*
X425711Y47933D01*
X425663Y47983D01*
X425619Y48035D01*
X425577Y48090D01*
X425539Y48148D01*
X425504Y48207D01*
X425473Y48268D01*
X425444Y48331D01*
X425420Y48395D01*
X425399Y48461D01*
X425382Y48528D01*
X425368Y48595D01*
X425359Y48664D01*
X425353Y48732D01*
X425351Y48801D01*
X425351Y51256D01*
X425353Y51325D01*
X425359Y51393D01*
X425368Y51462D01*
X425382Y51529D01*
X425399Y51596D01*
X425420Y51662D01*
X425444Y51726D01*
X425473Y51789D01*
X425504Y51850D01*
X425539Y51909D01*
X425577Y51967D01*
X425619Y52022D01*
X425663Y52074D01*
X425711Y52124D01*
X425761Y52172D01*
X425813Y52216D01*
X425868Y52258D01*
X425926Y52296D01*
X425985Y52331D01*
X426046Y52362D01*
X426109Y52391D01*
X426173Y52415D01*
X426239Y52436D01*
X426306Y52453D01*
X426373Y52467D01*
X426442Y52476D01*
X426510Y52482D01*
X426579Y52484D01*
X428625Y52484D01*
X436317Y51665D02*
X438363Y51665D01*
X438452Y51663D01*
X438541Y51657D01*
X438630Y51647D01*
X438718Y51634D01*
X438806Y51617D01*
X438893Y51595D01*
X438978Y51570D01*
X439063Y51542D01*
X439146Y51509D01*
X439228Y51473D01*
X439308Y51434D01*
X439386Y51391D01*
X439462Y51345D01*
X439537Y51295D01*
X439609Y51242D01*
X439678Y51186D01*
X439745Y51127D01*
X439810Y51066D01*
X439871Y51001D01*
X439930Y50934D01*
X439986Y50865D01*
X440039Y50793D01*
X440089Y50718D01*
X440135Y50642D01*
X440178Y50564D01*
X440217Y50484D01*
X440253Y50402D01*
X440286Y50319D01*
X440314Y50234D01*
X440339Y50149D01*
X440361Y50062D01*
X440378Y49974D01*
X440391Y49886D01*
X440401Y49797D01*
X440407Y49708D01*
X440409Y49619D01*
X440407Y49530D01*
X440401Y49441D01*
X440391Y49352D01*
X440378Y49264D01*
X440361Y49176D01*
X440339Y49089D01*
X440314Y49004D01*
X440286Y48919D01*
X440253Y48836D01*
X440217Y48754D01*
X440178Y48674D01*
X440135Y48596D01*
X440089Y48520D01*
X440039Y48445D01*
X439986Y48373D01*
X439930Y48304D01*
X439871Y48237D01*
X439810Y48172D01*
X439745Y48111D01*
X439678Y48052D01*
X439609Y47996D01*
X439537Y47943D01*
X439462Y47893D01*
X439386Y47847D01*
X439308Y47804D01*
X439228Y47765D01*
X439146Y47729D01*
X439063Y47696D01*
X438978Y47668D01*
X438893Y47643D01*
X438806Y47621D01*
X438718Y47604D01*
X438630Y47591D01*
X438541Y47581D01*
X438452Y47575D01*
X438363Y47573D01*
X436317Y47573D01*
X436317Y54939D01*
X438363Y54939D01*
X438442Y54937D01*
X438521Y54931D01*
X438600Y54922D01*
X438678Y54909D01*
X438755Y54891D01*
X438831Y54871D01*
X438906Y54846D01*
X438980Y54818D01*
X439053Y54787D01*
X439124Y54751D01*
X439193Y54713D01*
X439260Y54671D01*
X439325Y54626D01*
X439388Y54578D01*
X439449Y54527D01*
X439506Y54473D01*
X439562Y54417D01*
X439614Y54358D01*
X439664Y54296D01*
X439710Y54232D01*
X439754Y54166D01*
X439794Y54098D01*
X439830Y54028D01*
X439864Y53956D01*
X439894Y53882D01*
X439920Y53808D01*
X439943Y53732D01*
X439961Y53655D01*
X439977Y53578D01*
X439988Y53499D01*
X439996Y53421D01*
X440000Y53342D01*
X440000Y53262D01*
X439996Y53183D01*
X439988Y53105D01*
X439977Y53026D01*
X439961Y52949D01*
X439943Y52872D01*
X439920Y52796D01*
X439894Y52722D01*
X439864Y52648D01*
X439830Y52576D01*
X439794Y52506D01*
X439754Y52438D01*
X439710Y52372D01*
X439664Y52308D01*
X439614Y52246D01*
X439562Y52187D01*
X439506Y52131D01*
X439449Y52077D01*
X439388Y52026D01*
X439325Y51978D01*
X439260Y51933D01*
X439193Y51891D01*
X439124Y51853D01*
X439053Y51817D01*
X438980Y51786D01*
X438906Y51758D01*
X438831Y51733D01*
X438755Y51713D01*
X438678Y51695D01*
X438600Y51682D01*
X438521Y51673D01*
X438442Y51667D01*
X438363Y51665D01*
X443192Y50847D02*
X443192Y49210D01*
X443192Y50847D02*
X443194Y50926D01*
X443200Y51005D01*
X443209Y51084D01*
X443222Y51162D01*
X443240Y51239D01*
X443260Y51315D01*
X443285Y51390D01*
X443313Y51464D01*
X443344Y51537D01*
X443380Y51608D01*
X443418Y51677D01*
X443460Y51744D01*
X443505Y51809D01*
X443553Y51872D01*
X443604Y51933D01*
X443658Y51990D01*
X443714Y52046D01*
X443773Y52098D01*
X443835Y52148D01*
X443899Y52194D01*
X443965Y52238D01*
X444033Y52278D01*
X444103Y52314D01*
X444175Y52348D01*
X444249Y52378D01*
X444323Y52404D01*
X444399Y52427D01*
X444476Y52445D01*
X444553Y52461D01*
X444632Y52472D01*
X444710Y52480D01*
X444789Y52484D01*
X444869Y52484D01*
X444948Y52480D01*
X445026Y52472D01*
X445105Y52461D01*
X445182Y52445D01*
X445259Y52427D01*
X445335Y52404D01*
X445409Y52378D01*
X445483Y52348D01*
X445555Y52314D01*
X445625Y52278D01*
X445693Y52238D01*
X445759Y52194D01*
X445823Y52148D01*
X445885Y52098D01*
X445944Y52046D01*
X446000Y51990D01*
X446054Y51933D01*
X446105Y51872D01*
X446153Y51809D01*
X446198Y51744D01*
X446240Y51677D01*
X446278Y51608D01*
X446314Y51537D01*
X446345Y51464D01*
X446373Y51390D01*
X446398Y51315D01*
X446418Y51239D01*
X446436Y51162D01*
X446449Y51084D01*
X446458Y51005D01*
X446464Y50926D01*
X446466Y50847D01*
X446466Y49210D01*
X446464Y49131D01*
X446458Y49052D01*
X446449Y48973D01*
X446436Y48895D01*
X446418Y48818D01*
X446398Y48742D01*
X446373Y48667D01*
X446345Y48593D01*
X446314Y48520D01*
X446278Y48449D01*
X446240Y48380D01*
X446198Y48313D01*
X446153Y48248D01*
X446105Y48185D01*
X446054Y48124D01*
X446000Y48067D01*
X445944Y48011D01*
X445885Y47959D01*
X445823Y47909D01*
X445759Y47863D01*
X445693Y47819D01*
X445625Y47779D01*
X445555Y47743D01*
X445483Y47709D01*
X445409Y47679D01*
X445335Y47653D01*
X445259Y47630D01*
X445182Y47612D01*
X445105Y47596D01*
X445026Y47585D01*
X444948Y47577D01*
X444869Y47573D01*
X444789Y47573D01*
X444710Y47577D01*
X444632Y47585D01*
X444553Y47596D01*
X444476Y47612D01*
X444399Y47630D01*
X444323Y47653D01*
X444249Y47679D01*
X444175Y47709D01*
X444103Y47743D01*
X444033Y47779D01*
X443965Y47819D01*
X443899Y47863D01*
X443835Y47909D01*
X443773Y47959D01*
X443714Y48011D01*
X443658Y48067D01*
X443604Y48124D01*
X443553Y48185D01*
X443505Y48248D01*
X443460Y48313D01*
X443418Y48380D01*
X443380Y48449D01*
X443344Y48520D01*
X443313Y48593D01*
X443285Y48667D01*
X443260Y48742D01*
X443240Y48818D01*
X443222Y48895D01*
X443209Y48973D01*
X443200Y49052D01*
X443194Y49131D01*
X443192Y49210D01*
X450923Y50438D02*
X452765Y50438D01*
X450923Y50437D02*
X450848Y50435D01*
X450773Y50429D01*
X450699Y50419D01*
X450625Y50406D01*
X450552Y50388D01*
X450480Y50367D01*
X450410Y50342D01*
X450341Y50313D01*
X450273Y50281D01*
X450207Y50245D01*
X450143Y50206D01*
X450081Y50164D01*
X450022Y50118D01*
X449965Y50069D01*
X449910Y50018D01*
X449859Y49963D01*
X449810Y49906D01*
X449764Y49847D01*
X449722Y49785D01*
X449683Y49721D01*
X449647Y49655D01*
X449615Y49587D01*
X449586Y49518D01*
X449561Y49448D01*
X449540Y49376D01*
X449522Y49303D01*
X449509Y49229D01*
X449499Y49155D01*
X449493Y49080D01*
X449491Y49005D01*
X449493Y48930D01*
X449499Y48855D01*
X449509Y48781D01*
X449522Y48707D01*
X449540Y48634D01*
X449561Y48562D01*
X449586Y48492D01*
X449615Y48423D01*
X449647Y48355D01*
X449683Y48289D01*
X449722Y48225D01*
X449764Y48163D01*
X449810Y48104D01*
X449859Y48047D01*
X449910Y47992D01*
X449965Y47941D01*
X450022Y47892D01*
X450081Y47846D01*
X450143Y47804D01*
X450207Y47765D01*
X450273Y47729D01*
X450341Y47697D01*
X450410Y47668D01*
X450480Y47643D01*
X450552Y47622D01*
X450625Y47604D01*
X450699Y47591D01*
X450773Y47581D01*
X450848Y47575D01*
X450923Y47573D01*
X452765Y47573D01*
X452765Y51256D01*
X452763Y51325D01*
X452757Y51393D01*
X452748Y51462D01*
X452734Y51529D01*
X452717Y51596D01*
X452696Y51662D01*
X452672Y51726D01*
X452643Y51789D01*
X452612Y51850D01*
X452577Y51909D01*
X452539Y51967D01*
X452497Y52022D01*
X452453Y52074D01*
X452405Y52124D01*
X452355Y52172D01*
X452303Y52216D01*
X452248Y52258D01*
X452190Y52296D01*
X452131Y52331D01*
X452070Y52362D01*
X452007Y52391D01*
X451943Y52415D01*
X451877Y52436D01*
X451810Y52453D01*
X451743Y52467D01*
X451674Y52476D01*
X451606Y52482D01*
X451537Y52484D01*
X449900Y52484D01*
X456406Y52484D02*
X456406Y47573D01*
X456406Y52484D02*
X458861Y52484D01*
X458861Y51665D01*
X464469Y54939D02*
X464469Y47573D01*
X462423Y47573D01*
X462354Y47575D01*
X462286Y47581D01*
X462217Y47590D01*
X462150Y47604D01*
X462083Y47621D01*
X462017Y47642D01*
X461953Y47666D01*
X461890Y47695D01*
X461829Y47726D01*
X461770Y47761D01*
X461712Y47799D01*
X461657Y47841D01*
X461605Y47885D01*
X461555Y47933D01*
X461507Y47983D01*
X461463Y48035D01*
X461421Y48090D01*
X461383Y48148D01*
X461348Y48207D01*
X461317Y48268D01*
X461288Y48331D01*
X461264Y48395D01*
X461243Y48461D01*
X461226Y48528D01*
X461212Y48595D01*
X461203Y48664D01*
X461197Y48732D01*
X461195Y48801D01*
X461195Y51256D01*
X461197Y51325D01*
X461203Y51393D01*
X461212Y51462D01*
X461226Y51529D01*
X461243Y51596D01*
X461264Y51662D01*
X461288Y51726D01*
X461317Y51789D01*
X461348Y51850D01*
X461383Y51909D01*
X461421Y51967D01*
X461463Y52022D01*
X461507Y52074D01*
X461555Y52124D01*
X461605Y52172D01*
X461657Y52216D01*
X461712Y52258D01*
X461770Y52296D01*
X461829Y52331D01*
X461890Y52362D01*
X461953Y52391D01*
X462017Y52415D01*
X462083Y52436D01*
X462150Y52453D01*
X462217Y52467D01*
X462286Y52476D01*
X462354Y52482D01*
X462423Y52484D01*
X464469Y52484D01*
X471477Y52484D02*
X473114Y47573D01*
X474751Y52484D01*
X477652Y53302D02*
X479698Y54939D01*
X479698Y47573D01*
X477652Y47573D02*
X481744Y47573D01*
D11*
X48350Y32850D02*
X48350Y188350D01*
X198210Y188350D01*
X198210Y32850D02*
X48350Y32850D01*
X198210Y32850D02*
X198210Y188350D01*
D12*
X206736Y175619D02*
X218441Y167816D01*
X218441Y175619D02*
X206736Y167816D01*
X209337Y179915D02*
X206736Y183166D01*
X218441Y183166D01*
X218441Y179915D02*
X218441Y186417D01*
D11*
X62540Y191880D02*
X57460Y189340D01*
X62540Y191880D02*
X63664Y192579D01*
X64805Y193250D01*
X65962Y193894D01*
X67135Y194509D01*
X68322Y195095D01*
X69523Y195652D01*
X70737Y196180D01*
X71964Y196677D01*
X73202Y197145D01*
X74452Y197583D01*
X75712Y197989D01*
X76981Y198365D01*
X78259Y198710D01*
X79546Y199024D01*
X80839Y199306D01*
X82139Y199556D01*
X83445Y199775D01*
X84756Y199961D01*
X86070Y200116D01*
X87389Y200238D01*
X88709Y200329D01*
X90032Y200387D01*
X91356Y200413D01*
X92680Y200406D01*
X94003Y200367D01*
X95325Y200296D01*
X96645Y200193D01*
X97962Y200057D01*
X99275Y199890D01*
X100584Y199690D01*
X101887Y199459D01*
X103185Y199195D01*
X104475Y198901D01*
X105758Y198574D01*
X107033Y198217D01*
X108299Y197828D01*
X109555Y197409D01*
X110800Y196960D01*
X110799Y196960D02*
X110905Y196909D01*
X111013Y196862D01*
X111122Y196818D01*
X111233Y196778D01*
X111344Y196742D01*
X111457Y196709D01*
X111571Y196680D01*
X111686Y196655D01*
X111802Y196634D01*
X111918Y196616D01*
X112035Y196603D01*
X112152Y196593D01*
X112269Y196587D01*
X112387Y196585D01*
X112505Y196587D01*
X112622Y196593D01*
X112739Y196603D01*
X112856Y196616D01*
X112972Y196634D01*
X113088Y196655D01*
X113203Y196680D01*
X113317Y196709D01*
X113430Y196742D01*
X113541Y196778D01*
X113652Y196818D01*
X113761Y196862D01*
X113869Y196909D01*
X113975Y196960D01*
X114079Y197014D01*
X114181Y197072D01*
X114282Y197133D01*
X114380Y197197D01*
X114476Y197265D01*
X114570Y197336D01*
X114662Y197409D01*
X114751Y197486D01*
X114837Y197566D01*
X114921Y197649D01*
X115002Y197734D01*
X115080Y197822D01*
X115155Y197912D01*
X115227Y198005D01*
X115296Y198100D01*
X115362Y198198D01*
X115424Y198297D01*
X115483Y198399D01*
X115539Y198502D01*
X115592Y198608D01*
X115640Y198714D01*
X115686Y198823D01*
X115727Y198933D01*
X115765Y199044D01*
X115800Y199157D01*
X115830Y199270D01*
X115857Y199385D01*
X115880Y199500D01*
X57460Y31860D02*
X62540Y29320D01*
X63664Y28621D01*
X64805Y27950D01*
X65962Y27306D01*
X67135Y26691D01*
X68322Y26105D01*
X69523Y25548D01*
X70737Y25020D01*
X71964Y24523D01*
X73202Y24055D01*
X74452Y23617D01*
X75712Y23211D01*
X76981Y22835D01*
X78259Y22490D01*
X79546Y22176D01*
X80839Y21894D01*
X82139Y21644D01*
X83445Y21425D01*
X84756Y21239D01*
X86070Y21084D01*
X87389Y20962D01*
X88709Y20871D01*
X90032Y20813D01*
X91356Y20787D01*
X92680Y20794D01*
X94003Y20833D01*
X95325Y20904D01*
X96645Y21007D01*
X97962Y21143D01*
X99275Y21310D01*
X100584Y21510D01*
X101887Y21741D01*
X103185Y22005D01*
X104475Y22299D01*
X105758Y22626D01*
X107033Y22983D01*
X108299Y23372D01*
X109555Y23791D01*
X110800Y24240D01*
X110799Y24240D02*
X110905Y24291D01*
X111013Y24338D01*
X111122Y24382D01*
X111233Y24422D01*
X111344Y24458D01*
X111457Y24491D01*
X111571Y24520D01*
X111686Y24545D01*
X111802Y24566D01*
X111918Y24584D01*
X112035Y24597D01*
X112152Y24607D01*
X112269Y24613D01*
X112387Y24615D01*
X112505Y24613D01*
X112622Y24607D01*
X112739Y24597D01*
X112856Y24584D01*
X112972Y24566D01*
X113088Y24545D01*
X113203Y24520D01*
X113317Y24491D01*
X113430Y24458D01*
X113541Y24422D01*
X113652Y24382D01*
X113761Y24338D01*
X113869Y24291D01*
X113975Y24240D01*
X114079Y24186D01*
X114181Y24128D01*
X114282Y24067D01*
X114380Y24003D01*
X114476Y23935D01*
X114570Y23864D01*
X114662Y23791D01*
X114751Y23714D01*
X114837Y23634D01*
X114921Y23551D01*
X115002Y23466D01*
X115080Y23378D01*
X115155Y23288D01*
X115227Y23195D01*
X115296Y23100D01*
X115362Y23002D01*
X115424Y22903D01*
X115483Y22801D01*
X115539Y22698D01*
X115592Y22592D01*
X115640Y22486D01*
X115686Y22377D01*
X115727Y22267D01*
X115765Y22156D01*
X115800Y22043D01*
X115830Y21930D01*
X115857Y21815D01*
X115880Y21700D01*
D13*
X276393Y51930D02*
X276393Y58080D01*
X278101Y58080D01*
X278101Y58079D02*
X278182Y58077D01*
X278263Y58071D01*
X278344Y58062D01*
X278424Y58048D01*
X278504Y58031D01*
X278582Y58010D01*
X278660Y57985D01*
X278736Y57957D01*
X278811Y57925D01*
X278884Y57889D01*
X278955Y57850D01*
X279024Y57808D01*
X279092Y57762D01*
X279157Y57714D01*
X279220Y57662D01*
X279280Y57607D01*
X279337Y57550D01*
X279392Y57490D01*
X279444Y57427D01*
X279492Y57362D01*
X279538Y57294D01*
X279580Y57225D01*
X279619Y57154D01*
X279655Y57081D01*
X279687Y57006D01*
X279715Y56930D01*
X279740Y56852D01*
X279761Y56774D01*
X279778Y56694D01*
X279792Y56614D01*
X279801Y56533D01*
X279807Y56452D01*
X279809Y56371D01*
X279807Y56290D01*
X279801Y56209D01*
X279792Y56128D01*
X279778Y56048D01*
X279761Y55968D01*
X279740Y55890D01*
X279715Y55812D01*
X279687Y55736D01*
X279655Y55661D01*
X279619Y55588D01*
X279580Y55517D01*
X279538Y55448D01*
X279492Y55380D01*
X279444Y55315D01*
X279392Y55252D01*
X279337Y55192D01*
X279280Y55135D01*
X279220Y55080D01*
X279157Y55028D01*
X279092Y54980D01*
X279024Y54934D01*
X278955Y54892D01*
X278884Y54853D01*
X278811Y54817D01*
X278736Y54785D01*
X278660Y54757D01*
X278582Y54732D01*
X278504Y54711D01*
X278424Y54694D01*
X278344Y54680D01*
X278263Y54671D01*
X278182Y54665D01*
X278101Y54663D01*
X276393Y54663D01*
X278443Y54663D02*
X279809Y51930D01*
X285764Y56542D02*
X285762Y56617D01*
X285757Y56693D01*
X285747Y56768D01*
X285734Y56842D01*
X285718Y56916D01*
X285698Y56988D01*
X285674Y57060D01*
X285647Y57131D01*
X285616Y57200D01*
X285582Y57267D01*
X285545Y57333D01*
X285505Y57396D01*
X285461Y57458D01*
X285415Y57518D01*
X285366Y57575D01*
X285314Y57630D01*
X285259Y57682D01*
X285202Y57731D01*
X285142Y57777D01*
X285080Y57821D01*
X285017Y57861D01*
X284951Y57898D01*
X284884Y57932D01*
X284815Y57963D01*
X284744Y57990D01*
X284672Y58014D01*
X284600Y58034D01*
X284526Y58050D01*
X284452Y58063D01*
X284377Y58073D01*
X284301Y58078D01*
X284226Y58080D01*
X284226Y58079D02*
X284140Y58077D01*
X284055Y58072D01*
X283970Y58062D01*
X283885Y58049D01*
X283801Y58033D01*
X283718Y58013D01*
X283636Y57989D01*
X283554Y57961D01*
X283475Y57930D01*
X283396Y57896D01*
X283319Y57859D01*
X283244Y57818D01*
X283171Y57773D01*
X283099Y57726D01*
X283030Y57676D01*
X282963Y57622D01*
X282898Y57566D01*
X282836Y57507D01*
X282777Y57446D01*
X282720Y57382D01*
X282666Y57315D01*
X282615Y57246D01*
X282567Y57175D01*
X282522Y57102D01*
X282480Y57028D01*
X282442Y56951D01*
X282407Y56873D01*
X282375Y56793D01*
X282347Y56713D01*
X285252Y55346D02*
X285307Y55402D01*
X285360Y55460D01*
X285410Y55521D01*
X285457Y55584D01*
X285502Y55649D01*
X285542Y55716D01*
X285580Y55785D01*
X285615Y55856D01*
X285646Y55928D01*
X285673Y56002D01*
X285697Y56077D01*
X285717Y56152D01*
X285734Y56229D01*
X285747Y56307D01*
X285757Y56385D01*
X285762Y56463D01*
X285764Y56542D01*
X285251Y55346D02*
X282347Y51930D01*
X285764Y51930D01*
D14*
X284000Y44900D02*
X304000Y44900D01*
X304000Y27100D02*
X284000Y27100D01*
D13*
X275393Y103930D02*
X275393Y110080D01*
X277101Y110080D01*
X277101Y110079D02*
X277182Y110077D01*
X277263Y110071D01*
X277344Y110062D01*
X277424Y110048D01*
X277504Y110031D01*
X277582Y110010D01*
X277660Y109985D01*
X277736Y109957D01*
X277811Y109925D01*
X277884Y109889D01*
X277955Y109850D01*
X278024Y109808D01*
X278092Y109762D01*
X278157Y109714D01*
X278220Y109662D01*
X278280Y109607D01*
X278337Y109550D01*
X278392Y109490D01*
X278444Y109427D01*
X278492Y109362D01*
X278538Y109294D01*
X278580Y109225D01*
X278619Y109154D01*
X278655Y109081D01*
X278687Y109006D01*
X278715Y108930D01*
X278740Y108852D01*
X278761Y108774D01*
X278778Y108694D01*
X278792Y108614D01*
X278801Y108533D01*
X278807Y108452D01*
X278809Y108371D01*
X278807Y108290D01*
X278801Y108209D01*
X278792Y108128D01*
X278778Y108048D01*
X278761Y107968D01*
X278740Y107890D01*
X278715Y107812D01*
X278687Y107736D01*
X278655Y107661D01*
X278619Y107588D01*
X278580Y107517D01*
X278538Y107448D01*
X278492Y107380D01*
X278444Y107315D01*
X278392Y107252D01*
X278337Y107192D01*
X278280Y107135D01*
X278220Y107080D01*
X278157Y107028D01*
X278092Y106980D01*
X278024Y106934D01*
X277955Y106892D01*
X277884Y106853D01*
X277811Y106817D01*
X277736Y106785D01*
X277660Y106757D01*
X277582Y106732D01*
X277504Y106711D01*
X277424Y106694D01*
X277344Y106680D01*
X277263Y106671D01*
X277182Y106665D01*
X277101Y106663D01*
X275393Y106663D01*
X277443Y106663D02*
X278809Y103930D01*
X281347Y103930D02*
X283056Y103930D01*
X283137Y103932D01*
X283218Y103938D01*
X283299Y103947D01*
X283379Y103961D01*
X283459Y103978D01*
X283537Y103999D01*
X283615Y104024D01*
X283691Y104052D01*
X283766Y104084D01*
X283839Y104120D01*
X283910Y104159D01*
X283979Y104201D01*
X284047Y104247D01*
X284112Y104295D01*
X284175Y104347D01*
X284235Y104402D01*
X284292Y104459D01*
X284347Y104519D01*
X284399Y104582D01*
X284447Y104647D01*
X284493Y104715D01*
X284535Y104784D01*
X284574Y104855D01*
X284610Y104928D01*
X284642Y105003D01*
X284670Y105079D01*
X284695Y105157D01*
X284716Y105235D01*
X284733Y105315D01*
X284747Y105395D01*
X284756Y105476D01*
X284762Y105557D01*
X284764Y105638D01*
X284762Y105719D01*
X284756Y105800D01*
X284747Y105881D01*
X284733Y105961D01*
X284716Y106041D01*
X284695Y106119D01*
X284670Y106197D01*
X284642Y106273D01*
X284610Y106348D01*
X284574Y106421D01*
X284535Y106492D01*
X284493Y106561D01*
X284447Y106629D01*
X284399Y106694D01*
X284347Y106757D01*
X284292Y106817D01*
X284235Y106874D01*
X284175Y106929D01*
X284112Y106981D01*
X284047Y107029D01*
X283979Y107075D01*
X283910Y107117D01*
X283839Y107156D01*
X283766Y107192D01*
X283691Y107224D01*
X283615Y107252D01*
X283537Y107277D01*
X283459Y107298D01*
X283379Y107315D01*
X283299Y107329D01*
X283218Y107338D01*
X283137Y107344D01*
X283056Y107346D01*
X283397Y110080D02*
X281347Y110080D01*
X283397Y110080D02*
X283470Y110078D01*
X283542Y110072D01*
X283614Y110063D01*
X283686Y110049D01*
X283757Y110032D01*
X283826Y110011D01*
X283895Y109986D01*
X283962Y109958D01*
X284027Y109926D01*
X284091Y109891D01*
X284153Y109852D01*
X284212Y109810D01*
X284269Y109765D01*
X284324Y109717D01*
X284376Y109667D01*
X284426Y109613D01*
X284472Y109557D01*
X284516Y109499D01*
X284556Y109438D01*
X284593Y109375D01*
X284626Y109311D01*
X284656Y109245D01*
X284683Y109177D01*
X284706Y109108D01*
X284725Y109037D01*
X284740Y108966D01*
X284752Y108894D01*
X284760Y108822D01*
X284764Y108749D01*
X284764Y108677D01*
X284760Y108604D01*
X284752Y108532D01*
X284740Y108460D01*
X284725Y108389D01*
X284706Y108318D01*
X284683Y108249D01*
X284656Y108181D01*
X284626Y108115D01*
X284593Y108051D01*
X284556Y107988D01*
X284516Y107927D01*
X284472Y107869D01*
X284426Y107813D01*
X284376Y107759D01*
X284324Y107709D01*
X284269Y107661D01*
X284212Y107616D01*
X284153Y107574D01*
X284091Y107535D01*
X284027Y107500D01*
X283962Y107468D01*
X283895Y107440D01*
X283826Y107415D01*
X283757Y107394D01*
X283686Y107377D01*
X283614Y107363D01*
X283542Y107354D01*
X283470Y107348D01*
X283397Y107346D01*
X282031Y107346D01*
D14*
X283000Y96900D02*
X303000Y96900D01*
X303000Y79100D02*
X283000Y79100D01*
M02*
