G04 EAGLE Gerber X2 export*
%TF.Part,Single*%
%TF.FileFunction,Soldermask,Top,1*%
%TF.FilePolarity,Negative*%
%TF.GenerationSoftware,Autodesk,EAGLE,8.6.3*%
%TF.CreationDate,2019-03-24T10:24:13Z*%
G75*
%MOMM*%
%FSLAX34Y34*%
%LPD*%
%AMOC8*
5,1,8,0,0,1.08239X$1,22.5*%
G01*
%ADD10C,1.625600*%
%ADD11P,1.759533X8X22.500000*%
%ADD12C,3.454400*%
%ADD13C,2.565400*%
%ADD14C,0.300800*%
%ADD15C,1.703200*%


D10*
X28100Y269600D03*
D11*
X28100Y295000D03*
X53500Y269600D03*
X53500Y295000D03*
X78900Y269600D03*
X78900Y295000D03*
X104300Y269600D03*
X104300Y295000D03*
X129700Y269600D03*
X129700Y295000D03*
X155100Y269600D03*
X155100Y295000D03*
X180500Y269600D03*
X180500Y295000D03*
X205900Y269600D03*
X205900Y295000D03*
X231300Y269600D03*
X231300Y295000D03*
X256700Y269600D03*
X256700Y295000D03*
X282100Y269600D03*
X282100Y295000D03*
X307500Y269600D03*
X307500Y295000D03*
X332900Y269600D03*
X332900Y295000D03*
X358300Y269600D03*
X358300Y295000D03*
X383700Y269600D03*
X383700Y295000D03*
X409100Y269600D03*
X409100Y295000D03*
X434500Y269600D03*
X434500Y295000D03*
X459900Y269600D03*
X459900Y295000D03*
X485300Y269600D03*
X485300Y295000D03*
X510700Y269600D03*
X510700Y295000D03*
D12*
X98100Y47100D03*
X98100Y174100D03*
D10*
X123500Y75040D03*
X141280Y85200D03*
X123500Y95360D03*
X141280Y105520D03*
X123500Y115680D03*
X141280Y125840D03*
X123500Y136000D03*
X141280Y146160D03*
D13*
X132390Y191626D03*
X132390Y29574D03*
D14*
X280138Y29388D02*
X289162Y29388D01*
X280138Y29388D02*
X280138Y42612D01*
X289162Y42612D01*
X289162Y29388D01*
X289162Y32395D02*
X280138Y32395D01*
X280138Y35402D02*
X289162Y35402D01*
X289162Y38409D02*
X280138Y38409D01*
X280138Y41416D02*
X289162Y41416D01*
X298838Y29388D02*
X307862Y29388D01*
X298838Y29388D02*
X298838Y42612D01*
X307862Y42612D01*
X307862Y29388D01*
X307862Y32395D02*
X298838Y32395D01*
X298838Y35402D02*
X307862Y35402D01*
X307862Y38409D02*
X298838Y38409D01*
X298838Y41416D02*
X307862Y41416D01*
X288162Y81388D02*
X279138Y81388D01*
X279138Y94612D01*
X288162Y94612D01*
X288162Y81388D01*
X288162Y84395D02*
X279138Y84395D01*
X279138Y87402D02*
X288162Y87402D01*
X288162Y90409D02*
X279138Y90409D01*
X279138Y93416D02*
X288162Y93416D01*
X297838Y81388D02*
X306862Y81388D01*
X297838Y81388D02*
X297838Y94612D01*
X306862Y94612D01*
X306862Y81388D01*
X306862Y84395D02*
X297838Y84395D01*
X297838Y87402D02*
X306862Y87402D01*
X306862Y90409D02*
X297838Y90409D01*
X297838Y93416D02*
X306862Y93416D01*
D15*
X250000Y160000D03*
X20000Y120000D03*
X345000Y68000D03*
X54000Y225000D03*
X255000Y87000D03*
X236000Y36000D03*
M02*
