G04 EAGLE Gerber X2 export*
%TF.Part,Single*%
%TF.FileFunction,Paste,Top*%
%TF.FilePolarity,Positive*%
%TF.GenerationSoftware,Autodesk,EAGLE,8.6.3*%
%TF.CreationDate,2019-03-24T10:24:13Z*%
G75*
%MOMM*%
%FSLAX34Y34*%
%LPD*%
%AMOC8*
5,1,8,0,0,1.08239X$1,22.5*%
G01*
%ADD10C,0.250000*%


D10*
X288400Y30150D02*
X280900Y30150D01*
X280900Y41850D01*
X288400Y41850D01*
X288400Y30150D01*
X288400Y32649D02*
X280900Y32649D01*
X280900Y35148D02*
X288400Y35148D01*
X288400Y37647D02*
X280900Y37647D01*
X280900Y40146D02*
X288400Y40146D01*
X299600Y30150D02*
X307100Y30150D01*
X299600Y30150D02*
X299600Y41850D01*
X307100Y41850D01*
X307100Y30150D01*
X307100Y32649D02*
X299600Y32649D01*
X299600Y35148D02*
X307100Y35148D01*
X307100Y37647D02*
X299600Y37647D01*
X299600Y40146D02*
X307100Y40146D01*
X287400Y82150D02*
X279900Y82150D01*
X279900Y93850D01*
X287400Y93850D01*
X287400Y82150D01*
X287400Y84649D02*
X279900Y84649D01*
X279900Y87148D02*
X287400Y87148D01*
X287400Y89647D02*
X279900Y89647D01*
X279900Y92146D02*
X287400Y92146D01*
X298600Y82150D02*
X306100Y82150D01*
X298600Y82150D02*
X298600Y93850D01*
X306100Y93850D01*
X306100Y82150D01*
X306100Y84649D02*
X298600Y84649D01*
X298600Y87148D02*
X306100Y87148D01*
X306100Y89647D02*
X298600Y89647D01*
X298600Y92146D02*
X306100Y92146D01*
M02*
