M48
;GenerationSoftware,Autodesk,EAGLE,8.6.3*%
;CreationDate,2019-02-20T16:21:40Z*%
FMAT,2
ICI,OFF
METRIC,TZ,000.000
T5C0.800
T4C0.889
T3C0.914
T2C1.575
T1C3.251
%
G90
M71
T1
X3810Y3810
X3810Y16510
T2
X7239Y18263
X7239Y2057
T3
X3810Y25400
X52070Y25400
X52070Y22860
X46990Y22860
X11430Y22860
X3810Y22860
X6350Y25400
X6350Y22860
X8890Y25400
X8890Y22860
X11430Y25400
X13970Y25400
X13970Y22860
X16510Y25400
X16510Y22860
X19050Y25400
X19050Y22860
X21590Y25400
X21590Y22860
X24130Y25400
X24130Y22860
X26670Y25400
X26670Y22860
X29210Y25400
X29210Y22860
X31750Y25400
X31750Y22860
X34290Y25400
X34290Y22860
X36830Y25400
X36830Y22860
X39370Y25400
X39370Y22860
X41910Y25400
X41910Y22860
X44450Y25400
X44450Y22860
X46990Y25400
X49530Y25400
X49530Y22860
T4
X6350Y6604
X8128Y7620
X8128Y9652
X6350Y10668
X8128Y11684
X6350Y12700
X8128Y13716
X6350Y8636
T5
X15100Y16700
X24100Y17300
X11800Y19500
X29500Y17900
X26012Y7620
M30