**ABCDEFGHIJKLMNOPQRSTUVWXYZabcdefghijklmnopqrstuvwxyz**************************
**PARASOLID !"#$%&'()*+,-./:;<=>?@[\]^_`{|}~0123456789**************************
**PART1;
MC=AMD64;
MC_MODEL=Intel64 Family 6 Model 142 Stepping 9, GenuineIntel;
MC_ID=unknown;
OS=Windows_NT;
OS_RELEASE=unknown;
FRU=Parasolid Version 30.0, build 298, 12-15-2017;
APPL=SOLIDWORKS 2018-2018134;
SITE=;
USER=unknown;
FORMAT=text;
GUISE=transmit;
KEY=RTEP PCB CASE;
FILE=RTEP PCB CASE.x_t;
DATE=Thu Feb 28 15:46:57 2019;
**PART2;
SCH=SCH_3000298_30000;
USFLD_SIZE=0;
**PART3;
**END_OF_HEADER*****************************************************************
T51 : TRANSMIT FILE created by modeller version 300029823 SCH_3000298_30000_1300
6205 0 12 33 CCCCCCI4 mesh1006 0 I8 polyline1008 0 CCCCCCCDI5 owner1040 0 CCCCCC
I13 boundary_mesh1006 0 I17 boundary_polyline1008 0 CCCA16 index_map_offset0 0 1
 dA9 index_map82 0 A17 node_id_index_map82 0 A20 schema_embedding_map82 0 A5 chi
ld12 0 A14 lowest_node_id0 0 1 dZ1 2039 2 3 0 0 0 0 0 0 1e3 1e-8 0 4 0 1 0 1 1 5
 6 7 8 0 0 9 10 11 0 0 0 0 0 0 81 255 2 2 1798 12 1 0 0 0 0 13 0 70 11 CI9 list_
type0 0 1 uI10 notransmit0 0 1 lCCCDCCDI12 finger_index0 0 1 dI12 finger_block10
12 0 CZ3 0 4 T1 0 0 3 20 1 14 14 13 255 5 94 0 1 0 15 0 0 16 0 51 255 6 1728 0 1
7 18 0 0 +0 .0075 .01832375478927205 -1 0 0 .0025 0 0 1 32 255 7 1733 0 19 20 0
 0 -.0211200039428459 .0075 .01832375478927205 -.707106781186548 0 .707106781186
548 .707106781186548 0 .707106781186548 .003535533905932735 .0025 29 255 8 1555
 0 11 21 0 .0236200039428459 .0025 -.01417624521072796 19 8 CCCCCCCA5 owner12 0
 Z9 28 0 1 16 0 22 V0 16 255 10 1571 0 ?23 0 24 25 0 0 1 18 255 11 1553 0 23 0 2
6 8 ?1 17 255 23 0 27 28 29 11 30 10 0 31 +18 26 1550 0 32 11 33 21 ?1 17 32 0 3
4 31 35 26 36 37 0 28 +18 33 1541 0 38 26 39 40 ?1 29 21 1552 0 26 40 8 .0236200
039428459 .0075 -.01417624521072796 29 40 1543 0 33 41 21 -.02387999605715415 .0
1 .01832375478927205 29 41 1537 0 39 42 40 -.02387999605715415 .01 -.01167624521
072796 18 39 1535 0 43 33 44 41 ?1 29 42 1533 0 44 45 41 .0211200039428459 .01 -
.01167624521072796 18 44 1531 0 46 39 47 42 ?1 29 45 1530 0 47 48 42 .0211200039
428459 .01 .01832375478927205 18 47 1528 0 49 44 50 45 ?1 29 48 1517 0 50 51 45
 -.02637999605715415 .0025 -.01417624521072796 18 50 1515 0 52 47 53 48 ?1 29 51
 1514 0 53 54 48 -.02637999605715415 .0075 -.01417624521072796 18 53 1512 0 55 5
0 56 51 ?1 29 54 1501 0 56 57 51 .01406482506792442 .01 .01832375478927205 18 56
 1499 0 58 53 59 54 ?1 29 57 1493 0 59 60 54 .01406482506792442 .002401719004705
425 .02082182221149345 18 59 1491 0 61 56 62 57 ?1 29 60 1485 0 62 63 57 .015132
2040844104 .002401719004705425 .02082182221149345 18 62 1483 0 64 59 65 60 ?1 29
 63 1477 0 65 66 60 .0151322040844104 .001101719004705428 .02039614718893915 18
 65 1475 0 67 62 68 63 ?1 29 66 1469 0 68 69 63 .014079591681973 .00110171900470
5426 .02039614718893915 18 68 1467 0 70 65 71 66 ?1 29 69 1456 0 71 72 66 .01406
482506792442 .0075 .02082375478927205 18 71 1454 0 73 68 74 69 ?1 29 72 1453 0 7
4 75 69 .01406482506792442 .0025 .02082375478927205 18 74 1451 0 76 71 77 72 ?1
 29 75 1450 0 77 78 72 .0236200039428459 .0025 .02082375478927205 18 77 1448 0 7
9 74 80 75 ?1 29 78 1447 0 80 81 75 .0236200039428459 .0075 .02082375478927205 1
8 80 1445 0 82 77 83 78 ?1 29 81 1436 0 83 84 78 -.02387999605715415 0 .01832375
478927205 18 83 1434 0 85 80 86 81 ?1 29 84 1432 0 86 87 81 -.02387999605715415
 0 -.01167624521072796 18 86 1430 0 88 83 89 84 ?1 29 87 1428 0 89 90 84 .021120
0039428459 0 .01832375478927205 18 89 1426 0 91 86 92 87 ?1 29 90 1425 0 92 93 8
7 .0211200039428459 0 -.01167624521072796 18 92 1423 0 94 89 95 90 ?1 29 93 1422
 0 95 96 90 .014079591681973 0 .01832375478927205 18 95 1420 0 97 92 98 93 ?1 29
 96 1414 0 98 99 93 -.018020408318027 0 .01832375478927205 18 98 1412 0 100 95 1
01 96 ?1 29 99 1406 0 101 102 96 -.018020408318027 .001101719004705424 .02039614
718893915 18 101 1404 0 103 98 104 99 ?1 29 102 1398 0 104 105 99 -.018867795915
58965 .001101719004705426 .02039614718893915 18 104 1396 0 106 101 107 102 ?1 29
 105 1390 0 107 108 102 -.01886779591558965 .002401719004705425 .020821822211493
45 18 107 1388 0 109 104 110 105 ?1 29 108 1377 0 110 111 105 -.0181351749320755
5 .01 .01832375478927205 18 110 1375 0 112 107 113 108 ?1 29 111 1374 0 113 114
 108 -.01813517493207555 .002401719004705425 .02082182221149345 18 113 1372 0 11
5 110 116 111 ?1 29 114 1361 0 116 117 111 -.02637999605715415 .0025 .0208237547
8927205 18 116 1359 0 118 113 119 114 ?1 29 117 1358 0 119 120 114 -.02637999605
715415 .0075 .02082375478927205 18 119 1356 0 121 116 122 117 ?1 29 120 1355 0 1
22 123 117 -.01813517493207555 .0075 .02082375478927205 18 122 1353 0 124 119 12
5 120 ?1 29 123 1352 0 125 126 120 -.01813517493207555 .0025 .02082375478927205
 18 125 1350 0 127 122 128 123 ?1 29 126 1128 0 128 129 123 .0236200039428459 .0
02904491876348125 .01340451353636468 18 128 1126 0 130 125 131 126 ?1 29 129 904
 0 131 132 126 -.02637999605715415 .002718765763956445 .01384844028753622 18 131
 902 0 133 128 134 129 ?1 29 132 603 0 134 135 129 .014079591681973 .00110171900
4705426 -.001676245210727965 18 134 601 0 136 131 137 132 ?1 29 135 239 0 137 13
8 132 -.01886779591558965 .001101719004705426 -.001676245210727965 18 137 185 0
 139 134 140 135 ?1 29 138 240 0 140 141 135 -.01886779591558965 .00240171900470
5425 -.001676245210727965 18 140 187 0 142 137 143 138 ?1 29 141 241 0 143 144 1
38 .0151322040844104 .002401719004705425 -.001676245210727965 18 143 191 0 145 1
40 146 141 ?1 29 144 242 0 146 147 141 .0151322040844104 .001101719004705426 -.0
01676245210727965 18 146 192 0 148 143 149 144 ?1 29 147 416 0 149 150 144 .0140
6482506792442 .01 -.001676245210727965 18 149 358 0 151 146 152 147 ?1 29 150 41
7 0 152 153 147 .01406482506792442 .002401719004705425 -.001676245210727965 18 1
52 360 0 154 149 155 150 ?1 29 153 564 0 155 156 150 -.01813517493207555 .002401
719004705425 -.001676245210727965 18 155 514 0 157 152 158 153 ?1 29 156 565 0 1
58 159 153 -.01813517493207555 .01 -.001676245210727965 18 158 515 0 160 155 161
 156 ?1 29 159 735 0 161 162 156 .014079591681973 0 -.001676245210727965 18 161
 683 0 163 158 164 159 ?1 29 162 876 0 164 165 159 -.018020408318027 0 -.0016762
45210727965 18 164 823 0 166 161 167 162 ?1 29 165 877 0 167 168 162 -.018020408
318027 .001101719004705424 -.001676245210727965 18 167 825 0 169 164 170 165 ?1
 29 168 1001 0 171 172 165 -.02637999605715415 .00271876576395645 -.007151559712
46377 18 171 954 0 173 174 175 168 ?1 29 172 1002 0 175 176 168 -.02637999605715
415 .00671876576395645 -.00715155971246377 18 175 956 0 177 171 178 172 ?1 29 17
6 1003 0 178 179 172 -.02637999605715415 .00671876576395645 .01384844028753622 1
8 178 955 0 180 175 181 176 ?1 29 179 1005 0 170 182 176 -.02237999605715415 .00
271876576395645 -.00715155971246377 18 170 951 0 183 167 184 179 ?1 29 182 1006
 0 184 185 179 -.02237999605715415 .00671876576395645 -.00715155971246377 18 184
 953 0 186 170 187 182 ?1 29 185 1007 0 187 188 182 -.02237999605715415 .0067187
6576395645 .01384844028753622 18 187 957 0 189 184 174 185 ?1 29 188 1008 0 174
 190 185 -.02237999605715415 .00271876576395645 .01384844028753622 18 174 958 0
 191 187 171 188 ?1 29 190 1222 0 192 193 188 .0236200039428459 .006904491876348
13 .01340451353636468 18 192 1175 0 194 195 196 190 ?1 29 193 1223 0 196 197 190
 .0236200039428459 .00690449187634813 -.00759548646363532 18 196 1177 0 198 192
 199 193 ?1 29 197 1224 0 199 200 193 .0236200039428459 .002904491876348125 -.00
759548646363532 18 199 1179 0 201 196 0 197 ?1 29 200 1226 0 181 202 197 .019620
0039428459 .00690449187634813 .01340451353636468 18 181 1172 0 203 178 204 200 ?
1 29 202 1227 0 204 205 200 .0196200039428459 .00690449187634813 -.0075954864636
3532 18 204 1174 0 206 181 207 202 ?1 29 205 1228 0 207 208 202 .019620003942845
9 .002904491876348125 -.00759548646363532 18 207 1176 0 209 204 195 205 ?1 29 20
8 1229 0 195 0 205 .0196200039428459 .002904491876348125 .01340451353636468 18 1
95 1178 0 210 207 192 208 ?1 17 210 0 211 212 130 195 213 214 0 215 -15 255 211
 1183 0 130 216 0 17 212 0 211 194 210 181 217 218 0 219 -17 130 0 211 210 194 1
28 220 221 0 213 +17 213 0 222 223 215 128 210 214 0 224 +16 214 1147 0 ?213 225
 226 227 0 0 1 17 215 0 222 213 209 195 228 229 0 217 -15 222 1195 0 223 230 0 1
7 209 0 222 215 223 207 201 225 0 231 -17 228 0 232 233 217 207 215 229 0 0 +16
 229 1156 0 ?228 234 218 235 0 0 1 17 217 0 232 228 219 195 212 218 0 0 +15 232
 1198 0 217 236 0 17 219 0 232 217 233 181 237 226 0 0 +16 218 1144 0 ?217 229 2
38 239 0 0 1 16 238 1169 0 ?240 218 241 242 0 0 1 30 255 239 1221 0 218 243 235
 0 +.0196200039428459 .00690449187634813 .01340451353636468 0 -1 0 31 255 243 12
83 0 244 245 239 0 +.02149009360209675 .00498617922816158 .01340451353636468 0 0
 -1 -1 0 0 5e-4 30 235 1220 0 229 239 246 0 +.0196200039428459 .0029044918763481
25 .01340451353636468 0 0 -1 30 246 1219 0 234 235 247 0 +.0196200039428459 .006
90449187634813 -.00759548646363532 0 1 -650521303491303e-30 16 234 1152 0 ?233 2
26 229 246 0 0 1 30 247 1218 0 226 246 248 0 +.0196200039428459 .006904491876348
13 .01340451353636468 0 0 1 16 226 1148 0 ?219 214 234 247 0 0 1 30 248 1217 0 2
21 247 249 0 +.0236200039428459 .00690449187634813 .01340451353636468 0 -1 0 16
 221 1160 0 ?130 250 251 248 0 0 1 30 249 1216 0 250 248 252 0 +.023620003942845
9 .002904491876348125 .01340451353636468 0 0 -1 16 250 1163 0 ?223 241 221 249 0
 0 1 30 252 1215 0 241 249 242 0 +.0236200039428459 .00690449187634813 -.0075954
8646363532 0 1 -650521303491303e-30 16 241 1166 0 ?253 238 250 252 0 0 1 30 242
 1214 0 238 252 254 0 +.0236200039428459 .00690449187634813 .01340451353636468 0
 0 1 30 254 1213 0 255 242 256 0 +.0196200039428459 .00690449187634813 .01340451
353636468 1 0 0 16 255 1151 0 ?194 257 258 254 0 0 1 30 256 1212 0 258 254 259 0
 +.0196200039428459 .00690449187634813 -.00759548646363532 1 0 0 16 258 1155 0 ?
198 255 225 256 0 0 1 30 259 1211 0 225 256 227 0 +.0196200039428459 .0029044918
76348125 -.00759548646363532 1 0 0 16 225 1159 0 ?201 258 214 259 0 0 1 30 227 1
210 0 214 259 260 0 +.0196200039428459 .002904491876348125 .01340451353636468 1
 0 0 31 260 1108 0 261 227 262 0 +-.0242473583151366 .00481976553827401 .0143484
4028753622 0 0 -1 -1 0 0 5e-4 16 261 1085 0 ?263 264 257 260 0 0 1 31 262 1107 0
 257 260 265 0 +-.0242473583151366 .00481976553827401 .01384844028753622 0 0 -1
 -1 0 0 5e-4 16 257 1088 0 ?266 261 255 262 0 0 1 31 265 1063 0 267 262 268 0 +-
.02416574109400925 .00477718665668192 -.00765155971246377 0 0 1 1 0 0 5e-4 16 26
7 1040 0 ?269 270 264 265 0 0 1 31 268 1062 0 264 265 271 0 +-.02416574109400925
 .00477718665668192 -.00715155971246377 0 0 1 1 0 0 5e-4 16 264 1043 0 ?272 267
 261 268 0 0 1 30 271 1000 0 273 268 274 0 +-.02237999605715415 .002718765763956
45 -.00715155971246377 0 0 1 16 273 923 0 ?275 276 277 271 0 0 1 30 274 999 0 27
6 271 278 0 +-.02237999605715415 .00671876576395645 .01384844028753622 0 -1 0 16
 276 942 0 ?191 279 273 274 0 0 1 30 278 998 0 279 274 280 0 +-.0223799960571541
5 .00671876576395645 -.00715155971246377 0 0 1 16 279 939 0 ?189 281 276 278 0 0
 1 30 280 997 0 281 278 282 0 +-.02237999605715415 .00671876576395645 -.00715155
971246377 0 -1 0 16 281 927 0 ?283 284 279 280 0 0 1 30 282 996 0 270 280 285 0
 +-.02637999605715415 .00271876576395645 -.00715155971246377 0 0 1 16 270 945 0
 ?133 286 267 282 0 0 1 30 285 995 0 286 282 287 0 +-.02637999605715415 .0067187
6576395645 .01384844028753622 0 -1 0 16 286 935 0 ?288 289 270 285 0 0 1 30 287
 994 0 289 285 290 0 +-.02637999605715415 .00671876576395645 -.00715155971246377
 0 0 1 16 289 931 0 ?291 277 286 287 0 0 1 30 290 993 0 277 287 292 0 +-.0263799
9605715415 .00671876576395645 -.00715155971246377 0 -1 0 16 277 948 0 ?293 273 2
89 290 0 0 1 30 292 992 0 294 290 295 0 +-.02237999605715415 .00271876576395645
 -.00715155971246377 -1 0 0 16 294 930 0 ?173 296 297 292 0 0 1 30 295 991 0 297
 292 298 0 +-.02237999605715415 .00671876576395645 -.00715155971246377 -1 0 0 16
 297 934 0 ?177 294 299 295 0 0 1 30 298 990 0 299 295 300 0 +-.0223799960571541
5 .00671876576395645 .01384844028753622 -1 0 0 16 299 938 0 ?180 297 284 298 0 0
 1 30 300 989 0 284 298 301 0 +-.02237999605715415 .00271876576395645 .013848440
28753622 -1 0 0 16 284 926 0 ?302 299 281 300 0 0 1 30 301 868 0 296 300 303 0 +
-.018020408318027 .001101719004705424 -.001676245210727965 0 -1 0 16 296 801 0 ?
304 305 294 301 0 0 1 30 303 861 0 306 301 307 0 +-.018020408318027 0 -.00167624
5210727965 0 0 1 16 306 804 0 ?308 309 305 303 0 0 1 30 307 860 0 305 303 310 0
 +-.018020408318027 .001101719004705424 -.001676245210727965 0 0 1 16 305 808 0
 ?311 306 296 307 0 0 1 30 310 727 0 309 307 312 0 +.000579591681973003 0 -.0016
76245210727965 1 0 0 16 309 663 0 ?313 314 306 310 0 0 1 30 312 726 0 314 310 31
5 0 +.014079591681973 .001101719004705426 -.001676245210727965 0 1 0 16 314 659
 0 ?136 316 309 312 0 0 1 30 315 719 0 317 312 318 0 +.014079591681973 .00110171
9004705426 -.001676245210727965 0 0 1 16 317 662 0 ?319 320 316 315 0 0 1 30 318
 718 0 316 315 321 0 +.014079591681973 0 -.001676245210727965 0 0 1 16 316 666 0
 ?322 317 314 318 0 0 1 30 321 556 0 323 318 324 0 +-.01813517493207555 .0024017
19004705425 -.001676245210727965 0 1 0 16 323 499 0 ?325 326 320 321 0 0 1 30 32
4 552 0 320 321 327 0 +-.01813517493207555 .002401719004705425 .0208237547892720
5 0 1 0 16 320 1351 0 ?328 323 317 324 0 0 1 30 327 547 0 329 324 330 0 +-.01813
517493207555 .002401719004705425 -.001676245210727965 0 0 1 16 329 495 0 ?331 33
2 326 327 0 0 1 30 330 546 0 326 327 333 0 +-.01813517493207555 .01 -.0016762452
10727965 0 0 1 16 326 483 0 ?334 329 323 330 0 0 1 30 333 408 0 335 330 336 0 +.
01406482506792442 0 -.001676245210727965 0 1 0 16 335 336 0 ?337 338 332 333 0 0
 1 30 336 407 0 338 333 339 0 +0 .01 -.001676245210727965 -1 0 0 16 338 331 0 ?1
60 340 335 336 0 0 1 30 339 404 0 332 336 341 0 +.01406482506792442 0 .020823754
78927205 0 1 0 16 332 1452 0 ?342 335 329 339 0 0 1 30 341 399 0 343 339 344 0 +
.01406482506792442 .01 -.001676245210727965 0 0 1 16 343 339 0 ?345 346 340 341
 0 0 1 30 344 398 0 340 341 347 0 +.01406482506792442 .002401719004705425 -.0016
76245210727965 0 0 1 16 340 325 0 ?348 343 338 344 0 0 1 30 347 234 0 349 344 35
0 0 +-.01886779591558965 .001101719004705426 -.001676245210727965 1 0 0 16 349 1
57 0 ?351 352 346 347 346 346 1 30 350 233 0 352 347 353 0 +.0151322040844104 .0
02401719004705425 -.001676245210727965 0 -1 0 16 352 176 0 ?354 355 349 350 0 0
 1 30 353 232 0 356 350 357 0 +-.01886779591558965 .002401719004705425 -.0016762
45210727965 1 0 0 16 356 173 0 ?358 359 355 353 355 355 1 30 357 231 0 359 353 3
60 0 +-.01886779591558965 .002401719004705425 -.001676245210727965 0 -1 0 16 359
 161 0 ?361 362 356 357 0 0 1 30 360 226 0 363 357 364 0 +-.01886779591558965 .0
01101719004705426 -.001676245210727965 0 0 1 16 363 164 0 ?365 366 367 360 0 0 1
 30 364 225 0 367 360 368 0 +-.01886779591558965 .002401719004705425 -.001676245
210727965 0 0 1 16 367 168 0 ?369 363 370 364 0 0 1 30 368 224 0 370 364 371 0 +
.0151322040844104 .002401719004705425 -.001676245210727965 0 0 1 16 370 172 0 ?3
72 367 362 368 0 0 1 30 371 223 0 362 368 373 0 +.0151322040844104 .001101719004
705426 -.001676245210727965 0 0 1 16 362 160 0 ?374 370 359 371 0 0 1 30 373 90
 0 366 371 375 0 +-.02637999605715415 .01 -.01417624521072796 0 -1 0 16 366 1513
 0 ?376 377 363 373 0 0 1 30 375 91 0 377 373 378 0 +.0236200039428459 .01 -.014
17624521072796 0 -1 0 16 377 1551 0 ?31 379 366 375 0 0 1 30 378 92 0 379 375 38
0 0 +.0236200039428459 .01 .02082375478927205 0 -1 0 16 379 1446 0 ?29 381 377 3
78 0 0 1 30 380 93 0 381 378 382 0 +-.02637999605715415 .01 .02082375478927205 0
 -1 0 16 381 1357 0 ?383 384 379 380 0 0 1 30 382 1364 0 384 380 385 0 --.026379
99605715415 .0075 .02082375478927205 1 0 0 16 384 1362 0 ?121 386 381 382 0 0 1
 30 385 1369 0 386 382 387 0 +-.02637999605715415 .0025 .02082375478927205 1 0 0
 16 386 1367 0 ?388 389 384 385 0 0 1 31 387 1380 0 389 385 390 0 +-.01813517493
207555 .0075 .01832375478927205 1 0 0 0 0 -1 .0025 16 389 1378 0 ?124 391 386 38
7 0 0 1 31 390 1385 0 391 387 392 0 +-.01813517493207555 .0025 .0183237547892720
5 1 0 0 0 0 -1 .0025 16 391 1383 0 ?115 393 389 390 0 0 1 30 392 1393 0 393 390
 394 0 --.01813517493207555 .002401719004705425 .02082182221149345 1 0 0 16 393
 1391 0 ?109 395 391 392 0 0 1 31 394 1401 0 395 392 396 0 --.01886779591558965
 .0025 .01832375478927205 -1 0 0 0 0 1 .0025 16 395 1399 0 ?106 397 393 394 0 0
 1 30 396 1409 0 397 394 398 0 +-.01886779591558965 .001101719004705426 .0203961
4718893915 1 0 0 16 397 1407 0 ?103 399 395 396 0 0 1 31 398 1417 0 399 396 400
 0 --.018020408318027 .0025 .01832375478927205 -1 0 0 0 0 1 .0025 16 399 1415 0
 ?100 401 397 398 0 0 1 30 400 1429 0 401 398 402 0 -.0211200039428459 0 0 0 0 -
1 16 401 1427 0 ?91 403 399 400 0 0 1 30 402 1433 0 403 400 404 0 -0 0 -.0116762
4521072796 -1 0 0 16 403 1431 0 ?94 405 401 402 0 0 1 30 404 1437 0 405 402 406
 0 --.02387999605715415 0 0 0 0 1 16 405 1435 0 ?88 407 403 404 0 0 1 30 406 143
9 0 407 404 408 0 -0 0 .01832375478927205 1 0 0 16 407 1438 0 ?97 409 405 406 0
 0 1 30 408 1442 0 409 406 410 0 -0 0 .01832375478927205 1 0 0 16 409 1440 0 ?85
 411 407 408 0 0 1 30 410 1459 0 411 408 412 0 -.01406482506792442 .0075 .020823
75478927205 1 0 0 16 411 1457 0 ?73 413 409 410 0 0 1 30 412 1464 0 413 410 414
 0 +-.02637999605715415 .0025 .02082375478927205 1 0 0 16 413 1462 0 ?79 415 411
 412 0 0 1 31 414 1472 0 415 412 416 0 -.014079591681973 .0025 .0183237547892720
5 1 0 0 0 0 -1 .0025 16 415 1470 0 ?70 417 413 414 0 0 1 30 416 1480 0 417 414 4
18 0 +.014079591681973 .001101719004705426 .02039614718893915 1 0 0 16 417 1478
 0 ?67 419 415 416 0 0 1 31 418 1488 0 419 416 420 0 +.0151322040844104 .0025 .0
1832375478927205 -1 0 0 0 0 1 .0025 16 419 1486 0 ?64 421 417 418 0 0 1 30 420 1
496 0 421 418 422 0 -.0151322040844104 .002401719004705425 .02082182221149345 1
 0 0 16 421 1494 0 ?61 423 419 420 0 0 1 31 422 1504 0 423 420 424 0 -.014064825
06792442 .0075 .01832375478927205 1 0 0 0 0 -1 .0025 16 423 1502 0 ?58 425 421 4
22 0 0 1 31 424 1509 0 425 422 426 0 -.01406482506792442 .0025 .0183237547892720
5 1 0 0 0 0 -1 .0025 16 425 1507 0 ?76 427 423 424 0 0 1 30 426 1520 0 427 424 4
28 0 --.02637999605715415 .0075 -.01417624521072796 0 0 1 16 427 1518 0 ?55 429
 425 426 0 0 1 30 428 1525 0 429 426 430 0 +-.02637999605715415 .0025 -.01417624
521072796 0 0 1 16 429 1523 0 ?118 431 427 428 0 0 1 30 430 1534 0 431 428 432 0
 +.0211200039428459 .01 -.01417624521072796 0 0 -1 16 431 1532 0 ?46 433 429 430
 0 0 1 30 432 1538 0 433 430 434 0 +-.02637999605715415 .01 -.01167624521072796
 -1 0 0 16 433 1536 0 ?43 435 431 432 0 0 1 30 434 1540 0 435 432 436 0 +.023620
0039428459 .01 .01832375478927205 1 0 0 16 435 1539 0 ?49 437 433 434 0 0 1 30 4
36 1544 0 437 434 438 0 +-.02387999605715415 .01 .02082375478927205 0 0 1 16 437
 1542 0 ?439 440 435 436 0 0 1 30 438 1547 0 440 436 441 0 +-.01813517493207555
 .01 .01832375478927205 1 0 0 16 440 1545 0 ?112 37 437 438 0 0 1 30 441 1558 0
 37 438 442 0 -.0236200039428459 .0075 -.01417624521072796 -1 0 0 16 37 1556 0 ?
32 443 440 441 0 0 1 30 442 1563 0 443 441 444 0 +-.02637999605715415 .0025 -.01
417624521072796 -1 0 0 16 443 1561 0 ?52 24 37 442 0 0 1 30 444 1568 0 24 442 25
 0 -.0236200039428459 .0075 .02082375478927205 0 0 -1 16 24 1566 0 ?82 10 443 44
4 0 0 1 30 25 1573 0 10 444 445 0 +.0236200039428459 .0025 -.01417624521072796 0
 0 -1 32 445 1663 0 446 25 447 0 +-.02387999605715415 .0025 .01832375478927205 .
707106781186548 0 .707106781186548 -.707106781186548 0 .707106781186548 .0035355
33905932735 .0025 16 446 1628 0 ?448 449 19 445 0 0 1 32 447 1662 0 449 445 450
 0 +-.02387999605715415 .0025 -.01167624521072796 -.707106781186548 0 .707106781
186548 -.707106781186548 0 -.707106781186548 .003535533905932735 .0025 16 449 16
25 0 ?451 452 446 447 0 0 1 32 450 1661 0 452 447 453 0 +.0211200039428459 .0025
 -.01167624521072796 -.707106781186548 0 -.707106781186548 .707106781186548 0 -.
707106781186548 .003535533905932735 .0025 16 452 1622 0 ?454 455 449 450 0 0 1 3
2 453 1660 0 455 450 456 0 +.0211200039428459 .0025 .01832375478927205 .70710678
1186548 0 -.707106781186548 -.707106781186548 0 -.707106781186548 .0035355339059
32735 .0025 16 455 1619 0 ?457 458 452 453 0 0 1 32 456 1736 0 459 453 460 0 +-.
02387999605715415 .0075 .01832375478927205 -.707106781186548 0 -.707106781186548
 -.707106781186548 0 .707106781186548 .003535533905932735 .0025 16 459 1715 0 ?3
8 461 0 456 0 0 1 32 460 1735 0 461 456 20 0 --.02387999605715415 .0075 -.011676
24521072796 .707106781186548 0 -.707106781186548 .707106781186548 0 .70710678118
6548 .003535533905932735 .0025 16 461 1713 0 ?462 463 459 460 0 0 1 32 20 1734 0
 463 460 7 0 -.0211200039428459 .0075 -.01167624521072796 .707106781186548 0 .70
7106781186548 -.707106781186548 0 .707106781186548 .003535533905932735 .0025 16
 463 1707 0 ?464 19 461 20 0 0 1 17 464 0 465 36 466 26 467 463 0 0 +16 19 1704
 0 ?468 446 463 7 0 0 1 17 468 0 469 470 471 80 472 19 0 0 +15 469 1691 0 468 47
3 0 17 470 0 469 467 468 26 82 24 0 464 -17 471 0 469 468 467 47 46 431 0 0 -17
 472 0 474 475 476 47 468 19 0 471 -15 474 1689 0 477 17 0 17 475 0 474 477 472
 56 49 435 0 0 -17 476 0 474 472 477 80 73 411 0 468 -17 477 0 474 476 475 71 58
 423 0 0 -17 73 0 478 479 480 71 476 411 0 342 +15 478 475 0 479 481 0 17 479 0
 478 79 73 74 342 332 0 482 -17 480 0 478 73 79 80 29 379 0 476 -17 342 0 483 58
 76 71 479 332 0 477 +15 483 381 0 348 484 0 17 58 0 483 151 342 56 477 423 0 34
5 +17 76 0 483 342 348 74 485 425 0 479 +17 348 0 483 76 154 59 486 340 0 485 +1
7 485 0 487 488 482 59 76 425 0 0 -15 487 1600 0 489 490 0 17 488 0 487 491 485
 62 61 421 0 0 -17 482 0 487 485 492 74 79 413 0 0 -17 492 0 487 482 493 77 457
 455 0 30 -17 79 0 478 480 479 77 482 413 0 29 +17 29 0 27 23 82 77 480 379 0 49
2 +15 27 80 0 29 494 0 17 82 0 27 29 28 80 470 24 0 480 +17 28 0 27 82 23 26 31
 377 0 470 -17 31 0 34 52 32 11 28 377 0 495 +15 34 78 0 31 496 0 17 52 0 34 35
 31 50 497 443 0 376 +17 495 0 498 30 499 11 454 452 0 497 -15 498 1602 0 457 50
0 0 17 30 0 498 457 495 77 23 10 0 0 -17 499 0 498 495 457 92 91 401 0 454 -17 4
54 0 501 502 497 92 495 452 0 0 +17 497 0 501 454 503 11 52 443 0 0 -15 501 1604
 0 454 504 0 17 503 0 501 497 502 50 451 449 0 505 -17 502 0 501 503 454 86 94 4
03 0 451 -17 451 0 506 507 505 86 503 449 0 0 +17 505 0 506 451 508 50 118 429 0
 0 -15 506 1606 0 451 509 0 17 508 0 506 505 507 116 448 446 0 510 -17 118 0 511
 512 376 116 505 429 0 383 +15 511 84 0 376 513 0 17 512 0 511 55 118 119 383 38
1 0 514 -17 376 0 511 118 55 50 35 366 0 503 +17 383 0 515 388 121 116 512 381 0
 508 +15 515 641 0 383 15 0 17 388 0 515 328 383 125 510 386 0 516 +17 121 0 515
 383 328 119 517 384 0 512 +17 328 0 515 121 388 122 516 320 0 517 +17 517 0 518
 519 520 122 121 384 0 0 -15 518 1695 0 519 521 0 17 519 0 518 522 517 110 124 3
89 0 0 -17 520 0 518 517 522 119 38 459 0 0 -17 522 0 518 520 519 33 112 440 0 4
39 -17 38 0 523 524 514 33 520 459 0 522 +15 523 1697 0 462 525 0 17 524 0 523 4
62 38 39 439 437 0 0 -17 514 0 523 38 462 119 55 427 0 520 -17 462 0 523 514 524
 53 526 461 0 0 +17 55 0 511 376 512 53 514 427 0 35 +17 35 0 34 32 52 53 376 36
6 0 36 -17 36 0 465 526 464 53 32 37 0 462 -15 465 1693 0 464 527 0 17 526 0 465
 466 36 39 462 461 0 524 -17 466 0 465 464 526 44 43 433 0 0 -17 43 0 528 439 46
 39 466 433 0 526 +15 528 3 0 439 529 0 17 439 0 528 112 43 33 524 437 0 0 +17 4
6 0 528 43 49 44 471 431 0 467 +17 49 0 528 46 345 47 475 435 0 472 +17 467 0 46
9 471 470 44 464 463 0 466 -17 345 0 528 49 530 56 151 343 0 475 +17 530 0 528 3
45 531 149 160 338 0 0 -17 151 0 483 154 58 149 345 343 0 337 -17 154 0 483 348
 151 152 337 335 0 486 -17 337 0 532 160 533 149 154 335 0 530 +15 532 883 0 351
 534 0 17 160 0 532 535 337 158 530 338 0 325 +17 533 0 532 337 536 152 145 355
 0 0 -17 536 0 532 533 148 143 354 352 0 0 -17 145 0 537 372 486 143 533 355 0 5
38 +16 355 275 0 ?145 356 352 353 356 356 1 15 537 284 0 372 539 0 17 372 0 537
 61 145 62 538 370 0 488 +17 486 0 537 145 61 152 348 340 0 533 -17 538 0 540 35
4 64 143 372 370 0 536 -15 540 208 0 374 541 0 17 354 0 540 374 538 146 536 352
 0 542 +17 64 0 540 538 374 62 491 419 0 372 +17 374 0 540 64 354 65 542 362 0 4
91 +17 491 0 487 543 488 65 64 419 0 0 -17 543 0 487 489 491 68 67 417 0 0 -17 4
89 0 487 493 543 95 70 415 0 0 -17 67 0 544 542 319 65 543 417 0 374 +15 544 196
 0 319 545 0 17 542 0 544 546 67 146 374 362 0 0 -17 319 0 544 67 546 68 547 317
 0 543 +17 546 0 544 319 542 134 148 346 0 0 -17 547 0 548 163 70 134 319 317 0
 546 -15 548 698 0 322 549 0 17 163 0 548 322 547 161 136 314 0 313 -17 70 0 548
 547 322 68 489 415 0 319 +17 322 0 548 70 163 95 550 316 0 489 +17 550 0 551 16
6 97 161 322 316 0 0 -15 551 1424 0 308 552 0 17 166 0 551 308 550 164 313 309 0
 553 -17 97 0 551 550 91 95 493 407 0 322 +17 91 0 551 97 94 89 499 401 0 493 +1
7 493 0 487 492 489 89 97 407 0 457 -17 457 0 498 499 30 89 492 455 0 0 +17 94 0
 551 91 88 92 502 403 0 499 +17 88 0 551 94 85 86 507 405 0 502 +17 85 0 551 88
 308 83 554 409 0 507 +17 507 0 506 508 451 83 88 405 0 448 -17 448 0 555 554 51
0 83 508 446 0 0 +15 555 1608 0 448 556 0 17 554 0 555 557 448 98 85 409 0 0 -17
 510 0 555 448 127 116 388 386 0 0 -17 127 0 555 510 558 125 115 391 0 388 -17 5
58 0 555 127 559 113 109 393 0 0 -17 115 0 560 157 516 113 127 391 0 331 +15 560
 531 0 516 561 0 17 157 0 560 325 115 155 331 329 0 535 -17 516 0 560 115 124 12
5 328 320 0 0 -17 331 0 562 109 358 113 157 329 0 558 +15 562 204 0 331 563 0 17
 109 0 562 142 331 107 558 393 0 369 +17 358 0 562 331 142 155 564 356 0 0 +17 1
42 0 562 358 109 140 369 367 0 564 -17 564 0 532 361 535 140 358 356 0 565 -17 3
61 0 532 351 564 137 565 359 0 0 +17 535 0 532 564 160 155 325 323 0 358 -17 565
 0 566 369 139 140 361 359 0 0 -15 566 200 0 369 567 0 17 369 0 566 106 565 107
 142 367 0 559 +17 139 0 566 565 106 137 365 363 0 568 -17 106 0 566 139 369 104
 559 395 0 365 +17 365 0 569 103 568 104 139 363 0 570 +17 568 0 569 365 571 137
 351 349 0 361 -15 569 611 0 365 572 0 17 571 0 569 568 103 167 311 305 0 351 -1
7 351 0 532 304 361 167 568 349 0 0 +17 304 0 532 313 351 164 169 296 0 0 +17 31
3 0 532 136 304 161 166 309 0 550 +17 169 0 573 311 553 167 304 296 0 571 -15 57
3 840 0 311 574 0 17 311 0 573 100 169 101 571 305 0 557 +17 553 0 573 169 100 1
64 308 306 0 304 -17 100 0 573 553 311 98 557 399 0 308 +17 308 0 551 85 166 98
 553 306 0 554 +17 557 0 555 570 554 101 100 399 0 0 -17 570 0 555 559 557 104 1
03 397 0 0 -17 559 0 555 558 570 107 106 395 0 0 -17 103 0 569 571 365 101 570 3
97 0 311 +14 255 574 837 575 ?576 549 573 5 577 -0 0 576 549 22 81 1 575 1994 57
8 574 579 0 0 580 581 14 576 959 580 ?582 574 583 5 584 -0 0 582 574 22 14 549 6
95 585 ?574 561 548 5 586 -0 0 574 561 22 50 255 577 855 0 574 584 586 0 +-.0180
20408318027 .001101719004705424 -.001676245210727965 -1 0 0 0 0 1 13 22 29 0 0 0
 0 0 0 9 15 14 15 643 587 ?572 0 515 5 588 -481 481 572 0 22 81 1 587 1997 578 1
5 589 0 585 590 591 14 572 613 590 ?481 15 569 5 592 -545 545 481 15 22 50 588 8
8 0 481 593 594 0 +-.02637999605715415 .01 .02082375478927205 0 0 -1 -1 0 0 14 4
81 477 595 ?529 572 478 5 588 -15 15 529 572 22 81 1 595 1999 578 481 596 0 590
 597 598 14 529 472 597 ?563 481 528 5 599 +0 0 563 481 22 81 1 597 2000 578 529
 600 0 595 601 602 14 563 460 601 ?513 529 562 5 603 +539 539 513 529 22 50 599
 2 0 529 592 604 0 +0 .01 0 0 1 0 0 0 1 50 592 217 0 545 605 599 0 +-.0188677959
1558965 .001101719004705426 -.001676245210727965 0 -1 0 0 0 -1 50 604 65 0 552 5
99 606 0 +0 0 0 0 1 0 0 0 1 14 552 43 607 ?545 496 551 5 604 -0 0 545 496 22 50
 606 86 0 496 604 593 0 +-.02637999605715415 .01 -.01417624521072796 0 0 1 1 0 0
 14 496 79 608 ?552 494 34 5 606 -0 0 552 494 22 50 593 87 0 494 606 588 0 +.023
6200039428459 .01 -.01417624521072796 -1 0 0 0 0 1 14 494 81 609 ?496 513 610 5
 593 -0 0 496 513 22 81 1 609 2004 578 494 611 0 608 612 613 14 513 85 612 ?494
 563 614 5 594 -0 0 494 563 22 15 610 1124 0 224 494 27 17 224 0 610 220 615 128
 223 250 0 0 -17 220 0 610 616 224 192 130 221 0 0 -17 615 0 610 224 616 199 253
 241 0 0 -17 223 0 222 209 213 199 224 250 0 615 +17 616 0 610 615 220 196 240 2
38 0 0 -17 253 0 617 206 201 196 615 241 0 616 +15 617 1191 0 253 618 0 17 206 0
 617 231 253 204 198 258 0 233 -17 201 0 617 253 231 199 209 225 0 223 +17 231 0
 617 201 206 207 233 234 0 228 -17 233 0 232 219 228 204 231 234 0 237 +17 237 0
 619 198 203 204 219 226 0 0 -15 619 1187 0 240 620 0 17 198 0 619 240 237 196 2
06 258 0 253 +17 203 0 619 237 240 181 194 255 0 212 -17 240 0 619 203 198 192 6
16 238 0 220 +17 194 0 211 130 212 192 203 255 0 240 +14 620 1184 621 ?618 216 6
19 5 622 -0 0 618 216 22 81 1 621 2006 578 620 623 0 612 624 625 14 618 1188 624
 ?230 620 626 5 627 -0 0 230 620 22 14 216 1180 628 ?620 629 630 5 631 -0 0 620
 629 22 50 622 1207 0 620 632 627 0 +.0196200039428459 .00690449187634813 .01340
451353636468 0 1 0 0 0 1 50 632 1209 0 236 633 622 0 +.0196200039428459 0 0 1 0
 0 0 0 -1 50 627 1206 0 618 622 634 0 +.0196200039428459 .00690449187634813 -.00
759548646363532 0 -650521303491303e-30 -1 0 1 -650521303491303e-30 50 634 1205 0
 230 627 631 0 +.0196200039428459 .002904491876348125 .01340451353636468 0 -1 0
 0 0 -1 14 230 1192 635 ?236 618 222 5 634 -0 0 236 618 22 50 631 1204 0 216 634
 636 0 +.0196200039428459 .00690449187634813 .01340451353636468 0 0 1 1 0 0 50 6
36 1106 0 629 631 637 0 +-.0242473583151366 .00481976553827401 .0143484402875362
2 0 0 -1 -1 0 0 14 629 1096 638 ?216 639 640 5 636 +0 0 216 639 22 51 637 1104 0
 639 636 641 0 +-.0242473583151366 .00481976553827401 .01434844028753622 0 0 -1
 5e-4 -1 0 0 14 639 1091 642 ?629 643 644 5 637 -0 0 629 643 22 50 641 1061 0 64
3 637 645 0 +-.02416574109400925 .00477718665668192 -.00765155971246377 0 0 1 1
 0 0 14 643 1051 646 ?639 647 648 5 641 +0 0 639 647 22 51 645 1059 0 647 641 64
9 0 +-.02416574109400925 .00477718665668192 -.00765155971246377 0 0 1 5e-4 1 0 0
 14 647 1046 650 ?643 651 652 5 645 -0 0 643 651 22 50 649 988 0 651 645 653 0 +
-.02237999605715415 0 0 1 0 0 0 0 -1 14 651 975 654 ?647 655 656 5 649 -0 0 647
 655 22 50 653 986 0 582 649 657 0 +-.02237999605715415 .00671876576395645 -.007
15155971246377 0 0 -1 -1 0 0 14 582 963 658 ?659 576 660 5 653 -0 0 659 576 22 5
0 657 985 0 659 653 661 0 +-.02237999605715415 .00671876576395645 -.007151559712
46377 0 -1 0 0 0 -1 14 659 967 662 ?655 582 663 5 657 +0 0 655 582 22 50 661 984
 0 655 657 584 0 +-.02237999605715415 .00671876576395645 .01384844028753622 0 0
 -1 -1 0 0 14 655 971 664 ?651 659 665 5 661 +0 0 651 659 22 50 584 983 0 576 66
1 577 0 +-.02237999605715415 .00271876576395645 -.00715155971246377 0 -1 0 0 0 -
1 81 1 664 2017 578 655 666 0 662 667 668 15 665 1080 0 669 655 670 17 669 0 665
 669 669 0 266 257 0 0 -15 670 974 0 671 655 0 17 671 0 670 672 302 178 288 286
 0 291 -17 672 0 670 191 671 187 180 299 0 673 -17 302 0 670 671 191 131 674 284
 0 288 +17 288 0 614 675 291 131 671 286 0 0 +17 291 0 614 288 676 178 677 289 0
 0 +15 614 903 0 288 513 511 17 676 0 614 291 675 175 293 277 0 0 -17 677 0 663
 186 180 175 291 289 0 676 -15 663 970 0 677 659 0 17 186 0 663 189 677 184 177
 297 0 678 -17 180 0 663 677 189 178 672 299 0 671 +17 189 0 663 180 186 187 678
 279 0 672 +17 678 0 656 283 673 184 189 279 0 679 -15 656 977 0 275 651 0 17 28
3 0 656 275 678 170 679 281 0 0 +17 673 0 656 678 275 187 191 276 0 0 -17 679 0
 680 177 183 184 283 281 0 0 -15 680 966 0 293 582 0 17 177 0 680 293 679 175 18
6 297 0 677 +17 183 0 680 679 293 170 173 294 0 681 -17 293 0 680 183 177 171 67
6 277 0 675 +17 173 0 583 133 681 171 183 294 0 293 +17 681 0 583 173 674 170 27
5 273 0 283 -15 583 962 0 133 576 0 17 674 0 583 681 133 174 302 284 0 275 -17 2
75 0 656 673 283 174 681 273 0 0 +17 133 0 583 674 173 131 675 270 0 302 +17 675
 0 614 676 288 171 133 270 0 0 -17 191 0 670 302 672 174 673 276 0 674 +17 266 0
 682 266 266 0 669 257 0 0 +15 682 1095 0 266 639 0 80 255 1 578 683 684 9000 1
 1 1 1 1 1 1 1 0 FFFFTFTFFFFFFF1 81 1 666 1871 685 655 0 664 686 687 688 81 1 66
2 2016 578 659 686 0 658 664 689 81 1 667 2018 578 690 691 0 664 692 693 82 255
 1 668 481886335 14 690 1267 667 ?694 236 695 5 633 -0 0 694 236 22 81 1 691 188
2 685 690 0 667 696 697 698 81 1 692 2019 578 694 697 0 667 699 700 82 1 693 -39
2167291 14 694 1272 692 ?701 690 702 5 703 +0 0 701 690 22 81 1 697 1883 685 694
 0 692 691 704 705 81 1 699 2020 578 701 704 0 692 706 707 82 1 700 -394133371 1
4 701 1312 699 ?708 694 709 5 710 -0 0 708 694 22 81 1 704 1884 685 701 0 699 69
7 711 712 81 1 706 2021 578 708 711 0 699 713 714 82 1 707 1788280968 14 708 131
7 706 ?490 701 715 5 716 +0 0 490 701 22 81 1 711 1885 685 708 0 706 704 717 718
 81 1 713 2022 578 545 719 0 706 720 721 82 1 714 1786314888 14 545 193 713 ?567
 552 544 5 592 -572 572 567 552 22 81 1 719 1859 685 545 0 713 722 723 724 81 1
 720 2023 578 567 723 0 713 725 726 82 1 721 -925106038 14 567 197 720 ?539 545
 566 5 727 -0 0 539 545 22 81 1 723 1860 685 567 0 720 719 728 729 81 1 725 2024
 578 539 728 0 720 730 731 82 1 726 -925826934 14 539 201 725 ?541 567 537 5 603
 +563 563 541 567 22 81 1 728 1861 685 539 0 725 723 732 733 81 1 730 2025 578 5
41 732 0 725 734 735 82 1 731 -925695862 14 541 205 730 ?534 539 540 5 605 +0 0
 534 539 22 81 1 732 1862 685 541 0 730 728 736 737 81 1 734 2026 578 484 738 0
 730 739 740 82 1 735 -925368182 14 484 378 734 ?561 534 483 5 741 -0 0 561 534
 22 81 1 738 1864 685 484 0 734 736 742 743 81 1 739 2027 578 561 742 0 734 744
 745 82 1 740 -591134582 14 561 528 739 ?549 484 560 5 746 +0 0 549 484 22 81 1
 742 1865 685 561 0 739 738 747 748 81 1 744 2028 578 490 717 0 739 749 750 82 1
 745 -1662517110 14 490 1599 744 ?500 708 487 5 751 +0 0 500 708 22 81 1 717 188
6 685 490 0 744 711 752 753 81 1 749 2029 578 500 752 0 744 754 755 82 1 750 268
173450 14 500 1601 749 ?504 490 498 5 756 +0 0 504 490 22 81 1 752 1887 685 500
 0 749 717 757 758 81 1 754 2030 578 504 757 0 749 759 760 82 1 755 267059338 14
 504 1603 754 ?509 500 501 5 761 +0 0 509 500 22 81 1 757 1888 685 504 0 754 752
 762 763 81 1 759 2031 578 509 762 0 754 764 765 82 1 760 265945226 14 509 1605
 759 ?556 504 506 5 766 +0 0 556 504 22 81 1 762 1889 685 509 0 759 757 767 768
 81 1 764 2032 578 556 767 0 759 769 770 82 1 765 264765578 14 556 1607 764 ?17
 509 555 5 771 +0 0 17 509 22 81 1 767 1890 685 556 0 764 762 772 773 81 1 769 2
033 578 17 772 0 764 774 775 82 1 770 261947530 14 17 1688 769 ?473 556 474 5 6
 +0 0 473 556 22 81 1 772 1891 685 17 0 769 767 776 777 81 1 774 2034 578 473 77
6 0 769 778 779 82 1 775 275906698 14 473 1690 774 ?527 17 469 5 18 +0 0 527 17
 22 81 1 776 1892 685 473 0 774 772 780 781 81 1 778 2035 578 527 780 0 774 782
 783 82 1 779 274792586 14 527 1692 778 ?521 473 465 5 784 +0 0 521 473 22 81 1
 780 1893 685 527 0 778 776 785 786 81 1 782 2036 578 521 785 0 778 787 788 82 1
 783 273678474 14 521 1694 782 ?525 527 518 5 789 +0 0 525 527 22 81 1 785 1894
 685 521 0 782 780 790 791 81 1 787 2037 578 525 790 0 782 792 793 82 1 788 2725
64362 14 525 1696 787 ?0 521 523 5 794 +0 0 0 521 22 81 1 790 1895 685 525 0 787
 785 0 795 81 1 792 2038 578 534 736 0 787 796 797 82 1 793 270991498 14 534 209
 792 ?484 541 532 5 798 -0 0 484 541 22 81 1 736 1863 685 534 0 792 732 738 799
 81 1 796 2039 578 236 696 0 792 0 800 82 1 797 -932380554 14 236 1196 796 ?690
 230 232 5 632 +0 0 690 230 22 81 1 696 1881 685 236 0 796 801 691 802 82 1 800
 597098626 80 1 685 0 803 8001 0 0 0 0 3 5 0 0 0 FFFFTFTFFFFFFF2 81 1 801 1880 6
85 230 0 635 804 696 805 83 255 3 802 .792156862745098 .819607843137255 .9333333
33333333 81 1 635 2009 578 230 801 0 628 638 806 81 1 804 1879 685 618 0 624 623
 801 807 83 3 805 .792156862745098 .819607843137255 .933333333333333 81 1 624 20
07 578 618 804 0 621 628 808 81 1 623 1878 685 620 0 621 809 804 810 83 3 807 .7
92156862745098 .819607843137255 .933333333333333 81 1 809 1877 685 216 0 628 811
 623 812 83 3 810 .792156862745098 .819607843137255 .933333333333333 81 1 628 20
08 578 216 809 0 624 635 813 81 1 811 1876 685 629 0 638 814 809 815 83 3 812 .7
92156862745098 .819607843137255 .933333333333333 81 1 638 2010 578 629 811 0 635
 642 816 81 1 814 1875 685 639 0 642 817 811 818 83 3 815 .792156862745098 .8196
07843137255 .933333333333333 81 1 642 2011 578 639 814 0 638 646 819 81 1 817 18
74 685 643 0 646 820 814 821 83 3 818 .792156862745098 .819607843137255 .9333333
33333333 81 1 646 2012 578 643 817 0 642 650 822 81 1 820 1873 685 647 0 650 687
 817 823 83 3 821 .792156862745098 .819607843137255 .933333333333333 81 1 650 20
13 578 647 820 0 646 654 824 81 1 687 1872 685 651 0 654 666 820 825 83 3 823 .7
92156862745098 .819607843137255 .933333333333333 81 1 654 2014 578 651 687 0 650
 658 826 83 3 825 .792156862745098 .819607843137255 .933333333333333 81 1 658 20
15 578 582 827 0 654 662 828 82 1 826 474873977 81 1 827 1869 685 582 0 658 829
 686 830 82 1 828 481427580 81 1 829 1868 685 576 0 580 579 827 831 81 1 686 187
0 685 659 0 662 827 666 832 83 3 830 .792156862745098 .819607843137255 .93333333
3333333 83 3 832 .792156862745098 .819607843137255 .933333333333333 81 1 580 199
5 578 576 829 0 575 585 833 81 1 579 1867 685 574 0 575 747 829 834 83 3 831 .79
2156862745098 .819607843137255 .933333333333333 81 1 747 1866 685 549 0 585 742
 579 835 83 3 834 .792156862745098 .819607843137255 .933333333333333 81 1 585 19
96 578 549 747 0 580 587 836 83 3 835 .792156862745098 .819607843137255 .9333333
33333333 82 1 836 1629290634 82 1 833 482148473 82 1 824 -1603403652 82 1 822 -1
605369732 82 1 819 1281753215 82 1 816 1279787135 82 1 813 604045445 82 1 808 60
3783304 82 1 806 603914370 79 255 15 803 SDL/TYSA_COLOUR83 3 799 .79215686274509
8 .819607843137255 .933333333333333 50 798 222 0 534 741 727 0 +0 0 -.0016762452
10727965 0 0 -1 -1 0 0 50 741 393 0 484 746 798 0 +.01406482506792442 0 -.001676
245210727965 1 0 0 0 0 -1 50 727 220 0 567 798 603 0 +-.01886779591558965 .00240
1719004705425 -.001676245210727965 -1 0 0 0 0 1 50 603 219 0 539 727 605 0 +-.01
886779591558965 .002401719004705425 -.001676245210727965 0 -1 0 0 0 -1 50 605 21
8 0 541 603 592 0 +.0151322040844104 .002401719004705425 -.001676245210727965 -1
 0 0 0 0 1 50 746 541 0 561 586 741 0 +-.01813517493207555 .002401719004705425 -
.001676245210727965 1 0 0 0 0 -1 50 586 713 0 549 577 746 0 +.014079591681973 .0
01101719004705426 -.001676245210727965 1 0 0 0 0 -1 83 3 795 .792156862745098 .8
19607843137255 .933333333333333 51 794 1732 0 525 751 789 0 +-.02387999605715415
 .0075 0 0 0 -1 .0025 -1 0 0 51 751 1655 0 490 756 794 0 +-.02637999605715415 .0
025 .01832375478927205 1 0 0 .0025 0 0 -1 51 789 1731 0 521 794 784 0 +0 .0075 .
01832375478927205 -1 0 0 .0025 0 0 1 51 784 1730 0 527 789 18 0 +0 .0075 -.01167
624521072796 1 0 0 .0025 0 0 -1 51 18 1729 0 473 784 6 0 +.0211200039428459 .007
5 0 0 0 1 .0025 1 0 0 51 756 1656 0 500 761 751 0 +.0211200039428459 .0025 -.014
17624521072796 0 0 -1 .0025 -1 0 0 51 761 1657 0 504 766 756 0 +-.02637999605715
415 .0025 -.01167624521072796 -1 0 0 .0025 0 0 1 51 766 1658 0 509 771 761 0 +-.
02387999605715415 .0025 -.01417624521072796 0 0 1 .0025 1 0 0 51 771 1659 0 556
 594 766 0 +-.02637999605715415 .0025 .01832375478927205 1 0 0 .0025 0 0 -1 50 5
94 89 0 513 588 771 0 +-.02637999605715415 .01 -.01417624521072796 1 0 0 0 0 -1
 83 3 791 .792156862745098 .819607843137255 .933333333333333 83 3 786 .792156862
745098 .819607843137255 .933333333333333 83 3 781 .792156862745098 .819607843137
255 .933333333333333 83 3 777 .792156862745098 .819607843137255 .933333333333333
 83 3 773 .792156862745098 .819607843137255 .933333333333333 83 3 768 .792156862
745098 .819607843137255 .933333333333333 83 3 763 .792156862745098 .819607843137
255 .933333333333333 83 3 758 .792156862745098 .819607843137255 .933333333333333
 83 3 753 .792156862745098 .819607843137255 .933333333333333 83 3 748 .792156862
745098 .819607843137255 .933333333333333 83 3 743 .792156862745098 .819607843137
255 .933333333333333 83 3 737 .792156862745098 .819607843137255 .933333333333333
 83 3 733 .792156862745098 .819607843137255 .933333333333333 83 3 729 .792156862
745098 .819607843137255 .933333333333333 81 1 722 1858 685 552 0 607 837 719 838
 83 3 724 .792156862745098 .819607843137255 .933333333333333 81 1 607 2002 578 5
52 722 0 601 608 839 81 1 837 1857 685 496 0 608 611 722 840 83 3 838 .792156862
745098 .819607843137255 .933333333333333 81 1 608 2003 578 496 837 0 607 609 841
 81 1 611 1856 685 494 0 609 842 837 843 83 3 840 .792156862745098 .819607843137
255 .933333333333333 81 1 842 1855 685 513 0 612 844 611 845 83 3 843 .792156862
745098 .819607843137255 .933333333333333 81 1 612 2005 578 513 842 0 609 621 846
 81 1 844 1854 685 563 0 601 600 842 847 83 3 845 .792156862745098 .819607843137
255 .933333333333333 81 1 601 2001 578 563 844 0 597 607 848 81 1 600 1853 685 5
29 0 597 596 844 849 83 3 847 .792156862745098 .819607843137255 .933333333333333
 81 1 596 1852 685 481 0 595 850 600 851 83 3 849 .792156862745098 .819607843137
255 .933333333333333 81 1 850 1851 685 572 0 590 589 596 852 83 3 851 .792156862
745098 .819607843137255 .933333333333333 81 1 590 1998 578 572 850 0 587 595 853
 81 1 589 1850 685 15 0 587 0 850 854 83 3 852 .792156862745098 .819607843137255
 .933333333333333 83 3 854 .792156862745098 .819607843137255 .933333333333333 82
 1 853 1633747082 82 1 848 -1658650486 82 1 846 -650444662 82 1 841 -651231094 8
2 1 839 -652148598 83 3 718 .792156862745098 .819607843137255 .933333333333333 1
5 715 1319 0 855 708 0 50 716 1327 0 708 0 710 0 +.02148233273248935 .0048926829
42293 -.00809548646363532 0 0 1 1 0 0 51 710 1325 0 701 716 703 0 +.021482332732
48935 .004892682942293 -.00809548646363532 0 0 1 5e-4 1 0 0 50 703 1282 0 694 71
0 633 0 +.02149009360209675 .00498617922816158 .01390451353636468 0 0 -1 -1 0 0
 51 633 1280 0 690 703 632 0 +.02149009360209675 .00498617922816158 .01390451353
636468 0 0 -1 5e-4 -1 0 0 17 855 0 715 855 855 0 856 857 0 0 +17 856 0 709 856 8
56 0 855 857 0 0 -16 857 1306 0 ?855 244 458 858 0 0 1 16 244 1264 0 ?859 251 85
7 243 0 0 1 16 458 1309 0 ?860 857 455 861 0 0 1 31 858 1329 0 857 0 861 0 +.021
48233273248935 .004892682942293 -.00809548646363532 0 0 1 1 0 0 5e-4 31 861 1328
 0 458 858 245 0 +.02148233273248935 .004892682942293 -.00759548646363532 0 0 1
 1 0 0 5e-4 31 245 1284 0 251 861 243 0 +.02149009360209675 .00498617922816158 .
01390451353636468 0 0 -1 -1 0 0 5e-4 16 251 1261 0 ?862 221 244 245 0 0 1 17 862
 0 702 862 862 0 863 251 0 0 +15 702 1274 0 862 694 0 17 863 0 695 863 863 0 862
 251 0 0 -15 695 1270 0 863 690 864 15 864 1271 0 859 690 0 17 859 0 864 859 859
 0 865 244 0 0 +17 865 0 630 865 865 0 859 244 0 0 -15 630 1255 0 865 216 211 17
 860 0 866 860 860 0 867 458 0 0 +15 866 1316 0 860 701 0 17 867 0 626 867 867 0
 860 458 0 0 -15 626 1300 0 867 618 617 15 709 1315 0 856 701 866 83 3 712 .7921
56862745098 .819607843137255 .933333333333333 83 3 705 .792156862745098 .8196078
43137255 .933333333333333 83 3 698 .792156862745098 .819607843137255 .9333333333
33333 82 1 689 481558649 83 3 688 .792156862745098 .819607843137255 .93333333333
3333 79 14 684 SWEntUnchanged15 660 1034 0 868 582 680 17 868 0 660 868 868 0 27
2 264 0 0 -17 272 0 869 272 272 0 868 264 0 0 +15 869 1050 0 272 647 0 15 652 10
49 0 870 647 869 17 870 0 652 870 870 0 269 267 0 0 -17 269 0 648 269 269 0 870
 267 0 0 +15 648 1053 0 269 643 0 15 644 1094 0 871 639 682 17 871 0 644 871 871
 0 263 261 0 0 -17 263 0 640 263 263 0 871 261 0 0 +15 640 1098 0 263 629 0 82 1
 625 603652226 82 1 613 -650968950 82 1 602 -1657470838 82 1 598 -1657012086 82
 1 591 1636630666 82 1 581 -1405615990 17 136 0 532 148 313 134 163 314 0 547 +1
7 148 0 532 536 136 146 546 346 0 354 +16 346 602 0 ?148 349 343 347 349 349 1 1
7 325 0 560 334 157 158 535 323 0 531 +17 334 0 560 124 325 110 531 326 0 519 +1
7 531 0 528 530 112 158 334 326 0 0 -17 112 0 528 531 439 110 522 440 0 334 +17
 124 0 560 516 334 122 519 389 0 328 +17 61 0 537 486 372 59 488 421 0 348 +19 1
6 95 0 1 0 9 5 S0 74 4 CI16 index_map_offset0 0 1 dCCZ20 14 3 0 0 796 2 790 0 0
 0 0 0 0 0 0 0 0 0 0 0 0 0 0 0 80 2 12 872 873 8004 0 0 0 0 3 5 0 0 0 FFTFFFFFFF
FFFF2 3 83 1 13 1e3 79 16 873 SDL/TYSA_DENSITY1 0 
