G04 EAGLE Gerber X2 export*
%TF.Part,Single*%
%TF.FileFunction,Other,Component side*%
%TF.FilePolarity,Positive*%
%TF.GenerationSoftware,Autodesk,EAGLE,8.6.3*%
%TF.CreationDate,2019-03-20T09:29:06Z*%
G75*
%MOMM*%
%FSLAX34Y34*%
%LPD*%
%AMOC8*
5,1,8,0,0,1.08239X$1,22.5*%
G01*
%ADD10P,1.429621X8X292.500000*%
%ADD11R,1.100000X1.450000*%
%ADD12R,1.500000X1.300000*%
%ADD13R,0.550000X0.300000*%
%ADD14R,2.057400X0.609600*%
%ADD15C,1.422400*%
%ADD16C,2.362200*%
%ADD17P,1.429621X8X202.500000*%
%ADD18P,1.429621X8X112.500000*%
%ADD19C,0.254000*%
%ADD20C,0.406400*%
%ADD21C,1.006400*%
%ADD22C,0.906400*%

G36*
X777454Y587623D02*
X777454Y587623D01*
X777472Y587621D01*
X777654Y587642D01*
X777837Y587661D01*
X777854Y587666D01*
X777871Y587668D01*
X778046Y587725D01*
X778222Y587779D01*
X778237Y587787D01*
X778254Y587793D01*
X778414Y587883D01*
X778576Y587971D01*
X778589Y587982D01*
X778605Y587991D01*
X778744Y588111D01*
X778885Y588228D01*
X778896Y588242D01*
X778910Y588254D01*
X779022Y588399D01*
X779137Y588542D01*
X779145Y588558D01*
X779156Y588572D01*
X779238Y588737D01*
X779323Y588899D01*
X779328Y588916D01*
X779336Y588932D01*
X779383Y589111D01*
X779434Y589286D01*
X779436Y589304D01*
X779440Y589321D01*
X779467Y589652D01*
X779467Y596512D01*
X779465Y596539D01*
X779467Y596566D01*
X779445Y596740D01*
X779427Y596913D01*
X779420Y596939D01*
X779416Y596965D01*
X779361Y597130D01*
X779309Y597298D01*
X779296Y597322D01*
X779288Y597347D01*
X779201Y597499D01*
X779117Y597652D01*
X779100Y597672D01*
X779087Y597696D01*
X778872Y597949D01*
X777870Y598952D01*
X776499Y602260D01*
X776499Y620340D01*
X777460Y622659D01*
X777463Y622672D01*
X777470Y622683D01*
X777522Y622864D01*
X777576Y623044D01*
X777577Y623057D01*
X777581Y623070D01*
X777596Y623259D01*
X777614Y623445D01*
X777613Y623458D01*
X777614Y623472D01*
X777592Y623658D01*
X777573Y623845D01*
X777569Y623858D01*
X777567Y623871D01*
X777509Y624049D01*
X777453Y624230D01*
X777446Y624241D01*
X777442Y624254D01*
X777350Y624418D01*
X777259Y624583D01*
X777251Y624593D01*
X777244Y624605D01*
X777121Y624747D01*
X777000Y624891D01*
X776990Y624899D01*
X776981Y624910D01*
X776833Y625024D01*
X776685Y625142D01*
X776673Y625148D01*
X776663Y625156D01*
X776495Y625240D01*
X776327Y625326D01*
X776314Y625330D01*
X776302Y625336D01*
X776120Y625385D01*
X775940Y625436D01*
X775927Y625437D01*
X775914Y625440D01*
X775583Y625467D01*
X755805Y625467D01*
X751750Y627147D01*
X742325Y636572D01*
X742304Y636589D01*
X742287Y636610D01*
X742149Y636717D01*
X742014Y636827D01*
X741990Y636840D01*
X741969Y636856D01*
X741812Y636934D01*
X741658Y637016D01*
X741632Y637024D01*
X741608Y637036D01*
X741439Y637081D01*
X741272Y637131D01*
X741245Y637133D01*
X741219Y637140D01*
X740889Y637167D01*
X737001Y637167D01*
X736992Y637166D01*
X736983Y637167D01*
X736791Y637146D01*
X736600Y637127D01*
X736591Y637125D01*
X736582Y637124D01*
X736400Y637066D01*
X736215Y637009D01*
X736207Y637005D01*
X736199Y637002D01*
X736030Y636909D01*
X735861Y636817D01*
X735854Y636812D01*
X735846Y636807D01*
X735699Y636683D01*
X735552Y636560D01*
X735546Y636553D01*
X735539Y636547D01*
X735420Y636396D01*
X735299Y636246D01*
X735295Y636238D01*
X735290Y636231D01*
X735202Y636058D01*
X735114Y635889D01*
X735111Y635880D01*
X735107Y635872D01*
X735055Y635686D01*
X735002Y635502D01*
X735002Y635493D01*
X734999Y635484D01*
X734985Y635291D01*
X734970Y635100D01*
X734971Y635092D01*
X734970Y635083D01*
X734994Y634890D01*
X735016Y634701D01*
X735019Y634692D01*
X735020Y634683D01*
X735082Y634500D01*
X735141Y634318D01*
X735146Y634310D01*
X735149Y634302D01*
X735244Y634136D01*
X735339Y633967D01*
X735345Y633960D01*
X735350Y633953D01*
X735564Y633700D01*
X738317Y630946D01*
X739688Y627638D01*
X739688Y617962D01*
X739384Y617227D01*
X739376Y617202D01*
X739364Y617178D01*
X739318Y617009D01*
X739267Y616842D01*
X739265Y616815D01*
X739258Y616789D01*
X739246Y616615D01*
X739229Y616441D01*
X739232Y616414D01*
X739230Y616388D01*
X739253Y616214D01*
X739271Y616041D01*
X739279Y616015D01*
X739282Y615989D01*
X739384Y615673D01*
X739688Y614938D01*
X739688Y605262D01*
X738317Y601954D01*
X735785Y599422D01*
X732477Y598051D01*
X708323Y598051D01*
X706243Y598913D01*
X706213Y598922D01*
X706185Y598936D01*
X706021Y598980D01*
X705858Y599029D01*
X705827Y599032D01*
X705796Y599040D01*
X705466Y599067D01*
X689282Y599067D01*
X685227Y600747D01*
X682057Y603916D01*
X682037Y603933D01*
X682019Y603954D01*
X681881Y604061D01*
X681746Y604171D01*
X681722Y604184D01*
X681701Y604200D01*
X681544Y604278D01*
X681390Y604360D01*
X681365Y604368D01*
X681341Y604380D01*
X681172Y604425D01*
X681004Y604475D01*
X680978Y604477D01*
X680952Y604484D01*
X680621Y604511D01*
X674425Y604511D01*
X674425Y608720D01*
X674424Y608738D01*
X674425Y608756D01*
X674404Y608938D01*
X674385Y609121D01*
X674380Y609138D01*
X674378Y609155D01*
X674321Y609330D01*
X674267Y609506D01*
X674259Y609521D01*
X674253Y609538D01*
X674163Y609698D01*
X674076Y609860D01*
X674064Y609873D01*
X674055Y609889D01*
X673935Y610028D01*
X673818Y610169D01*
X673804Y610180D01*
X673792Y610194D01*
X673647Y610306D01*
X673504Y610421D01*
X673488Y610429D01*
X673474Y610440D01*
X673309Y610522D01*
X673147Y610607D01*
X673130Y610612D01*
X673114Y610620D01*
X672936Y610667D01*
X672760Y610718D01*
X672742Y610720D01*
X672725Y610724D01*
X672394Y610751D01*
X672376Y610750D01*
X672359Y610751D01*
X672358Y610751D01*
X672176Y610730D01*
X671993Y610711D01*
X671976Y610706D01*
X671958Y610704D01*
X671784Y610647D01*
X671608Y610593D01*
X671593Y610585D01*
X671576Y610579D01*
X671415Y610489D01*
X671254Y610401D01*
X671241Y610390D01*
X671225Y610381D01*
X671086Y610261D01*
X670945Y610144D01*
X670934Y610130D01*
X670920Y610118D01*
X670808Y609973D01*
X670693Y609830D01*
X670684Y609814D01*
X670674Y609800D01*
X670592Y609635D01*
X670507Y609473D01*
X670502Y609456D01*
X670494Y609440D01*
X670446Y609261D01*
X670396Y609086D01*
X670394Y609068D01*
X670390Y609051D01*
X670363Y608720D01*
X670363Y604511D01*
X661772Y604511D01*
X661126Y604684D01*
X660547Y605019D01*
X660074Y605492D01*
X659739Y606071D01*
X659566Y606717D01*
X659566Y609705D01*
X659564Y609727D01*
X659566Y609749D01*
X659544Y609927D01*
X659526Y610105D01*
X659520Y610127D01*
X659517Y610149D01*
X659461Y610319D01*
X659408Y610490D01*
X659398Y610510D01*
X659391Y610531D01*
X659302Y610687D01*
X659216Y610844D01*
X659202Y610862D01*
X659191Y610881D01*
X659073Y611016D01*
X658959Y611154D01*
X658941Y611168D01*
X658927Y611184D01*
X658784Y611294D01*
X658645Y611406D01*
X658625Y611416D01*
X658608Y611430D01*
X658312Y611581D01*
X657009Y612122D01*
X654477Y614654D01*
X653106Y617962D01*
X653106Y627638D01*
X654477Y630946D01*
X656530Y633000D01*
X656535Y633007D01*
X656542Y633012D01*
X656662Y633161D01*
X656785Y633311D01*
X656789Y633319D01*
X656795Y633326D01*
X656883Y633496D01*
X656973Y633667D01*
X656976Y633676D01*
X656980Y633683D01*
X657033Y633868D01*
X657088Y634053D01*
X657089Y634062D01*
X657092Y634070D01*
X657107Y634261D01*
X657125Y634454D01*
X657124Y634463D01*
X657124Y634472D01*
X657102Y634661D01*
X657081Y634854D01*
X657079Y634863D01*
X657078Y634871D01*
X657018Y635053D01*
X656960Y635238D01*
X656955Y635246D01*
X656953Y635254D01*
X656858Y635423D01*
X656765Y635590D01*
X656759Y635597D01*
X656755Y635605D01*
X656629Y635751D01*
X656504Y635897D01*
X656497Y635903D01*
X656492Y635910D01*
X656340Y636027D01*
X656189Y636147D01*
X656181Y636151D01*
X656174Y636156D01*
X656001Y636242D01*
X655830Y636329D01*
X655821Y636332D01*
X655813Y636336D01*
X655627Y636386D01*
X655442Y636437D01*
X655433Y636438D01*
X655424Y636440D01*
X655093Y636467D01*
X621154Y636467D01*
X621127Y636465D01*
X621101Y636467D01*
X620927Y636445D01*
X620753Y636427D01*
X620728Y636420D01*
X620701Y636416D01*
X620536Y636361D01*
X620368Y636309D01*
X620345Y636296D01*
X620319Y636288D01*
X620168Y636201D01*
X620014Y636117D01*
X619994Y636100D01*
X619971Y636087D01*
X619718Y635872D01*
X619449Y635604D01*
X614291Y633467D01*
X608709Y633467D01*
X603551Y635604D01*
X599604Y639551D01*
X597467Y644709D01*
X597467Y650291D01*
X599604Y655449D01*
X603551Y659396D01*
X604356Y659730D01*
X604368Y659736D01*
X604381Y659740D01*
X604546Y659831D01*
X604711Y659920D01*
X604721Y659928D01*
X604733Y659935D01*
X604876Y660056D01*
X605021Y660176D01*
X605030Y660187D01*
X605040Y660196D01*
X605156Y660342D01*
X605275Y660489D01*
X605281Y660501D01*
X605289Y660511D01*
X605375Y660679D01*
X605462Y660845D01*
X605466Y660858D01*
X605472Y660870D01*
X605522Y661052D01*
X605575Y661232D01*
X605576Y661245D01*
X605580Y661258D01*
X605593Y661445D01*
X605610Y661633D01*
X605608Y661646D01*
X605609Y661660D01*
X605586Y661844D01*
X605565Y662033D01*
X605560Y662046D01*
X605559Y662059D01*
X605499Y662237D01*
X605441Y662416D01*
X605435Y662428D01*
X605430Y662441D01*
X605337Y662604D01*
X605245Y662768D01*
X605236Y662778D01*
X605229Y662790D01*
X605093Y662951D01*
X603403Y667030D01*
X603403Y725570D01*
X605083Y729625D01*
X684369Y808912D01*
X684375Y808919D01*
X684382Y808924D01*
X684502Y809074D01*
X684624Y809223D01*
X684629Y809231D01*
X684634Y809238D01*
X684723Y809409D01*
X684813Y809579D01*
X684815Y809587D01*
X684820Y809595D01*
X684873Y809780D01*
X684928Y809965D01*
X684929Y809974D01*
X684931Y809982D01*
X684947Y810174D01*
X684964Y810366D01*
X684963Y810375D01*
X684964Y810384D01*
X684942Y810573D01*
X684921Y810766D01*
X684918Y810775D01*
X684917Y810783D01*
X684858Y810965D01*
X684799Y811150D01*
X684795Y811158D01*
X684792Y811166D01*
X684697Y811335D01*
X684604Y811502D01*
X684599Y811509D01*
X684594Y811517D01*
X684468Y811663D01*
X684344Y811809D01*
X684337Y811815D01*
X684331Y811822D01*
X684180Y811939D01*
X684028Y812059D01*
X684020Y812063D01*
X684013Y812068D01*
X683841Y812154D01*
X683669Y812241D01*
X683660Y812244D01*
X683652Y812248D01*
X683466Y812298D01*
X683281Y812349D01*
X683272Y812350D01*
X683264Y812352D01*
X682933Y812379D01*
X589652Y812379D01*
X589634Y812377D01*
X589616Y812379D01*
X589434Y812358D01*
X589251Y812339D01*
X589234Y812334D01*
X589217Y812332D01*
X589042Y812275D01*
X588866Y812221D01*
X588851Y812213D01*
X588834Y812207D01*
X588674Y812117D01*
X588512Y812029D01*
X588499Y812018D01*
X588483Y812009D01*
X588344Y811889D01*
X588203Y811772D01*
X588192Y811758D01*
X588178Y811746D01*
X588066Y811601D01*
X587951Y811458D01*
X587943Y811442D01*
X587932Y811428D01*
X587850Y811263D01*
X587765Y811101D01*
X587760Y811084D01*
X587752Y811068D01*
X587705Y810889D01*
X587654Y810714D01*
X587652Y810696D01*
X587648Y810679D01*
X587621Y810348D01*
X587621Y589652D01*
X587623Y589634D01*
X587621Y589616D01*
X587642Y589434D01*
X587661Y589251D01*
X587666Y589234D01*
X587668Y589217D01*
X587725Y589042D01*
X587779Y588866D01*
X587787Y588851D01*
X587793Y588834D01*
X587883Y588674D01*
X587971Y588512D01*
X587982Y588499D01*
X587991Y588483D01*
X588111Y588344D01*
X588228Y588203D01*
X588242Y588192D01*
X588254Y588178D01*
X588399Y588066D01*
X588542Y587951D01*
X588558Y587943D01*
X588572Y587932D01*
X588737Y587850D01*
X588899Y587765D01*
X588916Y587760D01*
X588932Y587752D01*
X589111Y587705D01*
X589286Y587654D01*
X589304Y587652D01*
X589321Y587648D01*
X589652Y587621D01*
X777436Y587621D01*
X777454Y587623D01*
G37*
G36*
X795459Y653503D02*
X795459Y653503D01*
X795481Y653501D01*
X795658Y653523D01*
X795837Y653541D01*
X795858Y653547D01*
X795880Y653550D01*
X796050Y653606D01*
X796222Y653659D01*
X796241Y653669D01*
X796263Y653676D01*
X796419Y653765D01*
X796576Y653851D01*
X796593Y653865D01*
X796612Y653876D01*
X796748Y653994D01*
X796885Y654108D01*
X796899Y654126D01*
X796916Y654140D01*
X797025Y654282D01*
X797137Y654422D01*
X797148Y654442D01*
X797161Y654460D01*
X797313Y654755D01*
X797870Y656098D01*
X800402Y658630D01*
X803710Y660001D01*
X804367Y660001D01*
X804398Y660004D01*
X804429Y660002D01*
X804599Y660024D01*
X804768Y660041D01*
X804797Y660050D01*
X804828Y660054D01*
X805144Y660155D01*
X806055Y660533D01*
X845468Y660533D01*
X845486Y660535D01*
X845504Y660533D01*
X845686Y660554D01*
X845869Y660573D01*
X845886Y660578D01*
X845903Y660580D01*
X846078Y660637D01*
X846254Y660691D01*
X846269Y660699D01*
X846286Y660705D01*
X846446Y660795D01*
X846608Y660883D01*
X846621Y660894D01*
X846637Y660903D01*
X846776Y661023D01*
X846917Y661140D01*
X846928Y661154D01*
X846942Y661166D01*
X847054Y661311D01*
X847169Y661454D01*
X847177Y661470D01*
X847188Y661484D01*
X847270Y661649D01*
X847355Y661811D01*
X847360Y661828D01*
X847368Y661844D01*
X847415Y662023D01*
X847466Y662198D01*
X847468Y662216D01*
X847472Y662233D01*
X847499Y662564D01*
X847499Y667936D01*
X847497Y667954D01*
X847499Y667972D01*
X847478Y668154D01*
X847459Y668337D01*
X847454Y668354D01*
X847452Y668371D01*
X847395Y668546D01*
X847341Y668722D01*
X847333Y668737D01*
X847327Y668754D01*
X847237Y668914D01*
X847149Y669076D01*
X847138Y669089D01*
X847129Y669105D01*
X847009Y669244D01*
X846892Y669385D01*
X846878Y669396D01*
X846866Y669410D01*
X846721Y669522D01*
X846578Y669637D01*
X846562Y669645D01*
X846548Y669656D01*
X846383Y669738D01*
X846221Y669823D01*
X846204Y669828D01*
X846188Y669836D01*
X846009Y669883D01*
X845834Y669934D01*
X845816Y669936D01*
X845799Y669940D01*
X845468Y669967D01*
X836805Y669967D01*
X832750Y671647D01*
X817025Y687372D01*
X817004Y687389D01*
X816987Y687410D01*
X816849Y687517D01*
X816714Y687627D01*
X816690Y687640D01*
X816669Y687656D01*
X816512Y687734D01*
X816358Y687816D01*
X816332Y687824D01*
X816308Y687836D01*
X816139Y687881D01*
X815972Y687931D01*
X815945Y687933D01*
X815919Y687940D01*
X815589Y687967D01*
X751782Y687967D01*
X751773Y687966D01*
X751764Y687967D01*
X751572Y687946D01*
X751381Y687927D01*
X751373Y687925D01*
X751364Y687924D01*
X751182Y687866D01*
X750996Y687809D01*
X750988Y687805D01*
X750980Y687802D01*
X750812Y687709D01*
X750642Y687617D01*
X750635Y687612D01*
X750628Y687607D01*
X750481Y687483D01*
X750333Y687360D01*
X750327Y687353D01*
X750321Y687347D01*
X750202Y687196D01*
X750081Y687046D01*
X750077Y687038D01*
X750071Y687031D01*
X749983Y686858D01*
X749895Y686689D01*
X749893Y686680D01*
X749889Y686672D01*
X749837Y686486D01*
X749784Y686302D01*
X749783Y686293D01*
X749781Y686284D01*
X749767Y686091D01*
X749751Y685900D01*
X749752Y685892D01*
X749751Y685883D01*
X749776Y685690D01*
X749798Y685501D01*
X749801Y685492D01*
X749802Y685483D01*
X749863Y685300D01*
X749923Y685118D01*
X749927Y685110D01*
X749930Y685102D01*
X750026Y684935D01*
X750121Y684767D01*
X750126Y684760D01*
X750131Y684753D01*
X750346Y684500D01*
X753396Y681449D01*
X755533Y676291D01*
X755533Y671911D01*
X755535Y671885D01*
X755533Y671858D01*
X755555Y671684D01*
X755573Y671511D01*
X755580Y671485D01*
X755584Y671459D01*
X755639Y671293D01*
X755691Y671126D01*
X755704Y671102D01*
X755712Y671077D01*
X755799Y670925D01*
X755883Y670772D01*
X755900Y670751D01*
X755913Y670728D01*
X756128Y670475D01*
X771975Y654628D01*
X771996Y654611D01*
X772013Y654590D01*
X772151Y654483D01*
X772286Y654373D01*
X772310Y654360D01*
X772331Y654344D01*
X772488Y654266D01*
X772642Y654184D01*
X772668Y654176D01*
X772692Y654164D01*
X772861Y654119D01*
X773028Y654069D01*
X773055Y654067D01*
X773081Y654060D01*
X773411Y654033D01*
X792945Y654033D01*
X793856Y653655D01*
X793885Y653646D01*
X793913Y653632D01*
X794078Y653588D01*
X794241Y653539D01*
X794272Y653536D01*
X794302Y653528D01*
X794633Y653501D01*
X795436Y653501D01*
X795459Y653503D01*
G37*
G36*
X809736Y600687D02*
X809736Y600687D01*
X809754Y600685D01*
X809936Y600706D01*
X810119Y600725D01*
X810136Y600730D01*
X810153Y600732D01*
X810328Y600789D01*
X810504Y600843D01*
X810519Y600851D01*
X810536Y600857D01*
X810696Y600947D01*
X810858Y601035D01*
X810871Y601046D01*
X810887Y601055D01*
X811026Y601175D01*
X811167Y601292D01*
X811178Y601306D01*
X811192Y601318D01*
X811304Y601463D01*
X811419Y601606D01*
X811427Y601622D01*
X811438Y601636D01*
X811520Y601801D01*
X811605Y601963D01*
X811610Y601980D01*
X811618Y601996D01*
X811665Y602175D01*
X811716Y602350D01*
X811718Y602368D01*
X811722Y602385D01*
X811749Y602716D01*
X811749Y608551D01*
X817041Y608551D01*
X817041Y603716D01*
X816914Y603242D01*
X816900Y603161D01*
X816878Y603082D01*
X816868Y602962D01*
X816849Y602844D01*
X816852Y602762D01*
X816845Y602680D01*
X816859Y602562D01*
X816863Y602442D01*
X816882Y602362D01*
X816892Y602281D01*
X816929Y602167D01*
X816957Y602051D01*
X816991Y601976D01*
X817017Y601898D01*
X817076Y601793D01*
X817126Y601685D01*
X817174Y601619D01*
X817215Y601547D01*
X817293Y601457D01*
X817363Y601360D01*
X817424Y601305D01*
X817478Y601242D01*
X817572Y601169D01*
X817660Y601088D01*
X817731Y601046D01*
X817796Y600996D01*
X817903Y600942D01*
X818005Y600881D01*
X818083Y600853D01*
X818156Y600816D01*
X818272Y600785D01*
X818384Y600745D01*
X818466Y600733D01*
X818545Y600712D01*
X818697Y600699D01*
X818783Y600687D01*
X818823Y600689D01*
X818876Y600685D01*
X856479Y600685D01*
X856488Y600686D01*
X856497Y600685D01*
X856688Y600706D01*
X856879Y600725D01*
X856888Y600727D01*
X856897Y600728D01*
X857079Y600786D01*
X857264Y600843D01*
X857272Y600847D01*
X857281Y600850D01*
X857449Y600943D01*
X857618Y601035D01*
X857625Y601040D01*
X857633Y601045D01*
X857780Y601169D01*
X857928Y601292D01*
X857933Y601299D01*
X857940Y601305D01*
X858058Y601455D01*
X858180Y601606D01*
X858184Y601614D01*
X858190Y601621D01*
X858277Y601793D01*
X858365Y601963D01*
X858368Y601972D01*
X858372Y601980D01*
X858424Y602166D01*
X858477Y602350D01*
X858478Y602359D01*
X858480Y602368D01*
X858494Y602561D01*
X858510Y602752D01*
X858509Y602760D01*
X858509Y602769D01*
X858485Y602962D01*
X858463Y603151D01*
X858460Y603160D01*
X858459Y603169D01*
X858398Y603352D01*
X858338Y603534D01*
X858334Y603542D01*
X858331Y603550D01*
X858235Y603716D01*
X858140Y603885D01*
X858134Y603892D01*
X858130Y603899D01*
X857915Y604152D01*
X855755Y606312D01*
X855755Y608069D01*
X864900Y608069D01*
X874045Y608069D01*
X874045Y606312D01*
X871885Y604152D01*
X871879Y604145D01*
X871872Y604140D01*
X871752Y603990D01*
X871630Y603841D01*
X871626Y603833D01*
X871620Y603826D01*
X871532Y603656D01*
X871441Y603485D01*
X871439Y603476D01*
X871435Y603469D01*
X871381Y603283D01*
X871326Y603099D01*
X871326Y603090D01*
X871323Y603082D01*
X871307Y602891D01*
X871290Y602698D01*
X871291Y602689D01*
X871290Y602680D01*
X871312Y602491D01*
X871333Y602298D01*
X871336Y602289D01*
X871337Y602281D01*
X871397Y602099D01*
X871455Y601914D01*
X871459Y601906D01*
X871462Y601898D01*
X871557Y601729D01*
X871650Y601562D01*
X871655Y601555D01*
X871660Y601547D01*
X871786Y601401D01*
X871910Y601255D01*
X871917Y601249D01*
X871923Y601242D01*
X872074Y601125D01*
X872226Y601005D01*
X872234Y601001D01*
X872241Y600996D01*
X872413Y600910D01*
X872585Y600823D01*
X872594Y600820D01*
X872602Y600816D01*
X872788Y600766D01*
X872973Y600715D01*
X872982Y600714D01*
X872990Y600712D01*
X873321Y600685D01*
X889379Y600685D01*
X889388Y600686D01*
X889397Y600685D01*
X889588Y600706D01*
X889779Y600725D01*
X889788Y600727D01*
X889797Y600728D01*
X889979Y600786D01*
X890164Y600843D01*
X890172Y600847D01*
X890181Y600850D01*
X890349Y600943D01*
X890518Y601035D01*
X890525Y601040D01*
X890533Y601045D01*
X890680Y601169D01*
X890828Y601292D01*
X890833Y601299D01*
X890840Y601305D01*
X890958Y601455D01*
X891080Y601606D01*
X891084Y601614D01*
X891090Y601621D01*
X891177Y601793D01*
X891265Y601963D01*
X891268Y601972D01*
X891272Y601980D01*
X891324Y602166D01*
X891377Y602350D01*
X891378Y602359D01*
X891380Y602368D01*
X891394Y602561D01*
X891410Y602752D01*
X891409Y602760D01*
X891409Y602769D01*
X891385Y602962D01*
X891363Y603151D01*
X891360Y603160D01*
X891359Y603169D01*
X891298Y603352D01*
X891238Y603534D01*
X891234Y603542D01*
X891231Y603550D01*
X891135Y603717D01*
X891040Y603885D01*
X891034Y603892D01*
X891030Y603899D01*
X890815Y604152D01*
X888155Y606812D01*
X888155Y608569D01*
X897300Y608569D01*
X897317Y608570D01*
X897335Y608569D01*
X897518Y608590D01*
X897700Y608608D01*
X897717Y608614D01*
X897735Y608616D01*
X897910Y608673D01*
X898085Y608727D01*
X898101Y608735D01*
X898118Y608741D01*
X898278Y608831D01*
X898439Y608918D01*
X898453Y608930D01*
X898468Y608939D01*
X898608Y609059D01*
X898748Y609176D01*
X898760Y609190D01*
X898773Y609202D01*
X898886Y609347D01*
X899001Y609490D01*
X899009Y609506D01*
X899020Y609520D01*
X899102Y609685D01*
X899186Y609847D01*
X899191Y609864D01*
X899199Y609880D01*
X899247Y610058D01*
X899298Y610234D01*
X899299Y610252D01*
X899304Y610269D01*
X899331Y610600D01*
X899329Y610618D01*
X899331Y610635D01*
X899331Y610636D01*
X899309Y610818D01*
X899291Y611001D01*
X899286Y611018D01*
X899284Y611036D01*
X899227Y611210D01*
X899173Y611386D01*
X899164Y611401D01*
X899159Y611418D01*
X899068Y611579D01*
X898981Y611740D01*
X898970Y611753D01*
X898961Y611769D01*
X898841Y611908D01*
X898723Y612049D01*
X898709Y612060D01*
X898698Y612074D01*
X898553Y612186D01*
X898410Y612301D01*
X898394Y612310D01*
X898380Y612320D01*
X898215Y612402D01*
X898052Y612487D01*
X898035Y612492D01*
X898019Y612500D01*
X897841Y612548D01*
X897665Y612598D01*
X897648Y612600D01*
X897630Y612604D01*
X897300Y612631D01*
X888155Y612631D01*
X888155Y614388D01*
X891063Y617296D01*
X891075Y617310D01*
X891088Y617321D01*
X891202Y617465D01*
X891318Y617607D01*
X891327Y617623D01*
X891338Y617637D01*
X891421Y617802D01*
X891507Y617963D01*
X891512Y617980D01*
X891520Y617996D01*
X891570Y618174D01*
X891622Y618349D01*
X891623Y618367D01*
X891628Y618384D01*
X891641Y618567D01*
X891658Y618750D01*
X891656Y618768D01*
X891657Y618785D01*
X891634Y618967D01*
X891615Y619150D01*
X891609Y619167D01*
X891607Y619185D01*
X891549Y619358D01*
X891493Y619534D01*
X891484Y619550D01*
X891479Y619567D01*
X891387Y619726D01*
X891298Y619886D01*
X891287Y619900D01*
X891278Y619915D01*
X891063Y620168D01*
X884777Y626454D01*
X884757Y626471D01*
X884739Y626492D01*
X884601Y626599D01*
X884466Y626709D01*
X884442Y626722D01*
X884421Y626738D01*
X884264Y626816D01*
X884110Y626898D01*
X884085Y626906D01*
X884060Y626918D01*
X883891Y626963D01*
X883724Y627013D01*
X883698Y627015D01*
X883672Y627022D01*
X883341Y627049D01*
X879359Y627049D01*
X879332Y627047D01*
X879306Y627049D01*
X879132Y627027D01*
X878958Y627009D01*
X878933Y627002D01*
X878906Y626998D01*
X878741Y626943D01*
X878573Y626891D01*
X878550Y626878D01*
X878525Y626870D01*
X878373Y626783D01*
X878219Y626699D01*
X878199Y626682D01*
X878176Y626669D01*
X877923Y626454D01*
X871137Y619668D01*
X871125Y619655D01*
X871112Y619643D01*
X870998Y619499D01*
X870882Y619357D01*
X870873Y619341D01*
X870862Y619327D01*
X870779Y619163D01*
X870693Y619001D01*
X870688Y618984D01*
X870680Y618968D01*
X870630Y618791D01*
X870578Y618615D01*
X870577Y618598D01*
X870572Y618580D01*
X870559Y618397D01*
X870542Y618214D01*
X870544Y618197D01*
X870543Y618179D01*
X870566Y617996D01*
X870585Y617814D01*
X870591Y617797D01*
X870593Y617779D01*
X870651Y617606D01*
X870707Y617430D01*
X870716Y617415D01*
X870721Y617398D01*
X870813Y617238D01*
X870902Y617078D01*
X870913Y617064D01*
X870922Y617049D01*
X871137Y616796D01*
X874045Y613888D01*
X874045Y612131D01*
X864900Y612131D01*
X855755Y612131D01*
X855755Y613888D01*
X858663Y616796D01*
X858675Y616810D01*
X858688Y616821D01*
X858802Y616965D01*
X858918Y617107D01*
X858927Y617123D01*
X858938Y617137D01*
X859021Y617302D01*
X859107Y617463D01*
X859112Y617480D01*
X859120Y617496D01*
X859170Y617674D01*
X859222Y617849D01*
X859223Y617867D01*
X859228Y617884D01*
X859241Y618067D01*
X859258Y618250D01*
X859256Y618268D01*
X859257Y618285D01*
X859234Y618467D01*
X859215Y618650D01*
X859209Y618667D01*
X859207Y618685D01*
X859149Y618858D01*
X859093Y619034D01*
X859084Y619050D01*
X859079Y619067D01*
X858987Y619226D01*
X858898Y619386D01*
X858887Y619400D01*
X858878Y619415D01*
X858663Y619668D01*
X849209Y629123D01*
X849198Y629131D01*
X849190Y629142D01*
X849043Y629259D01*
X848897Y629378D01*
X848885Y629384D01*
X848875Y629393D01*
X848707Y629479D01*
X848542Y629567D01*
X848529Y629570D01*
X848517Y629577D01*
X848336Y629628D01*
X848156Y629681D01*
X848142Y629683D01*
X848129Y629686D01*
X847944Y629701D01*
X847755Y629718D01*
X847741Y629716D01*
X847728Y629717D01*
X847543Y629695D01*
X847354Y629674D01*
X847341Y629670D01*
X847328Y629669D01*
X847151Y629610D01*
X846971Y629553D01*
X846959Y629546D01*
X846946Y629542D01*
X846782Y629449D01*
X846618Y629358D01*
X846608Y629349D01*
X846596Y629343D01*
X846454Y629219D01*
X846311Y629098D01*
X846303Y629087D01*
X846293Y629078D01*
X846178Y628929D01*
X846062Y628782D01*
X846056Y628770D01*
X846047Y628759D01*
X845896Y628464D01*
X844896Y626051D01*
X840949Y622104D01*
X835791Y619967D01*
X830209Y619967D01*
X825051Y622104D01*
X821104Y626051D01*
X819172Y630713D01*
X819162Y630733D01*
X819155Y630754D01*
X819067Y630911D01*
X818982Y631068D01*
X818968Y631085D01*
X818957Y631105D01*
X818840Y631241D01*
X818726Y631379D01*
X818709Y631393D01*
X818694Y631410D01*
X818553Y631519D01*
X818413Y631632D01*
X818393Y631643D01*
X818376Y631656D01*
X818216Y631736D01*
X818057Y631819D01*
X818035Y631826D01*
X818015Y631836D01*
X817842Y631882D01*
X817670Y631932D01*
X817648Y631934D01*
X817627Y631940D01*
X817296Y631967D01*
X806055Y631967D01*
X805144Y632345D01*
X805115Y632354D01*
X805087Y632368D01*
X804921Y632412D01*
X804759Y632461D01*
X804728Y632464D01*
X804698Y632472D01*
X804367Y632499D01*
X803564Y632499D01*
X803541Y632497D01*
X803519Y632499D01*
X803342Y632477D01*
X803163Y632459D01*
X803142Y632453D01*
X803120Y632450D01*
X802950Y632394D01*
X802778Y632341D01*
X802759Y632331D01*
X802737Y632324D01*
X802581Y632235D01*
X802424Y632149D01*
X802407Y632135D01*
X802388Y632124D01*
X802252Y632006D01*
X802115Y631892D01*
X802101Y631874D01*
X802084Y631860D01*
X801975Y631718D01*
X801863Y631578D01*
X801852Y631558D01*
X801839Y631540D01*
X801687Y631245D01*
X801130Y629902D01*
X800786Y629557D01*
X800777Y629547D01*
X800767Y629538D01*
X800650Y629391D01*
X800531Y629245D01*
X800525Y629234D01*
X800516Y629223D01*
X800430Y629055D01*
X800342Y628890D01*
X800338Y628877D01*
X800332Y628865D01*
X800281Y628683D01*
X800227Y628504D01*
X800226Y628491D01*
X800223Y628478D01*
X800208Y628291D01*
X800191Y628103D01*
X800193Y628089D01*
X800191Y628076D01*
X800214Y627891D01*
X800234Y627703D01*
X800239Y627690D01*
X800240Y627677D01*
X800299Y627499D01*
X800356Y627319D01*
X800362Y627307D01*
X800367Y627294D01*
X800460Y627130D01*
X800551Y626966D01*
X800559Y626956D01*
X800566Y626945D01*
X800690Y626803D01*
X800811Y626659D01*
X800822Y626651D01*
X800831Y626641D01*
X800979Y626527D01*
X801127Y626410D01*
X801139Y626404D01*
X801150Y626396D01*
X801445Y626244D01*
X801599Y626180D01*
X804130Y623648D01*
X804671Y622345D01*
X804681Y622325D01*
X804688Y622304D01*
X804776Y622147D01*
X804861Y621990D01*
X804875Y621973D01*
X804886Y621953D01*
X805003Y621817D01*
X805117Y621679D01*
X805134Y621665D01*
X805149Y621648D01*
X805290Y621539D01*
X805430Y621426D01*
X805450Y621415D01*
X805467Y621402D01*
X805627Y621322D01*
X805786Y621239D01*
X805808Y621232D01*
X805828Y621222D01*
X806001Y621176D01*
X806173Y621126D01*
X806195Y621124D01*
X806216Y621118D01*
X806251Y621115D01*
X806251Y613582D01*
X806224Y613559D01*
X806083Y613442D01*
X806072Y613428D01*
X806058Y613416D01*
X805946Y613271D01*
X805831Y613128D01*
X805823Y613112D01*
X805812Y613098D01*
X805730Y612933D01*
X805645Y612771D01*
X805640Y612754D01*
X805632Y612738D01*
X805585Y612559D01*
X805534Y612384D01*
X805532Y612366D01*
X805528Y612349D01*
X805501Y612018D01*
X805501Y610582D01*
X805503Y610564D01*
X805501Y610546D01*
X805522Y610364D01*
X805541Y610181D01*
X805546Y610164D01*
X805548Y610147D01*
X805605Y609972D01*
X805659Y609796D01*
X805667Y609781D01*
X805673Y609764D01*
X805763Y609604D01*
X805851Y609442D01*
X805862Y609429D01*
X805871Y609413D01*
X805991Y609274D01*
X806108Y609133D01*
X806122Y609122D01*
X806134Y609108D01*
X806251Y609018D01*
X806251Y602716D01*
X806252Y602698D01*
X806251Y602680D01*
X806272Y602498D01*
X806291Y602315D01*
X806296Y602298D01*
X806298Y602281D01*
X806355Y602106D01*
X806409Y601930D01*
X806417Y601915D01*
X806423Y601898D01*
X806513Y601738D01*
X806600Y601576D01*
X806612Y601563D01*
X806621Y601547D01*
X806741Y601408D01*
X806858Y601267D01*
X806872Y601256D01*
X806884Y601242D01*
X807029Y601130D01*
X807172Y601015D01*
X807188Y601007D01*
X807202Y600996D01*
X807367Y600914D01*
X807529Y600829D01*
X807546Y600824D01*
X807562Y600816D01*
X807741Y600769D01*
X807916Y600718D01*
X807934Y600716D01*
X807951Y600712D01*
X808282Y600685D01*
X809718Y600685D01*
X809736Y600687D01*
G37*
G36*
X793157Y710038D02*
X793157Y710038D01*
X793208Y710035D01*
X793357Y710058D01*
X793507Y710073D01*
X793556Y710088D01*
X793606Y710095D01*
X793748Y710147D01*
X793892Y710191D01*
X793937Y710215D01*
X793985Y710233D01*
X794114Y710311D01*
X794246Y710383D01*
X794285Y710415D01*
X794329Y710442D01*
X794440Y710544D01*
X794555Y710640D01*
X794587Y710680D01*
X794625Y710715D01*
X794713Y710837D01*
X794808Y710954D01*
X794831Y710999D01*
X794861Y711041D01*
X794924Y711178D01*
X794993Y711311D01*
X795007Y711360D01*
X795028Y711407D01*
X795063Y711554D01*
X795104Y711698D01*
X795109Y711749D01*
X795120Y711799D01*
X795125Y711950D01*
X795137Y712100D01*
X795131Y712150D01*
X795133Y712201D01*
X795108Y712350D01*
X795090Y712499D01*
X795075Y712548D01*
X795066Y712598D01*
X795012Y712739D01*
X794966Y712882D01*
X794940Y712927D01*
X794922Y712974D01*
X794802Y713172D01*
X794768Y713233D01*
X794759Y713243D01*
X794750Y713258D01*
X794384Y713761D01*
X793694Y715115D01*
X793225Y716560D01*
X793219Y716598D01*
X802449Y716598D01*
X802467Y716600D01*
X802485Y716599D01*
X802667Y716620D01*
X802850Y716638D01*
X802867Y716643D01*
X802885Y716645D01*
X803059Y716702D01*
X803235Y716756D01*
X803251Y716765D01*
X803267Y716770D01*
X803428Y716861D01*
X803589Y716948D01*
X803603Y716959D01*
X803618Y716968D01*
X803757Y717088D01*
X803898Y717206D01*
X803909Y717220D01*
X803923Y717231D01*
X804035Y717376D01*
X804150Y717519D01*
X804159Y717535D01*
X804170Y717549D01*
X804252Y717714D01*
X804336Y717877D01*
X804341Y717894D01*
X804349Y717910D01*
X804397Y718088D01*
X804447Y718264D01*
X804449Y718281D01*
X804453Y718299D01*
X804481Y718629D01*
X804481Y719011D01*
X804479Y719028D01*
X804480Y719046D01*
X804459Y719228D01*
X804441Y719411D01*
X804435Y719428D01*
X804433Y719446D01*
X804376Y719620D01*
X804323Y719796D01*
X804314Y719812D01*
X804308Y719829D01*
X804218Y719989D01*
X804131Y720150D01*
X804119Y720164D01*
X804111Y720179D01*
X803990Y720319D01*
X803873Y720459D01*
X803859Y720471D01*
X803847Y720484D01*
X803702Y720597D01*
X803559Y720712D01*
X803543Y720720D01*
X803529Y720731D01*
X803364Y720813D01*
X803202Y720897D01*
X803185Y720902D01*
X803169Y720910D01*
X802991Y720958D01*
X802815Y721009D01*
X802797Y721010D01*
X802780Y721015D01*
X802449Y721042D01*
X793219Y721042D01*
X793225Y721080D01*
X793694Y722525D01*
X794384Y723879D01*
X795277Y725108D01*
X796352Y726183D01*
X797611Y727097D01*
X797746Y727218D01*
X797884Y727336D01*
X797896Y727352D01*
X797911Y727365D01*
X798020Y727510D01*
X798132Y727653D01*
X798141Y727671D01*
X798153Y727687D01*
X798232Y727851D01*
X798313Y728013D01*
X798318Y728032D01*
X798327Y728050D01*
X798371Y728226D01*
X798419Y728401D01*
X798421Y728421D01*
X798426Y728440D01*
X798434Y728621D01*
X798447Y728803D01*
X798444Y728823D01*
X798445Y728843D01*
X798418Y729022D01*
X798395Y729202D01*
X798388Y729223D01*
X798385Y729241D01*
X798359Y729313D01*
X798293Y729518D01*
X796687Y733395D01*
X796687Y739805D01*
X799140Y745727D01*
X803702Y750289D01*
X803743Y750312D01*
X803909Y750401D01*
X803919Y750409D01*
X803931Y750416D01*
X804074Y750537D01*
X804219Y750657D01*
X804228Y750668D01*
X804238Y750676D01*
X804355Y750824D01*
X804473Y750970D01*
X804479Y750982D01*
X804488Y750992D01*
X804573Y751160D01*
X804660Y751326D01*
X804664Y751339D01*
X804670Y751351D01*
X804721Y751533D01*
X804773Y751713D01*
X804775Y751726D01*
X804778Y751739D01*
X804792Y751928D01*
X804808Y752114D01*
X804807Y752127D01*
X804808Y752141D01*
X804784Y752329D01*
X804763Y752514D01*
X804759Y752527D01*
X804757Y752540D01*
X804697Y752718D01*
X804640Y752897D01*
X804633Y752909D01*
X804629Y752922D01*
X804535Y753084D01*
X804443Y753249D01*
X804435Y753259D01*
X804428Y753271D01*
X804213Y753524D01*
X801129Y756608D01*
X801016Y756701D01*
X800908Y756800D01*
X800860Y756828D01*
X800817Y756863D01*
X800688Y756932D01*
X800563Y757007D01*
X800510Y757026D01*
X800461Y757052D01*
X800321Y757094D01*
X800184Y757143D01*
X800129Y757151D01*
X800076Y757167D01*
X799930Y757180D01*
X799785Y757201D01*
X799730Y757198D01*
X799675Y757203D01*
X799529Y757187D01*
X799383Y757180D01*
X799330Y757166D01*
X799274Y757160D01*
X799135Y757116D01*
X798993Y757079D01*
X798943Y757055D01*
X798890Y757038D01*
X798762Y756967D01*
X798631Y756904D01*
X798587Y756870D01*
X798538Y756843D01*
X798427Y756749D01*
X798310Y756660D01*
X798273Y756619D01*
X798231Y756583D01*
X798140Y756468D01*
X798044Y756359D01*
X798016Y756311D01*
X797982Y756267D01*
X797915Y756137D01*
X797842Y756010D01*
X797821Y755951D01*
X797799Y755908D01*
X797777Y755827D01*
X797730Y755698D01*
X796950Y752784D01*
X793806Y747339D01*
X789361Y742894D01*
X783916Y739750D01*
X777870Y738130D01*
X777729Y738077D01*
X777585Y738031D01*
X777541Y738006D01*
X777493Y737988D01*
X777366Y737908D01*
X777234Y737835D01*
X777195Y737801D01*
X777152Y737774D01*
X777042Y737671D01*
X776928Y737573D01*
X776897Y737533D01*
X776860Y737498D01*
X776773Y737374D01*
X776680Y737256D01*
X776657Y737210D01*
X776628Y737168D01*
X776567Y737031D01*
X776499Y736896D01*
X776486Y736847D01*
X776465Y736800D01*
X776433Y736653D01*
X776393Y736508D01*
X776389Y736457D01*
X776378Y736407D01*
X776376Y736256D01*
X776365Y736106D01*
X776372Y736055D01*
X776371Y736004D01*
X776398Y735857D01*
X776417Y735707D01*
X776435Y735652D01*
X776443Y735608D01*
X776474Y735529D01*
X776519Y735391D01*
X777986Y731850D01*
X777986Y723570D01*
X774817Y715921D01*
X772397Y713500D01*
X772391Y713493D01*
X772384Y713488D01*
X772264Y713338D01*
X772141Y713189D01*
X772137Y713181D01*
X772132Y713174D01*
X772043Y713004D01*
X771953Y712833D01*
X771950Y712824D01*
X771946Y712817D01*
X771893Y712632D01*
X771838Y712447D01*
X771837Y712438D01*
X771835Y712430D01*
X771819Y712239D01*
X771802Y712046D01*
X771803Y712037D01*
X771802Y712028D01*
X771824Y711838D01*
X771845Y711646D01*
X771848Y711637D01*
X771849Y711629D01*
X771908Y711447D01*
X771967Y711262D01*
X771971Y711254D01*
X771974Y711246D01*
X772069Y711077D01*
X772161Y710910D01*
X772167Y710903D01*
X772172Y710895D01*
X772298Y710749D01*
X772422Y710603D01*
X772429Y710597D01*
X772435Y710590D01*
X772586Y710473D01*
X772738Y710353D01*
X772746Y710349D01*
X772753Y710344D01*
X772925Y710258D01*
X773097Y710171D01*
X773105Y710168D01*
X773113Y710164D01*
X773299Y710114D01*
X773485Y710063D01*
X773494Y710062D01*
X773502Y710060D01*
X773833Y710033D01*
X793106Y710033D01*
X793157Y710038D01*
G37*
G36*
X734994Y731749D02*
X734994Y731749D01*
X735007Y731748D01*
X735192Y731770D01*
X735381Y731791D01*
X735394Y731795D01*
X735407Y731796D01*
X735583Y731855D01*
X735764Y731912D01*
X735776Y731919D01*
X735789Y731923D01*
X735952Y732016D01*
X736117Y732107D01*
X736127Y732116D01*
X736139Y732122D01*
X736281Y732246D01*
X736424Y732367D01*
X736432Y732378D01*
X736442Y732387D01*
X736557Y732536D01*
X736673Y732683D01*
X736679Y732695D01*
X736688Y732706D01*
X736839Y733001D01*
X739531Y739499D01*
X745385Y745353D01*
X752409Y748263D01*
X752542Y748334D01*
X752678Y748398D01*
X752719Y748429D01*
X752764Y748453D01*
X752880Y748549D01*
X753001Y748639D01*
X753035Y748677D01*
X753074Y748709D01*
X753169Y748826D01*
X753270Y748938D01*
X753296Y748982D01*
X753328Y749022D01*
X753398Y749155D01*
X753475Y749285D01*
X753491Y749333D01*
X753515Y749379D01*
X753557Y749523D01*
X753607Y749665D01*
X753614Y749716D01*
X753628Y749765D01*
X753641Y749915D01*
X753662Y750064D01*
X753658Y750115D01*
X753663Y750166D01*
X753646Y750316D01*
X753637Y750466D01*
X753623Y750515D01*
X753618Y750566D01*
X753572Y750709D01*
X753533Y750855D01*
X753508Y750907D01*
X753495Y750949D01*
X753453Y751024D01*
X753391Y751155D01*
X752450Y752784D01*
X750823Y758857D01*
X750823Y765143D01*
X752450Y771216D01*
X753959Y773828D01*
X754019Y773962D01*
X754086Y774091D01*
X754102Y774145D01*
X754124Y774195D01*
X754157Y774338D01*
X754198Y774478D01*
X754202Y774534D01*
X754215Y774588D01*
X754219Y774734D01*
X754230Y774880D01*
X754224Y774935D01*
X754226Y774990D01*
X754201Y775135D01*
X754184Y775279D01*
X754166Y775332D01*
X754157Y775387D01*
X754104Y775523D01*
X754059Y775662D01*
X754031Y775711D01*
X754011Y775762D01*
X753933Y775886D01*
X753861Y776013D01*
X753825Y776055D01*
X753795Y776102D01*
X753693Y776207D01*
X753598Y776318D01*
X753554Y776352D01*
X753515Y776392D01*
X753395Y776475D01*
X753280Y776564D01*
X753230Y776589D01*
X753184Y776621D01*
X753050Y776679D01*
X752919Y776744D01*
X752865Y776758D01*
X752814Y776780D01*
X752672Y776810D01*
X752530Y776848D01*
X752467Y776853D01*
X752421Y776863D01*
X752337Y776864D01*
X752200Y776875D01*
X750032Y776875D01*
X750006Y776873D01*
X749979Y776875D01*
X749805Y776853D01*
X749632Y776835D01*
X749606Y776828D01*
X749580Y776824D01*
X749414Y776769D01*
X749247Y776717D01*
X749223Y776704D01*
X749198Y776696D01*
X749046Y776609D01*
X748893Y776525D01*
X748872Y776508D01*
X748849Y776495D01*
X748596Y776280D01*
X728660Y756345D01*
X728649Y756331D01*
X728636Y756319D01*
X728521Y756175D01*
X728405Y756033D01*
X728397Y756017D01*
X728386Y756003D01*
X728302Y755839D01*
X728217Y755678D01*
X728212Y755661D01*
X728204Y755645D01*
X728154Y755467D01*
X728102Y755292D01*
X728100Y755274D01*
X728096Y755257D01*
X728082Y755073D01*
X728066Y754891D01*
X728068Y754873D01*
X728066Y754855D01*
X728089Y754673D01*
X728109Y754490D01*
X728114Y754473D01*
X728117Y754456D01*
X728175Y754282D01*
X728231Y754107D01*
X728239Y754091D01*
X728245Y754074D01*
X728337Y753914D01*
X728425Y753754D01*
X728437Y753741D01*
X728446Y753725D01*
X728660Y753472D01*
X729645Y752488D01*
X729645Y750731D01*
X723889Y750731D01*
X723862Y750729D01*
X723835Y750731D01*
X723661Y750709D01*
X723488Y750691D01*
X723462Y750684D01*
X723436Y750680D01*
X723270Y750625D01*
X723103Y750573D01*
X723079Y750561D01*
X723054Y750552D01*
X722902Y750465D01*
X722749Y750382D01*
X722728Y750365D01*
X722705Y750351D01*
X722452Y750136D01*
X722446Y750129D01*
X722440Y750124D01*
X722439Y750124D01*
X722319Y749974D01*
X722197Y749825D01*
X722193Y749817D01*
X722187Y749810D01*
X722098Y749639D01*
X722008Y749469D01*
X722006Y749460D01*
X722002Y749452D01*
X721948Y749267D01*
X721893Y749083D01*
X721893Y749074D01*
X721890Y749066D01*
X721874Y748874D01*
X721857Y748682D01*
X721858Y748673D01*
X721857Y748664D01*
X721879Y748475D01*
X721900Y748282D01*
X721903Y748273D01*
X721904Y748264D01*
X721964Y748082D01*
X722022Y747898D01*
X722026Y747890D01*
X722029Y747882D01*
X722124Y747713D01*
X722217Y747546D01*
X722222Y747539D01*
X722227Y747531D01*
X722353Y747385D01*
X722477Y747239D01*
X722484Y747233D01*
X722490Y747226D01*
X722641Y747109D01*
X722793Y746989D01*
X722801Y746985D01*
X722808Y746980D01*
X722980Y746894D01*
X723152Y746807D01*
X723161Y746804D01*
X723169Y746800D01*
X723355Y746750D01*
X723540Y746699D01*
X723549Y746698D01*
X723557Y746696D01*
X723888Y746669D01*
X729645Y746669D01*
X729645Y744912D01*
X726737Y742004D01*
X726725Y741990D01*
X726712Y741979D01*
X726598Y741835D01*
X726482Y741693D01*
X726473Y741677D01*
X726462Y741663D01*
X726379Y741498D01*
X726293Y741337D01*
X726288Y741320D01*
X726280Y741304D01*
X726230Y741126D01*
X726178Y740951D01*
X726177Y740933D01*
X726172Y740916D01*
X726159Y740733D01*
X726142Y740550D01*
X726144Y740532D01*
X726143Y740515D01*
X726166Y740333D01*
X726185Y740150D01*
X726191Y740133D01*
X726193Y740115D01*
X726251Y739942D01*
X726307Y739766D01*
X726316Y739750D01*
X726321Y739733D01*
X726413Y739574D01*
X726502Y739414D01*
X726513Y739400D01*
X726522Y739385D01*
X726737Y739132D01*
X733526Y732342D01*
X733537Y732334D01*
X733545Y732323D01*
X733692Y732206D01*
X733838Y732087D01*
X733850Y732081D01*
X733860Y732072D01*
X734027Y731986D01*
X734193Y731898D01*
X734206Y731895D01*
X734218Y731888D01*
X734399Y731837D01*
X734579Y731784D01*
X734593Y731782D01*
X734606Y731779D01*
X734791Y731764D01*
X734980Y731747D01*
X734994Y731749D01*
G37*
G36*
X651093Y684635D02*
X651093Y684635D01*
X651111Y684633D01*
X651293Y684654D01*
X651476Y684673D01*
X651493Y684678D01*
X651510Y684680D01*
X651685Y684737D01*
X651861Y684791D01*
X651876Y684799D01*
X651893Y684805D01*
X652053Y684895D01*
X652215Y684983D01*
X652228Y684994D01*
X652244Y685003D01*
X652383Y685123D01*
X652524Y685240D01*
X652535Y685254D01*
X652549Y685266D01*
X652661Y685411D01*
X652776Y685554D01*
X652784Y685570D01*
X652795Y685584D01*
X652877Y685749D01*
X652962Y685911D01*
X652967Y685928D01*
X652975Y685944D01*
X653022Y686123D01*
X653073Y686298D01*
X653075Y686316D01*
X653079Y686333D01*
X653106Y686664D01*
X653106Y691138D01*
X654477Y694446D01*
X657009Y696978D01*
X660317Y698349D01*
X660636Y698349D01*
X660654Y698351D01*
X660672Y698349D01*
X660854Y698370D01*
X661037Y698389D01*
X661054Y698394D01*
X661071Y698396D01*
X661246Y698453D01*
X661422Y698507D01*
X661437Y698515D01*
X661454Y698521D01*
X661614Y698611D01*
X661776Y698699D01*
X661789Y698710D01*
X661805Y698719D01*
X661944Y698839D01*
X662085Y698956D01*
X662096Y698970D01*
X662110Y698982D01*
X662222Y699127D01*
X662337Y699270D01*
X662345Y699286D01*
X662356Y699300D01*
X662438Y699465D01*
X662523Y699627D01*
X662528Y699644D01*
X662536Y699660D01*
X662583Y699839D01*
X662634Y700014D01*
X662636Y700032D01*
X662640Y700049D01*
X662667Y700380D01*
X662667Y703623D01*
X662665Y703650D01*
X662667Y703676D01*
X662645Y703850D01*
X662627Y704024D01*
X662620Y704049D01*
X662616Y704076D01*
X662561Y704241D01*
X662509Y704408D01*
X662496Y704432D01*
X662488Y704457D01*
X662401Y704609D01*
X662317Y704763D01*
X662300Y704783D01*
X662287Y704806D01*
X662072Y705059D01*
X657868Y709263D01*
X657855Y709275D01*
X657843Y709288D01*
X657699Y709402D01*
X657557Y709518D01*
X657541Y709527D01*
X657527Y709538D01*
X657363Y709621D01*
X657201Y709707D01*
X657184Y709712D01*
X657168Y709720D01*
X656991Y709769D01*
X656815Y709822D01*
X656798Y709823D01*
X656780Y709828D01*
X656597Y709841D01*
X656414Y709858D01*
X656397Y709856D01*
X656379Y709857D01*
X656197Y709834D01*
X656014Y709815D01*
X655997Y709809D01*
X655979Y709807D01*
X655806Y709749D01*
X655630Y709693D01*
X655615Y709684D01*
X655598Y709679D01*
X655438Y709587D01*
X655278Y709498D01*
X655264Y709487D01*
X655249Y709478D01*
X654996Y709263D01*
X652088Y706355D01*
X650331Y706355D01*
X650331Y715500D01*
X650330Y715517D01*
X650331Y715535D01*
X650310Y715718D01*
X650291Y715900D01*
X650286Y715917D01*
X650284Y715935D01*
X650227Y716110D01*
X650173Y716285D01*
X650165Y716301D01*
X650159Y716318D01*
X650069Y716478D01*
X649982Y716639D01*
X649970Y716653D01*
X649961Y716668D01*
X649841Y716808D01*
X649724Y716948D01*
X649710Y716960D01*
X649698Y716973D01*
X649553Y717086D01*
X649410Y717201D01*
X649394Y717209D01*
X649380Y717220D01*
X649215Y717302D01*
X649053Y717386D01*
X649036Y717391D01*
X649020Y717399D01*
X648842Y717447D01*
X648666Y717498D01*
X648648Y717499D01*
X648631Y717504D01*
X648300Y717531D01*
X648282Y717529D01*
X648265Y717531D01*
X648264Y717531D01*
X648082Y717509D01*
X647899Y717491D01*
X647882Y717486D01*
X647864Y717484D01*
X647690Y717427D01*
X647514Y717373D01*
X647499Y717364D01*
X647482Y717359D01*
X647321Y717268D01*
X647160Y717181D01*
X647147Y717170D01*
X647131Y717161D01*
X646992Y717041D01*
X646851Y716923D01*
X646840Y716909D01*
X646826Y716898D01*
X646714Y716753D01*
X646599Y716610D01*
X646590Y716594D01*
X646580Y716580D01*
X646498Y716415D01*
X646413Y716252D01*
X646408Y716235D01*
X646400Y716219D01*
X646352Y716041D01*
X646302Y715865D01*
X646300Y715848D01*
X646296Y715830D01*
X646269Y715500D01*
X646269Y706355D01*
X644512Y706355D01*
X639500Y711367D01*
X639493Y711373D01*
X639488Y711380D01*
X639338Y711500D01*
X639189Y711622D01*
X639181Y711626D01*
X639174Y711632D01*
X639004Y711720D01*
X638833Y711811D01*
X638824Y711813D01*
X638817Y711817D01*
X638632Y711871D01*
X638447Y711926D01*
X638438Y711926D01*
X638430Y711929D01*
X638238Y711945D01*
X638046Y711962D01*
X638037Y711961D01*
X638028Y711962D01*
X637839Y711940D01*
X637646Y711919D01*
X637637Y711916D01*
X637629Y711915D01*
X637447Y711855D01*
X637262Y711797D01*
X637254Y711793D01*
X637246Y711790D01*
X637077Y711695D01*
X636910Y711602D01*
X636903Y711597D01*
X636895Y711592D01*
X636749Y711466D01*
X636603Y711342D01*
X636597Y711335D01*
X636590Y711329D01*
X636473Y711177D01*
X636353Y711026D01*
X636349Y711018D01*
X636344Y711011D01*
X636258Y710839D01*
X636171Y710667D01*
X636168Y710658D01*
X636164Y710650D01*
X636114Y710464D01*
X636063Y710279D01*
X636062Y710270D01*
X636060Y710262D01*
X636033Y709931D01*
X636033Y686664D01*
X636035Y686646D01*
X636033Y686628D01*
X636054Y686446D01*
X636073Y686263D01*
X636078Y686246D01*
X636080Y686229D01*
X636137Y686054D01*
X636191Y685878D01*
X636199Y685863D01*
X636205Y685846D01*
X636295Y685686D01*
X636383Y685524D01*
X636394Y685511D01*
X636403Y685495D01*
X636523Y685356D01*
X636640Y685215D01*
X636654Y685204D01*
X636666Y685190D01*
X636811Y685078D01*
X636954Y684963D01*
X636970Y684955D01*
X636984Y684944D01*
X637149Y684862D01*
X637311Y684777D01*
X637328Y684772D01*
X637344Y684764D01*
X637523Y684717D01*
X637698Y684666D01*
X637716Y684664D01*
X637733Y684660D01*
X638064Y684633D01*
X651075Y684633D01*
X651093Y684635D01*
G37*
%LPC*%
G36*
X811749Y614049D02*
X811749Y614049D01*
X811749Y621091D01*
X814835Y621091D01*
X815481Y620918D01*
X816060Y620583D01*
X816533Y620110D01*
X816868Y619531D01*
X817041Y618885D01*
X817041Y614049D01*
X811749Y614049D01*
G37*
%LPD*%
D10*
X897300Y636000D03*
X897300Y610600D03*
X864900Y635500D03*
X864900Y610100D03*
D11*
X809000Y611300D03*
X791000Y611300D03*
D12*
X864000Y681000D03*
X864000Y662000D03*
X921500Y669500D03*
X921500Y688500D03*
D13*
X808250Y636500D03*
X808250Y643000D03*
X808250Y649500D03*
X790750Y636500D03*
X790750Y643000D03*
X790750Y649500D03*
D14*
X672394Y686300D03*
X672394Y673600D03*
X672394Y660900D03*
X672394Y648200D03*
X672394Y635500D03*
X672394Y622800D03*
X672394Y610100D03*
X720400Y610100D03*
X720400Y622800D03*
X720400Y635500D03*
X720400Y648200D03*
X720400Y660900D03*
X720400Y673600D03*
X720400Y686300D03*
D15*
X873760Y736600D03*
X863600Y718820D03*
X853440Y736600D03*
X843280Y718820D03*
X833120Y736600D03*
X822960Y718820D03*
X812800Y736600D03*
X802640Y718820D03*
D16*
X757174Y727710D03*
X919226Y727710D03*
D17*
X673700Y715500D03*
X648300Y715500D03*
D18*
X720500Y723300D03*
X720500Y748700D03*
D19*
X867840Y637320D02*
X894960Y637320D01*
X897300Y636000D01*
X867840Y637320D02*
X865867Y636099D01*
X864900Y635500D01*
D20*
X864000Y636099D02*
X864000Y649500D01*
X864000Y636099D02*
X865867Y636099D01*
X864000Y649500D02*
X808250Y649500D01*
X864000Y649500D02*
X864000Y650000D01*
X864000Y662000D01*
X720500Y686300D02*
X720400Y686300D01*
X720500Y686300D02*
X720500Y699000D01*
X720500Y723300D01*
X822960Y718820D02*
X822960Y699000D01*
X821000Y699000D01*
X720500Y699000D01*
X839000Y681000D02*
X864000Y681000D01*
X839000Y681000D02*
X821000Y699000D01*
X824000Y643000D02*
X808250Y643000D01*
X824000Y643000D02*
X833000Y634000D01*
D21*
X833000Y634000D03*
X741500Y673500D03*
D20*
X720500Y673500D01*
X720400Y673600D01*
X921500Y669500D02*
X921500Y589652D01*
X790500Y589652D01*
X790500Y611300D01*
X791000Y611300D01*
X625000Y719000D02*
X704472Y798472D01*
X625000Y719000D02*
X625000Y673600D01*
X672394Y673600D01*
X873760Y736600D02*
X873760Y798472D01*
X704472Y798472D01*
X614436Y669224D02*
X620624Y663036D01*
X614436Y669224D02*
X614436Y723376D01*
X700096Y809036D01*
X670258Y663036D02*
X672394Y660900D01*
X670258Y663036D02*
X620624Y663036D01*
X700096Y809036D02*
X891304Y809036D01*
X894180Y718820D02*
X863600Y718820D01*
X894180Y718820D02*
X904000Y709000D01*
X931000Y709000D01*
X941500Y719500D01*
X941500Y758840D01*
X891304Y809036D01*
D21*
X611500Y647500D03*
D20*
X672394Y647500D01*
X672394Y648200D01*
D21*
X851000Y758500D03*
D20*
X853440Y756060D01*
X853440Y736600D01*
X672394Y686300D02*
X672394Y685700D01*
X673700Y687006D01*
X673700Y715500D01*
X709832Y751632D02*
X709832Y753119D01*
X709832Y751632D02*
X673700Y715500D01*
X709832Y753119D02*
X744621Y787908D01*
X785432Y787908D01*
X720400Y610100D02*
X691476Y610100D01*
X674530Y684164D02*
X672394Y686300D01*
X691476Y673600D02*
X691476Y610100D01*
X691476Y673600D02*
X680912Y684164D01*
X674530Y684164D01*
X785432Y787908D02*
X833120Y740220D01*
X833120Y736600D01*
X790750Y636500D02*
X758000Y636500D01*
X746300Y648200D02*
X720400Y648200D01*
X746300Y648200D02*
X758000Y636500D01*
X768000Y643000D02*
X790750Y643000D01*
X750100Y660900D02*
X720400Y660900D01*
X750100Y660900D02*
X768000Y643000D01*
D19*
X867840Y610200D02*
X894960Y610200D01*
X897300Y610600D01*
X867840Y610200D02*
X866393Y610151D01*
X864900Y610100D01*
D20*
X809000Y610151D02*
X809000Y611300D01*
X809000Y610151D02*
X866393Y610151D01*
X808250Y611300D02*
X808250Y636500D01*
X808250Y611300D02*
X809000Y611300D01*
X790750Y649500D02*
X780000Y649500D01*
X769000Y660500D01*
D21*
X769000Y660500D03*
D20*
X741500Y635500D02*
X720400Y635500D01*
X741500Y635500D02*
X753000Y624000D01*
D21*
X753000Y624000D03*
D20*
X770735Y718820D02*
X802640Y718820D01*
X770735Y718820D02*
X763750Y711835D01*
X750598Y711835D01*
X739000Y723433D01*
X739000Y748700D02*
X720500Y748700D01*
X739000Y748700D02*
X739000Y723433D01*
X672394Y635500D02*
X638000Y635500D01*
D21*
X638000Y635500D03*
D22*
X782000Y731000D03*
D21*
X645500Y697000D03*
D20*
X843280Y718820D02*
X847244Y718820D01*
X865064Y701000D02*
X905500Y701000D01*
X918000Y688500D01*
X921500Y688500D01*
X865064Y701000D02*
X847244Y718820D01*
M02*
