G04 EAGLE Gerber X2 export*
%TF.Part,Single*%
%TF.FileFunction,Other,Component side*%
%TF.FilePolarity,Positive*%
%TF.GenerationSoftware,Autodesk,EAGLE,8.6.3*%
%TF.CreationDate,2019-04-09T17:42:19Z*%
G75*
%MOMM*%
%FSLAX34Y34*%
%LPD*%
%AMOC8*
5,1,8,0,0,1.08239X$1,22.5*%
G01*
%ADD10P,1.429621X8X202.500000*%
%ADD11R,1.300000X1.500000*%
%ADD12R,1.500000X1.300000*%
%ADD13R,0.550000X0.300000*%
%ADD14C,1.422400*%
%ADD15C,2.362200*%
%ADD16C,0.203200*%
%ADD17C,0.152400*%
%ADD18C,1.500000*%
%ADD19C,0.756400*%

G36*
X931422Y587629D02*
X931422Y587629D01*
X931480Y587627D01*
X931562Y587649D01*
X931646Y587661D01*
X931699Y587684D01*
X931755Y587699D01*
X931828Y587742D01*
X931905Y587777D01*
X931950Y587815D01*
X932000Y587844D01*
X932058Y587906D01*
X932122Y587960D01*
X932154Y588009D01*
X932194Y588052D01*
X932233Y588127D01*
X932280Y588197D01*
X932297Y588253D01*
X932324Y588305D01*
X932335Y588373D01*
X932365Y588468D01*
X932368Y588568D01*
X932379Y588636D01*
X932379Y716051D01*
X932375Y716080D01*
X932378Y716109D01*
X932355Y716220D01*
X932339Y716333D01*
X932327Y716359D01*
X932322Y716388D01*
X932269Y716489D01*
X932223Y716592D01*
X932204Y716614D01*
X932191Y716640D01*
X932113Y716723D01*
X932040Y716809D01*
X932015Y716825D01*
X931995Y716847D01*
X931897Y716904D01*
X931803Y716967D01*
X931775Y716975D01*
X931750Y716990D01*
X931640Y717018D01*
X931532Y717052D01*
X931502Y717053D01*
X931474Y717060D01*
X931361Y717057D01*
X931248Y717060D01*
X931219Y717052D01*
X931190Y717051D01*
X931082Y717016D01*
X930973Y716988D01*
X930947Y716973D01*
X930919Y716964D01*
X930856Y716918D01*
X930728Y716843D01*
X930685Y716797D01*
X930646Y716769D01*
X928183Y714305D01*
X922371Y711898D01*
X916081Y711898D01*
X910269Y714305D01*
X905821Y718753D01*
X903414Y724565D01*
X903414Y730855D01*
X905843Y736719D01*
X905872Y736831D01*
X905907Y736940D01*
X905907Y736968D01*
X905914Y736995D01*
X905911Y737109D01*
X905914Y737224D01*
X905907Y737251D01*
X905906Y737279D01*
X905871Y737388D01*
X905842Y737499D01*
X905828Y737523D01*
X905820Y737550D01*
X905755Y737645D01*
X905697Y737744D01*
X905677Y737763D01*
X905661Y737786D01*
X905573Y737860D01*
X905490Y737938D01*
X905465Y737951D01*
X905444Y737969D01*
X905339Y738015D01*
X905236Y738068D01*
X905212Y738072D01*
X905184Y738084D01*
X904920Y738121D01*
X904905Y738123D01*
X896951Y738123D01*
X888175Y741758D01*
X881458Y748475D01*
X880730Y750233D01*
X880686Y750307D01*
X880651Y750386D01*
X880614Y750429D01*
X880585Y750478D01*
X880523Y750537D01*
X880467Y750603D01*
X880420Y750634D01*
X880379Y750673D01*
X880302Y750713D01*
X880231Y750760D01*
X880177Y750777D01*
X880126Y750803D01*
X880042Y750820D01*
X879960Y750846D01*
X879903Y750848D01*
X879847Y750859D01*
X879762Y750851D01*
X879676Y750853D01*
X879621Y750839D01*
X879564Y750834D01*
X879484Y750803D01*
X879401Y750782D01*
X879352Y750753D01*
X879299Y750732D01*
X879230Y750680D01*
X879156Y750636D01*
X879117Y750595D01*
X879072Y750560D01*
X879020Y750492D01*
X878962Y750429D01*
X878936Y750378D01*
X878902Y750333D01*
X878871Y750252D01*
X878832Y750176D01*
X878824Y750127D01*
X878801Y750067D01*
X878790Y749922D01*
X878777Y749845D01*
X878777Y747229D01*
X878777Y747227D01*
X878777Y747226D01*
X878797Y747086D01*
X878817Y746947D01*
X878817Y746946D01*
X878817Y746944D01*
X878874Y746818D01*
X878933Y746688D01*
X878934Y746687D01*
X878935Y746685D01*
X879027Y746576D01*
X879116Y746471D01*
X879118Y746470D01*
X879119Y746469D01*
X879132Y746461D01*
X879353Y746313D01*
X879382Y746304D01*
X879403Y746291D01*
X880055Y746021D01*
X883181Y742895D01*
X884873Y738810D01*
X884873Y734390D01*
X884498Y733484D01*
X884497Y733483D01*
X884497Y733481D01*
X884462Y733347D01*
X884427Y733209D01*
X884427Y733207D01*
X884426Y733206D01*
X884431Y733065D01*
X884435Y732925D01*
X884435Y732923D01*
X884435Y732922D01*
X884478Y732789D01*
X884522Y732654D01*
X884522Y732653D01*
X884523Y732651D01*
X884532Y732639D01*
X884680Y732418D01*
X884703Y732398D01*
X884718Y732378D01*
X892175Y724920D01*
X892176Y724920D01*
X895263Y721833D01*
X895263Y679016D01*
X895271Y678958D01*
X895269Y678900D01*
X895291Y678818D01*
X895303Y678734D01*
X895326Y678681D01*
X895341Y678625D01*
X895384Y678552D01*
X895419Y678475D01*
X895457Y678430D01*
X895486Y678380D01*
X895548Y678322D01*
X895602Y678258D01*
X895651Y678226D01*
X895694Y678186D01*
X895769Y678147D01*
X895839Y678100D01*
X895895Y678083D01*
X895947Y678056D01*
X896015Y678045D01*
X896110Y678015D01*
X896210Y678012D01*
X896278Y678001D01*
X899657Y678001D01*
X902001Y675657D01*
X902001Y659343D01*
X901376Y658718D01*
X901341Y658671D01*
X901298Y658631D01*
X901256Y658558D01*
X901205Y658491D01*
X901184Y658436D01*
X901154Y658386D01*
X901134Y658304D01*
X901104Y658225D01*
X901099Y658167D01*
X901084Y658110D01*
X901087Y658026D01*
X901080Y657942D01*
X901092Y657884D01*
X901093Y657826D01*
X901119Y657746D01*
X901136Y657663D01*
X901163Y657611D01*
X901181Y657555D01*
X901221Y657499D01*
X901267Y657411D01*
X901336Y657338D01*
X901376Y657282D01*
X902001Y656657D01*
X902001Y640343D01*
X899657Y637999D01*
X896278Y637999D01*
X896220Y637991D01*
X896162Y637993D01*
X896080Y637971D01*
X895996Y637959D01*
X895943Y637936D01*
X895887Y637921D01*
X895814Y637878D01*
X895737Y637843D01*
X895692Y637805D01*
X895642Y637776D01*
X895584Y637714D01*
X895520Y637660D01*
X895488Y637611D01*
X895448Y637568D01*
X895409Y637493D01*
X895362Y637423D01*
X895345Y637367D01*
X895318Y637315D01*
X895307Y637247D01*
X895277Y637152D01*
X895274Y637052D01*
X895263Y636984D01*
X895263Y619027D01*
X892473Y616237D01*
X885654Y616237D01*
X885652Y616237D01*
X885651Y616237D01*
X885511Y616217D01*
X885372Y616197D01*
X885371Y616197D01*
X885369Y616197D01*
X885243Y616140D01*
X885113Y616081D01*
X885112Y616080D01*
X885110Y616079D01*
X885003Y615988D01*
X884896Y615898D01*
X884895Y615896D01*
X884894Y615895D01*
X884886Y615882D01*
X884738Y615661D01*
X884729Y615632D01*
X884716Y615611D01*
X884250Y614485D01*
X881015Y611250D01*
X876788Y609499D01*
X872212Y609499D01*
X867985Y611250D01*
X864750Y614485D01*
X862999Y618712D01*
X862999Y623288D01*
X864750Y627515D01*
X867985Y630750D01*
X872212Y632501D01*
X876788Y632501D01*
X881015Y630750D01*
X884004Y627760D01*
X884028Y627743D01*
X884047Y627720D01*
X884141Y627658D01*
X884231Y627589D01*
X884259Y627579D01*
X884283Y627563D01*
X884391Y627529D01*
X884497Y627488D01*
X884526Y627486D01*
X884554Y627477D01*
X884668Y627474D01*
X884780Y627465D01*
X884809Y627470D01*
X884838Y627470D01*
X884948Y627498D01*
X885059Y627521D01*
X885085Y627534D01*
X885113Y627541D01*
X885211Y627599D01*
X885311Y627652D01*
X885333Y627672D01*
X885358Y627687D01*
X885435Y627769D01*
X885517Y627847D01*
X885532Y627873D01*
X885552Y627894D01*
X885604Y627995D01*
X885661Y628093D01*
X885668Y628121D01*
X885682Y628147D01*
X885695Y628225D01*
X885731Y628368D01*
X885729Y628431D01*
X885737Y628478D01*
X885737Y636984D01*
X885729Y637042D01*
X885731Y637100D01*
X885709Y637182D01*
X885697Y637266D01*
X885674Y637319D01*
X885659Y637375D01*
X885616Y637448D01*
X885581Y637525D01*
X885543Y637570D01*
X885514Y637620D01*
X885452Y637678D01*
X885398Y637742D01*
X885349Y637774D01*
X885306Y637814D01*
X885231Y637853D01*
X885161Y637900D01*
X885105Y637917D01*
X885053Y637944D01*
X884985Y637955D01*
X884890Y637985D01*
X884790Y637988D01*
X884722Y637999D01*
X881343Y637999D01*
X878999Y640343D01*
X878999Y656657D01*
X879624Y657282D01*
X879659Y657329D01*
X879702Y657369D01*
X879744Y657442D01*
X879795Y657509D01*
X879816Y657564D01*
X879845Y657614D01*
X879866Y657696D01*
X879896Y657775D01*
X879901Y657833D01*
X879916Y657890D01*
X879913Y657974D01*
X879920Y658058D01*
X879908Y658116D01*
X879907Y658174D01*
X879881Y658254D01*
X879864Y658337D01*
X879837Y658389D01*
X879819Y658445D01*
X879779Y658501D01*
X879733Y658589D01*
X879664Y658662D01*
X879624Y658718D01*
X878999Y659343D01*
X878999Y675657D01*
X881343Y678001D01*
X884722Y678001D01*
X884780Y678009D01*
X884838Y678007D01*
X884920Y678029D01*
X885004Y678041D01*
X885057Y678064D01*
X885113Y678079D01*
X885186Y678122D01*
X885263Y678157D01*
X885308Y678195D01*
X885358Y678224D01*
X885416Y678286D01*
X885480Y678340D01*
X885512Y678389D01*
X885552Y678432D01*
X885591Y678507D01*
X885638Y678577D01*
X885655Y678633D01*
X885682Y678685D01*
X885693Y678753D01*
X885723Y678848D01*
X885726Y678948D01*
X885737Y679016D01*
X885737Y717467D01*
X885725Y717553D01*
X885722Y717641D01*
X885705Y717693D01*
X885697Y717748D01*
X885662Y717828D01*
X885635Y717911D01*
X885607Y717950D01*
X885581Y718008D01*
X885485Y718121D01*
X885440Y718185D01*
X877982Y725642D01*
X877981Y725643D01*
X877980Y725644D01*
X877867Y725729D01*
X877755Y725813D01*
X877754Y725814D01*
X877752Y725815D01*
X877620Y725864D01*
X877489Y725914D01*
X877488Y725914D01*
X877486Y725915D01*
X877342Y725927D01*
X877206Y725938D01*
X877205Y725938D01*
X877203Y725938D01*
X877187Y725934D01*
X876927Y725882D01*
X876900Y725868D01*
X876876Y725862D01*
X875970Y725487D01*
X874386Y725487D01*
X874272Y725471D01*
X874158Y725461D01*
X874132Y725451D01*
X874105Y725447D01*
X874000Y725400D01*
X873893Y725359D01*
X873870Y725343D01*
X873845Y725331D01*
X873758Y725257D01*
X873666Y725188D01*
X873649Y725165D01*
X873628Y725148D01*
X873565Y725052D01*
X873496Y724960D01*
X873486Y724934D01*
X873471Y724911D01*
X873436Y724801D01*
X873395Y724694D01*
X873393Y724666D01*
X873385Y724640D01*
X873382Y724525D01*
X873373Y724411D01*
X873378Y724386D01*
X873378Y724356D01*
X873445Y724099D01*
X873448Y724083D01*
X874713Y721030D01*
X874713Y716610D01*
X873021Y712525D01*
X869895Y709399D01*
X869243Y709129D01*
X869242Y709128D01*
X869241Y709128D01*
X869120Y709057D01*
X868999Y708985D01*
X868998Y708984D01*
X868996Y708983D01*
X868899Y708879D01*
X868803Y708778D01*
X868803Y708777D01*
X868802Y708775D01*
X868737Y708650D01*
X868673Y708525D01*
X868673Y708524D01*
X868672Y708522D01*
X868670Y708508D01*
X868618Y708246D01*
X868621Y708216D01*
X868617Y708191D01*
X868617Y685772D01*
X865381Y682536D01*
X855798Y672953D01*
X855746Y672884D01*
X855686Y672820D01*
X855660Y672770D01*
X855627Y672726D01*
X855596Y672644D01*
X855556Y672567D01*
X855548Y672519D01*
X855526Y672461D01*
X855514Y672313D01*
X855501Y672235D01*
X855501Y669843D01*
X854338Y668680D01*
X854286Y668610D01*
X854226Y668546D01*
X854200Y668497D01*
X854167Y668453D01*
X854136Y668371D01*
X854096Y668293D01*
X854088Y668246D01*
X854066Y668187D01*
X854054Y668040D01*
X854041Y667962D01*
X854041Y667515D01*
X853594Y667515D01*
X853531Y667507D01*
X853468Y667508D01*
X853391Y667487D01*
X853312Y667476D01*
X853255Y667450D01*
X853193Y667433D01*
X853138Y667397D01*
X853053Y667359D01*
X852971Y667290D01*
X852911Y667251D01*
X852876Y667210D01*
X852836Y667176D01*
X852836Y667175D01*
X852786Y667101D01*
X852729Y667032D01*
X852708Y666983D01*
X852678Y666939D01*
X852651Y666853D01*
X852615Y666772D01*
X852608Y666719D01*
X852592Y666668D01*
X852590Y666578D01*
X852578Y666490D01*
X852586Y666437D01*
X852585Y666383D01*
X852607Y666297D01*
X852621Y666209D01*
X852643Y666160D01*
X852657Y666108D01*
X852702Y666032D01*
X852740Y665950D01*
X852775Y665910D01*
X852802Y665864D01*
X852867Y665803D01*
X852925Y665735D01*
X852970Y665706D01*
X853009Y665669D01*
X853089Y665629D01*
X853164Y665580D01*
X853215Y665564D01*
X853262Y665540D01*
X853333Y665528D01*
X853435Y665497D01*
X853528Y665495D01*
X853593Y665485D01*
X854041Y665485D01*
X854041Y664666D01*
X853868Y664019D01*
X853533Y663440D01*
X853060Y662967D01*
X852481Y662632D01*
X851834Y662459D01*
X849765Y662459D01*
X849765Y666484D01*
X849757Y666542D01*
X849759Y666600D01*
X849737Y666682D01*
X849726Y666766D01*
X849702Y666819D01*
X849687Y666875D01*
X849644Y666948D01*
X849609Y667025D01*
X849572Y667070D01*
X849542Y667120D01*
X849480Y667178D01*
X849426Y667242D01*
X849377Y667274D01*
X849334Y667314D01*
X849259Y667353D01*
X849189Y667400D01*
X849133Y667417D01*
X849081Y667444D01*
X849013Y667455D01*
X848918Y667485D01*
X848818Y667488D01*
X848750Y667499D01*
X848692Y667491D01*
X848634Y667493D01*
X848633Y667493D01*
X848552Y667471D01*
X848468Y667459D01*
X848415Y667436D01*
X848358Y667421D01*
X848286Y667378D01*
X848209Y667343D01*
X848164Y667305D01*
X848114Y667276D01*
X848056Y667214D01*
X847992Y667160D01*
X847960Y667111D01*
X847919Y667068D01*
X847881Y666993D01*
X847834Y666923D01*
X847817Y666867D01*
X847790Y666815D01*
X847779Y666747D01*
X847749Y666652D01*
X847746Y666552D01*
X847735Y666484D01*
X847735Y662459D01*
X845666Y662459D01*
X845019Y662632D01*
X844440Y662967D01*
X843967Y663440D01*
X843632Y664019D01*
X843555Y664307D01*
X843540Y664343D01*
X843532Y664381D01*
X843485Y664473D01*
X843444Y664569D01*
X843419Y664599D01*
X843401Y664633D01*
X843330Y664709D01*
X843265Y664789D01*
X843233Y664811D01*
X843206Y664840D01*
X843116Y664892D01*
X843031Y664951D01*
X842994Y664964D01*
X842960Y664983D01*
X842860Y665009D01*
X842762Y665042D01*
X842723Y665044D01*
X842685Y665053D01*
X842581Y665050D01*
X842478Y665055D01*
X842440Y665046D01*
X842401Y665044D01*
X842302Y665013D01*
X842201Y664988D01*
X842167Y664969D01*
X842130Y664957D01*
X842067Y664912D01*
X841954Y664848D01*
X841902Y664794D01*
X841857Y664762D01*
X838578Y661483D01*
X836562Y661483D01*
X836475Y661471D01*
X836388Y661468D01*
X836335Y661451D01*
X836280Y661443D01*
X836200Y661408D01*
X836117Y661381D01*
X836078Y661353D01*
X836021Y661327D01*
X835908Y661231D01*
X835844Y661186D01*
X835657Y660999D01*
X826843Y660999D01*
X826656Y661186D01*
X826586Y661238D01*
X826522Y661298D01*
X826473Y661324D01*
X826429Y661357D01*
X826347Y661388D01*
X826269Y661428D01*
X826222Y661436D01*
X826163Y661458D01*
X826016Y661470D01*
X825938Y661483D01*
X813499Y661483D01*
X813412Y661471D01*
X813325Y661468D01*
X813272Y661451D01*
X813217Y661443D01*
X813137Y661408D01*
X813054Y661381D01*
X813015Y661353D01*
X812958Y661327D01*
X812844Y661231D01*
X812781Y661186D01*
X799402Y647807D01*
X799350Y647738D01*
X799290Y647674D01*
X799264Y647624D01*
X799231Y647580D01*
X799200Y647498D01*
X799160Y647421D01*
X799152Y647373D01*
X799130Y647314D01*
X799118Y647167D01*
X799105Y647089D01*
X799105Y640207D01*
X793814Y634917D01*
X793762Y634847D01*
X793702Y634783D01*
X793676Y634734D01*
X793643Y634690D01*
X793612Y634608D01*
X793572Y634530D01*
X793564Y634482D01*
X793542Y634424D01*
X793530Y634276D01*
X793517Y634199D01*
X793517Y628101D01*
X793529Y628014D01*
X793532Y627927D01*
X793549Y627874D01*
X793557Y627820D01*
X793592Y627740D01*
X793619Y627657D01*
X793647Y627617D01*
X793673Y627560D01*
X793769Y627447D01*
X793814Y627383D01*
X799105Y622093D01*
X799105Y613307D01*
X792893Y607095D01*
X784107Y607095D01*
X777895Y613307D01*
X777895Y622093D01*
X783186Y627383D01*
X783238Y627453D01*
X783298Y627517D01*
X783324Y627566D01*
X783357Y627610D01*
X783388Y627692D01*
X783428Y627770D01*
X783436Y627818D01*
X783458Y627876D01*
X783470Y628024D01*
X783483Y628101D01*
X783483Y634199D01*
X783471Y634285D01*
X783468Y634373D01*
X783451Y634426D01*
X783443Y634480D01*
X783408Y634560D01*
X783381Y634643D01*
X783353Y634683D01*
X783327Y634740D01*
X783231Y634853D01*
X783186Y634917D01*
X777895Y640207D01*
X777895Y648993D01*
X784107Y655205D01*
X792189Y655205D01*
X792276Y655217D01*
X792363Y655220D01*
X792416Y655237D01*
X792471Y655245D01*
X792551Y655280D01*
X792634Y655307D01*
X792673Y655335D01*
X792730Y655361D01*
X792843Y655457D01*
X792907Y655502D01*
X802687Y665282D01*
X802722Y665329D01*
X802765Y665369D01*
X802808Y665442D01*
X802858Y665509D01*
X802879Y665564D01*
X802909Y665614D01*
X802929Y665696D01*
X802959Y665775D01*
X802964Y665833D01*
X802979Y665890D01*
X802976Y665974D01*
X802983Y666058D01*
X802972Y666116D01*
X802970Y666174D01*
X802944Y666254D01*
X802927Y666337D01*
X802900Y666389D01*
X802882Y666445D01*
X802842Y666501D01*
X802796Y666589D01*
X802727Y666662D01*
X802687Y666718D01*
X772983Y696422D01*
X772983Y719455D01*
X772971Y719540D01*
X772969Y719626D01*
X772951Y719680D01*
X772943Y719736D01*
X772908Y719815D01*
X772882Y719897D01*
X772850Y719944D01*
X772827Y719996D01*
X772772Y720061D01*
X772724Y720133D01*
X772680Y720169D01*
X772644Y720213D01*
X772572Y720260D01*
X772506Y720316D01*
X772454Y720339D01*
X772407Y720370D01*
X772325Y720396D01*
X772246Y720431D01*
X772190Y720439D01*
X772136Y720456D01*
X772050Y720458D01*
X771965Y720470D01*
X771909Y720462D01*
X771852Y720463D01*
X771769Y720442D01*
X771683Y720429D01*
X771632Y720406D01*
X771577Y720392D01*
X771503Y720348D01*
X771424Y720312D01*
X771381Y720276D01*
X771332Y720246D01*
X771273Y720184D01*
X771208Y720128D01*
X771182Y720086D01*
X771138Y720039D01*
X771072Y719910D01*
X771030Y719843D01*
X770579Y718753D01*
X766131Y714305D01*
X760319Y711898D01*
X754029Y711898D01*
X748217Y714305D01*
X744354Y718169D01*
X744330Y718187D01*
X744311Y718209D01*
X744217Y718272D01*
X744127Y718340D01*
X744099Y718350D01*
X744075Y718367D01*
X743967Y718401D01*
X743861Y718441D01*
X743832Y718444D01*
X743804Y718452D01*
X743690Y718455D01*
X743578Y718465D01*
X743549Y718459D01*
X743520Y718460D01*
X743410Y718431D01*
X743299Y718409D01*
X743273Y718395D01*
X743245Y718388D01*
X743147Y718330D01*
X743047Y718278D01*
X743025Y718258D01*
X743000Y718243D01*
X742923Y718160D01*
X742841Y718082D01*
X742826Y718057D01*
X742806Y718035D01*
X742754Y717934D01*
X742697Y717837D01*
X742690Y717808D01*
X742676Y717782D01*
X742663Y717705D01*
X742627Y717561D01*
X742629Y717499D01*
X742621Y717451D01*
X742621Y588636D01*
X742629Y588578D01*
X742627Y588520D01*
X742649Y588438D01*
X742661Y588354D01*
X742684Y588301D01*
X742699Y588245D01*
X742742Y588172D01*
X742777Y588095D01*
X742815Y588050D01*
X742844Y588000D01*
X742906Y587942D01*
X742960Y587878D01*
X743009Y587846D01*
X743052Y587806D01*
X743127Y587767D01*
X743197Y587720D01*
X743253Y587703D01*
X743305Y587676D01*
X743373Y587665D01*
X743468Y587635D01*
X743568Y587632D01*
X743636Y587621D01*
X931364Y587621D01*
X931422Y587629D01*
G37*
G36*
X743639Y736963D02*
X743639Y736963D01*
X743752Y736960D01*
X743781Y736968D01*
X743810Y736969D01*
X743918Y737004D01*
X744027Y737032D01*
X744053Y737047D01*
X744081Y737056D01*
X744144Y737102D01*
X744272Y737177D01*
X744315Y737223D01*
X744354Y737251D01*
X748217Y741115D01*
X754029Y743522D01*
X756960Y743522D01*
X756990Y743526D01*
X757019Y743523D01*
X757130Y743546D01*
X757242Y743562D01*
X757269Y743574D01*
X757297Y743579D01*
X757398Y743632D01*
X757501Y743678D01*
X757524Y743697D01*
X757550Y743710D01*
X757632Y743788D01*
X757718Y743861D01*
X757735Y743886D01*
X757756Y743906D01*
X757813Y744004D01*
X757876Y744098D01*
X757885Y744126D01*
X757900Y744151D01*
X757927Y744261D01*
X757962Y744369D01*
X757962Y744399D01*
X757970Y744427D01*
X757966Y744540D01*
X757969Y744653D01*
X757962Y744682D01*
X757961Y744711D01*
X757926Y744819D01*
X757897Y744928D01*
X757882Y744954D01*
X757873Y744982D01*
X757828Y745045D01*
X757752Y745173D01*
X757706Y745216D01*
X757678Y745255D01*
X754458Y748475D01*
X750823Y757251D01*
X750823Y766749D01*
X754458Y775525D01*
X761175Y782242D01*
X769951Y785877D01*
X779449Y785877D01*
X788225Y782242D01*
X794942Y775525D01*
X798577Y766749D01*
X798577Y760220D01*
X798581Y760191D01*
X798578Y760162D01*
X798601Y760051D01*
X798617Y759938D01*
X798629Y759912D01*
X798634Y759883D01*
X798686Y759782D01*
X798733Y759679D01*
X798752Y759657D01*
X798765Y759631D01*
X798843Y759549D01*
X798916Y759462D01*
X798941Y759446D01*
X798961Y759424D01*
X799059Y759367D01*
X799153Y759304D01*
X799181Y759295D01*
X799206Y759281D01*
X799316Y759253D01*
X799424Y759219D01*
X799454Y759218D01*
X799482Y759211D01*
X799595Y759214D01*
X799708Y759211D01*
X799737Y759219D01*
X799766Y759220D01*
X799874Y759255D01*
X799983Y759283D01*
X800009Y759298D01*
X800037Y759307D01*
X800100Y759353D01*
X800228Y759428D01*
X800271Y759474D01*
X800310Y759502D01*
X813825Y773017D01*
X816984Y773017D01*
X817042Y773025D01*
X817100Y773023D01*
X817182Y773045D01*
X817266Y773057D01*
X817319Y773080D01*
X817375Y773095D01*
X817448Y773138D01*
X817525Y773173D01*
X817570Y773211D01*
X817620Y773240D01*
X817678Y773302D01*
X817742Y773356D01*
X817774Y773405D01*
X817814Y773448D01*
X817853Y773523D01*
X817900Y773593D01*
X817917Y773649D01*
X817944Y773701D01*
X817955Y773769D01*
X817985Y773864D01*
X817988Y773964D01*
X817999Y774032D01*
X817999Y777157D01*
X820343Y779501D01*
X836657Y779501D01*
X837282Y778876D01*
X837329Y778841D01*
X837369Y778798D01*
X837442Y778756D01*
X837509Y778705D01*
X837564Y778684D01*
X837614Y778654D01*
X837696Y778634D01*
X837775Y778604D01*
X837833Y778599D01*
X837890Y778584D01*
X837974Y778587D01*
X838058Y778580D01*
X838116Y778592D01*
X838174Y778593D01*
X838254Y778619D01*
X838337Y778636D01*
X838389Y778663D01*
X838445Y778681D01*
X838501Y778721D01*
X838589Y778767D01*
X838662Y778836D01*
X838718Y778876D01*
X839343Y779501D01*
X855657Y779501D01*
X858001Y777157D01*
X858001Y774032D01*
X858009Y773974D01*
X858007Y773916D01*
X858029Y773834D01*
X858041Y773750D01*
X858064Y773697D01*
X858079Y773641D01*
X858122Y773568D01*
X858157Y773491D01*
X858195Y773446D01*
X858224Y773396D01*
X858286Y773338D01*
X858340Y773274D01*
X858389Y773242D01*
X858432Y773202D01*
X858507Y773163D01*
X858577Y773116D01*
X858633Y773099D01*
X858685Y773072D01*
X858753Y773061D01*
X858848Y773031D01*
X858948Y773028D01*
X859016Y773017D01*
X861078Y773017D01*
X876090Y758005D01*
X876114Y757987D01*
X876133Y757965D01*
X876227Y757902D01*
X876317Y757834D01*
X876345Y757823D01*
X876369Y757807D01*
X876477Y757773D01*
X876583Y757732D01*
X876612Y757730D01*
X876640Y757721D01*
X876754Y757718D01*
X876866Y757709D01*
X876895Y757715D01*
X876924Y757714D01*
X877034Y757743D01*
X877145Y757765D01*
X877171Y757778D01*
X877199Y757786D01*
X877297Y757844D01*
X877397Y757896D01*
X877419Y757916D01*
X877444Y757931D01*
X877521Y758014D01*
X877603Y758092D01*
X877618Y758117D01*
X877638Y758138D01*
X877690Y758239D01*
X877747Y758337D01*
X877754Y758365D01*
X877768Y758391D01*
X877781Y758469D01*
X877817Y758612D01*
X877815Y758675D01*
X877823Y758722D01*
X877823Y766749D01*
X881458Y775525D01*
X888175Y782242D01*
X896951Y785877D01*
X906449Y785877D01*
X915225Y782242D01*
X921942Y775525D01*
X925577Y766749D01*
X925577Y757251D01*
X921942Y748475D01*
X918722Y745255D01*
X918704Y745231D01*
X918682Y745212D01*
X918619Y745118D01*
X918551Y745028D01*
X918540Y745000D01*
X918524Y744976D01*
X918490Y744868D01*
X918450Y744762D01*
X918447Y744733D01*
X918438Y744705D01*
X918435Y744591D01*
X918426Y744479D01*
X918432Y744450D01*
X918431Y744421D01*
X918460Y744311D01*
X918482Y744200D01*
X918495Y744174D01*
X918503Y744146D01*
X918561Y744048D01*
X918613Y743948D01*
X918633Y743926D01*
X918648Y743901D01*
X918731Y743824D01*
X918809Y743742D01*
X918834Y743727D01*
X918855Y743707D01*
X918956Y743655D01*
X919054Y743598D01*
X919082Y743591D01*
X919108Y743577D01*
X919186Y743564D01*
X919329Y743528D01*
X919392Y743530D01*
X919440Y743522D01*
X922371Y743522D01*
X928183Y741115D01*
X930646Y738651D01*
X930670Y738633D01*
X930689Y738611D01*
X930783Y738548D01*
X930873Y738480D01*
X930901Y738470D01*
X930925Y738453D01*
X931033Y738419D01*
X931139Y738379D01*
X931168Y738376D01*
X931196Y738368D01*
X931310Y738365D01*
X931422Y738355D01*
X931451Y738361D01*
X931480Y738360D01*
X931590Y738389D01*
X931701Y738411D01*
X931727Y738425D01*
X931755Y738432D01*
X931853Y738490D01*
X931953Y738542D01*
X931975Y738562D01*
X932000Y738577D01*
X932077Y738660D01*
X932159Y738738D01*
X932174Y738763D01*
X932194Y738785D01*
X932246Y738886D01*
X932303Y738983D01*
X932310Y739012D01*
X932324Y739038D01*
X932337Y739115D01*
X932373Y739259D01*
X932371Y739321D01*
X932379Y739369D01*
X932379Y814364D01*
X932371Y814422D01*
X932373Y814480D01*
X932351Y814562D01*
X932339Y814646D01*
X932316Y814699D01*
X932301Y814755D01*
X932258Y814828D01*
X932223Y814905D01*
X932185Y814950D01*
X932156Y815000D01*
X932094Y815058D01*
X932040Y815122D01*
X931991Y815154D01*
X931948Y815194D01*
X931873Y815233D01*
X931803Y815280D01*
X931747Y815297D01*
X931695Y815324D01*
X931627Y815335D01*
X931532Y815365D01*
X931432Y815368D01*
X931364Y815379D01*
X743636Y815379D01*
X743578Y815371D01*
X743520Y815373D01*
X743438Y815351D01*
X743354Y815339D01*
X743301Y815316D01*
X743245Y815301D01*
X743172Y815258D01*
X743095Y815223D01*
X743050Y815185D01*
X743000Y815156D01*
X742942Y815094D01*
X742878Y815040D01*
X742846Y814991D01*
X742806Y814948D01*
X742767Y814873D01*
X742720Y814803D01*
X742703Y814747D01*
X742676Y814695D01*
X742665Y814627D01*
X742635Y814532D01*
X742632Y814432D01*
X742621Y814364D01*
X742621Y737969D01*
X742625Y737940D01*
X742622Y737911D01*
X742645Y737800D01*
X742661Y737687D01*
X742673Y737661D01*
X742678Y737632D01*
X742730Y737531D01*
X742777Y737428D01*
X742796Y737406D01*
X742809Y737380D01*
X742887Y737298D01*
X742960Y737211D01*
X742985Y737195D01*
X743005Y737173D01*
X743103Y737116D01*
X743197Y737053D01*
X743225Y737045D01*
X743250Y737030D01*
X743360Y737002D01*
X743468Y736968D01*
X743498Y736967D01*
X743526Y736960D01*
X743639Y736963D01*
G37*
G36*
X823542Y678025D02*
X823542Y678025D01*
X823600Y678023D01*
X823682Y678045D01*
X823766Y678057D01*
X823819Y678080D01*
X823875Y678095D01*
X823948Y678138D01*
X824025Y678173D01*
X824070Y678211D01*
X824120Y678240D01*
X824178Y678302D01*
X824242Y678356D01*
X824274Y678405D01*
X824314Y678448D01*
X824353Y678523D01*
X824400Y678593D01*
X824417Y678649D01*
X824444Y678701D01*
X824455Y678769D01*
X824485Y678864D01*
X824488Y678964D01*
X824499Y679032D01*
X824499Y682657D01*
X826843Y685001D01*
X835657Y685001D01*
X835844Y684814D01*
X835914Y684762D01*
X835978Y684702D01*
X836027Y684676D01*
X836071Y684643D01*
X836153Y684612D01*
X836231Y684572D01*
X836278Y684564D01*
X836337Y684542D01*
X836484Y684530D01*
X836562Y684517D01*
X838578Y684517D01*
X840501Y682594D01*
X840547Y682559D01*
X840588Y682517D01*
X840660Y682474D01*
X840728Y682423D01*
X840782Y682402D01*
X840833Y682373D01*
X840914Y682352D01*
X840993Y682322D01*
X841052Y682317D01*
X841108Y682303D01*
X841193Y682306D01*
X841277Y682299D01*
X841334Y682310D01*
X841392Y682312D01*
X841473Y682338D01*
X841555Y682354D01*
X841607Y682381D01*
X841663Y682399D01*
X841719Y682439D01*
X841808Y682485D01*
X841880Y682554D01*
X841936Y682594D01*
X843436Y684094D01*
X843488Y684164D01*
X843548Y684228D01*
X843574Y684277D01*
X843607Y684321D01*
X843638Y684403D01*
X843678Y684481D01*
X843686Y684528D01*
X843708Y684587D01*
X843720Y684734D01*
X843733Y684812D01*
X843733Y706692D01*
X843725Y706750D01*
X843727Y706808D01*
X843705Y706890D01*
X843693Y706974D01*
X843670Y707027D01*
X843655Y707083D01*
X843612Y707156D01*
X843577Y707233D01*
X843539Y707278D01*
X843510Y707328D01*
X843448Y707386D01*
X843394Y707450D01*
X843345Y707482D01*
X843302Y707522D01*
X843227Y707561D01*
X843157Y707608D01*
X843101Y707625D01*
X843049Y707652D01*
X842981Y707663D01*
X842886Y707693D01*
X842786Y707696D01*
X842718Y707707D01*
X841070Y707707D01*
X836985Y709399D01*
X833838Y712546D01*
X833791Y712581D01*
X833751Y712624D01*
X833678Y712667D01*
X833611Y712717D01*
X833556Y712738D01*
X833506Y712768D01*
X833424Y712788D01*
X833345Y712818D01*
X833287Y712823D01*
X833230Y712838D01*
X833146Y712835D01*
X833062Y712842D01*
X833004Y712831D01*
X832946Y712829D01*
X832866Y712803D01*
X832783Y712786D01*
X832731Y712759D01*
X832675Y712741D01*
X832619Y712701D01*
X832531Y712655D01*
X832458Y712586D01*
X832402Y712546D01*
X829255Y709399D01*
X825170Y707707D01*
X820750Y707707D01*
X816665Y709399D01*
X813539Y712525D01*
X812914Y714034D01*
X812847Y714148D01*
X812783Y714262D01*
X812775Y714269D01*
X812770Y714279D01*
X812673Y714370D01*
X812580Y714461D01*
X812571Y714466D01*
X812563Y714474D01*
X812446Y714534D01*
X812330Y714597D01*
X812320Y714599D01*
X812310Y714604D01*
X812182Y714629D01*
X812053Y714658D01*
X812042Y714657D01*
X812031Y714659D01*
X811900Y714648D01*
X811769Y714639D01*
X811759Y714635D01*
X811748Y714635D01*
X811625Y714587D01*
X811502Y714543D01*
X811493Y714536D01*
X811483Y714532D01*
X811378Y714453D01*
X811271Y714376D01*
X811266Y714368D01*
X811256Y714361D01*
X811086Y714133D01*
X811080Y714117D01*
X811072Y714106D01*
X810896Y713761D01*
X810003Y712532D01*
X808928Y711457D01*
X807699Y710564D01*
X806345Y709874D01*
X804900Y709405D01*
X804671Y709369D01*
X804671Y717804D01*
X804663Y717862D01*
X804665Y717920D01*
X804643Y718002D01*
X804631Y718085D01*
X804607Y718139D01*
X804593Y718195D01*
X804550Y718268D01*
X804515Y718345D01*
X804477Y718389D01*
X804447Y718440D01*
X804386Y718497D01*
X804331Y718562D01*
X804283Y718594D01*
X804240Y718634D01*
X804165Y718673D01*
X804095Y718719D01*
X804039Y718737D01*
X803987Y718764D01*
X803919Y718775D01*
X803824Y718805D01*
X803724Y718808D01*
X803656Y718819D01*
X801624Y718819D01*
X801566Y718811D01*
X801508Y718812D01*
X801426Y718791D01*
X801343Y718779D01*
X801289Y718755D01*
X801233Y718741D01*
X801160Y718698D01*
X801083Y718663D01*
X801038Y718625D01*
X800988Y718595D01*
X800930Y718534D01*
X800866Y718479D01*
X800834Y718431D01*
X800794Y718388D01*
X800755Y718313D01*
X800709Y718243D01*
X800691Y718187D01*
X800664Y718135D01*
X800653Y718067D01*
X800623Y717972D01*
X800620Y717872D01*
X800609Y717804D01*
X800609Y709369D01*
X800380Y709405D01*
X798935Y709874D01*
X797581Y710564D01*
X796352Y711457D01*
X796262Y711547D01*
X796238Y711565D01*
X796219Y711587D01*
X796125Y711650D01*
X796035Y711718D01*
X796007Y711728D01*
X795983Y711745D01*
X795875Y711779D01*
X795769Y711819D01*
X795740Y711822D01*
X795712Y711831D01*
X795599Y711833D01*
X795486Y711843D01*
X795457Y711837D01*
X795428Y711838D01*
X795318Y711809D01*
X795207Y711787D01*
X795181Y711773D01*
X795153Y711766D01*
X795055Y711708D01*
X794955Y711656D01*
X794933Y711636D01*
X794908Y711621D01*
X794831Y711538D01*
X794749Y711460D01*
X794734Y711435D01*
X794714Y711413D01*
X794662Y711313D01*
X794605Y711215D01*
X794598Y711186D01*
X794584Y711160D01*
X794571Y711083D01*
X794535Y710939D01*
X794537Y710877D01*
X794529Y710829D01*
X794529Y703487D01*
X794541Y703400D01*
X794544Y703313D01*
X794561Y703260D01*
X794569Y703205D01*
X794604Y703125D01*
X794631Y703042D01*
X794659Y703003D01*
X794685Y702946D01*
X794781Y702832D01*
X794826Y702769D01*
X819281Y678314D01*
X819350Y678262D01*
X819414Y678202D01*
X819464Y678176D01*
X819508Y678143D01*
X819590Y678112D01*
X819667Y678072D01*
X819715Y678064D01*
X819774Y678042D01*
X819921Y678030D01*
X819999Y678017D01*
X823484Y678017D01*
X823542Y678025D01*
G37*
G36*
X803714Y718829D02*
X803714Y718829D01*
X803772Y718828D01*
X803854Y718849D01*
X803937Y718861D01*
X803991Y718885D01*
X804047Y718899D01*
X804120Y718942D01*
X804197Y718977D01*
X804242Y719015D01*
X804292Y719045D01*
X804350Y719106D01*
X804414Y719161D01*
X804446Y719209D01*
X804486Y719252D01*
X804525Y719327D01*
X804571Y719397D01*
X804589Y719453D01*
X804616Y719505D01*
X804627Y719573D01*
X804657Y719668D01*
X804660Y719768D01*
X804671Y719836D01*
X804671Y728593D01*
X804659Y728679D01*
X804656Y728767D01*
X804639Y728819D01*
X804631Y728874D01*
X804596Y728954D01*
X804569Y729037D01*
X804541Y729076D01*
X804515Y729133D01*
X804419Y729247D01*
X804374Y729310D01*
X803379Y730305D01*
X801687Y734390D01*
X801687Y734507D01*
X801683Y734536D01*
X801686Y734566D01*
X801663Y734677D01*
X801647Y734789D01*
X801635Y734816D01*
X801630Y734844D01*
X801578Y734945D01*
X801531Y735048D01*
X801512Y735071D01*
X801499Y735097D01*
X801421Y735179D01*
X801348Y735265D01*
X801323Y735282D01*
X801303Y735303D01*
X801205Y735360D01*
X801111Y735423D01*
X801083Y735432D01*
X801058Y735446D01*
X800948Y735474D01*
X800840Y735509D01*
X800810Y735509D01*
X800782Y735517D01*
X800669Y735513D01*
X800556Y735516D01*
X800527Y735508D01*
X800498Y735508D01*
X800390Y735473D01*
X800281Y735444D01*
X800255Y735429D01*
X800227Y735420D01*
X800164Y735375D01*
X800036Y735299D01*
X799993Y735253D01*
X799954Y735225D01*
X794826Y730097D01*
X794774Y730027D01*
X794714Y729963D01*
X794688Y729914D01*
X794655Y729870D01*
X794624Y729788D01*
X794584Y729710D01*
X794576Y729663D01*
X794554Y729604D01*
X794542Y729457D01*
X794529Y729379D01*
X794529Y726811D01*
X794533Y726782D01*
X794530Y726752D01*
X794553Y726641D01*
X794569Y726529D01*
X794581Y726503D01*
X794586Y726474D01*
X794639Y726373D01*
X794685Y726270D01*
X794704Y726247D01*
X794717Y726221D01*
X794795Y726139D01*
X794868Y726053D01*
X794893Y726037D01*
X794913Y726015D01*
X795011Y725958D01*
X795105Y725895D01*
X795133Y725886D01*
X795158Y725872D01*
X795268Y725844D01*
X795376Y725809D01*
X795405Y725809D01*
X795434Y725801D01*
X795547Y725805D01*
X795660Y725802D01*
X795689Y725810D01*
X795718Y725811D01*
X795826Y725845D01*
X795935Y725874D01*
X795961Y725889D01*
X795989Y725898D01*
X796053Y725944D01*
X796180Y726019D01*
X796223Y726065D01*
X796262Y726093D01*
X796352Y726183D01*
X797581Y727076D01*
X798935Y727766D01*
X800380Y728235D01*
X800609Y728271D01*
X800609Y719836D01*
X800617Y719778D01*
X800615Y719720D01*
X800637Y719638D01*
X800649Y719555D01*
X800673Y719501D01*
X800687Y719445D01*
X800730Y719372D01*
X800765Y719295D01*
X800803Y719251D01*
X800833Y719200D01*
X800894Y719143D01*
X800949Y719078D01*
X800997Y719046D01*
X801040Y719006D01*
X801115Y718967D01*
X801185Y718921D01*
X801241Y718903D01*
X801293Y718876D01*
X801361Y718865D01*
X801456Y718835D01*
X801556Y718832D01*
X801624Y718821D01*
X803656Y718821D01*
X803714Y718829D01*
G37*
%LPC*%
G36*
X765131Y646631D02*
X765131Y646631D01*
X765131Y653745D01*
X766888Y653745D01*
X772245Y648388D01*
X772245Y646631D01*
X765131Y646631D01*
G37*
%LPD*%
%LPC*%
G36*
X765131Y619731D02*
X765131Y619731D01*
X765131Y626845D01*
X766888Y626845D01*
X772245Y621488D01*
X772245Y619731D01*
X765131Y619731D01*
G37*
%LPD*%
%LPC*%
G36*
X753955Y646631D02*
X753955Y646631D01*
X753955Y648388D01*
X759312Y653745D01*
X761069Y653745D01*
X761069Y646631D01*
X753955Y646631D01*
G37*
%LPD*%
%LPC*%
G36*
X753955Y619731D02*
X753955Y619731D01*
X753955Y621488D01*
X759312Y626845D01*
X761069Y626845D01*
X761069Y619731D01*
X753955Y619731D01*
G37*
%LPD*%
%LPC*%
G36*
X765131Y635455D02*
X765131Y635455D01*
X765131Y642569D01*
X772245Y642569D01*
X772245Y640812D01*
X766888Y635455D01*
X765131Y635455D01*
G37*
%LPD*%
%LPC*%
G36*
X765131Y608555D02*
X765131Y608555D01*
X765131Y615669D01*
X772245Y615669D01*
X772245Y613912D01*
X766888Y608555D01*
X765131Y608555D01*
G37*
%LPD*%
%LPC*%
G36*
X759312Y635455D02*
X759312Y635455D01*
X753955Y640812D01*
X753955Y642569D01*
X761069Y642569D01*
X761069Y635455D01*
X759312Y635455D01*
G37*
%LPD*%
%LPC*%
G36*
X759312Y608555D02*
X759312Y608555D01*
X753955Y613912D01*
X753955Y615669D01*
X761069Y615669D01*
X761069Y608555D01*
X759312Y608555D01*
G37*
%LPD*%
%LPC*%
G36*
X763099Y644599D02*
X763099Y644599D01*
X763099Y644601D01*
X763101Y644601D01*
X763101Y644599D01*
X763099Y644599D01*
G37*
%LPD*%
%LPC*%
G36*
X763099Y617699D02*
X763099Y617699D01*
X763099Y617701D01*
X763101Y617701D01*
X763101Y617699D01*
X763099Y617699D01*
G37*
%LPD*%
D10*
X788500Y617700D03*
X763100Y617700D03*
X788500Y644600D03*
X763100Y644600D03*
D11*
X847500Y768000D03*
X828500Y768000D03*
D12*
X890500Y648500D03*
X890500Y667500D03*
D13*
X831250Y679500D03*
X831250Y673000D03*
X831250Y666500D03*
X848750Y679500D03*
X848750Y673000D03*
X848750Y666500D03*
D14*
X873760Y736600D03*
X863600Y718820D03*
X853440Y736600D03*
X843280Y718820D03*
X833120Y736600D03*
X822960Y718820D03*
X812800Y736600D03*
X802640Y718820D03*
D15*
X757174Y727710D03*
X919226Y727710D03*
D16*
X788500Y644000D02*
X788500Y617700D01*
X788500Y644000D02*
X788500Y644600D01*
X831250Y666500D02*
X836500Y666500D01*
X840000Y670000D01*
X836500Y679500D02*
X831250Y679500D01*
X840000Y676000D02*
X840000Y670000D01*
X840000Y676000D02*
X836500Y679500D01*
X831250Y666500D02*
X811000Y666500D01*
X788500Y644000D01*
X778000Y698500D02*
X778000Y730097D01*
X778000Y698500D02*
X810000Y666500D01*
X811000Y666500D01*
X815903Y768000D02*
X828500Y768000D01*
X815903Y768000D02*
X778000Y730097D01*
X873760Y736600D02*
X873760Y753240D01*
X859000Y768000D02*
X847500Y768000D01*
X859000Y768000D02*
X873760Y753240D01*
D17*
X873760Y736600D02*
X890500Y719860D01*
X890500Y667500D01*
D16*
X838558Y749728D02*
X807362Y749728D01*
X851686Y736600D02*
X853440Y736600D01*
X851686Y736600D02*
X838558Y749728D01*
X807362Y749728D02*
X789512Y731878D01*
X789512Y701012D02*
X789500Y701000D01*
X789512Y701012D02*
X789512Y731878D01*
X817500Y673000D02*
X831250Y673000D01*
X817500Y673000D02*
X789500Y701000D01*
X848750Y673000D02*
X863600Y687850D01*
X863600Y718820D01*
X848750Y713350D02*
X848750Y679500D01*
X848750Y713350D02*
X843280Y718820D01*
D17*
X890500Y648500D02*
X890500Y621000D01*
X874500Y621000D01*
D18*
X874500Y621000D03*
D16*
X763100Y617700D02*
X763100Y644600D01*
D17*
X857500Y666500D02*
X858000Y667000D01*
X858000Y664500D01*
X863000Y659500D01*
X849000Y666500D02*
X848750Y666500D01*
X849000Y666500D02*
X857500Y666500D01*
X852500Y662500D02*
X849500Y665500D01*
X852500Y662500D02*
X855000Y662500D01*
X852000Y665500D01*
X851500Y665500D01*
X852000Y665500D02*
X856000Y665500D01*
X857000Y664500D01*
X856500Y664000D01*
X852500Y664000D01*
X851000Y665500D01*
X850500Y665000D01*
X850500Y662000D01*
X850500Y665000D02*
X849000Y666500D01*
D18*
X842500Y621500D03*
D19*
X834000Y794500D03*
M02*
