G04 EAGLE Gerber X2 export*
%TF.Part,Single*%
%TF.FileFunction,Other,Solder side*%
%TF.FilePolarity,Positive*%
%TF.GenerationSoftware,Autodesk,EAGLE,8.6.3*%
%TF.CreationDate,2019-03-20T11:48:21Z*%
G75*
%MOMM*%
%FSLAX34Y34*%
%LPD*%
%AMOC8*
5,1,8,0,0,1.08239X$1,22.5*%
G01*
%ADD10C,1.422400*%
%ADD11P,1.539592X8X22.500000*%
%ADD12C,1.206400*%
%ADD13C,0.756400*%
%ADD14C,0.406400*%

G36*
X566035Y-9536D02*
X566035Y-9536D01*
X566069Y-9538D01*
X566258Y-9516D01*
X566449Y-9499D01*
X566482Y-9490D01*
X566516Y-9486D01*
X566699Y-9431D01*
X566883Y-9381D01*
X566914Y-9366D01*
X566947Y-9356D01*
X567118Y-9269D01*
X567290Y-9187D01*
X567318Y-9167D01*
X567349Y-9152D01*
X567501Y-9036D01*
X567656Y-8925D01*
X567680Y-8901D01*
X567707Y-8880D01*
X567837Y-8739D01*
X567970Y-8603D01*
X567989Y-8574D01*
X568013Y-8548D01*
X568115Y-8387D01*
X568222Y-8230D01*
X568236Y-8198D01*
X568254Y-8169D01*
X568327Y-7992D01*
X568404Y-7818D01*
X568412Y-7784D01*
X568425Y-7752D01*
X568465Y-7565D01*
X568511Y-7380D01*
X568513Y-7346D01*
X568520Y-7312D01*
X568539Y-7000D01*
X568539Y337300D01*
X568536Y337335D01*
X568538Y337369D01*
X568516Y337558D01*
X568499Y337749D01*
X568490Y337782D01*
X568486Y337816D01*
X568431Y337999D01*
X568381Y338183D01*
X568366Y338214D01*
X568356Y338247D01*
X568269Y338418D01*
X568187Y338590D01*
X568167Y338618D01*
X568152Y338649D01*
X568036Y338801D01*
X567925Y338956D01*
X567900Y338980D01*
X567880Y339007D01*
X567739Y339136D01*
X567603Y339270D01*
X567574Y339289D01*
X567548Y339313D01*
X567387Y339415D01*
X567230Y339522D01*
X567198Y339536D01*
X567169Y339554D01*
X566992Y339627D01*
X566818Y339704D01*
X566784Y339712D01*
X566752Y339725D01*
X566565Y339765D01*
X566380Y339811D01*
X566346Y339813D01*
X566312Y339820D01*
X566000Y339839D01*
X-35000Y339839D01*
X-35035Y339836D01*
X-35069Y339838D01*
X-35258Y339816D01*
X-35449Y339799D01*
X-35482Y339790D01*
X-35516Y339786D01*
X-35699Y339731D01*
X-35883Y339681D01*
X-35914Y339666D01*
X-35947Y339656D01*
X-36118Y339569D01*
X-36290Y339487D01*
X-36318Y339467D01*
X-36349Y339452D01*
X-36501Y339336D01*
X-36656Y339225D01*
X-36680Y339200D01*
X-36707Y339180D01*
X-36836Y339040D01*
X-36970Y338903D01*
X-36989Y338874D01*
X-37013Y338848D01*
X-37115Y338687D01*
X-37222Y338530D01*
X-37236Y338498D01*
X-37254Y338469D01*
X-37327Y338292D01*
X-37404Y338118D01*
X-37412Y338084D01*
X-37425Y338052D01*
X-37465Y337865D01*
X-37511Y337680D01*
X-37513Y337646D01*
X-37520Y337612D01*
X-37539Y337300D01*
X-37539Y-7000D01*
X-37536Y-7035D01*
X-37538Y-7069D01*
X-37516Y-7258D01*
X-37499Y-7449D01*
X-37490Y-7482D01*
X-37486Y-7516D01*
X-37431Y-7699D01*
X-37381Y-7883D01*
X-37366Y-7914D01*
X-37356Y-7947D01*
X-37269Y-8118D01*
X-37187Y-8290D01*
X-37167Y-8318D01*
X-37152Y-8349D01*
X-37036Y-8501D01*
X-36925Y-8656D01*
X-36900Y-8680D01*
X-36880Y-8707D01*
X-36740Y-8836D01*
X-36603Y-8970D01*
X-36574Y-8989D01*
X-36548Y-9013D01*
X-36387Y-9115D01*
X-36230Y-9222D01*
X-36198Y-9236D01*
X-36169Y-9254D01*
X-35992Y-9327D01*
X-35818Y-9404D01*
X-35784Y-9412D01*
X-35752Y-9425D01*
X-35565Y-9465D01*
X-35380Y-9511D01*
X-35346Y-9513D01*
X-35312Y-9520D01*
X-35000Y-9539D01*
X566000Y-9539D01*
X566035Y-9536D01*
G37*
%LPC*%
G36*
X153203Y181967D02*
X153203Y181967D01*
X149883Y183342D01*
X131002Y202224D01*
X130876Y202329D01*
X130755Y202441D01*
X130704Y202473D01*
X130657Y202512D01*
X130514Y202594D01*
X130375Y202682D01*
X130319Y202706D01*
X130266Y202736D01*
X130111Y202791D01*
X129959Y202853D01*
X129899Y202866D01*
X129842Y202887D01*
X129679Y202913D01*
X129519Y202948D01*
X129442Y202953D01*
X129397Y202960D01*
X129336Y202959D01*
X129207Y202967D01*
X111203Y202967D01*
X107883Y204342D01*
X105342Y206883D01*
X103967Y210203D01*
X103967Y213797D01*
X105342Y217117D01*
X107883Y219658D01*
X111203Y221033D01*
X135797Y221033D01*
X139117Y219658D01*
X162658Y196117D01*
X164033Y192797D01*
X164033Y189203D01*
X162658Y185883D01*
X160117Y183342D01*
X156797Y181967D01*
X153203Y181967D01*
G37*
%LPD*%
%LPC*%
G36*
X23523Y246963D02*
X23523Y246963D01*
X18463Y252023D01*
X18463Y259177D01*
X23523Y264237D01*
X30677Y264237D01*
X35737Y259177D01*
X35737Y252023D01*
X30677Y246963D01*
X23523Y246963D01*
G37*
%LPD*%
%LPC*%
G36*
X125123Y246963D02*
X125123Y246963D01*
X120063Y252023D01*
X120063Y259177D01*
X125123Y264237D01*
X132277Y264237D01*
X137337Y259177D01*
X137337Y252023D01*
X132277Y246963D01*
X125123Y246963D01*
G37*
%LPD*%
%LPC*%
G36*
X480723Y272363D02*
X480723Y272363D01*
X475663Y277423D01*
X475663Y284577D01*
X480723Y289637D01*
X487877Y289637D01*
X492937Y284577D01*
X492937Y277423D01*
X487877Y272363D01*
X480723Y272363D01*
G37*
%LPD*%
%LPC*%
G36*
X455323Y272363D02*
X455323Y272363D01*
X450263Y277423D01*
X450263Y284577D01*
X455323Y289637D01*
X462477Y289637D01*
X467537Y284577D01*
X467537Y277423D01*
X462477Y272363D01*
X455323Y272363D01*
G37*
%LPD*%
%LPC*%
G36*
X328323Y272363D02*
X328323Y272363D01*
X323263Y277423D01*
X323263Y284577D01*
X328323Y289637D01*
X335477Y289637D01*
X340537Y284577D01*
X340537Y277423D01*
X335477Y272363D01*
X328323Y272363D01*
G37*
%LPD*%
%LPC*%
G36*
X302923Y272363D02*
X302923Y272363D01*
X297863Y277423D01*
X297863Y284577D01*
X302923Y289637D01*
X310077Y289637D01*
X315137Y284577D01*
X315137Y277423D01*
X310077Y272363D01*
X302923Y272363D01*
G37*
%LPD*%
%LPC*%
G36*
X429923Y272363D02*
X429923Y272363D01*
X424863Y277423D01*
X424863Y284577D01*
X429923Y289637D01*
X437077Y289637D01*
X442137Y284577D01*
X442137Y277423D01*
X437077Y272363D01*
X429923Y272363D01*
G37*
%LPD*%
%LPC*%
G36*
X404523Y272363D02*
X404523Y272363D01*
X399463Y277423D01*
X399463Y284577D01*
X404523Y289637D01*
X411677Y289637D01*
X416737Y284577D01*
X416737Y277423D01*
X411677Y272363D01*
X404523Y272363D01*
G37*
%LPD*%
%LPC*%
G36*
X379123Y272363D02*
X379123Y272363D01*
X374063Y277423D01*
X374063Y284577D01*
X379123Y289637D01*
X386277Y289637D01*
X391337Y284577D01*
X391337Y277423D01*
X386277Y272363D01*
X379123Y272363D01*
G37*
%LPD*%
%LPC*%
G36*
X353723Y272363D02*
X353723Y272363D01*
X348663Y277423D01*
X348663Y284577D01*
X353723Y289637D01*
X360877Y289637D01*
X365937Y284577D01*
X365937Y277423D01*
X360877Y272363D01*
X353723Y272363D01*
G37*
%LPD*%
%LPC*%
G36*
X48923Y272363D02*
X48923Y272363D01*
X43863Y277423D01*
X43863Y284577D01*
X48923Y289637D01*
X56077Y289637D01*
X61137Y284577D01*
X61137Y277423D01*
X56077Y272363D01*
X48923Y272363D01*
G37*
%LPD*%
%LPC*%
G36*
X277523Y272363D02*
X277523Y272363D01*
X272463Y277423D01*
X272463Y284577D01*
X277523Y289637D01*
X284677Y289637D01*
X289737Y284577D01*
X289737Y277423D01*
X284677Y272363D01*
X277523Y272363D01*
G37*
%LPD*%
%LPC*%
G36*
X252123Y272363D02*
X252123Y272363D01*
X247063Y277423D01*
X247063Y284577D01*
X252123Y289637D01*
X259277Y289637D01*
X264337Y284577D01*
X264337Y277423D01*
X259277Y272363D01*
X252123Y272363D01*
G37*
%LPD*%
%LPC*%
G36*
X226723Y272363D02*
X226723Y272363D01*
X221663Y277423D01*
X221663Y284577D01*
X226723Y289637D01*
X233877Y289637D01*
X238937Y284577D01*
X238937Y277423D01*
X233877Y272363D01*
X226723Y272363D01*
G37*
%LPD*%
%LPC*%
G36*
X201323Y272363D02*
X201323Y272363D01*
X196263Y277423D01*
X196263Y284577D01*
X201323Y289637D01*
X208477Y289637D01*
X213537Y284577D01*
X213537Y277423D01*
X208477Y272363D01*
X201323Y272363D01*
G37*
%LPD*%
%LPC*%
G36*
X175923Y272363D02*
X175923Y272363D01*
X170863Y277423D01*
X170863Y284577D01*
X175923Y289637D01*
X183077Y289637D01*
X188137Y284577D01*
X188137Y277423D01*
X183077Y272363D01*
X175923Y272363D01*
G37*
%LPD*%
%LPC*%
G36*
X150523Y272363D02*
X150523Y272363D01*
X145463Y277423D01*
X145463Y284577D01*
X150523Y289637D01*
X157677Y289637D01*
X162737Y284577D01*
X162737Y277423D01*
X157677Y272363D01*
X150523Y272363D01*
G37*
%LPD*%
%LPC*%
G36*
X125123Y272363D02*
X125123Y272363D01*
X120063Y277423D01*
X120063Y284577D01*
X125123Y289637D01*
X132277Y289637D01*
X137337Y284577D01*
X137337Y277423D01*
X132277Y272363D01*
X125123Y272363D01*
G37*
%LPD*%
%LPC*%
G36*
X99723Y272363D02*
X99723Y272363D01*
X94663Y277423D01*
X94663Y284577D01*
X99723Y289637D01*
X106877Y289637D01*
X111937Y284577D01*
X111937Y277423D01*
X106877Y272363D01*
X99723Y272363D01*
G37*
%LPD*%
%LPC*%
G36*
X74323Y272363D02*
X74323Y272363D01*
X69263Y277423D01*
X69263Y284577D01*
X74323Y289637D01*
X81477Y289637D01*
X86537Y284577D01*
X86537Y277423D01*
X81477Y272363D01*
X74323Y272363D01*
G37*
%LPD*%
%LPC*%
G36*
X429923Y246963D02*
X429923Y246963D01*
X424863Y252023D01*
X424863Y259177D01*
X429923Y264237D01*
X437077Y264237D01*
X442137Y259177D01*
X442137Y252023D01*
X437077Y246963D01*
X429923Y246963D01*
G37*
%LPD*%
%LPC*%
G36*
X506123Y246963D02*
X506123Y246963D01*
X501063Y252023D01*
X501063Y259177D01*
X506123Y264237D01*
X513277Y264237D01*
X518337Y259177D01*
X518337Y252023D01*
X513277Y246963D01*
X506123Y246963D01*
G37*
%LPD*%
%LPC*%
G36*
X480723Y246963D02*
X480723Y246963D01*
X475663Y252023D01*
X475663Y259177D01*
X480723Y264237D01*
X487877Y264237D01*
X492937Y259177D01*
X492937Y252023D01*
X487877Y246963D01*
X480723Y246963D01*
G37*
%LPD*%
%LPC*%
G36*
X455323Y246963D02*
X455323Y246963D01*
X450263Y252023D01*
X450263Y259177D01*
X455323Y264237D01*
X462477Y264237D01*
X467537Y259177D01*
X467537Y252023D01*
X462477Y246963D01*
X455323Y246963D01*
G37*
%LPD*%
%LPC*%
G36*
X404523Y246963D02*
X404523Y246963D01*
X399463Y252023D01*
X399463Y259177D01*
X404523Y264237D01*
X411677Y264237D01*
X416737Y259177D01*
X416737Y252023D01*
X411677Y246963D01*
X404523Y246963D01*
G37*
%LPD*%
%LPC*%
G36*
X379123Y246963D02*
X379123Y246963D01*
X374063Y252023D01*
X374063Y259177D01*
X379123Y264237D01*
X386277Y264237D01*
X391337Y259177D01*
X391337Y252023D01*
X386277Y246963D01*
X379123Y246963D01*
G37*
%LPD*%
%LPC*%
G36*
X353723Y246963D02*
X353723Y246963D01*
X348663Y252023D01*
X348663Y259177D01*
X353723Y264237D01*
X360877Y264237D01*
X365937Y259177D01*
X365937Y252023D01*
X360877Y246963D01*
X353723Y246963D01*
G37*
%LPD*%
%LPC*%
G36*
X328323Y246963D02*
X328323Y246963D01*
X323263Y252023D01*
X323263Y259177D01*
X328323Y264237D01*
X335477Y264237D01*
X340537Y259177D01*
X340537Y252023D01*
X335477Y246963D01*
X328323Y246963D01*
G37*
%LPD*%
%LPC*%
G36*
X302923Y246963D02*
X302923Y246963D01*
X297863Y252023D01*
X297863Y259177D01*
X302923Y264237D01*
X310077Y264237D01*
X315137Y259177D01*
X315137Y252023D01*
X310077Y246963D01*
X302923Y246963D01*
G37*
%LPD*%
%LPC*%
G36*
X277523Y246963D02*
X277523Y246963D01*
X272463Y252023D01*
X272463Y259177D01*
X277523Y264237D01*
X284677Y264237D01*
X289737Y259177D01*
X289737Y252023D01*
X284677Y246963D01*
X277523Y246963D01*
G37*
%LPD*%
%LPC*%
G36*
X226723Y246963D02*
X226723Y246963D01*
X221663Y252023D01*
X221663Y259177D01*
X226723Y264237D01*
X233877Y264237D01*
X238937Y259177D01*
X238937Y252023D01*
X233877Y246963D01*
X226723Y246963D01*
G37*
%LPD*%
%LPC*%
G36*
X201323Y246963D02*
X201323Y246963D01*
X196263Y252023D01*
X196263Y259177D01*
X201323Y264237D01*
X208477Y264237D01*
X213537Y259177D01*
X213537Y252023D01*
X208477Y246963D01*
X201323Y246963D01*
G37*
%LPD*%
%LPC*%
G36*
X175923Y246963D02*
X175923Y246963D01*
X170863Y252023D01*
X170863Y259177D01*
X175923Y264237D01*
X183077Y264237D01*
X188137Y259177D01*
X188137Y252023D01*
X183077Y246963D01*
X175923Y246963D01*
G37*
%LPD*%
%LPC*%
G36*
X150523Y246963D02*
X150523Y246963D01*
X145463Y252023D01*
X145463Y259177D01*
X150523Y264237D01*
X157677Y264237D01*
X162737Y259177D01*
X162737Y252023D01*
X157677Y246963D01*
X150523Y246963D01*
G37*
%LPD*%
%LPC*%
G36*
X252123Y246963D02*
X252123Y246963D01*
X247063Y252023D01*
X247063Y259177D01*
X252123Y264237D01*
X259277Y264237D01*
X264337Y259177D01*
X264337Y252023D01*
X259277Y246963D01*
X252123Y246963D01*
G37*
%LPD*%
%LPC*%
G36*
X99723Y246963D02*
X99723Y246963D01*
X94663Y252023D01*
X94663Y259177D01*
X99723Y264237D01*
X106877Y264237D01*
X111937Y259177D01*
X111937Y252023D01*
X106877Y246963D01*
X99723Y246963D01*
G37*
%LPD*%
%LPC*%
G36*
X74323Y246963D02*
X74323Y246963D01*
X69263Y252023D01*
X69263Y259177D01*
X74323Y264237D01*
X81477Y264237D01*
X86537Y259177D01*
X86537Y252023D01*
X81477Y246963D01*
X74323Y246963D01*
G37*
%LPD*%
%LPC*%
G36*
X48923Y246963D02*
X48923Y246963D01*
X43863Y252023D01*
X43863Y259177D01*
X48923Y264237D01*
X56077Y264237D01*
X61137Y259177D01*
X61137Y252023D01*
X56077Y246963D01*
X48923Y246963D01*
G37*
%LPD*%
%LPC*%
G36*
X25382Y272363D02*
X25382Y272363D01*
X22208Y273678D01*
X19778Y276108D01*
X18463Y279282D01*
X18463Y282718D01*
X19778Y285892D01*
X22208Y288322D01*
X25382Y289637D01*
X28818Y289637D01*
X31992Y288322D01*
X34422Y285892D01*
X35737Y282718D01*
X35737Y279282D01*
X34422Y276108D01*
X31992Y273678D01*
X28818Y272363D01*
X25382Y272363D01*
G37*
%LPD*%
%LPC*%
G36*
X512239Y283539D02*
X512239Y283539D01*
X512239Y290653D01*
X513698Y290653D01*
X519353Y284998D01*
X519353Y283539D01*
X512239Y283539D01*
G37*
%LPD*%
%LPC*%
G36*
X500047Y283539D02*
X500047Y283539D01*
X500047Y284998D01*
X505702Y290653D01*
X507161Y290653D01*
X507161Y283539D01*
X500047Y283539D01*
G37*
%LPD*%
%LPC*%
G36*
X512239Y271347D02*
X512239Y271347D01*
X512239Y278461D01*
X519353Y278461D01*
X519353Y277002D01*
X513698Y271347D01*
X512239Y271347D01*
G37*
%LPD*%
%LPC*%
G36*
X505702Y271347D02*
X505702Y271347D01*
X500047Y277002D01*
X500047Y278461D01*
X507161Y278461D01*
X507161Y271347D01*
X505702Y271347D01*
G37*
%LPD*%
D10*
X27100Y281000D03*
D11*
X27100Y255600D03*
X52500Y281000D03*
X52500Y255600D03*
X77900Y281000D03*
X77900Y255600D03*
X103300Y281000D03*
X103300Y255600D03*
X128700Y281000D03*
X128700Y255600D03*
X154100Y281000D03*
X154100Y255600D03*
X179500Y281000D03*
X179500Y255600D03*
X204900Y281000D03*
X204900Y255600D03*
X230300Y281000D03*
X230300Y255600D03*
X255700Y281000D03*
X255700Y255600D03*
X281100Y281000D03*
X281100Y255600D03*
X306500Y281000D03*
X306500Y255600D03*
X331900Y281000D03*
X331900Y255600D03*
X357300Y281000D03*
X357300Y255600D03*
X382700Y281000D03*
X382700Y255600D03*
X408100Y281000D03*
X408100Y255600D03*
X433500Y281000D03*
X433500Y255600D03*
X458900Y281000D03*
X458900Y255600D03*
X484300Y281000D03*
X484300Y255600D03*
X509700Y281000D03*
X509700Y255600D03*
D12*
X190000Y56000D03*
D13*
X155000Y191000D03*
D14*
X134000Y212000D01*
X113000Y212000D01*
D13*
X113000Y212000D03*
M02*
