G75*
%MOIN*%
%OFA0B0*%
%FSLAX25Y25*%
%IPPOS*%
%LPD*%
%AMOC8*
5,1,8,0,0,1.08239X$1,22.5*
%
%ADD10C,0.00000*%
%ADD11C,0.00300*%
%ADD12C,0.00600*%
%ADD13C,0.00500*%
%ADD14C,0.00200*%
%ADD15C,0.00787*%
D10*
X0001000Y0001000D02*
X0001000Y0146669D01*
X0249031Y0146669D01*
X0249031Y0001000D01*
X0001000Y0001000D01*
D11*
X0091298Y0044870D02*
X0092090Y0044870D01*
X0091298Y0044870D02*
X0091298Y0047720D01*
X0092090Y0047720D01*
X0092090Y0047721D02*
X0092144Y0047719D01*
X0092198Y0047714D01*
X0092251Y0047704D01*
X0092304Y0047692D01*
X0092355Y0047675D01*
X0092406Y0047655D01*
X0092454Y0047632D01*
X0092502Y0047606D01*
X0092547Y0047576D01*
X0092590Y0047543D01*
X0092631Y0047508D01*
X0092669Y0047470D01*
X0092704Y0047429D01*
X0092737Y0047386D01*
X0092767Y0047341D01*
X0092793Y0047293D01*
X0092816Y0047245D01*
X0092836Y0047194D01*
X0092853Y0047143D01*
X0092865Y0047090D01*
X0092875Y0047037D01*
X0092880Y0046983D01*
X0092882Y0046929D01*
X0092882Y0045662D01*
X0092880Y0045608D01*
X0092875Y0045554D01*
X0092865Y0045501D01*
X0092853Y0045448D01*
X0092836Y0045397D01*
X0092816Y0045346D01*
X0092793Y0045298D01*
X0092767Y0045250D01*
X0092737Y0045205D01*
X0092704Y0045162D01*
X0092669Y0045121D01*
X0092631Y0045083D01*
X0092590Y0045048D01*
X0092547Y0045015D01*
X0092502Y0044985D01*
X0092454Y0044959D01*
X0092406Y0044936D01*
X0092355Y0044916D01*
X0092304Y0044899D01*
X0092251Y0044887D01*
X0092198Y0044877D01*
X0092144Y0044872D01*
X0092090Y0044870D01*
X0094228Y0044870D02*
X0095811Y0044870D01*
X0095019Y0044870D02*
X0095019Y0047720D01*
X0094228Y0047087D01*
X0122087Y0029716D02*
X0122087Y0027299D01*
X0122088Y0027299D02*
X0122090Y0027257D01*
X0122095Y0027215D01*
X0122104Y0027174D01*
X0122117Y0027134D01*
X0122133Y0027095D01*
X0122153Y0027058D01*
X0122175Y0027022D01*
X0122201Y0026989D01*
X0122229Y0026957D01*
X0122261Y0026929D01*
X0122294Y0026903D01*
X0122330Y0026881D01*
X0122367Y0026861D01*
X0122406Y0026845D01*
X0122446Y0026832D01*
X0122487Y0026823D01*
X0122529Y0026818D01*
X0122571Y0026816D01*
X0122732Y0026816D01*
X0123951Y0026816D02*
X0123951Y0028749D01*
X0124918Y0028749D01*
X0124918Y0028427D01*
X0125853Y0028105D02*
X0125853Y0027299D01*
X0125854Y0027299D02*
X0125856Y0027257D01*
X0125861Y0027215D01*
X0125870Y0027174D01*
X0125883Y0027134D01*
X0125899Y0027095D01*
X0125919Y0027058D01*
X0125941Y0027022D01*
X0125967Y0026989D01*
X0125995Y0026957D01*
X0126027Y0026929D01*
X0126060Y0026903D01*
X0126096Y0026881D01*
X0126133Y0026861D01*
X0126172Y0026845D01*
X0126212Y0026832D01*
X0126253Y0026823D01*
X0126295Y0026818D01*
X0126337Y0026816D01*
X0127142Y0026816D01*
X0127142Y0027783D02*
X0125853Y0027783D01*
X0125854Y0028105D02*
X0125856Y0028154D01*
X0125862Y0028203D01*
X0125871Y0028252D01*
X0125884Y0028299D01*
X0125901Y0028346D01*
X0125921Y0028391D01*
X0125944Y0028434D01*
X0125971Y0028476D01*
X0126001Y0028515D01*
X0126034Y0028552D01*
X0126070Y0028586D01*
X0126108Y0028617D01*
X0126148Y0028646D01*
X0126190Y0028671D01*
X0126235Y0028693D01*
X0126280Y0028711D01*
X0126327Y0028726D01*
X0126375Y0028737D01*
X0126424Y0028745D01*
X0126473Y0028749D01*
X0126523Y0028749D01*
X0126572Y0028745D01*
X0126621Y0028737D01*
X0126669Y0028726D01*
X0126716Y0028711D01*
X0126761Y0028693D01*
X0126806Y0028671D01*
X0126848Y0028646D01*
X0126888Y0028617D01*
X0126926Y0028586D01*
X0126962Y0028552D01*
X0126995Y0028515D01*
X0127025Y0028476D01*
X0127052Y0028434D01*
X0127075Y0028391D01*
X0127095Y0028346D01*
X0127112Y0028299D01*
X0127125Y0028252D01*
X0127134Y0028203D01*
X0127140Y0028154D01*
X0127142Y0028105D01*
X0127142Y0027783D01*
X0128591Y0027944D02*
X0129397Y0027622D01*
X0129396Y0027622D02*
X0129433Y0027605D01*
X0129467Y0027585D01*
X0129500Y0027562D01*
X0129530Y0027536D01*
X0129558Y0027507D01*
X0129582Y0027476D01*
X0129604Y0027442D01*
X0129622Y0027406D01*
X0129637Y0027369D01*
X0129648Y0027331D01*
X0129655Y0027291D01*
X0129659Y0027251D01*
X0129658Y0027212D01*
X0129654Y0027172D01*
X0129646Y0027133D01*
X0129635Y0027094D01*
X0129620Y0027057D01*
X0129601Y0027022D01*
X0129579Y0026988D01*
X0129554Y0026957D01*
X0129526Y0026929D01*
X0129496Y0026903D01*
X0129463Y0026880D01*
X0129428Y0026860D01*
X0129392Y0026844D01*
X0129354Y0026831D01*
X0129315Y0026823D01*
X0129275Y0026817D01*
X0129235Y0026816D01*
X0129477Y0028589D02*
X0129401Y0028621D01*
X0129323Y0028650D01*
X0129244Y0028675D01*
X0129163Y0028697D01*
X0129082Y0028715D01*
X0129000Y0028729D01*
X0128918Y0028740D01*
X0128835Y0028747D01*
X0128752Y0028750D01*
X0128712Y0028749D01*
X0128672Y0028743D01*
X0128633Y0028735D01*
X0128595Y0028722D01*
X0128559Y0028706D01*
X0128524Y0028686D01*
X0128491Y0028663D01*
X0128461Y0028637D01*
X0128433Y0028609D01*
X0128408Y0028578D01*
X0128386Y0028544D01*
X0128367Y0028509D01*
X0128352Y0028472D01*
X0128341Y0028433D01*
X0128333Y0028394D01*
X0128329Y0028354D01*
X0128328Y0028315D01*
X0128332Y0028275D01*
X0128339Y0028235D01*
X0128350Y0028197D01*
X0128365Y0028160D01*
X0128383Y0028124D01*
X0128405Y0028090D01*
X0128429Y0028059D01*
X0128457Y0028030D01*
X0128487Y0028004D01*
X0128520Y0027981D01*
X0128554Y0027961D01*
X0128591Y0027944D01*
X0131087Y0027944D02*
X0131892Y0027622D01*
X0131929Y0027605D01*
X0131963Y0027585D01*
X0131996Y0027562D01*
X0132026Y0027536D01*
X0132054Y0027507D01*
X0132078Y0027476D01*
X0132100Y0027442D01*
X0132118Y0027406D01*
X0132133Y0027369D01*
X0132144Y0027331D01*
X0132151Y0027291D01*
X0132155Y0027251D01*
X0132154Y0027212D01*
X0132150Y0027172D01*
X0132142Y0027133D01*
X0132131Y0027094D01*
X0132116Y0027057D01*
X0132097Y0027022D01*
X0132075Y0026988D01*
X0132050Y0026957D01*
X0132022Y0026929D01*
X0131992Y0026903D01*
X0131959Y0026880D01*
X0131924Y0026860D01*
X0131888Y0026844D01*
X0131850Y0026831D01*
X0131811Y0026823D01*
X0131771Y0026817D01*
X0131731Y0026816D01*
X0131973Y0028589D02*
X0131897Y0028621D01*
X0131819Y0028650D01*
X0131740Y0028675D01*
X0131659Y0028697D01*
X0131578Y0028715D01*
X0131496Y0028729D01*
X0131414Y0028740D01*
X0131331Y0028747D01*
X0131248Y0028750D01*
X0131208Y0028749D01*
X0131168Y0028743D01*
X0131129Y0028735D01*
X0131091Y0028722D01*
X0131055Y0028706D01*
X0131020Y0028686D01*
X0130987Y0028663D01*
X0130957Y0028637D01*
X0130929Y0028609D01*
X0130904Y0028578D01*
X0130882Y0028544D01*
X0130863Y0028509D01*
X0130848Y0028472D01*
X0130837Y0028433D01*
X0130829Y0028394D01*
X0130825Y0028354D01*
X0130824Y0028315D01*
X0130828Y0028275D01*
X0130835Y0028235D01*
X0130846Y0028197D01*
X0130861Y0028160D01*
X0130879Y0028124D01*
X0130901Y0028090D01*
X0130925Y0028059D01*
X0130953Y0028030D01*
X0130983Y0028004D01*
X0131016Y0027981D01*
X0131050Y0027961D01*
X0131087Y0027944D01*
X0134899Y0027461D02*
X0134899Y0029072D01*
X0134900Y0029072D02*
X0134902Y0029123D01*
X0134908Y0029173D01*
X0134918Y0029222D01*
X0134932Y0029271D01*
X0134949Y0029318D01*
X0134970Y0029364D01*
X0134995Y0029408D01*
X0135023Y0029451D01*
X0135054Y0029490D01*
X0135089Y0029527D01*
X0135126Y0029562D01*
X0135165Y0029593D01*
X0135208Y0029621D01*
X0135252Y0029646D01*
X0135298Y0029667D01*
X0135345Y0029684D01*
X0135394Y0029698D01*
X0135443Y0029708D01*
X0135493Y0029714D01*
X0135544Y0029716D01*
X0136188Y0029716D01*
X0137277Y0028105D02*
X0137277Y0027461D01*
X0137278Y0027461D02*
X0137280Y0027412D01*
X0137286Y0027363D01*
X0137295Y0027314D01*
X0137308Y0027267D01*
X0137325Y0027220D01*
X0137345Y0027175D01*
X0137368Y0027132D01*
X0137395Y0027090D01*
X0137425Y0027051D01*
X0137458Y0027014D01*
X0137494Y0026980D01*
X0137532Y0026949D01*
X0137572Y0026920D01*
X0137614Y0026895D01*
X0137659Y0026873D01*
X0137704Y0026855D01*
X0137751Y0026840D01*
X0137799Y0026829D01*
X0137848Y0026821D01*
X0137897Y0026817D01*
X0137947Y0026817D01*
X0137996Y0026821D01*
X0138045Y0026829D01*
X0138093Y0026840D01*
X0138140Y0026855D01*
X0138185Y0026873D01*
X0138230Y0026895D01*
X0138272Y0026920D01*
X0138312Y0026949D01*
X0138350Y0026980D01*
X0138386Y0027014D01*
X0138419Y0027051D01*
X0138449Y0027090D01*
X0138476Y0027132D01*
X0138499Y0027175D01*
X0138519Y0027220D01*
X0138536Y0027267D01*
X0138549Y0027314D01*
X0138558Y0027363D01*
X0138564Y0027412D01*
X0138566Y0027461D01*
X0138566Y0028105D01*
X0138564Y0028154D01*
X0138558Y0028203D01*
X0138549Y0028252D01*
X0138536Y0028299D01*
X0138519Y0028346D01*
X0138499Y0028391D01*
X0138476Y0028434D01*
X0138449Y0028476D01*
X0138419Y0028515D01*
X0138386Y0028552D01*
X0138350Y0028586D01*
X0138312Y0028617D01*
X0138272Y0028646D01*
X0138230Y0028671D01*
X0138185Y0028693D01*
X0138140Y0028711D01*
X0138093Y0028726D01*
X0138045Y0028737D01*
X0137996Y0028745D01*
X0137947Y0028749D01*
X0137897Y0028749D01*
X0137848Y0028745D01*
X0137799Y0028737D01*
X0137751Y0028726D01*
X0137704Y0028711D01*
X0137659Y0028693D01*
X0137614Y0028671D01*
X0137572Y0028646D01*
X0137532Y0028617D01*
X0137494Y0028586D01*
X0137458Y0028552D01*
X0137425Y0028515D01*
X0137395Y0028476D01*
X0137368Y0028434D01*
X0137345Y0028391D01*
X0137325Y0028346D01*
X0137308Y0028299D01*
X0137295Y0028252D01*
X0137286Y0028203D01*
X0137280Y0028154D01*
X0137278Y0028105D01*
X0136188Y0026816D02*
X0135544Y0026816D01*
X0135544Y0026817D02*
X0135496Y0026819D01*
X0135448Y0026824D01*
X0135401Y0026833D01*
X0135354Y0026846D01*
X0135309Y0026862D01*
X0135265Y0026881D01*
X0135222Y0026903D01*
X0135181Y0026929D01*
X0135142Y0026958D01*
X0135106Y0026989D01*
X0135072Y0027023D01*
X0135041Y0027059D01*
X0135012Y0027098D01*
X0134986Y0027139D01*
X0134964Y0027182D01*
X0134945Y0027226D01*
X0134929Y0027271D01*
X0134916Y0027318D01*
X0134907Y0027365D01*
X0134902Y0027413D01*
X0134900Y0027461D01*
X0131731Y0026816D02*
X0131631Y0026820D01*
X0131530Y0026827D01*
X0131430Y0026837D01*
X0131331Y0026852D01*
X0131232Y0026870D01*
X0131134Y0026891D01*
X0131036Y0026916D01*
X0130940Y0026945D01*
X0130845Y0026977D01*
X0129235Y0026816D02*
X0129135Y0026820D01*
X0129034Y0026827D01*
X0128934Y0026837D01*
X0128835Y0026852D01*
X0128736Y0026870D01*
X0128638Y0026891D01*
X0128540Y0026916D01*
X0128444Y0026945D01*
X0128349Y0026977D01*
X0122732Y0028749D02*
X0121765Y0028749D01*
X0120549Y0028024D02*
X0119663Y0028508D01*
X0119985Y0029716D02*
X0120050Y0029714D01*
X0120114Y0029709D01*
X0120179Y0029700D01*
X0120242Y0029688D01*
X0120305Y0029673D01*
X0120367Y0029654D01*
X0120428Y0029632D01*
X0120487Y0029607D01*
X0120546Y0029578D01*
X0120602Y0029546D01*
X0120657Y0029512D01*
X0120710Y0029474D01*
X0119662Y0028508D02*
X0119622Y0028534D01*
X0119583Y0028563D01*
X0119546Y0028595D01*
X0119512Y0028630D01*
X0119481Y0028667D01*
X0119452Y0028706D01*
X0119426Y0028747D01*
X0119404Y0028790D01*
X0119385Y0028835D01*
X0119369Y0028881D01*
X0119356Y0028927D01*
X0119347Y0028975D01*
X0119342Y0029023D01*
X0119340Y0029072D01*
X0119341Y0029072D02*
X0119343Y0029120D01*
X0119348Y0029168D01*
X0119357Y0029215D01*
X0119370Y0029262D01*
X0119386Y0029307D01*
X0119405Y0029351D01*
X0119427Y0029394D01*
X0119453Y0029435D01*
X0119482Y0029474D01*
X0119513Y0029510D01*
X0119547Y0029544D01*
X0119583Y0029576D01*
X0119622Y0029604D01*
X0119663Y0029630D01*
X0119706Y0029652D01*
X0119750Y0029671D01*
X0119795Y0029687D01*
X0119842Y0029700D01*
X0119889Y0029709D01*
X0119937Y0029714D01*
X0119985Y0029716D01*
X0119261Y0027220D02*
X0119312Y0027170D01*
X0119367Y0027123D01*
X0119423Y0027080D01*
X0119482Y0027039D01*
X0119543Y0027001D01*
X0119606Y0026967D01*
X0119671Y0026936D01*
X0119737Y0026908D01*
X0119804Y0026884D01*
X0119873Y0026864D01*
X0119943Y0026847D01*
X0120013Y0026834D01*
X0120084Y0026825D01*
X0120155Y0026819D01*
X0120227Y0026817D01*
X0120275Y0026819D01*
X0120323Y0026824D01*
X0120370Y0026833D01*
X0120417Y0026846D01*
X0120462Y0026862D01*
X0120506Y0026881D01*
X0120549Y0026903D01*
X0120590Y0026929D01*
X0120629Y0026958D01*
X0120665Y0026989D01*
X0120699Y0027023D01*
X0120730Y0027059D01*
X0120759Y0027098D01*
X0120785Y0027139D01*
X0120807Y0027182D01*
X0120826Y0027226D01*
X0120842Y0027271D01*
X0120855Y0027318D01*
X0120864Y0027365D01*
X0120869Y0027413D01*
X0120871Y0027461D01*
X0120872Y0027461D02*
X0120870Y0027510D01*
X0120865Y0027558D01*
X0120856Y0027606D01*
X0120843Y0027652D01*
X0120827Y0027698D01*
X0120808Y0027743D01*
X0120786Y0027786D01*
X0120760Y0027827D01*
X0120731Y0027866D01*
X0120700Y0027903D01*
X0120666Y0027938D01*
X0120629Y0027970D01*
X0120590Y0027999D01*
X0120550Y0028025D01*
X0139869Y0028749D02*
X0139869Y0026816D01*
X0141158Y0026816D02*
X0141158Y0028266D01*
X0141156Y0028308D01*
X0141151Y0028350D01*
X0141142Y0028391D01*
X0141129Y0028431D01*
X0141113Y0028470D01*
X0141093Y0028508D01*
X0141071Y0028543D01*
X0141045Y0028576D01*
X0141017Y0028608D01*
X0140985Y0028636D01*
X0140952Y0028662D01*
X0140917Y0028684D01*
X0140879Y0028704D01*
X0140840Y0028720D01*
X0140800Y0028733D01*
X0140759Y0028742D01*
X0140717Y0028747D01*
X0140675Y0028749D01*
X0139869Y0028749D01*
X0142213Y0028749D02*
X0143180Y0028749D01*
X0142535Y0029716D02*
X0142535Y0027299D01*
X0142536Y0027299D02*
X0142538Y0027257D01*
X0142543Y0027215D01*
X0142552Y0027174D01*
X0142565Y0027134D01*
X0142581Y0027095D01*
X0142601Y0027058D01*
X0142623Y0027022D01*
X0142649Y0026989D01*
X0142677Y0026957D01*
X0142709Y0026929D01*
X0142742Y0026903D01*
X0142778Y0026881D01*
X0142815Y0026861D01*
X0142854Y0026845D01*
X0142894Y0026832D01*
X0142935Y0026823D01*
X0142977Y0026818D01*
X0143019Y0026816D01*
X0143180Y0026816D01*
X0144399Y0026816D02*
X0144399Y0028749D01*
X0145366Y0028749D01*
X0145366Y0028427D01*
X0146301Y0028105D02*
X0146301Y0027461D01*
X0146302Y0027461D02*
X0146304Y0027412D01*
X0146310Y0027363D01*
X0146319Y0027314D01*
X0146332Y0027267D01*
X0146349Y0027220D01*
X0146369Y0027175D01*
X0146392Y0027132D01*
X0146419Y0027090D01*
X0146449Y0027051D01*
X0146482Y0027014D01*
X0146518Y0026980D01*
X0146556Y0026949D01*
X0146596Y0026920D01*
X0146638Y0026895D01*
X0146683Y0026873D01*
X0146728Y0026855D01*
X0146775Y0026840D01*
X0146823Y0026829D01*
X0146872Y0026821D01*
X0146921Y0026817D01*
X0146971Y0026817D01*
X0147020Y0026821D01*
X0147069Y0026829D01*
X0147117Y0026840D01*
X0147164Y0026855D01*
X0147209Y0026873D01*
X0147254Y0026895D01*
X0147296Y0026920D01*
X0147336Y0026949D01*
X0147374Y0026980D01*
X0147410Y0027014D01*
X0147443Y0027051D01*
X0147473Y0027090D01*
X0147500Y0027132D01*
X0147523Y0027175D01*
X0147543Y0027220D01*
X0147560Y0027267D01*
X0147573Y0027314D01*
X0147582Y0027363D01*
X0147588Y0027412D01*
X0147590Y0027461D01*
X0147590Y0028105D01*
X0147588Y0028154D01*
X0147582Y0028203D01*
X0147573Y0028252D01*
X0147560Y0028299D01*
X0147543Y0028346D01*
X0147523Y0028391D01*
X0147500Y0028434D01*
X0147473Y0028476D01*
X0147443Y0028515D01*
X0147410Y0028552D01*
X0147374Y0028586D01*
X0147336Y0028617D01*
X0147296Y0028646D01*
X0147254Y0028671D01*
X0147209Y0028693D01*
X0147164Y0028711D01*
X0147117Y0028726D01*
X0147069Y0028737D01*
X0147020Y0028745D01*
X0146971Y0028749D01*
X0146921Y0028749D01*
X0146872Y0028745D01*
X0146823Y0028737D01*
X0146775Y0028726D01*
X0146728Y0028711D01*
X0146683Y0028693D01*
X0146638Y0028671D01*
X0146596Y0028646D01*
X0146556Y0028617D01*
X0146518Y0028586D01*
X0146482Y0028552D01*
X0146449Y0028515D01*
X0146419Y0028476D01*
X0146392Y0028434D01*
X0146369Y0028391D01*
X0146349Y0028346D01*
X0146332Y0028299D01*
X0146319Y0028252D01*
X0146310Y0028203D01*
X0146304Y0028154D01*
X0146302Y0028105D01*
X0148830Y0027299D02*
X0148830Y0029716D01*
X0150366Y0029716D02*
X0150366Y0027299D01*
X0150368Y0027257D01*
X0150373Y0027215D01*
X0150382Y0027174D01*
X0150395Y0027134D01*
X0150411Y0027095D01*
X0150431Y0027058D01*
X0150453Y0027022D01*
X0150479Y0026989D01*
X0150507Y0026957D01*
X0150539Y0026929D01*
X0150572Y0026903D01*
X0150608Y0026881D01*
X0150645Y0026861D01*
X0150684Y0026845D01*
X0150724Y0026832D01*
X0150765Y0026823D01*
X0150807Y0026818D01*
X0150849Y0026816D01*
X0151869Y0027299D02*
X0151869Y0028105D01*
X0151869Y0027783D02*
X0153158Y0027783D01*
X0153158Y0028105D01*
X0153156Y0028154D01*
X0153150Y0028203D01*
X0153141Y0028252D01*
X0153128Y0028299D01*
X0153111Y0028346D01*
X0153091Y0028391D01*
X0153068Y0028434D01*
X0153041Y0028476D01*
X0153011Y0028515D01*
X0152978Y0028552D01*
X0152942Y0028586D01*
X0152904Y0028617D01*
X0152864Y0028646D01*
X0152822Y0028671D01*
X0152777Y0028693D01*
X0152732Y0028711D01*
X0152685Y0028726D01*
X0152637Y0028737D01*
X0152588Y0028745D01*
X0152539Y0028749D01*
X0152489Y0028749D01*
X0152440Y0028745D01*
X0152391Y0028737D01*
X0152343Y0028726D01*
X0152296Y0028711D01*
X0152251Y0028693D01*
X0152206Y0028671D01*
X0152164Y0028646D01*
X0152124Y0028617D01*
X0152086Y0028586D01*
X0152050Y0028552D01*
X0152017Y0028515D01*
X0151987Y0028476D01*
X0151960Y0028434D01*
X0151937Y0028391D01*
X0151917Y0028346D01*
X0151900Y0028299D01*
X0151887Y0028252D01*
X0151878Y0028203D01*
X0151872Y0028154D01*
X0151870Y0028105D01*
X0151869Y0027299D02*
X0151871Y0027257D01*
X0151876Y0027215D01*
X0151885Y0027174D01*
X0151898Y0027134D01*
X0151914Y0027095D01*
X0151934Y0027058D01*
X0151956Y0027022D01*
X0151982Y0026989D01*
X0152010Y0026957D01*
X0152042Y0026929D01*
X0152075Y0026903D01*
X0152111Y0026881D01*
X0152148Y0026861D01*
X0152187Y0026845D01*
X0152227Y0026832D01*
X0152268Y0026823D01*
X0152310Y0026818D01*
X0152352Y0026816D01*
X0153158Y0026816D01*
X0154479Y0026816D02*
X0154479Y0028749D01*
X0155446Y0028749D01*
X0155446Y0028427D01*
X0158255Y0028508D02*
X0159141Y0028024D01*
X0158819Y0026817D02*
X0158747Y0026819D01*
X0158676Y0026825D01*
X0158605Y0026834D01*
X0158535Y0026847D01*
X0158465Y0026864D01*
X0158396Y0026884D01*
X0158329Y0026908D01*
X0158263Y0026936D01*
X0158198Y0026967D01*
X0158135Y0027001D01*
X0158074Y0027039D01*
X0158015Y0027080D01*
X0157959Y0027123D01*
X0157904Y0027170D01*
X0157853Y0027220D01*
X0159142Y0028025D02*
X0159182Y0027999D01*
X0159221Y0027970D01*
X0159258Y0027938D01*
X0159292Y0027903D01*
X0159323Y0027866D01*
X0159352Y0027827D01*
X0159378Y0027786D01*
X0159400Y0027743D01*
X0159419Y0027698D01*
X0159435Y0027652D01*
X0159448Y0027606D01*
X0159457Y0027558D01*
X0159462Y0027510D01*
X0159464Y0027461D01*
X0159463Y0027461D02*
X0159461Y0027413D01*
X0159456Y0027365D01*
X0159447Y0027318D01*
X0159434Y0027271D01*
X0159418Y0027226D01*
X0159399Y0027182D01*
X0159377Y0027139D01*
X0159351Y0027098D01*
X0159322Y0027059D01*
X0159291Y0027023D01*
X0159257Y0026989D01*
X0159221Y0026958D01*
X0159182Y0026929D01*
X0159141Y0026903D01*
X0159098Y0026881D01*
X0159054Y0026862D01*
X0159009Y0026846D01*
X0158962Y0026833D01*
X0158915Y0026824D01*
X0158867Y0026819D01*
X0158819Y0026817D01*
X0159302Y0029474D02*
X0159249Y0029512D01*
X0159194Y0029546D01*
X0159138Y0029578D01*
X0159079Y0029607D01*
X0159020Y0029632D01*
X0158959Y0029654D01*
X0158897Y0029673D01*
X0158834Y0029688D01*
X0158771Y0029700D01*
X0158706Y0029709D01*
X0158642Y0029714D01*
X0158577Y0029716D01*
X0158529Y0029714D01*
X0158481Y0029709D01*
X0158434Y0029700D01*
X0158387Y0029687D01*
X0158342Y0029671D01*
X0158298Y0029652D01*
X0158255Y0029630D01*
X0158214Y0029604D01*
X0158175Y0029576D01*
X0158139Y0029544D01*
X0158105Y0029510D01*
X0158074Y0029474D01*
X0158045Y0029435D01*
X0158019Y0029394D01*
X0157997Y0029351D01*
X0157978Y0029307D01*
X0157962Y0029262D01*
X0157949Y0029215D01*
X0157940Y0029168D01*
X0157935Y0029120D01*
X0157933Y0029072D01*
X0157932Y0029072D02*
X0157934Y0029023D01*
X0157939Y0028975D01*
X0157948Y0028927D01*
X0157961Y0028881D01*
X0157977Y0028835D01*
X0157996Y0028790D01*
X0158018Y0028747D01*
X0158044Y0028706D01*
X0158073Y0028667D01*
X0158104Y0028630D01*
X0158138Y0028595D01*
X0158175Y0028563D01*
X0158214Y0028534D01*
X0158254Y0028508D01*
X0160701Y0028749D02*
X0161507Y0028749D01*
X0161549Y0028747D01*
X0161591Y0028742D01*
X0161632Y0028733D01*
X0161672Y0028720D01*
X0161711Y0028704D01*
X0161749Y0028684D01*
X0161784Y0028662D01*
X0161817Y0028636D01*
X0161849Y0028608D01*
X0161877Y0028576D01*
X0161903Y0028543D01*
X0161925Y0028508D01*
X0161945Y0028470D01*
X0161961Y0028431D01*
X0161974Y0028391D01*
X0161983Y0028350D01*
X0161988Y0028308D01*
X0161990Y0028266D01*
X0161990Y0026816D01*
X0163266Y0026816D02*
X0163266Y0028749D01*
X0163346Y0029555D02*
X0163185Y0029555D01*
X0163185Y0029716D01*
X0163346Y0029716D01*
X0163346Y0029555D01*
X0164445Y0028105D02*
X0164445Y0027299D01*
X0164447Y0027257D01*
X0164452Y0027215D01*
X0164461Y0027174D01*
X0164474Y0027134D01*
X0164490Y0027095D01*
X0164510Y0027058D01*
X0164532Y0027022D01*
X0164558Y0026989D01*
X0164586Y0026957D01*
X0164618Y0026929D01*
X0164651Y0026903D01*
X0164687Y0026881D01*
X0164724Y0026861D01*
X0164763Y0026845D01*
X0164803Y0026832D01*
X0164844Y0026823D01*
X0164886Y0026818D01*
X0164928Y0026816D01*
X0165734Y0026816D01*
X0165734Y0027783D02*
X0164445Y0027783D01*
X0164446Y0028105D02*
X0164448Y0028154D01*
X0164454Y0028203D01*
X0164463Y0028252D01*
X0164476Y0028299D01*
X0164493Y0028346D01*
X0164513Y0028391D01*
X0164536Y0028434D01*
X0164563Y0028476D01*
X0164593Y0028515D01*
X0164626Y0028552D01*
X0164662Y0028586D01*
X0164700Y0028617D01*
X0164740Y0028646D01*
X0164782Y0028671D01*
X0164827Y0028693D01*
X0164872Y0028711D01*
X0164919Y0028726D01*
X0164967Y0028737D01*
X0165016Y0028745D01*
X0165065Y0028749D01*
X0165115Y0028749D01*
X0165164Y0028745D01*
X0165213Y0028737D01*
X0165261Y0028726D01*
X0165308Y0028711D01*
X0165353Y0028693D01*
X0165398Y0028671D01*
X0165440Y0028646D01*
X0165480Y0028617D01*
X0165518Y0028586D01*
X0165554Y0028552D01*
X0165587Y0028515D01*
X0165617Y0028476D01*
X0165644Y0028434D01*
X0165667Y0028391D01*
X0165687Y0028346D01*
X0165704Y0028299D01*
X0165717Y0028252D01*
X0165726Y0028203D01*
X0165732Y0028154D01*
X0165734Y0028105D01*
X0165734Y0027783D01*
X0166974Y0027299D02*
X0166974Y0029716D01*
X0168461Y0028266D02*
X0168461Y0027299D01*
X0168463Y0027257D01*
X0168468Y0027215D01*
X0168477Y0027174D01*
X0168490Y0027134D01*
X0168506Y0027095D01*
X0168526Y0027058D01*
X0168548Y0027022D01*
X0168574Y0026989D01*
X0168602Y0026957D01*
X0168634Y0026929D01*
X0168667Y0026903D01*
X0168703Y0026881D01*
X0168740Y0026861D01*
X0168779Y0026845D01*
X0168819Y0026832D01*
X0168860Y0026823D01*
X0168902Y0026818D01*
X0168944Y0026816D01*
X0169750Y0026816D01*
X0169750Y0029716D01*
X0169750Y0028749D02*
X0168944Y0028749D01*
X0168902Y0028747D01*
X0168860Y0028742D01*
X0168819Y0028733D01*
X0168779Y0028720D01*
X0168740Y0028704D01*
X0168703Y0028684D01*
X0168667Y0028662D01*
X0168634Y0028636D01*
X0168602Y0028608D01*
X0168574Y0028576D01*
X0168548Y0028543D01*
X0168526Y0028508D01*
X0168506Y0028470D01*
X0168490Y0028431D01*
X0168477Y0028391D01*
X0168468Y0028350D01*
X0168463Y0028308D01*
X0168461Y0028266D01*
X0167457Y0026816D02*
X0167415Y0026818D01*
X0167373Y0026823D01*
X0167332Y0026832D01*
X0167292Y0026845D01*
X0167253Y0026861D01*
X0167216Y0026881D01*
X0167180Y0026903D01*
X0167147Y0026929D01*
X0167115Y0026957D01*
X0167087Y0026989D01*
X0167061Y0027022D01*
X0167039Y0027058D01*
X0167019Y0027095D01*
X0167003Y0027134D01*
X0166990Y0027174D01*
X0166981Y0027215D01*
X0166976Y0027257D01*
X0166974Y0027299D01*
X0160701Y0026816D02*
X0160701Y0029716D01*
X0149313Y0026816D02*
X0149271Y0026818D01*
X0149229Y0026823D01*
X0149188Y0026832D01*
X0149148Y0026845D01*
X0149109Y0026861D01*
X0149072Y0026881D01*
X0149036Y0026903D01*
X0149003Y0026929D01*
X0148971Y0026957D01*
X0148943Y0026989D01*
X0148917Y0027022D01*
X0148895Y0027058D01*
X0148875Y0027095D01*
X0148859Y0027134D01*
X0148846Y0027174D01*
X0148837Y0027215D01*
X0148832Y0027257D01*
X0148830Y0027299D01*
X0172778Y0026816D02*
X0172778Y0029716D01*
X0173584Y0029716D01*
X0173633Y0029714D01*
X0173682Y0029708D01*
X0173731Y0029699D01*
X0173778Y0029686D01*
X0173825Y0029669D01*
X0173870Y0029649D01*
X0173913Y0029626D01*
X0173955Y0029599D01*
X0173994Y0029569D01*
X0174031Y0029536D01*
X0174065Y0029500D01*
X0174096Y0029462D01*
X0174125Y0029422D01*
X0174150Y0029380D01*
X0174172Y0029335D01*
X0174190Y0029290D01*
X0174205Y0029243D01*
X0174216Y0029195D01*
X0174224Y0029146D01*
X0174228Y0029097D01*
X0174228Y0029047D01*
X0174224Y0028998D01*
X0174216Y0028949D01*
X0174205Y0028901D01*
X0174190Y0028854D01*
X0174172Y0028809D01*
X0174150Y0028764D01*
X0174125Y0028722D01*
X0174096Y0028682D01*
X0174065Y0028644D01*
X0174031Y0028608D01*
X0173994Y0028575D01*
X0173955Y0028545D01*
X0173913Y0028518D01*
X0173870Y0028495D01*
X0173825Y0028475D01*
X0173778Y0028458D01*
X0173731Y0028445D01*
X0173682Y0028436D01*
X0173633Y0028430D01*
X0173584Y0028428D01*
X0173584Y0028427D02*
X0172778Y0028427D01*
X0173584Y0028428D02*
X0173639Y0028426D01*
X0173694Y0028420D01*
X0173748Y0028411D01*
X0173801Y0028398D01*
X0173854Y0028381D01*
X0173905Y0028361D01*
X0173955Y0028338D01*
X0174003Y0028311D01*
X0174049Y0028280D01*
X0174093Y0028247D01*
X0174134Y0028211D01*
X0174173Y0028172D01*
X0174209Y0028131D01*
X0174242Y0028087D01*
X0174273Y0028041D01*
X0174300Y0027993D01*
X0174323Y0027943D01*
X0174343Y0027892D01*
X0174360Y0027839D01*
X0174373Y0027786D01*
X0174382Y0027732D01*
X0174388Y0027677D01*
X0174390Y0027622D01*
X0174388Y0027567D01*
X0174382Y0027512D01*
X0174373Y0027458D01*
X0174360Y0027405D01*
X0174343Y0027352D01*
X0174323Y0027301D01*
X0174300Y0027251D01*
X0174273Y0027203D01*
X0174242Y0027157D01*
X0174209Y0027113D01*
X0174173Y0027072D01*
X0174134Y0027033D01*
X0174093Y0026997D01*
X0174049Y0026964D01*
X0174003Y0026933D01*
X0173955Y0026906D01*
X0173905Y0026883D01*
X0173854Y0026863D01*
X0173801Y0026846D01*
X0173748Y0026833D01*
X0173694Y0026824D01*
X0173639Y0026818D01*
X0173584Y0026816D01*
X0172778Y0026816D01*
X0175485Y0027461D02*
X0175485Y0028105D01*
X0175486Y0028105D02*
X0175488Y0028154D01*
X0175494Y0028203D01*
X0175503Y0028252D01*
X0175516Y0028299D01*
X0175533Y0028346D01*
X0175553Y0028391D01*
X0175576Y0028434D01*
X0175603Y0028476D01*
X0175633Y0028515D01*
X0175666Y0028552D01*
X0175702Y0028586D01*
X0175740Y0028617D01*
X0175780Y0028646D01*
X0175822Y0028671D01*
X0175867Y0028693D01*
X0175912Y0028711D01*
X0175959Y0028726D01*
X0176007Y0028737D01*
X0176056Y0028745D01*
X0176105Y0028749D01*
X0176155Y0028749D01*
X0176204Y0028745D01*
X0176253Y0028737D01*
X0176301Y0028726D01*
X0176348Y0028711D01*
X0176393Y0028693D01*
X0176438Y0028671D01*
X0176480Y0028646D01*
X0176520Y0028617D01*
X0176558Y0028586D01*
X0176594Y0028552D01*
X0176627Y0028515D01*
X0176657Y0028476D01*
X0176684Y0028434D01*
X0176707Y0028391D01*
X0176727Y0028346D01*
X0176744Y0028299D01*
X0176757Y0028252D01*
X0176766Y0028203D01*
X0176772Y0028154D01*
X0176774Y0028105D01*
X0176774Y0027461D01*
X0176772Y0027412D01*
X0176766Y0027363D01*
X0176757Y0027314D01*
X0176744Y0027267D01*
X0176727Y0027220D01*
X0176707Y0027175D01*
X0176684Y0027132D01*
X0176657Y0027090D01*
X0176627Y0027051D01*
X0176594Y0027014D01*
X0176558Y0026980D01*
X0176520Y0026949D01*
X0176480Y0026920D01*
X0176438Y0026895D01*
X0176393Y0026873D01*
X0176348Y0026855D01*
X0176301Y0026840D01*
X0176253Y0026829D01*
X0176204Y0026821D01*
X0176155Y0026817D01*
X0176105Y0026817D01*
X0176056Y0026821D01*
X0176007Y0026829D01*
X0175959Y0026840D01*
X0175912Y0026855D01*
X0175867Y0026873D01*
X0175822Y0026895D01*
X0175780Y0026920D01*
X0175740Y0026949D01*
X0175702Y0026980D01*
X0175666Y0027014D01*
X0175633Y0027051D01*
X0175603Y0027090D01*
X0175576Y0027132D01*
X0175553Y0027175D01*
X0175533Y0027220D01*
X0175516Y0027267D01*
X0175503Y0027314D01*
X0175494Y0027363D01*
X0175488Y0027412D01*
X0175486Y0027461D01*
X0178126Y0028749D02*
X0178770Y0028749D01*
X0178812Y0028747D01*
X0178854Y0028742D01*
X0178895Y0028733D01*
X0178935Y0028720D01*
X0178974Y0028704D01*
X0179012Y0028684D01*
X0179047Y0028662D01*
X0179080Y0028636D01*
X0179112Y0028608D01*
X0179140Y0028576D01*
X0179166Y0028543D01*
X0179188Y0028508D01*
X0179208Y0028470D01*
X0179224Y0028431D01*
X0179237Y0028391D01*
X0179246Y0028350D01*
X0179251Y0028308D01*
X0179253Y0028266D01*
X0179254Y0028266D02*
X0179254Y0026816D01*
X0178529Y0026816D01*
X0178482Y0026818D01*
X0178436Y0026824D01*
X0178391Y0026833D01*
X0178346Y0026847D01*
X0178302Y0026864D01*
X0178261Y0026884D01*
X0178221Y0026908D01*
X0178183Y0026935D01*
X0178147Y0026965D01*
X0178114Y0026998D01*
X0178084Y0027034D01*
X0178057Y0027072D01*
X0178033Y0027112D01*
X0178013Y0027153D01*
X0177996Y0027197D01*
X0177982Y0027242D01*
X0177973Y0027287D01*
X0177967Y0027333D01*
X0177965Y0027380D01*
X0177967Y0027427D01*
X0177973Y0027473D01*
X0177982Y0027518D01*
X0177996Y0027563D01*
X0178013Y0027607D01*
X0178033Y0027648D01*
X0178057Y0027688D01*
X0178084Y0027726D01*
X0178114Y0027762D01*
X0178147Y0027795D01*
X0178183Y0027825D01*
X0178221Y0027852D01*
X0178261Y0027876D01*
X0178302Y0027896D01*
X0178346Y0027913D01*
X0178391Y0027927D01*
X0178436Y0027936D01*
X0178482Y0027942D01*
X0178529Y0027944D01*
X0179254Y0027944D01*
X0180687Y0028749D02*
X0181654Y0028749D01*
X0181654Y0028427D01*
X0182573Y0028266D02*
X0182573Y0027299D01*
X0182575Y0027257D01*
X0182580Y0027215D01*
X0182589Y0027174D01*
X0182602Y0027134D01*
X0182618Y0027095D01*
X0182638Y0027058D01*
X0182660Y0027022D01*
X0182686Y0026989D01*
X0182714Y0026957D01*
X0182746Y0026929D01*
X0182779Y0026903D01*
X0182815Y0026881D01*
X0182852Y0026861D01*
X0182891Y0026845D01*
X0182931Y0026832D01*
X0182972Y0026823D01*
X0183014Y0026818D01*
X0183056Y0026816D01*
X0183862Y0026816D01*
X0183862Y0029716D01*
X0183862Y0028749D02*
X0183056Y0028749D01*
X0183014Y0028747D01*
X0182972Y0028742D01*
X0182931Y0028733D01*
X0182891Y0028720D01*
X0182852Y0028704D01*
X0182815Y0028684D01*
X0182779Y0028662D01*
X0182746Y0028636D01*
X0182714Y0028608D01*
X0182686Y0028576D01*
X0182660Y0028543D01*
X0182638Y0028508D01*
X0182618Y0028470D01*
X0182602Y0028431D01*
X0182589Y0028391D01*
X0182580Y0028350D01*
X0182575Y0028308D01*
X0182573Y0028266D01*
X0180687Y0028749D02*
X0180687Y0026816D01*
X0186621Y0028749D02*
X0187265Y0026816D01*
X0187910Y0028749D01*
X0189052Y0029072D02*
X0189857Y0029716D01*
X0189857Y0026816D01*
X0189052Y0026816D02*
X0190663Y0026816D01*
D12*
X0223854Y0102504D02*
X0028854Y0102504D01*
X0028756Y0102506D01*
X0028658Y0102512D01*
X0028560Y0102521D01*
X0028463Y0102535D01*
X0028366Y0102552D01*
X0028270Y0102573D01*
X0028175Y0102598D01*
X0028081Y0102626D01*
X0027989Y0102659D01*
X0027897Y0102694D01*
X0027807Y0102734D01*
X0027719Y0102776D01*
X0027632Y0102823D01*
X0027548Y0102872D01*
X0027465Y0102925D01*
X0027385Y0102981D01*
X0027306Y0103041D01*
X0027230Y0103103D01*
X0027157Y0103168D01*
X0027086Y0103236D01*
X0027018Y0103307D01*
X0026953Y0103380D01*
X0026891Y0103456D01*
X0026831Y0103535D01*
X0026775Y0103615D01*
X0026722Y0103698D01*
X0026673Y0103782D01*
X0026626Y0103869D01*
X0026584Y0103957D01*
X0026544Y0104047D01*
X0026509Y0104139D01*
X0026476Y0104231D01*
X0026448Y0104325D01*
X0026423Y0104420D01*
X0026402Y0104516D01*
X0026385Y0104613D01*
X0026371Y0104710D01*
X0026362Y0104808D01*
X0026356Y0104906D01*
X0026354Y0105004D01*
X0026354Y0124004D01*
X0026356Y0124102D01*
X0026362Y0124200D01*
X0026371Y0124298D01*
X0026385Y0124395D01*
X0026402Y0124492D01*
X0026423Y0124588D01*
X0026448Y0124683D01*
X0026476Y0124777D01*
X0026509Y0124869D01*
X0026544Y0124961D01*
X0026584Y0125051D01*
X0026626Y0125139D01*
X0026673Y0125226D01*
X0026722Y0125310D01*
X0026775Y0125393D01*
X0026831Y0125473D01*
X0026891Y0125552D01*
X0026953Y0125628D01*
X0027018Y0125701D01*
X0027086Y0125772D01*
X0027157Y0125840D01*
X0027230Y0125905D01*
X0027306Y0125967D01*
X0027385Y0126027D01*
X0027465Y0126083D01*
X0027548Y0126136D01*
X0027632Y0126185D01*
X0027719Y0126232D01*
X0027807Y0126274D01*
X0027897Y0126314D01*
X0027989Y0126349D01*
X0028081Y0126382D01*
X0028175Y0126410D01*
X0028270Y0126435D01*
X0028366Y0126456D01*
X0028463Y0126473D01*
X0028560Y0126487D01*
X0028658Y0126496D01*
X0028756Y0126502D01*
X0028854Y0126504D01*
X0223854Y0126504D01*
X0223952Y0126502D01*
X0224050Y0126496D01*
X0224148Y0126487D01*
X0224245Y0126473D01*
X0224342Y0126456D01*
X0224438Y0126435D01*
X0224533Y0126410D01*
X0224627Y0126382D01*
X0224719Y0126349D01*
X0224811Y0126314D01*
X0224901Y0126274D01*
X0224989Y0126232D01*
X0225076Y0126185D01*
X0225160Y0126136D01*
X0225243Y0126083D01*
X0225323Y0126027D01*
X0225402Y0125967D01*
X0225478Y0125905D01*
X0225551Y0125840D01*
X0225622Y0125772D01*
X0225690Y0125701D01*
X0225755Y0125628D01*
X0225817Y0125552D01*
X0225877Y0125473D01*
X0225933Y0125393D01*
X0225986Y0125310D01*
X0226035Y0125226D01*
X0226082Y0125139D01*
X0226124Y0125051D01*
X0226164Y0124961D01*
X0226199Y0124869D01*
X0226232Y0124777D01*
X0226260Y0124683D01*
X0226285Y0124588D01*
X0226306Y0124492D01*
X0226323Y0124395D01*
X0226337Y0124298D01*
X0226346Y0124200D01*
X0226352Y0124102D01*
X0226354Y0124004D01*
X0226354Y0105004D01*
X0226352Y0104906D01*
X0226346Y0104808D01*
X0226337Y0104710D01*
X0226323Y0104613D01*
X0226306Y0104516D01*
X0226285Y0104420D01*
X0226260Y0104325D01*
X0226232Y0104231D01*
X0226199Y0104139D01*
X0226164Y0104047D01*
X0226124Y0103957D01*
X0226082Y0103869D01*
X0226035Y0103782D01*
X0225986Y0103698D01*
X0225933Y0103615D01*
X0225877Y0103535D01*
X0225817Y0103456D01*
X0225755Y0103380D01*
X0225690Y0103307D01*
X0225622Y0103236D01*
X0225551Y0103168D01*
X0225478Y0103103D01*
X0225402Y0103041D01*
X0225323Y0102981D01*
X0225243Y0102925D01*
X0225160Y0102872D01*
X0225076Y0102823D01*
X0224989Y0102776D01*
X0224901Y0102734D01*
X0224811Y0102694D01*
X0224719Y0102659D01*
X0224627Y0102626D01*
X0224533Y0102598D01*
X0224438Y0102573D01*
X0224342Y0102552D01*
X0224245Y0102535D01*
X0224148Y0102521D01*
X0224050Y0102512D01*
X0223952Y0102506D01*
X0223854Y0102504D01*
D13*
X0223854Y0100754D02*
X0223914Y0100752D01*
X0223974Y0100746D01*
X0224034Y0100736D01*
X0224093Y0100723D01*
X0224151Y0100705D01*
X0224207Y0100684D01*
X0224262Y0100659D01*
X0224315Y0100631D01*
X0224367Y0100599D01*
X0224416Y0100564D01*
X0224463Y0100526D01*
X0224507Y0100484D01*
X0224548Y0100440D01*
X0224587Y0100394D01*
X0224622Y0100345D01*
X0224654Y0100294D01*
X0224682Y0100240D01*
X0224708Y0100185D01*
X0224729Y0100129D01*
X0224854Y0099754D02*
X0222854Y0097254D01*
X0223854Y0096254D02*
X0223914Y0096256D01*
X0223974Y0096262D01*
X0224034Y0096272D01*
X0224093Y0096285D01*
X0224151Y0096303D01*
X0224207Y0096324D01*
X0224262Y0096349D01*
X0224315Y0096377D01*
X0224367Y0096409D01*
X0224416Y0096444D01*
X0224463Y0096482D01*
X0224507Y0096524D01*
X0224548Y0096568D01*
X0224587Y0096614D01*
X0224622Y0096663D01*
X0224654Y0096714D01*
X0224682Y0096768D01*
X0224708Y0096823D01*
X0224729Y0096879D01*
X0223854Y0096254D02*
X0223794Y0096256D01*
X0223734Y0096262D01*
X0223674Y0096272D01*
X0223615Y0096285D01*
X0223557Y0096303D01*
X0223501Y0096324D01*
X0223446Y0096349D01*
X0223393Y0096377D01*
X0223341Y0096409D01*
X0223292Y0096444D01*
X0223245Y0096482D01*
X0223201Y0096524D01*
X0223160Y0096568D01*
X0223121Y0096614D01*
X0223086Y0096663D01*
X0223054Y0096714D01*
X0223026Y0096768D01*
X0223000Y0096823D01*
X0222979Y0096879D01*
X0224729Y0096879D02*
X0224780Y0096988D01*
X0224827Y0097098D01*
X0224871Y0097210D01*
X0224911Y0097324D01*
X0224947Y0097438D01*
X0224980Y0097554D01*
X0225009Y0097670D01*
X0225034Y0097788D01*
X0225055Y0097906D01*
X0225073Y0098025D01*
X0225086Y0098144D01*
X0225096Y0098264D01*
X0225102Y0098384D01*
X0225104Y0098504D01*
X0222605Y0098504D02*
X0222607Y0098384D01*
X0222613Y0098264D01*
X0222623Y0098144D01*
X0222636Y0098025D01*
X0222654Y0097906D01*
X0222675Y0097788D01*
X0222700Y0097670D01*
X0222729Y0097554D01*
X0222762Y0097438D01*
X0222798Y0097324D01*
X0222838Y0097210D01*
X0222882Y0097098D01*
X0222929Y0096988D01*
X0222980Y0096879D01*
X0225104Y0098504D02*
X0225102Y0098624D01*
X0225096Y0098744D01*
X0225086Y0098864D01*
X0225073Y0098983D01*
X0225055Y0099102D01*
X0225034Y0099220D01*
X0225009Y0099338D01*
X0224980Y0099454D01*
X0224947Y0099570D01*
X0224911Y0099684D01*
X0224871Y0099798D01*
X0224827Y0099910D01*
X0224780Y0100020D01*
X0224729Y0100129D01*
X0223854Y0100754D02*
X0223794Y0100752D01*
X0223734Y0100746D01*
X0223674Y0100736D01*
X0223615Y0100723D01*
X0223557Y0100705D01*
X0223501Y0100684D01*
X0223446Y0100659D01*
X0223393Y0100631D01*
X0223341Y0100599D01*
X0223292Y0100564D01*
X0223245Y0100526D01*
X0223201Y0100484D01*
X0223160Y0100440D01*
X0223121Y0100394D01*
X0223086Y0100345D01*
X0223054Y0100294D01*
X0223026Y0100240D01*
X0223000Y0100185D01*
X0222979Y0100129D01*
X0222980Y0100129D02*
X0222929Y0100020D01*
X0222882Y0099910D01*
X0222838Y0099798D01*
X0222798Y0099684D01*
X0222762Y0099570D01*
X0222729Y0099454D01*
X0222700Y0099338D01*
X0222675Y0099220D01*
X0222654Y0099102D01*
X0222636Y0098983D01*
X0222623Y0098864D01*
X0222613Y0098744D01*
X0222607Y0098624D01*
X0222605Y0098504D01*
X0220604Y0097254D02*
X0218104Y0097254D01*
X0219104Y0100754D01*
X0219854Y0098254D02*
X0219854Y0096254D01*
X0096354Y0063996D02*
X0096356Y0064023D01*
X0096362Y0064050D01*
X0096371Y0064076D01*
X0096384Y0064100D01*
X0096400Y0064123D01*
X0096419Y0064142D01*
X0096441Y0064159D01*
X0096465Y0064173D01*
X0096490Y0064183D01*
X0096517Y0064190D01*
X0096544Y0064193D01*
X0096572Y0064192D01*
X0096599Y0064187D01*
X0096625Y0064179D01*
X0096649Y0064167D01*
X0096672Y0064151D01*
X0096693Y0064133D01*
X0096710Y0064112D01*
X0096725Y0064088D01*
X0096736Y0064063D01*
X0096744Y0064037D01*
X0096748Y0064010D01*
X0096748Y0063982D01*
X0096744Y0063955D01*
X0096736Y0063929D01*
X0096725Y0063904D01*
X0096710Y0063880D01*
X0096693Y0063859D01*
X0096672Y0063841D01*
X0096650Y0063825D01*
X0096625Y0063813D01*
X0096599Y0063805D01*
X0096572Y0063800D01*
X0096544Y0063799D01*
X0096517Y0063802D01*
X0096490Y0063809D01*
X0096465Y0063819D01*
X0096441Y0063833D01*
X0096419Y0063850D01*
X0096400Y0063869D01*
X0096384Y0063892D01*
X0096371Y0063916D01*
X0096362Y0063942D01*
X0096356Y0063969D01*
X0096354Y0063996D01*
X0057954Y0128254D02*
X0055454Y0128254D01*
X0056704Y0128254D02*
X0056704Y0132754D01*
X0055454Y0131754D01*
X0053704Y0132754D02*
X0052204Y0128254D01*
X0050704Y0132754D01*
X0047229Y0130879D02*
X0047177Y0130912D01*
X0047126Y0130948D01*
X0047078Y0130987D01*
X0047033Y0131029D01*
X0046990Y0131074D01*
X0046950Y0131122D01*
X0046913Y0131171D01*
X0046879Y0131223D01*
X0046848Y0131277D01*
X0046820Y0131333D01*
X0046796Y0131390D01*
X0046776Y0131449D01*
X0046759Y0131508D01*
X0046746Y0131569D01*
X0046737Y0131630D01*
X0046731Y0131692D01*
X0046729Y0131754D01*
X0046731Y0131814D01*
X0046736Y0131875D01*
X0046745Y0131934D01*
X0046758Y0131993D01*
X0046774Y0132052D01*
X0046794Y0132109D01*
X0046817Y0132164D01*
X0046844Y0132219D01*
X0046873Y0132271D01*
X0046906Y0132322D01*
X0046942Y0132371D01*
X0046980Y0132417D01*
X0047022Y0132461D01*
X0047066Y0132503D01*
X0047112Y0132541D01*
X0047161Y0132577D01*
X0047212Y0132610D01*
X0047264Y0132639D01*
X0047319Y0132666D01*
X0047374Y0132689D01*
X0047431Y0132709D01*
X0047490Y0132725D01*
X0047549Y0132738D01*
X0047608Y0132747D01*
X0047669Y0132752D01*
X0047729Y0132754D01*
X0047809Y0132752D01*
X0047890Y0132747D01*
X0047970Y0132738D01*
X0048049Y0132726D01*
X0048128Y0132711D01*
X0048206Y0132692D01*
X0048284Y0132670D01*
X0048360Y0132645D01*
X0048435Y0132616D01*
X0048509Y0132584D01*
X0048581Y0132549D01*
X0048652Y0132511D01*
X0048721Y0132470D01*
X0048789Y0132426D01*
X0048854Y0132379D01*
X0046604Y0128878D02*
X0046667Y0128817D01*
X0046732Y0128759D01*
X0046800Y0128703D01*
X0046871Y0128650D01*
X0046943Y0128601D01*
X0047017Y0128554D01*
X0047093Y0128510D01*
X0047171Y0128470D01*
X0047251Y0128433D01*
X0047332Y0128399D01*
X0047414Y0128369D01*
X0047498Y0128342D01*
X0047583Y0128318D01*
X0047668Y0128298D01*
X0047754Y0128282D01*
X0047841Y0128269D01*
X0047929Y0128260D01*
X0048016Y0128255D01*
X0048104Y0128253D01*
X0048104Y0128254D02*
X0048164Y0128256D01*
X0048225Y0128261D01*
X0048284Y0128270D01*
X0048343Y0128283D01*
X0048402Y0128299D01*
X0048459Y0128319D01*
X0048514Y0128342D01*
X0048569Y0128369D01*
X0048621Y0128398D01*
X0048672Y0128431D01*
X0048721Y0128467D01*
X0048767Y0128505D01*
X0048811Y0128547D01*
X0048853Y0128591D01*
X0048891Y0128637D01*
X0048927Y0128686D01*
X0048960Y0128737D01*
X0048989Y0128789D01*
X0049016Y0128844D01*
X0049039Y0128899D01*
X0049059Y0128956D01*
X0049075Y0129015D01*
X0049088Y0129074D01*
X0049097Y0129133D01*
X0049102Y0129194D01*
X0049104Y0129254D01*
X0048604Y0130129D02*
X0047229Y0130879D01*
X0048605Y0130129D02*
X0048657Y0130096D01*
X0048708Y0130060D01*
X0048756Y0130021D01*
X0048801Y0129979D01*
X0048844Y0129934D01*
X0048884Y0129886D01*
X0048921Y0129837D01*
X0048955Y0129785D01*
X0048986Y0129731D01*
X0049014Y0129675D01*
X0049038Y0129618D01*
X0049058Y0129559D01*
X0049075Y0129500D01*
X0049088Y0129439D01*
X0049097Y0129378D01*
X0049103Y0129316D01*
X0049105Y0129254D01*
X0032604Y0128254D02*
X0030104Y0128254D01*
X0031354Y0128254D02*
X0031354Y0132754D01*
X0030104Y0131754D01*
D14*
X0090071Y0060794D02*
X0090071Y0058771D01*
X0090073Y0058715D01*
X0090079Y0058660D01*
X0090089Y0058606D01*
X0090103Y0058552D01*
X0090120Y0058499D01*
X0090141Y0058448D01*
X0090166Y0058398D01*
X0090195Y0058350D01*
X0090226Y0058305D01*
X0090261Y0058262D01*
X0090299Y0058221D01*
X0090340Y0058183D01*
X0090383Y0058148D01*
X0090428Y0058117D01*
X0090476Y0058088D01*
X0090526Y0058063D01*
X0090577Y0058042D01*
X0090630Y0058025D01*
X0090684Y0058011D01*
X0090738Y0058001D01*
X0090793Y0057995D01*
X0090849Y0057993D01*
X0090905Y0057995D01*
X0090960Y0058001D01*
X0091014Y0058011D01*
X0091068Y0058025D01*
X0091121Y0058042D01*
X0091172Y0058063D01*
X0091222Y0058088D01*
X0091270Y0058117D01*
X0091315Y0058148D01*
X0091358Y0058183D01*
X0091399Y0058221D01*
X0091437Y0058262D01*
X0091472Y0058305D01*
X0091503Y0058350D01*
X0091532Y0058398D01*
X0091557Y0058448D01*
X0091578Y0058499D01*
X0091595Y0058552D01*
X0091609Y0058606D01*
X0091619Y0058660D01*
X0091625Y0058715D01*
X0091627Y0058771D01*
X0091627Y0060794D01*
X0092862Y0060171D02*
X0093641Y0060794D01*
X0093641Y0057992D01*
X0094419Y0057992D02*
X0092862Y0057992D01*
D15*
X0089976Y0054150D02*
X0088402Y0054150D01*
X0088402Y0049425D02*
X0089976Y0049425D01*
X0096669Y0051787D02*
X0096671Y0051826D01*
X0096677Y0051865D01*
X0096687Y0051903D01*
X0096700Y0051940D01*
X0096717Y0051975D01*
X0096737Y0052009D01*
X0096761Y0052040D01*
X0096788Y0052069D01*
X0096817Y0052095D01*
X0096849Y0052118D01*
X0096883Y0052138D01*
X0096919Y0052154D01*
X0096956Y0052166D01*
X0096995Y0052175D01*
X0097034Y0052180D01*
X0097073Y0052181D01*
X0097112Y0052178D01*
X0097151Y0052171D01*
X0097188Y0052160D01*
X0097225Y0052146D01*
X0097260Y0052128D01*
X0097293Y0052107D01*
X0097324Y0052082D01*
X0097352Y0052055D01*
X0097377Y0052025D01*
X0097399Y0051992D01*
X0097418Y0051958D01*
X0097433Y0051922D01*
X0097445Y0051884D01*
X0097453Y0051846D01*
X0097457Y0051807D01*
X0097457Y0051767D01*
X0097453Y0051728D01*
X0097445Y0051690D01*
X0097433Y0051652D01*
X0097418Y0051616D01*
X0097399Y0051582D01*
X0097377Y0051549D01*
X0097352Y0051519D01*
X0097324Y0051492D01*
X0097293Y0051467D01*
X0097260Y0051446D01*
X0097225Y0051428D01*
X0097188Y0051414D01*
X0097151Y0051403D01*
X0097112Y0051396D01*
X0097073Y0051393D01*
X0097034Y0051394D01*
X0096995Y0051399D01*
X0096956Y0051408D01*
X0096919Y0051420D01*
X0096883Y0051436D01*
X0096849Y0051456D01*
X0096817Y0051479D01*
X0096788Y0051505D01*
X0096761Y0051534D01*
X0096737Y0051565D01*
X0096717Y0051599D01*
X0096700Y0051634D01*
X0096687Y0051671D01*
X0096677Y0051709D01*
X0096671Y0051748D01*
X0096669Y0051787D01*
M02*
