G04 EAGLE Gerber X2 export*
%TF.Part,Single*%
%TF.FileFunction,Copper,L1,Top,Mixed*%
%TF.FilePolarity,Positive*%
%TF.GenerationSoftware,Autodesk,EAGLE,8.6.3*%
%TF.CreationDate,2019-02-20T16:21:40Z*%
G75*
%MOMM*%
%FSLAX34Y34*%
%LPD*%
%AMOC8*
5,1,8,0,0,1.08239X$1,22.5*%
G01*
%ADD10R,1.300000X1.500000*%
%ADD11C,1.422400*%
%ADD12P,1.539592X8X22.500000*%
%ADD13R,0.609600X2.057400*%
%ADD14C,2.362200*%
%ADD15C,0.152400*%
%ADD16C,1.206400*%
%ADD17C,0.203200*%

G36*
X539098Y242D02*
X539098Y242D01*
X539117Y240D01*
X539219Y262D01*
X539321Y279D01*
X539338Y288D01*
X539358Y292D01*
X539447Y345D01*
X539538Y394D01*
X539552Y408D01*
X539569Y418D01*
X539636Y497D01*
X539708Y572D01*
X539716Y590D01*
X539729Y605D01*
X539768Y701D01*
X539811Y795D01*
X539813Y815D01*
X539821Y833D01*
X539839Y1000D01*
X539839Y289098D01*
X539836Y289117D01*
X539838Y289136D01*
X539816Y289238D01*
X539800Y289340D01*
X539791Y289357D01*
X539786Y289376D01*
X539733Y289466D01*
X539684Y289558D01*
X539671Y289571D01*
X539661Y289588D01*
X539582Y289656D01*
X539506Y289727D01*
X539489Y289735D01*
X539474Y289748D01*
X539377Y289787D01*
X539283Y289831D01*
X539264Y289833D01*
X539246Y289840D01*
X539079Y289859D01*
X6923Y290820D01*
X6903Y290816D01*
X6883Y290819D01*
X6782Y290797D01*
X6681Y290780D01*
X6662Y290771D01*
X6642Y290766D01*
X6554Y290713D01*
X6463Y290666D01*
X6449Y290651D01*
X6431Y290640D01*
X6364Y290562D01*
X6293Y290488D01*
X6285Y290469D01*
X6271Y290453D01*
X6233Y290358D01*
X6189Y290265D01*
X6187Y290244D01*
X6179Y290225D01*
X6161Y290058D01*
X6161Y243065D01*
X6163Y243051D01*
X6162Y243038D01*
X6172Y242989D01*
X6174Y242923D01*
X6192Y242874D01*
X6200Y242823D01*
X6234Y242759D01*
X6259Y242692D01*
X6291Y242651D01*
X6316Y242605D01*
X6368Y242556D01*
X6412Y242500D01*
X6456Y242472D01*
X6494Y242436D01*
X6559Y242406D01*
X6619Y242367D01*
X6670Y242354D01*
X6717Y242332D01*
X6788Y242324D01*
X6858Y242307D01*
X6910Y242311D01*
X6961Y242305D01*
X7032Y242320D01*
X7103Y242326D01*
X7151Y242346D01*
X7202Y242357D01*
X7263Y242394D01*
X7329Y242422D01*
X7383Y242465D01*
X7394Y242471D01*
X7397Y242474D01*
X7413Y242484D01*
X7428Y242501D01*
X7460Y242527D01*
X9251Y244318D01*
X23506Y258573D01*
X30143Y258573D01*
X30233Y258587D01*
X30324Y258595D01*
X30354Y258607D01*
X30386Y258612D01*
X30467Y258655D01*
X30551Y258691D01*
X30583Y258717D01*
X30603Y258728D01*
X30626Y258751D01*
X30681Y258796D01*
X33208Y261322D01*
X36382Y262637D01*
X39818Y262637D01*
X42992Y261322D01*
X45422Y258892D01*
X46737Y255718D01*
X46737Y252282D01*
X45422Y249108D01*
X42992Y246678D01*
X39818Y245363D01*
X36382Y245363D01*
X33208Y246678D01*
X30681Y249204D01*
X30608Y249257D01*
X30538Y249317D01*
X30508Y249329D01*
X30482Y249348D01*
X30395Y249375D01*
X30310Y249409D01*
X30269Y249413D01*
X30247Y249420D01*
X30214Y249419D01*
X30143Y249427D01*
X27609Y249427D01*
X27519Y249413D01*
X27428Y249405D01*
X27399Y249393D01*
X27367Y249388D01*
X27286Y249345D01*
X27202Y249309D01*
X27170Y249283D01*
X27149Y249272D01*
X27127Y249249D01*
X27071Y249204D01*
X15718Y237851D01*
X15665Y237777D01*
X15605Y237707D01*
X15593Y237677D01*
X15574Y237651D01*
X15547Y237564D01*
X15513Y237479D01*
X15509Y237438D01*
X15502Y237416D01*
X15503Y237384D01*
X15495Y237313D01*
X15495Y181621D01*
X15502Y181574D01*
X15501Y181526D01*
X15522Y181453D01*
X15534Y181378D01*
X15557Y181336D01*
X15571Y181290D01*
X15614Y181228D01*
X15650Y181161D01*
X15684Y181128D01*
X15712Y181089D01*
X15773Y181044D01*
X15828Y180991D01*
X15872Y180971D01*
X15910Y180943D01*
X15982Y180920D01*
X16051Y180888D01*
X16099Y180883D01*
X16144Y180868D01*
X16220Y180869D01*
X16295Y180861D01*
X16342Y180871D01*
X16390Y180872D01*
X16462Y180897D01*
X16536Y180913D01*
X16577Y180938D01*
X16622Y180954D01*
X16682Y181000D01*
X16747Y181039D01*
X16778Y181076D01*
X16816Y181105D01*
X16892Y181209D01*
X16907Y181226D01*
X16909Y181232D01*
X16915Y181240D01*
X16961Y181320D01*
X21880Y186239D01*
X27903Y189716D01*
X34622Y191517D01*
X41578Y191517D01*
X48297Y189716D01*
X54320Y186239D01*
X57755Y182804D01*
X57813Y182762D01*
X57865Y182713D01*
X57912Y182691D01*
X57954Y182661D01*
X58023Y182640D01*
X58088Y182609D01*
X58140Y182604D01*
X58190Y182588D01*
X58261Y182590D01*
X58332Y182582D01*
X58383Y182593D01*
X58435Y182595D01*
X58503Y182619D01*
X58573Y182634D01*
X58618Y182661D01*
X58666Y182679D01*
X58722Y182724D01*
X58784Y182761D01*
X58818Y182800D01*
X58858Y182833D01*
X58897Y182893D01*
X58944Y182948D01*
X58963Y182996D01*
X58991Y183040D01*
X59009Y183109D01*
X59036Y183176D01*
X59044Y183247D01*
X59052Y183278D01*
X59050Y183301D01*
X59054Y183342D01*
X59054Y185279D01*
X61085Y190180D01*
X64836Y193931D01*
X69737Y195962D01*
X75043Y195962D01*
X79944Y193931D01*
X83695Y190180D01*
X85726Y185279D01*
X85726Y179973D01*
X83695Y175072D01*
X79944Y171321D01*
X75043Y169290D01*
X69737Y169290D01*
X65076Y171221D01*
X65055Y171226D01*
X65036Y171236D01*
X64935Y171254D01*
X64837Y171277D01*
X64815Y171275D01*
X64793Y171279D01*
X64693Y171264D01*
X64592Y171254D01*
X64572Y171245D01*
X64550Y171242D01*
X64460Y171195D01*
X64367Y171154D01*
X64351Y171139D01*
X64332Y171129D01*
X64261Y171056D01*
X64186Y170988D01*
X64176Y170968D01*
X64160Y170952D01*
X64117Y170861D01*
X64068Y170772D01*
X64064Y170750D01*
X64054Y170731D01*
X64042Y170630D01*
X64024Y170530D01*
X64027Y170508D01*
X64024Y170486D01*
X64050Y170321D01*
X64517Y168578D01*
X64517Y161622D01*
X62716Y154903D01*
X59239Y148880D01*
X54320Y143961D01*
X48297Y140484D01*
X41578Y138683D01*
X34622Y138683D01*
X34533Y138707D01*
X34485Y138712D01*
X34440Y138726D01*
X34364Y138724D01*
X34288Y138732D01*
X34242Y138721D01*
X34194Y138720D01*
X34122Y138694D01*
X34049Y138677D01*
X34008Y138652D01*
X33963Y138635D01*
X33903Y138588D01*
X33839Y138548D01*
X33808Y138511D01*
X33771Y138481D01*
X33730Y138418D01*
X33681Y138360D01*
X33664Y138315D01*
X33638Y138275D01*
X33619Y138201D01*
X33592Y138130D01*
X33589Y138083D01*
X33578Y138036D01*
X33583Y137960D01*
X33580Y137885D01*
X33593Y137839D01*
X33597Y137791D01*
X33626Y137721D01*
X33647Y137648D01*
X33674Y137609D01*
X33693Y137565D01*
X33773Y137464D01*
X33786Y137445D01*
X33791Y137441D01*
X33798Y137434D01*
X57380Y113851D01*
X57396Y113839D01*
X57409Y113824D01*
X57496Y113768D01*
X57580Y113708D01*
X57599Y113702D01*
X57616Y113691D01*
X57716Y113666D01*
X57815Y113635D01*
X57835Y113636D01*
X57854Y113631D01*
X57957Y113639D01*
X58061Y113642D01*
X58080Y113648D01*
X58100Y113650D01*
X58194Y113690D01*
X58292Y113726D01*
X58308Y113738D01*
X58326Y113746D01*
X58457Y113851D01*
X58608Y114002D01*
X61782Y115317D01*
X65218Y115317D01*
X68392Y114002D01*
X70919Y111476D01*
X70992Y111423D01*
X71062Y111363D01*
X71092Y111351D01*
X71118Y111332D01*
X71205Y111305D01*
X71290Y111271D01*
X71331Y111267D01*
X71353Y111260D01*
X71386Y111261D01*
X71457Y111253D01*
X73107Y111253D01*
X73152Y111260D01*
X73198Y111258D01*
X73273Y111280D01*
X73349Y111292D01*
X73390Y111314D01*
X73434Y111327D01*
X73498Y111371D01*
X73567Y111408D01*
X73598Y111441D01*
X73636Y111467D01*
X73683Y111530D01*
X73736Y111586D01*
X73756Y111628D01*
X73783Y111664D01*
X73807Y111738D01*
X73840Y111809D01*
X73845Y111855D01*
X73859Y111898D01*
X73858Y111976D01*
X73867Y112053D01*
X73857Y112098D01*
X73857Y112144D01*
X73819Y112276D01*
X73815Y112294D01*
X73812Y112298D01*
X73810Y112305D01*
X72643Y115122D01*
X72643Y118558D01*
X73958Y121732D01*
X76388Y124162D01*
X79562Y125477D01*
X82998Y125477D01*
X83207Y125390D01*
X83320Y125364D01*
X83434Y125335D01*
X83440Y125335D01*
X83446Y125334D01*
X83563Y125345D01*
X83679Y125354D01*
X83685Y125357D01*
X83691Y125357D01*
X83799Y125405D01*
X83905Y125450D01*
X83911Y125455D01*
X83916Y125457D01*
X83930Y125470D01*
X84036Y125555D01*
X85277Y126796D01*
X85316Y126851D01*
X85363Y126899D01*
X85388Y126950D01*
X85420Y126995D01*
X85440Y127060D01*
X85469Y127121D01*
X85476Y127177D01*
X85493Y127230D01*
X85491Y127298D01*
X85499Y127365D01*
X85488Y127420D01*
X85486Y127476D01*
X85463Y127540D01*
X85449Y127606D01*
X85421Y127655D01*
X85402Y127707D01*
X85359Y127760D01*
X85325Y127819D01*
X85283Y127856D01*
X85248Y127899D01*
X85191Y127936D01*
X85140Y127981D01*
X85088Y128002D01*
X85041Y128032D01*
X84975Y128049D01*
X84913Y128075D01*
X84857Y128079D01*
X84803Y128092D01*
X84735Y128087D01*
X84667Y128092D01*
X84590Y128076D01*
X84557Y128073D01*
X84538Y128065D01*
X84503Y128058D01*
X83540Y127745D01*
X82803Y127628D01*
X82803Y135637D01*
X90812Y135637D01*
X90695Y134900D01*
X90382Y133937D01*
X90372Y133870D01*
X90352Y133805D01*
X90353Y133749D01*
X90345Y133694D01*
X90357Y133627D01*
X90358Y133559D01*
X90378Y133507D01*
X90387Y133451D01*
X90420Y133392D01*
X90443Y133328D01*
X90478Y133284D01*
X90505Y133235D01*
X90554Y133189D01*
X90597Y133136D01*
X90644Y133106D01*
X90685Y133068D01*
X90746Y133040D01*
X90803Y133003D01*
X90858Y132989D01*
X90909Y132966D01*
X90976Y132960D01*
X91042Y132943D01*
X91098Y132947D01*
X91154Y132942D01*
X91220Y132957D01*
X91287Y132962D01*
X91339Y132984D01*
X91393Y132997D01*
X91451Y133032D01*
X91513Y133058D01*
X91575Y133108D01*
X91603Y133125D01*
X91617Y133141D01*
X91644Y133163D01*
X112552Y154071D01*
X112605Y154145D01*
X112665Y154215D01*
X112677Y154245D01*
X112696Y154271D01*
X112723Y154358D01*
X112757Y154443D01*
X112761Y154484D01*
X112768Y154506D01*
X112767Y154538D01*
X112775Y154609D01*
X112775Y173443D01*
X112761Y173533D01*
X112753Y173624D01*
X112741Y173653D01*
X112736Y173685D01*
X112693Y173766D01*
X112657Y173850D01*
X112631Y173882D01*
X112620Y173903D01*
X112597Y173925D01*
X112552Y173981D01*
X85329Y201204D01*
X85255Y201257D01*
X85185Y201317D01*
X85155Y201329D01*
X85129Y201348D01*
X85042Y201375D01*
X84957Y201409D01*
X84916Y201413D01*
X84894Y201420D01*
X84862Y201419D01*
X84791Y201427D01*
X55106Y201427D01*
X36793Y219740D01*
X36719Y219793D01*
X36649Y219853D01*
X36619Y219865D01*
X36593Y219884D01*
X36506Y219911D01*
X36421Y219945D01*
X36380Y219949D01*
X36358Y219956D01*
X36326Y219955D01*
X36255Y219963D01*
X34523Y219963D01*
X29463Y225023D01*
X29463Y232177D01*
X34523Y237237D01*
X41677Y237237D01*
X46737Y232177D01*
X46737Y225023D01*
X46129Y224415D01*
X46117Y224398D01*
X46102Y224386D01*
X46046Y224299D01*
X45985Y224215D01*
X45979Y224196D01*
X45969Y224179D01*
X45943Y224079D01*
X45913Y223980D01*
X45913Y223960D01*
X45909Y223941D01*
X45917Y223838D01*
X45919Y223734D01*
X45926Y223715D01*
X45928Y223695D01*
X45968Y223600D01*
X46004Y223503D01*
X46016Y223487D01*
X46024Y223469D01*
X46129Y223338D01*
X58671Y210796D01*
X58745Y210743D01*
X58815Y210683D01*
X58845Y210671D01*
X58871Y210652D01*
X58958Y210625D01*
X59043Y210591D01*
X59084Y210587D01*
X59106Y210580D01*
X59138Y210581D01*
X59209Y210573D01*
X78123Y210573D01*
X78193Y210584D01*
X78265Y210586D01*
X78314Y210604D01*
X78365Y210612D01*
X78429Y210646D01*
X78496Y210671D01*
X78537Y210703D01*
X78583Y210728D01*
X78632Y210780D01*
X78688Y210824D01*
X78716Y210868D01*
X78752Y210906D01*
X78782Y210971D01*
X78821Y211031D01*
X78834Y211082D01*
X78856Y211129D01*
X78864Y211200D01*
X78881Y211270D01*
X78877Y211322D01*
X78883Y211373D01*
X78868Y211444D01*
X78862Y211515D01*
X78842Y211563D01*
X78831Y211614D01*
X78794Y211675D01*
X78766Y211741D01*
X78721Y211797D01*
X78704Y211825D01*
X78687Y211840D01*
X78661Y211872D01*
X75329Y215204D01*
X72427Y218106D01*
X72427Y223475D01*
X72416Y223546D01*
X72414Y223618D01*
X72396Y223667D01*
X72388Y223718D01*
X72354Y223781D01*
X72329Y223849D01*
X72297Y223889D01*
X72272Y223935D01*
X72220Y223985D01*
X72176Y224041D01*
X72132Y224069D01*
X72094Y224105D01*
X72029Y224135D01*
X71969Y224174D01*
X71918Y224186D01*
X71871Y224208D01*
X71800Y224216D01*
X71730Y224234D01*
X71678Y224230D01*
X71627Y224236D01*
X71556Y224220D01*
X71485Y224215D01*
X71437Y224194D01*
X71386Y224183D01*
X71325Y224146D01*
X71259Y224118D01*
X71203Y224074D01*
X71175Y224057D01*
X71160Y224039D01*
X71128Y224014D01*
X67077Y219963D01*
X59923Y219963D01*
X54863Y225023D01*
X54863Y232177D01*
X59923Y237237D01*
X67077Y237237D01*
X71128Y233186D01*
X71186Y233145D01*
X71238Y233095D01*
X71285Y233073D01*
X71327Y233043D01*
X71396Y233022D01*
X71461Y232992D01*
X71513Y232986D01*
X71563Y232971D01*
X71634Y232972D01*
X71705Y232964D01*
X71756Y232976D01*
X71808Y232977D01*
X71876Y233002D01*
X71946Y233017D01*
X71991Y233043D01*
X72039Y233061D01*
X72095Y233106D01*
X72157Y233143D01*
X72191Y233182D01*
X72231Y233215D01*
X72270Y233275D01*
X72317Y233330D01*
X72336Y233378D01*
X72364Y233422D01*
X72382Y233491D01*
X72409Y233558D01*
X72417Y233629D01*
X72425Y233660D01*
X72423Y233684D01*
X72427Y233725D01*
X72427Y238291D01*
X72413Y238381D01*
X72405Y238472D01*
X72393Y238501D01*
X72388Y238533D01*
X72345Y238614D01*
X72309Y238698D01*
X72283Y238730D01*
X72272Y238751D01*
X72249Y238773D01*
X72204Y238829D01*
X65893Y245140D01*
X65819Y245193D01*
X65749Y245253D01*
X65719Y245265D01*
X65693Y245284D01*
X65606Y245311D01*
X65521Y245345D01*
X65480Y245349D01*
X65458Y245356D01*
X65426Y245355D01*
X65355Y245363D01*
X59923Y245363D01*
X54863Y250423D01*
X54863Y257577D01*
X59923Y262637D01*
X67077Y262637D01*
X72137Y257577D01*
X72137Y252145D01*
X72151Y252055D01*
X72159Y251964D01*
X72171Y251935D01*
X72176Y251903D01*
X72219Y251822D01*
X72255Y251738D01*
X72281Y251706D01*
X72292Y251685D01*
X72315Y251663D01*
X72360Y251607D01*
X81573Y242394D01*
X81573Y235325D01*
X81584Y235254D01*
X81586Y235182D01*
X81604Y235133D01*
X81612Y235082D01*
X81646Y235019D01*
X81671Y234951D01*
X81703Y234911D01*
X81728Y234865D01*
X81780Y234815D01*
X81824Y234759D01*
X81868Y234731D01*
X81906Y234695D01*
X81971Y234665D01*
X82031Y234626D01*
X82082Y234614D01*
X82129Y234592D01*
X82200Y234584D01*
X82270Y234566D01*
X82322Y234570D01*
X82373Y234564D01*
X82444Y234580D01*
X82515Y234585D01*
X82563Y234606D01*
X82614Y234617D01*
X82675Y234654D01*
X82741Y234682D01*
X82797Y234726D01*
X82825Y234743D01*
X82840Y234761D01*
X82872Y234786D01*
X85323Y237237D01*
X92477Y237237D01*
X97537Y232177D01*
X97537Y225023D01*
X92477Y219963D01*
X85341Y219963D01*
X85271Y219952D01*
X85199Y219950D01*
X85150Y219932D01*
X85099Y219924D01*
X85035Y219890D01*
X84968Y219865D01*
X84927Y219833D01*
X84881Y219808D01*
X84832Y219756D01*
X84776Y219712D01*
X84748Y219668D01*
X84712Y219630D01*
X84682Y219565D01*
X84643Y219505D01*
X84630Y219454D01*
X84608Y219407D01*
X84600Y219336D01*
X84583Y219266D01*
X84587Y219214D01*
X84581Y219163D01*
X84596Y219092D01*
X84602Y219021D01*
X84622Y218973D01*
X84633Y218922D01*
X84670Y218861D01*
X84698Y218795D01*
X84743Y218739D01*
X84760Y218711D01*
X84777Y218696D01*
X84803Y218664D01*
X85671Y217796D01*
X85745Y217743D01*
X85815Y217683D01*
X85845Y217671D01*
X85871Y217652D01*
X85958Y217625D01*
X86043Y217591D01*
X86084Y217587D01*
X86106Y217580D01*
X86138Y217581D01*
X86209Y217573D01*
X150894Y217573D01*
X153796Y214671D01*
X160573Y207894D01*
X160573Y187209D01*
X160587Y187119D01*
X160595Y187028D01*
X160607Y186999D01*
X160612Y186967D01*
X160655Y186886D01*
X160691Y186802D01*
X160717Y186770D01*
X160728Y186749D01*
X160751Y186727D01*
X160796Y186671D01*
X166671Y180796D01*
X166745Y180743D01*
X166815Y180683D01*
X166845Y180671D01*
X166871Y180652D01*
X166958Y180625D01*
X167043Y180591D01*
X167084Y180587D01*
X167106Y180580D01*
X167138Y180581D01*
X167209Y180573D01*
X200894Y180573D01*
X207773Y173694D01*
X207773Y141481D01*
X206880Y140588D01*
X199520Y140588D01*
X198627Y141481D01*
X198627Y169591D01*
X198613Y169681D01*
X198605Y169772D01*
X198593Y169801D01*
X198588Y169833D01*
X198545Y169914D01*
X198509Y169998D01*
X198483Y170030D01*
X198472Y170051D01*
X198449Y170073D01*
X198404Y170129D01*
X197329Y171204D01*
X197255Y171257D01*
X197185Y171317D01*
X197155Y171329D01*
X197129Y171348D01*
X197042Y171375D01*
X196957Y171409D01*
X196916Y171413D01*
X196894Y171420D01*
X196862Y171419D01*
X196791Y171427D01*
X163106Y171427D01*
X151427Y183106D01*
X151427Y203791D01*
X151413Y203881D01*
X151405Y203972D01*
X151393Y204001D01*
X151388Y204033D01*
X151345Y204114D01*
X151309Y204198D01*
X151283Y204230D01*
X151272Y204251D01*
X151249Y204273D01*
X151204Y204329D01*
X147329Y208204D01*
X147255Y208257D01*
X147185Y208317D01*
X147155Y208329D01*
X147129Y208348D01*
X147042Y208375D01*
X146957Y208409D01*
X146916Y208413D01*
X146894Y208420D01*
X146862Y208419D01*
X146791Y208427D01*
X92877Y208427D01*
X92807Y208416D01*
X92735Y208414D01*
X92686Y208396D01*
X92635Y208388D01*
X92571Y208354D01*
X92504Y208329D01*
X92463Y208297D01*
X92417Y208272D01*
X92368Y208220D01*
X92312Y208176D01*
X92284Y208132D01*
X92248Y208094D01*
X92218Y208029D01*
X92179Y207969D01*
X92166Y207918D01*
X92144Y207871D01*
X92136Y207800D01*
X92119Y207730D01*
X92123Y207678D01*
X92117Y207627D01*
X92132Y207556D01*
X92138Y207485D01*
X92158Y207437D01*
X92169Y207386D01*
X92206Y207325D01*
X92234Y207259D01*
X92279Y207203D01*
X92296Y207175D01*
X92313Y207160D01*
X92339Y207128D01*
X121921Y177546D01*
X121921Y157734D01*
X121924Y157714D01*
X121922Y157695D01*
X121944Y157593D01*
X121960Y157491D01*
X121970Y157474D01*
X121974Y157454D01*
X122027Y157365D01*
X122076Y157274D01*
X122090Y157260D01*
X122100Y157243D01*
X122179Y157176D01*
X122254Y157104D01*
X122272Y157096D01*
X122287Y157083D01*
X122383Y157044D01*
X122477Y157001D01*
X122497Y156999D01*
X122515Y156991D01*
X122682Y156973D01*
X152723Y156973D01*
X152793Y156984D01*
X152865Y156986D01*
X152914Y157004D01*
X152965Y157012D01*
X153029Y157046D01*
X153096Y157071D01*
X153137Y157103D01*
X153183Y157128D01*
X153232Y157180D01*
X153288Y157224D01*
X153316Y157268D01*
X153352Y157306D01*
X153382Y157371D01*
X153421Y157431D01*
X153434Y157482D01*
X153456Y157529D01*
X153464Y157600D01*
X153481Y157670D01*
X153477Y157722D01*
X153483Y157773D01*
X153468Y157844D01*
X153462Y157915D01*
X153442Y157963D01*
X153431Y158014D01*
X153394Y158075D01*
X153366Y158141D01*
X153321Y158197D01*
X153304Y158225D01*
X153287Y158240D01*
X153261Y158272D01*
X152313Y159220D01*
X152239Y159273D01*
X152169Y159333D01*
X152139Y159345D01*
X152113Y159364D01*
X152026Y159391D01*
X151941Y159425D01*
X151900Y159429D01*
X151878Y159436D01*
X151846Y159435D01*
X151775Y159443D01*
X149497Y159443D01*
X146719Y160594D01*
X144594Y162719D01*
X143443Y165497D01*
X143443Y168503D01*
X144594Y171281D01*
X146719Y173406D01*
X149497Y174557D01*
X152503Y174557D01*
X155281Y173406D01*
X157406Y171281D01*
X158557Y168503D01*
X158557Y166225D01*
X158571Y166135D01*
X158579Y166044D01*
X158591Y166015D01*
X158596Y165983D01*
X158639Y165902D01*
X158675Y165818D01*
X158701Y165786D01*
X158712Y165765D01*
X158735Y165743D01*
X158780Y165687D01*
X167271Y157196D01*
X167345Y157143D01*
X167415Y157083D01*
X167445Y157071D01*
X167471Y157052D01*
X167558Y157025D01*
X167643Y156991D01*
X167684Y156987D01*
X167706Y156980D01*
X167738Y156981D01*
X167809Y156973D01*
X185166Y156973D01*
X185186Y156976D01*
X185205Y156974D01*
X185307Y156996D01*
X185409Y157012D01*
X185426Y157022D01*
X185446Y157026D01*
X185535Y157079D01*
X185626Y157128D01*
X185640Y157142D01*
X185657Y157152D01*
X185724Y157231D01*
X185796Y157306D01*
X185804Y157324D01*
X185817Y157339D01*
X185856Y157435D01*
X185899Y157529D01*
X185901Y157549D01*
X185909Y157567D01*
X185927Y157734D01*
X185927Y163319D01*
X186820Y164212D01*
X194180Y164212D01*
X195073Y163319D01*
X195073Y141481D01*
X194180Y140588D01*
X186820Y140588D01*
X185927Y141481D01*
X185927Y147066D01*
X185924Y147086D01*
X185926Y147105D01*
X185904Y147207D01*
X185888Y147309D01*
X185878Y147326D01*
X185874Y147346D01*
X185821Y147435D01*
X185772Y147526D01*
X185758Y147540D01*
X185748Y147557D01*
X185669Y147624D01*
X185594Y147696D01*
X185576Y147704D01*
X185561Y147717D01*
X185465Y147756D01*
X185371Y147799D01*
X185351Y147801D01*
X185333Y147809D01*
X185166Y147827D01*
X119557Y147827D01*
X119467Y147813D01*
X119376Y147805D01*
X119347Y147793D01*
X119315Y147788D01*
X119234Y147745D01*
X119150Y147709D01*
X119118Y147683D01*
X119097Y147672D01*
X119075Y147649D01*
X119019Y147604D01*
X104287Y132872D01*
X104245Y132814D01*
X104196Y132762D01*
X104174Y132715D01*
X104144Y132673D01*
X104122Y132604D01*
X104092Y132539D01*
X104086Y132487D01*
X104071Y132437D01*
X104073Y132366D01*
X104065Y132295D01*
X104076Y132244D01*
X104078Y132192D01*
X104102Y132124D01*
X104117Y132054D01*
X104144Y132009D01*
X104162Y131961D01*
X104207Y131905D01*
X104244Y131843D01*
X104283Y131809D01*
X104316Y131769D01*
X104376Y131730D01*
X104430Y131683D01*
X104479Y131664D01*
X104523Y131636D01*
X104592Y131618D01*
X104659Y131591D01*
X104730Y131583D01*
X104761Y131575D01*
X104784Y131577D01*
X104825Y131573D01*
X324614Y131573D01*
X324634Y131576D01*
X324653Y131574D01*
X324755Y131596D01*
X324857Y131612D01*
X324874Y131622D01*
X324894Y131626D01*
X324983Y131679D01*
X325074Y131728D01*
X325088Y131742D01*
X325105Y131752D01*
X325172Y131831D01*
X325244Y131906D01*
X325252Y131924D01*
X325265Y131939D01*
X325304Y132035D01*
X325347Y132129D01*
X325349Y132149D01*
X325357Y132167D01*
X325375Y132334D01*
X325375Y135132D01*
X326268Y136025D01*
X340532Y136025D01*
X341425Y135132D01*
X341425Y118868D01*
X340532Y117975D01*
X326268Y117975D01*
X325375Y118868D01*
X325375Y121666D01*
X325372Y121686D01*
X325374Y121705D01*
X325352Y121807D01*
X325336Y121909D01*
X325326Y121926D01*
X325322Y121946D01*
X325269Y122035D01*
X325220Y122126D01*
X325206Y122140D01*
X325196Y122157D01*
X325117Y122224D01*
X325042Y122296D01*
X325024Y122304D01*
X325009Y122317D01*
X324913Y122356D01*
X324819Y122399D01*
X324799Y122401D01*
X324781Y122409D01*
X324614Y122427D01*
X107873Y122427D01*
X107783Y122413D01*
X107692Y122405D01*
X107663Y122393D01*
X107631Y122388D01*
X107550Y122345D01*
X107466Y122309D01*
X107434Y122283D01*
X107413Y122272D01*
X107391Y122249D01*
X107335Y122204D01*
X96159Y111028D01*
X96117Y110970D01*
X96068Y110918D01*
X96046Y110871D01*
X96016Y110829D01*
X95994Y110760D01*
X95964Y110695D01*
X95959Y110643D01*
X95943Y110593D01*
X95945Y110522D01*
X95937Y110451D01*
X95948Y110400D01*
X95950Y110348D01*
X95974Y110280D01*
X95989Y110210D01*
X96016Y110165D01*
X96034Y110117D01*
X96079Y110061D01*
X96116Y109999D01*
X96155Y109965D01*
X96188Y109925D01*
X96248Y109886D01*
X96302Y109839D01*
X96351Y109820D01*
X96395Y109792D01*
X96464Y109774D01*
X96531Y109747D01*
X96602Y109739D01*
X96633Y109731D01*
X96656Y109733D01*
X96697Y109729D01*
X185166Y109729D01*
X185186Y109732D01*
X185205Y109730D01*
X185307Y109752D01*
X185409Y109768D01*
X185426Y109778D01*
X185446Y109782D01*
X185535Y109835D01*
X185626Y109884D01*
X185640Y109898D01*
X185657Y109908D01*
X185724Y109987D01*
X185796Y110062D01*
X185804Y110080D01*
X185817Y110095D01*
X185856Y110191D01*
X185899Y110285D01*
X185901Y110305D01*
X185909Y110323D01*
X185927Y110490D01*
X185927Y115313D01*
X186820Y116206D01*
X194180Y116206D01*
X195073Y115313D01*
X195073Y99745D01*
X195084Y99675D01*
X195086Y99603D01*
X195104Y99554D01*
X195112Y99503D01*
X195146Y99439D01*
X195171Y99372D01*
X195203Y99331D01*
X195228Y99285D01*
X195280Y99236D01*
X195324Y99180D01*
X195368Y99152D01*
X195406Y99116D01*
X195471Y99086D01*
X195531Y99047D01*
X195582Y99034D01*
X195629Y99012D01*
X195700Y99004D01*
X195770Y98987D01*
X195822Y98991D01*
X195873Y98985D01*
X195944Y99000D01*
X196015Y99006D01*
X196063Y99026D01*
X196114Y99037D01*
X196175Y99074D01*
X196241Y99102D01*
X196297Y99147D01*
X196325Y99164D01*
X196340Y99181D01*
X196372Y99207D01*
X197896Y100731D01*
X197949Y100805D01*
X198009Y100875D01*
X198021Y100905D01*
X198040Y100931D01*
X198067Y101018D01*
X198101Y101103D01*
X198105Y101144D01*
X198112Y101166D01*
X198111Y101198D01*
X198119Y101269D01*
X198119Y103104D01*
X198115Y103127D01*
X198104Y103253D01*
X197837Y104592D01*
X197991Y104825D01*
X197998Y104840D01*
X198009Y104852D01*
X198049Y104952D01*
X198093Y105049D01*
X198095Y105065D01*
X198101Y105080D01*
X198119Y105247D01*
X198119Y105526D01*
X198404Y105811D01*
X198457Y105885D01*
X198517Y105955D01*
X198529Y105985D01*
X198548Y106011D01*
X198575Y106098D01*
X198609Y106183D01*
X198613Y106224D01*
X198620Y106246D01*
X198619Y106278D01*
X198627Y106349D01*
X198627Y115313D01*
X199520Y116206D01*
X206880Y116206D01*
X207773Y115313D01*
X207773Y104922D01*
X207777Y104899D01*
X207788Y104773D01*
X208055Y103434D01*
X207901Y103201D01*
X207894Y103186D01*
X207883Y103174D01*
X207843Y103074D01*
X207799Y102977D01*
X207797Y102961D01*
X207791Y102946D01*
X207773Y102779D01*
X207773Y93475D01*
X206880Y92582D01*
X202996Y92582D01*
X202906Y92568D01*
X202815Y92560D01*
X202786Y92548D01*
X202754Y92543D01*
X202673Y92500D01*
X202589Y92464D01*
X202557Y92438D01*
X202536Y92427D01*
X202514Y92404D01*
X202458Y92359D01*
X192394Y82295D01*
X89237Y82295D01*
X89167Y82284D01*
X89096Y82282D01*
X89046Y82264D01*
X88994Y82256D01*
X88932Y82223D01*
X88865Y82198D01*
X88823Y82165D01*
X88777Y82140D01*
X88728Y82089D01*
X88673Y82045D01*
X88644Y82001D01*
X88607Y81962D01*
X88577Y81898D01*
X88539Y81839D01*
X88526Y81787D01*
X88504Y81739D01*
X88496Y81669D01*
X88478Y81600D01*
X88482Y81547D01*
X88477Y81495D01*
X88492Y81425D01*
X88497Y81355D01*
X88517Y81306D01*
X88529Y81254D01*
X88565Y81194D01*
X88592Y81128D01*
X88628Y81089D01*
X88655Y81043D01*
X88709Y80997D01*
X88755Y80944D01*
X88817Y80904D01*
X88842Y80883D01*
X88863Y80875D01*
X88896Y80853D01*
X88984Y80826D01*
X89070Y80791D01*
X89110Y80787D01*
X89131Y80780D01*
X89164Y80781D01*
X89237Y80773D01*
X203991Y80773D01*
X204081Y80787D01*
X204172Y80795D01*
X204201Y80807D01*
X204233Y80812D01*
X204314Y80855D01*
X204398Y80891D01*
X204430Y80917D01*
X204451Y80928D01*
X204473Y80951D01*
X204529Y80996D01*
X211104Y87571D01*
X211157Y87645D01*
X211217Y87715D01*
X211229Y87745D01*
X211248Y87771D01*
X211275Y87858D01*
X211309Y87943D01*
X211313Y87984D01*
X211320Y88006D01*
X211319Y88038D01*
X211327Y88109D01*
X211327Y115313D01*
X212220Y116206D01*
X219580Y116206D01*
X220473Y115313D01*
X220473Y84006D01*
X208094Y71627D01*
X89237Y71627D01*
X89147Y71613D01*
X89056Y71605D01*
X89026Y71593D01*
X88994Y71588D01*
X88913Y71545D01*
X88829Y71509D01*
X88797Y71483D01*
X88777Y71472D01*
X88754Y71449D01*
X88699Y71404D01*
X86172Y68878D01*
X82998Y67563D01*
X79562Y67563D01*
X76388Y68878D01*
X73958Y71308D01*
X72834Y74022D01*
X72809Y74061D01*
X72794Y74104D01*
X72745Y74165D01*
X72704Y74231D01*
X72669Y74261D01*
X72640Y74296D01*
X72575Y74339D01*
X72515Y74388D01*
X72472Y74405D01*
X72433Y74429D01*
X72358Y74449D01*
X72285Y74476D01*
X72239Y74478D01*
X72195Y74490D01*
X72117Y74484D01*
X72039Y74487D01*
X71995Y74474D01*
X71949Y74470D01*
X71878Y74440D01*
X71803Y74418D01*
X71765Y74392D01*
X71723Y74374D01*
X71616Y74289D01*
X71601Y74278D01*
X71598Y74274D01*
X71592Y74269D01*
X70077Y72754D01*
X70065Y72738D01*
X70050Y72725D01*
X69994Y72638D01*
X69933Y72554D01*
X69927Y72535D01*
X69917Y72518D01*
X69891Y72418D01*
X69861Y72319D01*
X69861Y72299D01*
X69857Y72280D01*
X69865Y72177D01*
X69867Y72073D01*
X69874Y72054D01*
X69876Y72035D01*
X69916Y71940D01*
X69952Y71842D01*
X69964Y71827D01*
X69972Y71808D01*
X70077Y71677D01*
X70822Y70932D01*
X72137Y67758D01*
X72137Y64322D01*
X70822Y61148D01*
X68392Y58718D01*
X67516Y58355D01*
X67433Y58304D01*
X67347Y58258D01*
X67329Y58239D01*
X67307Y58225D01*
X67245Y58150D01*
X67178Y58080D01*
X67167Y58056D01*
X67150Y58036D01*
X67115Y57945D01*
X67074Y57857D01*
X67071Y57831D01*
X67062Y57806D01*
X67058Y57709D01*
X67047Y57612D01*
X67052Y57587D01*
X67051Y57561D01*
X67078Y57467D01*
X67099Y57372D01*
X67112Y57349D01*
X67120Y57324D01*
X67175Y57244D01*
X67225Y57161D01*
X67245Y57144D01*
X67260Y57122D01*
X67338Y57064D01*
X67412Y57001D01*
X67436Y56991D01*
X67457Y56976D01*
X67550Y56945D01*
X67640Y56909D01*
X67673Y56905D01*
X67691Y56899D01*
X67724Y56900D01*
X67807Y56890D01*
X216108Y56890D01*
X216198Y56905D01*
X216289Y56912D01*
X216319Y56925D01*
X216351Y56930D01*
X216432Y56973D01*
X216516Y57009D01*
X216548Y57034D01*
X216568Y57045D01*
X216591Y57069D01*
X216647Y57113D01*
X223204Y63671D01*
X223250Y63735D01*
X223270Y63756D01*
X223274Y63764D01*
X223317Y63815D01*
X223329Y63845D01*
X223348Y63871D01*
X223375Y63958D01*
X223409Y64043D01*
X223413Y64084D01*
X223420Y64106D01*
X223419Y64138D01*
X223427Y64209D01*
X223427Y105688D01*
X223804Y106065D01*
X223858Y106139D01*
X223917Y106209D01*
X223929Y106239D01*
X223948Y106265D01*
X223975Y106352D01*
X224009Y106437D01*
X224013Y106478D01*
X224020Y106500D01*
X224019Y106532D01*
X224027Y106603D01*
X224027Y115313D01*
X224920Y116206D01*
X232280Y116206D01*
X233173Y115313D01*
X233173Y93475D01*
X232796Y93098D01*
X232743Y93024D01*
X232683Y92955D01*
X232671Y92925D01*
X232652Y92899D01*
X232625Y92812D01*
X232591Y92727D01*
X232587Y92686D01*
X232580Y92664D01*
X232581Y92631D01*
X232573Y92560D01*
X232573Y60106D01*
X220212Y47745D01*
X63856Y47745D01*
X63739Y47726D01*
X63621Y47708D01*
X63618Y47706D01*
X63614Y47705D01*
X63508Y47649D01*
X63403Y47595D01*
X63400Y47592D01*
X63396Y47590D01*
X63314Y47504D01*
X63232Y47419D01*
X63230Y47415D01*
X63227Y47412D01*
X63177Y47304D01*
X63125Y47197D01*
X63125Y47193D01*
X63123Y47189D01*
X63110Y47071D01*
X63096Y46953D01*
X63096Y46948D01*
X63096Y46944D01*
X63099Y46931D01*
X63121Y46787D01*
X64517Y41578D01*
X64517Y34622D01*
X64050Y32879D01*
X64048Y32857D01*
X64040Y32837D01*
X64035Y32736D01*
X64025Y32635D01*
X64030Y32613D01*
X64029Y32591D01*
X64058Y32494D01*
X64080Y32395D01*
X64092Y32376D01*
X64098Y32355D01*
X64156Y32272D01*
X64209Y32185D01*
X64226Y32171D01*
X64238Y32153D01*
X64319Y32092D01*
X64397Y32027D01*
X64418Y32019D01*
X64435Y32006D01*
X64532Y31975D01*
X64626Y31938D01*
X64648Y31937D01*
X64669Y31930D01*
X64771Y31931D01*
X64872Y31926D01*
X64893Y31932D01*
X64915Y31932D01*
X65076Y31979D01*
X69737Y33910D01*
X75043Y33910D01*
X79944Y31879D01*
X83695Y28128D01*
X85726Y23227D01*
X85726Y17921D01*
X83695Y13020D01*
X79944Y9269D01*
X75043Y7238D01*
X69737Y7238D01*
X64836Y9269D01*
X61085Y13020D01*
X59054Y17921D01*
X59054Y19858D01*
X59043Y19928D01*
X59041Y20000D01*
X59023Y20049D01*
X59015Y20100D01*
X58981Y20164D01*
X58956Y20231D01*
X58924Y20272D01*
X58899Y20318D01*
X58847Y20367D01*
X58803Y20423D01*
X58759Y20451D01*
X58721Y20487D01*
X58656Y20517D01*
X58596Y20556D01*
X58545Y20569D01*
X58498Y20591D01*
X58427Y20599D01*
X58357Y20616D01*
X58305Y20612D01*
X58254Y20618D01*
X58183Y20603D01*
X58112Y20597D01*
X58064Y20577D01*
X58013Y20566D01*
X57952Y20529D01*
X57886Y20501D01*
X57830Y20456D01*
X57802Y20439D01*
X57787Y20422D01*
X57755Y20396D01*
X54320Y16961D01*
X48297Y13484D01*
X41578Y11683D01*
X34622Y11683D01*
X27903Y13484D01*
X21880Y16961D01*
X16961Y21880D01*
X13484Y27903D01*
X11683Y34622D01*
X11683Y41578D01*
X13484Y48297D01*
X16961Y54320D01*
X21880Y59239D01*
X27903Y62716D01*
X34622Y64517D01*
X41578Y64517D01*
X45469Y63474D01*
X45588Y63462D01*
X45705Y63449D01*
X45710Y63450D01*
X45714Y63450D01*
X45829Y63476D01*
X45946Y63501D01*
X45949Y63504D01*
X45954Y63505D01*
X46055Y63567D01*
X46157Y63628D01*
X46160Y63631D01*
X46163Y63633D01*
X46240Y63724D01*
X46317Y63815D01*
X46318Y63818D01*
X46321Y63822D01*
X46364Y63932D01*
X46409Y64043D01*
X46409Y64048D01*
X46411Y64051D01*
X46411Y64064D01*
X46427Y64209D01*
X46427Y75754D01*
X49329Y78656D01*
X54640Y83967D01*
X54693Y84041D01*
X54753Y84111D01*
X54765Y84141D01*
X54784Y84167D01*
X54811Y84254D01*
X54845Y84339D01*
X54849Y84380D01*
X54856Y84402D01*
X54855Y84434D01*
X54863Y84505D01*
X54863Y88078D01*
X56178Y91252D01*
X58608Y93682D01*
X61782Y94997D01*
X65218Y94997D01*
X68392Y93682D01*
X70822Y91252D01*
X71798Y88897D01*
X71822Y88858D01*
X71837Y88815D01*
X71886Y88754D01*
X71927Y88688D01*
X71962Y88659D01*
X71991Y88623D01*
X72057Y88581D01*
X72117Y88531D01*
X72159Y88515D01*
X72198Y88490D01*
X72274Y88471D01*
X72346Y88443D01*
X72392Y88441D01*
X72437Y88430D01*
X72514Y88436D01*
X72592Y88432D01*
X72636Y88445D01*
X72682Y88449D01*
X72753Y88479D01*
X72828Y88501D01*
X72866Y88527D01*
X72908Y88545D01*
X73015Y88631D01*
X73030Y88641D01*
X73033Y88645D01*
X73039Y88650D01*
X74449Y90060D01*
X74461Y90076D01*
X74476Y90089D01*
X74532Y90176D01*
X74593Y90260D01*
X74599Y90279D01*
X74609Y90296D01*
X74635Y90396D01*
X74665Y90495D01*
X74665Y90515D01*
X74669Y90534D01*
X74661Y90637D01*
X74659Y90741D01*
X74652Y90760D01*
X74650Y90779D01*
X74610Y90875D01*
X74574Y90972D01*
X74562Y90987D01*
X74554Y91006D01*
X74449Y91137D01*
X73958Y91628D01*
X72643Y94802D01*
X72643Y98238D01*
X73810Y101055D01*
X73820Y101099D01*
X73840Y101141D01*
X73848Y101218D01*
X73866Y101294D01*
X73862Y101340D01*
X73867Y101385D01*
X73850Y101462D01*
X73843Y101539D01*
X73824Y101581D01*
X73815Y101626D01*
X73775Y101693D01*
X73743Y101764D01*
X73712Y101798D01*
X73688Y101837D01*
X73629Y101888D01*
X73577Y101945D01*
X73536Y101967D01*
X73502Y101997D01*
X73429Y102026D01*
X73361Y102063D01*
X73316Y102072D01*
X73273Y102089D01*
X73137Y102104D01*
X73119Y102107D01*
X73114Y102106D01*
X73107Y102107D01*
X71457Y102107D01*
X71367Y102093D01*
X71276Y102085D01*
X71246Y102073D01*
X71214Y102068D01*
X71133Y102025D01*
X71049Y101989D01*
X71017Y101963D01*
X70997Y101952D01*
X70974Y101929D01*
X70919Y101884D01*
X68392Y99358D01*
X65218Y98043D01*
X61782Y98043D01*
X58608Y99358D01*
X56178Y101788D01*
X56001Y102214D01*
X55967Y102270D01*
X55941Y102330D01*
X55889Y102395D01*
X55872Y102423D01*
X55857Y102436D01*
X55836Y102461D01*
X7460Y150837D01*
X7402Y150879D01*
X7350Y150929D01*
X7303Y150951D01*
X7261Y150981D01*
X7192Y151002D01*
X7127Y151032D01*
X7075Y151038D01*
X7025Y151053D01*
X6954Y151051D01*
X6883Y151059D01*
X6832Y151048D01*
X6780Y151047D01*
X6712Y151022D01*
X6642Y151007D01*
X6598Y150980D01*
X6549Y150963D01*
X6493Y150918D01*
X6431Y150881D01*
X6397Y150841D01*
X6357Y150809D01*
X6318Y150749D01*
X6271Y150694D01*
X6252Y150646D01*
X6224Y150602D01*
X6206Y150532D01*
X6179Y150466D01*
X6171Y150395D01*
X6163Y150363D01*
X6165Y150340D01*
X6161Y150299D01*
X6161Y1000D01*
X6164Y980D01*
X6162Y961D01*
X6184Y859D01*
X6200Y757D01*
X6210Y740D01*
X6214Y720D01*
X6267Y631D01*
X6316Y540D01*
X6330Y526D01*
X6340Y509D01*
X6419Y442D01*
X6494Y371D01*
X6512Y362D01*
X6527Y349D01*
X6623Y310D01*
X6717Y267D01*
X6737Y265D01*
X6755Y257D01*
X6922Y239D01*
X539078Y239D01*
X539098Y242D01*
G37*
%LPC*%
G36*
X212220Y140588D02*
X212220Y140588D01*
X211327Y141481D01*
X211327Y176891D01*
X211313Y176981D01*
X211305Y177072D01*
X211293Y177101D01*
X211288Y177133D01*
X211245Y177214D01*
X211209Y177298D01*
X211183Y177330D01*
X211172Y177351D01*
X211149Y177373D01*
X211104Y177429D01*
X201329Y187204D01*
X201255Y187257D01*
X201185Y187317D01*
X201155Y187329D01*
X201129Y187348D01*
X201042Y187375D01*
X200957Y187409D01*
X200916Y187413D01*
X200894Y187420D01*
X200862Y187419D01*
X200791Y187427D01*
X190106Y187427D01*
X173427Y204106D01*
X173427Y222875D01*
X173416Y222946D01*
X173414Y223018D01*
X173396Y223067D01*
X173388Y223118D01*
X173354Y223181D01*
X173329Y223249D01*
X173297Y223289D01*
X173272Y223335D01*
X173220Y223385D01*
X173176Y223441D01*
X173132Y223469D01*
X173094Y223505D01*
X173029Y223535D01*
X172969Y223574D01*
X172918Y223586D01*
X172871Y223608D01*
X172800Y223616D01*
X172730Y223634D01*
X172678Y223630D01*
X172627Y223636D01*
X172556Y223620D01*
X172485Y223615D01*
X172437Y223594D01*
X172386Y223583D01*
X172325Y223546D01*
X172259Y223518D01*
X172203Y223474D01*
X172175Y223457D01*
X172160Y223439D01*
X172128Y223414D01*
X168677Y219963D01*
X161523Y219963D01*
X156463Y225023D01*
X156463Y232177D01*
X159414Y235128D01*
X159455Y235186D01*
X159505Y235238D01*
X159527Y235285D01*
X159557Y235327D01*
X159578Y235396D01*
X159608Y235461D01*
X159614Y235513D01*
X159629Y235563D01*
X159628Y235634D01*
X159636Y235705D01*
X159624Y235756D01*
X159623Y235808D01*
X159598Y235876D01*
X159583Y235946D01*
X159557Y235991D01*
X159539Y236039D01*
X159494Y236095D01*
X159457Y236157D01*
X159418Y236191D01*
X159385Y236231D01*
X159325Y236270D01*
X159270Y236317D01*
X159222Y236336D01*
X159178Y236364D01*
X159109Y236382D01*
X159042Y236409D01*
X158971Y236417D01*
X158940Y236425D01*
X158916Y236423D01*
X158875Y236427D01*
X145925Y236427D01*
X145854Y236416D01*
X145782Y236414D01*
X145733Y236396D01*
X145682Y236388D01*
X145619Y236354D01*
X145551Y236329D01*
X145511Y236297D01*
X145465Y236272D01*
X145415Y236220D01*
X145359Y236176D01*
X145331Y236132D01*
X145295Y236094D01*
X145265Y236029D01*
X145226Y235969D01*
X145214Y235918D01*
X145192Y235871D01*
X145184Y235800D01*
X145166Y235730D01*
X145170Y235678D01*
X145164Y235627D01*
X145180Y235556D01*
X145185Y235485D01*
X145206Y235437D01*
X145217Y235386D01*
X145254Y235325D01*
X145282Y235259D01*
X145326Y235203D01*
X145343Y235175D01*
X145361Y235160D01*
X145386Y235128D01*
X148337Y232177D01*
X148337Y225023D01*
X143277Y219963D01*
X136123Y219963D01*
X131063Y225023D01*
X131063Y232177D01*
X134014Y235128D01*
X134055Y235186D01*
X134105Y235238D01*
X134127Y235285D01*
X134157Y235327D01*
X134178Y235396D01*
X134208Y235461D01*
X134214Y235513D01*
X134229Y235563D01*
X134228Y235634D01*
X134236Y235705D01*
X134224Y235756D01*
X134223Y235808D01*
X134198Y235876D01*
X134183Y235946D01*
X134157Y235991D01*
X134139Y236039D01*
X134094Y236095D01*
X134057Y236157D01*
X134018Y236191D01*
X133985Y236231D01*
X133925Y236270D01*
X133870Y236317D01*
X133822Y236336D01*
X133778Y236364D01*
X133709Y236382D01*
X133642Y236409D01*
X133571Y236417D01*
X133540Y236425D01*
X133516Y236423D01*
X133475Y236427D01*
X120525Y236427D01*
X120454Y236416D01*
X120382Y236414D01*
X120333Y236396D01*
X120282Y236388D01*
X120219Y236354D01*
X120151Y236329D01*
X120111Y236297D01*
X120065Y236272D01*
X120015Y236220D01*
X119959Y236176D01*
X119931Y236132D01*
X119895Y236094D01*
X119865Y236029D01*
X119826Y235969D01*
X119814Y235918D01*
X119792Y235871D01*
X119784Y235800D01*
X119766Y235730D01*
X119770Y235678D01*
X119764Y235627D01*
X119780Y235556D01*
X119785Y235485D01*
X119806Y235437D01*
X119817Y235386D01*
X119854Y235325D01*
X119882Y235259D01*
X119926Y235203D01*
X119943Y235175D01*
X119961Y235160D01*
X119986Y235128D01*
X122937Y232177D01*
X122937Y225023D01*
X117877Y219963D01*
X110723Y219963D01*
X105663Y225023D01*
X105663Y232177D01*
X108614Y235128D01*
X108655Y235186D01*
X108705Y235238D01*
X108727Y235285D01*
X108757Y235327D01*
X108778Y235396D01*
X108808Y235461D01*
X108814Y235513D01*
X108829Y235563D01*
X108828Y235634D01*
X108836Y235705D01*
X108824Y235756D01*
X108823Y235808D01*
X108798Y235876D01*
X108783Y235946D01*
X108757Y235991D01*
X108739Y236039D01*
X108694Y236095D01*
X108657Y236157D01*
X108618Y236191D01*
X108585Y236231D01*
X108525Y236270D01*
X108470Y236317D01*
X108422Y236336D01*
X108378Y236364D01*
X108309Y236382D01*
X108242Y236409D01*
X108171Y236417D01*
X108140Y236425D01*
X108116Y236423D01*
X108075Y236427D01*
X101106Y236427D01*
X92393Y245140D01*
X92319Y245193D01*
X92249Y245253D01*
X92219Y245265D01*
X92193Y245284D01*
X92106Y245311D01*
X92021Y245345D01*
X91980Y245349D01*
X91958Y245356D01*
X91926Y245355D01*
X91855Y245363D01*
X85323Y245363D01*
X80263Y250423D01*
X80263Y257577D01*
X85323Y262637D01*
X92477Y262637D01*
X97537Y257577D01*
X97537Y253245D01*
X97551Y253155D01*
X97559Y253064D01*
X97571Y253035D01*
X97576Y253003D01*
X97619Y252922D01*
X97655Y252838D01*
X97681Y252806D01*
X97692Y252785D01*
X97715Y252763D01*
X97760Y252707D01*
X104671Y245796D01*
X104745Y245743D01*
X104815Y245683D01*
X104845Y245671D01*
X104871Y245652D01*
X104958Y245625D01*
X105043Y245591D01*
X105084Y245587D01*
X105106Y245580D01*
X105138Y245581D01*
X105209Y245573D01*
X108675Y245573D01*
X108746Y245584D01*
X108818Y245586D01*
X108867Y245604D01*
X108918Y245612D01*
X108981Y245646D01*
X109049Y245671D01*
X109089Y245703D01*
X109135Y245728D01*
X109185Y245780D01*
X109241Y245824D01*
X109269Y245868D01*
X109305Y245906D01*
X109335Y245971D01*
X109374Y246031D01*
X109386Y246082D01*
X109408Y246129D01*
X109416Y246200D01*
X109434Y246270D01*
X109430Y246322D01*
X109436Y246373D01*
X109420Y246444D01*
X109415Y246515D01*
X109394Y246563D01*
X109383Y246614D01*
X109346Y246675D01*
X109318Y246741D01*
X109274Y246797D01*
X109257Y246825D01*
X109239Y246840D01*
X109214Y246872D01*
X105663Y250423D01*
X105663Y257577D01*
X110723Y262637D01*
X116155Y262637D01*
X116245Y262651D01*
X116336Y262659D01*
X116365Y262671D01*
X116397Y262676D01*
X116478Y262719D01*
X116562Y262755D01*
X116594Y262781D01*
X116615Y262792D01*
X116637Y262815D01*
X116693Y262860D01*
X128406Y274573D01*
X196894Y274573D01*
X207573Y263894D01*
X207573Y259725D01*
X207584Y259654D01*
X207586Y259582D01*
X207604Y259533D01*
X207612Y259482D01*
X207646Y259419D01*
X207671Y259351D01*
X207703Y259311D01*
X207728Y259265D01*
X207780Y259215D01*
X207824Y259159D01*
X207868Y259131D01*
X207906Y259095D01*
X207971Y259065D01*
X208031Y259026D01*
X208082Y259014D01*
X208129Y258992D01*
X208200Y258984D01*
X208270Y258966D01*
X208322Y258970D01*
X208373Y258964D01*
X208444Y258980D01*
X208515Y258985D01*
X208563Y259006D01*
X208614Y259017D01*
X208675Y259054D01*
X208741Y259082D01*
X208797Y259126D01*
X208825Y259143D01*
X208840Y259161D01*
X208872Y259186D01*
X212323Y262637D01*
X219477Y262637D01*
X224537Y257577D01*
X224537Y250423D01*
X219477Y245363D01*
X212323Y245363D01*
X208872Y248814D01*
X208814Y248855D01*
X208762Y248905D01*
X208715Y248927D01*
X208673Y248957D01*
X208604Y248978D01*
X208539Y249008D01*
X208487Y249014D01*
X208437Y249029D01*
X208366Y249028D01*
X208295Y249036D01*
X208244Y249024D01*
X208192Y249023D01*
X208124Y248998D01*
X208054Y248983D01*
X208009Y248957D01*
X207961Y248939D01*
X207905Y248894D01*
X207843Y248857D01*
X207809Y248818D01*
X207769Y248785D01*
X207730Y248725D01*
X207683Y248670D01*
X207664Y248622D01*
X207636Y248578D01*
X207618Y248509D01*
X207591Y248442D01*
X207583Y248371D01*
X207575Y248340D01*
X207577Y248316D01*
X207573Y248275D01*
X207573Y234325D01*
X207584Y234254D01*
X207586Y234182D01*
X207604Y234133D01*
X207612Y234082D01*
X207646Y234019D01*
X207671Y233951D01*
X207703Y233911D01*
X207728Y233865D01*
X207780Y233815D01*
X207824Y233759D01*
X207868Y233731D01*
X207906Y233695D01*
X207971Y233665D01*
X208031Y233626D01*
X208082Y233614D01*
X208129Y233592D01*
X208200Y233584D01*
X208270Y233566D01*
X208322Y233570D01*
X208373Y233564D01*
X208444Y233580D01*
X208515Y233585D01*
X208563Y233606D01*
X208614Y233617D01*
X208675Y233654D01*
X208741Y233682D01*
X208797Y233726D01*
X208825Y233743D01*
X208840Y233761D01*
X208872Y233786D01*
X212323Y237237D01*
X219477Y237237D01*
X224537Y232177D01*
X224537Y225023D01*
X219477Y219963D01*
X212323Y219963D01*
X208872Y223414D01*
X208814Y223455D01*
X208762Y223505D01*
X208715Y223527D01*
X208673Y223557D01*
X208604Y223578D01*
X208539Y223608D01*
X208487Y223614D01*
X208437Y223629D01*
X208366Y223628D01*
X208295Y223636D01*
X208244Y223624D01*
X208192Y223623D01*
X208124Y223598D01*
X208054Y223583D01*
X208009Y223557D01*
X207961Y223539D01*
X207905Y223494D01*
X207843Y223457D01*
X207809Y223418D01*
X207769Y223385D01*
X207730Y223325D01*
X207683Y223270D01*
X207664Y223222D01*
X207636Y223178D01*
X207618Y223109D01*
X207591Y223042D01*
X207583Y222971D01*
X207575Y222940D01*
X207577Y222916D01*
X207573Y222875D01*
X207573Y210209D01*
X207587Y210119D01*
X207595Y210028D01*
X207607Y209999D01*
X207612Y209967D01*
X207655Y209886D01*
X207691Y209802D01*
X207717Y209770D01*
X207728Y209749D01*
X207751Y209727D01*
X207796Y209671D01*
X233173Y184294D01*
X233173Y141481D01*
X232280Y140588D01*
X224920Y140588D01*
X224027Y141481D01*
X224027Y180191D01*
X224013Y180281D01*
X224005Y180372D01*
X223993Y180401D01*
X223988Y180433D01*
X223945Y180514D01*
X223909Y180598D01*
X223883Y180630D01*
X223872Y180651D01*
X223849Y180673D01*
X223804Y180729D01*
X198427Y206106D01*
X198427Y222475D01*
X198416Y222546D01*
X198414Y222618D01*
X198396Y222667D01*
X198388Y222718D01*
X198354Y222781D01*
X198329Y222849D01*
X198297Y222889D01*
X198272Y222935D01*
X198220Y222985D01*
X198176Y223041D01*
X198132Y223069D01*
X198094Y223105D01*
X198029Y223135D01*
X197969Y223174D01*
X197918Y223186D01*
X197871Y223208D01*
X197800Y223216D01*
X197730Y223234D01*
X197678Y223230D01*
X197627Y223236D01*
X197556Y223220D01*
X197485Y223215D01*
X197437Y223194D01*
X197386Y223183D01*
X197325Y223146D01*
X197259Y223118D01*
X197203Y223074D01*
X197175Y223057D01*
X197160Y223039D01*
X197128Y223014D01*
X194077Y219963D01*
X186923Y219963D01*
X183872Y223014D01*
X183814Y223055D01*
X183762Y223105D01*
X183715Y223127D01*
X183673Y223157D01*
X183604Y223178D01*
X183539Y223208D01*
X183487Y223214D01*
X183437Y223229D01*
X183366Y223228D01*
X183295Y223236D01*
X183244Y223224D01*
X183192Y223223D01*
X183124Y223198D01*
X183054Y223183D01*
X183009Y223157D01*
X182961Y223139D01*
X182905Y223094D01*
X182843Y223057D01*
X182809Y223018D01*
X182769Y222985D01*
X182730Y222925D01*
X182683Y222870D01*
X182664Y222822D01*
X182636Y222778D01*
X182618Y222709D01*
X182591Y222642D01*
X182583Y222571D01*
X182575Y222540D01*
X182577Y222516D01*
X182573Y222475D01*
X182573Y208209D01*
X182587Y208119D01*
X182595Y208028D01*
X182607Y207999D01*
X182612Y207967D01*
X182655Y207886D01*
X182691Y207802D01*
X182717Y207770D01*
X182728Y207749D01*
X182751Y207727D01*
X182796Y207671D01*
X193671Y196796D01*
X193745Y196743D01*
X193815Y196683D01*
X193845Y196671D01*
X193871Y196652D01*
X193958Y196625D01*
X194043Y196591D01*
X194084Y196587D01*
X194106Y196580D01*
X194138Y196581D01*
X194209Y196573D01*
X204894Y196573D01*
X220473Y180994D01*
X220473Y141481D01*
X219580Y140588D01*
X212220Y140588D01*
G37*
%LPD*%
%LPC*%
G36*
X345268Y67175D02*
X345268Y67175D01*
X344375Y68068D01*
X344375Y84332D01*
X345268Y85225D01*
X348234Y85225D01*
X348254Y85228D01*
X348273Y85226D01*
X348375Y85248D01*
X348477Y85264D01*
X348494Y85274D01*
X348514Y85278D01*
X348603Y85331D01*
X348694Y85380D01*
X348708Y85394D01*
X348725Y85404D01*
X348792Y85483D01*
X348864Y85558D01*
X348872Y85576D01*
X348885Y85591D01*
X348924Y85687D01*
X348967Y85781D01*
X348969Y85801D01*
X348977Y85819D01*
X348995Y85986D01*
X348995Y99430D01*
X468229Y218664D01*
X468271Y218722D01*
X468320Y218774D01*
X468342Y218821D01*
X468372Y218863D01*
X468394Y218932D01*
X468424Y218997D01*
X468430Y219049D01*
X468445Y219099D01*
X468443Y219170D01*
X468451Y219241D01*
X468440Y219292D01*
X468438Y219344D01*
X468414Y219412D01*
X468399Y219482D01*
X468372Y219526D01*
X468354Y219575D01*
X468309Y219631D01*
X468272Y219693D01*
X468233Y219727D01*
X468200Y219767D01*
X468140Y219806D01*
X468086Y219853D01*
X468037Y219872D01*
X467993Y219900D01*
X467924Y219918D01*
X467857Y219945D01*
X467786Y219953D01*
X467755Y219961D01*
X467732Y219959D01*
X467691Y219963D01*
X466323Y219963D01*
X461263Y225023D01*
X461263Y232177D01*
X466323Y237237D01*
X473477Y237237D01*
X478537Y232177D01*
X478537Y230809D01*
X478548Y230740D01*
X478550Y230669D01*
X478568Y230619D01*
X478576Y230567D01*
X478609Y230504D01*
X478634Y230438D01*
X478667Y230396D01*
X478692Y230349D01*
X478743Y230301D01*
X478787Y230245D01*
X478831Y230216D01*
X478870Y230180D01*
X478934Y230150D01*
X478993Y230112D01*
X479045Y230099D01*
X479093Y230076D01*
X479163Y230068D01*
X479232Y230051D01*
X479285Y230055D01*
X479337Y230049D01*
X479407Y230064D01*
X479477Y230069D01*
X479526Y230090D01*
X479578Y230101D01*
X479638Y230138D01*
X479704Y230165D01*
X479743Y230200D01*
X479789Y230228D01*
X479835Y230281D01*
X479888Y230328D01*
X479928Y230390D01*
X479949Y230414D01*
X479949Y230415D01*
X479957Y230436D01*
X479979Y230469D01*
X480006Y230557D01*
X480041Y230643D01*
X480045Y230682D01*
X480052Y230704D01*
X480051Y230736D01*
X480059Y230809D01*
X480059Y244210D01*
X486440Y250591D01*
X486493Y250665D01*
X486553Y250735D01*
X486565Y250765D01*
X486584Y250791D01*
X486611Y250878D01*
X486645Y250963D01*
X486649Y251004D01*
X486656Y251026D01*
X486655Y251058D01*
X486663Y251129D01*
X486663Y257577D01*
X491723Y262637D01*
X498877Y262637D01*
X503937Y257577D01*
X503937Y250423D01*
X498877Y245363D01*
X494461Y245363D01*
X494371Y245349D01*
X494280Y245341D01*
X494251Y245329D01*
X494219Y245324D01*
X494138Y245281D01*
X494054Y245245D01*
X494022Y245219D01*
X494001Y245208D01*
X493999Y245207D01*
X493999Y245206D01*
X493979Y245185D01*
X493923Y245140D01*
X489428Y240645D01*
X489375Y240571D01*
X489315Y240501D01*
X489303Y240471D01*
X489284Y240445D01*
X489257Y240358D01*
X489223Y240273D01*
X489219Y240232D01*
X489212Y240210D01*
X489213Y240178D01*
X489205Y240107D01*
X489205Y236557D01*
X489216Y236486D01*
X489218Y236414D01*
X489236Y236365D01*
X489244Y236314D01*
X489278Y236251D01*
X489303Y236183D01*
X489335Y236143D01*
X489360Y236097D01*
X489412Y236047D01*
X489456Y235991D01*
X489500Y235963D01*
X489538Y235927D01*
X489603Y235897D01*
X489663Y235858D01*
X489714Y235846D01*
X489761Y235824D01*
X489832Y235816D01*
X489902Y235798D01*
X489954Y235802D01*
X490005Y235796D01*
X490076Y235812D01*
X490147Y235817D01*
X490195Y235838D01*
X490246Y235849D01*
X490307Y235886D01*
X490373Y235914D01*
X490429Y235958D01*
X490457Y235975D01*
X490472Y235993D01*
X490504Y236018D01*
X491723Y237237D01*
X498877Y237237D01*
X503937Y232177D01*
X503937Y225023D01*
X498877Y219963D01*
X491723Y219963D01*
X487631Y224055D01*
X487614Y224067D01*
X487602Y224082D01*
X487515Y224138D01*
X487431Y224199D01*
X487412Y224205D01*
X487395Y224215D01*
X487295Y224241D01*
X487196Y224271D01*
X487176Y224271D01*
X487157Y224275D01*
X487054Y224267D01*
X486950Y224265D01*
X486931Y224258D01*
X486911Y224256D01*
X486816Y224216D01*
X486719Y224180D01*
X486703Y224168D01*
X486685Y224160D01*
X486554Y224055D01*
X486303Y223804D01*
X358364Y95865D01*
X358311Y95791D01*
X358251Y95721D01*
X358239Y95691D01*
X358220Y95665D01*
X358193Y95578D01*
X358159Y95493D01*
X358155Y95452D01*
X358148Y95430D01*
X358149Y95398D01*
X358141Y95327D01*
X358141Y85986D01*
X358144Y85966D01*
X358142Y85947D01*
X358164Y85845D01*
X358180Y85743D01*
X358190Y85726D01*
X358194Y85706D01*
X358247Y85617D01*
X358296Y85526D01*
X358310Y85512D01*
X358320Y85495D01*
X358399Y85428D01*
X358474Y85356D01*
X358492Y85348D01*
X358507Y85335D01*
X358603Y85296D01*
X358697Y85253D01*
X358717Y85251D01*
X358735Y85243D01*
X358902Y85225D01*
X359532Y85225D01*
X360425Y84332D01*
X360425Y68068D01*
X359532Y67175D01*
X345268Y67175D01*
G37*
%LPD*%
%LPC*%
G36*
X326268Y67175D02*
X326268Y67175D01*
X325375Y68068D01*
X325375Y70866D01*
X325372Y70886D01*
X325374Y70905D01*
X325352Y71007D01*
X325336Y71109D01*
X325326Y71126D01*
X325322Y71146D01*
X325269Y71235D01*
X325220Y71326D01*
X325206Y71340D01*
X325196Y71357D01*
X325117Y71424D01*
X325042Y71496D01*
X325024Y71504D01*
X325009Y71517D01*
X324913Y71556D01*
X324819Y71599D01*
X324799Y71601D01*
X324781Y71609D01*
X324614Y71627D01*
X266549Y71627D01*
X266459Y71613D01*
X266368Y71605D01*
X266339Y71593D01*
X266307Y71588D01*
X266226Y71545D01*
X266142Y71509D01*
X266110Y71483D01*
X266089Y71472D01*
X266067Y71449D01*
X266011Y71404D01*
X264401Y69794D01*
X261623Y68643D01*
X258617Y68643D01*
X255839Y69794D01*
X253714Y71919D01*
X252563Y74697D01*
X252563Y77703D01*
X253714Y80481D01*
X255839Y82606D01*
X258617Y83757D01*
X261623Y83757D01*
X264401Y82606D01*
X266011Y80996D01*
X266085Y80943D01*
X266155Y80883D01*
X266185Y80871D01*
X266211Y80852D01*
X266298Y80825D01*
X266383Y80791D01*
X266424Y80787D01*
X266446Y80780D01*
X266478Y80781D01*
X266549Y80773D01*
X324614Y80773D01*
X324634Y80776D01*
X324653Y80774D01*
X324755Y80796D01*
X324857Y80812D01*
X324874Y80822D01*
X324894Y80826D01*
X324983Y80879D01*
X325074Y80928D01*
X325088Y80942D01*
X325105Y80952D01*
X325172Y81031D01*
X325244Y81106D01*
X325252Y81124D01*
X325265Y81139D01*
X325304Y81235D01*
X325347Y81329D01*
X325349Y81349D01*
X325357Y81367D01*
X325375Y81534D01*
X325375Y84332D01*
X326268Y85225D01*
X340532Y85225D01*
X341425Y84332D01*
X341425Y68068D01*
X340532Y67175D01*
X326268Y67175D01*
G37*
%LPD*%
%LPC*%
G36*
X326268Y168775D02*
X326268Y168775D01*
X325375Y169668D01*
X325375Y173666D01*
X325372Y173686D01*
X325374Y173705D01*
X325352Y173807D01*
X325336Y173909D01*
X325326Y173926D01*
X325322Y173946D01*
X325269Y174035D01*
X325220Y174126D01*
X325206Y174140D01*
X325196Y174157D01*
X325117Y174224D01*
X325042Y174296D01*
X325024Y174304D01*
X325009Y174317D01*
X324913Y174356D01*
X324819Y174399D01*
X324799Y174401D01*
X324781Y174409D01*
X324614Y174427D01*
X301429Y174427D01*
X301339Y174413D01*
X301248Y174405D01*
X301219Y174393D01*
X301187Y174388D01*
X301106Y174345D01*
X301022Y174309D01*
X300990Y174283D01*
X300969Y174272D01*
X300947Y174249D01*
X300891Y174204D01*
X299281Y172594D01*
X296503Y171443D01*
X293497Y171443D01*
X290719Y172594D01*
X288594Y174719D01*
X287443Y177497D01*
X287443Y180503D01*
X288594Y183281D01*
X290719Y185406D01*
X293497Y186557D01*
X296503Y186557D01*
X299281Y185406D01*
X300891Y183796D01*
X300965Y183743D01*
X301035Y183683D01*
X301065Y183671D01*
X301091Y183652D01*
X301178Y183625D01*
X301263Y183591D01*
X301304Y183587D01*
X301326Y183580D01*
X301358Y183581D01*
X301429Y183573D01*
X324614Y183573D01*
X324634Y183576D01*
X324653Y183574D01*
X324755Y183596D01*
X324857Y183612D01*
X324874Y183622D01*
X324894Y183626D01*
X324983Y183679D01*
X325074Y183728D01*
X325088Y183742D01*
X325105Y183752D01*
X325172Y183831D01*
X325244Y183906D01*
X325252Y183924D01*
X325265Y183939D01*
X325304Y184035D01*
X325347Y184129D01*
X325349Y184149D01*
X325357Y184167D01*
X325375Y184334D01*
X325375Y185932D01*
X326268Y186825D01*
X340532Y186825D01*
X341425Y185932D01*
X341425Y169668D01*
X340532Y168775D01*
X326268Y168775D01*
G37*
%LPD*%
%LPC*%
G36*
X237723Y219963D02*
X237723Y219963D01*
X232663Y225023D01*
X232663Y232177D01*
X237723Y237237D01*
X244877Y237237D01*
X249937Y232177D01*
X249937Y225023D01*
X244877Y219963D01*
X237723Y219963D01*
G37*
%LPD*%
%LPC*%
G36*
X440923Y219963D02*
X440923Y219963D01*
X435863Y225023D01*
X435863Y232177D01*
X440923Y237237D01*
X448077Y237237D01*
X453137Y232177D01*
X453137Y225023D01*
X448077Y219963D01*
X440923Y219963D01*
G37*
%LPD*%
%LPC*%
G36*
X339323Y245363D02*
X339323Y245363D01*
X334263Y250423D01*
X334263Y257577D01*
X339323Y262637D01*
X346477Y262637D01*
X351537Y257577D01*
X351537Y250423D01*
X346477Y245363D01*
X339323Y245363D01*
G37*
%LPD*%
%LPC*%
G36*
X313923Y245363D02*
X313923Y245363D01*
X308863Y250423D01*
X308863Y257577D01*
X313923Y262637D01*
X321077Y262637D01*
X326137Y257577D01*
X326137Y250423D01*
X321077Y245363D01*
X313923Y245363D01*
G37*
%LPD*%
%LPC*%
G36*
X415523Y245363D02*
X415523Y245363D01*
X410463Y250423D01*
X410463Y257577D01*
X415523Y262637D01*
X422677Y262637D01*
X427737Y257577D01*
X427737Y250423D01*
X422677Y245363D01*
X415523Y245363D01*
G37*
%LPD*%
%LPC*%
G36*
X288523Y245363D02*
X288523Y245363D01*
X283463Y250423D01*
X283463Y257577D01*
X288523Y262637D01*
X295677Y262637D01*
X300737Y257577D01*
X300737Y250423D01*
X295677Y245363D01*
X288523Y245363D01*
G37*
%LPD*%
%LPC*%
G36*
X237723Y245363D02*
X237723Y245363D01*
X232663Y250423D01*
X232663Y257577D01*
X237723Y262637D01*
X244877Y262637D01*
X249937Y257577D01*
X249937Y250423D01*
X244877Y245363D01*
X237723Y245363D01*
G37*
%LPD*%
%LPC*%
G36*
X440923Y245363D02*
X440923Y245363D01*
X435863Y250423D01*
X435863Y257577D01*
X440923Y262637D01*
X448077Y262637D01*
X453137Y257577D01*
X453137Y250423D01*
X448077Y245363D01*
X440923Y245363D01*
G37*
%LPD*%
%LPC*%
G36*
X466323Y245363D02*
X466323Y245363D01*
X461263Y250423D01*
X461263Y257577D01*
X466323Y262637D01*
X473477Y262637D01*
X478537Y257577D01*
X478537Y250423D01*
X473477Y245363D01*
X466323Y245363D01*
G37*
%LPD*%
%LPC*%
G36*
X390123Y245363D02*
X390123Y245363D01*
X385063Y250423D01*
X385063Y257577D01*
X390123Y262637D01*
X397277Y262637D01*
X402337Y257577D01*
X402337Y250423D01*
X397277Y245363D01*
X390123Y245363D01*
G37*
%LPD*%
%LPC*%
G36*
X263123Y245363D02*
X263123Y245363D01*
X258063Y250423D01*
X258063Y257577D01*
X263123Y262637D01*
X270277Y262637D01*
X275337Y257577D01*
X275337Y250423D01*
X270277Y245363D01*
X263123Y245363D01*
G37*
%LPD*%
%LPC*%
G36*
X364723Y245363D02*
X364723Y245363D01*
X359663Y250423D01*
X359663Y257577D01*
X364723Y262637D01*
X371877Y262637D01*
X376937Y257577D01*
X376937Y250423D01*
X371877Y245363D01*
X364723Y245363D01*
G37*
%LPD*%
%LPC*%
G36*
X288523Y219963D02*
X288523Y219963D01*
X283463Y225023D01*
X283463Y232177D01*
X288523Y237237D01*
X295677Y237237D01*
X300737Y232177D01*
X300737Y225023D01*
X295677Y219963D01*
X288523Y219963D01*
G37*
%LPD*%
%LPC*%
G36*
X415523Y219963D02*
X415523Y219963D01*
X410463Y225023D01*
X410463Y232177D01*
X415523Y237237D01*
X422677Y237237D01*
X427737Y232177D01*
X427737Y225023D01*
X422677Y219963D01*
X415523Y219963D01*
G37*
%LPD*%
%LPC*%
G36*
X390123Y219963D02*
X390123Y219963D01*
X385063Y225023D01*
X385063Y232177D01*
X390123Y237237D01*
X397277Y237237D01*
X402337Y232177D01*
X402337Y225023D01*
X397277Y219963D01*
X390123Y219963D01*
G37*
%LPD*%
%LPC*%
G36*
X364723Y219963D02*
X364723Y219963D01*
X359663Y225023D01*
X359663Y232177D01*
X364723Y237237D01*
X371877Y237237D01*
X376937Y232177D01*
X376937Y225023D01*
X371877Y219963D01*
X364723Y219963D01*
G37*
%LPD*%
%LPC*%
G36*
X313923Y219963D02*
X313923Y219963D01*
X308863Y225023D01*
X308863Y232177D01*
X313923Y237237D01*
X321077Y237237D01*
X326137Y232177D01*
X326137Y225023D01*
X321077Y219963D01*
X313923Y219963D01*
G37*
%LPD*%
%LPC*%
G36*
X263123Y219963D02*
X263123Y219963D01*
X258063Y225023D01*
X258063Y232177D01*
X263123Y237237D01*
X270277Y237237D01*
X275337Y232177D01*
X275337Y225023D01*
X270277Y219963D01*
X263123Y219963D01*
G37*
%LPD*%
%LPC*%
G36*
X339323Y219963D02*
X339323Y219963D01*
X334263Y225023D01*
X334263Y232177D01*
X339323Y237237D01*
X346477Y237237D01*
X351537Y232177D01*
X351537Y225023D01*
X346477Y219963D01*
X339323Y219963D01*
G37*
%LPD*%
%LPC*%
G36*
X517123Y219963D02*
X517123Y219963D01*
X512063Y225023D01*
X512063Y232177D01*
X517123Y237237D01*
X524277Y237237D01*
X529337Y232177D01*
X529337Y225023D01*
X524277Y219963D01*
X517123Y219963D01*
G37*
%LPD*%
%LPC*%
G36*
X61782Y118363D02*
X61782Y118363D01*
X58608Y119678D01*
X56178Y122108D01*
X54863Y125282D01*
X54863Y128718D01*
X56178Y131892D01*
X58608Y134322D01*
X61782Y135637D01*
X65218Y135637D01*
X68392Y134322D01*
X70822Y131892D01*
X72137Y128718D01*
X72137Y125282D01*
X70822Y122108D01*
X68392Y119678D01*
X65218Y118363D01*
X61782Y118363D01*
G37*
%LPD*%
%LPC*%
G36*
X263020Y140588D02*
X263020Y140588D01*
X262127Y141481D01*
X262127Y163319D01*
X263020Y164212D01*
X270380Y164212D01*
X271273Y163319D01*
X271273Y141481D01*
X270380Y140588D01*
X263020Y140588D01*
G37*
%LPD*%
%LPC*%
G36*
X250320Y140588D02*
X250320Y140588D01*
X249427Y141481D01*
X249427Y163319D01*
X250320Y164212D01*
X257680Y164212D01*
X258573Y163319D01*
X258573Y141481D01*
X257680Y140588D01*
X250320Y140588D01*
G37*
%LPD*%
%LPC*%
G36*
X250320Y92582D02*
X250320Y92582D01*
X249427Y93475D01*
X249427Y115313D01*
X250320Y116206D01*
X257680Y116206D01*
X258573Y115313D01*
X258573Y93475D01*
X257680Y92582D01*
X250320Y92582D01*
G37*
%LPD*%
%LPC*%
G36*
X353923Y128523D02*
X353923Y128523D01*
X353923Y137041D01*
X359234Y137041D01*
X359881Y136868D01*
X360460Y136533D01*
X360933Y136060D01*
X361268Y135481D01*
X361441Y134834D01*
X361441Y128523D01*
X353923Y128523D01*
G37*
%LPD*%
%LPC*%
G36*
X353923Y179323D02*
X353923Y179323D01*
X353923Y187841D01*
X359234Y187841D01*
X359881Y187668D01*
X360460Y187333D01*
X360933Y186860D01*
X361268Y186281D01*
X361441Y185634D01*
X361441Y179323D01*
X353923Y179323D01*
G37*
%LPD*%
%LPC*%
G36*
X353923Y167759D02*
X353923Y167759D01*
X353923Y176277D01*
X361441Y176277D01*
X361441Y169966D01*
X361268Y169319D01*
X360933Y168740D01*
X360460Y168267D01*
X359881Y167932D01*
X359234Y167759D01*
X353923Y167759D01*
G37*
%LPD*%
%LPC*%
G36*
X353923Y116959D02*
X353923Y116959D01*
X353923Y125477D01*
X361441Y125477D01*
X361441Y119166D01*
X361268Y118519D01*
X360933Y117940D01*
X360460Y117467D01*
X359881Y117132D01*
X359234Y116959D01*
X353923Y116959D01*
G37*
%LPD*%
%LPC*%
G36*
X343359Y179323D02*
X343359Y179323D01*
X343359Y185634D01*
X343532Y186281D01*
X343867Y186860D01*
X344340Y187333D01*
X344919Y187668D01*
X345566Y187841D01*
X350877Y187841D01*
X350877Y179323D01*
X343359Y179323D01*
G37*
%LPD*%
%LPC*%
G36*
X343359Y128523D02*
X343359Y128523D01*
X343359Y134834D01*
X343532Y135481D01*
X343867Y136060D01*
X344340Y136533D01*
X344919Y136868D01*
X345566Y137041D01*
X350877Y137041D01*
X350877Y128523D01*
X343359Y128523D01*
G37*
%LPD*%
%LPC*%
G36*
X345566Y167759D02*
X345566Y167759D01*
X344919Y167932D01*
X344340Y168267D01*
X343867Y168740D01*
X343532Y169319D01*
X343359Y169966D01*
X343359Y176277D01*
X350877Y176277D01*
X350877Y167759D01*
X345566Y167759D01*
G37*
%LPD*%
%LPC*%
G36*
X345566Y116959D02*
X345566Y116959D01*
X344919Y117132D01*
X344340Y117467D01*
X343867Y117940D01*
X343532Y118519D01*
X343359Y119166D01*
X343359Y125477D01*
X350877Y125477D01*
X350877Y116959D01*
X345566Y116959D01*
G37*
%LPD*%
%LPC*%
G36*
X522223Y255523D02*
X522223Y255523D01*
X522223Y263653D01*
X524698Y263653D01*
X530353Y257998D01*
X530353Y255523D01*
X522223Y255523D01*
G37*
%LPD*%
%LPC*%
G36*
X511047Y255523D02*
X511047Y255523D01*
X511047Y257998D01*
X516702Y263653D01*
X519177Y263653D01*
X519177Y255523D01*
X511047Y255523D01*
G37*
%LPD*%
%LPC*%
G36*
X522223Y244347D02*
X522223Y244347D01*
X522223Y252477D01*
X530353Y252477D01*
X530353Y250002D01*
X524698Y244347D01*
X522223Y244347D01*
G37*
%LPD*%
%LPC*%
G36*
X516702Y244347D02*
X516702Y244347D01*
X511047Y250002D01*
X511047Y252477D01*
X519177Y252477D01*
X519177Y244347D01*
X516702Y244347D01*
G37*
%LPD*%
%LPC*%
G36*
X82803Y138683D02*
X82803Y138683D01*
X82803Y146692D01*
X83540Y146575D01*
X84985Y146106D01*
X86339Y145416D01*
X87568Y144523D01*
X88643Y143448D01*
X89536Y142219D01*
X90226Y140865D01*
X90695Y139420D01*
X90812Y138683D01*
X82803Y138683D01*
G37*
%LPD*%
%LPC*%
G36*
X71748Y138683D02*
X71748Y138683D01*
X71865Y139420D01*
X72334Y140865D01*
X73024Y142219D01*
X73917Y143448D01*
X74992Y144523D01*
X76221Y145416D01*
X77575Y146106D01*
X79020Y146575D01*
X79757Y146692D01*
X79757Y138683D01*
X71748Y138683D01*
G37*
%LPD*%
%LPC*%
G36*
X79020Y127745D02*
X79020Y127745D01*
X77575Y128214D01*
X76221Y128904D01*
X74992Y129797D01*
X73917Y130872D01*
X73024Y132101D01*
X72334Y133455D01*
X71865Y134900D01*
X71748Y135637D01*
X79757Y135637D01*
X79757Y127628D01*
X79020Y127745D01*
G37*
%LPD*%
%LPC*%
G36*
X242823Y153923D02*
X242823Y153923D01*
X242823Y165228D01*
X244682Y165228D01*
X245329Y165055D01*
X245908Y164720D01*
X246381Y164247D01*
X246716Y163668D01*
X246889Y163021D01*
X246889Y153923D01*
X242823Y153923D01*
G37*
%LPD*%
%LPC*%
G36*
X242823Y105917D02*
X242823Y105917D01*
X242823Y117222D01*
X244682Y117222D01*
X245329Y117049D01*
X245908Y116714D01*
X246381Y116241D01*
X246716Y115662D01*
X246889Y115015D01*
X246889Y105917D01*
X242823Y105917D01*
G37*
%LPD*%
%LPC*%
G36*
X268223Y105917D02*
X268223Y105917D01*
X268223Y117222D01*
X270082Y117222D01*
X270729Y117049D01*
X271308Y116714D01*
X271781Y116241D01*
X272116Y115662D01*
X272289Y115015D01*
X272289Y105917D01*
X268223Y105917D01*
G37*
%LPD*%
%LPC*%
G36*
X242823Y139572D02*
X242823Y139572D01*
X242823Y150877D01*
X246889Y150877D01*
X246889Y141779D01*
X246716Y141132D01*
X246381Y140553D01*
X245908Y140080D01*
X245329Y139745D01*
X244682Y139572D01*
X242823Y139572D01*
G37*
%LPD*%
%LPC*%
G36*
X268223Y91566D02*
X268223Y91566D01*
X268223Y102871D01*
X272289Y102871D01*
X272289Y93773D01*
X272116Y93126D01*
X271781Y92547D01*
X271308Y92074D01*
X270729Y91739D01*
X270082Y91566D01*
X268223Y91566D01*
G37*
%LPD*%
%LPC*%
G36*
X242823Y91566D02*
X242823Y91566D01*
X242823Y102871D01*
X246889Y102871D01*
X246889Y93773D01*
X246716Y93126D01*
X246381Y92547D01*
X245908Y92074D01*
X245329Y91739D01*
X244682Y91566D01*
X242823Y91566D01*
G37*
%LPD*%
%LPC*%
G36*
X235711Y153923D02*
X235711Y153923D01*
X235711Y163021D01*
X235884Y163668D01*
X236219Y164247D01*
X236692Y164720D01*
X237271Y165055D01*
X237918Y165228D01*
X239777Y165228D01*
X239777Y153923D01*
X235711Y153923D01*
G37*
%LPD*%
%LPC*%
G36*
X235711Y105917D02*
X235711Y105917D01*
X235711Y115015D01*
X235884Y115662D01*
X236219Y116241D01*
X236692Y116714D01*
X237271Y117049D01*
X237918Y117222D01*
X239777Y117222D01*
X239777Y105917D01*
X235711Y105917D01*
G37*
%LPD*%
%LPC*%
G36*
X261111Y105917D02*
X261111Y105917D01*
X261111Y115015D01*
X261284Y115662D01*
X261619Y116241D01*
X262092Y116714D01*
X262671Y117049D01*
X263318Y117222D01*
X265177Y117222D01*
X265177Y105917D01*
X261111Y105917D01*
G37*
%LPD*%
%LPC*%
G36*
X237918Y139572D02*
X237918Y139572D01*
X237271Y139745D01*
X236692Y140080D01*
X236219Y140553D01*
X235884Y141132D01*
X235711Y141779D01*
X235711Y150877D01*
X239777Y150877D01*
X239777Y139572D01*
X237918Y139572D01*
G37*
%LPD*%
%LPC*%
G36*
X263318Y91566D02*
X263318Y91566D01*
X262671Y91739D01*
X262092Y92074D01*
X261619Y92547D01*
X261284Y93126D01*
X261111Y93773D01*
X261111Y102871D01*
X265177Y102871D01*
X265177Y91566D01*
X263318Y91566D01*
G37*
%LPD*%
%LPC*%
G36*
X237918Y91566D02*
X237918Y91566D01*
X237271Y91739D01*
X236692Y92074D01*
X236219Y92547D01*
X235884Y93126D01*
X235711Y93773D01*
X235711Y102871D01*
X239777Y102871D01*
X239777Y91566D01*
X237918Y91566D01*
G37*
%LPD*%
%LPC*%
G36*
X520699Y253999D02*
X520699Y253999D01*
X520699Y254001D01*
X520701Y254001D01*
X520701Y253999D01*
X520699Y253999D01*
G37*
%LPD*%
%LPC*%
G36*
X81279Y137159D02*
X81279Y137159D01*
X81279Y137161D01*
X81281Y137161D01*
X81281Y137159D01*
X81279Y137159D01*
G37*
%LPD*%
%LPC*%
G36*
X241299Y152399D02*
X241299Y152399D01*
X241299Y152401D01*
X241301Y152401D01*
X241301Y152399D01*
X241299Y152399D01*
G37*
%LPD*%
%LPC*%
G36*
X352399Y177799D02*
X352399Y177799D01*
X352399Y177801D01*
X352401Y177801D01*
X352401Y177799D01*
X352399Y177799D01*
G37*
%LPD*%
%LPC*%
G36*
X266699Y104393D02*
X266699Y104393D01*
X266699Y104395D01*
X266701Y104395D01*
X266701Y104393D01*
X266699Y104393D01*
G37*
%LPD*%
%LPC*%
G36*
X241299Y104393D02*
X241299Y104393D01*
X241299Y104395D01*
X241301Y104395D01*
X241301Y104393D01*
X241299Y104393D01*
G37*
%LPD*%
%LPC*%
G36*
X352399Y126999D02*
X352399Y126999D01*
X352399Y127001D01*
X352401Y127001D01*
X352401Y126999D01*
X352399Y126999D01*
G37*
%LPD*%
D10*
X352400Y177800D03*
X333400Y177800D03*
X333400Y127000D03*
X352400Y127000D03*
X333400Y76200D03*
X352400Y76200D03*
D11*
X38100Y254000D03*
D12*
X38100Y228600D03*
X63500Y254000D03*
X63500Y228600D03*
X88900Y254000D03*
X88900Y228600D03*
X114300Y254000D03*
X114300Y228600D03*
X139700Y254000D03*
X139700Y228600D03*
X165100Y254000D03*
X165100Y228600D03*
X190500Y254000D03*
X190500Y228600D03*
X215900Y254000D03*
X215900Y228600D03*
X241300Y254000D03*
X241300Y228600D03*
X266700Y254000D03*
X266700Y228600D03*
X292100Y254000D03*
X292100Y228600D03*
X317500Y254000D03*
X317500Y228600D03*
X342900Y254000D03*
X342900Y228600D03*
X368300Y254000D03*
X368300Y228600D03*
X393700Y254000D03*
X393700Y228600D03*
X419100Y254000D03*
X419100Y228600D03*
X444500Y254000D03*
X444500Y228600D03*
X469900Y254000D03*
X469900Y228600D03*
X495300Y254000D03*
X495300Y228600D03*
X520700Y254000D03*
X520700Y228600D03*
D13*
X190500Y104394D03*
X203200Y104394D03*
X215900Y104394D03*
X228600Y104394D03*
X241300Y104394D03*
X254000Y104394D03*
X266700Y104394D03*
X266700Y152400D03*
X254000Y152400D03*
X241300Y152400D03*
X228600Y152400D03*
X215900Y152400D03*
X203200Y152400D03*
X190500Y152400D03*
D11*
X63500Y66040D03*
X81280Y76200D03*
X63500Y86360D03*
X81280Y96520D03*
X63500Y106680D03*
X81280Y116840D03*
X63500Y127000D03*
X81280Y137160D03*
D14*
X72390Y182626D03*
X72390Y20574D03*
D15*
X202692Y99060D02*
X202692Y103632D01*
X202692Y99060D02*
X190500Y86868D01*
X77724Y86868D01*
X64008Y73152D01*
X64008Y67056D01*
X202692Y103632D02*
X203200Y104394D01*
X64008Y67056D02*
X63500Y66040D01*
X81280Y76200D02*
X206200Y76200D01*
X215900Y85900D02*
X215900Y104394D01*
X215900Y85900D02*
X206200Y76200D01*
X63500Y86360D02*
X51000Y73860D01*
X51000Y63636D02*
X62318Y52318D01*
X51000Y63636D02*
X51000Y73860D01*
X62318Y52318D02*
X218318Y52318D01*
X228000Y62000D01*
X228000Y103794D01*
X228600Y104394D01*
X190500Y105156D02*
X86868Y105156D01*
X85344Y106680D01*
X63500Y106680D01*
X190500Y105156D02*
X190500Y104394D01*
X105664Y127000D02*
X333400Y127000D01*
X105664Y127000D02*
X85344Y106680D01*
X38100Y254000D02*
X25400Y254000D01*
X10922Y239522D01*
X10922Y153843D01*
X58085Y106680D02*
X63500Y106680D01*
X58085Y106680D02*
X10922Y153843D01*
X117348Y152400D02*
X190500Y152400D01*
X117348Y152400D02*
X82296Y117348D01*
X81280Y116840D01*
X117348Y152400D02*
X117348Y175652D01*
X87000Y206000D02*
X57000Y206000D01*
X38100Y224900D01*
X38100Y228600D01*
X87000Y206000D02*
X117348Y175652D01*
D16*
X295000Y179000D03*
X151000Y167000D03*
D15*
X165600Y152400D02*
X190500Y152400D01*
X165600Y152400D02*
X151000Y167000D01*
X295000Y179000D02*
X332200Y179000D01*
X333400Y177800D01*
X509016Y254508D02*
X519684Y254508D01*
X509016Y254508D02*
X499872Y263652D01*
X440436Y263652D01*
X429768Y252984D01*
X429768Y249936D01*
X419100Y239268D01*
X416052Y239268D01*
X403860Y227076D01*
X403860Y224028D01*
X358140Y178308D01*
X353568Y178308D01*
X519684Y254508D02*
X520700Y254000D01*
X353568Y178308D02*
X352400Y177800D01*
D17*
X241300Y170000D02*
X241000Y170000D01*
X241300Y170000D02*
X241300Y152400D01*
D16*
X241000Y173000D03*
X118000Y195000D03*
D15*
X203200Y171800D02*
X203200Y152400D01*
X203200Y171800D02*
X199000Y176000D01*
X165000Y176000D01*
X156000Y185000D01*
X156000Y206000D01*
X149000Y213000D01*
X84000Y213000D02*
X77000Y220000D01*
X77000Y240500D01*
X63500Y254000D01*
X84000Y213000D02*
X149000Y213000D01*
X89916Y254508D02*
X89780Y254440D01*
X88900Y254000D01*
X215900Y179100D02*
X215900Y152400D01*
X203000Y192000D02*
X192000Y192000D01*
X178000Y206000D01*
X178000Y234000D01*
X171000Y241000D01*
X103000Y241000D01*
X89780Y254220D01*
X89780Y254440D01*
X203000Y192000D02*
X215900Y179100D01*
D16*
X260120Y76200D03*
D15*
X333400Y76200D01*
X228600Y152400D02*
X228600Y182400D01*
X203000Y208000D01*
X203000Y262000D01*
X195000Y270000D01*
X130300Y270000D01*
X114300Y254000D01*
X353568Y97536D02*
X353568Y76200D01*
X353568Y97536D02*
X484632Y228600D01*
X484632Y242316D01*
X495300Y252984D01*
X353568Y76200D02*
X352400Y76200D01*
X495300Y252984D02*
X495300Y254000D01*
M02*
