G04 EAGLE Gerber X2 export*
%TF.Part,Single*%
%TF.FileFunction,Profile,NP*%
%TF.FilePolarity,Positive*%
%TF.GenerationSoftware,Autodesk,EAGLE,8.6.3*%
%TF.CreationDate,2019-02-20T16:21:40Z*%
G75*
%MOMM*%
%FSLAX34Y34*%
%LPD*%
%AMOC8*
5,1,8,0,0,1.08239X$1,22.5*%
G01*
%ADD10C,0.254000*%


D10*
X-4000Y-11000D02*
X550000Y-12000D01*
X550000Y300000D01*
X-4000Y301000D01*
X-4000Y-11000D01*
X37568Y21844D02*
X36506Y21914D01*
X35451Y22053D01*
X34407Y22260D01*
X33379Y22536D01*
X32371Y22878D01*
X31387Y23285D01*
X30433Y23756D01*
X29511Y24288D01*
X28626Y24879D01*
X27782Y25527D01*
X26982Y26229D01*
X26229Y26982D01*
X25527Y27782D01*
X24879Y28626D01*
X24288Y29511D01*
X23756Y30433D01*
X23285Y31387D01*
X22878Y32371D01*
X22536Y33379D01*
X22260Y34407D01*
X22053Y35451D01*
X21914Y36506D01*
X21844Y37568D01*
X21844Y38632D01*
X21914Y39694D01*
X22053Y40749D01*
X22260Y41793D01*
X22536Y42821D01*
X22878Y43829D01*
X23285Y44813D01*
X23756Y45767D01*
X24288Y46689D01*
X24879Y47574D01*
X25527Y48418D01*
X26229Y49218D01*
X26982Y49971D01*
X27782Y50673D01*
X28626Y51321D01*
X29511Y51912D01*
X30433Y52444D01*
X31387Y52915D01*
X32371Y53322D01*
X33379Y53664D01*
X34407Y53940D01*
X35451Y54147D01*
X36506Y54286D01*
X37568Y54356D01*
X38632Y54356D01*
X39694Y54286D01*
X40749Y54147D01*
X41793Y53940D01*
X42821Y53664D01*
X43829Y53322D01*
X44813Y52915D01*
X45767Y52444D01*
X46689Y51912D01*
X47574Y51321D01*
X48418Y50673D01*
X49218Y49971D01*
X49971Y49218D01*
X50673Y48418D01*
X51321Y47574D01*
X51912Y46689D01*
X52444Y45767D01*
X52915Y44813D01*
X53322Y43829D01*
X53664Y42821D01*
X53940Y41793D01*
X54147Y40749D01*
X54286Y39694D01*
X54356Y38632D01*
X54356Y37568D01*
X54286Y36506D01*
X54147Y35451D01*
X53940Y34407D01*
X53664Y33379D01*
X53322Y32371D01*
X52915Y31387D01*
X52444Y30433D01*
X51912Y29511D01*
X51321Y28626D01*
X50673Y27782D01*
X49971Y26982D01*
X49218Y26229D01*
X48418Y25527D01*
X47574Y24879D01*
X46689Y24288D01*
X45767Y23756D01*
X44813Y23285D01*
X43829Y22878D01*
X42821Y22536D01*
X41793Y22260D01*
X40749Y22053D01*
X39694Y21914D01*
X38632Y21844D01*
X37568Y21844D01*
X37568Y148844D02*
X36506Y148914D01*
X35451Y149053D01*
X34407Y149260D01*
X33379Y149536D01*
X32371Y149878D01*
X31387Y150285D01*
X30433Y150756D01*
X29511Y151288D01*
X28626Y151879D01*
X27782Y152527D01*
X26982Y153229D01*
X26229Y153982D01*
X25527Y154782D01*
X24879Y155626D01*
X24288Y156511D01*
X23756Y157433D01*
X23285Y158387D01*
X22878Y159371D01*
X22536Y160379D01*
X22260Y161407D01*
X22053Y162451D01*
X21914Y163506D01*
X21844Y164568D01*
X21844Y165632D01*
X21914Y166694D01*
X22053Y167749D01*
X22260Y168793D01*
X22536Y169821D01*
X22878Y170829D01*
X23285Y171813D01*
X23756Y172767D01*
X24288Y173689D01*
X24879Y174574D01*
X25527Y175418D01*
X26229Y176218D01*
X26982Y176971D01*
X27782Y177673D01*
X28626Y178321D01*
X29511Y178912D01*
X30433Y179444D01*
X31387Y179915D01*
X32371Y180322D01*
X33379Y180664D01*
X34407Y180940D01*
X35451Y181147D01*
X36506Y181286D01*
X37568Y181356D01*
X38632Y181356D01*
X39694Y181286D01*
X40749Y181147D01*
X41793Y180940D01*
X42821Y180664D01*
X43829Y180322D01*
X44813Y179915D01*
X45767Y179444D01*
X46689Y178912D01*
X47574Y178321D01*
X48418Y177673D01*
X49218Y176971D01*
X49971Y176218D01*
X50673Y175418D01*
X51321Y174574D01*
X51912Y173689D01*
X52444Y172767D01*
X52915Y171813D01*
X53322Y170829D01*
X53664Y169821D01*
X53940Y168793D01*
X54147Y167749D01*
X54286Y166694D01*
X54356Y165632D01*
X54356Y164568D01*
X54286Y163506D01*
X54147Y162451D01*
X53940Y161407D01*
X53664Y160379D01*
X53322Y159371D01*
X52915Y158387D01*
X52444Y157433D01*
X51912Y156511D01*
X51321Y155626D01*
X50673Y154782D01*
X49971Y153982D01*
X49218Y153229D01*
X48418Y152527D01*
X47574Y151879D01*
X46689Y151288D01*
X45767Y150756D01*
X44813Y150285D01*
X43829Y149878D01*
X42821Y149536D01*
X41793Y149260D01*
X40749Y149053D01*
X39694Y148914D01*
X38632Y148844D01*
X37568Y148844D01*
M02*
