G04 EAGLE Gerber X2 export*
%TF.Part,Single*%
%TF.FileFunction,Copper,L1,Top,Mixed*%
%TF.FilePolarity,Positive*%
%TF.GenerationSoftware,Autodesk,EAGLE,8.6.3*%
%TF.CreationDate,2019-03-24T10:24:12Z*%
G75*
%MOMM*%
%FSLAX34Y34*%
%LPD*%
%AMOC8*
5,1,8,0,0,1.08239X$1,22.5*%
G01*
%ADD10C,1.422400*%
%ADD11P,1.539592X8X22.500000*%
%ADD12C,2.362200*%
%ADD13C,0.250000*%
%ADD14C,0.609600*%
%ADD15C,1.500000*%

G36*
X-27986Y-9528D02*
X-27986Y-9528D01*
X-27856Y-9526D01*
X-27762Y-9508D01*
X-27667Y-9499D01*
X-27542Y-9465D01*
X-27414Y-9440D01*
X-27325Y-9406D01*
X-27233Y-9381D01*
X-27116Y-9325D01*
X-26994Y-9278D01*
X-26912Y-9228D01*
X-26826Y-9187D01*
X-26721Y-9112D01*
X-26609Y-9044D01*
X-26538Y-8981D01*
X-26460Y-8925D01*
X-26369Y-8832D01*
X-26272Y-8746D01*
X-26213Y-8671D01*
X-26146Y-8603D01*
X-26073Y-8495D01*
X-25993Y-8393D01*
X-25948Y-8309D01*
X-25894Y-8230D01*
X-25841Y-8111D01*
X-25780Y-7996D01*
X-25751Y-7905D01*
X-25712Y-7818D01*
X-25681Y-7691D01*
X-25641Y-7568D01*
X-25628Y-7473D01*
X-25605Y-7380D01*
X-25597Y-7251D01*
X-25579Y-7122D01*
X-25583Y-7026D01*
X-25577Y-6931D01*
X-25593Y-6802D01*
X-25598Y-6672D01*
X-25619Y-6579D01*
X-25630Y-6484D01*
X-25667Y-6359D01*
X-25695Y-6232D01*
X-25732Y-6144D01*
X-25760Y-6053D01*
X-25819Y-5937D01*
X-25869Y-5817D01*
X-25921Y-5736D01*
X-25964Y-5651D01*
X-26043Y-5548D01*
X-26113Y-5439D01*
X-26199Y-5341D01*
X-26236Y-5293D01*
X-26269Y-5262D01*
X-26320Y-5204D01*
X-27301Y-4224D01*
X-30049Y2410D01*
X-30049Y233090D01*
X-27301Y239724D01*
X-21867Y245158D01*
X5244Y272268D01*
X5349Y272395D01*
X5461Y272515D01*
X5493Y272567D01*
X5532Y272614D01*
X5614Y272756D01*
X5702Y272895D01*
X5726Y272952D01*
X5756Y273005D01*
X5811Y273159D01*
X5873Y273312D01*
X5886Y273371D01*
X5907Y273429D01*
X5933Y273591D01*
X5968Y273752D01*
X5973Y273829D01*
X5980Y273873D01*
X5979Y273934D01*
X5983Y273987D01*
X8806Y280805D01*
X8870Y281008D01*
X8935Y281209D01*
X8937Y281222D01*
X8941Y281234D01*
X8968Y281446D01*
X8997Y281655D01*
X8996Y281668D01*
X8998Y281681D01*
X8987Y281892D01*
X8978Y282105D01*
X8976Y282118D01*
X8975Y282131D01*
X8927Y282336D01*
X8881Y282544D01*
X8876Y282556D01*
X8873Y282569D01*
X8789Y282765D01*
X8707Y282960D01*
X8700Y282971D01*
X8695Y282983D01*
X8578Y283160D01*
X8463Y283338D01*
X8453Y283350D01*
X8447Y283358D01*
X8420Y283387D01*
X8256Y283572D01*
X5987Y285841D01*
X5987Y304159D01*
X18941Y317113D01*
X37259Y317113D01*
X39004Y315368D01*
X39031Y315345D01*
X39054Y315319D01*
X39203Y315201D01*
X39350Y315079D01*
X39380Y315061D01*
X39407Y315040D01*
X39575Y314950D01*
X39741Y314855D01*
X39773Y314844D01*
X39804Y314827D01*
X39985Y314769D01*
X40165Y314705D01*
X40199Y314699D01*
X40232Y314688D01*
X40421Y314662D01*
X40609Y314631D01*
X40644Y314632D01*
X40678Y314627D01*
X40869Y314635D01*
X41059Y314637D01*
X41094Y314644D01*
X41128Y314645D01*
X41314Y314686D01*
X41502Y314723D01*
X41534Y314735D01*
X41568Y314743D01*
X41744Y314816D01*
X41922Y314885D01*
X41951Y314903D01*
X41983Y314916D01*
X42144Y315020D01*
X42306Y315119D01*
X42332Y315142D01*
X42361Y315161D01*
X42596Y315368D01*
X44341Y317113D01*
X62659Y317113D01*
X64404Y315368D01*
X64431Y315345D01*
X64454Y315319D01*
X64603Y315201D01*
X64750Y315079D01*
X64780Y315061D01*
X64807Y315040D01*
X64975Y314950D01*
X65141Y314855D01*
X65173Y314844D01*
X65204Y314827D01*
X65385Y314769D01*
X65565Y314705D01*
X65599Y314699D01*
X65632Y314688D01*
X65821Y314662D01*
X66009Y314631D01*
X66044Y314632D01*
X66078Y314627D01*
X66269Y314635D01*
X66459Y314637D01*
X66494Y314644D01*
X66528Y314645D01*
X66714Y314686D01*
X66902Y314723D01*
X66934Y314735D01*
X66968Y314743D01*
X67144Y314816D01*
X67322Y314885D01*
X67351Y314903D01*
X67383Y314916D01*
X67544Y315020D01*
X67706Y315119D01*
X67732Y315142D01*
X67761Y315161D01*
X67996Y315368D01*
X69741Y317113D01*
X88059Y317113D01*
X89804Y315368D01*
X89831Y315345D01*
X89854Y315319D01*
X90003Y315201D01*
X90150Y315079D01*
X90180Y315061D01*
X90207Y315040D01*
X90375Y314950D01*
X90541Y314855D01*
X90573Y314844D01*
X90604Y314827D01*
X90785Y314769D01*
X90965Y314705D01*
X90999Y314699D01*
X91032Y314688D01*
X91221Y314662D01*
X91409Y314631D01*
X91444Y314632D01*
X91478Y314627D01*
X91669Y314635D01*
X91859Y314637D01*
X91894Y314644D01*
X91928Y314645D01*
X92114Y314686D01*
X92302Y314723D01*
X92334Y314735D01*
X92368Y314743D01*
X92544Y314816D01*
X92722Y314885D01*
X92751Y314903D01*
X92783Y314916D01*
X92944Y315020D01*
X93106Y315119D01*
X93132Y315142D01*
X93161Y315161D01*
X93396Y315368D01*
X95141Y317113D01*
X113459Y317113D01*
X115204Y315368D01*
X115231Y315345D01*
X115254Y315319D01*
X115403Y315201D01*
X115550Y315079D01*
X115580Y315061D01*
X115607Y315040D01*
X115775Y314950D01*
X115941Y314855D01*
X115973Y314844D01*
X116004Y314827D01*
X116185Y314769D01*
X116365Y314705D01*
X116399Y314699D01*
X116432Y314688D01*
X116621Y314662D01*
X116809Y314631D01*
X116844Y314632D01*
X116878Y314627D01*
X117069Y314635D01*
X117259Y314637D01*
X117294Y314644D01*
X117328Y314645D01*
X117514Y314686D01*
X117702Y314723D01*
X117734Y314735D01*
X117768Y314743D01*
X117944Y314816D01*
X118122Y314885D01*
X118151Y314903D01*
X118183Y314916D01*
X118344Y315020D01*
X118506Y315119D01*
X118532Y315142D01*
X118561Y315161D01*
X118796Y315368D01*
X120541Y317113D01*
X138859Y317113D01*
X140604Y315368D01*
X140631Y315345D01*
X140654Y315319D01*
X140803Y315201D01*
X140950Y315079D01*
X140980Y315061D01*
X141007Y315040D01*
X141175Y314950D01*
X141341Y314855D01*
X141373Y314844D01*
X141404Y314827D01*
X141585Y314769D01*
X141765Y314705D01*
X141799Y314699D01*
X141832Y314688D01*
X142021Y314662D01*
X142209Y314631D01*
X142244Y314632D01*
X142278Y314627D01*
X142469Y314635D01*
X142659Y314637D01*
X142694Y314644D01*
X142728Y314645D01*
X142914Y314686D01*
X143102Y314723D01*
X143134Y314735D01*
X143168Y314743D01*
X143344Y314816D01*
X143522Y314885D01*
X143551Y314903D01*
X143583Y314916D01*
X143744Y315020D01*
X143906Y315119D01*
X143932Y315142D01*
X143961Y315161D01*
X144196Y315368D01*
X145941Y317113D01*
X164259Y317113D01*
X166004Y315368D01*
X166031Y315345D01*
X166054Y315319D01*
X166203Y315201D01*
X166350Y315079D01*
X166380Y315061D01*
X166407Y315040D01*
X166575Y314950D01*
X166741Y314855D01*
X166773Y314844D01*
X166804Y314827D01*
X166985Y314769D01*
X167165Y314705D01*
X167199Y314699D01*
X167232Y314688D01*
X167421Y314662D01*
X167609Y314631D01*
X167644Y314632D01*
X167678Y314627D01*
X167869Y314635D01*
X168059Y314637D01*
X168094Y314644D01*
X168128Y314645D01*
X168314Y314686D01*
X168502Y314723D01*
X168534Y314735D01*
X168568Y314743D01*
X168744Y314816D01*
X168922Y314885D01*
X168951Y314903D01*
X168983Y314916D01*
X169144Y315020D01*
X169306Y315119D01*
X169332Y315142D01*
X169361Y315161D01*
X169596Y315368D01*
X171341Y317113D01*
X189659Y317113D01*
X191404Y315368D01*
X191431Y315345D01*
X191454Y315319D01*
X191603Y315201D01*
X191750Y315079D01*
X191780Y315061D01*
X191807Y315040D01*
X191975Y314950D01*
X192141Y314855D01*
X192173Y314844D01*
X192204Y314827D01*
X192385Y314769D01*
X192565Y314705D01*
X192599Y314699D01*
X192632Y314688D01*
X192821Y314662D01*
X193009Y314631D01*
X193044Y314632D01*
X193078Y314627D01*
X193269Y314635D01*
X193459Y314637D01*
X193494Y314644D01*
X193528Y314645D01*
X193714Y314686D01*
X193902Y314723D01*
X193934Y314735D01*
X193968Y314743D01*
X194144Y314816D01*
X194322Y314885D01*
X194351Y314903D01*
X194383Y314916D01*
X194544Y315020D01*
X194706Y315119D01*
X194732Y315142D01*
X194761Y315161D01*
X194996Y315368D01*
X196741Y317113D01*
X215059Y317113D01*
X216804Y315368D01*
X216831Y315345D01*
X216854Y315319D01*
X217003Y315201D01*
X217150Y315079D01*
X217180Y315061D01*
X217207Y315040D01*
X217375Y314950D01*
X217541Y314855D01*
X217573Y314844D01*
X217604Y314827D01*
X217785Y314769D01*
X217965Y314705D01*
X217999Y314699D01*
X218032Y314688D01*
X218221Y314662D01*
X218409Y314631D01*
X218444Y314632D01*
X218478Y314627D01*
X218669Y314635D01*
X218859Y314637D01*
X218894Y314644D01*
X218928Y314645D01*
X219114Y314686D01*
X219302Y314723D01*
X219334Y314735D01*
X219368Y314743D01*
X219544Y314816D01*
X219722Y314885D01*
X219751Y314903D01*
X219783Y314916D01*
X219944Y315020D01*
X220106Y315119D01*
X220132Y315142D01*
X220161Y315161D01*
X220396Y315368D01*
X222141Y317113D01*
X240459Y317113D01*
X242204Y315368D01*
X242231Y315345D01*
X242254Y315319D01*
X242403Y315201D01*
X242550Y315079D01*
X242580Y315061D01*
X242607Y315040D01*
X242775Y314950D01*
X242941Y314855D01*
X242973Y314844D01*
X243004Y314827D01*
X243185Y314769D01*
X243365Y314705D01*
X243399Y314699D01*
X243432Y314688D01*
X243621Y314662D01*
X243809Y314631D01*
X243844Y314632D01*
X243878Y314627D01*
X244069Y314635D01*
X244259Y314637D01*
X244294Y314644D01*
X244328Y314645D01*
X244514Y314686D01*
X244702Y314723D01*
X244734Y314735D01*
X244768Y314743D01*
X244944Y314816D01*
X245122Y314885D01*
X245151Y314903D01*
X245183Y314916D01*
X245344Y315020D01*
X245506Y315119D01*
X245532Y315142D01*
X245561Y315161D01*
X245796Y315368D01*
X247541Y317113D01*
X265859Y317113D01*
X267604Y315368D01*
X267631Y315345D01*
X267654Y315319D01*
X267803Y315201D01*
X267950Y315079D01*
X267980Y315061D01*
X268007Y315040D01*
X268175Y314950D01*
X268341Y314855D01*
X268373Y314844D01*
X268404Y314827D01*
X268585Y314769D01*
X268765Y314705D01*
X268799Y314699D01*
X268832Y314688D01*
X269021Y314662D01*
X269209Y314631D01*
X269244Y314632D01*
X269278Y314627D01*
X269469Y314635D01*
X269659Y314637D01*
X269694Y314644D01*
X269728Y314645D01*
X269914Y314686D01*
X270102Y314723D01*
X270134Y314735D01*
X270168Y314743D01*
X270344Y314816D01*
X270522Y314885D01*
X270551Y314903D01*
X270583Y314916D01*
X270744Y315020D01*
X270906Y315119D01*
X270932Y315142D01*
X270961Y315161D01*
X271196Y315368D01*
X272941Y317113D01*
X291259Y317113D01*
X293004Y315368D01*
X293031Y315345D01*
X293054Y315319D01*
X293203Y315201D01*
X293350Y315079D01*
X293380Y315061D01*
X293407Y315040D01*
X293575Y314950D01*
X293741Y314855D01*
X293773Y314844D01*
X293804Y314827D01*
X293985Y314769D01*
X294165Y314705D01*
X294199Y314699D01*
X294232Y314688D01*
X294421Y314662D01*
X294609Y314631D01*
X294644Y314632D01*
X294678Y314627D01*
X294869Y314635D01*
X295059Y314637D01*
X295094Y314644D01*
X295128Y314645D01*
X295314Y314686D01*
X295502Y314723D01*
X295534Y314735D01*
X295568Y314743D01*
X295744Y314816D01*
X295922Y314885D01*
X295951Y314903D01*
X295983Y314916D01*
X296144Y315020D01*
X296306Y315119D01*
X296332Y315142D01*
X296361Y315161D01*
X296596Y315368D01*
X298341Y317113D01*
X316659Y317113D01*
X318404Y315368D01*
X318431Y315345D01*
X318454Y315319D01*
X318603Y315201D01*
X318750Y315079D01*
X318780Y315061D01*
X318807Y315040D01*
X318975Y314950D01*
X319141Y314855D01*
X319173Y314844D01*
X319204Y314827D01*
X319385Y314769D01*
X319565Y314705D01*
X319599Y314699D01*
X319632Y314688D01*
X319821Y314662D01*
X320009Y314631D01*
X320044Y314632D01*
X320078Y314627D01*
X320269Y314635D01*
X320459Y314637D01*
X320494Y314644D01*
X320528Y314645D01*
X320714Y314686D01*
X320902Y314723D01*
X320934Y314735D01*
X320968Y314743D01*
X321144Y314816D01*
X321322Y314885D01*
X321351Y314903D01*
X321383Y314916D01*
X321544Y315020D01*
X321706Y315119D01*
X321732Y315142D01*
X321761Y315161D01*
X321996Y315368D01*
X323741Y317113D01*
X342059Y317113D01*
X343804Y315368D01*
X343831Y315345D01*
X343854Y315319D01*
X344003Y315201D01*
X344150Y315079D01*
X344180Y315061D01*
X344207Y315040D01*
X344375Y314950D01*
X344541Y314855D01*
X344573Y314844D01*
X344604Y314827D01*
X344785Y314769D01*
X344965Y314705D01*
X344999Y314699D01*
X345032Y314688D01*
X345221Y314662D01*
X345409Y314631D01*
X345444Y314632D01*
X345478Y314627D01*
X345669Y314635D01*
X345859Y314637D01*
X345894Y314644D01*
X345928Y314645D01*
X346114Y314686D01*
X346302Y314723D01*
X346334Y314735D01*
X346368Y314743D01*
X346544Y314816D01*
X346722Y314885D01*
X346751Y314903D01*
X346783Y314916D01*
X346944Y315020D01*
X347106Y315119D01*
X347132Y315142D01*
X347161Y315161D01*
X347396Y315368D01*
X349141Y317113D01*
X367459Y317113D01*
X369204Y315368D01*
X369231Y315345D01*
X369254Y315319D01*
X369403Y315201D01*
X369550Y315079D01*
X369580Y315061D01*
X369607Y315040D01*
X369775Y314950D01*
X369941Y314855D01*
X369973Y314844D01*
X370004Y314827D01*
X370185Y314769D01*
X370365Y314705D01*
X370399Y314699D01*
X370432Y314688D01*
X370621Y314662D01*
X370809Y314631D01*
X370844Y314632D01*
X370878Y314627D01*
X371069Y314635D01*
X371259Y314637D01*
X371294Y314644D01*
X371328Y314645D01*
X371514Y314686D01*
X371702Y314723D01*
X371734Y314735D01*
X371768Y314743D01*
X371944Y314816D01*
X372122Y314885D01*
X372151Y314903D01*
X372183Y314916D01*
X372344Y315020D01*
X372506Y315119D01*
X372532Y315142D01*
X372561Y315161D01*
X372796Y315368D01*
X374541Y317113D01*
X392859Y317113D01*
X394604Y315368D01*
X394631Y315345D01*
X394654Y315319D01*
X394803Y315201D01*
X394950Y315079D01*
X394980Y315061D01*
X395007Y315040D01*
X395175Y314950D01*
X395341Y314855D01*
X395373Y314844D01*
X395404Y314827D01*
X395585Y314769D01*
X395765Y314705D01*
X395799Y314699D01*
X395832Y314688D01*
X396021Y314662D01*
X396209Y314631D01*
X396244Y314632D01*
X396278Y314627D01*
X396469Y314635D01*
X396659Y314637D01*
X396694Y314644D01*
X396728Y314645D01*
X396914Y314686D01*
X397102Y314723D01*
X397134Y314735D01*
X397168Y314743D01*
X397344Y314816D01*
X397522Y314885D01*
X397551Y314903D01*
X397583Y314916D01*
X397744Y315020D01*
X397906Y315119D01*
X397932Y315142D01*
X397961Y315161D01*
X398196Y315368D01*
X399941Y317113D01*
X418259Y317113D01*
X420004Y315368D01*
X420031Y315345D01*
X420054Y315319D01*
X420203Y315201D01*
X420350Y315079D01*
X420380Y315062D01*
X420407Y315040D01*
X420576Y314950D01*
X420741Y314855D01*
X420773Y314844D01*
X420804Y314827D01*
X420985Y314768D01*
X421165Y314705D01*
X421199Y314699D01*
X421232Y314688D01*
X421421Y314662D01*
X421609Y314631D01*
X421644Y314632D01*
X421678Y314627D01*
X421869Y314635D01*
X422060Y314637D01*
X422094Y314644D01*
X422128Y314645D01*
X422314Y314686D01*
X422502Y314723D01*
X422534Y314735D01*
X422568Y314743D01*
X422743Y314816D01*
X422922Y314885D01*
X422951Y314903D01*
X422983Y314916D01*
X423143Y315020D01*
X423306Y315119D01*
X423332Y315142D01*
X423361Y315161D01*
X423596Y315368D01*
X425341Y317113D01*
X443659Y317113D01*
X445404Y315368D01*
X445431Y315345D01*
X445454Y315319D01*
X445603Y315201D01*
X445750Y315079D01*
X445780Y315061D01*
X445807Y315040D01*
X445975Y314950D01*
X446141Y314855D01*
X446173Y314844D01*
X446204Y314827D01*
X446385Y314769D01*
X446565Y314705D01*
X446599Y314699D01*
X446632Y314688D01*
X446821Y314662D01*
X447009Y314631D01*
X447044Y314632D01*
X447078Y314627D01*
X447269Y314635D01*
X447459Y314637D01*
X447494Y314644D01*
X447528Y314645D01*
X447714Y314686D01*
X447902Y314723D01*
X447934Y314735D01*
X447968Y314743D01*
X448144Y314816D01*
X448322Y314885D01*
X448351Y314903D01*
X448383Y314916D01*
X448544Y315020D01*
X448706Y315119D01*
X448732Y315142D01*
X448761Y315161D01*
X448996Y315368D01*
X450741Y317113D01*
X469059Y317113D01*
X470804Y315368D01*
X470831Y315345D01*
X470854Y315319D01*
X471003Y315201D01*
X471150Y315079D01*
X471180Y315061D01*
X471207Y315040D01*
X471375Y314950D01*
X471541Y314855D01*
X471573Y314844D01*
X471604Y314827D01*
X471785Y314769D01*
X471965Y314705D01*
X471999Y314699D01*
X472032Y314688D01*
X472221Y314662D01*
X472409Y314631D01*
X472444Y314632D01*
X472478Y314627D01*
X472669Y314635D01*
X472859Y314637D01*
X472894Y314644D01*
X472928Y314645D01*
X473114Y314686D01*
X473302Y314723D01*
X473334Y314735D01*
X473368Y314743D01*
X473544Y314816D01*
X473722Y314885D01*
X473751Y314903D01*
X473783Y314916D01*
X473944Y315020D01*
X474106Y315119D01*
X474132Y315142D01*
X474161Y315161D01*
X474396Y315368D01*
X476141Y317113D01*
X494459Y317113D01*
X496204Y315368D01*
X496231Y315345D01*
X496254Y315319D01*
X496403Y315201D01*
X496550Y315079D01*
X496580Y315061D01*
X496607Y315040D01*
X496775Y314950D01*
X496941Y314855D01*
X496973Y314844D01*
X497004Y314827D01*
X497185Y314769D01*
X497365Y314705D01*
X497399Y314699D01*
X497432Y314688D01*
X497621Y314662D01*
X497809Y314631D01*
X497844Y314632D01*
X497878Y314627D01*
X498069Y314635D01*
X498259Y314637D01*
X498294Y314644D01*
X498328Y314645D01*
X498514Y314686D01*
X498702Y314723D01*
X498734Y314735D01*
X498768Y314743D01*
X498944Y314816D01*
X499122Y314885D01*
X499151Y314903D01*
X499183Y314916D01*
X499344Y315020D01*
X499506Y315119D01*
X499532Y315142D01*
X499561Y315161D01*
X499796Y315368D01*
X501541Y317113D01*
X519859Y317113D01*
X532813Y304159D01*
X532813Y285841D01*
X521096Y274124D01*
X520991Y273998D01*
X520879Y273877D01*
X520847Y273826D01*
X520808Y273779D01*
X520726Y273636D01*
X520638Y273497D01*
X520614Y273441D01*
X520584Y273388D01*
X520529Y273233D01*
X520501Y273166D01*
X520488Y273135D01*
X520487Y273129D01*
X520467Y273081D01*
X520454Y273021D01*
X520433Y272964D01*
X520407Y272801D01*
X520406Y272798D01*
X520381Y272698D01*
X520380Y272679D01*
X520372Y272641D01*
X520367Y272564D01*
X520360Y272520D01*
X520361Y272458D01*
X520353Y272329D01*
X520353Y272139D01*
X510700Y272139D01*
X510666Y272136D01*
X510631Y272138D01*
X510442Y272116D01*
X510252Y272099D01*
X510218Y272090D01*
X510184Y272086D01*
X510001Y272031D01*
X509817Y271981D01*
X509786Y271966D01*
X509753Y271956D01*
X509582Y271869D01*
X509411Y271788D01*
X509383Y271767D01*
X509352Y271752D01*
X509200Y271636D01*
X509045Y271525D01*
X509044Y271525D01*
X509020Y271500D01*
X508993Y271480D01*
X508993Y271479D01*
X508992Y271479D01*
X508863Y271339D01*
X508730Y271202D01*
X508711Y271174D01*
X508687Y271148D01*
X508585Y270987D01*
X508478Y270829D01*
X508464Y270798D01*
X508445Y270768D01*
X508373Y270592D01*
X508296Y270417D01*
X508288Y270384D01*
X508275Y270352D01*
X508234Y270165D01*
X508189Y269980D01*
X508187Y269946D01*
X508180Y269912D01*
X508161Y269600D01*
X508161Y259947D01*
X507971Y259947D01*
X507808Y259933D01*
X507643Y259926D01*
X507583Y259913D01*
X507523Y259907D01*
X507364Y259864D01*
X507203Y259828D01*
X507147Y259805D01*
X507088Y259789D01*
X506940Y259718D01*
X506788Y259655D01*
X506737Y259622D01*
X506682Y259595D01*
X506548Y259500D01*
X506410Y259410D01*
X506352Y259359D01*
X506316Y259333D01*
X506273Y259290D01*
X506176Y259204D01*
X494459Y247487D01*
X476141Y247487D01*
X474396Y249232D01*
X474369Y249255D01*
X474346Y249281D01*
X474197Y249399D01*
X474050Y249521D01*
X474020Y249538D01*
X473993Y249560D01*
X473824Y249650D01*
X473659Y249745D01*
X473627Y249756D01*
X473596Y249773D01*
X473415Y249832D01*
X473235Y249895D01*
X473201Y249901D01*
X473168Y249912D01*
X472979Y249938D01*
X472791Y249969D01*
X472756Y249968D01*
X472722Y249973D01*
X472531Y249965D01*
X472340Y249963D01*
X472306Y249956D01*
X472272Y249955D01*
X472086Y249914D01*
X471898Y249877D01*
X471866Y249865D01*
X471832Y249857D01*
X471657Y249784D01*
X471478Y249715D01*
X471449Y249697D01*
X471417Y249684D01*
X471257Y249580D01*
X471094Y249481D01*
X471068Y249458D01*
X471039Y249439D01*
X470804Y249232D01*
X469059Y247487D01*
X450741Y247487D01*
X448996Y249232D01*
X448969Y249255D01*
X448946Y249281D01*
X448797Y249399D01*
X448650Y249521D01*
X448620Y249539D01*
X448593Y249560D01*
X448425Y249650D01*
X448259Y249745D01*
X448227Y249756D01*
X448196Y249773D01*
X448015Y249831D01*
X447835Y249895D01*
X447801Y249901D01*
X447768Y249912D01*
X447579Y249938D01*
X447391Y249969D01*
X447356Y249968D01*
X447322Y249973D01*
X447131Y249965D01*
X446941Y249963D01*
X446906Y249956D01*
X446872Y249955D01*
X446686Y249914D01*
X446498Y249877D01*
X446466Y249865D01*
X446432Y249857D01*
X446256Y249784D01*
X446078Y249715D01*
X446049Y249697D01*
X446017Y249684D01*
X445856Y249580D01*
X445694Y249481D01*
X445668Y249458D01*
X445639Y249439D01*
X445404Y249232D01*
X443659Y247487D01*
X425341Y247487D01*
X423596Y249232D01*
X423569Y249255D01*
X423546Y249281D01*
X423397Y249399D01*
X423250Y249521D01*
X423220Y249538D01*
X423193Y249560D01*
X423024Y249650D01*
X422859Y249745D01*
X422827Y249756D01*
X422796Y249773D01*
X422615Y249832D01*
X422435Y249895D01*
X422401Y249901D01*
X422368Y249912D01*
X422179Y249938D01*
X421991Y249969D01*
X421956Y249968D01*
X421922Y249973D01*
X421731Y249965D01*
X421540Y249963D01*
X421506Y249956D01*
X421472Y249955D01*
X421286Y249914D01*
X421098Y249877D01*
X421066Y249865D01*
X421032Y249857D01*
X420857Y249784D01*
X420678Y249715D01*
X420649Y249697D01*
X420617Y249684D01*
X420457Y249580D01*
X420294Y249481D01*
X420268Y249458D01*
X420239Y249439D01*
X420004Y249232D01*
X418259Y247487D01*
X399941Y247487D01*
X398196Y249232D01*
X398169Y249255D01*
X398146Y249281D01*
X397997Y249399D01*
X397850Y249521D01*
X397820Y249538D01*
X397793Y249560D01*
X397624Y249650D01*
X397459Y249745D01*
X397427Y249756D01*
X397396Y249773D01*
X397215Y249832D01*
X397035Y249895D01*
X397001Y249901D01*
X396968Y249912D01*
X396779Y249938D01*
X396591Y249969D01*
X396556Y249968D01*
X396522Y249973D01*
X396331Y249965D01*
X396140Y249963D01*
X396106Y249956D01*
X396072Y249955D01*
X395886Y249914D01*
X395698Y249877D01*
X395666Y249865D01*
X395632Y249857D01*
X395457Y249784D01*
X395278Y249715D01*
X395249Y249697D01*
X395217Y249684D01*
X395057Y249580D01*
X394894Y249481D01*
X394868Y249458D01*
X394839Y249439D01*
X394604Y249232D01*
X392859Y247487D01*
X374541Y247487D01*
X372796Y249232D01*
X372769Y249255D01*
X372746Y249281D01*
X372597Y249399D01*
X372450Y249521D01*
X372420Y249538D01*
X372393Y249560D01*
X372224Y249650D01*
X372059Y249745D01*
X372027Y249756D01*
X371996Y249773D01*
X371815Y249832D01*
X371635Y249895D01*
X371601Y249901D01*
X371568Y249912D01*
X371379Y249938D01*
X371191Y249969D01*
X371156Y249968D01*
X371122Y249973D01*
X370931Y249965D01*
X370740Y249963D01*
X370706Y249956D01*
X370672Y249955D01*
X370486Y249914D01*
X370298Y249877D01*
X370266Y249865D01*
X370232Y249857D01*
X370057Y249784D01*
X369878Y249715D01*
X369849Y249697D01*
X369817Y249684D01*
X369657Y249580D01*
X369494Y249481D01*
X369468Y249458D01*
X369439Y249439D01*
X369204Y249232D01*
X367459Y247487D01*
X349141Y247487D01*
X347396Y249232D01*
X347369Y249255D01*
X347346Y249281D01*
X347197Y249399D01*
X347050Y249521D01*
X347020Y249538D01*
X346993Y249560D01*
X346824Y249650D01*
X346659Y249745D01*
X346627Y249756D01*
X346596Y249773D01*
X346415Y249832D01*
X346235Y249895D01*
X346201Y249901D01*
X346168Y249912D01*
X345979Y249938D01*
X345791Y249969D01*
X345756Y249968D01*
X345722Y249973D01*
X345531Y249965D01*
X345340Y249963D01*
X345306Y249956D01*
X345272Y249955D01*
X345086Y249914D01*
X344898Y249877D01*
X344866Y249865D01*
X344832Y249857D01*
X344657Y249784D01*
X344478Y249715D01*
X344449Y249697D01*
X344417Y249684D01*
X344257Y249580D01*
X344094Y249481D01*
X344068Y249458D01*
X344039Y249439D01*
X343804Y249232D01*
X342059Y247487D01*
X323741Y247487D01*
X321996Y249232D01*
X321969Y249255D01*
X321946Y249281D01*
X321797Y249399D01*
X321650Y249521D01*
X321620Y249538D01*
X321593Y249560D01*
X321424Y249650D01*
X321259Y249745D01*
X321227Y249756D01*
X321196Y249773D01*
X321015Y249832D01*
X320835Y249895D01*
X320801Y249901D01*
X320768Y249912D01*
X320579Y249938D01*
X320391Y249969D01*
X320356Y249968D01*
X320322Y249973D01*
X320131Y249965D01*
X319940Y249963D01*
X319906Y249956D01*
X319872Y249955D01*
X319686Y249914D01*
X319498Y249877D01*
X319466Y249865D01*
X319432Y249857D01*
X319257Y249784D01*
X319078Y249715D01*
X319049Y249697D01*
X319017Y249684D01*
X318857Y249580D01*
X318694Y249481D01*
X318668Y249458D01*
X318639Y249439D01*
X318404Y249232D01*
X316659Y247487D01*
X298341Y247487D01*
X296596Y249232D01*
X296569Y249255D01*
X296546Y249281D01*
X296397Y249399D01*
X296250Y249521D01*
X296220Y249538D01*
X296193Y249560D01*
X296024Y249650D01*
X295859Y249745D01*
X295827Y249756D01*
X295796Y249773D01*
X295615Y249832D01*
X295435Y249895D01*
X295401Y249901D01*
X295368Y249912D01*
X295179Y249938D01*
X294991Y249969D01*
X294956Y249968D01*
X294922Y249973D01*
X294731Y249965D01*
X294540Y249963D01*
X294506Y249956D01*
X294472Y249955D01*
X294286Y249914D01*
X294098Y249877D01*
X294066Y249865D01*
X294032Y249857D01*
X293857Y249784D01*
X293678Y249715D01*
X293649Y249697D01*
X293617Y249684D01*
X293457Y249580D01*
X293294Y249481D01*
X293268Y249458D01*
X293239Y249439D01*
X293004Y249232D01*
X291259Y247487D01*
X272941Y247487D01*
X271196Y249232D01*
X271169Y249255D01*
X271146Y249281D01*
X270997Y249399D01*
X270850Y249521D01*
X270820Y249538D01*
X270793Y249560D01*
X270624Y249650D01*
X270459Y249745D01*
X270427Y249756D01*
X270396Y249773D01*
X270215Y249832D01*
X270035Y249895D01*
X270001Y249901D01*
X269968Y249912D01*
X269779Y249938D01*
X269591Y249969D01*
X269556Y249968D01*
X269522Y249973D01*
X269331Y249965D01*
X269140Y249963D01*
X269106Y249956D01*
X269072Y249955D01*
X268886Y249914D01*
X268698Y249877D01*
X268666Y249865D01*
X268632Y249857D01*
X268457Y249784D01*
X268278Y249715D01*
X268249Y249697D01*
X268217Y249684D01*
X268057Y249580D01*
X267894Y249481D01*
X267868Y249458D01*
X267839Y249439D01*
X267604Y249232D01*
X265859Y247487D01*
X247541Y247487D01*
X245796Y249232D01*
X245769Y249255D01*
X245746Y249281D01*
X245597Y249399D01*
X245450Y249521D01*
X245420Y249538D01*
X245393Y249560D01*
X245224Y249650D01*
X245059Y249745D01*
X245027Y249756D01*
X244996Y249773D01*
X244815Y249832D01*
X244635Y249895D01*
X244601Y249901D01*
X244568Y249912D01*
X244379Y249938D01*
X244191Y249969D01*
X244156Y249968D01*
X244122Y249973D01*
X243931Y249965D01*
X243740Y249963D01*
X243706Y249956D01*
X243672Y249955D01*
X243486Y249914D01*
X243298Y249877D01*
X243266Y249865D01*
X243232Y249857D01*
X243057Y249784D01*
X242878Y249715D01*
X242849Y249697D01*
X242817Y249684D01*
X242657Y249580D01*
X242494Y249481D01*
X242468Y249458D01*
X242439Y249439D01*
X242204Y249232D01*
X240459Y247487D01*
X222141Y247487D01*
X220396Y249232D01*
X220369Y249255D01*
X220346Y249281D01*
X220197Y249399D01*
X220050Y249521D01*
X220020Y249538D01*
X219993Y249560D01*
X219824Y249650D01*
X219659Y249745D01*
X219627Y249756D01*
X219596Y249773D01*
X219415Y249832D01*
X219235Y249895D01*
X219201Y249901D01*
X219168Y249912D01*
X218979Y249938D01*
X218791Y249969D01*
X218756Y249968D01*
X218722Y249973D01*
X218531Y249965D01*
X218340Y249963D01*
X218306Y249956D01*
X218272Y249955D01*
X218086Y249914D01*
X217898Y249877D01*
X217866Y249865D01*
X217832Y249857D01*
X217657Y249784D01*
X217478Y249715D01*
X217449Y249697D01*
X217417Y249684D01*
X217257Y249580D01*
X217094Y249481D01*
X217068Y249458D01*
X217039Y249439D01*
X216804Y249232D01*
X215059Y247487D01*
X196741Y247487D01*
X194996Y249232D01*
X194969Y249255D01*
X194946Y249281D01*
X194797Y249399D01*
X194650Y249521D01*
X194620Y249538D01*
X194593Y249560D01*
X194424Y249650D01*
X194259Y249745D01*
X194227Y249756D01*
X194196Y249773D01*
X194015Y249832D01*
X193835Y249895D01*
X193801Y249901D01*
X193768Y249912D01*
X193579Y249938D01*
X193391Y249969D01*
X193356Y249968D01*
X193322Y249973D01*
X193131Y249965D01*
X192940Y249963D01*
X192906Y249956D01*
X192872Y249955D01*
X192686Y249914D01*
X192498Y249877D01*
X192466Y249865D01*
X192432Y249857D01*
X192257Y249784D01*
X192078Y249715D01*
X192049Y249697D01*
X192017Y249684D01*
X191857Y249580D01*
X191694Y249481D01*
X191668Y249458D01*
X191639Y249439D01*
X191404Y249232D01*
X189659Y247487D01*
X189653Y247487D01*
X189523Y247476D01*
X189393Y247474D01*
X189300Y247456D01*
X189204Y247447D01*
X189079Y247413D01*
X188951Y247388D01*
X188862Y247354D01*
X188770Y247329D01*
X188653Y247273D01*
X188531Y247226D01*
X188449Y247176D01*
X188363Y247135D01*
X188258Y247060D01*
X188146Y246992D01*
X188075Y246929D01*
X187997Y246873D01*
X187906Y246780D01*
X187809Y246694D01*
X187750Y246619D01*
X187683Y246551D01*
X187610Y246443D01*
X187530Y246341D01*
X187484Y246257D01*
X187431Y246178D01*
X187378Y246059D01*
X187317Y245944D01*
X187288Y245853D01*
X187249Y245766D01*
X187218Y245639D01*
X187178Y245516D01*
X187165Y245421D01*
X187142Y245328D01*
X187134Y245199D01*
X187116Y245070D01*
X187120Y244974D01*
X187114Y244879D01*
X187129Y244750D01*
X187135Y244620D01*
X187155Y244527D01*
X187167Y244432D01*
X187204Y244307D01*
X187232Y244180D01*
X187269Y244092D01*
X187297Y244001D01*
X187356Y243885D01*
X187406Y243765D01*
X187458Y243685D01*
X187501Y243599D01*
X187580Y243496D01*
X187650Y243387D01*
X187736Y243289D01*
X187773Y243241D01*
X187806Y243210D01*
X187857Y243152D01*
X189143Y241867D01*
X207658Y223352D01*
X221867Y209143D01*
X227301Y203709D01*
X230049Y197075D01*
X230049Y98325D01*
X230064Y98148D01*
X230074Y97971D01*
X230084Y97924D01*
X230089Y97877D01*
X230135Y97705D01*
X230176Y97532D01*
X230195Y97488D01*
X230207Y97442D01*
X230283Y97282D01*
X230354Y97119D01*
X230380Y97079D01*
X230401Y97036D01*
X230504Y96891D01*
X230602Y96743D01*
X230635Y96709D01*
X230663Y96670D01*
X230790Y96545D01*
X230913Y96417D01*
X230951Y96389D01*
X230985Y96356D01*
X231133Y96256D01*
X231276Y96151D01*
X231319Y96130D01*
X231358Y96103D01*
X231521Y96032D01*
X231680Y95954D01*
X231726Y95941D01*
X231770Y95921D01*
X231943Y95879D01*
X232114Y95831D01*
X232161Y95826D01*
X232208Y95815D01*
X232385Y95804D01*
X232562Y95786D01*
X232609Y95790D01*
X232657Y95787D01*
X232834Y95807D01*
X233011Y95821D01*
X233057Y95833D01*
X233104Y95839D01*
X233275Y95890D01*
X233446Y95935D01*
X233489Y95955D01*
X233535Y95969D01*
X233694Y96050D01*
X233855Y96124D01*
X233894Y96152D01*
X233937Y96174D01*
X234078Y96281D01*
X234224Y96383D01*
X234257Y96417D01*
X234295Y96446D01*
X234416Y96576D01*
X234541Y96702D01*
X234568Y96742D01*
X234600Y96777D01*
X234696Y96927D01*
X234797Y97073D01*
X234823Y97126D01*
X234842Y97157D01*
X234866Y97215D01*
X234934Y97353D01*
X235925Y99746D01*
X242254Y106075D01*
X250524Y109501D01*
X259476Y109501D01*
X267166Y106315D01*
X267369Y106252D01*
X267570Y106186D01*
X267583Y106184D01*
X267596Y106180D01*
X267806Y106154D01*
X268016Y106125D01*
X268030Y106125D01*
X268043Y106124D01*
X268253Y106134D01*
X268466Y106143D01*
X268479Y106146D01*
X268492Y106147D01*
X268697Y106194D01*
X268906Y106241D01*
X268918Y106246D01*
X268931Y106249D01*
X269125Y106332D01*
X269321Y106414D01*
X269332Y106422D01*
X269344Y106427D01*
X269522Y106544D01*
X269699Y106659D01*
X269711Y106669D01*
X269720Y106675D01*
X269749Y106702D01*
X269934Y106866D01*
X270695Y107627D01*
X276668Y110101D01*
X290632Y110101D01*
X292028Y109523D01*
X292185Y109473D01*
X292340Y109417D01*
X292400Y109406D01*
X292458Y109388D01*
X292621Y109367D01*
X292783Y109339D01*
X292844Y109339D01*
X292905Y109331D01*
X293069Y109340D01*
X293233Y109340D01*
X293293Y109351D01*
X293354Y109354D01*
X293514Y109391D01*
X293676Y109421D01*
X293749Y109446D01*
X293793Y109456D01*
X293849Y109480D01*
X293972Y109523D01*
X295368Y110101D01*
X309332Y110101D01*
X315305Y107627D01*
X316140Y106792D01*
X316266Y106687D01*
X316387Y106575D01*
X316438Y106543D01*
X316485Y106504D01*
X316628Y106422D01*
X316766Y106334D01*
X316823Y106310D01*
X316876Y106280D01*
X317031Y106225D01*
X317183Y106163D01*
X317243Y106150D01*
X317300Y106129D01*
X317462Y106103D01*
X317623Y106068D01*
X317700Y106063D01*
X317744Y106056D01*
X317805Y106057D01*
X317935Y106049D01*
X348590Y106049D01*
X355224Y103301D01*
X360301Y98224D01*
X363049Y91590D01*
X363049Y82824D01*
X363063Y82660D01*
X363070Y82496D01*
X363083Y82436D01*
X363089Y82375D01*
X363132Y82217D01*
X363168Y82056D01*
X363191Y82000D01*
X363207Y81941D01*
X363278Y81793D01*
X363341Y81641D01*
X363374Y81589D01*
X363401Y81534D01*
X363496Y81401D01*
X363586Y81262D01*
X363637Y81205D01*
X363663Y81168D01*
X363706Y81126D01*
X363793Y81028D01*
X364075Y80746D01*
X367501Y72476D01*
X367501Y63524D01*
X364075Y55254D01*
X363793Y54972D01*
X363687Y54846D01*
X363575Y54725D01*
X363543Y54673D01*
X363504Y54626D01*
X363422Y54484D01*
X363334Y54345D01*
X363310Y54288D01*
X363280Y54235D01*
X363225Y54081D01*
X363163Y53928D01*
X363150Y53869D01*
X363129Y53811D01*
X363103Y53649D01*
X363068Y53488D01*
X363063Y53411D01*
X363056Y53367D01*
X363057Y53306D01*
X363049Y53176D01*
X363049Y-7000D01*
X363052Y-7035D01*
X363050Y-7069D01*
X363072Y-7258D01*
X363089Y-7449D01*
X363098Y-7482D01*
X363102Y-7516D01*
X363157Y-7699D01*
X363207Y-7883D01*
X363222Y-7914D01*
X363232Y-7947D01*
X363319Y-8118D01*
X363401Y-8290D01*
X363421Y-8318D01*
X363436Y-8349D01*
X363552Y-8501D01*
X363663Y-8656D01*
X363688Y-8680D01*
X363708Y-8707D01*
X363848Y-8836D01*
X363985Y-8970D01*
X364014Y-8989D01*
X364040Y-9013D01*
X364201Y-9115D01*
X364358Y-9222D01*
X364390Y-9236D01*
X364419Y-9254D01*
X364596Y-9327D01*
X364770Y-9404D01*
X364804Y-9412D01*
X364836Y-9425D01*
X365023Y-9465D01*
X365208Y-9511D01*
X365242Y-9513D01*
X365276Y-9520D01*
X365588Y-9539D01*
X566000Y-9539D01*
X566035Y-9536D01*
X566069Y-9538D01*
X566258Y-9516D01*
X566449Y-9499D01*
X566482Y-9490D01*
X566516Y-9486D01*
X566699Y-9431D01*
X566883Y-9381D01*
X566914Y-9366D01*
X566947Y-9356D01*
X567118Y-9269D01*
X567290Y-9187D01*
X567318Y-9167D01*
X567349Y-9152D01*
X567501Y-9036D01*
X567656Y-8925D01*
X567680Y-8901D01*
X567707Y-8880D01*
X567837Y-8739D01*
X567970Y-8603D01*
X567989Y-8574D01*
X568013Y-8548D01*
X568115Y-8387D01*
X568222Y-8230D01*
X568236Y-8198D01*
X568254Y-8169D01*
X568327Y-7992D01*
X568404Y-7818D01*
X568412Y-7784D01*
X568425Y-7752D01*
X568465Y-7565D01*
X568511Y-7380D01*
X568513Y-7346D01*
X568520Y-7312D01*
X568539Y-7000D01*
X568539Y337300D01*
X568536Y337335D01*
X568538Y337369D01*
X568516Y337558D01*
X568499Y337749D01*
X568490Y337782D01*
X568486Y337816D01*
X568431Y337999D01*
X568381Y338183D01*
X568366Y338214D01*
X568356Y338247D01*
X568269Y338418D01*
X568187Y338590D01*
X568167Y338618D01*
X568152Y338649D01*
X568036Y338801D01*
X567925Y338956D01*
X567900Y338980D01*
X567880Y339007D01*
X567739Y339136D01*
X567603Y339270D01*
X567574Y339289D01*
X567548Y339313D01*
X567387Y339415D01*
X567230Y339522D01*
X567198Y339536D01*
X567169Y339554D01*
X566992Y339627D01*
X566818Y339704D01*
X566784Y339712D01*
X566752Y339725D01*
X566565Y339765D01*
X566380Y339811D01*
X566346Y339813D01*
X566312Y339820D01*
X566000Y339839D01*
X-35000Y339839D01*
X-35035Y339836D01*
X-35069Y339838D01*
X-35258Y339816D01*
X-35449Y339799D01*
X-35482Y339790D01*
X-35516Y339786D01*
X-35699Y339731D01*
X-35883Y339681D01*
X-35914Y339666D01*
X-35947Y339656D01*
X-36118Y339569D01*
X-36290Y339487D01*
X-36318Y339467D01*
X-36349Y339452D01*
X-36501Y339336D01*
X-36656Y339225D01*
X-36680Y339200D01*
X-36707Y339180D01*
X-36836Y339040D01*
X-36970Y338903D01*
X-36989Y338874D01*
X-37013Y338848D01*
X-37115Y338687D01*
X-37222Y338530D01*
X-37236Y338498D01*
X-37254Y338469D01*
X-37327Y338292D01*
X-37404Y338118D01*
X-37412Y338084D01*
X-37425Y338052D01*
X-37465Y337865D01*
X-37511Y337680D01*
X-37513Y337646D01*
X-37520Y337612D01*
X-37539Y337300D01*
X-37539Y-7000D01*
X-37536Y-7035D01*
X-37538Y-7069D01*
X-37516Y-7258D01*
X-37499Y-7449D01*
X-37490Y-7482D01*
X-37486Y-7516D01*
X-37431Y-7699D01*
X-37381Y-7883D01*
X-37366Y-7914D01*
X-37356Y-7947D01*
X-37269Y-8118D01*
X-37187Y-8290D01*
X-37167Y-8318D01*
X-37152Y-8349D01*
X-37036Y-8501D01*
X-36925Y-8656D01*
X-36900Y-8680D01*
X-36880Y-8707D01*
X-36740Y-8836D01*
X-36603Y-8970D01*
X-36574Y-8989D01*
X-36548Y-9013D01*
X-36387Y-9115D01*
X-36230Y-9222D01*
X-36198Y-9236D01*
X-36169Y-9254D01*
X-35992Y-9327D01*
X-35818Y-9404D01*
X-35784Y-9412D01*
X-35752Y-9425D01*
X-35565Y-9465D01*
X-35380Y-9511D01*
X-35346Y-9513D01*
X-35312Y-9520D01*
X-35000Y-9539D01*
X-28116Y-9539D01*
X-27986Y-9528D01*
G37*
G36*
X107631Y11259D02*
X107631Y11259D01*
X107654Y11257D01*
X107855Y11279D01*
X108056Y11297D01*
X108079Y11303D01*
X108102Y11305D01*
X108295Y11362D01*
X108491Y11415D01*
X108512Y11425D01*
X108534Y11432D01*
X108715Y11522D01*
X108897Y11609D01*
X108916Y11622D01*
X108937Y11632D01*
X109099Y11753D01*
X109263Y11871D01*
X109280Y11887D01*
X109298Y11901D01*
X109436Y12048D01*
X109577Y12193D01*
X109590Y12213D01*
X109606Y12229D01*
X109716Y12399D01*
X109830Y12566D01*
X109839Y12588D01*
X109852Y12607D01*
X109930Y12793D01*
X110012Y12978D01*
X110017Y13001D01*
X110026Y13022D01*
X110071Y13220D01*
X110118Y13416D01*
X110120Y13439D01*
X110125Y13461D01*
X110134Y13663D01*
X110146Y13865D01*
X110143Y13888D01*
X110144Y13911D01*
X110118Y14111D01*
X110094Y14312D01*
X110087Y14334D01*
X110084Y14357D01*
X110022Y14549D01*
X109964Y14743D01*
X109953Y14764D01*
X109946Y14786D01*
X109807Y15066D01*
X107405Y19225D01*
X107308Y19590D01*
X107296Y19622D01*
X107289Y19656D01*
X107218Y19834D01*
X107153Y20013D01*
X107136Y20043D01*
X107123Y20075D01*
X107022Y20237D01*
X106926Y20402D01*
X106904Y20428D01*
X106885Y20457D01*
X106758Y20599D01*
X106634Y20744D01*
X106607Y20766D01*
X106584Y20792D01*
X106434Y20909D01*
X106286Y21030D01*
X106256Y21047D01*
X106229Y21068D01*
X106060Y21157D01*
X105893Y21250D01*
X105860Y21261D01*
X105830Y21277D01*
X105648Y21335D01*
X105468Y21397D01*
X105433Y21402D01*
X105400Y21413D01*
X105211Y21437D01*
X105023Y21466D01*
X104988Y21465D01*
X104954Y21470D01*
X104763Y21460D01*
X104573Y21456D01*
X104539Y21449D01*
X104504Y21447D01*
X104198Y21385D01*
X101578Y20683D01*
X94622Y20683D01*
X87904Y22484D01*
X81880Y25961D01*
X76961Y30880D01*
X73484Y36904D01*
X71683Y43622D01*
X71683Y50578D01*
X73484Y57296D01*
X76961Y63320D01*
X81880Y68239D01*
X87904Y71716D01*
X94622Y73517D01*
X98848Y73517D01*
X98883Y73520D01*
X98917Y73518D01*
X99106Y73540D01*
X99297Y73557D01*
X99330Y73566D01*
X99364Y73570D01*
X99547Y73625D01*
X99731Y73675D01*
X99762Y73690D01*
X99795Y73700D01*
X99966Y73787D01*
X100138Y73869D01*
X100166Y73889D01*
X100197Y73904D01*
X100349Y74020D01*
X100504Y74131D01*
X100528Y74156D01*
X100555Y74176D01*
X100684Y74316D01*
X100818Y74453D01*
X100837Y74482D01*
X100861Y74508D01*
X100963Y74669D01*
X101070Y74826D01*
X101084Y74858D01*
X101102Y74887D01*
X101175Y75064D01*
X101252Y75238D01*
X101260Y75272D01*
X101273Y75304D01*
X101313Y75491D01*
X101359Y75676D01*
X101361Y75710D01*
X101368Y75744D01*
X101387Y76056D01*
X101387Y79438D01*
X103371Y84228D01*
X103421Y84385D01*
X103477Y84540D01*
X103488Y84600D01*
X103506Y84658D01*
X103527Y84821D01*
X103555Y84983D01*
X103555Y85044D01*
X103563Y85105D01*
X103554Y85269D01*
X103554Y85433D01*
X103543Y85493D01*
X103540Y85554D01*
X103502Y85714D01*
X103473Y85876D01*
X103448Y85949D01*
X103438Y85993D01*
X103414Y86049D01*
X103371Y86172D01*
X101387Y90961D01*
X101387Y99758D01*
X103371Y104548D01*
X103421Y104705D01*
X103477Y104860D01*
X103488Y104920D01*
X103506Y104978D01*
X103527Y105141D01*
X103555Y105303D01*
X103555Y105364D01*
X103563Y105425D01*
X103554Y105589D01*
X103554Y105753D01*
X103543Y105813D01*
X103540Y105874D01*
X103502Y106034D01*
X103473Y106196D01*
X103448Y106269D01*
X103438Y106313D01*
X103414Y106369D01*
X103371Y106492D01*
X101387Y111281D01*
X101387Y120078D01*
X103371Y124868D01*
X103421Y125025D01*
X103477Y125180D01*
X103488Y125240D01*
X103506Y125298D01*
X103527Y125461D01*
X103555Y125623D01*
X103555Y125684D01*
X103563Y125745D01*
X103554Y125909D01*
X103554Y126073D01*
X103543Y126133D01*
X103540Y126194D01*
X103502Y126354D01*
X103473Y126516D01*
X103448Y126589D01*
X103438Y126633D01*
X103414Y126689D01*
X103371Y126812D01*
X101387Y131601D01*
X101387Y140399D01*
X102950Y144172D01*
X102975Y144251D01*
X103008Y144326D01*
X103042Y144465D01*
X103085Y144602D01*
X103096Y144684D01*
X103115Y144764D01*
X103124Y144906D01*
X103142Y145049D01*
X103138Y145131D01*
X103143Y145213D01*
X103126Y145355D01*
X103119Y145498D01*
X103100Y145578D01*
X103091Y145660D01*
X103049Y145798D01*
X103017Y145937D01*
X102984Y146012D01*
X102960Y146091D01*
X102895Y146219D01*
X102839Y146350D01*
X102793Y146419D01*
X102756Y146493D01*
X102670Y146607D01*
X102591Y146726D01*
X102534Y146786D01*
X102484Y146851D01*
X102379Y146948D01*
X102280Y147052D01*
X102214Y147101D01*
X102153Y147157D01*
X102032Y147234D01*
X101917Y147318D01*
X101843Y147354D01*
X101773Y147398D01*
X101641Y147453D01*
X101512Y147516D01*
X101433Y147538D01*
X101357Y147569D01*
X101216Y147599D01*
X101079Y147639D01*
X100997Y147647D01*
X100916Y147664D01*
X100670Y147679D01*
X100631Y147683D01*
X100620Y147682D01*
X100604Y147683D01*
X94622Y147683D01*
X87904Y149484D01*
X81880Y152961D01*
X76961Y157880D01*
X73484Y163904D01*
X71683Y170622D01*
X71683Y177578D01*
X73484Y184296D01*
X76961Y190320D01*
X81880Y195239D01*
X87904Y198716D01*
X94622Y200517D01*
X101578Y200517D01*
X104198Y199815D01*
X104232Y199809D01*
X104265Y199798D01*
X104453Y199770D01*
X104641Y199737D01*
X104676Y199737D01*
X104710Y199732D01*
X104901Y199738D01*
X105092Y199739D01*
X105126Y199745D01*
X105160Y199747D01*
X105347Y199786D01*
X105534Y199821D01*
X105567Y199833D01*
X105601Y199840D01*
X105777Y199912D01*
X105956Y199979D01*
X105986Y199997D01*
X106018Y200010D01*
X106179Y200112D01*
X106343Y200210D01*
X106369Y200232D01*
X106398Y200251D01*
X106539Y200380D01*
X106683Y200505D01*
X106704Y200532D01*
X106730Y200555D01*
X106846Y200707D01*
X106965Y200855D01*
X106982Y200886D01*
X107003Y200913D01*
X107090Y201083D01*
X107182Y201250D01*
X107193Y201283D01*
X107208Y201314D01*
X107308Y201610D01*
X107405Y201975D01*
X110935Y208089D01*
X112463Y209616D01*
X112546Y209716D01*
X112637Y209809D01*
X112691Y209889D01*
X112752Y209962D01*
X112816Y210075D01*
X112889Y210182D01*
X112928Y210270D01*
X112975Y210353D01*
X113019Y210475D01*
X113071Y210594D01*
X113094Y210687D01*
X113126Y210777D01*
X113147Y210905D01*
X113178Y211032D01*
X113184Y211127D01*
X113200Y211221D01*
X113198Y211351D01*
X113206Y211481D01*
X113195Y211576D01*
X113193Y211672D01*
X113169Y211799D01*
X113154Y211928D01*
X113126Y212020D01*
X113108Y212114D01*
X113061Y212235D01*
X113023Y212359D01*
X112980Y212445D01*
X112946Y212534D01*
X112878Y212645D01*
X112819Y212761D01*
X112761Y212837D01*
X112712Y212918D01*
X112626Y213016D01*
X112547Y213119D01*
X112477Y213184D01*
X112414Y213256D01*
X112312Y213336D01*
X112216Y213425D01*
X112135Y213476D01*
X112060Y213535D01*
X111946Y213597D01*
X111836Y213666D01*
X111748Y213703D01*
X111664Y213748D01*
X111540Y213788D01*
X111420Y213837D01*
X111326Y213857D01*
X111235Y213887D01*
X111107Y213905D01*
X110979Y213932D01*
X110849Y213940D01*
X110789Y213948D01*
X110745Y213947D01*
X110667Y213951D01*
X102728Y213951D01*
X96095Y216699D01*
X90660Y222133D01*
X80707Y232087D01*
X80570Y232201D01*
X80439Y232320D01*
X80398Y232345D01*
X80362Y232376D01*
X80207Y232464D01*
X80057Y232558D01*
X80012Y232575D01*
X79971Y232599D01*
X79803Y232659D01*
X79638Y232724D01*
X79591Y232734D01*
X79546Y232750D01*
X79371Y232779D01*
X79197Y232814D01*
X79149Y232815D01*
X79102Y232823D01*
X78924Y232821D01*
X78747Y232825D01*
X78700Y232818D01*
X78652Y232817D01*
X78477Y232783D01*
X78302Y232756D01*
X78257Y232741D01*
X78210Y232732D01*
X78044Y232668D01*
X77876Y232610D01*
X77834Y232587D01*
X77790Y232569D01*
X77638Y232477D01*
X77483Y232391D01*
X77446Y232360D01*
X77405Y232335D01*
X77272Y232218D01*
X77135Y232105D01*
X77104Y232069D01*
X77068Y232037D01*
X76957Y231898D01*
X76842Y231763D01*
X76818Y231722D01*
X76788Y231684D01*
X76704Y231528D01*
X76615Y231374D01*
X76598Y231329D01*
X76576Y231287D01*
X76521Y231118D01*
X76460Y230952D01*
X76451Y230904D01*
X76436Y230859D01*
X76412Y230683D01*
X76381Y230508D01*
X76382Y230460D01*
X76375Y230413D01*
X76382Y230235D01*
X76383Y230058D01*
X76391Y230011D01*
X76393Y229963D01*
X76432Y229789D01*
X76464Y229615D01*
X76483Y229559D01*
X76491Y229523D01*
X76501Y229500D01*
X76501Y220524D01*
X73075Y212254D01*
X66746Y205925D01*
X58476Y202499D01*
X49524Y202499D01*
X41254Y205925D01*
X34925Y212254D01*
X31499Y220524D01*
X31499Y229476D01*
X34960Y237830D01*
X34996Y237874D01*
X35078Y238016D01*
X35116Y238075D01*
X35117Y238078D01*
X35166Y238155D01*
X35190Y238212D01*
X35220Y238265D01*
X35275Y238420D01*
X35337Y238572D01*
X35350Y238631D01*
X35371Y238689D01*
X35397Y238851D01*
X35432Y239012D01*
X35437Y239089D01*
X35444Y239133D01*
X35443Y239194D01*
X35451Y239324D01*
X35451Y244948D01*
X35448Y244983D01*
X35450Y245017D01*
X35428Y245206D01*
X35411Y245397D01*
X35402Y245430D01*
X35398Y245464D01*
X35343Y245647D01*
X35293Y245831D01*
X35278Y245862D01*
X35268Y245895D01*
X35181Y246066D01*
X35099Y246238D01*
X35079Y246266D01*
X35064Y246297D01*
X34948Y246449D01*
X34837Y246604D01*
X34812Y246628D01*
X34792Y246655D01*
X34652Y246784D01*
X34515Y246918D01*
X34486Y246937D01*
X34460Y246961D01*
X34299Y247063D01*
X34142Y247170D01*
X34110Y247184D01*
X34081Y247202D01*
X33904Y247275D01*
X33730Y247352D01*
X33696Y247360D01*
X33664Y247373D01*
X33477Y247413D01*
X33292Y247459D01*
X33258Y247461D01*
X33224Y247468D01*
X32912Y247487D01*
X32564Y247487D01*
X32400Y247473D01*
X32236Y247466D01*
X32176Y247453D01*
X32115Y247447D01*
X31956Y247404D01*
X31796Y247368D01*
X31740Y247345D01*
X31681Y247329D01*
X31533Y247258D01*
X31381Y247195D01*
X31329Y247162D01*
X31274Y247135D01*
X31141Y247040D01*
X31002Y246950D01*
X30945Y246899D01*
X30908Y246873D01*
X30866Y246830D01*
X30768Y246744D01*
X6792Y222768D01*
X6687Y222641D01*
X6575Y222521D01*
X6543Y222469D01*
X6504Y222422D01*
X6422Y222280D01*
X6334Y222141D01*
X6310Y222084D01*
X6280Y222031D01*
X6225Y221877D01*
X6163Y221724D01*
X6150Y221665D01*
X6129Y221607D01*
X6103Y221445D01*
X6068Y221284D01*
X6063Y221207D01*
X6056Y221163D01*
X6057Y221102D01*
X6049Y220972D01*
X6049Y14528D01*
X6063Y14364D01*
X6070Y14200D01*
X6083Y14140D01*
X6089Y14079D01*
X6132Y13920D01*
X6168Y13760D01*
X6191Y13704D01*
X6207Y13645D01*
X6278Y13497D01*
X6341Y13345D01*
X6374Y13293D01*
X6401Y13238D01*
X6496Y13105D01*
X6586Y12966D01*
X6637Y12909D01*
X6663Y12872D01*
X6706Y12830D01*
X6792Y12732D01*
X7524Y12000D01*
X7651Y11895D01*
X7771Y11783D01*
X7823Y11751D01*
X7870Y11712D01*
X8012Y11630D01*
X8151Y11542D01*
X8208Y11518D01*
X8261Y11488D01*
X8415Y11433D01*
X8568Y11371D01*
X8627Y11358D01*
X8685Y11337D01*
X8847Y11311D01*
X9008Y11276D01*
X9085Y11271D01*
X9129Y11264D01*
X9190Y11265D01*
X9320Y11257D01*
X107608Y11257D01*
X107631Y11259D01*
G37*
G36*
X224350Y11272D02*
X224350Y11272D01*
X224527Y11282D01*
X224573Y11292D01*
X224621Y11297D01*
X224793Y11343D01*
X224965Y11384D01*
X225009Y11403D01*
X225055Y11415D01*
X225216Y11491D01*
X225379Y11562D01*
X225419Y11588D01*
X225462Y11609D01*
X225606Y11712D01*
X225755Y11810D01*
X225789Y11843D01*
X225828Y11871D01*
X225952Y11998D01*
X226081Y12121D01*
X226109Y12159D01*
X226142Y12193D01*
X226242Y12341D01*
X226347Y12484D01*
X226368Y12527D01*
X226394Y12566D01*
X226466Y12729D01*
X226544Y12888D01*
X226557Y12934D01*
X226577Y12978D01*
X226619Y13151D01*
X226667Y13322D01*
X226672Y13369D01*
X226683Y13416D01*
X226694Y13593D01*
X226712Y13770D01*
X226708Y13817D01*
X226711Y13865D01*
X226690Y14042D01*
X226676Y14219D01*
X226664Y14265D01*
X226659Y14312D01*
X226607Y14483D01*
X226562Y14654D01*
X226542Y14697D01*
X226529Y14743D01*
X226448Y14902D01*
X226373Y15063D01*
X226346Y15102D01*
X226324Y15145D01*
X226217Y15286D01*
X226115Y15432D01*
X226081Y15465D01*
X226052Y15503D01*
X225922Y15624D01*
X225796Y15749D01*
X225756Y15776D01*
X225721Y15808D01*
X225571Y15904D01*
X225425Y16005D01*
X225372Y16031D01*
X225341Y16050D01*
X225283Y16074D01*
X225144Y16142D01*
X223254Y16925D01*
X216925Y23254D01*
X213499Y31524D01*
X213499Y40476D01*
X216925Y48746D01*
X217208Y49028D01*
X217313Y49155D01*
X217425Y49275D01*
X217457Y49327D01*
X217496Y49374D01*
X217578Y49516D01*
X217666Y49655D01*
X217690Y49712D01*
X217720Y49765D01*
X217775Y49920D01*
X217837Y50072D01*
X217850Y50131D01*
X217871Y50189D01*
X217897Y50351D01*
X217932Y50512D01*
X217937Y50589D01*
X217944Y50633D01*
X217943Y50694D01*
X217951Y50824D01*
X217951Y53732D01*
X217937Y53895D01*
X217930Y54060D01*
X217917Y54119D01*
X217911Y54180D01*
X217868Y54339D01*
X217832Y54499D01*
X217809Y54556D01*
X217793Y54614D01*
X217722Y54763D01*
X217659Y54915D01*
X217626Y54966D01*
X217599Y55021D01*
X217504Y55155D01*
X217414Y55293D01*
X217363Y55351D01*
X217337Y55387D01*
X217294Y55430D01*
X217208Y55527D01*
X196699Y76036D01*
X193951Y82669D01*
X193951Y184957D01*
X193937Y185121D01*
X193930Y185285D01*
X193917Y185345D01*
X193911Y185406D01*
X193868Y185565D01*
X193832Y185725D01*
X193809Y185781D01*
X193793Y185840D01*
X193722Y185988D01*
X193659Y186140D01*
X193626Y186192D01*
X193599Y186247D01*
X193504Y186380D01*
X193414Y186519D01*
X193363Y186576D01*
X193337Y186613D01*
X193294Y186655D01*
X193208Y186753D01*
X182133Y197827D01*
X166753Y213208D01*
X166626Y213313D01*
X166506Y213425D01*
X166454Y213457D01*
X166407Y213496D01*
X166265Y213578D01*
X166126Y213666D01*
X166069Y213690D01*
X166016Y213720D01*
X165862Y213775D01*
X165709Y213837D01*
X165650Y213850D01*
X165592Y213871D01*
X165430Y213897D01*
X165269Y213932D01*
X165192Y213937D01*
X165148Y213944D01*
X165087Y213943D01*
X164957Y213951D01*
X154113Y213951D01*
X153983Y213940D01*
X153853Y213938D01*
X153759Y213920D01*
X153664Y213911D01*
X153538Y213877D01*
X153411Y213852D01*
X153322Y213818D01*
X153230Y213793D01*
X153112Y213737D01*
X152991Y213690D01*
X152909Y213640D01*
X152823Y213599D01*
X152717Y213524D01*
X152606Y213456D01*
X152535Y213393D01*
X152457Y213337D01*
X152366Y213244D01*
X152269Y213158D01*
X152210Y213083D01*
X152143Y213015D01*
X152070Y212907D01*
X151989Y212805D01*
X151944Y212721D01*
X151891Y212642D01*
X151838Y212523D01*
X151777Y212408D01*
X151747Y212317D01*
X151709Y212230D01*
X151678Y212104D01*
X151638Y211980D01*
X151624Y211885D01*
X151602Y211792D01*
X151594Y211663D01*
X151576Y211534D01*
X151580Y211438D01*
X151574Y211343D01*
X151589Y211214D01*
X151595Y211084D01*
X151615Y210991D01*
X151626Y210896D01*
X151664Y210771D01*
X151692Y210644D01*
X151729Y210556D01*
X151757Y210465D01*
X151816Y210349D01*
X151866Y210229D01*
X151918Y210149D01*
X151961Y210063D01*
X152039Y209960D01*
X152110Y209851D01*
X152196Y209753D01*
X152233Y209705D01*
X152262Y209678D01*
X152269Y209668D01*
X152279Y209659D01*
X152317Y209616D01*
X153845Y208089D01*
X157375Y201975D01*
X159202Y195156D01*
X159202Y188096D01*
X157375Y181277D01*
X153845Y175163D01*
X148853Y170171D01*
X142739Y166641D01*
X135920Y164814D01*
X128860Y164814D01*
X125808Y165632D01*
X125774Y165638D01*
X125741Y165649D01*
X125553Y165677D01*
X125365Y165710D01*
X125330Y165709D01*
X125296Y165714D01*
X125106Y165708D01*
X124915Y165707D01*
X124880Y165701D01*
X124846Y165700D01*
X124659Y165660D01*
X124472Y165626D01*
X124439Y165614D01*
X124405Y165606D01*
X124228Y165534D01*
X124050Y165467D01*
X124021Y165450D01*
X123988Y165437D01*
X123827Y165334D01*
X123663Y165237D01*
X123637Y165214D01*
X123608Y165196D01*
X123467Y165067D01*
X123323Y164942D01*
X123302Y164915D01*
X123276Y164891D01*
X123160Y164740D01*
X123041Y164591D01*
X123024Y164561D01*
X123003Y164533D01*
X122916Y164364D01*
X122825Y164196D01*
X122814Y164163D01*
X122798Y164133D01*
X122741Y163964D01*
X122734Y163948D01*
X122729Y163928D01*
X122727Y163922D01*
X121572Y161922D01*
X121562Y161901D01*
X121550Y161882D01*
X121468Y161696D01*
X121383Y161513D01*
X121377Y161491D01*
X121367Y161470D01*
X121319Y161273D01*
X121268Y161078D01*
X121266Y161055D01*
X121261Y161032D01*
X121248Y160831D01*
X121232Y160629D01*
X121234Y160606D01*
X121233Y160583D01*
X121256Y160382D01*
X121276Y160181D01*
X121282Y160159D01*
X121285Y160136D01*
X121344Y159941D01*
X121399Y159748D01*
X121409Y159727D01*
X121415Y159705D01*
X121507Y159524D01*
X121596Y159343D01*
X121609Y159324D01*
X121620Y159303D01*
X121742Y159143D01*
X121861Y158979D01*
X121878Y158963D01*
X121892Y158945D01*
X122040Y158808D01*
X122187Y158668D01*
X122206Y158655D01*
X122223Y158639D01*
X122394Y158531D01*
X122562Y158419D01*
X122583Y158410D01*
X122603Y158398D01*
X122790Y158321D01*
X122975Y158241D01*
X122998Y158235D01*
X123019Y158227D01*
X123217Y158184D01*
X123414Y158138D01*
X123437Y158137D01*
X123459Y158132D01*
X123771Y158113D01*
X127899Y158113D01*
X135410Y155001D01*
X135447Y154990D01*
X135482Y154973D01*
X135662Y154922D01*
X135839Y154867D01*
X135878Y154862D01*
X135916Y154851D01*
X136101Y154833D01*
X136286Y154810D01*
X136325Y154812D01*
X136364Y154808D01*
X136550Y154824D01*
X136736Y154833D01*
X136774Y154842D01*
X136813Y154845D01*
X136993Y154893D01*
X137174Y154935D01*
X137210Y154951D01*
X137248Y154961D01*
X137534Y155085D01*
X137575Y155106D01*
X138741Y155484D01*
X138741Y153083D01*
X138750Y152980D01*
X138749Y152875D01*
X138770Y152756D01*
X138780Y152635D01*
X138808Y152534D01*
X138826Y152432D01*
X138867Y152318D01*
X138899Y152200D01*
X138944Y152106D01*
X138979Y152008D01*
X139040Y151903D01*
X139092Y151794D01*
X139153Y151709D01*
X139205Y151619D01*
X139319Y151477D01*
X139355Y151428D01*
X139355Y151427D01*
X139374Y151409D01*
X139401Y151375D01*
X139541Y151246D01*
X139678Y151113D01*
X139707Y151094D01*
X139732Y151070D01*
X139893Y150968D01*
X140051Y150861D01*
X140083Y150847D01*
X140112Y150828D01*
X140288Y150756D01*
X140462Y150679D01*
X140497Y150671D01*
X140529Y150657D01*
X140715Y150617D01*
X140900Y150572D01*
X140935Y150570D01*
X140969Y150563D01*
X141160Y150556D01*
X141349Y150545D01*
X141384Y150549D01*
X141419Y150548D01*
X141607Y150575D01*
X141796Y150597D01*
X141830Y150607D01*
X141865Y150612D01*
X142045Y150672D01*
X142227Y150727D01*
X142259Y150743D01*
X142292Y150754D01*
X142459Y150845D01*
X142629Y150931D01*
X142657Y150953D01*
X142688Y150969D01*
X142836Y151088D01*
X142987Y151203D01*
X143011Y151229D01*
X143039Y151251D01*
X143164Y151395D01*
X143293Y151535D01*
X143312Y151564D01*
X143335Y151591D01*
X143432Y151754D01*
X143534Y151914D01*
X143548Y151947D01*
X143566Y151977D01*
X143633Y152155D01*
X143705Y152331D01*
X143713Y152365D01*
X143725Y152398D01*
X143760Y152584D01*
X143800Y152771D01*
X143803Y152814D01*
X143808Y152841D01*
X143808Y152902D01*
X143819Y153083D01*
X143819Y155484D01*
X144985Y155106D01*
X146339Y154416D01*
X147568Y153523D01*
X148643Y152448D01*
X149536Y151219D01*
X150226Y149865D01*
X150695Y148420D01*
X150904Y147101D01*
X150907Y147088D01*
X150908Y147075D01*
X150962Y146871D01*
X151014Y146664D01*
X151019Y146652D01*
X151022Y146640D01*
X151111Y146448D01*
X151199Y146253D01*
X151206Y146243D01*
X151211Y146231D01*
X151333Y146057D01*
X151453Y145882D01*
X151462Y145873D01*
X151470Y145862D01*
X151619Y145714D01*
X151769Y145561D01*
X151780Y145554D01*
X151789Y145545D01*
X151964Y145424D01*
X152137Y145302D01*
X152149Y145296D01*
X152160Y145289D01*
X152440Y145152D01*
X153806Y144586D01*
X160026Y138366D01*
X163393Y130239D01*
X163393Y121441D01*
X161409Y116652D01*
X161359Y116495D01*
X161303Y116340D01*
X161292Y116280D01*
X161274Y116222D01*
X161253Y116059D01*
X161225Y115897D01*
X161225Y115836D01*
X161217Y115775D01*
X161226Y115611D01*
X161226Y115447D01*
X161237Y115387D01*
X161240Y115326D01*
X161278Y115166D01*
X161307Y115004D01*
X161332Y114931D01*
X161342Y114887D01*
X161366Y114831D01*
X161409Y114708D01*
X163393Y109918D01*
X163393Y101121D01*
X161409Y96332D01*
X161359Y96175D01*
X161303Y96020D01*
X161292Y95960D01*
X161274Y95902D01*
X161253Y95739D01*
X161225Y95577D01*
X161225Y95516D01*
X161217Y95455D01*
X161226Y95291D01*
X161226Y95127D01*
X161237Y95067D01*
X161240Y95006D01*
X161278Y94846D01*
X161307Y94684D01*
X161332Y94611D01*
X161342Y94567D01*
X161366Y94511D01*
X161409Y94388D01*
X163393Y89598D01*
X163393Y80801D01*
X160026Y72674D01*
X153806Y66454D01*
X145679Y63087D01*
X143871Y63087D01*
X143707Y63073D01*
X143543Y63066D01*
X143484Y63053D01*
X143423Y63047D01*
X143264Y63004D01*
X143104Y62968D01*
X143047Y62945D01*
X142988Y62929D01*
X142840Y62858D01*
X142688Y62795D01*
X142637Y62762D01*
X142582Y62735D01*
X142448Y62640D01*
X142310Y62550D01*
X142252Y62499D01*
X142216Y62473D01*
X142173Y62430D01*
X142076Y62344D01*
X139186Y59454D01*
X139171Y59436D01*
X139154Y59421D01*
X139026Y59263D01*
X138897Y59108D01*
X138886Y59088D01*
X138871Y59070D01*
X138774Y58893D01*
X138674Y58718D01*
X138666Y58696D01*
X138655Y58675D01*
X138591Y58484D01*
X138523Y58293D01*
X138519Y58270D01*
X138512Y58249D01*
X138482Y58049D01*
X138449Y57849D01*
X138450Y57826D01*
X138446Y57803D01*
X138453Y57601D01*
X138455Y57399D01*
X138460Y57376D01*
X138461Y57353D01*
X138503Y57155D01*
X138541Y56957D01*
X138549Y56935D01*
X138554Y56913D01*
X138631Y56725D01*
X138703Y56537D01*
X138715Y56517D01*
X138724Y56496D01*
X138832Y56325D01*
X138937Y56152D01*
X138953Y56135D01*
X138965Y56115D01*
X139101Y55967D01*
X139235Y55815D01*
X139254Y55800D01*
X139269Y55783D01*
X139430Y55661D01*
X139589Y55535D01*
X139609Y55524D01*
X139627Y55510D01*
X139808Y55418D01*
X139985Y55323D01*
X140007Y55315D01*
X140028Y55305D01*
X140324Y55206D01*
X142739Y54559D01*
X148853Y51029D01*
X153845Y46037D01*
X157375Y39923D01*
X159202Y33104D01*
X159202Y26044D01*
X157375Y19225D01*
X154973Y15066D01*
X154963Y15045D01*
X154950Y15026D01*
X154869Y14841D01*
X154783Y14657D01*
X154778Y14635D01*
X154768Y14614D01*
X154720Y14417D01*
X154669Y14222D01*
X154667Y14199D01*
X154662Y14176D01*
X154649Y13975D01*
X154633Y13773D01*
X154635Y13750D01*
X154634Y13727D01*
X154657Y13526D01*
X154677Y13325D01*
X154683Y13303D01*
X154686Y13280D01*
X154745Y13085D01*
X154799Y12892D01*
X154810Y12871D01*
X154816Y12849D01*
X154908Y12669D01*
X154996Y12487D01*
X155010Y12468D01*
X155021Y12447D01*
X155143Y12287D01*
X155262Y12123D01*
X155279Y12107D01*
X155293Y12089D01*
X155442Y11951D01*
X155587Y11812D01*
X155607Y11799D01*
X155624Y11783D01*
X155795Y11675D01*
X155963Y11563D01*
X155984Y11554D01*
X156003Y11542D01*
X156190Y11465D01*
X156376Y11385D01*
X156399Y11379D01*
X156420Y11371D01*
X156618Y11328D01*
X156815Y11282D01*
X156838Y11281D01*
X156860Y11276D01*
X157172Y11257D01*
X224173Y11257D01*
X224350Y11272D01*
G37*
%LPC*%
G36*
X513239Y259947D02*
X513239Y259947D01*
X513239Y267061D01*
X520353Y267061D01*
X520353Y265602D01*
X514698Y259947D01*
X513239Y259947D01*
G37*
%LPD*%
D10*
X28100Y269600D03*
D11*
X28100Y295000D03*
X53500Y269600D03*
X53500Y295000D03*
X78900Y269600D03*
X78900Y295000D03*
X104300Y269600D03*
X104300Y295000D03*
X129700Y269600D03*
X129700Y295000D03*
X155100Y269600D03*
X155100Y295000D03*
X180500Y269600D03*
X180500Y295000D03*
X205900Y269600D03*
X205900Y295000D03*
X231300Y269600D03*
X231300Y295000D03*
X256700Y269600D03*
X256700Y295000D03*
X282100Y269600D03*
X282100Y295000D03*
X307500Y269600D03*
X307500Y295000D03*
X332900Y269600D03*
X332900Y295000D03*
X358300Y269600D03*
X358300Y295000D03*
X383700Y269600D03*
X383700Y295000D03*
X409100Y269600D03*
X409100Y295000D03*
X434500Y269600D03*
X434500Y295000D03*
X459900Y269600D03*
X459900Y295000D03*
X485300Y269600D03*
X485300Y295000D03*
X510700Y269600D03*
X510700Y295000D03*
D10*
X123500Y75040D03*
X141280Y85200D03*
X123500Y95360D03*
X141280Y105520D03*
X123500Y115680D03*
X141280Y125840D03*
X123500Y136000D03*
X141280Y146160D03*
D12*
X132390Y191626D03*
X132390Y29574D03*
D13*
X280900Y30150D02*
X288400Y30150D01*
X280900Y30150D02*
X280900Y41850D01*
X288400Y41850D01*
X288400Y30150D01*
X288400Y32649D02*
X280900Y32649D01*
X280900Y35148D02*
X288400Y35148D01*
X288400Y37647D02*
X280900Y37647D01*
X280900Y40146D02*
X288400Y40146D01*
X299600Y30150D02*
X307100Y30150D01*
X299600Y30150D02*
X299600Y41850D01*
X307100Y41850D01*
X307100Y30150D01*
X307100Y32649D02*
X299600Y32649D01*
X299600Y35148D02*
X307100Y35148D01*
X307100Y37647D02*
X299600Y37647D01*
X299600Y40146D02*
X307100Y40146D01*
X287400Y82150D02*
X279900Y82150D01*
X279900Y93850D01*
X287400Y93850D01*
X287400Y82150D01*
X287400Y84649D02*
X279900Y84649D01*
X279900Y87148D02*
X287400Y87148D01*
X287400Y89647D02*
X279900Y89647D01*
X279900Y92146D02*
X287400Y92146D01*
X298600Y82150D02*
X306100Y82150D01*
X298600Y82150D02*
X298600Y93850D01*
X306100Y93850D01*
X306100Y82150D01*
X306100Y84649D02*
X298600Y84649D01*
X298600Y87148D02*
X306100Y87148D01*
X306100Y89647D02*
X298600Y89647D01*
X298600Y92146D02*
X306100Y92146D01*
D14*
X510700Y215700D02*
X510700Y269600D01*
X455000Y160000D02*
X250000Y160000D01*
D15*
X250000Y160000D03*
D14*
X455000Y160000D02*
X510700Y215700D01*
D15*
X20000Y120000D03*
D14*
X-12000Y6000D02*
X792Y-6792D01*
X345000Y-6792D01*
X345000Y36000D01*
X345000Y88000D02*
X302350Y88000D01*
X303350Y36000D02*
X345000Y36000D01*
D15*
X345000Y68000D03*
D14*
X345000Y88000D01*
X345000Y68000D02*
X345000Y36000D01*
X28100Y269600D02*
X-12000Y229500D01*
X-12000Y6000D01*
D15*
X54000Y225000D03*
D14*
X54000Y269600D02*
X53500Y269600D01*
X53500Y225000D01*
X54000Y225000D01*
D15*
X255000Y87000D03*
D14*
X256000Y88000D02*
X283650Y88000D01*
X256000Y88000D02*
X255000Y87000D01*
X236000Y36000D02*
X284650Y36000D01*
D15*
X236000Y36000D03*
D14*
X236000Y62259D01*
X194243Y211243D02*
X192000Y213485D01*
X194243Y211243D02*
X212000Y193485D01*
X212000Y86259D01*
X236000Y62259D01*
X79140Y269360D02*
X78900Y269600D01*
X79140Y269360D02*
X79140Y259178D01*
X106318Y232000D01*
X173485Y232000D02*
X192000Y213485D01*
X173485Y232000D02*
X106318Y232000D01*
M02*
