G04 EAGLE Gerber X2 export*
%TF.Part,Single*%
%TF.FileFunction,Profile,NP*%
%TF.FilePolarity,Positive*%
%TF.GenerationSoftware,Autodesk,EAGLE,8.6.3*%
%TF.CreationDate,2019-03-24T10:24:13Z*%
G75*
%MOMM*%
%FSLAX34Y34*%
%LPD*%
%AMOC8*
5,1,8,0,0,1.08239X$1,22.5*%
G01*
%ADD10C,0.254000*%


D10*
X-50000Y-20000D02*
X580000Y-20000D01*
X580000Y350000D01*
X-50000Y350000D01*
X-50000Y-20000D01*
X97568Y30844D02*
X96506Y30914D01*
X95451Y31053D01*
X94407Y31260D01*
X93379Y31536D01*
X92371Y31878D01*
X91387Y32285D01*
X90433Y32756D01*
X89511Y33288D01*
X88626Y33879D01*
X87782Y34527D01*
X86982Y35229D01*
X86229Y35982D01*
X85527Y36782D01*
X84879Y37626D01*
X84288Y38511D01*
X83756Y39433D01*
X83285Y40387D01*
X82878Y41371D01*
X82536Y42379D01*
X82260Y43407D01*
X82053Y44451D01*
X81914Y45506D01*
X81844Y46568D01*
X81844Y47632D01*
X81914Y48694D01*
X82053Y49749D01*
X82260Y50793D01*
X82536Y51821D01*
X82878Y52829D01*
X83285Y53813D01*
X83756Y54767D01*
X84288Y55689D01*
X84879Y56574D01*
X85527Y57418D01*
X86229Y58218D01*
X86982Y58971D01*
X87782Y59673D01*
X88626Y60321D01*
X89511Y60912D01*
X90433Y61444D01*
X91387Y61915D01*
X92371Y62322D01*
X93379Y62664D01*
X94407Y62940D01*
X95451Y63147D01*
X96506Y63286D01*
X97568Y63356D01*
X98632Y63356D01*
X99694Y63286D01*
X100749Y63147D01*
X101793Y62940D01*
X102821Y62664D01*
X103829Y62322D01*
X104813Y61915D01*
X105767Y61444D01*
X106689Y60912D01*
X107574Y60321D01*
X108418Y59673D01*
X109218Y58971D01*
X109971Y58218D01*
X110673Y57418D01*
X111321Y56574D01*
X111912Y55689D01*
X112444Y54767D01*
X112915Y53813D01*
X113322Y52829D01*
X113664Y51821D01*
X113940Y50793D01*
X114147Y49749D01*
X114286Y48694D01*
X114356Y47632D01*
X114356Y46568D01*
X114286Y45506D01*
X114147Y44451D01*
X113940Y43407D01*
X113664Y42379D01*
X113322Y41371D01*
X112915Y40387D01*
X112444Y39433D01*
X111912Y38511D01*
X111321Y37626D01*
X110673Y36782D01*
X109971Y35982D01*
X109218Y35229D01*
X108418Y34527D01*
X107574Y33879D01*
X106689Y33288D01*
X105767Y32756D01*
X104813Y32285D01*
X103829Y31878D01*
X102821Y31536D01*
X101793Y31260D01*
X100749Y31053D01*
X99694Y30914D01*
X98632Y30844D01*
X97568Y30844D01*
X97568Y157844D02*
X96506Y157914D01*
X95451Y158053D01*
X94407Y158260D01*
X93379Y158536D01*
X92371Y158878D01*
X91387Y159285D01*
X90433Y159756D01*
X89511Y160288D01*
X88626Y160879D01*
X87782Y161527D01*
X86982Y162229D01*
X86229Y162982D01*
X85527Y163782D01*
X84879Y164626D01*
X84288Y165511D01*
X83756Y166433D01*
X83285Y167387D01*
X82878Y168371D01*
X82536Y169379D01*
X82260Y170407D01*
X82053Y171451D01*
X81914Y172506D01*
X81844Y173568D01*
X81844Y174632D01*
X81914Y175694D01*
X82053Y176749D01*
X82260Y177793D01*
X82536Y178821D01*
X82878Y179829D01*
X83285Y180813D01*
X83756Y181767D01*
X84288Y182689D01*
X84879Y183574D01*
X85527Y184418D01*
X86229Y185218D01*
X86982Y185971D01*
X87782Y186673D01*
X88626Y187321D01*
X89511Y187912D01*
X90433Y188444D01*
X91387Y188915D01*
X92371Y189322D01*
X93379Y189664D01*
X94407Y189940D01*
X95451Y190147D01*
X96506Y190286D01*
X97568Y190356D01*
X98632Y190356D01*
X99694Y190286D01*
X100749Y190147D01*
X101793Y189940D01*
X102821Y189664D01*
X103829Y189322D01*
X104813Y188915D01*
X105767Y188444D01*
X106689Y187912D01*
X107574Y187321D01*
X108418Y186673D01*
X109218Y185971D01*
X109971Y185218D01*
X110673Y184418D01*
X111321Y183574D01*
X111912Y182689D01*
X112444Y181767D01*
X112915Y180813D01*
X113322Y179829D01*
X113664Y178821D01*
X113940Y177793D01*
X114147Y176749D01*
X114286Y175694D01*
X114356Y174632D01*
X114356Y173568D01*
X114286Y172506D01*
X114147Y171451D01*
X113940Y170407D01*
X113664Y169379D01*
X113322Y168371D01*
X112915Y167387D01*
X112444Y166433D01*
X111912Y165511D01*
X111321Y164626D01*
X110673Y163782D01*
X109971Y162982D01*
X109218Y162229D01*
X108418Y161527D01*
X107574Y160879D01*
X106689Y160288D01*
X105767Y159756D01*
X104813Y159285D01*
X103829Y158878D01*
X102821Y158536D01*
X101793Y158260D01*
X100749Y158053D01*
X99694Y157914D01*
X98632Y157844D01*
X97568Y157844D01*
M02*
